<svg width="48" height="48" version="1.1" xmlns="http://www.w3.org/2000/svg"><path class="cls-1" d="m40.102 34.768c-1.9166 1.8858-4.8896 2.3335-7.2558 2.3451-7.3933 0-13.834-5.6854-13.834-12.211 0.01927-1.7823 1.0014-3.4147 2.567-4.2667-6.6871 0.28122-8.4057 7.2492-8.4057 11.332 0 11.542 10.638 12.713 12.93 12.713 1.2359 0 3.0998-0.35933 4.2185-0.71242l0.20468-0.06874c4.3048-1.4881 7.9747-4.3974 10.406-8.2491 0.34719-0.54698-0.26486-1.1958-0.8312-0.88115z" opacity=".2"/><path class="cls-1" d="m40.102 33.769c-1.9166 1.8858-4.8896 2.3335-7.2558 2.3451-7.3933 0-13.834-5.6854-13.834-12.211 0.01927-1.7823 1.0014-3.4147 2.567-4.2667-6.6871 0.28122-8.4057 7.2492-8.4057 11.332 0 11.542 10.638 12.713 12.93 12.713 1.2359 0 3.0998-0.35933 4.2185-0.71242l0.20468-0.06874c4.3048-1.4881 7.9747-4.3974 10.406-8.2491 0.34719-0.54698-0.26486-1.1958-0.8312-0.88115z" fill="#0e539b"/><path class="cls-3" d="m19.919 42.717c-1.3936-0.8649-2.6013-1.9982-3.5529-3.334-4.6176-6.3261-1.8125-15.287 5.2136-18.748 0.48747-0.22966 1.3202-0.64524 2.428-0.62493 1.5821 0.01152 3.0675 0.76315 4.0138 2.031 0.63093 0.84238 0.9788 1.863 0.99369 2.9153 0-0.03281 3.8216-12.436-12.499-12.436-6.8589 0-12.499 6.5086-12.499 12.219-0.027055 3.0207 0.61929 6.0094 1.8921 8.749 4.3056 9.1862 14.808 13.693 24.433 10.485-3.295 1.0388-7.4795 0.58206-10.409-1.2499z" opacity=".2"/><path class="cls-3" d="m19.919 41.718c-1.3936-0.8649-2.6013-1.9982-3.5529-3.334-4.6176-6.3261-1.8125-15.287 5.2136-18.748 0.48747-0.22966 1.3202-0.64524 2.428-0.62493 1.5821 0.01152 3.0675 0.76315 4.0138 2.031 0.63093 0.84238 0.9788 1.863 0.99369 2.9153 0-0.03281 3.8216-12.436-12.499-12.436-6.8589 0-12.499 6.5086-12.499 12.219-0.027055 3.0207 0.61929 6.0094 1.8921 8.749 4.3056 9.1862 14.808 13.693 24.433 10.485-3.295 1.0388-7.4795 0.58206-10.409-1.2499z" fill="#0b87da"/><path class="cls-5" d="m27.8 27.657c-0.12655 0.16404-0.51559 0.39058-0.51559 0.88428 0 0.40777 0.26561 0.79991 0.73745 1.1296 2.2467 1.5623 6.4824 1.3561 6.4933 1.3561 1.6648-4e-3 3.298-0.4545 4.7294-1.3045 2.9382-1.7155 4.7474-4.2596 4.7544-7.6619 0.04062-3.5012-1.2499-5.829-1.7718-6.8602-3.3107-6.4758-10.457-10.2-18.229-10.2-10.936-0.0010811-19.845 8.7821-19.999 19.717 0.074995-5.7087 5.7496-10.719 12.499-10.719 0.54684 0 3.6654 0.05312 6.5621 1.5733 2.553 1.3405 3.8904 3.359 4.82 4.9636 1.3512 2.5494 1.4093 5.1766-0.08124 7.1228z" opacity=".2"/><path class="cls-5" d="m27.8 26.657c-0.12655 0.16404-0.51559 0.39058-0.51559 0.88428 0 0.40777 0.26561 0.79991 0.73745 1.1296 2.2467 1.5623 6.4824 1.3561 6.4933 1.3561 1.6648-4e-3 3.298-0.4545 4.7294-1.3045 2.9382-1.7155 4.7474-4.2596 4.7544-7.6619 0.04062-3.5012-1.2499-5.829-1.7718-6.8602-3.3107-6.4758-10.457-10.2-18.229-10.2-10.936-0.0010811-19.845 8.7821-19.999 19.717 0.074995-5.7087 5.7496-10.719 12.499-10.719 0.54684 0 3.6654 0.05312 6.5621 1.5733 2.553 1.3405 3.8904 3.359 4.82 4.9636 1.3512 2.5494 1.4093 5.1766-0.08124 7.1228z" fill="#17dcbe"/><path d="m23.998 4c-10.936-0.0010811-19.844 8.7823-19.998 19.717 0.01018-0.77493 0.13071-1.535 0.33594-2.2734 1.6829-9.3585 9.8447-16.444 19.662-16.443 7.7714 0 14.918 3.7253 18.229 10.201 0.48761 0.96349 1.6332 3.0721 1.75 6.1992 0.004468-0.11487 0.023198-0.22295 0.023438-0.33984 0.04062-3.5012-1.2516-5.8282-1.7734-6.8594-3.3107-6.4758-10.457-10.201-18.229-10.201zm4.8711 19.799c-0.084718 1.0383-0.42192 2.0134-1.0684 2.8574-0.12655 0.16404-0.51562 0.39107-0.51562 0.88477 0 0.1786 0.059327 0.35281 0.15625 0.52148 0.12354-0.18183 0.28483-0.30962 0.35938-0.40625 0.85042-1.1104 1.1787-2.4446 1.0684-3.8574z" fill="#fff" opacity=".2"/><g transform="matrix(2.1891 0 0 2.1891 -52.42 -51.365)"><rect x="24.105" y="37.811" width="21.684" height="7.4569" rx="2.85" fill="#2e7fa7" fill-rule="evenodd" opacity=".8" style="paint-order:stroke fill markers"/><text x="35.067043" y="43.370865" fill="#ffffff" font-family="Lato" font-size="14.68px" font-weight="bold" stroke-width="1.2233" text-anchor="middle"><tspan font-size="6.1166px" stroke-width="1.2233">flatpak</tspan></text></g></svg>
