<svg width="48" height="48" version="1.1" xmlns="http://www.w3.org/2000/svg"><path d="m17.727 5-3.338 3.5664c-0.044 0.0147-0.37-0.2599-0.726-0.3652-0.953-0.2824-2.163-0.2342-2.986 0.1425-0.538 0.2465-0.7464 0.4199-2.0258 1.6873-1.379 1.366-1.6512 1.694-1.6512 1.985 0 0.075 0.4983 0.808 0.7436 1.382l0.445 1.045-0.5718 1.582c-0.3145 0.87-0.5858 1.63-0.6051 1.69-0.0488 0.152 4.4163 17.349 4.6493 17.908 0.423 1.014 1.089 1.923 1.952 2.668 0.778 0.672 8.681 6.112 9.464 6.514 0.231 0.119 0.604 0.187 0.923 0.195 0.319-8e-3 0.692-0.076 0.923-0.195 0.783-0.402 8.686-5.842 9.464-6.514 0.863-0.745 1.529-1.654 1.952-2.668 0.233-0.559 4.698-17.756 4.649-17.908-0.019-0.06-0.29-0.82-0.605-1.69l-0.572-1.582 0.445-1.045c0.246-0.574 0.744-1.307 0.744-1.382 0-0.291-0.272-0.619-1.651-1.985-1.28-1.2674-1.488-1.4408-2.026-1.6873-0.823-0.3767-2.033-0.4249-2.986-0.1425-0.356 0.1053-0.682 0.3799-0.726 0.3652l-3.338-3.5664h-6.273z" opacity=".2"/><path d="m17.727 4-3.338 3.5664c-0.044 0.0147-0.37-0.2599-0.726-0.3652-0.953-0.2824-2.163-0.2342-2.986 0.1425-0.538 0.2465-0.7464 0.4199-2.0258 1.6875-1.379 1.3668-1.6512 1.6938-1.6512 1.9848 0 0.075 0.4983 0.808 0.7436 1.382l0.445 1.045-0.5718 1.582c-0.3145 0.87-0.5858 1.63-0.6051 1.69-0.0488 0.152 4.4163 17.349 4.6493 17.908 0.423 1.014 1.089 1.923 1.952 2.668 0.778 0.672 8.681 6.112 9.464 6.514 0.231 0.119 0.604 0.187 0.923 0.195 0.319-8e-3 0.692-0.076 0.923-0.195 0.783-0.402 8.686-5.842 9.464-6.514 0.863-0.745 1.529-1.654 1.952-2.668 0.233-0.559 4.698-17.756 4.649-17.908-0.019-0.06-0.29-0.82-0.605-1.69l-0.572-1.582 0.445-1.045c0.246-0.574 0.744-1.307 0.744-1.382 0-0.291-0.272-0.618-1.651-1.9848-1.28-1.2676-1.488-1.441-2.026-1.6875-0.823-0.3767-2.033-0.4249-2.986-0.1425-0.356 0.1053-0.682 0.3799-0.726 0.3652l-3.338-3.5664h-6.273z" fill="#ee5132"/><path d="m25.58 34.924s1.718-1.155 3.247-2.271c0.86-0.628 0.996-0.789 0.855-1.011-0.112-0.177-2.888-1.57-4.215-2.115-1.396-0.572-1.543-0.573-2.897-0.011-1.214 0.503-3.946 1.88-4.175 2.106-0.237 0.233-0.117 0.446 0.479 0.858 1.229 0.848 3.585 2.479 3.585 2.479 1.602 1.393 1.478 1.394 3.121-0.034zm-6.44-4.981c1.666-0.799 1.915-0.964 3.189-2.115 1.071-0.967 1.269-1.255 1.116-1.621-0.051-0.124-0.856-0.881-1.788-1.683-2.202-1.893-2.11-1.626-1.272-3.681 0.498-1.221 0.628-1.629 0.626-1.968-3e-3 -0.511-0.188-0.894-0.562-1.16-0.152-0.107-1.482-0.654-2.957-1.216-1.475-0.561-2.673-1.058-2.663-1.103 0.024-0.104 1.65-0.285 2.831-0.315l0.893-0.023 1.642 0.585c1.432 0.51 1.657 0.615 1.765 0.822 0.067 0.131 0.122 0.306 0.121 0.39s-0.267 1.297-0.59 2.695c-0.567 2.449-0.583 2.548-0.435 2.698 0.233 0.237 2.523 0.788 3.238 0.732 0.817-0.063 2.485-0.571 2.653-0.742 0.137-0.138 0.111-0.294-0.444-2.688-0.324-1.398-0.59-2.611-0.591-2.695s0.054-0.26 0.122-0.391c0.108-0.208 0.319-0.309 1.595-0.764 2.057-0.734 2.015-0.728 3.884-0.559 0.871 0.079 1.619 0.177 1.662 0.218 0.046 0.044-6e-3 0.107-0.128 0.153-0.112 0.044-1.315 0.504-2.671 1.023-1.357 0.519-2.609 1.038-2.784 1.153-0.409 0.27-0.608 0.655-0.61 1.184-2e-3 0.335 0.127 0.74 0.611 1.922 0.338 0.823 0.614 1.575 0.614 1.669 0 0.382-0.28 0.691-1.828 2.019-0.889 0.763-1.679 1.5-1.754 1.637-0.076 0.137-0.119 0.346-0.096 0.465 0.039 0.204 1.104 1.254 2.189 2.159 0.456 0.38 3.216 2.142 3.658 2.214 0.371 0.06 0.766-0.504 1.414-1.051 0.635-0.537 1.014-1.074 1.271-1.804 0.241-0.685 0.181-1.146-0.297-2.255-0.364-0.846-0.461-1.311-0.338-1.628 0.028-0.073 1.013-1.024 2.19-2.114 2.563-2.375 3.174-2.8 3.315-3.224 0.156-0.471 0.046-1.092-0.305-1.716-0.837-1.492-4.316-6.165-4.611-6.165-1.522 0.248-2.796 0.797-4.399 1.049-0.126 1e-3 -0.662-0.133-1.191-0.297-2.259-0.699-2.991-0.752-3.429-0.752-0.437 0-1.169 0.053-3.428 0.752-0.529 0.164-1.071 0.298-1.204 0.298-1.579-0.233-2.751-0.86-4.386-1.05-0.255 0.172-2.517 3.338-3.454 4.721-1.101 1.626-1.413 1.835-1.502 2.455-0.1255 0.866 0.193 1.012 3.484 4.054 1.107 1.024 2.035 1.92 2.062 1.991 0.124 0.321 0.026 0.805-0.333 1.652-0.493 1.163-0.537 1.486-0.299 2.189 0.259 0.764 0.697 1.381 1.36 1.915 0.616 0.495 0.854 0.992 1.218 1 0.13 3e-3 0.862-0.668 1.626-1.035z" opacity=".2"/><path d="m25.58 33.924s1.718-1.155 3.247-2.271c0.86-0.628 0.996-0.789 0.855-1.011-0.112-0.177-2.888-1.57-4.215-2.115-1.396-0.572-1.543-0.573-2.897-0.011-1.214 0.502-3.946 1.88-4.175 2.106-0.237 0.233-0.117 0.446 0.479 0.858 1.229 0.848 3.585 2.479 3.585 2.479 1.602 1.393 1.478 1.394 3.121-0.034zm-6.44-4.981c1.666-0.799 1.915-0.964 3.189-2.115 1.071-0.967 1.269-1.255 1.116-1.621-0.051-0.124-0.856-0.881-1.788-1.683-2.202-1.893-2.11-1.626-1.272-3.681 0.498-1.221 0.628-1.629 0.626-1.968-3e-3 -0.511-0.188-0.894-0.562-1.16-0.152-0.107-1.482-0.654-2.957-1.216-1.475-0.561-2.673-1.058-2.663-1.103 0.024-0.104 1.65-0.285 2.831-0.315l0.893-0.023 1.642 0.585c1.432 0.51 1.657 0.615 1.765 0.822 0.067 0.131 0.122 0.306 0.121 0.39s-0.267 1.297-0.59 2.695c-0.567 2.449-0.583 2.548-0.435 2.697 0.233 0.238 2.523 0.789 3.238 0.733 0.817-0.063 2.485-0.571 2.653-0.742 0.137-0.138 0.111-0.294-0.444-2.688-0.324-1.398-0.59-2.611-0.591-2.695s0.054-0.26 0.122-0.391c0.108-0.208 0.319-0.309 1.595-0.764 2.057-0.734 2.015-0.728 3.884-0.559 0.871 0.079 1.619 0.177 1.662 0.218 0.046 0.044-6e-3 0.107-0.128 0.153-0.112 0.044-1.315 0.504-2.671 1.023-1.357 0.519-2.609 1.038-2.784 1.153-0.409 0.27-0.608 0.655-0.61 1.184-2e-3 0.335 0.127 0.74 0.611 1.922 0.338 0.823 0.614 1.575 0.614 1.669 0 0.382-0.28 0.691-1.828 2.019-0.889 0.763-1.679 1.5-1.754 1.637-0.076 0.137-0.119 0.346-0.096 0.465 0.039 0.204 1.104 1.254 2.189 2.159 0.456 0.38 3.216 2.142 3.658 2.214 0.371 0.06 0.766-0.504 1.414-1.051 0.635-0.537 1.014-1.074 1.271-1.804 0.241-0.685 0.181-1.146-0.297-2.255-0.364-0.846-0.461-1.311-0.338-1.628 0.028-0.073 1.013-1.024 2.19-2.114 2.563-2.375 3.174-2.8 3.315-3.224 0.156-0.471 0.046-1.092-0.305-1.716-0.837-1.492-4.316-6.1653-4.611-6.1653-1.522 0.2483-2.796 0.7973-4.399 1.0493-0.126 1e-3 -0.662-0.133-1.191-0.297-2.259-0.699-2.991-0.7524-3.429-0.7524-0.437 0-1.169 0.0534-3.428 0.7524-0.529 0.164-1.071 0.298-1.204 0.298-1.579-0.233-2.751-0.86-4.386-1.0503-0.255 0.1723-2.517 3.3383-3.454 4.7213-1.101 1.626-1.413 1.835-1.502 2.454-0.1255 0.867 0.193 1.013 3.484 4.055 1.107 1.024 2.035 1.92 2.062 1.991 0.124 0.321 0.026 0.805-0.333 1.652-0.493 1.163-0.537 1.486-0.299 2.189 0.259 0.764 0.697 1.381 1.36 1.915 0.616 0.495 0.854 0.992 1.218 1 0.13 3e-3 0.862-0.668 1.626-1.035z" fill="#fff"/><path d="m17.727 4-3.338 3.5664c-0.045 0.0147-0.369-0.2599-0.725-0.3652-0.953-0.2824-2.164-0.2342-2.986 0.1425-0.538 0.2465-0.7482 0.4199-2.0276 1.6875-1.379 1.3668-1.6504 1.6938-1.6504 1.9848 0 0.035 0.1203 0.233 0.2637 0.476 0.2288-0.29 0.6334-0.714 1.3867-1.461 1.2794-1.2674 1.4896-1.4408 2.0276-1.6873 0.822-0.3767 2.033-0.4249 2.986-0.1425 0.356 0.1053 0.68 0.3799 0.725 0.3652l3.338-3.5664h12.546l3.338 3.5664c0.045 0.0147 0.369-0.2599 0.725-0.3652 0.953-0.2824 2.164-0.2342 2.986 0.1425 0.538 0.2465 0.748 0.4199 2.028 1.6873 0.753 0.747 1.158 1.171 1.386 1.461 0.144-0.243 0.264-0.441 0.264-0.476 0-0.291-0.271-0.618-1.65-1.9848-1.28-1.2676-1.49-1.441-2.028-1.6875-0.822-0.3767-2.033-0.4249-2.986-0.1425-0.356 0.1053-0.68 0.3799-0.725 0.3652l-3.338-3.5664h-6.273zm-9.7329 9.984-0.3769 1.041c-0.3144 0.87-0.5862 1.63-0.6055 1.69-0.0026 8e-3 0.1225 0.496 0.1446 0.597 0.0971-0.274 0.2214-0.624 0.4609-1.287l0.5723-1.582zm32.012 0-0.195 0.459 0.572 1.582c0.239 0.663 0.364 1.013 0.461 1.287 0.022-0.101 0.147-0.589 0.144-0.597-0.019-0.06-0.291-0.82-0.605-1.69z" fill="#fff" opacity=".1"/><g transform="matrix(2.1891 0 0 2.1891 -52.42 -51.365)"><rect x="24.105" y="37.811" width="21.684" height="7.4569" rx="2.85" fill="#2e7fa7" fill-rule="evenodd" opacity=".8" style="paint-order:stroke fill markers"/><text x="35.067043" y="43.370865" fill="#ffffff" font-family="Lato" font-size="14.68px" font-weight="bold" stroke-width="1.2233" text-anchor="middle"><tspan font-size="6.1166px" stroke-width="1.2233">flatpak</tspan></text></g></svg>
