<svg xmlns="http://www.w3.org/2000/svg" viewBox="0 0 108.1 122.88"><path d="M17.83 9.22a17.84 17.84 0 1 1-12.61 5.23 17.82 17.82 0 0 1 12.61-5.23Zm-.22 38.49h52.58a8.88 8.88 0 0 1 8.86 8.86V95.1a8.89 8.89 0 0 1-8.86 8.9H53.94l11.8 18.92h-11l-12.85-17.33-13 17.29H17.76L29.48 104H17.61a8.89 8.89 0 0 1-8.86-8.9V56.57a8.88 8.88 0 0 1 8.86-8.86Zm38 30.06c1.86-1.2 1.85-2.53 0-3.59l-19.18-11c-1.52-.95-3.09-.39-3 1.59L33.44 87c.13 2.14 1.35 2.73 3.15 1.74l19-11ZM84.08 90V61.53l24-14.17v57.16L84.08 90ZM60.62 0a22.43 22.43 0 1 1-15.87 6.57A22.38 22.38 0 0 1 60.62 0Z" style="fill-rule:evenodd"/></svg>