<svg xmlns="http://www.w3.org/2000/svg" viewBox="0 0 122.88 84.27" style="enable-background:new 0 0 122.88 84.27" xml:space="preserve"><path fill="#f9fafb" d="M41 0h70.56c3.12 0 5.95 1.27 8 3.32s3.32 4.88 3.32 8v61.63c0 3.12-1.27 5.95-3.32 8a11.285 11.285 0 0 1-8 3.32H40.67l-.18-.01c-10.44-.6-19.13-13.09-27.57-25.21-3.71-5.33-7.37-10.59-10.89-14.43L0 42.41l2.01-2.23c4.39-4.89 8.55-10.75 12.56-16.39C23.35 11.41 31.45 0 41 0zm41.99 24.11a5.659 5.659 0 0 1 8.07-.02c2.23 2.24 2.24 5.9.02 8.15l-9.75 9.89 9.76 9.9c2.21 2.24 2.17 5.87-.07 8.1a5.662 5.662 0 0 1-8.05-.01l-9.7-9.83-9.72 9.85a5.659 5.659 0 0 1-8.07.02c-2.23-2.24-2.24-5.89-.02-8.15l9.75-9.89-9.76-9.9c-2.2-2.24-2.17-5.87.07-8.1a5.662 5.662 0 0 1 8.05.01l9.7 9.83 9.72-9.85z" style="fill-rule:evenodd;clip-rule:evenodd"/></svg>