<svg width="512" height="512" xmlns:xlink="http://www.w3.org/1999/xlink" xmlns="http://www.w3.org/2000/svg"><defs><linearGradient id="prefix__b"><stop offset="0" stop-color="#2d85c6"/><stop offset="1" stop-color="#04bacc"/></linearGradient><linearGradient id="prefix__a"><stop offset="0" stop-color="#2d85c6"/><stop offset="1" stop-color="#04bacc"/></linearGradient><linearGradient xlink:href="#prefix__a" id="prefix__c" gradientUnits="userSpaceOnUse" x1="33.171" y1="256" x2="478.829" y2="256" gradientTransform="matrix(1.12909 0 0 1.12909 -33.046 -33.046)"/><linearGradient xlink:href="#prefix__b" id="prefix__d" gradientUnits="userSpaceOnUse" x1="33.171" y1="256" x2="478.829" y2="256" gradientTransform="matrix(1.12909 0 0 1.12909 -33.046 -33.046)"/><linearGradient xlink:href="#prefix__a" id="prefix__e" gradientUnits="userSpaceOnUse" x1="33.171" y1="256" x2="478.829" y2="256" gradientTransform="matrix(1.12909 0 0 1.12909 -33.046 -33.046)"/><linearGradient xlink:href="#prefix__b" id="prefix__f" gradientUnits="userSpaceOnUse" x1="33.171" y1="256" x2="478.829" y2="256" gradientTransform="matrix(1.12909 0 0 1.12909 -33.046 -33.046)"/><linearGradient xlink:href="#prefix__a" id="prefix__g" gradientUnits="userSpaceOnUse" x1="33.171" y1="256" x2="478.829" y2="256" gradientTransform="matrix(1.12909 0 0 1.12909 -33.046 -33.046)"/><linearGradient xlink:href="#prefix__b" id="prefix__h" gradientUnits="userSpaceOnUse" x1="33.171" y1="256" x2="478.829" y2="256" gradientTransform="matrix(1.12909 0 0 1.12909 -36.018 -40.886)"/><linearGradient xlink:href="#prefix__b" id="prefix__i" gradientUnits="userSpaceOnUse" x1="33.171" y1="256" x2="478.829" y2="256" gradientTransform="matrix(1.12909 0 0 1.12909 -36.018 -40.886)"/><linearGradient xlink:href="#prefix__b" id="prefix__j" gradientUnits="userSpaceOnUse" x1="33.171" y1="256" x2="478.829" y2="256" gradientTransform="matrix(1.12909 0 0 1.12909 -36.018 -40.886)"/><linearGradient xlink:href="#prefix__b" id="prefix__k" gradientUnits="userSpaceOnUse" x1="33.171" y1="256" x2="478.829" y2="256" gradientTransform="matrix(1.12909 0 0 1.12909 -36.018 -40.886)"/></defs><circle cx="256" cy="256" r="237.935" fill="none" stroke="url(#prefix__c)" stroke-width="36.131" stroke-miterlimit="10"/><path fill="url(#prefix__d)" d="M204.648 331.374c9.549 6.872 20.692 11.903 32.576 14.749l24.292 70.66 19.804-70.388a61.017 74.67 44.23 0066.135-67.94l69.83-21.69-67.21-21.077-24.942 22.977a46.828 57.305 44.23 01-66.387 65.755 72.937 89.257 44.23 01-26.564-5.259l-27.516 11.991zM307.765 180.69c-16.11-11.32-32.882-15.045-32.882-15.045l-24.29-70.66-19.804 70.388a61.16 74.844 44.23 00-66.015 67.815l-69.83 21.69 68.814 21.668 23.183-21.78a46.828 57.305 44.23 0166.44-67.644c9.42-.523 24.777 4.249 26.565 5.262l27.514-11.991z" stroke="url(#prefix__e)" stroke-width=".157"/><path fill-rule="evenodd" d="M238.254 228.654L97.87 360.09l175.72-77.718 140.933-130.178zM129.26 339.202l140.616-62.136-28.23-43.18-112.507 105.44z" fill="url(#prefix__f)" stroke="url(#prefix__g)" stroke-width=".157"/><path class="prefix__prefix__cls-3" d="M378.23 352.135a22.796 19.398 0 0112.03-5.764c1.548 0 3.065-.167 4.555-.24a15.123 12.868 0 015.088 1.125 21.56 18.345 0 016.522 5.047 22.488 19.135 0 015.227 13.562 18.272 15.548 0 01-2.136-3.324 19.059 16.217 0 00-3.71-3.804 11.862 10.094 0 00-7.9-2.798 11.243 9.568 0 00-3.372.358 16.5 14.04 0 00-7.955 4.114c-.702.718-1.49 1.388-2.108 2.105a34.042 28.966 0 00-1.884 2.726 25.3 21.527 0 00-2.81 9.042c0 1.268 0 2.392.28 3.708.421.837.197 1.961 1.265 2.392a4.891 4.162 0 002.08-.456 49.558 42.17 0 004.47-3.587c1.686-1.172 2.811-2.75 4.498-4.042.899-.598 1.46-1.364 2.36-1.961a31.765 27.028 0 015.37-3.684 9.135 7.774 0 014.976-1.148 7.9 6.721 0 015.312 2.679 24.625 20.952 0 013.766 7.175 43.851 37.313 0 01.423 4.042 54.73 46.57 0 01-2.812 13.324 23.36 19.876 0 01-2.445 4.305c-.366.359-.59.838-1.097.957a26.255 22.34 0 01.534-2.63 12.734 10.835 0 00.142-2.92 33.535 28.535 0 000-4.52c-.423-1.483-.507-3.086-1.07-4.568a14.449 12.295 0 00-1.404-3.11 5.623 4.784 0 00-1.406-1.65 4.554 3.875 0 00-2.502-.91 8.433 7.175 0 00-2.023.527 17.906 15.236 0 00-4.076 3.205 22.937 19.517 0 01-3.43 2.392 8.967 7.63 0 01-6.353 1.554 20.661 17.58 0 01-8.686-2.607 20.014 17.03 0 01-3.43-2.391 17.429 14.83 0 01-4.61-8.229 7.477 6.362 0 01-.225-2.845 29.684 25.258 0 013.29-10.885 34.238 29.133 0 013.513-4.47 5.257 4.472 0 011.743-1.796z" fill="url(#prefix__h)"/><path class="prefix__prefix__cls-3" d="M342.558 403.202a22.796 19.398 0 01-12.03 5.764c-1.547 0-3.065.167-4.554.24a15.123 12.868 0 01-5.089-1.125 21.645 18.418 0 01-6.52-5.07 22.488 19.135 0 01-5.23-13.562 16.642 14.16 0 012.137 3.277 19.059 16.217 0 003.71 3.802 11.862 10.094 0 007.9 2.8 11.243 9.568 0 003.373-.36 16.5 14.04 0 007.955-4.114c.703-.717 1.462-1.387 2.108-2.081.647-.693 1.405-1.793 1.884-2.75a25.3 21.527 0 002.811-9.041c-.14-1.244-.14-2.393-.282-3.684-.421-.837-.196-1.985-1.264-2.392a3.345 2.845 0 00-2.08.454 28.897 24.588 0 00-4.498 3.565c-1.66 1.195-2.812 2.75-4.47 4.042-.9.598-1.462 1.388-2.361 1.961a34.884 29.684 0 01-5.397 3.708 9.164 7.797 0 01-4.947 1.123 7.786 6.625 0 01-5.314-2.678 23.64 20.116 0 01-3.766-7.176 43.233 36.787 0 01-.421-4.042 53.943 45.9 0 012.811-13.324 23.162 19.71 0 012.445-4.28c.365-.359.562-.838 1.068-.957a25.749 21.91 0 01-.534 2.608 12.819 10.907 0 000 2.917 33.535 28.535 0 000 4.521c.422 1.483.506 3.11 1.04 4.592a14.251 12.126 0 001.405 3.086 5.623 4.784 0 001.406 1.674 5.088 4.329 0 002.502.885 10.85 9.233 0 002.052-.55 18.946 16.121 0 004.047-3.181 24.652 20.977 0 013.43-2.512 9.107 7.75 0 016.353-1.555 20.69 17.605 0 018.686 2.63 18.75 15.954 0 013.429 2.393 17.12 14.566 0 014.666 8.228 7.646 6.506 0 01.226 2.871 29.768 25.33 0 01-3.289 10.882 32.664 27.794 0 01-3.515 4.449 5.96 5.07 0 01-1.883 1.962z" fill="url(#prefix__i)"/><path class="prefix__prefix__cls-3" d="M352.087 355.484a11.47 9.759 0 019.502.598 7.73 6.578 0 012.445 2.392 5.2 4.426 0 01-.28 3.875 9.67 8.228 0 01-4.273 3.635 11.975 10.189 0 01-9.164.479 7.056 6.003 0 01-4.132-3.636 5.34 4.545 0 01.702-3.708 9.754 8.299 0 015.2-3.635z" fill="url(#prefix__j)"/><path class="prefix__prefix__cls-3" d="M352.34 371.247a7.224 6.147 0 016.24-2.919 9.95 8.468 0 013.712.838 5.623 4.784 0 013.43 3.277 30.499 25.952 0 00.618 5.239 23.584 20.068 0 007.056 8.968c1.545 1.555 3.653 2.63 5.17 4.185a49.67 42.265 0 01-7.054-.644 24.203 20.595 0 01-8.123-2.393 18.384 15.642 0 01-3.964-2.391 21.279 18.106 0 01-4.975-4.784 17.794 15.141 0 01-2.812-6.841 9.782 8.324 0 01.702-2.535z" fill="url(#prefix__k)"/></svg>
