<svg xmlns="http://www.w3.org/2000/svg" width="512" height="512"><defs><clipPath id="a" clipPathUnits="userSpaceOnUse"><path d="M256 45.268A210.732 210.732 0 0 0 45.268 256 210.732 210.732 0 0 0 256 466.732 210.732 210.732 0 0 0 466.732 256 210.732 210.732 0 0 0 256 45.268zm0 111.843A98.889 98.889 0 0 1 354.889 256 98.889 98.889 0 0 1 256 354.889 98.889 98.889 0 0 1 157.111 256 98.889 98.889 0 0 1 256 157.111z" style="opacity:1;fill:#f9f9f9;fill-opacity:1;stroke:none;stroke-width:0;stroke-linecap:butt;stroke-linejoin:miter;stroke-miterlimit:4;stroke-dasharray:none;stroke-dashoffset:0;stroke-opacity:1"/></clipPath></defs><path style="opacity:1;fill:#91b0e8;fill-opacity:1;stroke:none;stroke-width:0;stroke-linecap:butt;stroke-linejoin:miter;stroke-miterlimit:4;stroke-dasharray:none;stroke-dashoffset:0;stroke-opacity:1" d="M482.854 137.3c-358.564 286.46-179.282 143.23 0 0zm0 0-207.256.08c57.072 9.36 100.62 58.9 100.62 118.62a120.22 120.22 0 0 1-30.339 79.667l-102.786 176.01c4.276.213 8.578.323 12.907.323 141.385 0 256-114.615 256-256 0-42.843-10.541-83.218-29.146-118.7z"/><path style="fill:#396bd7;fill-opacity:1;stroke-width:1.35459" d="M256 0C163.962 0 83.28 48.579 38.165 121.486l99.899 157.327c.463 7.488-2.277-22.275-2.283-22.813 0-66.395 53.824-120.218 120.219-120.219 6.233.05 19.107 1.307 25.257 2.321l201.597-.802C440.062 55.688 354.542 0 256 0zM38.134 121.536c-62.084 296.97-31.042 148.485 0 0z"/><path style="fill:#6199f6;fill-opacity:1;stroke-width:1.35459" d="M38.165 121.486C13.975 160.576 0 206.653 0 256c0 137.056 107.705 248.954 243.093 255.677l102.786-176.01A120.22 120.22 0 0 1 256 376.22c-57.562-.048-107.013-40.89-117.936-97.406z"/><circle style="opacity:1;fill:#fff;fill-opacity:1;stroke:none;stroke-width:0;stroke-linecap:butt;stroke-linejoin:miter;stroke-miterlimit:4;stroke-dasharray:none;stroke-dashoffset:0;stroke-opacity:1" cx="256" cy="256" r="120.22"/><circle style="opacity:1;fill:#4688f4;fill-opacity:1;stroke:none;stroke-width:0;stroke-linecap:butt;stroke-linejoin:miter;stroke-miterlimit:4;stroke-dasharray:none;stroke-dashoffset:0;stroke-opacity:1" cx="256" cy="256" r="99.2"/><path style="opacity:.1;fill:#367100;fill-opacity:1;stroke:none;stroke-width:0;stroke-linecap:butt;stroke-linejoin:miter;stroke-miterlimit:4;stroke-dasharray:none;stroke-dashoffset:0;stroke-opacity:1" d="m76.52 145.275 82.558 129.44 31.168-34.482zm366.238 12.965-165.967.71 16.342 37.877 149.625-38.587zM275.355 308.913l-29.982 157.573 84.555-144.808z" clip-path="url(#a)" transform="translate(-54.992 -54.992) scale(1.21481)"/></svg>