<svg id="Layer_1" data-name="Layer 1" xmlns="http://www.w3.org/2000/svg" viewBox="0 0 195.95 157.81"><defs><style>.cls-2{fill:#02679a}.cls-3{fill:#002b44}</style></defs><rect width="195.95" height="157.81" rx="12" style="fill:#2b91c9"/><circle class="cls-2" cx="38.75" cy="13.56" r="5.65"/><circle class="cls-2" cx="56.7" cy="13.56" r="5.65"/><circle class="cls-2" cx="20.79" cy="13.56" r="5.65"/><path id="path6" class="cls-3" d="M175.87 145.65a8.11 8.11 0 0 1 4.28-2.41c.55 0 1.09-.07 1.62-.1a5.38 5.38 0 0 1 1.81.47 7.67 7.67 0 0 1 2.32 2.11 8 8 0 0 1 1.86 5.67A6.5 6.5 0 0 1 187 150a6.78 6.78 0 0 0-1.32-1.59 4.22 4.22 0 0 0-2.81-1.17 4 4 0 0 0-1.2.15 5.87 5.87 0 0 0-2.83 1.72c-.25.3-.53.58-.75.88a12.11 12.11 0 0 0-.67 1.14 9 9 0 0 0-1 3.78c0 .53 0 1 .1 1.55.15.35.07.82.45 1a1.74 1.74 0 0 0 .74-.19 17.63 17.63 0 0 0 1.59-1.5c.6-.49 1-1.15 1.6-1.69.32-.25.52-.57.84-.82a11.3 11.3 0 0 1 1.91-1.54 3.25 3.25 0 0 1 1.77-.48 2.81 2.81 0 0 1 1.89 1.12 8.76 8.76 0 0 1 1.34 3 15.6 15.6 0 0 1 .15 1.69 19.47 19.47 0 0 1-1 5.57 8.31 8.31 0 0 1-.87 1.8c-.13.15-.21.35-.39.4a9.34 9.34 0 0 1 .19-1.1 4.53 4.53 0 0 0 .05-1.22 11.93 11.93 0 0 0 0-1.89c-.15-.62-.18-1.29-.38-1.91a5.14 5.14 0 0 0-.5-1.3 2 2 0 0 0-.5-.69 1.62 1.62 0 0 0-.89-.38 3 3 0 0 0-.72.22 6.37 6.37 0 0 0-1.45 1.34 8.16 8.16 0 0 1-1.22 1 3.19 3.19 0 0 1-2.26.65 7.35 7.35 0 0 1-3.09-1.09 7.12 7.12 0 0 1-1.22-1 6.2 6.2 0 0 1-1.64-3.44 2.66 2.66 0 0 1-.08-1.19 10.56 10.56 0 0 1 1.17-4.55 12.18 12.18 0 0 1 1.25-1.87 1.87 1.87 0 0 1 .62-.75z" transform="translate(-2.03 -22.81)"/><path id="path3742" class="cls-3" d="M163.18 167a8.11 8.11 0 0 1-4.28 2.41c-.55 0-1.09.07-1.62.1a5.38 5.38 0 0 1-1.81-.47 7.7 7.7 0 0 1-2.32-2.12 8 8 0 0 1-1.86-5.67 5.92 5.92 0 0 1 .76 1.37 6.78 6.78 0 0 0 1.32 1.59 4.22 4.22 0 0 0 2.81 1.17 4 4 0 0 0 1.2-.15 5.87 5.87 0 0 0 2.83-1.72c.25-.3.52-.58.75-.87s.5-.75.67-1.15a9 9 0 0 0 1-3.78c-.05-.52-.05-1-.1-1.54-.15-.35-.07-.83-.45-1a1.19 1.19 0 0 0-.74.19 10.28 10.28 0 0 0-1.6 1.49c-.59.5-1 1.15-1.59 1.69-.32.25-.52.58-.84.82a12.41 12.41 0 0 1-1.92 1.55 3.26 3.26 0 0 1-1.76.47 2.77 2.77 0 0 1-1.89-1.12 8.41 8.41 0 0 1-1.34-3 15.38 15.38 0 0 1-.15-1.69 19.19 19.19 0 0 1 1-5.57 8.24 8.24 0 0 1 .87-1.79c.13-.15.2-.35.38-.4a9.16 9.16 0 0 1-.19 1.09 4.56 4.56 0 0 0 0 1.22 11.93 11.93 0 0 0 0 1.89c.15.62.18 1.3.37 1.92a5.07 5.07 0 0 0 .5 1.29 2 2 0 0 0 .5.7 1.81 1.81 0 0 0 .89.37 3.86 3.86 0 0 0 .73-.23 6.74 6.74 0 0 0 1.44-1.33 8.77 8.77 0 0 1 1.22-1.05 3.24 3.24 0 0 1 2.26-.65 7.36 7.36 0 0 1 3.09 1.1 6.67 6.67 0 0 1 1.22 1 6.09 6.09 0 0 1 1.66 3.44 2.72 2.72 0 0 1 .08 1.2 10.59 10.59 0 0 1-1.17 4.55 11.62 11.62 0 0 1-1.25 1.86 2.12 2.12 0 0 1-.67.82z" transform="translate(-2.03 -22.81)"/><path id="path10" class="cls-3" d="M166.57 147.05a4.08 4.08 0 0 1 3.38.25 2.75 2.75 0 0 1 .87 1 1.85 1.85 0 0 1-.1 1.62 3.44 3.44 0 0 1-1.52 1.52 4.26 4.26 0 0 1-3.26.2 2.51 2.51 0 0 1-1.47-1.52 1.9 1.9 0 0 1 .25-1.55 3.47 3.47 0 0 1 1.85-1.52z" transform="translate(-2.03 -22.81)"/><path id="path12" class="cls-3" d="M166.66 153.64a2.57 2.57 0 0 1 2.22-1.22 3.54 3.54 0 0 1 1.32.35 2 2 0 0 1 1.22 1.37 10.85 10.85 0 0 0 .22 2.19 8.39 8.39 0 0 0 2.51 3.75c.55.65 1.3 1.1 1.84 1.75a17.67 17.67 0 0 1-2.51-.27 8.61 8.61 0 0 1-2.89-1 6.54 6.54 0 0 1-1.41-1 7.57 7.57 0 0 1-1.77-2 6.33 6.33 0 0 1-1-2.86 3.48 3.48 0 0 1 .25-1.06z" transform="translate(-2.03 -22.81)"/><circle cx="98.22" cy="78.44" r="52.17" style="stroke-miterlimit:10;fill:#fff;stroke:#231f20"/><text transform="translate(63.42 89.82)" style="font-size:37.88px;font-family:Lato-Bold,Lato;font-weight:700;fill:#002b44">App</text><circle cx="97.98" cy="78.91" r="52.26" style="fill:none;stroke:#002b44;stroke-width:6px;stroke-miterlimit:10"/></svg>