<svg xmlns="http://www.w3.org/2000/svg" viewBox="0 0 122.88 101.9" style="enable-background:new 0 0 122.88 101.9" xml:space="preserve"><path d="M3.34 0h116.2c1.84 0 3.34 1.5 3.34 3.34v76.98c0 1.84-1.5 3.34-3.34 3.34H3.34C1.5 83.66 0 82.16 0 80.32V3.34C0 1.5 1.5 0 3.34 0zM81.7 67.73 65.64 58v-6.17L81.7 42.1v7.33l-9.76 5.5 9.76 5.5v7.3zm9.97 0L107.73 58v-6.17L91.67 42.1v7.33l9.76 5.5-9.76 5.5v7.3zM38.64 43.98l3.83 3.83a2.59 2.59 0 0 1 0 3.66l-3.08 3.08c.85 1.59 1.5 3.3 1.91 5.1h3.99c1.42 0 2.59 1.17 2.59 2.59v5.41c0 1.42-1.17 2.59-2.59 2.59h-4.36c-.39 1.28-.89 2.5-1.51 3.66h75.51c1.62 0 2.95-1.33 2.95-2.95V8.19c0-1.62-1.32-2.95-2.95-2.95H7.96C6.33 5.24 5 6.57 5.01 8.19V42.8c1.01-.79 2.5-.73 3.42.21l3.08 3.08c1.59-.85 3.3-1.5 5.1-1.91v-3.99c0-1.42 1.17-2.58 2.59-2.58h5.41c1.42 0 2.59 1.17 2.59 2.59v4.35c1.76.54 3.43 1.3 4.95 2.26l2.82-2.83a2.601 2.601 0 0 1 3.67 0zM21.22 52.3c6.6 0 11.95 5.35 11.95 11.96 0 3.96-1.92 7.47-4.89 9.64H14.16a11.907 11.907 0 0 1-4.89-9.64c0-6.61 5.35-11.96 11.95-11.96zm-7.57-28.05h7.67c.59 0 1.07.5 1.07 1.07v2.18c0 .58-.5 1.07-1.07 1.07h-7.67c-.58 0-1.07-.48-1.07-1.07v-2.18c-.01-.59.47-1.07 1.07-1.07zm12.7-11.13h29.68c.59 0 1.07.49 1.07 1.07v2.18c0 .59-.49 1.07-1.07 1.07H26.35c-.59 0-1.07-.48-1.07-1.07v-2.18c0-.59.48-1.07 1.07-1.07zm-12.7 0h7.67c.59 0 1.07.48 1.07 1.07v2.18c0 .59-.48 1.07-1.07 1.07h-7.67c-.59 0-1.07-.48-1.07-1.07v-2.18c-.01-.59.47-1.07 1.07-1.07zm24.71 11.13h49.25c.59 0 1.07.5 1.07 1.07v2.18c0 .57-.5 1.07-1.07 1.07H38.36c-.58 0-1.07-.48-1.07-1.07v-2.18c0-.59.48-1.07 1.07-1.07zm-12.15 0h7.67c.59 0 1.07.5 1.07 1.07v2.18c0 .58-.5 1.07-1.07 1.07h-7.67c-.58 0-1.07-.48-1.07-1.07v-2.18c-.01-.59.48-1.07 1.07-1.07zm20.08 64.02h30.3c.08 5.24 2.24 9.93 8.09 13.63H38.2c4.68-3.39 8.11-7.51 8.09-13.63z" style="fill-rule:evenodd;clip-rule:evenodd"/></svg>