<svg xmlns="http://www.w3.org/2000/svg" viewBox="0 0 122.88 101.9"><path d="M3.34 0h116.2a3.35 3.35 0 0 1 3.34 3.34v77a3.35 3.35 0 0 1-3.34 3.34H3.34A3.35 3.35 0 0 1 0 80.32v-77A3.35 3.35 0 0 1 3.34 0ZM83 24.55h.14a1.27 1.27 0 0 1 1 .46c5.72 5.89 8.73 18.69 8.06 27.25a16.93 16.93 0 0 1-1.42 6A5.39 5.39 0 0 1 87 61.59c-2.15.4-4.83-.74-8.06-4l-1.34-1.31a36.62 36.62 0 0 1-4.43-4.93H49.71a36.17 36.17 0 0 1-4.44 4.94L44 57.56c-3.23 3.29-5.91 4.43-8.06 4a5.39 5.39 0 0 1-3.82-3.29 17 17 0 0 1-1.42-6c-.67-8.6 2.37-21.48 8.14-27.34a1.25 1.25 0 0 1 .89-.37h.14c3.56-4.89 11.57-4.95 15.11 0h4c-.3-7.49 1.78-9.38 4.86-9.59a15.74 15.74 0 0 1 3.53.33c2.33.39 4.91.81 6.74-1a1.26 1.26 0 1 1 1.74 1.7c-2.74 2.74-6 2.2-8.93 1.72a13.13 13.13 0 0 0-3-.3c-1.66.11-2.76 1.5-2.5 7.09h6.46c3.54-4.91 11.56-4.93 15.1 0Zm-32.73 7.92v3.35h3.34c3.79 0 3.79 5.72 0 5.72h-3.34v3.34c0 3.79-5.73 3.79-5.73 0v-3.34H41.2c-3.78 0-3.78-5.72 0-5.72h3.34v-3.35c0-3.78 5.73-3.78 5.73 0Zm26.15-2.91a2.64 2.64 0 1 1-3.74 0 2.64 2.64 0 0 1 3.74 0Zm0 11.51a2.64 2.64 0 1 1-3.74 0 2.65 2.65 0 0 1 3.74 0Zm6.33-6a2.64 2.64 0 1 1-3.73 0 2.64 2.64 0 0 1 3.73 0Zm-12.67 0a2.64 2.64 0 1 1-3.74 0 2.64 2.64 0 0 1 3.74 0Zm-23.79 53.2h30.3c.08 5.24 2.24 9.94 8.09 13.63H38.2c4.68-3.39 8.11-7.51 8.09-13.63Zm-39-83.5h108.27a3 3 0 0 1 3 3V68a3 3 0 0 1-3 3H7.33a3 3 0 0 1-2.95-3V7.72a3 3 0 0 1 3-2.95Z" style="fill-rule:evenodd"/></svg>