<svg xmlns="http://www.w3.org/2000/svg" viewBox="0 0 122.88 98.21" style="enable-background:new 0 0 122.88 98.21" xml:space="preserve"><path d="M49.11 35.13c7.2 5.16 18.74-.38 23.28 8.6 1.2 2.38 1.46 5.64.38 8.23-.44 1.04-1.08 1.97-1.96 2.68-.39.31-.82.59-1.3.83-5.92 2.94-12.1-1.17-15.37-6.14-3.01-4.58-4.32-10.29-5.03-14.2zM100.01 0H7.26C3.27 0 0 3.27 0 7.26v77.78c0 3.99 3.27 7.26 7.26 7.26h72.36l-6.27-5.34H7.12c-.56 0-1.05-.21-1.42-.59-.37-.37-.59-.87-.59-1.42V20.33h-.03 96.79V50l5.4 4.38V7.26c0-3.99-3.27-7.26-7.26-7.26zM14.17 8.16c-1.98 0-3.59 1.61-3.59 3.59 0 1.98 1.61 3.58 3.59 3.58 1.98 0 3.59-1.61 3.59-3.58 0-1.98-1.61-3.59-3.59-3.59zm24.31 0c-1.98 0-3.59 1.61-3.59 3.59 0 1.98 1.6 3.58 3.59 3.58 1.98 0 3.59-1.61 3.59-3.58 0-1.98-1.61-3.59-3.59-3.59zm-12.15 0c-1.98 0-3.59 1.61-3.59 3.59 0 1.98 1.61 3.58 3.59 3.58 1.98 0 3.59-1.61 3.59-3.58-.01-1.98-1.61-3.59-3.59-3.59zm59.3 66.38c4.01-3.2 7.12-6.89 9.24-11.12l25.8 27.21c1.95 1.84 3.05 3.41 1.42 6.23-.81.83-1.67 1.28-2.58 1.34-.9.06-1.85-.26-2.84-.98L85.63 74.54zM72.02 58.75c1.74-.93 4.12-3.23 4.69-5.74l16.15 8.86c-2.33 4.64-5.3 8.61-9.37 11.43-4.25-5.7-6.63-9.14-11.47-14.55z" style="fill-rule:evenodd;clip-rule:evenodd"/></svg>