<svg viewBox="0 0 400 400" xmlns="http://www.w3.org/2000/svg"><path d="M161.719 9.29c-49.9 8.891-97.693 39.529-125.471 80.434-9.477 13.955-9.482 14.296-.164 10.998 69.629-24.643 168.049-29.514 228.76-11.322 51.129 15.321 89.573 45.279 117.869 91.85 6.983 11.492 7.963 12.545 7.275 7.813-.437-3.008-1.227-9.688-1.756-14.844C377.392 68.568 269.584-9.93 161.719 9.29M11.944 139.453c-15.562 43.478-13.77 90.782 5.149 135.938 6.3 15.037 5.016 15.339 19.917-4.688 56.924-76.504 55.982-123.216-2.734-135.568-17.869-3.758-19.558-3.432-22.332 4.318m246.913 63.702c-61.976 5.797-138.598 39.696-210.81 93.267-16.074 11.924-15.284 9.546-6.809 20.494 72.102 93.147 209.1 102.089 291.724 19.041 23.539-23.66 38.429-48.12 48.352-79.427l5.112-16.127-3.76-3.678c-23.622-23.107-78.008-37.853-123.809-33.57" fill="#1b81ec" fill-rule="evenodd"/></svg>
