<svg xmlns="http://www.w3.org/2000/svg" width="256" height="256" viewBox="0 0 67.733 67.733"><g transform="translate(-42.107 -153.898)"><circle style="fill:#00acff;fill-opacity:1;stroke:none;stroke-width:.53545821;stroke-miterlimit:4;stroke-dasharray:none" cx="75.973" cy="187.765" r="33.867"/><path style="fill:#fff;stroke-width:.13229167" d="M72.544 214.677c-4.744-.609-9.282-2.5-13.242-5.518-1.292-.985-3.715-3.424-4.773-4.804-2.963-3.865-4.805-8.25-5.412-12.887-.26-1.984-.26-5.633.003-7.447 1.308-9.068 7.014-16.846 15.209-20.73 3.811-1.806 7.3-2.57 11.73-2.57 7.166 0 13.527 2.567 18.681 7.54 2.483 2.396 4.148 4.668 5.574 7.607 1.929 3.975 2.71 7.433 2.71 11.995 0 6.006-1.735 11.244-5.337 16.117-1.07 1.448-3.162 3.647-4.55 4.785-3.806 3.12-8.658 5.232-13.473 5.863-1.663.218-5.593.245-7.12.05zm10.041-4.865c2.898-.914 5.26-2.142 7.54-3.92 1.213-.946 3.309-3.062 4.188-4.227 2.383-3.162 4.004-7.122 4.482-10.946.23-1.842.096-5.738-.255-7.43-.93-4.48-2.932-8.265-6.086-11.503-1.966-2.02-3.757-3.35-6.06-4.505-3.495-1.752-6.49-2.46-10.424-2.464-4.164-.004-7.815.95-11.429 2.987-3.29 1.855-6.69 5.26-8.553 8.563-1.372 2.433-2.376 5.32-2.767 7.96-.257 1.73-.262 5.164-.01 6.82.504 3.316 1.76 6.592 3.584 9.34.995 1.5.964 1.484 1.842.981 1.57-.898 1.98-1.333 2.836-3.01 1-1.96 2.07-3.673 3.037-4.863 1.116-1.373 1.27-1.618 1.83-2.915.28-.652.786-1.61 1.122-2.13l.611-.942-.79-.777c-1.05-1.032-1.923-2.201-2.087-2.796-.168-.608.03-.947.818-1.402.798-.461 1.368-.593 3.5-.812 1.037-.107 2.163-.302 2.518-.437.353-.134 1.408-.708 2.344-1.276 2.703-1.639 2.932-1.723 4.552-1.688 1.369.03 1.371.029 2.183-.462 1.7-1.028 4.143-2.883 7.357-5.587.616-.519 1.21-.926 1.32-.905.454.088 1.289 2.137 1.416 3.476.077.812-.08 1.615-.562 2.873-.132.343-.192.67-.135.727.138.137.61-.453.61-.763 0-.394.262-.439.617-.106.258.242.481.312 1 .312.567 0 .708.052.93.348.375.5.463 1.866.175 2.732-.28.842-1.125 1.813-1.892 2.173-.686.323-2.075 1.68-2.726 2.662a31.64 31.64 0 0 0-1.037 1.742c-.321.582-.86 1.461-1.198 1.954-.664.97-1.233 2.323-1.782 4.238-.323 1.126-.35 1.419-.363 3.928-.016 3.032-.173 3.776-.993 4.71-.931 1.06-1.862 3.391-1.94 4.86-.05.928-.192 1.832-.395 2.502-.09.295.077.291 1.072-.022z"/><path style="fill:#00acff;fill-opacity:1;stroke:none;stroke-width:1.5;stroke-miterlimit:4;stroke-dasharray:none" d="m18.854 174.592-1.604-1.604 1.604-1.603 1.604 1.603z" transform="matrix(.23203 .40189 -.99393 .57385 246.22 73.888)"/></g></svg>