<svg viewBox="0 0 232.302 232.132" xmlns="http://www.w3.org/2000/svg"><path d="M126.506 18.584c-.827.552-1.38 2.076-1.124 3.096.703 2.801 5.364 2.103 5.364-.802 0-1.89-2.676-3.338-4.24-2.294m31.44 11.461c0 .992.616 1.456 1.5 1.131 1-.368.588-2.098-.5-2.098-.79 0-1 .202-1 .967m47.68 20.057c-17.298 5.114-33.45 15.513-42.44 27.325-8.933 11.734-14.977 24.166-26.86 55.251-20.766 54.322-35.06 74.881-61.589 88.583l-3.713 1.918 1.361.577c33.808 14.346 77.52 9.893 107.744-10.978 1.672-1.155 3.145-2.1 3.271-2.1.244 0 3.07-2.124 4.23-3.178a31.025 31.025 0 011.745-1.422c2.725-2.055 11.064-10.216 14.371-14.064.88-1.024 1.87-2.154 2.2-2.512.33-.358 1.12-1.41 1.754-2.337.635-.928 1.31-1.687 1.5-1.687.19 0 .346-.227.346-.504s.45-.989 1-1.583c.55-.593 1-1.184 1-1.314 0-.129.942-1.622 2.094-3.317 17.818-26.229 23.136-63.562 13.655-95.864-2.664-9.079-6.613-17.999-11.943-26.978-4.46-7.515-4.302-7.42-9.727-5.816M82.746 53.85c0 .572.257.83.83.83 1.024 0 .908-1.325-.135-1.526-.48-.092-.695.123-.695.696m34.018-.193c-.264.318-.42.993-.349 1.5.18 1.27 2.093 1.514 2.718.346.905-1.69-1.16-3.3-2.369-1.846M51.701 58.85c-.398 1.038.16 1.896 1.143 1.756.661-.094.902-.395.902-1.128 0-1.18-1.639-1.684-2.045-.628m21.274 12.857c-1.414 1.413-.288 4.171 1.702 4.171 1.05 0 2.47-1.329 2.47-2.31 0-2.085-2.73-3.303-4.172-1.86" fill="#ccfbf3" fill-rule="evenodd"/><path d="M107.946.107c-.77.087-3.29.358-5.6.603-26 2.76-51.8 15.577-70.299 34.927-3.972 4.154-11.158 12.98-11 13.508.055.186-.25 1.604-.679 3.152-7.6 27.424 12.946 56.074 41.211 57.465 14.361.706 25.451-4.347 47.167-21.492 33.741-26.639 46.905-33.949 68.685-38.142 10.368-1.996 31.585-2.639 33.563-1.017 1.457 1.194-7.612-9.774-11.086-13.408-18.236-19.076-42.002-31.13-68.704-34.85-4.042-.564-20.27-1.084-23.258-.746m22.1 18.88c.96.843.901 2.985-.105 3.896-1.14 1.032-3.147.942-4.057-.183-2.333-2.88 1.36-6.174 4.162-3.713m29.724 10.268c.92.683.375 2.023-.824 2.023-1.06 0-1.679-1.182-1.028-1.966.647-.78.87-.787 1.852-.057m-75.424 24.6c0 1.076-.757 1.438-1.486.71-.729-.73-.367-1.487.71-1.487.501 0 .776.275.776.776m34.958.124c.965 1.542-1.773 3.128-2.95 1.708-.41-.493-.424-.854-.063-1.646.541-1.189 2.284-1.225 3.013-.062m-65.436 5.55c.128 1.104-.65 1.706-1.69 1.307-1.497-.575-.866-2.705.733-2.476.564.08.874.46.957 1.168m22.224 11.98c2.002 1.574.98 4.371-1.599 4.371-2.673 0-3.367-3.458-.94-4.686 1.295-.655 1.308-.653 2.54.315m37.463 39.09c-.807.444-1.772 1.487-2.3 2.486-2.87 5.427 2.683 11.576 7.49 8.295 5.958-4.067 1.067-14.227-5.19-10.78" fill="#041c54" fill-rule="evenodd"/><path d="M184.878 48.867c-25.779 3.471-39.835 10.745-76.132 39.403-21.716 17.145-32.806 22.198-47.167 21.492-28.293-1.393-48.81-30.04-41.197-57.518 1.066-3.845.915-3.79-2.024.738-25.426 39.173-24.336 93.326 2.615 129.896 1.633 2.127 3.062 4.493 4.83 6.467.628.697 1.863 2.131 2.743 3.187.88 1.056 3.382 3.71 5.561 5.896l3.961 3.977c-8.08 9.13-26.384 20.7-36.922 23.473-1.338.716-.942 1.031 2.7 2.14 30.878 9.406 63.443 2.502 88.9-18.847 15.123-12.682 27.474-34.362 43.58-76.493 18.02-47.137 26.74-60.55 47.444-72.987 10.311-6.193 25.428-11.69 27.475-9.99l.901.747-.892-.966-.892-.965-10.708-.099c-7.339-.068-11.988.074-14.776.45m-65.883 62.005c2.248 1.473 3.17 5.653 1.81 8.211-2.255 4.244-7.724 4.18-9.673-.114-2.549-5.614 2.974-11.3 7.863-8.097m113.097 5.205c.001 2.2.068 3.05.15 1.887.08-1.163.08-2.963-.003-4-.082-1.038-.148-.087-.147 2.113m-33.959 81.9l-2.387 2.5 2.5-2.387c1.375-1.314 2.5-2.439 2.5-2.5 0-.296-.395.065-2.613 2.387m-16.387 13.735l-1.2 1.031 1.3-.86c.715-.473 1.3-.938 1.3-1.033 0-.3-.169-.195-1.4.862" fill="#04e3bb" fill-rule="evenodd"/></svg>
