<svg xmlns="http://www.w3.org/2000/svg" viewBox="0 0 122.88 90.04" style="enable-background:new 0 0 122.88 90.04" xml:space="preserve"><path d="M2.08 26.62H74.4c1.14 0 2.08.94 2.08 2.08v47.91c0 1.14-.93 2.08-2.08 2.08H2.08C.94 78.69 0 77.75 0 76.61V28.7c0-1.14.94-2.08 2.08-2.08zm105.66 19.24h-2.82v-5.64h2.82l.25 5.64h-.25zm-69.37-26.8h-2.82v-5.64h2.82v5.64zm-1.54-8.46h-1.28V7.91H41.32v2.82h-4.36l-.13-.13zm7.31.13V7.91h5.64v2.82h-5.64zm8.47 0V7.91h5.64v2.82h-5.64zm8.46 0V7.91h5.64v2.82h-5.64zm8.47 0V7.91h5.64v2.82h-5.64zm8.46 0V7.91h5.64v2.82H78zm7.84 57.68h4.94v-2.82h-4.94l.25 2.82h-.25zm7.76 0v-2.82h5.64v2.82H93.6zm8.47 0v-2.82h4.26v.03h1.41v2.79h-5.67zm5.67-5.62h-2.82v-5.64h2.82l.25 5.64h-.25zm0-8.46h-2.82v-5.64h2.82l.25 5.64h-.25zm11.5-30.03c.05 0 .1 0 .14.01.31-.54.59-1.11.85-1.71.01-.01.01-.02.02-.03.38-.91.68-1.85.87-2.83.15-.76.25-1.53.28-2.33h-4.58c-.08 2.33-.78 4.62-2.07 6.88l4.49.01zm-.8 1.46h-4.61c-1.4 2.03-3.29 4.03-5.65 6.01.37-.05.74-.11 1.1-.18.99-.2 1.94-.49 2.86-.89.93-.4 1.8-.87 2.61-1.41.81-.54 1.55-1.15 2.24-1.84.53-.53 1.02-1.09 1.45-1.69zm-14.2 6.01c-2.36-1.98-4.25-3.98-5.65-6.01h-4.61c.44.6.93 1.16 1.46 1.69.69.69 1.43 1.3 2.24 1.84.8.54 1.67 1.01 2.61 1.41.01.01.02.01.03.02.91.38 1.85.68 2.83.87.36.07.73.13 1.1.18h-.01zM93.01 24.3h4.64c-1.29-2.26-1.99-4.56-2.07-6.88H91c.04.8.13 1.57.28 2.33.2.99.49 1.94.89 2.86.25.59.53 1.15.84 1.69zM91 15.95h4.61c.17-2.28.93-4.57 2.28-6.88h-4.88c-.31.54-.59 1.1-.84 1.69-.01.01-.01.02-.02.03-.38.91-.68 1.85-.87 2.83-.15.76-.25 1.53-.28 2.33zm2.96-8.34h4.87c1.39-2 3.22-4.01 5.5-6.03-.41.05-.81.11-1.2.19-.99.2-1.94.49-2.86.89-.93.4-1.8.87-2.61 1.41-.81.54-1.55 1.15-2.24 1.84-.53.52-1.02 1.08-1.46 1.7zm14.1-6.04c2.29 2.02 4.12 4.03 5.5 6.03h4.87c-.44-.6-.93-1.16-1.46-1.69-.69-.69-1.43-1.3-2.24-1.84-.8-.54-1.67-1.01-2.61-1.41-.01-.01-.02-.01-.03-.02-.91-.38-1.85-.68-2.83-.87-.4-.08-.8-.14-1.2-.2zm11.33 7.5h-4.88c1.35 2.31 2.11 4.6 2.28 6.88h4.61c-.04-.8-.13-1.57-.28-2.33-.2-.99-.49-1.94-.89-2.86-.25-.59-.53-1.15-.84-1.69zM102.85.33c1.08-.22 2.2-.33 3.35-.33s2.26.11 3.35.33c1.07.21 2.1.53 3.11.96.01 0 .03.01.04.02 1 .43 1.95.95 2.84 1.54.89.59 1.71 1.27 2.46 2.02.76.75 1.43 1.57 2.02 2.46.6.89 1.11 1.84 1.54 2.84.44 1.02.76 2.07.98 3.15.22 1.08.33 2.2.33 3.35s-.11 2.26-.33 3.35c-.21 1.07-.53 2.1-.96 3.11 0 .01-.01.03-.02.04a17.62 17.62 0 0 1-1.54 2.84c-.59.89-1.27 1.71-2.02 2.46-.75.76-1.57 1.43-2.46 2.02-.89.6-1.84 1.11-2.84 1.54-1.02.44-2.07.76-3.15.98-1.08.22-2.2.33-3.35.33s-2.26-.11-3.35-.33c-1.07-.21-2.1-.53-3.11-.96-.01 0-.03-.01-.04-.02-1-.43-1.95-.95-2.84-1.54-.89-.59-1.71-1.27-2.46-2.02-.76-.75-1.43-1.57-2.02-2.46-.6-.89-1.11-1.84-1.54-2.84a15.96 15.96 0 0 1-.98-3.15c-.22-1.08-.33-2.2-.33-3.35s.11-2.26.33-3.35c.21-1.07.53-2.1.96-3.11 0-.01.01-.03.02-.04.43-1.01.95-1.95 1.54-2.84.59-.89 1.27-1.71 2.02-2.46.75-.76 1.57-1.43 2.46-2.02.89-.6 1.84-1.11 2.84-1.54 1.01-.44 2.07-.76 3.15-.98zm4.08 2.19V7.6h4.84c-1.27-1.68-2.88-3.37-4.84-5.08zm0 6.55v6.88h8.4c-.19-2.26-1.03-4.55-2.53-6.88h-5.87zm0 8.34v6.88h6.11c1.45-2.28 2.22-4.57 2.31-6.88h-8.42zm0 8.35v5.14c2.07-1.7 3.77-3.42 5.09-5.14h-5.09zm-1.46 5.14v-5.14h-5.09c1.31 1.72 3.01 3.44 5.09 5.14zm0-6.6v-6.88h-8.43c.09 2.31.87 4.6 2.31 6.88h6.12zm0-8.35V9.07H99.6c-1.5 2.33-2.34 4.62-2.53 6.88h8.4zm0-8.34V2.52c-1.96 1.71-3.57 3.4-4.84 5.08h4.84v.01zM28.81 81.56h18.86c.05 3.26 1.39 6.18 5.03 8.48H23.78c2.91-2.11 5.04-4.68 5.03-8.48zm9.43-9.88c1.47 0 2.67 1.2 2.67 2.67s-1.2 2.67-2.67 2.67-2.67-1.2-2.67-2.67a2.67 2.67 0 0 1 2.67-2.67zM6.25 30.54h63.97c1.01 0 1.84.83 1.84 1.84v35.8c0 1.01-.83 1.84-1.84 1.84H6.25c-1.01 0-1.84-.83-1.84-1.84v-35.8c0-1.02.83-1.84 1.84-1.84z" style="fill-rule:evenodd;clip-rule:evenodd"/></svg>