<svg width="40" height="40" viewBox="0 0 40 40" fill="none" xmlns="http://www.w3.org/2000/svg">
<circle cx="20" cy="20" r="20" fill="white"/>
<path fill-rule="evenodd" clip-rule="evenodd" d="M11.7612 19.1214C11.8408 15.6544 12.995 12.5461 14.7463 10.4738C17.0149 7.52491 20.4378 5.61208 24.2587 5.61208C26.607 5.61208 28.796 6.32939 30.6667 7.56476C27.8408 5.05417 24.1393 3.5 20.0796 3.5H20C11.1642 3.5 4 10.6731 4 19.5199C4 28.1276 10.7662 35.1413 19.2438 35.5H20C24.0532 35.5 27.7563 34.0197 30.5706 31.5212C30.6026 31.506 30.6346 31.4907 30.6667 31.4751C33.9304 28.5262 36 24.2622 36 19.5199C36 14.7777 33.9304 10.5137 30.6667 7.56477C26.5672 5.57225 22.7463 6.96702 21.4727 7.84373C25.4926 8.72044 28.5572 13.6221 28.5572 19.5199C28.5572 25.4178 25.4926 30.3194 21.4727 31.1962C22.7224 32.0564 26.4249 33.4156 30.4366 31.5836C28.6175 32.7278 26.5113 33.3879 24.2587 33.3879C20.4378 33.3879 17.0547 31.5149 14.7463 28.5262C12.995 26.4539 11.8408 23.3456 11.7612 19.8786V19.1214Z" fill="#FF1B2D"/>
</svg>
