<svg xmlns="http://www.w3.org/2000/svg" viewBox="0 0 153.65 153.65"><defs><style>.cls-1{fill:#2991c9;}.cls-2{fill:#cc5e55;}.cls-3{fill:#ffc328;}.cls-4{fill:#002a44;}.cls-5{fill:#3c3;}.cls-6{fill:#fff;}</style></defs><g id="Layer_5" data-name="Layer 5"><rect class="cls-1" width="153.65" height="153.65" rx="15"/><path class="cls-2" d="M157.55,73H132.07a4.46,4.46,0,0,1-4.43-4.46V42.92a4.45,4.45,0,0,1,4.43-4.45h25.48A4.45,4.45,0,0,1,162,42.92V68.49A4.46,4.46,0,0,1,157.55,73Z" transform="translate(-23.35 -23)"/><path class="cls-2" d="M113.43,73H88a4.47,4.47,0,0,1-4.44-4.46V42.92A4.46,4.46,0,0,1,88,38.47h25.47a4.45,4.45,0,0,1,4.44,4.45V68.49A4.46,4.46,0,0,1,113.43,73Z" transform="translate(-23.35 -23)"/><path class="cls-2" d="M63.42,76,39.19,68.23a4.52,4.52,0,0,1-2.88-5.62l7.76-24.32a4.5,4.5,0,0,1,5.59-2.9l24.23,7.8a4.53,4.53,0,0,1,2.89,5.61L69,73.13A4.44,4.44,0,0,1,63.42,76Z" transform="translate(-23.35 -23)"/><path class="cls-3" d="M157.55,117H132.07a4.45,4.45,0,0,1-4.43-4.46V87a4.46,4.46,0,0,1,4.43-4.46h25.48A4.46,4.46,0,0,1,162,87V112.6A4.44,4.44,0,0,1,157.55,117Z" transform="translate(-23.35 -23)"/><path class="cls-4" d="M113.43,117H88a4.46,4.46,0,0,1-4.44-4.46V87A4.47,4.47,0,0,1,88,82.57h25.47A4.46,4.46,0,0,1,117.87,87V112.6A4.44,4.44,0,0,1,113.43,117Z" transform="translate(-23.35 -23)"/><path class="cls-5" d="M69.28,117H43.81a4.45,4.45,0,0,1-4.44-4.46V87a4.46,4.46,0,0,1,4.44-4.46H69.28A4.47,4.47,0,0,1,73.72,87V112.6A4.45,4.45,0,0,1,69.28,117Z" transform="translate(-23.35 -23)"/><path class="cls-3" d="M157.55,161.07H132.07a4.45,4.45,0,0,1-4.43-4.45V131a4.45,4.45,0,0,1,4.43-4.45h25.48A4.45,4.45,0,0,1,162,131v25.58A4.45,4.45,0,0,1,157.55,161.07Z" transform="translate(-23.35 -23)"/><path class="cls-3" d="M113.43,161.07H88a4.46,4.46,0,0,1-4.44-4.45V131A4.46,4.46,0,0,1,88,126.59h25.47a4.45,4.45,0,0,1,4.44,4.45v25.58A4.45,4.45,0,0,1,113.43,161.07Z" transform="translate(-23.35 -23)"/><path class="cls-5" d="M69.28,161.07H43.81a4.45,4.45,0,0,1-4.44-4.45V131a4.45,4.45,0,0,1,4.44-4.45H69.28A4.46,4.46,0,0,1,73.72,131v25.58A4.46,4.46,0,0,1,69.28,161.07Z" transform="translate(-23.35 -23)"/><path class="cls-4" d="M119.19,124.28H82.83a6.36,6.36,0,0,1-6.33-6.36V81.49a6.36,6.36,0,0,1,6.33-6.36h36.36a6.36,6.36,0,0,1,6.33,6.36V118A6.35,6.35,0,0,1,119.19,124.28Z" transform="translate(-23.35 -23)"/><path id="path6" class="cls-6" d="M108.18,87.59A9.21,9.21,0,0,1,113,84.86c.63,0,1.23-.07,1.83-.1a5.92,5.92,0,0,1,2,.53,8.23,8.23,0,0,1,2.61,2.37,11.22,11.22,0,0,1,2,4.66,14.44,14.44,0,0,1,0,1.75,8.4,8.4,0,0,1-.88-1.55,7.27,7.27,0,0,0-1.5-1.8A4.7,4.7,0,0,0,116,89.39a4.11,4.11,0,0,0-1.35.18,6.59,6.59,0,0,0-3.2,2c-.28.32-.6.65-.85,1s-.56.86-.76,1.31a10.14,10.14,0,0,0-1.15,4.28c0,.6,0,1.15.1,1.75.18.4.08.92.5,1.15a1.41,1.41,0,0,0,.85-.23A12.45,12.45,0,0,0,112,99.08c.67-.55,1.15-1.3,1.8-1.91.37-.27.6-.65.95-.92a13.37,13.37,0,0,1,2.15-1.75,3.54,3.54,0,0,1,2-.53A3.14,3.14,0,0,1,121,95.22a9.7,9.7,0,0,1,1.5,3.38c.15.63.08,1.25.18,1.9a22.3,22.3,0,0,1-1.13,6.29,8.54,8.54,0,0,1-1,2c-.15.18-.23.4-.43.45a8.8,8.8,0,0,1,.23-1.22,5.32,5.32,0,0,0,0-1.38,15.15,15.15,0,0,0,0-2.13c-.17-.7-.2-1.45-.42-2.15a6.19,6.19,0,0,0-.55-1.45c-.18-.28-.28-.6-.56-.78a1.66,1.66,0,0,0-1-.42,5.13,5.13,0,0,0-.82.25,6.87,6.87,0,0,0-1.63,1.5,8.61,8.61,0,0,1-1.38,1.18,3.6,3.6,0,0,1-2.55.72,8.54,8.54,0,0,1-3.48-1.22,7.24,7.24,0,0,1-1.37-1.11,6.72,6.72,0,0,1-1.86-3.88,3.09,3.09,0,0,1-.07-1.35,11.48,11.48,0,0,1,1.33-5.13,16,16,0,0,1,1.4-2.1A1.94,1.94,0,0,1,108.18,87.59Z" transform="translate(-23.35 -23)"/><path id="path3742" class="cls-6" d="M93.87,111.72A9.19,9.19,0,0,1,89,114.44c-.63,0-1.23.08-1.83.1a5.9,5.9,0,0,1-2-.52,8.5,8.5,0,0,1-2.61-2.38,11.64,11.64,0,0,1-2-4.65,14.66,14.66,0,0,1,0-1.76,7,7,0,0,1,.88,1.56,8.09,8.09,0,0,0,1.47,1.8A4.71,4.71,0,0,0,86,109.91a4.07,4.07,0,0,0,1.35-.17,6.74,6.74,0,0,0,3.21-1.95c.27-.33.6-.65.85-1s.55-.85.75-1.3a10,10,0,0,0,1.15-4.28c-.05-.6-.05-1.15-.1-1.75-.17-.4-.07-.93-.5-1.15a1.41,1.41,0,0,0-.85.22,12.41,12.41,0,0,0-1.8,1.68c-.68.55-1.15,1.3-1.8,1.9-.38.28-.61.65-1,.93a13,13,0,0,1-2.15,1.75,3.57,3.57,0,0,1-2,.52A3.13,3.13,0,0,1,81,104.08a9.8,9.8,0,0,1-1.5-3.38c-.15-.62-.07-1.27-.17-1.9a22.29,22.29,0,0,1,1.12-6.28,9.26,9.26,0,0,1,1-2c.15-.17.22-.4.42-.45a9,9,0,0,1-.22,1.23,4.85,4.85,0,0,0,0,1.37,15.13,15.13,0,0,0,0,2.13c.18.7.2,1.45.43,2.15a5.85,5.85,0,0,0,.55,1.46c.17.27.27.6.55.77a2.17,2.17,0,0,0,1,.43,5.24,5.24,0,0,0,.83-.25,8,8,0,0,0,1.62-1.5A8.13,8.13,0,0,1,88,96.65a3.62,3.62,0,0,1,2.55-.73A8.22,8.22,0,0,1,94,97.15a7.58,7.58,0,0,1,1.38,1.1,7,7,0,0,1,1.88,3.88,3.09,3.09,0,0,1,.07,1.35A11.44,11.44,0,0,1,96,108.61a14.75,14.75,0,0,1-1.4,2.1A2.16,2.16,0,0,1,93.87,111.72Z" transform="translate(-23.35 -23)"/><path id="path10" class="cls-6" d="M97.67,89.17a4.78,4.78,0,0,1,3.83.27,2.8,2.8,0,0,1,1,1.18,2.11,2.11,0,0,1-.1,1.82,3.68,3.68,0,0,1-1.73,1.71,3.85,3.85,0,0,1-1.75.47,4,4,0,0,1-2-.25,2.77,2.77,0,0,1-1.66-1.7,2.18,2.18,0,0,1,.28-1.75A4.1,4.1,0,0,1,97.67,89.17Z" transform="translate(-23.35 -23)"/><path id="path12" class="cls-6" d="M97.8,96.62a2.83,2.83,0,0,1,2.5-1.37,3.46,3.46,0,0,1,1.5.4,2.31,2.31,0,0,1,1.38,1.55,11.6,11.6,0,0,0,.25,2.48,9.55,9.55,0,0,0,2.83,4.23c.62.72,1.45,1.22,2.07,2a16.78,16.78,0,0,1-2.83-.3,9.16,9.16,0,0,1-3.25-1.15,7.7,7.7,0,0,1-1.6-1.1,9.27,9.27,0,0,1-2-2.23,6.84,6.84,0,0,1-1.15-3.22A3.24,3.24,0,0,1,97.8,96.62Z" transform="translate(-23.35 -23)"/></g></svg>