<svg xmlns="http://www.w3.org/2000/svg" shape-rendering="geometricPrecision" text-rendering="geometricPrecision" image-rendering="optimizeQuality" fill-rule="evenodd" clip-rule="evenodd" viewBox="0 0 512 445.91"><path d="M34.67 0h442.66C496.42 0 512 15.58 512 34.67v376.57c0 19.04-15.58 34.67-34.67 34.67H34.67C15.59 445.91 0 430.32 0 411.24V34.67C0 15.58 15.59 0 34.67 0zm34.97 115.76h372.72c9.43 0 17.13 7.74 17.13 17.13v182.02c0 9.39-7.75 17.13-17.13 17.13H69.64c-9.39 0-17.14-7.72-17.14-17.13V132.89c0-9.41 7.71-17.13 17.14-17.13zm186.35 27.46c44.56 0 80.68 36.12 80.68 80.68 0 44.56-36.12 80.68-80.68 80.68-44.55 0-80.67-36.12-80.67-80.68 0-44.56 36.12-80.68 80.67-80.68zm-4.53 36.34v-20.85c-7.16 6.37-13.99 13.3-19.91 20.85h19.91zm66.83 79.57c5.35-9.6 8.49-19.7 9.09-30.73h-19.74c-.55 10.89-3.89 21.18-9.1 30.72l19.75.01zm-6 9.11h-19.38c-6.73 9.68-15.15 18.3-24.02 26.03 17.21-3.15 32.5-12.34 43.4-26.03zm-69.15 26.01c-8.88-7.69-17.28-16.36-24.01-26.01H199.8c11.03 13.86 26.18 22.84 43.34 26.01zm-49.44-35.08h19.75c-5.18-9.5-8.56-19.87-9.1-30.73h-19.73c.68 11.19 3.67 20.98 9.08 30.73zm-9.1-39.8h19.94c.96-10.91 4.7-21.22 10.03-30.73H193.7c-5.37 9.64-8.5 19.77-9.1 30.73zm15.11-39.81h20.61c6.74-9.6 14.89-18.29 23.53-26.19-17.59 3.06-33 12.25-44.14 26.19zm68.5-26.13c8.65 7.88 16.77 16.53 23.46 26.13h20.57c-11.05-13.84-26.55-23.13-44.03-26.13zm50.07 35.21h-20.86c5.32 9.48 9.07 19.85 10.03 30.73h19.92c-.74-11.17-3.6-21.01-9.09-30.73zm-57.75-29.93v20.85h19.91c-5.92-7.55-12.74-14.48-19.91-20.85zm0 29.93v30.73h37.83c-1.15-11.06-5.57-21.41-11.49-30.73h-26.34zm0 39.8v30.73h27.53c5.87-9.38 9.83-19.61 10.5-30.73h-38.03zm0 39.8v21.24c7.63-6.43 14.86-13.43 21.08-21.24h-21.08zm-9.07 21.24v-21.24h-21.09c6.18 7.81 13.46 14.85 21.09 21.24zm0-30.31v-30.73h-38.03c.68 11.12 4.65 21.33 10.5 30.73h27.53zm0-39.8v-30.73h-26.35c-5.92 9.32-10.33 19.67-11.48 30.73h37.83zM491.54 83.75H22.04v330.87a9.53 9.53 0 0 0 9.58 9.58h450.17c5.33 0 9.59-4.29 9.59-9.59V83.75h.16zm-47.21-53.67c9.46 0 17.13 7.67 17.13 17.13 0 9.46-7.67 17.12-17.13 17.12-9.45 0-17.12-7.66-17.12-17.12s7.71-17.13 17.12-17.13zm-116 0c9.46 0 17.13 7.67 17.13 17.13 0 9.46-7.67 17.12-17.13 17.12-9.46 0-17.12-7.66-17.12-17.12s7.66-17.13 17.12-17.13zm58 0c9.46 0 17.13 7.67 17.13 17.13 0 9.46-7.67 17.12-17.13 17.12-9.45 0-17.12-7.66-17.12-17.12s7.67-17.13 17.12-17.13zm-107.7 360.86c-7.42 0-13.42-6.54-13.42-14.58 0-8.08 6-14.58 13.42-14.58h165.2c7.42 0 13.42 6.54 13.42 14.58s-6 14.58-13.42 14.58h-165.2zm-216.3 0c-7.33 0-13.29-6.54-13.29-14.58 0-8.08 5.96-14.58 13.29-14.58H215.5c7.33 0 13.29 6.54 13.29 14.58s-5.96 14.58-13.29 14.58H62.33z"/></svg>