<?xml version="1.0" encoding="UTF-8" standalone="no"?>
<svg
   width="24"
   height="24"
   viewBox="0 0 24 24"
   fill="none"
   version="1.1"
   id="svg154"
   sodipodi:docname="app.svg"
   inkscape:version="1.2.2 (b0a8486541, 2022-12-01)"
   xml:space="preserve"
   inkscape:export-filename="../../../../ícones big/spotifywebapp.svg"
   inkscape:export-xdpi="96"
   inkscape:export-ydpi="96"
   xmlns:inkscape="http://www.inkscape.org/namespaces/inkscape"
   xmlns:sodipodi="http://sodipodi.sourceforge.net/DTD/sodipodi-0.dtd"
   xmlns:xlink="http://www.w3.org/1999/xlink"
   xmlns="http://www.w3.org/2000/svg"
   xmlns:svg="http://www.w3.org/2000/svg"
   xmlns:sketch="http://www.bohemiancoding.com/sketch/ns"><sodipodi:namedview
     id="namedview156"
     pagecolor="#ffffff"
     bordercolor="#eeeeee"
     borderopacity="0"
     inkscape:showpageshadow="0"
     inkscape:pageopacity="0"
     inkscape:pagecheckerboard="false"
     inkscape:deskcolor="#888888"
     showgrid="true"
     inkscape:zoom="32.000001"
     inkscape:cx="1.3125"
     inkscape:cy="10.296875"
     inkscape:window-width="952"
     inkscape:window-height="1044"
     inkscape:window-x="960"
     inkscape:window-y="0"
     inkscape:window-maximized="1"
     inkscape:current-layer="svg154"><inkscape:grid
       type="xygrid"
       id="grid356" /></sodipodi:namedview><defs
     id="defs152"><linearGradient
       inkscape:collect="always"
       id="linearGradient5358"><stop
         style="stop-color:#1a1a1a;stop-opacity:1;"
         offset="0"
         id="stop5354" /><stop
         style="stop-color:#808080;stop-opacity:1"
         offset="1"
         id="stop5356" /></linearGradient><linearGradient
       inkscape:collect="always"
       id="linearGradient5350"><stop
         style="stop-color:#2c95d0;stop-opacity:1;"
         offset="0"
         id="stop5346" /><stop
         style="stop-color:#afc6e9;stop-opacity:1"
         offset="1"
         id="stop5348" /></linearGradient><style
       type="text/css"
       id="current-color-scheme">
      .ColorScheme-Text {
        color:#31363b;
      }
      .ColorScheme-Background {
        color:#eff0f1;
      }
      .ColorScheme-Highlight {
        color:#3daee9;
      }
      .ColorScheme-ViewText {
        color:#31363b;
      }
      .ColorScheme-ViewBackground {
        color:#fcfcfc;
      }
      .ColorScheme-ViewHover {
        color:#93cee9;
      }
      .ColorScheme-ViewFocus{
        color:#3daee9;
      }
      .ColorScheme-ButtonText {
        color:#31363b;
      }
      .ColorScheme-ButtonBackground {
        color:#eff0f1;
      }
      .ColorScheme-ButtonHover {
        color:#93cee9;
      }
      .ColorScheme-ButtonFocus{
        color:#3daee9;
      }
      </style><style
       type="text/css"
       id="current-color-scheme-9">
      .ColorScheme-Text {
        color:#31363b;
      }
      .ColorScheme-Background {
        color:#eff0f1;
      }
      .ColorScheme-Highlight {
        color:#3daee9;
      }
      .ColorScheme-ViewText {
        color:#31363b;
      }
      .ColorScheme-ViewBackground {
        color:#fcfcfc;
      }
      .ColorScheme-ViewHover {
        color:#93cee9;
      }
      .ColorScheme-ViewFocus{
        color:#3daee9;
      }
      .ColorScheme-ButtonText {
        color:#31363b;
      }
      .ColorScheme-ButtonBackground {
        color:#eff0f1;
      }
      .ColorScheme-ButtonHover {
        color:#93cee9;
      }
      .ColorScheme-ButtonFocus{
        color:#3daee9;
      }
      </style><style
       type="text/css"
       id="current-color-scheme-2">
      .ColorScheme-Text {
        color:#31363b;
      }
      .ColorScheme-Background {
        color:#eff0f1;
      }
      .ColorScheme-Highlight {
        color:#3daee9;
      }
      .ColorScheme-ViewText {
        color:#31363b;
      }
      .ColorScheme-ViewBackground {
        color:#fcfcfc;
      }
      .ColorScheme-ViewHover {
        color:#93cee9;
      }
      .ColorScheme-ViewFocus{
        color:#3daee9;
      }
      .ColorScheme-ButtonText {
        color:#31363b;
      }
      .ColorScheme-ButtonBackground {
        color:#eff0f1;
      }
      .ColorScheme-ButtonHover {
        color:#93cee9;
      }
      .ColorScheme-ButtonFocus{
        color:#3daee9;
      }
      </style><style
       type="text/css"
       id="current-color-scheme-3">
      .ColorScheme-Text {
        color:#31363b;
      }
      .ColorScheme-Background {
        color:#eff0f1;
      }
      .ColorScheme-Highlight {
        color:#3daee9;
      }
      .ColorScheme-ViewText {
        color:#31363b;
      }
      .ColorScheme-ViewBackground {
        color:#fcfcfc;
      }
      .ColorScheme-ViewHover {
        color:#93cee9;
      }
      .ColorScheme-ViewFocus{
        color:#3daee9;
      }
      .ColorScheme-ButtonText {
        color:#31363b;
      }
      .ColorScheme-ButtonBackground {
        color:#eff0f1;
      }
      .ColorScheme-ButtonHover {
        color:#93cee9;
      }
      .ColorScheme-ButtonFocus{
        color:#3daee9;
      }
      </style><style
       type="text/css"
       id="current-color-scheme-97">
      .ColorScheme-Text {
        color:#31363b;
      }
      .ColorScheme-Background {
        color:#eff0f1;
      }
      .ColorScheme-Highlight {
        color:#3daee9;
      }
      .ColorScheme-ViewText {
        color:#31363b;
      }
      .ColorScheme-ViewBackground {
        color:#fcfcfc;
      }
      .ColorScheme-ViewHover {
        color:#93cee9;
      }
      .ColorScheme-ViewFocus{
        color:#3daee9;
      }
      .ColorScheme-ButtonText {
        color:#31363b;
      }
      .ColorScheme-ButtonBackground {
        color:#eff0f1;
      }
      .ColorScheme-ButtonHover {
        color:#93cee9;
      }
      .ColorScheme-ButtonFocus{
        color:#3daee9;
      }
      </style><style
       type="text/css"
       id="current-color-scheme-7">
      .ColorScheme-Text {
        color:#31363b;
      }
      .ColorScheme-Background {
        color:#eff0f1;
      }
      .ColorScheme-Highlight {
        color:#3daee9;
      }
      .ColorScheme-ViewText {
        color:#31363b;
      }
      .ColorScheme-ViewBackground {
        color:#fcfcfc;
      }
      .ColorScheme-ViewHover {
        color:#93cee9;
      }
      .ColorScheme-ViewFocus{
        color:#3daee9;
      }
      .ColorScheme-ButtonText {
        color:#31363b;
      }
      .ColorScheme-ButtonBackground {
        color:#eff0f1;
      }
      .ColorScheme-ButtonHover {
        color:#93cee9;
      }
      .ColorScheme-ButtonFocus{
        color:#3daee9;
      }
      </style><style
       type="text/css"
       id="current-color-scheme-9-0">
      .ColorScheme-Text {
        color:#31363b;
      }
      .ColorScheme-Background {
        color:#eff0f1;
      }
      .ColorScheme-Highlight {
        color:#3daee9;
      }
      .ColorScheme-ViewText {
        color:#31363b;
      }
      .ColorScheme-ViewBackground {
        color:#fcfcfc;
      }
      .ColorScheme-ViewHover {
        color:#93cee9;
      }
      .ColorScheme-ViewFocus{
        color:#3daee9;
      }
      .ColorScheme-ButtonText {
        color:#31363b;
      }
      .ColorScheme-ButtonBackground {
        color:#eff0f1;
      }
      .ColorScheme-ButtonHover {
        color:#93cee9;
      }
      .ColorScheme-ButtonFocus{
        color:#3daee9;
      }
      </style><style
       type="text/css"
       id="current-color-scheme-2-9">
      .ColorScheme-Text {
        color:#31363b;
      }
      .ColorScheme-Background {
        color:#eff0f1;
      }
      .ColorScheme-Highlight {
        color:#3daee9;
      }
      .ColorScheme-ViewText {
        color:#31363b;
      }
      .ColorScheme-ViewBackground {
        color:#fcfcfc;
      }
      .ColorScheme-ViewHover {
        color:#93cee9;
      }
      .ColorScheme-ViewFocus{
        color:#3daee9;
      }
      .ColorScheme-ButtonText {
        color:#31363b;
      }
      .ColorScheme-ButtonBackground {
        color:#eff0f1;
      }
      .ColorScheme-ButtonHover {
        color:#93cee9;
      }
      .ColorScheme-ButtonFocus{
        color:#3daee9;
      }
      </style><style
       type="text/css"
       id="current-color-scheme-3-3">
      .ColorScheme-Text {
        color:#31363b;
      }
      .ColorScheme-Background {
        color:#eff0f1;
      }
      .ColorScheme-Highlight {
        color:#3daee9;
      }
      .ColorScheme-ViewText {
        color:#31363b;
      }
      .ColorScheme-ViewBackground {
        color:#fcfcfc;
      }
      .ColorScheme-ViewHover {
        color:#93cee9;
      }
      .ColorScheme-ViewFocus{
        color:#3daee9;
      }
      .ColorScheme-ButtonText {
        color:#31363b;
      }
      .ColorScheme-ButtonBackground {
        color:#eff0f1;
      }
      .ColorScheme-ButtonHover {
        color:#93cee9;
      }
      .ColorScheme-ButtonFocus{
        color:#3daee9;
      }
      </style><style
       type="text/css"
       id="current-color-scheme-97-6">
      .ColorScheme-Text {
        color:#31363b;
      }
      .ColorScheme-Background {
        color:#eff0f1;
      }
      .ColorScheme-Highlight {
        color:#3daee9;
      }
      .ColorScheme-ViewText {
        color:#31363b;
      }
      .ColorScheme-ViewBackground {
        color:#fcfcfc;
      }
      .ColorScheme-ViewHover {
        color:#93cee9;
      }
      .ColorScheme-ViewFocus{
        color:#3daee9;
      }
      .ColorScheme-ButtonText {
        color:#31363b;
      }
      .ColorScheme-ButtonBackground {
        color:#eff0f1;
      }
      .ColorScheme-ButtonHover {
        color:#93cee9;
      }
      .ColorScheme-ButtonFocus{
        color:#3daee9;
      }
      </style><linearGradient
       inkscape:collect="always"
       xlink:href="#linearGradient5350"
       id="linearGradient5352"
       x1="-10.297242"
       y1="-0.4861359"
       x2="26.604893"
       y2="-10.91596"
       gradientUnits="userSpaceOnUse"
       gradientTransform="matrix(0.7047483,0,0,0.7047483,9.0209966,15.411477)" /><linearGradient
       inkscape:collect="always"
       xlink:href="#linearGradient5358"
       id="linearGradient5360"
       x1="13.523417"
       y1="34.648232"
       x2="13.744388"
       y2="-9.8553009"
       gradientUnits="userSpaceOnUse" /><linearGradient
       inkscape:collect="always"
       xlink:href="#linearGradient5358"
       id="linearGradient5454"
       gradientUnits="userSpaceOnUse"
       x1="13.523417"
       y1="34.648232"
       x2="13.744388"
       y2="-9.8553009" /></defs><g
     id="g2267"
     inkscape:label="Shape"
     inkscape:highlight-color="#00dcff"
     style="fill:url(#linearGradient5360);fill-opacity:1"><path
       d="M 50,5 C 9.0909092,5 5,25.454546 5,50 5,82.727274 17.272728,95 50,95 82.727274,95 95,82.727274 95,50 95,25.454546 90.909093,5 50,5 Z"
       sketch:type="MSShapeGroup"
       id="path6"
       style="font-variation-settings:normal;display:inline;opacity:1;vector-effect:none;fill:url(#linearGradient5454);fill-opacity:1;stroke-width:4.56656;stroke-linecap:butt;stroke-linejoin:miter;stroke-miterlimit:4;stroke-dasharray:none;stroke-dashoffset:0;stroke-opacity:1;-inkscape-stroke:none;stop-color:#000000;stop-opacity:1"
       transform="matrix(0.24444444,0,0,0.24444444,-0.22222222,-0.22222222)"
       sodipodi:nodetypes="sssss"
       inkscape:label="Squircle" /></g><g
     inkscape:groupmode="layer"
     id="layer3"
     inkscape:label="Guides"
     sodipodi:insensitive="true"
     style="display:none"><circle
       style="font-variation-settings:normal;display:inline;opacity:1;vector-effect:none;fill:none;fill-opacity:0.592829;stroke:#ff0000;stroke-width:0.0444444;stroke-linecap:butt;stroke-linejoin:miter;stroke-miterlimit:4;stroke-dasharray:none;stroke-dashoffset:0;stroke-opacity:1;-inkscape-stroke:none;paint-order:markers stroke fill;stop-color:#000000;stop-opacity:1"
       id="path1480"
       cx="12"
       cy="12"
       r="8"
       inkscape:label="Circle Guide" /><rect
       style="font-variation-settings:normal;display:inline;opacity:1;fill:none;fill-opacity:0.592829;stroke:#ff0000;stroke-width:0.05;stroke-linecap:butt;stroke-linejoin:miter;stroke-miterlimit:4;stroke-dasharray:none;stroke-dashoffset:0;stroke-opacity:1;paint-order:markers stroke fill;stop-color:#000000;stop-opacity:1"
       id="rect1482"
       width="14"
       height="14"
       x="5"
       y="5"
       inkscape:label="Square Guide" /></g><path
     style="fill:url(#linearGradient5352);fill-opacity:1;stroke:none;stroke-width:0.00605643"
     d="m 16.090469,7.4742807 c -0.07183,0.00941 -0.138572,0.017647 -0.199862,0.060658 -0.156498,0.1098322 -0.215246,0.3763581 -0.08353,0.530302 0.09775,0.1142185 0.240803,0.1503996 0.386339,0.1314912 0.253043,-0.032884 0.394703,-0.3463864 0.26673,-0.5675546 -0.0674,-0.1165444 -0.241648,-0.1716628 -0.36968,-0.1548961 M 4.9526926,9.0706071 C 4.935532,9.0009358 4.9429248,8.85478 4.8854384,8.8078368 4.8462615,8.7758412 4.8002041,8.7799006 4.752833,8.7799006 H 4.522689 c -0.03867,0 -0.083723,-0.00373 -0.1137781,0.025604 -0.048007,0.046865 -0.03158,0.1379411 -0.03158,0.198481 v 1.1749474 1.138608 0.351274 c 0,0.0555 -0.00982,0.121928 0.00571,0.175636 0.015786,0.05466 0.064019,0.06859 0.1154412,0.07214 0.1153201,0.0079 0.2356968,0.0033 0.3512734,4.47e-4 0.047091,-0.0012 0.1006514,-0.0079 0.1244233,-0.05444 0.024864,-0.04858 0.014877,-0.116883 0.014877,-0.169556 V 11.329649 10.015404 9.5975099 c 0,-0.040661 -0.015463,-0.1223273 0.00971,-0.1561778 0.027176,-0.036532 0.090792,-0.054798 0.129589,-0.076539 0.1438143,-0.08055 0.306072,-0.134883 0.4663437,-0.1709547 0.1486243,-0.033448 0.3241095,-0.054399 0.4724012,-0.00986 0.2282913,0.068572 0.2842828,0.3096712 0.3114459,0.5164864 0.022897,0.1743089 0.00353,0.3631372 0.00353,0.5390222 v 1.059875 0.381555 c 0,0.05248 -0.011995,0.122013 0.014637,0.169488 0.024441,0.04354 0.079593,0.04832 0.1246601,0.04854 0.088823,4.29e-4 0.1776593,5e-6 0.2664829,5e-6 0.046612,0 0.1012449,0.0064 0.1453481,-0.01214 0.076123,-0.03189 0.054512,-0.13995 0.054512,-0.205886 V 11.069229 9.8942817 9.5732911 c 0,-0.034507 -0.011613,-0.095376 0.0062,-0.1259133 C 7.0263627,9.3918368 7.1493839,9.3528978 7.2057208,9.326304 7.4333093,9.2188805 7.6798,9.1553546 7.9324924,9.1615443 c 0.3472578,0.00851 0.4542329,0.3470395 0.4542329,0.6418905 v 1.3626982 0.436063 c 0,0.0699 -0.010438,0.149206 0.00197,0.218031 0.0095,0.05257 0.053089,0.0711 0.1009665,0.077 0.1060788,0.01307 0.2201514,0.0017 0.3270476,0.0017 0.043863,0 0.1011061,0.0052 0.138662,-0.02242 0.037323,-0.02745 0.036971,-0.07534 0.036971,-0.116872 V 11.505301 10.4212 9.7186535 c 0,-0.1979845 0.00261,-0.402777 -0.080623,-0.5874739 C 8.6230112,8.4907417 7.7555126,8.6371194 7.2480931,8.8844275 7.1190727,8.9473121 7.0083187,9.0365347 6.8847072,9.1069468 6.6744217,8.6019925 6.0062278,8.6165033 5.5704615,8.7617308 5.4859918,8.7898785 5.4023827,8.8213807 5.3221471,8.8602017 5.1934663,8.9224592 5.0770194,9.0013953 4.9527053,9.0706086 M 14.07369,8.6795085 c -0.196652,0.025822 -0.379375,0.0597 -0.557192,0.1535732 -0.130031,0.068657 -0.247163,0.1667694 -0.325654,0.2920349 -0.219485,0.3504125 -0.12882,0.8309541 0.1803,1.0944034 0.297734,0.253739 0.719746,0.313001 1.065932,0.477555 0.191625,0.09109 0.29834,0.22811 0.264847,0.444833 -0.02884,0.186223 -0.179331,0.289527 -0.349637,0.338306 -0.281079,0.08051 -0.621692,0.03015 -0.902408,-0.03337 -0.09387,-0.02124 -0.185145,-0.0512 -0.278596,-0.074 -0.03531,-0.0086 -0.08582,-0.02422 -0.119857,-0.0041 -0.04378,0.02595 -0.03155,0.100228 -0.03155,0.142585 0,0.136822 -0.0077,0.257181 0.139297,0.31734 0.380587,0.155656 0.809989,0.208226 1.217344,0.153354 0.189264,-0.0255 0.374166,-0.09184 0.532965,-0.198159 0.133181,-0.08918 0.250979,-0.208185 0.314934,-0.357324 0.043,-0.100282 0.07214,-0.21123 0.07268,-0.320991 5.45e-4,-0.115751 -0.0019,-0.227521 -0.03652,-0.33916 -0.134332,-0.433579 -0.625084,-0.550486 -0.999131,-0.70011 -0.237653,-0.09507 -0.603824,-0.1866413 -0.617513,-0.49905 -0.0017,-0.04029 0.0018,-0.08187 0.01127,-0.1211285 0.07346,-0.3049779 0.465255,-0.3144504 0.715263,-0.2973046 0.05275,0.0036 0.104959,0.00669 0.157468,0.014292 0.06511,0.00939 0.129789,0.019944 0.193806,0.035484 0.08346,0.020269 0.165582,0.045407 0.248313,0.068403 0.03938,0.010944 0.0837,0.026491 0.120462,-7.752e-4 0.03476,-0.025745 0.03652,-0.083355 0.03701,-0.1229271 0.0011,-0.095571 0.01363,-0.2513486 -0.08478,-0.306371 -0.07983,-0.044603 -0.184366,-0.06435 -0.272548,-0.086493 -0.219182,-0.055077 -0.469979,-0.1006155 -0.696489,-0.070877 m 4.390912,0.018168 c -0.28865,0.037902 -0.557798,0.085329 -0.799449,0.2632122 -0.512193,0.3770495 -0.617573,1.0292491 -0.575906,1.6238262 0.02374,0.338361 0.120886,0.687986 0.352848,0.944803 0.323352,0.358002 0.812712,0.462336 1.276876,0.430546 0.205253,-0.01406 0.404631,-0.04436 0.593532,-0.131776 0.116283,-0.05381 0.07873,-0.223616 0.07873,-0.329052 0,-0.04821 0.0011,-0.115684 -0.05457,-0.13504 -0.08485,-0.02947 -0.2233,0.04041 -0.308817,0.05752 -0.193927,0.03878 -0.391003,0.05556 -0.587473,0.02649 -0.175213,-0.02593 -0.349275,-0.09074 -0.478458,-0.215682 -0.114408,-0.110717 -0.176485,-0.259773 -0.214217,-0.411601 -0.08127,-0.326624 -0.06522,-0.713375 0.02901,-1.0356497 0.02471,-0.084345 0.05856,-0.168605 0.106956,-0.242257 0.223482,-0.340142 0.656154,-0.3655179 1.023052,-0.3386219 0.101446,0.00744 0.199438,0.033285 0.296766,0.060877 0.04349,0.012326 0.103141,0.031635 0.145112,0.00514 0.04936,-0.031206 0.04263,-0.094977 0.04263,-0.1452994 0,-0.1178762 0.01889,-0.2347777 -0.09085,-0.3101138 -0.06032,-0.041417 -0.159284,-0.048768 -0.230143,-0.062963 -0.1952,-0.039114 -0.405721,-0.080605 -0.605644,-0.054364 m -6.595449,2.8681538 c 0.0092,0.07206 0.01006,0.246547 0.07292,0.289207 0.08376,0.05681 0.24783,0.02573 0.344975,0.02573 0.039,0 0.08727,0.0016 0.119977,-0.02334 0.03052,-0.02334 0.03567,-0.06798 0.03725,-0.103843 0.0275,-0.627149 2.42e-4,-1.261771 2.42e-4,-1.8896051 V 9.1917231 c 0,-0.1132249 0.01581,-0.2400584 -0.0067,-0.3512726 -0.01036,-0.051363 -0.04663,-0.072714 -0.0963,-0.077698 -0.116766,-0.011727 -0.239894,-0.00106 -0.357328,-0.00106 -0.0507,0 -0.107745,-2.784e-4 -0.142992,0.042658 -0.03979,0.048515 -0.02659,0.1350467 -0.02659,0.1935394 v 0.4724014 1.2476247 0.33916 c 0,0.03824 0.01266,0.104505 -0.0063,0.138669 -0.0321,0.05812 -0.154317,0.100561 -0.211793,0.129311 -0.233961,0.116974 -0.500261,0.192594 -0.763109,0.167054 -0.05306,-0.0051 -0.107805,-0.01703 -0.157469,-0.03654 -0.279086,-0.109659 -0.290714,-0.42778 -0.290714,-0.683137 V 9.4521246 9.0402875 c 0,-0.064583 0.01205,-0.1430343 -0.0033,-0.2059183 -0.01102,-0.045343 -0.04996,-0.06693 -0.09369,-0.071624 -0.110542,-0.011889 -0.227953,-0.00106 -0.3391603,-0.00106 -0.045148,0 -0.1021287,-0.00669 -0.1386378,0.025914 -0.031049,0.027732 -0.030933,0.068953 -0.030943,0.1073261 v 0.2240881 0.9448026 0.805507 c 0,0.253556 -0.00251,0.502513 0.1198079,0.732827 0.1281182,0.241173 0.4074052,0.356972 0.6675272,0.376038 0.462107,0.03388 0.936567,-0.130601 1.302133,-0.412376 m 4.045663,-2.8014568 c -0.10732,0.01728 -0.09085,0.1259067 -0.09085,0.2093101 v 0.6540939 1.6412928 0.417893 c 0,0.05294 -0.01338,0.129989 0.02211,0.174498 0.02956,0.03706 0.09187,0.03727 0.135362,0.03747 0.121734,5.87e-4 0.255642,0.01505 0.375499,-0.008 0.09484,-0.01826 0.07268,-0.138729 0.07268,-0.210003 V 11.020736 9.3976121 8.9797186 c 0,-0.053913 0.01345,-0.1294623 -0.02125,-0.1753766 -0.03276,-0.043448 -0.08708,-0.042658 -0.136147,-0.042658 -0.115314,0 -0.243469,-0.015674 -0.357329,0.00268 m 2.586096,4.287856 c -0.128215,0.01684 -0.258731,0.01811 -0.387612,0.03548 -0.320445,0.04317 -0.644888,0.135972 -0.93269,0.284506 -0.100356,0.05181 -0.230023,0.111196 -0.303912,0.198844 -0.04052,0.04809 -0.06087,0.124884 0.0072,0.160255 0.04882,0.02532 0.10617,0.0098 0.157468,0.0036 0.119069,-0.01429 0.23832,-0.02738 0.357329,-0.04161 0.347639,-0.04161 0.69873,-0.05421 1.047762,-0.03834 0.149413,0.0068 0.352303,0.02416 0.472403,0.12337 0.128577,0.106229 0.09878,0.306395 0.07873,0.452234 -0.05542,0.40366 -0.210764,0.79636 -0.354786,1.174947 -0.04555,0.119856 -0.117131,0.244075 -0.14384,0.369443 -0.01307,0.06123 0.0092,0.127972 0.08073,0.130454 0.119009,0.0042 0.214277,-0.102353 0.290709,-0.178905 0.205676,-0.20598 0.368412,-0.455202 0.498141,-0.71466 0.197864,-0.395728 0.353998,-0.856863 0.374227,-1.302132 0.0059,-0.131364 0.03573,-0.327285 -0.04651,-0.442113 -0.06383,-0.08915 -0.210279,-0.11999 -0.311058,-0.143247 -0.176605,-0.04075 -0.352909,-0.05696 -0.532967,-0.06928 -0.113194,-0.0077 -0.23826,-0.01778 -0.351273,-0.0029 M 4.3349624,13.349799 c -0.121968,0.0318 -0.1005409,0.177847 -0.033673,0.249961 0.1705153,0.183873 0.3881107,0.341522 0.5848107,0.496385 0.7523781,0.59238 1.5800443,1.095245 2.4589112,1.476497 2.6544667,1.151388 5.7179377,1.275363 8.4487207,0.303488 0.654943,-0.233112 1.298983,-0.512374 1.889606,-0.882059 0.145657,-0.09121 0.289982,-0.183388 0.430007,-0.283198 0.06413,-0.04573 0.139297,-0.08884 0.192776,-0.147171 0.02259,-0.02477 0.043,-0.05336 0.05511,-0.08473 0.07692,-0.198894 -0.136391,-0.319357 -0.308453,-0.280595 -0.07892,0.01774 -0.155773,0.05905 -0.230145,0.0903 -0.109985,0.04614 -0.221908,0.08782 -0.333104,0.13088 -0.314269,0.121734 -0.635198,0.226087 -0.956916,0.326079 -1.483127,0.460773 -3.07409,0.710055 -4.627142,0.672021 C 10.475249,15.38259 9.0654148,15.162864 7.6901993,14.761081 6.8497728,14.515492 6.0321,14.184448 5.2494578,13.793082 5.0363984,13.686549 4.8264229,13.573657 4.6195891,13.455442 4.5384359,13.409062 4.4350303,13.323696 4.3349363,13.349799 Z"
     id="path5344" /></svg>
