<?xml version="1.0" encoding="UTF-8" standalone="no"?>
<svg
   width="24"
   height="24"
   viewBox="0 0 24 24"
   fill="none"
   version="1.1"
   id="svg154"
   sodipodi:docname="g-maps.svg"
   inkscape:version="1.2.2 (b0a8486541, 2022-12-01)"
   xml:space="preserve"
   inkscape:export-filename="g-hangouts.svg"
   inkscape:export-xdpi="96"
   inkscape:export-ydpi="96"
   xmlns:inkscape="http://www.inkscape.org/namespaces/inkscape"
   xmlns:sodipodi="http://sodipodi.sourceforge.net/DTD/sodipodi-0.dtd"
   xmlns:xlink="http://www.w3.org/1999/xlink"
   xmlns="http://www.w3.org/2000/svg"
   xmlns:svg="http://www.w3.org/2000/svg"
   xmlns:sketch="http://www.bohemiancoding.com/sketch/ns"><sodipodi:namedview
     id="namedview156"
     pagecolor="#ffffff"
     bordercolor="#eeeeee"
     borderopacity="0"
     inkscape:showpageshadow="0"
     inkscape:pageopacity="0"
     inkscape:pagecheckerboard="false"
     inkscape:deskcolor="#888888"
     showgrid="true"
     inkscape:zoom="32.000001"
     inkscape:cx="1.3125"
     inkscape:cy="10.296875"
     inkscape:window-width="952"
     inkscape:window-height="1044"
     inkscape:window-x="960"
     inkscape:window-y="0"
     inkscape:window-maximized="1"
     inkscape:current-layer="svg154"><inkscape:grid
       type="xygrid"
       id="grid356" /></sodipodi:namedview><defs
     id="defs152"><linearGradient
       id="linearGradient12456"
       inkscape:swatch="solid"><stop
         style="stop-color:#000000;stop-opacity:1;"
         offset="0"
         id="stop12454" /></linearGradient><linearGradient
       id="linearGradient10488"
       inkscape:swatch="solid"><stop
         style="stop-color:#000000;stop-opacity:1;"
         offset="0"
         id="stop10486" /></linearGradient><linearGradient
       id="linearGradient10413"
       inkscape:swatch="solid"><stop
         style="stop-color:#000000;stop-opacity:1;"
         offset="0"
         id="stop10411" /></linearGradient><linearGradient
       inkscape:collect="always"
       id="linearGradient5358"><stop
         style="stop-color:#e6e6e6;stop-opacity:1"
         offset="0"
         id="stop5354" /><stop
         style="stop-color:#ffffff;stop-opacity:1"
         offset="1"
         id="stop5356" /></linearGradient><style
       type="text/css"
       id="current-color-scheme">
      .ColorScheme-Text {
        color:#31363b;
      }
      .ColorScheme-Background {
        color:#eff0f1;
      }
      .ColorScheme-Highlight {
        color:#3daee9;
      }
      .ColorScheme-ViewText {
        color:#31363b;
      }
      .ColorScheme-ViewBackground {
        color:#fcfcfc;
      }
      .ColorScheme-ViewHover {
        color:#93cee9;
      }
      .ColorScheme-ViewFocus{
        color:#3daee9;
      }
      .ColorScheme-ButtonText {
        color:#31363b;
      }
      .ColorScheme-ButtonBackground {
        color:#eff0f1;
      }
      .ColorScheme-ButtonHover {
        color:#93cee9;
      }
      .ColorScheme-ButtonFocus{
        color:#3daee9;
      }
      </style><style
       type="text/css"
       id="current-color-scheme-9">
      .ColorScheme-Text {
        color:#31363b;
      }
      .ColorScheme-Background {
        color:#eff0f1;
      }
      .ColorScheme-Highlight {
        color:#3daee9;
      }
      .ColorScheme-ViewText {
        color:#31363b;
      }
      .ColorScheme-ViewBackground {
        color:#fcfcfc;
      }
      .ColorScheme-ViewHover {
        color:#93cee9;
      }
      .ColorScheme-ViewFocus{
        color:#3daee9;
      }
      .ColorScheme-ButtonText {
        color:#31363b;
      }
      .ColorScheme-ButtonBackground {
        color:#eff0f1;
      }
      .ColorScheme-ButtonHover {
        color:#93cee9;
      }
      .ColorScheme-ButtonFocus{
        color:#3daee9;
      }
      </style><style
       type="text/css"
       id="current-color-scheme-2">
      .ColorScheme-Text {
        color:#31363b;
      }
      .ColorScheme-Background {
        color:#eff0f1;
      }
      .ColorScheme-Highlight {
        color:#3daee9;
      }
      .ColorScheme-ViewText {
        color:#31363b;
      }
      .ColorScheme-ViewBackground {
        color:#fcfcfc;
      }
      .ColorScheme-ViewHover {
        color:#93cee9;
      }
      .ColorScheme-ViewFocus{
        color:#3daee9;
      }
      .ColorScheme-ButtonText {
        color:#31363b;
      }
      .ColorScheme-ButtonBackground {
        color:#eff0f1;
      }
      .ColorScheme-ButtonHover {
        color:#93cee9;
      }
      .ColorScheme-ButtonFocus{
        color:#3daee9;
      }
      </style><style
       type="text/css"
       id="current-color-scheme-3">
      .ColorScheme-Text {
        color:#31363b;
      }
      .ColorScheme-Background {
        color:#eff0f1;
      }
      .ColorScheme-Highlight {
        color:#3daee9;
      }
      .ColorScheme-ViewText {
        color:#31363b;
      }
      .ColorScheme-ViewBackground {
        color:#fcfcfc;
      }
      .ColorScheme-ViewHover {
        color:#93cee9;
      }
      .ColorScheme-ViewFocus{
        color:#3daee9;
      }
      .ColorScheme-ButtonText {
        color:#31363b;
      }
      .ColorScheme-ButtonBackground {
        color:#eff0f1;
      }
      .ColorScheme-ButtonHover {
        color:#93cee9;
      }
      .ColorScheme-ButtonFocus{
        color:#3daee9;
      }
      </style><style
       type="text/css"
       id="current-color-scheme-97">
      .ColorScheme-Text {
        color:#31363b;
      }
      .ColorScheme-Background {
        color:#eff0f1;
      }
      .ColorScheme-Highlight {
        color:#3daee9;
      }
      .ColorScheme-ViewText {
        color:#31363b;
      }
      .ColorScheme-ViewBackground {
        color:#fcfcfc;
      }
      .ColorScheme-ViewHover {
        color:#93cee9;
      }
      .ColorScheme-ViewFocus{
        color:#3daee9;
      }
      .ColorScheme-ButtonText {
        color:#31363b;
      }
      .ColorScheme-ButtonBackground {
        color:#eff0f1;
      }
      .ColorScheme-ButtonHover {
        color:#93cee9;
      }
      .ColorScheme-ButtonFocus{
        color:#3daee9;
      }
      </style><style
       type="text/css"
       id="current-color-scheme-7">
      .ColorScheme-Text {
        color:#31363b;
      }
      .ColorScheme-Background {
        color:#eff0f1;
      }
      .ColorScheme-Highlight {
        color:#3daee9;
      }
      .ColorScheme-ViewText {
        color:#31363b;
      }
      .ColorScheme-ViewBackground {
        color:#fcfcfc;
      }
      .ColorScheme-ViewHover {
        color:#93cee9;
      }
      .ColorScheme-ViewFocus{
        color:#3daee9;
      }
      .ColorScheme-ButtonText {
        color:#31363b;
      }
      .ColorScheme-ButtonBackground {
        color:#eff0f1;
      }
      .ColorScheme-ButtonHover {
        color:#93cee9;
      }
      .ColorScheme-ButtonFocus{
        color:#3daee9;
      }
      </style><style
       type="text/css"
       id="current-color-scheme-9-0">
      .ColorScheme-Text {
        color:#31363b;
      }
      .ColorScheme-Background {
        color:#eff0f1;
      }
      .ColorScheme-Highlight {
        color:#3daee9;
      }
      .ColorScheme-ViewText {
        color:#31363b;
      }
      .ColorScheme-ViewBackground {
        color:#fcfcfc;
      }
      .ColorScheme-ViewHover {
        color:#93cee9;
      }
      .ColorScheme-ViewFocus{
        color:#3daee9;
      }
      .ColorScheme-ButtonText {
        color:#31363b;
      }
      .ColorScheme-ButtonBackground {
        color:#eff0f1;
      }
      .ColorScheme-ButtonHover {
        color:#93cee9;
      }
      .ColorScheme-ButtonFocus{
        color:#3daee9;
      }
      </style><style
       type="text/css"
       id="current-color-scheme-2-9">
      .ColorScheme-Text {
        color:#31363b;
      }
      .ColorScheme-Background {
        color:#eff0f1;
      }
      .ColorScheme-Highlight {
        color:#3daee9;
      }
      .ColorScheme-ViewText {
        color:#31363b;
      }
      .ColorScheme-ViewBackground {
        color:#fcfcfc;
      }
      .ColorScheme-ViewHover {
        color:#93cee9;
      }
      .ColorScheme-ViewFocus{
        color:#3daee9;
      }
      .ColorScheme-ButtonText {
        color:#31363b;
      }
      .ColorScheme-ButtonBackground {
        color:#eff0f1;
      }
      .ColorScheme-ButtonHover {
        color:#93cee9;
      }
      .ColorScheme-ButtonFocus{
        color:#3daee9;
      }
      </style><style
       type="text/css"
       id="current-color-scheme-3-3">
      .ColorScheme-Text {
        color:#31363b;
      }
      .ColorScheme-Background {
        color:#eff0f1;
      }
      .ColorScheme-Highlight {
        color:#3daee9;
      }
      .ColorScheme-ViewText {
        color:#31363b;
      }
      .ColorScheme-ViewBackground {
        color:#fcfcfc;
      }
      .ColorScheme-ViewHover {
        color:#93cee9;
      }
      .ColorScheme-ViewFocus{
        color:#3daee9;
      }
      .ColorScheme-ButtonText {
        color:#31363b;
      }
      .ColorScheme-ButtonBackground {
        color:#eff0f1;
      }
      .ColorScheme-ButtonHover {
        color:#93cee9;
      }
      .ColorScheme-ButtonFocus{
        color:#3daee9;
      }
      </style><style
       type="text/css"
       id="current-color-scheme-97-6">
      .ColorScheme-Text {
        color:#31363b;
      }
      .ColorScheme-Background {
        color:#eff0f1;
      }
      .ColorScheme-Highlight {
        color:#3daee9;
      }
      .ColorScheme-ViewText {
        color:#31363b;
      }
      .ColorScheme-ViewBackground {
        color:#fcfcfc;
      }
      .ColorScheme-ViewHover {
        color:#93cee9;
      }
      .ColorScheme-ViewFocus{
        color:#3daee9;
      }
      .ColorScheme-ButtonText {
        color:#31363b;
      }
      .ColorScheme-ButtonBackground {
        color:#eff0f1;
      }
      .ColorScheme-ButtonHover {
        color:#93cee9;
      }
      .ColorScheme-ButtonFocus{
        color:#3daee9;
      }
      </style><linearGradient
       inkscape:collect="always"
       xlink:href="#linearGradient5358"
       id="linearGradient5360"
       x1="13.523417"
       y1="34.648232"
       x2="13.744388"
       y2="-9.8553009"
       gradientUnits="userSpaceOnUse" /><style
       type="text/css"
       id="current-color-scheme-36">
      .ColorScheme-Text {
        color:#31363b;
      }
      .ColorScheme-Background {
        color:#eff0f1;
      }
      .ColorScheme-Highlight {
        color:#3daee9;
      }
      .ColorScheme-ViewText {
        color:#31363b;
      }
      .ColorScheme-ViewBackground {
        color:#fcfcfc;
      }
      .ColorScheme-ViewHover {
        color:#93cee9;
      }
      .ColorScheme-ViewFocus{
        color:#3daee9;
      }
      .ColorScheme-ButtonText {
        color:#31363b;
      }
      .ColorScheme-ButtonBackground {
        color:#eff0f1;
      }
      .ColorScheme-ButtonHover {
        color:#93cee9;
      }
      .ColorScheme-ButtonFocus{
        color:#3daee9;
      }
      </style><style
       type="text/css"
       id="current-color-scheme-9-75">
      .ColorScheme-Text {
        color:#31363b;
      }
      .ColorScheme-Background {
        color:#eff0f1;
      }
      .ColorScheme-Highlight {
        color:#3daee9;
      }
      .ColorScheme-ViewText {
        color:#31363b;
      }
      .ColorScheme-ViewBackground {
        color:#fcfcfc;
      }
      .ColorScheme-ViewHover {
        color:#93cee9;
      }
      .ColorScheme-ViewFocus{
        color:#3daee9;
      }
      .ColorScheme-ButtonText {
        color:#31363b;
      }
      .ColorScheme-ButtonBackground {
        color:#eff0f1;
      }
      .ColorScheme-ButtonHover {
        color:#93cee9;
      }
      .ColorScheme-ButtonFocus{
        color:#3daee9;
      }
      </style><style
       type="text/css"
       id="current-color-scheme-2-3">
      .ColorScheme-Text {
        color:#31363b;
      }
      .ColorScheme-Background {
        color:#eff0f1;
      }
      .ColorScheme-Highlight {
        color:#3daee9;
      }
      .ColorScheme-ViewText {
        color:#31363b;
      }
      .ColorScheme-ViewBackground {
        color:#fcfcfc;
      }
      .ColorScheme-ViewHover {
        color:#93cee9;
      }
      .ColorScheme-ViewFocus{
        color:#3daee9;
      }
      .ColorScheme-ButtonText {
        color:#31363b;
      }
      .ColorScheme-ButtonBackground {
        color:#eff0f1;
      }
      .ColorScheme-ButtonHover {
        color:#93cee9;
      }
      .ColorScheme-ButtonFocus{
        color:#3daee9;
      }
      </style><style
       type="text/css"
       id="current-color-scheme-3-5">
      .ColorScheme-Text {
        color:#31363b;
      }
      .ColorScheme-Background {
        color:#eff0f1;
      }
      .ColorScheme-Highlight {
        color:#3daee9;
      }
      .ColorScheme-ViewText {
        color:#31363b;
      }
      .ColorScheme-ViewBackground {
        color:#fcfcfc;
      }
      .ColorScheme-ViewHover {
        color:#93cee9;
      }
      .ColorScheme-ViewFocus{
        color:#3daee9;
      }
      .ColorScheme-ButtonText {
        color:#31363b;
      }
      .ColorScheme-ButtonBackground {
        color:#eff0f1;
      }
      .ColorScheme-ButtonHover {
        color:#93cee9;
      }
      .ColorScheme-ButtonFocus{
        color:#3daee9;
      }
      </style><style
       type="text/css"
       id="current-color-scheme-97-62">
      .ColorScheme-Text {
        color:#31363b;
      }
      .ColorScheme-Background {
        color:#eff0f1;
      }
      .ColorScheme-Highlight {
        color:#3daee9;
      }
      .ColorScheme-ViewText {
        color:#31363b;
      }
      .ColorScheme-ViewBackground {
        color:#fcfcfc;
      }
      .ColorScheme-ViewHover {
        color:#93cee9;
      }
      .ColorScheme-ViewFocus{
        color:#3daee9;
      }
      .ColorScheme-ButtonText {
        color:#31363b;
      }
      .ColorScheme-ButtonBackground {
        color:#eff0f1;
      }
      .ColorScheme-ButtonHover {
        color:#93cee9;
      }
      .ColorScheme-ButtonFocus{
        color:#3daee9;
      }
      </style><style
       type="text/css"
       id="current-color-scheme-7-9">
      .ColorScheme-Text {
        color:#31363b;
      }
      .ColorScheme-Background {
        color:#eff0f1;
      }
      .ColorScheme-Highlight {
        color:#3daee9;
      }
      .ColorScheme-ViewText {
        color:#31363b;
      }
      .ColorScheme-ViewBackground {
        color:#fcfcfc;
      }
      .ColorScheme-ViewHover {
        color:#93cee9;
      }
      .ColorScheme-ViewFocus{
        color:#3daee9;
      }
      .ColorScheme-ButtonText {
        color:#31363b;
      }
      .ColorScheme-ButtonBackground {
        color:#eff0f1;
      }
      .ColorScheme-ButtonHover {
        color:#93cee9;
      }
      .ColorScheme-ButtonFocus{
        color:#3daee9;
      }
      </style><style
       type="text/css"
       id="current-color-scheme-9-0-1">
      .ColorScheme-Text {
        color:#31363b;
      }
      .ColorScheme-Background {
        color:#eff0f1;
      }
      .ColorScheme-Highlight {
        color:#3daee9;
      }
      .ColorScheme-ViewText {
        color:#31363b;
      }
      .ColorScheme-ViewBackground {
        color:#fcfcfc;
      }
      .ColorScheme-ViewHover {
        color:#93cee9;
      }
      .ColorScheme-ViewFocus{
        color:#3daee9;
      }
      .ColorScheme-ButtonText {
        color:#31363b;
      }
      .ColorScheme-ButtonBackground {
        color:#eff0f1;
      }
      .ColorScheme-ButtonHover {
        color:#93cee9;
      }
      .ColorScheme-ButtonFocus{
        color:#3daee9;
      }
      </style><style
       type="text/css"
       id="current-color-scheme-2-9-2">
      .ColorScheme-Text {
        color:#31363b;
      }
      .ColorScheme-Background {
        color:#eff0f1;
      }
      .ColorScheme-Highlight {
        color:#3daee9;
      }
      .ColorScheme-ViewText {
        color:#31363b;
      }
      .ColorScheme-ViewBackground {
        color:#fcfcfc;
      }
      .ColorScheme-ViewHover {
        color:#93cee9;
      }
      .ColorScheme-ViewFocus{
        color:#3daee9;
      }
      .ColorScheme-ButtonText {
        color:#31363b;
      }
      .ColorScheme-ButtonBackground {
        color:#eff0f1;
      }
      .ColorScheme-ButtonHover {
        color:#93cee9;
      }
      .ColorScheme-ButtonFocus{
        color:#3daee9;
      }
      </style><style
       type="text/css"
       id="current-color-scheme-3-3-7">
      .ColorScheme-Text {
        color:#31363b;
      }
      .ColorScheme-Background {
        color:#eff0f1;
      }
      .ColorScheme-Highlight {
        color:#3daee9;
      }
      .ColorScheme-ViewText {
        color:#31363b;
      }
      .ColorScheme-ViewBackground {
        color:#fcfcfc;
      }
      .ColorScheme-ViewHover {
        color:#93cee9;
      }
      .ColorScheme-ViewFocus{
        color:#3daee9;
      }
      .ColorScheme-ButtonText {
        color:#31363b;
      }
      .ColorScheme-ButtonBackground {
        color:#eff0f1;
      }
      .ColorScheme-ButtonHover {
        color:#93cee9;
      }
      .ColorScheme-ButtonFocus{
        color:#3daee9;
      }
      </style><style
       type="text/css"
       id="current-color-scheme-97-6-0">
      .ColorScheme-Text {
        color:#31363b;
      }
      .ColorScheme-Background {
        color:#eff0f1;
      }
      .ColorScheme-Highlight {
        color:#3daee9;
      }
      .ColorScheme-ViewText {
        color:#31363b;
      }
      .ColorScheme-ViewBackground {
        color:#fcfcfc;
      }
      .ColorScheme-ViewHover {
        color:#93cee9;
      }
      .ColorScheme-ViewFocus{
        color:#3daee9;
      }
      .ColorScheme-ButtonText {
        color:#31363b;
      }
      .ColorScheme-ButtonBackground {
        color:#eff0f1;
      }
      .ColorScheme-ButtonHover {
        color:#93cee9;
      }
      .ColorScheme-ButtonFocus{
        color:#3daee9;
      }
      </style><style
       type="text/css"
       id="current-color-scheme-6">
      .ColorScheme-Text {
        color:#31363b;
      }
      .ColorScheme-Background {
        color:#eff0f1;
      }
      .ColorScheme-Highlight {
        color:#3daee9;
      }
      .ColorScheme-ViewText {
        color:#31363b;
      }
      .ColorScheme-ViewBackground {
        color:#fcfcfc;
      }
      .ColorScheme-ViewHover {
        color:#93cee9;
      }
      .ColorScheme-ViewFocus{
        color:#3daee9;
      }
      .ColorScheme-ButtonText {
        color:#31363b;
      }
      .ColorScheme-ButtonBackground {
        color:#eff0f1;
      }
      .ColorScheme-ButtonHover {
        color:#93cee9;
      }
      .ColorScheme-ButtonFocus{
        color:#3daee9;
      }
      </style><style
       type="text/css"
       id="current-color-scheme-8">
      .ColorScheme-Text {
        color:#31363b;
      }
      .ColorScheme-Background {
        color:#eff0f1;
      }
      .ColorScheme-Highlight {
        color:#3daee9;
      }
      .ColorScheme-ViewText {
        color:#31363b;
      }
      .ColorScheme-ViewBackground {
        color:#fcfcfc;
      }
      .ColorScheme-ViewHover {
        color:#93cee9;
      }
      .ColorScheme-ViewFocus{
        color:#3daee9;
      }
      .ColorScheme-ButtonText {
        color:#31363b;
      }
      .ColorScheme-ButtonBackground {
        color:#eff0f1;
      }
      .ColorScheme-ButtonHover {
        color:#93cee9;
      }
      .ColorScheme-ButtonFocus{
        color:#3daee9;
      }
      </style><style
       type="text/css"
       id="current-color-scheme-9-7">
      .ColorScheme-Text {
        color:#31363b;
      }
      .ColorScheme-Background {
        color:#eff0f1;
      }
      .ColorScheme-Highlight {
        color:#3daee9;
      }
      .ColorScheme-ViewText {
        color:#31363b;
      }
      .ColorScheme-ViewBackground {
        color:#fcfcfc;
      }
      .ColorScheme-ViewHover {
        color:#93cee9;
      }
      .ColorScheme-ViewFocus{
        color:#3daee9;
      }
      .ColorScheme-ButtonText {
        color:#31363b;
      }
      .ColorScheme-ButtonBackground {
        color:#eff0f1;
      }
      .ColorScheme-ButtonHover {
        color:#93cee9;
      }
      .ColorScheme-ButtonFocus{
        color:#3daee9;
      }
      </style><style
       type="text/css"
       id="current-color-scheme-2-92">
      .ColorScheme-Text {
        color:#31363b;
      }
      .ColorScheme-Background {
        color:#eff0f1;
      }
      .ColorScheme-Highlight {
        color:#3daee9;
      }
      .ColorScheme-ViewText {
        color:#31363b;
      }
      .ColorScheme-ViewBackground {
        color:#fcfcfc;
      }
      .ColorScheme-ViewHover {
        color:#93cee9;
      }
      .ColorScheme-ViewFocus{
        color:#3daee9;
      }
      .ColorScheme-ButtonText {
        color:#31363b;
      }
      .ColorScheme-ButtonBackground {
        color:#eff0f1;
      }
      .ColorScheme-ButtonHover {
        color:#93cee9;
      }
      .ColorScheme-ButtonFocus{
        color:#3daee9;
      }
      </style><style
       type="text/css"
       id="current-color-scheme-3-0">
      .ColorScheme-Text {
        color:#31363b;
      }
      .ColorScheme-Background {
        color:#eff0f1;
      }
      .ColorScheme-Highlight {
        color:#3daee9;
      }
      .ColorScheme-ViewText {
        color:#31363b;
      }
      .ColorScheme-ViewBackground {
        color:#fcfcfc;
      }
      .ColorScheme-ViewHover {
        color:#93cee9;
      }
      .ColorScheme-ViewFocus{
        color:#3daee9;
      }
      .ColorScheme-ButtonText {
        color:#31363b;
      }
      .ColorScheme-ButtonBackground {
        color:#eff0f1;
      }
      .ColorScheme-ButtonHover {
        color:#93cee9;
      }
      .ColorScheme-ButtonFocus{
        color:#3daee9;
      }
      </style><style
       type="text/css"
       id="current-color-scheme-97-2">
      .ColorScheme-Text {
        color:#31363b;
      }
      .ColorScheme-Background {
        color:#eff0f1;
      }
      .ColorScheme-Highlight {
        color:#3daee9;
      }
      .ColorScheme-ViewText {
        color:#31363b;
      }
      .ColorScheme-ViewBackground {
        color:#fcfcfc;
      }
      .ColorScheme-ViewHover {
        color:#93cee9;
      }
      .ColorScheme-ViewFocus{
        color:#3daee9;
      }
      .ColorScheme-ButtonText {
        color:#31363b;
      }
      .ColorScheme-ButtonBackground {
        color:#eff0f1;
      }
      .ColorScheme-ButtonHover {
        color:#93cee9;
      }
      .ColorScheme-ButtonFocus{
        color:#3daee9;
      }
      </style><style
       type="text/css"
       id="current-color-scheme-4">
      .ColorScheme-Text {
        color:#31363b;
      }
      .ColorScheme-Background {
        color:#eff0f1;
      }
      .ColorScheme-Highlight {
        color:#3daee9;
      }
      .ColorScheme-ViewText {
        color:#31363b;
      }
      .ColorScheme-ViewBackground {
        color:#fcfcfc;
      }
      .ColorScheme-ViewHover {
        color:#93cee9;
      }
      .ColorScheme-ViewFocus{
        color:#3daee9;
      }
      .ColorScheme-ButtonText {
        color:#31363b;
      }
      .ColorScheme-ButtonBackground {
        color:#eff0f1;
      }
      .ColorScheme-ButtonHover {
        color:#93cee9;
      }
      .ColorScheme-ButtonFocus{
        color:#3daee9;
      }
      </style><linearGradient
       inkscape:collect="always"
       xlink:href="#linearGradient5358"
       id="linearGradient13399"
       gradientUnits="userSpaceOnUse"
       x1="13.523417"
       y1="34.648232"
       x2="13.744388"
       y2="-9.8553009" /></defs><g
     id="g2267"
     inkscape:label="Shape"
     inkscape:highlight-color="#00dcff"
     style="fill:url(#linearGradient5360);fill-opacity:1"><path
       d="M 50,5 C 9.0909092,5 5,25.454546 5,50 5,82.727274 17.272728,95 50,95 82.727274,95 95,82.727274 95,50 95,25.454546 90.909093,5 50,5 Z"
       sketch:type="MSShapeGroup"
       id="path6"
       style="font-variation-settings:normal;display:inline;opacity:1;vector-effect:none;fill:url(#linearGradient13399);fill-opacity:1;stroke-width:4.56656;stroke-linecap:butt;stroke-linejoin:miter;stroke-miterlimit:4;stroke-dasharray:none;stroke-dashoffset:0;stroke-opacity:1;-inkscape-stroke:none;stop-color:#000000;stop-opacity:1"
       transform="matrix(0.24444444,0,0,0.24444444,-0.22222222,-0.22222222)"
       sodipodi:nodetypes="sssss"
       inkscape:label="Squircle" /></g><g
     inkscape:groupmode="layer"
     id="layer3"
     inkscape:label="Guides"
     sodipodi:insensitive="true"
     style="display:none"><circle
       style="font-variation-settings:normal;display:inline;opacity:1;vector-effect:none;fill:none;fill-opacity:0.592829;stroke:#ff0000;stroke-width:0.0444444;stroke-linecap:butt;stroke-linejoin:miter;stroke-miterlimit:4;stroke-dasharray:none;stroke-dashoffset:0;stroke-opacity:1;-inkscape-stroke:none;paint-order:markers stroke fill;stop-color:#000000;stop-opacity:1"
       id="path1480"
       cx="12"
       cy="12"
       r="8"
       inkscape:label="Circle Guide" /><rect
       style="font-variation-settings:normal;display:inline;opacity:1;fill:none;fill-opacity:0.592829;stroke:#ff0000;stroke-width:0.05;stroke-linecap:butt;stroke-linejoin:miter;stroke-miterlimit:4;stroke-dasharray:none;stroke-dashoffset:0;stroke-opacity:1;paint-order:markers stroke fill;stop-color:#000000;stop-opacity:1"
       id="rect1482"
       width="14"
       height="14"
       x="5"
       y="5"
       inkscape:label="Square Guide" /></g><g
     id="g3076"
     transform="matrix(0.48540846,0,0,0.48540846,6.3247719,5.370106)"><path
       style="fill:#eba59f;stroke-width:0.0275"
       d="m 7.1325158,28.838754 c 2.5069687,-0.0039 6.6092812,-0.0039 9.1162502,0 2.506968,0.0039 0.455812,0.007 -4.558125,0.007 -5.0139378,0 -7.065094,-0.0032 -4.5581252,-0.007 z m -5.066875,-0.0846 C 1.5175935,28.555797 1.0482938,28.110822 0.83351214,27.585888 0.76604014,27.420984 0.69612521,27.14959 0.73032763,27.185348 c 0.005409,0.0057 0.0427198,0.109282 0.0829126,0.230282 0.23765627,0.715462 0.87223217,1.264733 1.60339367,1.387848 l 0.1302569,0.02193 -0.1375,0.0017 c -0.084366,0.001 -0.2172015,-0.02715 -0.34375,-0.07295 z m 18.8990072,0.04932 c 0.732662,-0.123368 1.365249,-0.670917 1.603393,-1.387848 0.08508,-0.256143 0.09867,-0.279892 0.0767,-0.134032 -0.04628,0.307109 -0.312628,0.758013 -0.610869,1.034132 -0.31124,0.288153 -0.796636,0.520039 -1.073668,0.512916 l -0.125808,-0.0032 z M 0.6928118,27.028338 c 0.00132,-0.03204 0.007836,-0.03855 0.0166146,-0.01662 0.007944,0.01985 0.006967,0.04357 -0.002171,0.05271 -0.009138,0.0091 -0.0156376,-0.0071 -0.0144436,-0.03609 z m 21.9725002,0 c 0.0013,-0.03204 0.0078,-0.03855 0.01661,-0.01662 0.0079,0.01985 0.007,0.04357 -0.0022,0.05271 -0.0091,0.0091 -0.01564,-0.0071 -0.01444,-0.03609 z M 11.791474,23.203545 c -0.01008,-0.01008 -0.01833,-0.739381 -0.01833,-1.620663 v -1.602331 l 0.350625,-0.233013 c 0.611836,-0.406604 1.090642,-0.882041 1.47227,-1.461909 0.182378,-0.277117 0.405344,-0.706477 0.506964,-0.97625 0.03703,-0.09831 0.08017,-0.194219 0.09585,-0.213125 0.0223,-0.02687 0.429304,-0.03437 1.864712,-0.03437 1.648997,0 1.837892,0.0044 1.852883,0.0435 0.0092,0.02392 0.01669,1.395074 0.01669,3.047 0,2.29939 -0.0077,3.011237 -0.033,3.036501 -0.02527,0.02527 -0.742704,0.033 -3.061667,0.033 -1.665767,0 -3.036917,-0.0083 -3.047,-0.01833 z m 6.086667,-3.061666 v -3.025 H 16.053735 14.22933 l -0.07729,0.199375 c -0.386017,0.995803 -1.089533,1.869864 -1.966006,2.442601 -0.159031,0.10392 -0.310802,0.207863 -0.337271,0.230985 -0.04477,0.0391 -0.04812,0.150157 -0.04812,1.591205 0,0.852042 0.0082,1.557417 0.01833,1.5675 0.01008,0.01008 1.377521,0.01833 3.03875,0.01833 H 17.87814 Z M 8.9924147,19.288851 C 7.7315598,19.172532 6.6412544,18.49194 5.9855441,17.411897 5.5708908,16.728906 5.3687733,15.852603 5.4465444,15.075004 c 0.1236348,-1.23617 0.7442971,-2.26229 1.7743646,-2.933498 0.9590839,-0.624953 2.2061974,-0.786658 3.302719,-0.428242 1.37511,0.449478 2.38615,1.623456 2.640246,3.065745 0.05647,0.320527 0.05507,0.939844 -0.0029,1.2815 -0.175556,1.034655 -0.784928,1.981167 -1.656559,2.573064 -0.719046,0.48828 -1.6603963,0.733841 -2.5119943,0.655278 z m 1.0801843,-0.110238 c 0.784135,-0.159405 1.395354,-0.48824 1.963445,-1.056331 0.90656,-0.90656 1.288267,-2.118107 1.068444,-3.391271 -0.130415,-0.755338 -0.502091,-1.460968 -1.069143,-2.029778 -0.962134,-0.965118 -2.2902558,-1.33517 -3.6403282,-1.014298 -0.6929788,0.1647 -1.3262441,0.53313 -1.8476741,1.074967 -0.4995617,0.519111 -0.8392379,1.16322 -0.9920496,1.881168 -0.081106,0.381058 -0.088185,1.097286 -0.01452,1.469061 0.1038392,0.524055 0.3107797,1.024915 0.608289,1.472248 0.2105873,0.316637 0.7161041,0.811193 1.0551159,1.032237 0.5348741,0.348753 1.1244458,0.557019 1.7777125,0.62798 0.2337959,0.02539 0.8138047,-0.0097 1.0907085,-0.06598 z M 8.9312839,17.859807 C 7.9718575,17.68625 7.2298633,17.022295 6.9423222,16.080035 c -0.066514,-0.217964 -0.073821,-0.284094 -0.073821,-0.668156 0,-0.384063 0.00731,-0.450192 0.073821,-0.668157 0.3175895,-1.040727 1.1920628,-1.736382 2.2595686,-1.797514 0.7146416,-0.04092 1.3390732,0.207522 1.8700002,0.74403 0.308996,0.312244 0.468483,0.563443 0.593009,0.934016 0.454304,1.35194 -0.33723,2.815897 -1.7205092,3.182118 -0.246147,0.06517 -0.789753,0.09384 -1.0131069,0.05344 z m 0.7949312,-0.05683 c 0.9306289,-0.164835 1.6488429,-0.806826 1.9275069,-1.722942 0.06517,-0.214264 0.0738,-0.289042 0.07547,-0.654406 0.0021,-0.453079 -0.03847,-0.657824 -0.201489,-1.017348 -0.675748,-1.490331 -2.6337573,-1.886785 -3.8380337,-0.777118 -0.3376808,0.311152 -0.571689,0.688783 -0.7036106,1.135454 -0.082572,0.27958 -0.1021625,0.809241 -0.041189,1.113629 0.086949,0.434064 0.2975731,0.842865 0.6043947,1.173073 0.3649442,0.392761 0.8600669,0.666536 1.356413,0.750021 0.1948262,0.03277 0.6345675,0.03258 0.8205329,-3.63e-4 z M 16.239793,6.747213 C 16.132764,6.7346081 15.936304,6.6848939 15.803216,6.636737 15.07014,6.3714791 14.539882,5.7033625 14.440533,4.919781 c -0.03407,-0.2686972 -0.03869,-6.3926075 -0.0048,-6.4264467 0.01481,-0.014807 0.06396,0.028641 0.12159,0.1074694 0.116699,0.1596323 7.855293,7.9430982 7.986382,8.032691 0.113271,0.077415 0.115504,0.1043045 0.01041,0.1253239 -0.126274,0.025255 -6.094427,0.014285 -6.314272,-0.011606 z m -1.771652,-8.2340849 c 0,-0.00756 -0.0062,-0.01375 -0.01375,-0.01375 -0.0076,0 -0.01375,0.00619 -0.01375,0.01375 0,0.00756 0.0062,0.01375 0.01375,0.01375 0.0076,0 0.01375,-0.00619 0.01375,-0.01375 z M 0.69702082,0.34187816 c 0,-0.0529375 0.005659,-0.0745938 0.0125764,-0.048125 0.006917,0.0264687 0.006917,0.0697812 0,0.09625 -0.006917,0.0264687 -0.0125764,0.004812 -0.0125764,-0.048125 z m 0.0348183,-0.24750001 c 0.0409307,-0.26164455 0.20479403,-0.60041029 0.41855898,-0.86531525 0.3429479,-0.424993 1.0033901,-0.7788748 1.3165142,-0.705422 0.094042,0.022061 0.097661,0.025558 0.028948,0.027975 -0.2320073,0.00816 -0.6660855,0.1837906 -0.9262347,0.3747577 -0.3403625,0.24984902 -0.63524472,0.66731518 -0.75704678,1.07175475 -0.0632063,0.20987434 -0.10660861,0.26161441 -0.0807397,0.0962498 z M 2.5262658,-1.5200296 c 0.034031,-0.00655 0.089719,-0.00655 0.12375,0 0.034031,0.00655 0.00619,0.011918 -0.061875,0.011918 -0.068062,0 -0.095906,-0.00536 -0.061875,-0.011918 z"
       id="path3082" /><path
       style="fill:#db4f44;stroke-width:0.0275"
       d="M 2.4166339,28.803617 C 1.8505752,28.707692 1.3082701,28.335218 1.0008032,27.831182 0.85934989,27.599293 0.72405492,27.196696 0.74101437,27.058129 c 0.0126798,-0.103601 0.0154659,-0.09833 0.0478921,0.09068 0.12740008,0.742582 0.67424103,1.339695 1.44617173,1.579124 l 0.2018126,0.06259 9.1162502,0.0082 c 6.667652,0.006 9.174987,-2.75e-4 9.334932,-0.02289 0.772773,-0.109788 1.421162,-0.654769 1.654966,-1.391021 0.03581,-0.112756 0.06616,-0.244753 0.06746,-0.293335 l 0.0024,-0.08833 0.02279,0.07576 c 0.01718,0.05712 7.48e-4,0.139067 -0.0668,0.33305 -0.231534,0.664914 -0.686438,1.107994 -1.376971,1.341183 l -0.1925,0.06501 -9.22625,0.0038 C 6.6987043,28.824 2.4882763,28.815759 2.416635,28.803617 Z M 0.69702082,26.906879 c 0,-0.05294 0.005659,-0.07459 0.0125764,-0.04812 0.006917,0.02647 0.006917,0.06978 0,0.09625 -0.006917,0.02647 -0.0125764,0.0048 -0.0125764,-0.04812 z m 21.97250018,0 c 0,-0.05294 0.0057,-0.07459 0.01258,-0.04812 0.0069,0.02647 0.0069,0.06978 0,0.09625 -0.0069,0.02647 -0.01258,0.0048 -0.01258,-0.04812 z M 11.764353,23.242504 c -0.0433,-0.0318 -0.04626,-0.156728 -0.03963,-1.669765 l 0.0072,-1.635391 0.223544,-0.13836 c 0.673402,-0.416791 1.259248,-0.990735 1.64599,-1.61255 0.178201,-0.286515 0.363188,-0.653562 0.469748,-0.932059 0.0434,-0.113438 0.0917,-0.215342 0.107317,-0.226454 0.03396,-0.02416 3.675985,-0.0284 3.738652,-0.0044 0.03931,0.01508 0.0435,0.314516 0.0435,3.108181 v 3.091488 l -0.07054,0.02682 c -0.11383,0.04328 -6.066535,0.03593 -6.125747,-0.0076 z m 6.135788,-0.05363 c 0.02526,-0.02526 0.033,-0.737111 0.033,-3.036501 0,-1.651926 -0.0075,-3.023076 -0.01669,-3.047 -0.01499,-0.03907 -0.203886,-0.0435 -1.852883,-0.0435 -1.435408,0 -1.842416,0.0075 -1.864712,0.03437 -0.01569,0.01891 -0.05882,0.114812 -0.09585,0.213125 -0.10162,0.269773 -0.324586,0.699133 -0.506964,0.97625 -0.381628,0.579868 -0.860434,1.055305 -1.47227,1.461909 l -0.350625,0.233013 v 1.602331 c 0,0.881282 0.0082,1.61058 0.01833,1.620663 0.01008,0.01008 1.381233,0.01833 3.047,0.01833 2.318963,0 3.036399,-0.0077 3.061667,-0.033 z M 0.70398829,11.025629 c 3.1055e-4,-8.3180877 0.007918,-10.79256163 0.0333102,-10.83500084 0.0180993,-0.03025 0.0538417,-0.12306251 0.0794277,-0.20625001 0.12189563,-0.39631926 0.41762591,-0.81189146 0.75289931,-1.05800475 0.2595383,-0.1905187 0.6915071,-0.3655238 0.9262347,-0.375249 l 0.078531,-0.00325 -0.0825,-0.018647 c -0.063732,-0.014405 -0.033071,-0.023049 0.1347741,-0.037996 0.3607875,-0.03213 11.8081137,-0.023583 11.8281467,0.00883 0.0096,0.0155 0.0039,0.024781 -0.01255,0.020625 -0.03874,-0.00977 -0.04039,6.0941424 -0.0017,6.3990965 0.121948,0.9618315 0.882392,1.7192674 1.836636,1.8293708 0.302834,0.034942 6.17828,0.036131 6.299815,0.00128 0.09035,-0.025912 0.112606,-0.00224 0.04817,0.051244 -0.0282,0.023408 -0.869207,0.029492 -3.265625,0.023624 l -3.227637,-0.0079 -0.20625,-0.063199 C 15.539433,6.6358534 15.221785,6.4352362 14.896273,6.104076 14.738259,5.9433192 14.735824,5.9419992 14.818421,6.0618783 c 0.115514,0.167653 0.2103,0.2685535 0.408488,0.43484 0.293778,0.2464893 0.623053,0.3695604 1.11757,0.4177074 0.147173,0.014329 1.223798,0.027929 2.3925,0.030222 1.168701,0.00229 2.520912,0.011889 3.004912,0.021325 0.484,0.00944 0.884125,0.00787 0.889166,-0.00347 0.05143,-0.1157112 0.05887,0.2979465 0.05293,2.9425001 -0.004,1.7943482 -0.0095,2.3024602 -0.01397,1.2881842 -0.0052,-1.181146 -0.01634,-1.6858298 -0.03796,-1.7118751 -0.02488,-0.029982 -0.277185,-0.036819 -1.34041,-0.036323 -1.257558,5.857e-4 -1.312498,0.00275 -1.378508,0.054388 -0.03781,0.029577 -0.08193,0.054052 -0.09803,0.054388 -0.0161,3.355e-4 -0.04994,0.043924 -0.07518,0.096862 l -0.0459,0.09625 h -0.476301 -0.4763 l -0.09289,-0.095838 c -0.05109,-0.052711 -0.09846,-0.090271 -0.10526,-0.083467 -0.0068,0.0068 -0.03859,-0.0022 -0.07063,-0.020005 -0.03204,-0.017806 -0.06814,-0.029545 -0.08022,-0.026086 -0.01208,0.00346 -0.249333,-0.2228499 -0.52723,-0.5029074 C 17.416182,8.5660664 17.2857,8.4459593 17.341891,8.5368784 c 0.0093,0.015125 -9.88e-4,0.0275 -0.02297,0.0275 -0.02198,0 -0.08149,0.039634 -0.132248,0.088076 l -0.09228,0.088076 0.0825,0.01867 c 0.04537,0.010269 0.144553,0.020134 0.220397,0.021924 l 0.137896,0.00325 0.356362,0.3571544 0.356361,0.3571543 -0.05179,0.089721 c -0.02848,0.049346 -0.1905,0.3000957 -0.360039,0.5572199 -1.13347,1.719029 -2.551884,3.269205 -4.17576,4.563663 l -0.394696,0.314629 -0.01567,0.489604 c -0.02109,0.658714 -0.114806,1.066926 -0.365985,1.594111 -0.515052,1.081011 -1.4994,1.867489 -2.689405,2.148789 -0.2749926,0.065 -0.3595637,0.07224 -0.8551722,0.07313 C 8.9121936,19.330317 8.7372012,19.3195 8.5556418,19.28112 7.8930967,19.141056 7.3135328,18.867154 6.797522,18.450236 L 6.6147331,18.30255 6.3133119,18.38375 c -0.4166981,0.112251 -1.1076307,0.259211 -1.6706846,0.355351 -1.0512112,0.179492 -1.7853322,0.245746 -2.9549686,0.266684 -0.6600044,0.01182 -0.92184619,0.02554 -0.94161332,0.04936 -0.0171291,0.02064 -0.0302041,0.541738 -0.0349204,1.39174 -0.004147,0.747311 -0.007358,-3.492252 -0.007137,-9.421252 z m 9.28165251,8.218292 c 0.1436872,-0.02279 0.3911872,-0.08443 0.5500002,-0.136985 1.184759,-0.392061 2.101094,-1.31151 2.488614,-2.49707 0.129651,-0.396648 0.183159,-0.75236 0.181918,-1.209357 -0.0017,-0.631203 -0.115369,-1.125745 -0.386065,-1.67988 -0.469392,-0.960883 -1.290364,-1.678499 -2.29648,-2.007365 -1.0965216,-0.358416 -2.3436351,-0.196711 -3.302719,0.428242 -1.0300675,0.671208 -1.6507299,1.697328 -1.7743646,2.933498 -0.1298149,1.297963 0.483123,2.668972 1.5415963,3.448217 0.8887445,0.65429 1.893286,0.895816 2.9975001,0.7207 z M 8.9056822,17.80334 C 8.4093361,17.719855 7.9142134,17.44608 7.5492692,17.053319 7.2424476,16.723111 7.0318237,16.31431 6.9448745,15.880246 c -0.060973,-0.304388 -0.041383,-0.834049 0.041189,-1.113629 0.1319216,-0.446671 0.3659298,-0.824302 0.7036106,-1.135454 0.8635943,-0.795749 2.1836848,-0.851756 3.1186529,-0.132314 0.412331,0.31728 0.70554,0.759981 0.861081,1.300096 0.05221,0.181294 0.06139,0.277527 0.05979,0.626684 -0.0017,0.365364 -0.0103,0.440142 -0.07547,0.654406 -0.278664,0.916116 -0.996878,1.558107 -1.9275071,1.722942 -0.1859654,0.03294 -0.6257067,0.03313 -0.8205329,3.63e-4 z m 0.8599585,-0.05916 c 0.5906593,-0.111306 1.1831813,-0.50897 1.5253243,-1.023701 0.127781,-0.192238 0.280196,-0.504459 0.256309,-0.525047 -0.0043,-0.0037 -0.199696,0.103374 -0.434133,0.238025 -0.551204,0.316589 -1.3964329,0.735123 -2.0212503,1.000868 -0.2722499,0.115792 -0.4994239,0.214754 -0.5048309,0.219914 -0.00541,0.0052 0.061467,0.03011 0.1486083,0.05544 0.3032522,0.08816 0.6785232,0.100728 1.0299726,0.0345 z M 22.620757,9.3531909 c 0.04571,-0.045709 0.05484,-0.4244226 0.01149,-0.4766542 -0.02361,-0.028445 -0.13652,-0.037158 -0.48152,-0.037158 h -0.450682 l -0.07418,0.15125 -0.07418,0.1512501 h -0.695907 c -0.671526,0 -0.699153,0.00213 -0.788566,0.06074 -0.08149,0.05342 -0.0892,0.068333 -0.06395,0.12375 l 0.02871,0.06301 h 1.2763 c 1.018466,0 1.283611,-0.00731 1.312488,-0.036188 z m -0.0015,-0.8300625 c 8.2e-5,-0.080103 -0.0043,-0.082854 -0.149913,-0.094699 l -0.149991,-0.012199 0.148264,-0.015301 c 0.124335,-0.012832 0.152171,-0.025938 0.17248,-0.081209 l 0.02422,-0.065908 -0.18623,0.021168 c -0.102427,0.011643 -0.588419,0.029715 -1.079981,0.04016 l -0.89375,0.018991 0.732683,0.00512 c 0.662871,0.00464 0.734401,0.0096 0.750716,0.052118 0.01173,0.030579 -0.0021,0.062194 -0.03965,0.090505 -0.03804,0.028697 -0.05144,0.059782 -0.03934,0.091303 0.0163,0.042473 0.05685,0.046938 0.364379,0.04012 l 0.34604,-0.00767 8.2e-5,-0.0825 z M 17.146219,8.3322781 c -0.01722,-0.044883 -0.14626,-0.1363843 -0.165376,-0.1172688 -0.01159,0.011592 0.145656,0.1568691 0.169795,0.1568691 0.0059,0 0.0039,-0.01782 -0.0044,-0.0396 z m 5.124474,-0.3620144 c -0.0091,-0.00914 -0.03286,-0.010115 -0.05271,-0.00217 -0.02194,0.00878 -0.01542,0.015295 0.01661,0.016614 0.02899,0.00119 0.04523,-0.00531 0.03609,-0.014444 z m 0.220573,-0.029842 c -0.02647,-0.00692 -0.06978,-0.00692 -0.09625,0 -0.02647,0.00692 -0.0048,0.012577 0.04813,0.012577 0.05294,0 0.07459,-0.00566 0.04812,-0.012577 z m 0.116875,-0.022293 c 0,-0.00756 -0.0062,-0.01375 -0.01375,-0.01375 -0.0076,0 -0.01375,0.00619 -0.01375,0.01375 0,0.00756 0.0062,0.01375 0.01375,0.01375 0.0076,0 0.01375,-0.00619 0.01375,-0.01375 z m -0.106316,-0.155603 c 0.08618,-0.02582 0.106316,-0.044736 0.106316,-0.099871 0,-0.063696 -0.0071,-0.067062 -0.112135,-0.052978 -0.11685,0.015673 -0.217865,0.084162 -0.217865,0.1477137 0,0.045414 0.08289,0.047317 0.223684,0.00513 z m 0.08548,-0.3160165 c 0.01146,-0.00708 0.02083,-0.033803 0.02081,-0.059379 -2.7e-5,-0.083968 -0.130543,-0.064735 -0.197347,0.029083 l -0.05949,0.083541 0.107592,-0.020184 c 0.05917,-0.011101 0.116967,-0.025979 0.128426,-0.033061 z m 0.01167,-0.3304639 c -0.01008,-0.010083 -0.01833,-0.00183 -0.01833,0.018333 0,0.020167 0.0083,0.028417 0.01833,0.018333 0.01008,-0.010083 0.01008,-0.026583 0,-0.036666 z m -2.644583,3.8408337 c -0.01096,-0.01773 0.09651,-0.0275 0.3025,-0.0275 0.205994,0 0.313458,0.0098 0.3025,0.0275 -0.0096,0.01548 -0.141828,0.0275 -0.3025,0.0275 -0.160672,0 -0.292935,-0.01202 -0.3025,-0.0275 z m -0.33,-0.330001 c -0.01113,-0.018 0.183588,-0.0275 0.56375,-0.0275 0.380161,0 0.574875,0.0095 0.56375,0.0275 -0.01041,0.01684 -0.228912,0.0275 -0.56375,0.0275 -0.334839,0 -0.553342,-0.01066 -0.56375,-0.0275 z m -0.524588,-0.406 C 18.936031,10.063991 18.87654,9.988271 18.873236,9.9325035 l -0.0045,-0.075625 h 0.370942 c 0.204018,0 0.370942,0.006 0.370942,0.013337 0,0.00734 -0.03742,0.074159 -0.08317,0.1484965 -0.07299,0.118624 -0.07918,0.143908 -0.05059,0.206663 l 0.03258,0.0715 h 0.712878 c 0.558086,0 0.710386,0.0075 0.701407,0.03438 -0.0088,0.02643 -0.193648,0.03437 -0.800105,0.03437 -0.619616,0 -0.785807,0.0074 -0.775435,0.03438 0.02717,0.07074 -0.03246,0.02774 -0.248411,-0.179125 z m 0.154524,0.03618 c -0.01818,-0.0219 -0.07847,-0.06562 -0.133992,-0.09716 l -0.100944,-0.05734 0.102721,0.09716 c 0.102337,0.0968 0.200179,0.139234 0.132215,0.05734 z M 18.824265,9.9351295 c -0.01216,-0.019671 -0.0075,-0.024284 0.01213,-0.012127 0.01746,0.010792 0.03175,0.025079 0.03175,0.031749 0,0.022939 -0.02428,0.012079 -0.04388,-0.019622 z m -0.286124,-0.312001 c 0,-0.00756 0.0062,-0.01375 0.01375,-0.01375 0.0076,0 0.01375,0.00619 0.01375,0.01375 0,0.00756 -0.0062,0.01375 -0.01375,0.01375 -0.0076,0 -0.01375,-0.00619 -0.01375,-0.01375 z"
       id="path3080" /><path
       style="fill:#da483b;stroke-width:0.0275"
       d="M 2.5056408,28.777432 C 1.6447043,28.6651 0.93634024,27.993401 0.78811721,27.148808 c -0.0297786,-0.169684 -0.0369787,-0.185812 -0.0466153,-0.104429 -0.006268,0.05294 -0.0221215,-0.05225 -0.0352293,-0.23375 -0.0324933,-0.449925 0.00527,-7.713914 0.0403217,-7.756149 0.0190556,-0.02296 0.29179919,-0.03708 0.94106439,-0.0487 1.1696364,-0.02094 1.9037574,-0.08719 2.9549686,-0.266684 0.5630539,-0.09614 1.2539865,-0.2431 1.6706846,-0.355351 l 0.3014212,-0.0812 0.1827889,0.147686 c 0.5160108,0.416918 1.0955747,0.69082 1.7581188,0.830886 0.1815594,0.03838 0.3565518,0.0492 0.78375,0.04843 0.4956085,-8.91e-4 0.5801796,-0.0081 0.8551722,-0.07313 1.524742,-0.360428 2.653882,-1.509697 2.994193,-3.047571 0.02758,-0.124632 0.0517,-0.398716 0.0612,-0.695329 l 0.01567,-0.489604 0.394696,-0.314629 c 1.623876,-1.294458 3.04229,-2.844634 4.17576,-4.563663 0.169539,-0.2571245 0.331557,-0.5078739 0.360039,-0.5572202 l 0.05179,-0.089721 -0.356361,-0.3571543 -0.356362,-0.3571544 -0.137896,-0.00325 c -0.07584,-0.00179 -0.175022,-0.011655 -0.220397,-0.021924 l -0.0825,-0.01867 0.09228,-0.088076 c 0.05076,-0.048442 0.110267,-0.088076 0.132248,-0.088076 0.02198,0 0.03232,-0.012375 0.02297,-0.0275 -0.05619,-0.090919 0.07429,0.029188 0.523307,0.4816961 0.277897,0.2800575 0.51515,0.506366 0.52723,0.5029074 0.01208,-0.00346 0.04818,0.00828 0.08022,0.026086 0.03204,0.017806 0.06383,0.026808 0.07063,0.020005 0.0068,-0.0068 0.05417,0.030757 0.10526,0.083467 l 0.09289,0.095838 h 0.4763 0.476301 l 0.0459,-0.09625 c 0.02524,-0.052938 0.05907,-0.096525 0.07518,-0.096862 0.0161,-3.355e-4 0.06022,-0.024811 0.09803,-0.054388 0.06601,-0.051634 0.12095,-0.053801 1.378508,-0.054388 1.150503,-5.363e-4 1.314063,0.00458 1.345168,0.042055 0.02865,0.03452 0.03789,1.6609324 0.04838,8.5181254 0.01201,7.850621 0.0041,9.252944 -0.05117,9.066708 -0.01918,-0.06461 -0.02057,-0.06344 -0.02314,0.01958 -0.0043,0.137448 -0.122426,0.479532 -0.23544,0.681618 -0.206849,0.369881 -0.62747,0.733197 -1.022377,0.883088 -0.40753,0.154682 0.140997,0.146515 -9.648674,0.143652 -4.9761252,-0.0015 -9.1155627,-0.01153 -9.1987502,-0.02238 z M 17.8901,23.25006 17.96064,23.22324 v -3.091488 c 0,-2.793665 -0.0042,-3.093097 -0.0435,-3.108181 -0.06267,-0.02405 -3.70469,-0.01981 -3.738652,0.0044 -0.01562,0.01111 -0.06391,0.113016 -0.107317,0.226454 -0.404101,1.056132 -1.139126,1.94015 -2.115738,2.544609 l -0.223544,0.13836 -0.0072,1.635391 c -0.0066,1.513037 -0.0037,1.637962 0.03963,1.669765 0.05921,0.04349 6.011917,0.05083 6.125747,0.0076 z m 2.669291,-12.293181 c 0.01096,-0.01773 -0.09651,-0.0275 -0.3025,-0.0275 -0.205995,0 -0.313458,0.0098 -0.3025,0.0275 0.0096,0.01548 0.141828,0.0275 0.3025,0.0275 0.160672,0 0.292935,-0.01202 0.3025,-0.0275 z m 0.1925,-0.330001 c 0.01112,-0.018 -0.183589,-0.0275 -0.56375,-0.0275 -0.380162,0 -0.574876,0.0095 -0.56375,0.0275 0.01041,0.01684 0.228911,0.0275 0.56375,0.0275 0.334838,0 0.553341,-0.01066 0.56375,-0.0275 z m -1.403677,-0.226875 c -0.01037,-0.02701 0.155819,-0.03438 0.775435,-0.03438 0.606457,0 0.791285,-0.0079 0.800105,-0.03437 0.009,-0.02691 -0.143321,-0.03438 -0.701407,-0.03438 h -0.712878 l -0.03258,-0.0715 c -0.02859,-0.06275 -0.0224,-0.08804 0.05059,-0.206663 0.04574,-0.074338 0.08317,-0.1411615 0.08317,-0.1484966 0,-0.00734 -0.166924,-0.013337 -0.370942,-0.013337 h -0.370942 l 0.0045,0.075625 c 0.0033,0.055767 0.06279,0.1314876 0.226567,0.2883746 0.215948,0.206868 0.275575,0.249865 0.24841,0.179125 z m -0.226102,-0.200287 -0.102721,-0.09716 0.100944,0.05734 c 0.114632,0.06512 0.185861,0.136982 0.135769,0.136982 -0.0172,0 -0.07749,-0.04372 -0.133992,-0.09716 z M 18.868141,9.9547515 c 0,-0.00667 -0.01429,-0.020957 -0.03175,-0.031749 -0.01967,-0.012157 -0.02428,-0.00754 -0.01213,0.012127 0.01959,0.031701 0.04388,0.042561 0.04388,0.019622 z m -0.3025,-0.331623 c 0,-0.00756 -0.0062,-0.01375 -0.01375,-0.01375 -0.0076,0 -0.01375,0.00619 -0.01375,0.01375 0,0.00756 0.0062,0.01375 0.01375,0.01375 0.0076,0 0.01375,-0.00619 0.01375,-0.01375 z M 9.0892488,17.775737 c -0.1838669,-0.01884 -0.5236244,-0.101038 -0.502189,-0.121496 0.00541,-0.0052 0.232581,-0.104122 0.5048309,-0.219914 0.6248174,-0.265745 1.4700463,-0.684279 2.0212503,-1.000868 0.234437,-0.134651 0.429797,-0.241762 0.434133,-0.238025 0.02389,0.02059 -0.128528,0.332809 -0.256309,0.525047 -0.482086,0.725266 -1.3521966,1.142299 -2.2017162,1.055256 z M 20.00326,9.3263683 c -0.02525,-0.055417 -0.01754,-0.07033 0.06395,-0.12375 0.08941,-0.058612 0.11704,-0.06074 0.788566,-0.06074 h 0.695907 l 0.07418,-0.1512501 0.07418,-0.15125 h 0.450682 c 0.345,0 0.457913,0.00871 0.48152,0.037158 0.04335,0.052232 0.03422,0.4309451 -0.01149,0.4766542 -0.02888,0.028877 -0.294022,0.036188 -1.312488,0.036188 h -1.2763 z m 1.905538,-0.7531874 c -0.0121,-0.031521 0.0013,-0.062606 0.03934,-0.091303 0.03753,-0.028311 0.05138,-0.059926 0.03965,-0.090505 -0.01631,-0.042517 -0.08785,-0.047483 -0.750716,-0.052118 l -0.732683,-0.00512 0.89375,-0.018991 c 0.491562,-0.010445 0.977554,-0.028517 1.079981,-0.04016 l 0.18623,-0.021168 -0.02422,0.065908 c -0.02031,0.055271 -0.04815,0.068378 -0.17248,0.081209 l -0.148264,0.015301 0.149991,0.012199 c 0.145634,0.011845 0.149988,0.014596 0.149913,0.094699 l -8.3e-5,0.0825 -0.346039,0.00767 c -0.307528,0.00682 -0.348081,0.00235 -0.36438,-0.04012 z M 17.054089,8.2997066 c -0.04717,-0.039695 -0.08014,-0.077808 -0.07325,-0.084697 0.01912,-0.019115 0.148152,0.072385 0.165376,0.1172688 0.02126,0.055413 0.006,0.05003 -0.09213,-0.032571 z m 5.163895,-0.3316137 c 0.01985,-0.00794 0.04357,-0.00697 0.05271,0.00217 0.0091,0.00914 -0.0071,0.015638 -0.03609,0.014444 -0.03204,-0.00132 -0.03855,-0.00784 -0.01661,-0.016614 z m 0.177032,-0.027671 c 0.02647,-0.00692 0.06978,-0.00692 0.09625,0 0.02647,0.00692 0.0048,0.012577 -0.04812,0.012577 -0.05294,0 -0.07459,-0.00566 -0.04813,-0.012577 z m 0.185625,-0.022293 c 0,-0.00756 0.0062,-0.01375 0.01375,-0.01375 0.0076,0 0.01375,0.00619 0.01375,0.01375 0,0.00756 -0.0062,0.01375 -0.01375,0.01375 -0.0076,0 -0.01375,-0.00619 -0.01375,-0.01375 z m -0.3025,-0.1607378 c 0,-0.063552 0.101015,-0.1320407 0.217865,-0.1477137 0.105009,-0.014085 0.112135,-0.010718 0.112135,0.052978 0,0.055135 -0.02014,0.074051 -0.106316,0.099871 -0.140792,0.042182 -0.223684,0.040279 -0.223684,-0.00513 z M 22.410774,7.416214 c 0.0668,-0.093818 0.197312,-0.1130508 0.197347,-0.029083 2.4e-5,0.057865 -0.0152,0.067292 -0.149241,0.092439 l -0.107592,0.020184 z m 0.169867,-0.2818351 c 0,-0.020167 0.0083,-0.028417 0.01833,-0.018333 0.01008,0.010083 0.01008,0.026583 0,0.036667 -0.01008,0.010083 -0.01833,0.00183 -0.01833,-0.018334 z m -0.8525,-0.1660117 c -0.461313,-0.01016 -1.801059,-0.020582 -2.977213,-0.023161 -1.176155,-0.00258 -2.258967,-0.016422 -2.40625,-0.030761 -0.494721,-0.048166 -0.823952,-0.1712049 -1.117769,-0.4177264 -0.198188,-0.1662865 -0.292974,-0.267187 -0.408488,-0.43484 -0.0826,-0.1198791 -0.08016,-0.1185591 0.07785,0.042198 0.325512,0.3311602 0.64316,0.5317774 1.029368,0.6501182 l 0.20625,0.063199 3.228355,0.0079 c 2.99072,0.00732 3.23211,0.0045 3.279375,-0.038269 0.04869,-0.044066 0.05102,-0.042124 0.05102,0.042554 0,0.085478 -0.05436,0.1726785 -0.101161,0.162278 -0.01242,-0.00276 -0.400027,-0.013332 -0.861339,-0.023492 z"
       id="path3078" /></g><path
     style="fill:#da4c41;stroke:none;stroke-width:0.0133106"
     d="m 17.233128,8.6101927 0.03993,0.053242 H 14.81059 c -0.494237,0 -0.942047,0.030015 -1.282293,-0.399319 -0.267278,-0.3372649 -0.208498,-0.7696742 -0.208498,-1.1713359 0,-0.8034166 0.04319,-1.6213672 -0.01331,-2.4225356 l 0.05324,0.039932 C 13.275669,4.6159032 13.076878,4.6569332 12.96041,4.6569332 H 11.842317 8.2883762 c -0.539281,0 -1.118717,-0.062519 -1.45857,0.4525616 -0.207258,0.3141203 -0.165327,0.6935213 -0.165327,1.0515401 v 1.9832846 7.7467895 2.076459 c 0,0.41476 -0.01485,0.820202 0.320938,1.124483 0.29995,0.271803 0.644894,0.259823 1.023436,0.259823 h 1.158025 5.6836418 1.078162 c 0.456195,0 0.885316,0.0075 1.186749,-0.399319 0.329252,-0.444309 0.197557,-1.154897 0.197557,-1.67714 v -3.966568 -3.5273189 -0.83857 c 0,-0.1202749 0.02874,-0.2544727 -0.07986,-0.3327659 m -6.508902,2.3738718 c 0.211613,-0.02045 0.435191,0.01266 0.638911,0.06977 0.215353,0.06038 0.419645,0.160207 0.598979,0.293766 1.021245,0.760543 0.993613,2.370731 -0.07986,3.074317 -0.274306,0.179787 -0.580292,0.275211 -0.905125,0.306584 -0.220171,0.02127 -0.454092,-0.0095 -0.665531,-0.07208 -0.225895,-0.06686 -0.4403832,-0.174595 -0.6256002,-0.320666 -0.9872226,-0.778632 -0.9323296,-2.327431 0.106485,-3.035743 0.2790442,-0.190263 0.5983532,-0.283756 0.9317442,-0.315955 m 0.02662,0.693631 c -0.206249,0.02267 -0.39904,0.08285 -0.572358,0.199034 -0.8211862,0.550487 -0.6064462,1.857233 0.346077,2.120118 0.133359,0.03681 0.274638,0.05319 0.412629,0.03948 0.194469,-0.01934 0.380591,-0.07732 0.545738,-0.183075 0.842536,-0.539533 0.645126,-1.865259 -0.319457,-2.135305 -0.131935,-0.03695 -0.276116,-0.05525 -0.412629,-0.04025 m 4.246093,1.990539 v 2.954961 h -2.968271 v -1.091473 c 0,-0.124095 -0.04037,-0.334283 0.01343,-0.447477 0.03135,-0.06594 0.128235,-0.104103 0.186229,-0.14277 0.118878,-0.07929 0.227173,-0.16999 0.332646,-0.266212 0.289281,-0.263884 0.525717,-0.63167 0.639031,-1.00703 z"
     id="path3072" /></svg>
