<?xml version="1.0" encoding="UTF-8" standalone="no"?>
<svg
   width="24"
   height="24"
   viewBox="0 0 24 24"
   fill="none"
   version="1.1"
   id="svg154"
   sodipodi:docname="g-maps.svg"
   inkscape:version="1.2.2 (b0a8486541, 2022-12-01)"
   xml:space="preserve"
   inkscape:export-filename="g-drawings.svg"
   inkscape:export-xdpi="96"
   inkscape:export-ydpi="96"
   xmlns:inkscape="http://www.inkscape.org/namespaces/inkscape"
   xmlns:sodipodi="http://sodipodi.sourceforge.net/DTD/sodipodi-0.dtd"
   xmlns:xlink="http://www.w3.org/1999/xlink"
   xmlns="http://www.w3.org/2000/svg"
   xmlns:svg="http://www.w3.org/2000/svg"
   xmlns:sketch="http://www.bohemiancoding.com/sketch/ns"><sodipodi:namedview
     id="namedview156"
     pagecolor="#ffffff"
     bordercolor="#eeeeee"
     borderopacity="0"
     inkscape:showpageshadow="0"
     inkscape:pageopacity="0"
     inkscape:pagecheckerboard="false"
     inkscape:deskcolor="#888888"
     showgrid="true"
     inkscape:zoom="32.000001"
     inkscape:cx="1.3125"
     inkscape:cy="10.296875"
     inkscape:window-width="952"
     inkscape:window-height="1044"
     inkscape:window-x="960"
     inkscape:window-y="0"
     inkscape:window-maximized="1"
     inkscape:current-layer="svg154"><inkscape:grid
       type="xygrid"
       id="grid356" /></sodipodi:namedview><defs
     id="defs152"><linearGradient
       id="linearGradient12456"
       inkscape:swatch="solid"><stop
         style="stop-color:#000000;stop-opacity:1;"
         offset="0"
         id="stop12454" /></linearGradient><linearGradient
       id="linearGradient10488"
       inkscape:swatch="solid"><stop
         style="stop-color:#000000;stop-opacity:1;"
         offset="0"
         id="stop10486" /></linearGradient><linearGradient
       id="linearGradient10413"
       inkscape:swatch="solid"><stop
         style="stop-color:#000000;stop-opacity:1;"
         offset="0"
         id="stop10411" /></linearGradient><linearGradient
       inkscape:collect="always"
       id="linearGradient5358"><stop
         style="stop-color:#e6e6e6;stop-opacity:1"
         offset="0"
         id="stop5354" /><stop
         style="stop-color:#ffffff;stop-opacity:1"
         offset="1"
         id="stop5356" /></linearGradient><style
       type="text/css"
       id="current-color-scheme">
      .ColorScheme-Text {
        color:#31363b;
      }
      .ColorScheme-Background {
        color:#eff0f1;
      }
      .ColorScheme-Highlight {
        color:#3daee9;
      }
      .ColorScheme-ViewText {
        color:#31363b;
      }
      .ColorScheme-ViewBackground {
        color:#fcfcfc;
      }
      .ColorScheme-ViewHover {
        color:#93cee9;
      }
      .ColorScheme-ViewFocus{
        color:#3daee9;
      }
      .ColorScheme-ButtonText {
        color:#31363b;
      }
      .ColorScheme-ButtonBackground {
        color:#eff0f1;
      }
      .ColorScheme-ButtonHover {
        color:#93cee9;
      }
      .ColorScheme-ButtonFocus{
        color:#3daee9;
      }
      </style><style
       type="text/css"
       id="current-color-scheme-9">
      .ColorScheme-Text {
        color:#31363b;
      }
      .ColorScheme-Background {
        color:#eff0f1;
      }
      .ColorScheme-Highlight {
        color:#3daee9;
      }
      .ColorScheme-ViewText {
        color:#31363b;
      }
      .ColorScheme-ViewBackground {
        color:#fcfcfc;
      }
      .ColorScheme-ViewHover {
        color:#93cee9;
      }
      .ColorScheme-ViewFocus{
        color:#3daee9;
      }
      .ColorScheme-ButtonText {
        color:#31363b;
      }
      .ColorScheme-ButtonBackground {
        color:#eff0f1;
      }
      .ColorScheme-ButtonHover {
        color:#93cee9;
      }
      .ColorScheme-ButtonFocus{
        color:#3daee9;
      }
      </style><style
       type="text/css"
       id="current-color-scheme-2">
      .ColorScheme-Text {
        color:#31363b;
      }
      .ColorScheme-Background {
        color:#eff0f1;
      }
      .ColorScheme-Highlight {
        color:#3daee9;
      }
      .ColorScheme-ViewText {
        color:#31363b;
      }
      .ColorScheme-ViewBackground {
        color:#fcfcfc;
      }
      .ColorScheme-ViewHover {
        color:#93cee9;
      }
      .ColorScheme-ViewFocus{
        color:#3daee9;
      }
      .ColorScheme-ButtonText {
        color:#31363b;
      }
      .ColorScheme-ButtonBackground {
        color:#eff0f1;
      }
      .ColorScheme-ButtonHover {
        color:#93cee9;
      }
      .ColorScheme-ButtonFocus{
        color:#3daee9;
      }
      </style><style
       type="text/css"
       id="current-color-scheme-3">
      .ColorScheme-Text {
        color:#31363b;
      }
      .ColorScheme-Background {
        color:#eff0f1;
      }
      .ColorScheme-Highlight {
        color:#3daee9;
      }
      .ColorScheme-ViewText {
        color:#31363b;
      }
      .ColorScheme-ViewBackground {
        color:#fcfcfc;
      }
      .ColorScheme-ViewHover {
        color:#93cee9;
      }
      .ColorScheme-ViewFocus{
        color:#3daee9;
      }
      .ColorScheme-ButtonText {
        color:#31363b;
      }
      .ColorScheme-ButtonBackground {
        color:#eff0f1;
      }
      .ColorScheme-ButtonHover {
        color:#93cee9;
      }
      .ColorScheme-ButtonFocus{
        color:#3daee9;
      }
      </style><style
       type="text/css"
       id="current-color-scheme-97">
      .ColorScheme-Text {
        color:#31363b;
      }
      .ColorScheme-Background {
        color:#eff0f1;
      }
      .ColorScheme-Highlight {
        color:#3daee9;
      }
      .ColorScheme-ViewText {
        color:#31363b;
      }
      .ColorScheme-ViewBackground {
        color:#fcfcfc;
      }
      .ColorScheme-ViewHover {
        color:#93cee9;
      }
      .ColorScheme-ViewFocus{
        color:#3daee9;
      }
      .ColorScheme-ButtonText {
        color:#31363b;
      }
      .ColorScheme-ButtonBackground {
        color:#eff0f1;
      }
      .ColorScheme-ButtonHover {
        color:#93cee9;
      }
      .ColorScheme-ButtonFocus{
        color:#3daee9;
      }
      </style><style
       type="text/css"
       id="current-color-scheme-7">
      .ColorScheme-Text {
        color:#31363b;
      }
      .ColorScheme-Background {
        color:#eff0f1;
      }
      .ColorScheme-Highlight {
        color:#3daee9;
      }
      .ColorScheme-ViewText {
        color:#31363b;
      }
      .ColorScheme-ViewBackground {
        color:#fcfcfc;
      }
      .ColorScheme-ViewHover {
        color:#93cee9;
      }
      .ColorScheme-ViewFocus{
        color:#3daee9;
      }
      .ColorScheme-ButtonText {
        color:#31363b;
      }
      .ColorScheme-ButtonBackground {
        color:#eff0f1;
      }
      .ColorScheme-ButtonHover {
        color:#93cee9;
      }
      .ColorScheme-ButtonFocus{
        color:#3daee9;
      }
      </style><style
       type="text/css"
       id="current-color-scheme-9-0">
      .ColorScheme-Text {
        color:#31363b;
      }
      .ColorScheme-Background {
        color:#eff0f1;
      }
      .ColorScheme-Highlight {
        color:#3daee9;
      }
      .ColorScheme-ViewText {
        color:#31363b;
      }
      .ColorScheme-ViewBackground {
        color:#fcfcfc;
      }
      .ColorScheme-ViewHover {
        color:#93cee9;
      }
      .ColorScheme-ViewFocus{
        color:#3daee9;
      }
      .ColorScheme-ButtonText {
        color:#31363b;
      }
      .ColorScheme-ButtonBackground {
        color:#eff0f1;
      }
      .ColorScheme-ButtonHover {
        color:#93cee9;
      }
      .ColorScheme-ButtonFocus{
        color:#3daee9;
      }
      </style><style
       type="text/css"
       id="current-color-scheme-2-9">
      .ColorScheme-Text {
        color:#31363b;
      }
      .ColorScheme-Background {
        color:#eff0f1;
      }
      .ColorScheme-Highlight {
        color:#3daee9;
      }
      .ColorScheme-ViewText {
        color:#31363b;
      }
      .ColorScheme-ViewBackground {
        color:#fcfcfc;
      }
      .ColorScheme-ViewHover {
        color:#93cee9;
      }
      .ColorScheme-ViewFocus{
        color:#3daee9;
      }
      .ColorScheme-ButtonText {
        color:#31363b;
      }
      .ColorScheme-ButtonBackground {
        color:#eff0f1;
      }
      .ColorScheme-ButtonHover {
        color:#93cee9;
      }
      .ColorScheme-ButtonFocus{
        color:#3daee9;
      }
      </style><style
       type="text/css"
       id="current-color-scheme-3-3">
      .ColorScheme-Text {
        color:#31363b;
      }
      .ColorScheme-Background {
        color:#eff0f1;
      }
      .ColorScheme-Highlight {
        color:#3daee9;
      }
      .ColorScheme-ViewText {
        color:#31363b;
      }
      .ColorScheme-ViewBackground {
        color:#fcfcfc;
      }
      .ColorScheme-ViewHover {
        color:#93cee9;
      }
      .ColorScheme-ViewFocus{
        color:#3daee9;
      }
      .ColorScheme-ButtonText {
        color:#31363b;
      }
      .ColorScheme-ButtonBackground {
        color:#eff0f1;
      }
      .ColorScheme-ButtonHover {
        color:#93cee9;
      }
      .ColorScheme-ButtonFocus{
        color:#3daee9;
      }
      </style><style
       type="text/css"
       id="current-color-scheme-97-6">
      .ColorScheme-Text {
        color:#31363b;
      }
      .ColorScheme-Background {
        color:#eff0f1;
      }
      .ColorScheme-Highlight {
        color:#3daee9;
      }
      .ColorScheme-ViewText {
        color:#31363b;
      }
      .ColorScheme-ViewBackground {
        color:#fcfcfc;
      }
      .ColorScheme-ViewHover {
        color:#93cee9;
      }
      .ColorScheme-ViewFocus{
        color:#3daee9;
      }
      .ColorScheme-ButtonText {
        color:#31363b;
      }
      .ColorScheme-ButtonBackground {
        color:#eff0f1;
      }
      .ColorScheme-ButtonHover {
        color:#93cee9;
      }
      .ColorScheme-ButtonFocus{
        color:#3daee9;
      }
      </style><linearGradient
       inkscape:collect="always"
       xlink:href="#linearGradient5358"
       id="linearGradient5360"
       x1="13.523417"
       y1="34.648232"
       x2="13.744388"
       y2="-9.8553009"
       gradientUnits="userSpaceOnUse" /><style
       type="text/css"
       id="current-color-scheme-36">
      .ColorScheme-Text {
        color:#31363b;
      }
      .ColorScheme-Background {
        color:#eff0f1;
      }
      .ColorScheme-Highlight {
        color:#3daee9;
      }
      .ColorScheme-ViewText {
        color:#31363b;
      }
      .ColorScheme-ViewBackground {
        color:#fcfcfc;
      }
      .ColorScheme-ViewHover {
        color:#93cee9;
      }
      .ColorScheme-ViewFocus{
        color:#3daee9;
      }
      .ColorScheme-ButtonText {
        color:#31363b;
      }
      .ColorScheme-ButtonBackground {
        color:#eff0f1;
      }
      .ColorScheme-ButtonHover {
        color:#93cee9;
      }
      .ColorScheme-ButtonFocus{
        color:#3daee9;
      }
      </style><style
       type="text/css"
       id="current-color-scheme-9-75">
      .ColorScheme-Text {
        color:#31363b;
      }
      .ColorScheme-Background {
        color:#eff0f1;
      }
      .ColorScheme-Highlight {
        color:#3daee9;
      }
      .ColorScheme-ViewText {
        color:#31363b;
      }
      .ColorScheme-ViewBackground {
        color:#fcfcfc;
      }
      .ColorScheme-ViewHover {
        color:#93cee9;
      }
      .ColorScheme-ViewFocus{
        color:#3daee9;
      }
      .ColorScheme-ButtonText {
        color:#31363b;
      }
      .ColorScheme-ButtonBackground {
        color:#eff0f1;
      }
      .ColorScheme-ButtonHover {
        color:#93cee9;
      }
      .ColorScheme-ButtonFocus{
        color:#3daee9;
      }
      </style><style
       type="text/css"
       id="current-color-scheme-2-3">
      .ColorScheme-Text {
        color:#31363b;
      }
      .ColorScheme-Background {
        color:#eff0f1;
      }
      .ColorScheme-Highlight {
        color:#3daee9;
      }
      .ColorScheme-ViewText {
        color:#31363b;
      }
      .ColorScheme-ViewBackground {
        color:#fcfcfc;
      }
      .ColorScheme-ViewHover {
        color:#93cee9;
      }
      .ColorScheme-ViewFocus{
        color:#3daee9;
      }
      .ColorScheme-ButtonText {
        color:#31363b;
      }
      .ColorScheme-ButtonBackground {
        color:#eff0f1;
      }
      .ColorScheme-ButtonHover {
        color:#93cee9;
      }
      .ColorScheme-ButtonFocus{
        color:#3daee9;
      }
      </style><style
       type="text/css"
       id="current-color-scheme-3-5">
      .ColorScheme-Text {
        color:#31363b;
      }
      .ColorScheme-Background {
        color:#eff0f1;
      }
      .ColorScheme-Highlight {
        color:#3daee9;
      }
      .ColorScheme-ViewText {
        color:#31363b;
      }
      .ColorScheme-ViewBackground {
        color:#fcfcfc;
      }
      .ColorScheme-ViewHover {
        color:#93cee9;
      }
      .ColorScheme-ViewFocus{
        color:#3daee9;
      }
      .ColorScheme-ButtonText {
        color:#31363b;
      }
      .ColorScheme-ButtonBackground {
        color:#eff0f1;
      }
      .ColorScheme-ButtonHover {
        color:#93cee9;
      }
      .ColorScheme-ButtonFocus{
        color:#3daee9;
      }
      </style><style
       type="text/css"
       id="current-color-scheme-97-62">
      .ColorScheme-Text {
        color:#31363b;
      }
      .ColorScheme-Background {
        color:#eff0f1;
      }
      .ColorScheme-Highlight {
        color:#3daee9;
      }
      .ColorScheme-ViewText {
        color:#31363b;
      }
      .ColorScheme-ViewBackground {
        color:#fcfcfc;
      }
      .ColorScheme-ViewHover {
        color:#93cee9;
      }
      .ColorScheme-ViewFocus{
        color:#3daee9;
      }
      .ColorScheme-ButtonText {
        color:#31363b;
      }
      .ColorScheme-ButtonBackground {
        color:#eff0f1;
      }
      .ColorScheme-ButtonHover {
        color:#93cee9;
      }
      .ColorScheme-ButtonFocus{
        color:#3daee9;
      }
      </style><style
       type="text/css"
       id="current-color-scheme-7-9">
      .ColorScheme-Text {
        color:#31363b;
      }
      .ColorScheme-Background {
        color:#eff0f1;
      }
      .ColorScheme-Highlight {
        color:#3daee9;
      }
      .ColorScheme-ViewText {
        color:#31363b;
      }
      .ColorScheme-ViewBackground {
        color:#fcfcfc;
      }
      .ColorScheme-ViewHover {
        color:#93cee9;
      }
      .ColorScheme-ViewFocus{
        color:#3daee9;
      }
      .ColorScheme-ButtonText {
        color:#31363b;
      }
      .ColorScheme-ButtonBackground {
        color:#eff0f1;
      }
      .ColorScheme-ButtonHover {
        color:#93cee9;
      }
      .ColorScheme-ButtonFocus{
        color:#3daee9;
      }
      </style><style
       type="text/css"
       id="current-color-scheme-9-0-1">
      .ColorScheme-Text {
        color:#31363b;
      }
      .ColorScheme-Background {
        color:#eff0f1;
      }
      .ColorScheme-Highlight {
        color:#3daee9;
      }
      .ColorScheme-ViewText {
        color:#31363b;
      }
      .ColorScheme-ViewBackground {
        color:#fcfcfc;
      }
      .ColorScheme-ViewHover {
        color:#93cee9;
      }
      .ColorScheme-ViewFocus{
        color:#3daee9;
      }
      .ColorScheme-ButtonText {
        color:#31363b;
      }
      .ColorScheme-ButtonBackground {
        color:#eff0f1;
      }
      .ColorScheme-ButtonHover {
        color:#93cee9;
      }
      .ColorScheme-ButtonFocus{
        color:#3daee9;
      }
      </style><style
       type="text/css"
       id="current-color-scheme-2-9-2">
      .ColorScheme-Text {
        color:#31363b;
      }
      .ColorScheme-Background {
        color:#eff0f1;
      }
      .ColorScheme-Highlight {
        color:#3daee9;
      }
      .ColorScheme-ViewText {
        color:#31363b;
      }
      .ColorScheme-ViewBackground {
        color:#fcfcfc;
      }
      .ColorScheme-ViewHover {
        color:#93cee9;
      }
      .ColorScheme-ViewFocus{
        color:#3daee9;
      }
      .ColorScheme-ButtonText {
        color:#31363b;
      }
      .ColorScheme-ButtonBackground {
        color:#eff0f1;
      }
      .ColorScheme-ButtonHover {
        color:#93cee9;
      }
      .ColorScheme-ButtonFocus{
        color:#3daee9;
      }
      </style><style
       type="text/css"
       id="current-color-scheme-3-3-7">
      .ColorScheme-Text {
        color:#31363b;
      }
      .ColorScheme-Background {
        color:#eff0f1;
      }
      .ColorScheme-Highlight {
        color:#3daee9;
      }
      .ColorScheme-ViewText {
        color:#31363b;
      }
      .ColorScheme-ViewBackground {
        color:#fcfcfc;
      }
      .ColorScheme-ViewHover {
        color:#93cee9;
      }
      .ColorScheme-ViewFocus{
        color:#3daee9;
      }
      .ColorScheme-ButtonText {
        color:#31363b;
      }
      .ColorScheme-ButtonBackground {
        color:#eff0f1;
      }
      .ColorScheme-ButtonHover {
        color:#93cee9;
      }
      .ColorScheme-ButtonFocus{
        color:#3daee9;
      }
      </style><style
       type="text/css"
       id="current-color-scheme-97-6-0">
      .ColorScheme-Text {
        color:#31363b;
      }
      .ColorScheme-Background {
        color:#eff0f1;
      }
      .ColorScheme-Highlight {
        color:#3daee9;
      }
      .ColorScheme-ViewText {
        color:#31363b;
      }
      .ColorScheme-ViewBackground {
        color:#fcfcfc;
      }
      .ColorScheme-ViewHover {
        color:#93cee9;
      }
      .ColorScheme-ViewFocus{
        color:#3daee9;
      }
      .ColorScheme-ButtonText {
        color:#31363b;
      }
      .ColorScheme-ButtonBackground {
        color:#eff0f1;
      }
      .ColorScheme-ButtonHover {
        color:#93cee9;
      }
      .ColorScheme-ButtonFocus{
        color:#3daee9;
      }
      </style><style
       type="text/css"
       id="current-color-scheme-6">
      .ColorScheme-Text {
        color:#31363b;
      }
      .ColorScheme-Background {
        color:#eff0f1;
      }
      .ColorScheme-Highlight {
        color:#3daee9;
      }
      .ColorScheme-ViewText {
        color:#31363b;
      }
      .ColorScheme-ViewBackground {
        color:#fcfcfc;
      }
      .ColorScheme-ViewHover {
        color:#93cee9;
      }
      .ColorScheme-ViewFocus{
        color:#3daee9;
      }
      .ColorScheme-ButtonText {
        color:#31363b;
      }
      .ColorScheme-ButtonBackground {
        color:#eff0f1;
      }
      .ColorScheme-ButtonHover {
        color:#93cee9;
      }
      .ColorScheme-ButtonFocus{
        color:#3daee9;
      }
      </style><style
       type="text/css"
       id="current-color-scheme-8">
      .ColorScheme-Text {
        color:#31363b;
      }
      .ColorScheme-Background {
        color:#eff0f1;
      }
      .ColorScheme-Highlight {
        color:#3daee9;
      }
      .ColorScheme-ViewText {
        color:#31363b;
      }
      .ColorScheme-ViewBackground {
        color:#fcfcfc;
      }
      .ColorScheme-ViewHover {
        color:#93cee9;
      }
      .ColorScheme-ViewFocus{
        color:#3daee9;
      }
      .ColorScheme-ButtonText {
        color:#31363b;
      }
      .ColorScheme-ButtonBackground {
        color:#eff0f1;
      }
      .ColorScheme-ButtonHover {
        color:#93cee9;
      }
      .ColorScheme-ButtonFocus{
        color:#3daee9;
      }
      </style><style
       type="text/css"
       id="current-color-scheme-9-7">
      .ColorScheme-Text {
        color:#31363b;
      }
      .ColorScheme-Background {
        color:#eff0f1;
      }
      .ColorScheme-Highlight {
        color:#3daee9;
      }
      .ColorScheme-ViewText {
        color:#31363b;
      }
      .ColorScheme-ViewBackground {
        color:#fcfcfc;
      }
      .ColorScheme-ViewHover {
        color:#93cee9;
      }
      .ColorScheme-ViewFocus{
        color:#3daee9;
      }
      .ColorScheme-ButtonText {
        color:#31363b;
      }
      .ColorScheme-ButtonBackground {
        color:#eff0f1;
      }
      .ColorScheme-ButtonHover {
        color:#93cee9;
      }
      .ColorScheme-ButtonFocus{
        color:#3daee9;
      }
      </style><style
       type="text/css"
       id="current-color-scheme-2-92">
      .ColorScheme-Text {
        color:#31363b;
      }
      .ColorScheme-Background {
        color:#eff0f1;
      }
      .ColorScheme-Highlight {
        color:#3daee9;
      }
      .ColorScheme-ViewText {
        color:#31363b;
      }
      .ColorScheme-ViewBackground {
        color:#fcfcfc;
      }
      .ColorScheme-ViewHover {
        color:#93cee9;
      }
      .ColorScheme-ViewFocus{
        color:#3daee9;
      }
      .ColorScheme-ButtonText {
        color:#31363b;
      }
      .ColorScheme-ButtonBackground {
        color:#eff0f1;
      }
      .ColorScheme-ButtonHover {
        color:#93cee9;
      }
      .ColorScheme-ButtonFocus{
        color:#3daee9;
      }
      </style><style
       type="text/css"
       id="current-color-scheme-3-0">
      .ColorScheme-Text {
        color:#31363b;
      }
      .ColorScheme-Background {
        color:#eff0f1;
      }
      .ColorScheme-Highlight {
        color:#3daee9;
      }
      .ColorScheme-ViewText {
        color:#31363b;
      }
      .ColorScheme-ViewBackground {
        color:#fcfcfc;
      }
      .ColorScheme-ViewHover {
        color:#93cee9;
      }
      .ColorScheme-ViewFocus{
        color:#3daee9;
      }
      .ColorScheme-ButtonText {
        color:#31363b;
      }
      .ColorScheme-ButtonBackground {
        color:#eff0f1;
      }
      .ColorScheme-ButtonHover {
        color:#93cee9;
      }
      .ColorScheme-ButtonFocus{
        color:#3daee9;
      }
      </style><style
       type="text/css"
       id="current-color-scheme-97-2">
      .ColorScheme-Text {
        color:#31363b;
      }
      .ColorScheme-Background {
        color:#eff0f1;
      }
      .ColorScheme-Highlight {
        color:#3daee9;
      }
      .ColorScheme-ViewText {
        color:#31363b;
      }
      .ColorScheme-ViewBackground {
        color:#fcfcfc;
      }
      .ColorScheme-ViewHover {
        color:#93cee9;
      }
      .ColorScheme-ViewFocus{
        color:#3daee9;
      }
      .ColorScheme-ButtonText {
        color:#31363b;
      }
      .ColorScheme-ButtonBackground {
        color:#eff0f1;
      }
      .ColorScheme-ButtonHover {
        color:#93cee9;
      }
      .ColorScheme-ButtonFocus{
        color:#3daee9;
      }
      </style><style
       type="text/css"
       id="current-color-scheme-4">
      .ColorScheme-Text {
        color:#31363b;
      }
      .ColorScheme-Background {
        color:#eff0f1;
      }
      .ColorScheme-Highlight {
        color:#3daee9;
      }
      .ColorScheme-ViewText {
        color:#31363b;
      }
      .ColorScheme-ViewBackground {
        color:#fcfcfc;
      }
      .ColorScheme-ViewHover {
        color:#93cee9;
      }
      .ColorScheme-ViewFocus{
        color:#3daee9;
      }
      .ColorScheme-ButtonText {
        color:#31363b;
      }
      .ColorScheme-ButtonBackground {
        color:#eff0f1;
      }
      .ColorScheme-ButtonHover {
        color:#93cee9;
      }
      .ColorScheme-ButtonFocus{
        color:#3daee9;
      }
      </style><linearGradient
       inkscape:collect="always"
       xlink:href="#linearGradient5358"
       id="linearGradient13399"
       gradientUnits="userSpaceOnUse"
       x1="13.523417"
       y1="34.648232"
       x2="13.744388"
       y2="-9.8553009" /></defs><g
     id="g2267"
     inkscape:label="Shape"
     inkscape:highlight-color="#00dcff"
     style="fill:url(#linearGradient5360);fill-opacity:1"><path
       d="M 50,5 C 9.0909092,5 5,25.454546 5,50 5,82.727274 17.272728,95 50,95 82.727274,95 95,82.727274 95,50 95,25.454546 90.909093,5 50,5 Z"
       sketch:type="MSShapeGroup"
       id="path6"
       style="font-variation-settings:normal;display:inline;opacity:1;vector-effect:none;fill:url(#linearGradient13399);fill-opacity:1;stroke-width:4.56656;stroke-linecap:butt;stroke-linejoin:miter;stroke-miterlimit:4;stroke-dasharray:none;stroke-dashoffset:0;stroke-opacity:1;-inkscape-stroke:none;stop-color:#000000;stop-opacity:1"
       transform="matrix(0.24444444,0,0,0.24444444,-0.22222222,-0.22222222)"
       sodipodi:nodetypes="sssss"
       inkscape:label="Squircle" /></g><g
     inkscape:groupmode="layer"
     id="layer3"
     inkscape:label="Guides"
     sodipodi:insensitive="true"
     style="display:none"><circle
       style="font-variation-settings:normal;display:inline;opacity:1;vector-effect:none;fill:none;fill-opacity:0.592829;stroke:#ff0000;stroke-width:0.0444444;stroke-linecap:butt;stroke-linejoin:miter;stroke-miterlimit:4;stroke-dasharray:none;stroke-dashoffset:0;stroke-opacity:1;-inkscape-stroke:none;paint-order:markers stroke fill;stop-color:#000000;stop-opacity:1"
       id="path1480"
       cx="12"
       cy="12"
       r="8"
       inkscape:label="Circle Guide" /><rect
       style="font-variation-settings:normal;display:inline;opacity:1;fill:none;fill-opacity:0.592829;stroke:#ff0000;stroke-width:0.05;stroke-linecap:butt;stroke-linejoin:miter;stroke-miterlimit:4;stroke-dasharray:none;stroke-dashoffset:0;stroke-opacity:1;paint-order:markers stroke fill;stop-color:#000000;stop-opacity:1"
       id="rect1482"
       width="14"
       height="14"
       x="5"
       y="5"
       inkscape:label="Square Guide" /></g><g
     id="g3262"
     transform="matrix(0.48545259,0,0,0.48545259,18.380909,6.0684176)"><path
       style="fill:#fbe29d;stroke-width:0.0183333"
       d="m -22.308567,27.333334 c 0.01765,-0.0046 0.04652,-0.0046 0.06417,0 0.01765,0.0046 0.0032,0.0084 -0.03208,0.0084 -0.03529,0 -0.04973,-0.0038 -0.03208,-0.0084 z m 18.2599997,0 c 0.017646,-0.0046 0.046521,-0.0046 0.064167,0 0.017646,0.0046 0.00321,0.0084 -0.032083,0.0084 -0.035292,0 -0.049729,-0.0038 -0.032083,-0.0084 z m -18.3868057,-0.01792 c 0.0067,-0.0067 0.01772,-0.0067 0.02445,0 0.0067,0.0067 0.0012,0.01222 -0.01222,0.01222 -0.01344,0 -0.01894,-0.0055 -0.01222,-0.01222 z m 18.5533328,0 c 0.00672,-0.0067 0.017723,-0.0067 0.024446,0 0.00672,0.0067 0.00123,0.01222 -0.012223,0.01222 -0.013444,0 -0.018944,-0.0055 -0.012223,-0.01222 z m -18.8619438,-0.05838 c -0.287773,-0.09905 -0.564119,-0.267168 -0.785748,-0.478034 -0.296414,-0.282018 -0.551648,-0.758045 -0.585609,-1.092198 -0.0085,-0.0839 -0.0078,-0.08623 0.0088,-0.0275 0.146145,0.518372 0.276841,0.767325 0.550118,1.047882 0.272017,0.279261 0.564163,0.450747 0.946894,0.55581 0.134879,0.03703 0.147817,0.04369 0.08557,0.04407 -0.04033,2.56e-4 -0.139333,-0.02227 -0.22,-0.05003 z m 19.0336465,0.01502 c 0.7366535,-0.190377 1.2995602,-0.753284 1.4899372,-1.489938 0.028406,-0.109915 0.034369,-0.120877 0.035678,-0.06557 0.00213,0.09016 -0.072563,0.311914 -0.1712609,0.508433 -0.1442265,0.287172 -0.3643768,0.545571 -0.6338346,0.743954 -0.2258062,0.166245 -0.6320692,0.342168 -0.7823989,0.338798 -0.061299,-0.0014 -0.05353,-0.0059 0.061879,-0.03568 z m 1.5271868,-1.649417 c 0,-0.01344 0.0055,-0.01894 0.012223,-0.01222 0.00672,0.0067 0.00672,0.01772 0,0.02445 -0.00672,0.0067 -0.012223,0.0012 -0.012223,-0.01222 z M -24.142231,25.475971 c 0,-0.03529 0.0038,-0.04973 0.0084,-0.03208 0.0046,0.01764 0.0046,0.04652 0,0.06417 -0.0046,0.01765 -0.0084,0.0032 -0.0084,-0.03208 z m 21.981667,0 c 0,-0.03529 0.00377,-0.04973 0.00838,-0.03208 0.00461,0.01764 0.00461,0.04652 0,0.06417 -0.00461,0.01765 -0.00838,0.0032 -0.00838,-0.03208 z m -13.385528,-6.386686 c -0.01496,-0.01802 -0.01943,-0.260379 -0.016,-0.86625 l 0.0048,-0.841231 h 2.410833 2.410833 l 0.0048,0.841231 c 0.0034,0.605871 -10e-4,0.84823 -0.016,0.86625 -0.03101,0.03736 -4.768207,0.03736 -4.799216,0 z m 4.778543,-0.850397 -0.0048,-0.83875 h -2.374167 -2.374167 l -0.0048,0.83875 -0.0048,0.83875 h 2.383703 2.383703 z m -4.957201,-2.702062 c -0.267626,-0.193524 -0.433744,-0.336726 -0.648597,-0.559125 -0.629294,-0.651395 -1.031133,-1.447156 -1.193032,-2.362563 -0.04963,-0.28063 -0.06837,-0.903576 -0.03626,-1.205062 0.108129,-1.014991 0.569471,-1.9788595 1.292614,-2.7006257 0.683198,-0.6818974 1.52145,-1.1047201 2.512705,-1.2674327 0.285813,-0.046916 1.015347,-0.046963 1.301666,-9.17e-5 0.986179,0.161465 1.835136,0.5895971 2.5127052,1.2671665 0.4904218,0.4904216 0.8725955,1.10927 1.0875409,1.7610386 0.174077,0.527845 0.2300158,0.917686 0.2170311,1.5125 -0.00981,0.449538 -0.04033,0.67672 -0.1424042,1.060153 -0.2677079,1.005617 -0.9103451,1.911856 -1.793998,2.529874 l -0.135792,0.09497 h -2.396641 -2.39664 l -0.180901,-0.130812 z m 5.156532,-0.03641 c 0.326808,-0.235856 0.544487,-0.434495 0.7911458,-0.721945 1.1799165,-1.375047 1.4112208,-3.311414 0.5883539,-4.9254149 C -9.7165531,8.8177416 -10.639099,8.0255375 -11.743984,7.65881 c -0.474702,-0.1575605 -0.885552,-0.2228391 -1.4025,-0.2228391 -1.040294,0 -1.991416,0.3349175 -2.795833,0.9844938 -0.204014,0.1647435 -0.533761,0.4960543 -0.690906,0.694183 -0.365204,0.4604501 -0.662277,1.0546263 -0.810865,1.6218093 -0.479053,1.828618 0.231956,3.744082 1.786009,4.811526 l 0.119095,0.0818 2.394933,5.87e-4 2.394932,5.87e-4 0.180901,-0.130556 z M -5.9414714,0.88181688 C -8.0035015,-1.1802318 -9.6782419,-2.8673624 -9.6631169,-2.8673624 c 0.035958,0 7.4866561,7.4507647 7.4776654,7.4777336 -0.00378,0.011344 -1.693989,-1.6665057 -3.7560199,-3.72855432 z M -24.142231,-1.0340291 c 0,-0.035292 0.0038,-0.049729 0.0084,-0.032083 0.0046,0.017646 0.0046,0.046521 0,0.064167 -0.0046,0.0176459 -0.0084,0.003208 -0.0084,-0.032084 z m 0.02689,-0.2108333 c 0.03215,-0.3163139 0.252087,-0.7441919 0.535826,-1.0424148 0.282018,-0.2964141 0.758045,-0.5516482 1.092198,-0.5856087 0.0839,-0.00853 0.08623,-0.00778 0.0275,0.00877 -0.53104,0.149716 -0.781685,0.2840254 -1.072205,0.574545 -0.290519,0.2905195 -0.424829,0.541165 -0.574545,1.0722043 -0.01656,0.05873 -0.0173,0.0564 -0.0088,-0.0275 z m 1.806774,-1.653471 c 0.01765,-0.00461 0.04652,-0.00461 0.06417,0 0.01765,0.00461 0.0032,0.00838 -0.03208,0.00838 -0.03529,0 -0.04973,-0.00377 -0.03208,-0.00838 z"
       id="path3268" /><path
       style="fill:#f9ba03;stroke-width:0.0183333"
       d="m -22.294587,27.332415 c -0.109584,-0.0097 -0.450802,-0.103407 -0.592483,-0.162644 -0.276905,-0.115775 -0.554311,-0.320487 -0.758317,-0.559603 -0.205842,-0.24127 -0.339281,-0.504695 -0.441867,-0.8723 l -0.05006,-0.179397 v -13.3375 -13.3375001 l 0.05006,-0.1793963 c 0.134787,-0.4829954 0.341391,-0.8210406 0.676574,-1.1070068 0.237245,-0.2024096 0.496435,-0.3348779 0.863169,-0.4411527 l 0.170194,-0.04932 6.325,-0.0055 6.3249997,-0.0055 3.7905279,3.79060443 3.7905272,3.79060437 -0.00469,10.4408341 -0.0047,10.440833 -0.051379,0.182682 c -0.1363267,0.484725 -0.340076,0.817755 -0.675257,1.10372 -0.2413785,0.205937 -0.4987712,0.336422 -0.8690147,0.440552 l -0.1826825,0.05138 -9.1391666,0.0015 c -5.026541,8.07e-4 -9.176188,-0.0018 -9.221436,-0.0058 z m 11.547711,-8.24313 c 0.01496,-0.01802 0.01943,-0.260379 0.016,-0.86625 l -0.0048,-0.841231 h -2.410833 -2.410833 l -0.0048,0.841231 c -0.0034,0.605871 10e-4,0.84823 0.016,0.86625 0.03101,0.03736 4.768207,0.03736 4.799216,0 z m 0.1321,-3.51662 c 0.252297,-0.176453 0.391574,-0.294877 0.640947,-0.544979 0.6690488,-0.671006 1.0789401,-1.463766 1.2473907,-2.412548 0.055384,-0.311948 0.068962,-0.954606 0.026919,-1.274167 -0.070795,-0.538108 -0.2012118,-0.973065 -0.4315157,-1.4391668 -0.446181,-0.9030046 -1.1519,-1.608567 -2.044616,-2.0441624 -0.431586,-0.2105899 -0.82616,-0.3348536 -1.32,-0.4157089 -0.286319,-0.046879 -1.015853,-0.046831 -1.301666,9.17e-5 -0.991255,0.1627125 -1.829507,0.5855353 -2.512705,1.2674326 -0.723143,0.7217663 -1.184485,1.6856348 -1.292614,2.7006258 -0.03212,0.301486 -0.01338,0.924432 0.03626,1.205062 0.213112,1.204971 0.837552,2.195627 1.841629,2.921688 l 0.180901,0.130812 h 2.39664 2.396641 l 0.135792,-0.09497 z M -2.2129515,4.6546598 c 0.016337,-0.016337 -7.470164,-7.5048445 -7.4903569,-7.4923647 -0.00816,0.00505 -0.014842,1.6793112 -0.014842,3.72059117 0,3.68697353 2.42e-4,3.71165943 0.036667,3.74808463 0.036425,0.036425 0.061111,0.036667 3.746111,0.036667 2.0401952,0 3.7152843,-0.00584 3.7224209,-0.012978 z"
       id="path3266" /><path
       style="fill:#f19800;stroke-width:0.0183333"
       d="m -9.681484,4.6309709 c -0.036425,-0.036425 -0.036667,-0.061111 -0.036667,-3.74808463 0,-2.04127997 0.00668,-3.71554597 0.014842,-3.72059117 0.020193,-0.01248 7.5066937,7.4760278 7.4903569,7.4923647 -0.00714,0.00714 -1.6822263,0.012978 -3.7224215,0.012978 -3.685,0 -3.709686,-2.42e-4 -3.7461104,-0.036667 z m 7.4983333,0.00917 c 0,-0.00504 0.00413,-0.00917 0.00917,-0.00917 0.00504,0 0.00917,0.00412 0.00917,0.00917 0,0.00504 -0.00412,0.00917 -0.00917,0.00917 -0.00504,0 -0.00917,-0.00413 -0.00917,-0.00917 z m -7.5166666,-7.5166667 c 0,-0.00504 0.00413,-0.00917 0.00917,-0.00917 0.00504,0 0.00917,0.00413 0.00917,0.00917 0,0.00504 -0.00413,0.00917 -0.00917,0.00917 -0.00504,0 -0.00917,-0.00412 -0.00917,-0.00917 z"
       id="path3264" /></g></svg>
