<?xml version="1.0" encoding="UTF-8" standalone="no"?>
<svg
   width="24"
   height="24"
   viewBox="0 0 6.349875 6.349875"
   version="1.1"
   id="svg77625"
   sodipodi:docname="skypeforlinux.svg"
   xml:space="preserve"
   inkscape:version="1.2.2 (b0a8486541, 2022-12-01)"
   xmlns:inkscape="http://www.inkscape.org/namespaces/inkscape"
   xmlns:sodipodi="http://sodipodi.sourceforge.net/DTD/sodipodi-0.dtd"
   xmlns="http://www.w3.org/2000/svg"
   xmlns:svg="http://www.w3.org/2000/svg"><defs
     id="defs77629"><linearGradient
       id="paint0_linear_18_187"
       x1="12"
       y1="1"
       x2="12"
       y2="23"
       gradientUnits="userSpaceOnUse"
       gradientTransform="matrix(0.26457812,0,0,0.26457812,-3.2084885e-6,-7.7955571e-6)"><stop
         stop-color="#33BEF0"
         id="stop77577" /><stop
         offset="1"
         stop-color="#0A85D9"
         id="stop77579" /></linearGradient></defs><sodipodi:namedview
     id="namedview77627"
     pagecolor="#ffffff"
     bordercolor="#000000"
     borderopacity="0.25"
     inkscape:showpageshadow="2"
     inkscape:pageopacity="0.0"
     inkscape:pagecheckerboard="0"
     inkscape:deskcolor="#d1d1d1"
     showgrid="false"
     inkscape:zoom="13.25"
     inkscape:cx="31.849057"
     inkscape:cy="32.037736"
     inkscape:window-width="2560"
     inkscape:window-height="1000"
     inkscape:window-x="1680"
     inkscape:window-y="0"
     inkscape:window-maximized="1"
     inkscape:current-layer="svg77625" /><path
     fill-rule="evenodd"
     clip-rule="evenodd"
     d="m 2.5389043,0.29462375 c 0.031704,3.3866e-4 0.062012,-0.003701 0.09092,-0.0121177 0.3798548,-0.0248846 0.7597096,-0.0238753 1.139538,0.003029 0.3444278,0.0268335 0.6777962,0.10155567 1.0001582,0.22416646 0.5359294,0.22064228 0.9026612,0.60334399 1.1001687,1.14809979 0.112922,0.3279789 0.1796221,0.6652473 0.2000211,1.0117837 0.02823,0.4351781 0.018124,0.8693508 -0.030321,1.3025975 C 6.003142,4.2766859 5.9243242,4.5695209 5.8029887,4.8506616 5.5779385,5.3381468 5.2132441,5.6743991 4.7089053,5.8594186 4.3002114,5.9975284 3.8799291,6.070208 3.4481111,6.0775368 2.9623722,6.102804 2.481512,6.0664245 2.0054936,5.9684777 1.1293194,5.7732984 0.58883921,5.2391417 0.3840531,4.365981 0.29714712,3.9729237 0.25774853,3.5750776 0.26585282,3.1724426 0.25615498,2.7443023 0.30161585,2.3222155 0.40223755,1.9062035 0.61691624,1.0898106 1.1351692,0.58391876 1.9569991,0.38853047 2.1485008,0.34171337 2.3424762,0.31041113 2.5389043,0.29462375 Z"
     fill="url(#paint0_linear_18_187)"
     id="path77569"
     style="fill:url(#paint0_linear_18_187);stroke-width:0.264578" /><g
     id="g77769"
     transform="matrix(0.46872224,0,0,0.46872224,-4.10677,-0.52066698)"><path
       d="m 13.598729,3.6509233 a 2.295,2.295 0 0 0 -2.297,2.296 c 0,0.392 0.1,0.771 0.273,1.094 a 4.05,4.05 0 0 0 4.804,4.8029997 c 0.325,0.176 0.699,0.274 1.093,0.274 a 2.295,2.295 0 0 0 2.297,-2.2969997 c 0,-0.394 -0.1,-0.77 -0.274,-1.095 a 4.05,4.05 0 0 0 -4.804,-4.802 2.333,2.333 0 0 0 -1.094,-0.273"
       fill="#ffffff"
       id="path77621" /><path
       d="m 15.611729,5.4659233 c 1.194,0 1.81,0.63 1.81,1 0,0.371 -0.178,0.427 -0.47,0.427 -0.57,0 -0.337,-0.686 -1.403,-0.686 -0.353,0 -0.794,0.161 -0.794,0.574 0,0.331 0.39,0.453 1.08,0.623 1.038,0.278 1.817,0.556 1.817,1.51 0,0.925 -0.754,1.3899997 -1.947,1.3899997 -1.194,0 -1.956,-0.7139997 -1.956,-1.0839997 0,-0.37 0.14,-0.463 0.433,-0.463 0.57,0 0.494,0.778 1.56,0.778 0.354,0 0.877,-0.161 0.877,-0.575 0,-0.33 -0.028,-0.444 -0.785,-0.648 -0.808,-0.11 -2.113,-0.373 -2.113,-1.381 0,-0.926 0.7,-1.465 1.893,-1.465"
       fill="#2d9cf2"
       id="path77623" /></g></svg>
