<?xml version="1.0" encoding="UTF-8" standalone="no"?>
<svg
   width="24"
   height="24"
   viewBox="0 0 24 24"
   fill="none"
   version="1.1"
   id="svg154"
   sodipodi:docname="app.svg"
   inkscape:version="1.2.2 (b0a8486541, 2022-12-01)"
   xml:space="preserve"
   inkscape:export-filename="../../../../ícones big/apple-tv.svg"
   inkscape:export-xdpi="96"
   inkscape:export-ydpi="96"
   xmlns:inkscape="http://www.inkscape.org/namespaces/inkscape"
   xmlns:sodipodi="http://sodipodi.sourceforge.net/DTD/sodipodi-0.dtd"
   xmlns:xlink="http://www.w3.org/1999/xlink"
   xmlns="http://www.w3.org/2000/svg"
   xmlns:svg="http://www.w3.org/2000/svg"
   xmlns:sketch="http://www.bohemiancoding.com/sketch/ns"><sodipodi:namedview
     id="namedview156"
     pagecolor="#ffffff"
     bordercolor="#000000"
     borderopacity="1"
     inkscape:showpageshadow="0"
     inkscape:pageopacity="1"
     inkscape:pagecheckerboard="false"
     inkscape:deskcolor="#ffffff"
     showgrid="true"
     inkscape:zoom="32"
     inkscape:cx="9.609375"
     inkscape:cy="15.453125"
     inkscape:window-width="1920"
     inkscape:window-height="1052"
     inkscape:window-x="0"
     inkscape:window-y="0"
     inkscape:window-maximized="1"
     inkscape:current-layer="svg154"
     showguides="true"
     guidecolor="#ff0000"
     guideopacity="1"
     inkscape:lockguides="true"
     showborder="true"
     borderlayer="true"><inkscape:grid
       type="xygrid"
       id="grid356"
       color="#000000"
       opacity="0.10196078"
       empcolor="#000000"
       empopacity="0.10196078"
       snapvisiblegridlinesonly="true"
       enabled="true"
       visible="true"
       dotted="false" /><sodipodi:guide
       position="4,12"
       orientation="-1,0"
       id="guide764"
       inkscape:locked="true"
       inkscape:label="left-circle"
       inkscape:color="rgb(255,0,0)" /><sodipodi:guide
       position="5,12"
       orientation="-1,0"
       id="guide2218"
       inkscape:locked="true"
       inkscape:label="left-square"
       inkscape:color="rgb(255,0,0)" /><sodipodi:guide
       position="12,20"
       orientation="0,1"
       id="guide2220"
       inkscape:locked="true"
       inkscape:label="top-circle"
       inkscape:color="rgb(255,0,0)" /><sodipodi:guide
       position="12,5"
       orientation="0,1"
       id="guide2222"
       inkscape:locked="true"
       inkscape:label="bottom-square"
       inkscape:color="rgb(255,0,0)" /><sodipodi:guide
       position="12,4"
       orientation="0,1"
       id="guide2224"
       inkscape:locked="true"
       inkscape:label="bottom-circle"
       inkscape:color="rgb(255,0,0)" /><sodipodi:guide
       position="19,12"
       orientation="-1,0"
       id="guide2226"
       inkscape:locked="true"
       inkscape:label="right-square"
       inkscape:color="rgb(255,0,0)" /><sodipodi:guide
       position="20,12"
       orientation="-1,0"
       id="guide2228"
       inkscape:locked="true"
       inkscape:label="right-circle"
       inkscape:color="rgb(255,0,0)" /><sodipodi:guide
       position="12,19"
       orientation="0,1"
       id="guide2230"
       inkscape:locked="true"
       inkscape:label="top-square"
       inkscape:color="rgb(255,0,0)" /><sodipodi:guide
       position="12,12"
       orientation="1,0"
       id="guide765"
       inkscape:locked="true" /><sodipodi:guide
       position="12,12"
       orientation="0,-1"
       id="guide767"
       inkscape:locked="true" /><sodipodi:guide
       position="12,12"
       orientation="0.70710678,0.70710678"
       id="guide2266"
       inkscape:locked="true"
       inkscape:label=""
       inkscape:color="rgb(255,0,0)" /><sodipodi:guide
       position="12,12"
       orientation="-0.70710678,0.70710678"
       id="guide2994"
       inkscape:locked="true"
       inkscape:label=""
       inkscape:color="rgb(255,0,0)" /><sodipodi:guide
       position="3,12"
       orientation="-1,0"
       id="guide131543"
       inkscape:locked="true"
       inkscape:label="left-horizontal"
       inkscape:color="rgb(255,0,0)" /><sodipodi:guide
       position="12,21"
       orientation="0,1"
       id="guide131545"
       inkscape:locked="true"
       inkscape:label="top-vertical"
       inkscape:color="rgb(255,0,0)" /><sodipodi:guide
       position="21,12"
       orientation="-1,0"
       id="guide131547"
       inkscape:locked="true"
       inkscape:label="right-horizontal"
       inkscape:color="rgb(255,0,0)" /><sodipodi:guide
       position="12,3"
       orientation="0,1"
       id="guide131549"
       inkscape:locked="true"
       inkscape:label="bottom-vertical"
       inkscape:color="rgb(255,0,0)" /></sodipodi:namedview><defs
     id="defs152"><linearGradient
       id="linearGradient17063"
       inkscape:swatch="solid"><stop
         style="stop-color:#ffffff;stop-opacity:1;"
         offset="0"
         id="stop17061" /></linearGradient><linearGradient
       inkscape:collect="always"
       id="linearGradient8767"><stop
         style="stop-color:#fa1660;stop-opacity:1"
         offset="0"
         id="stop8763" /><stop
         style="stop-color:#fd5633;stop-opacity:1"
         offset="0.49915183"
         id="stop11194" /><stop
         style="stop-color:#ffcc00;stop-opacity:1"
         offset="1"
         id="stop8765" /></linearGradient><linearGradient
       id="linearGradient1249"
       inkscape:swatch="solid"><stop
         style="stop-color:#000000;stop-opacity:1;"
         offset="0"
         id="stop1247" /></linearGradient><linearGradient
       inkscape:collect="always"
       id="linearGradient442"><stop
         style="stop-color:#0b0b28;stop-opacity:1"
         offset="0"
         id="stop438" /><stop
         style="stop-color:#6f6f91;stop-opacity:1"
         offset="1"
         id="stop440" /></linearGradient><linearGradient
       inkscape:collect="always"
       xlink:href="#linearGradient442"
       id="linearGradient444"
       x1="50.989124"
       y1="93.4758"
       x2="50.265949"
       y2="-13.192868"
       gradientUnits="userSpaceOnUse"
       gradientTransform="matrix(0.24444444,0,0,0.24444444,-0.22222222,-0.22222222)" /><linearGradient
       inkscape:collect="always"
       xlink:href="#linearGradient8767"
       id="linearGradient8769"
       x1="-18.5"
       y1="0.25"
       x2="4.7968884"
       y2="-5.4519029"
       gradientUnits="userSpaceOnUse"
       gradientTransform="matrix(0.78605503,0,0,0.78605503,16.665569,14.541756)" /><linearGradient
       inkscape:collect="always"
       xlink:href="#linearGradient17063"
       id="linearGradient17065"
       x1="3.3549902"
       y1="12"
       x2="20.64501"
       y2="12"
       gradientUnits="userSpaceOnUse" /></defs><path
     d="M 12,0.99999998 C 2,0.99999998 0.99999998,6 0.99999998,12 0.99999998,20 4.0000001,23 12,23 20,23 23,20 23,12 23,6 22,0.99999998 12,0.99999998 Z"
     sketch:type="MSShapeGroup"
     id="path6"
     style="font-variation-settings:normal;display:inline;opacity:1;vector-effect:none;fill:url(#linearGradient444);fill-opacity:1;stroke-width:1.11627;stroke-linecap:butt;stroke-linejoin:miter;stroke-miterlimit:4;stroke-dasharray:none;stroke-dashoffset:0;stroke-opacity:1;-inkscape-stroke:none;stop-color:#000000;stop-opacity:1"
     sodipodi:nodetypes="sssss"
     inkscape:label="Shape"
     sodipodi:insensitive="true" /><path
     style="fill:url(#linearGradient8769);fill-opacity:1;stroke:url(#linearGradient17065);stroke-width:0.114;stroke-dasharray:none"
     d="m 9.5394895,14.430767 c 0,-0.0055 0.037117,-0.125793 0.082478,-0.267281 l 0.082479,-0.257249 0.1126472,-0.136961 c 0.3476733,-0.422713 0.8293203,-0.908962 1.3091753,-1.321682 0.18384,-0.158118 0.534416,-0.440584 0.646836,-0.521168 0.03587,-0.0257 0.05865,-0.04892 0.05065,-0.05159 -0.02433,-0.0081 -0.341987,0.07609 -0.531686,0.140931 -0.32891,0.112423 -0.706117,0.283323 -1.00951,0.457376 -0.109249,0.06267 -0.162073,0.08598 -0.177953,0.07849 -0.01242,-0.0059 -0.3660132,-0.262939 -0.7857611,-0.571313 l -0.7631777,-0.560678 0.9811625,-0.0068 0.9811633,-0.0068 0.205262,-0.62823 c 0.112894,-0.345527 0.249571,-0.763678 0.303724,-0.9292246 0.05415,-0.1655481 0.102307,-0.2932206 0.107006,-0.2837171 0.0047,0.0095 0.14183,0.4290101 0.304738,0.9322357 l 0.296195,0.914958 0.98037,0.0038 0.98037,0.0038 -0.787848,0.573703 c -0.433316,0.315537 -0.787848,0.579765 -0.787848,0.587172 0,0.0074 0.13408,0.426287 0.297955,0.930843 0.163875,0.504557 0.295846,0.919486 0.293265,0.922065 -0.0026,0.0026 -0.359577,-0.253184 -0.79333,-0.568365 -0.43375,-0.315179 -0.794856,-0.569212 -0.802456,-0.564515 -0.0076,0.0047 -0.357687,0.258584 -0.777973,0.564193 -0.825935,0.600531 -0.7979357,0.580668 -0.7979357,0.565982 z M 4.5812021,14.133458 C 4.4321252,14.112111 4.3431289,14.09357 4.2501991,14.064504 3.8361234,13.934993 3.5241036,13.630052 3.3836528,13.217616 c -0.017505,-0.05141 -0.030326,-0.09481 -0.028487,-0.09644 0.00582,-0.0052 0.7584582,-0.221438 0.7598731,-0.218349 0.1097931,0.239704 0.2000895,0.348659 0.3493677,0.42156 0.2769664,0.13526 0.5818356,0.06356 0.6981803,-0.164208 0.027763,-0.05435 0.033305,-0.08444 0.033172,-0.180089 C 5.1955694,12.845824 5.172523,12.790844 5.0788198,12.701119 4.9932129,12.619145 4.9093645,12.570099 4.5324699,12.381536 4.3459366,12.288212 4.1453205,12.183505 4.0866556,12.148853 3.8599416,12.01494 3.6974727,11.852079 3.6059539,11.66699 c -0.066178,-0.133837 -0.09127,-0.233885 -0.1010647,-0.402956 -0.027795,-0.4798 0.2559097,-0.891246 0.7318267,-1.061345 0.3753704,-0.134162 0.8258113,-0.110712 1.17537,0.06119 0.1665422,0.0819 0.2801602,0.173274 0.3934001,0.316378 0.08684,0.109742 0.2148712,0.345016 0.1970012,0.362013 -0.013315,0.01266 -0.7204163,0.325337 -0.7232116,0.319796 -0.1013547,-0.200898 -0.1859712,-0.300772 -0.3038763,-0.358674 -0.069817,-0.03429 -0.090051,-0.03767 -0.2253195,-0.03767 -0.127502,0 -0.1565484,0.0042 -0.204471,0.02988 -0.1155855,0.06182 -0.1780831,0.150002 -0.190315,0.268521 -0.010321,0.10003 0.015988,0.182671 0.082053,0.257727 0.079769,0.09062 0.1509485,0.13142 0.5568658,0.319186 0.4905086,0.226895 0.5989268,0.292772 0.7637711,0.464083 0.2121665,0.220489 0.298561,0.444891 0.2983622,0.774972 -1.21e-4,0.200858 -0.028589,0.327398 -0.1111891,0.494243 -0.1091319,0.220437 -0.2892352,0.393674 -0.533071,0.512749 -0.1591621,0.07773 -0.2960795,0.117914 -0.4792625,0.140673 -0.1086054,0.0135 -0.278049,0.01624 -0.3516221,0.0058 z m 2.566961,-1.626233 V 10.940028 H 6.7225874 6.2970125 V 10.554983 10.16994 h 1.2834809 1.28348 v 0.385043 0.385045 H 8.4383986 8.0128236 v 1.567197 1.567198 H 7.5804934 7.1481631 Z M 13.957365,12.122181 V 10.16994 l 0.780221,7.9e-5 c 0.827426,8.6e-5 0.915183,0.0053 1.137335,0.06774 0.434008,0.121959 0.724422,0.428733 0.803725,0.849 0.03044,0.161349 0.02794,0.412564 -0.0055,0.552105 -0.09918,0.413709 -0.422218,0.738488 -0.838309,0.842837 -0.06289,0.01577 -0.11597,0.03009 -0.117944,0.03182 -0.002,0.0017 0.2463,0.352116 0.551716,0.778645 l 0.555305,0.775507 -0.483509,0.0035 c -0.375685,0.0027 -0.487089,-2.54e-4 -0.499559,-0.01351 -0.0088,-0.0094 -0.246229,-0.360561 -0.527559,-0.780395 l -0.511509,-0.763333 -0.0034,0.780222 -0.0034,0.780221 h -0.418784 -0.418709 z m 1.624249,-0.301101 c 0.176689,-0.08704 0.257869,-0.22742 0.259496,-0.448722 7.87e-4,-0.110984 -0.0038,-0.138412 -0.03395,-0.202736 -0.04085,-0.08707 -0.101396,-0.151738 -0.179451,-0.191646 -0.110371,-0.05643 -0.175208,-0.06463 -0.511831,-0.06481 l -0.32087,-1.61e-4 v 0.480444 0.480447 l 0.348236,-0.0042 0.348237,-0.0042 z m 2.966021,1.378549 -0.0035,-0.604587 -0.624852,-0.0035 -0.624853,-0.0035 v -0.398418 -0.39842 h 0.62823 0.62823 V 11.18324 10.575275 h 0.41882 0.418819 v 0.607965 0.607964 h 0.628251 0.62823 v 0.398555 0.398554 h -0.62823 -0.62823 v 0.607964 0.607965 h -0.418698 -0.41868 z"
     id="path8390" /></svg>
