<?xml version="1.0" encoding="UTF-8" standalone="no"?>
<svg
   width="24"
   height="24"
   viewBox="0 0 24 24"
   fill="none"
   version="1.1"
   id="svg154"
   sodipodi:docname="app.svg"
   inkscape:version="1.2.2 (b0a8486541, 2022-12-01)"
   xml:space="preserve"
   inkscape:export-filename="../../../../ícones big/dictation.svg"
   inkscape:export-xdpi="96"
   inkscape:export-ydpi="96"
   xmlns:inkscape="http://www.inkscape.org/namespaces/inkscape"
   xmlns:sodipodi="http://sodipodi.sourceforge.net/DTD/sodipodi-0.dtd"
   xmlns:xlink="http://www.w3.org/1999/xlink"
   xmlns="http://www.w3.org/2000/svg"
   xmlns:svg="http://www.w3.org/2000/svg"
   xmlns:sketch="http://www.bohemiancoding.com/sketch/ns"><sodipodi:namedview
     id="namedview156"
     pagecolor="#ffffff"
     bordercolor="#000000"
     borderopacity="1"
     inkscape:showpageshadow="0"
     inkscape:pageopacity="1"
     inkscape:pagecheckerboard="false"
     inkscape:deskcolor="#ffffff"
     showgrid="true"
     inkscape:zoom="32"
     inkscape:cx="9.609375"
     inkscape:cy="15.453125"
     inkscape:window-width="1920"
     inkscape:window-height="1052"
     inkscape:window-x="0"
     inkscape:window-y="0"
     inkscape:window-maximized="1"
     inkscape:current-layer="svg154"
     showguides="true"
     guidecolor="#ff0000"
     guideopacity="1"
     inkscape:lockguides="true"
     showborder="true"
     borderlayer="true"><inkscape:grid
       type="xygrid"
       id="grid356"
       color="#000000"
       opacity="0.10196078"
       empcolor="#000000"
       empopacity="0.10196078"
       snapvisiblegridlinesonly="true"
       enabled="true"
       visible="true"
       dotted="false" /><sodipodi:guide
       position="4,12"
       orientation="-1,0"
       id="guide764"
       inkscape:locked="true"
       inkscape:label="left-circle"
       inkscape:color="rgb(255,0,0)" /><sodipodi:guide
       position="5,12"
       orientation="-1,0"
       id="guide2218"
       inkscape:locked="true"
       inkscape:label="left-square"
       inkscape:color="rgb(255,0,0)" /><sodipodi:guide
       position="12,20"
       orientation="0,1"
       id="guide2220"
       inkscape:locked="true"
       inkscape:label="top-circle"
       inkscape:color="rgb(255,0,0)" /><sodipodi:guide
       position="12,5"
       orientation="0,1"
       id="guide2222"
       inkscape:locked="true"
       inkscape:label="bottom-square"
       inkscape:color="rgb(255,0,0)" /><sodipodi:guide
       position="12,4"
       orientation="0,1"
       id="guide2224"
       inkscape:locked="true"
       inkscape:label="bottom-circle"
       inkscape:color="rgb(255,0,0)" /><sodipodi:guide
       position="19,12"
       orientation="-1,0"
       id="guide2226"
       inkscape:locked="true"
       inkscape:label="right-square"
       inkscape:color="rgb(255,0,0)" /><sodipodi:guide
       position="20,12"
       orientation="-1,0"
       id="guide2228"
       inkscape:locked="true"
       inkscape:label="right-circle"
       inkscape:color="rgb(255,0,0)" /><sodipodi:guide
       position="12,19"
       orientation="0,1"
       id="guide2230"
       inkscape:locked="true"
       inkscape:label="top-square"
       inkscape:color="rgb(255,0,0)" /><sodipodi:guide
       position="12,12"
       orientation="1,0"
       id="guide765"
       inkscape:locked="true" /><sodipodi:guide
       position="12,12"
       orientation="0,-1"
       id="guide767"
       inkscape:locked="true" /><sodipodi:guide
       position="12,12"
       orientation="0.70710678,0.70710678"
       id="guide2266"
       inkscape:locked="true"
       inkscape:label=""
       inkscape:color="rgb(255,0,0)" /><sodipodi:guide
       position="12,12"
       orientation="-0.70710678,0.70710678"
       id="guide2994"
       inkscape:locked="true"
       inkscape:label=""
       inkscape:color="rgb(255,0,0)" /><sodipodi:guide
       position="3,12"
       orientation="-1,0"
       id="guide131543"
       inkscape:locked="true"
       inkscape:label="left-horizontal"
       inkscape:color="rgb(255,0,0)" /><sodipodi:guide
       position="12,21"
       orientation="0,1"
       id="guide131545"
       inkscape:locked="true"
       inkscape:label="top-vertical"
       inkscape:color="rgb(255,0,0)" /><sodipodi:guide
       position="21,12"
       orientation="-1,0"
       id="guide131547"
       inkscape:locked="true"
       inkscape:label="right-horizontal"
       inkscape:color="rgb(255,0,0)" /><sodipodi:guide
       position="12,3"
       orientation="0,1"
       id="guide131549"
       inkscape:locked="true"
       inkscape:label="bottom-vertical"
       inkscape:color="rgb(255,0,0)" /></sodipodi:namedview><defs
     id="defs152"><linearGradient
       inkscape:collect="always"
       id="linearGradient7843"><stop
         style="stop-color:#1b1f3b;stop-opacity:1"
         offset="0"
         id="stop7839" /><stop
         style="stop-color:#5f5fd3;stop-opacity:1"
         offset="1"
         id="stop7841" /></linearGradient><linearGradient
       id="linearGradient1257"
       inkscape:swatch="solid"><stop
         style="stop-color:#000000;stop-opacity:1;"
         offset="0"
         id="stop1255" /></linearGradient><linearGradient
       inkscape:collect="always"
       xlink:href="#linearGradient7843"
       id="linearGradient9234"
       x1="53.196022"
       y1="93.338074"
       x2="51.789772"
       y2="-24.147728"
       gradientUnits="userSpaceOnUse"
       gradientTransform="matrix(0.24444444,0,0,0.24444444,-0.22222222,-0.22222222)" /></defs><path
     d="M 12,0.99999998 C 2,0.99999998 0.99999998,6 0.99999998,12 0.99999998,20 4.0000001,23 12,23 20,23 23,20 23,12 23,6 22,0.99999998 12,0.99999998 Z"
     sketch:type="MSShapeGroup"
     id="path6"
     style="font-variation-settings:normal;display:inline;opacity:1;vector-effect:none;fill:url(#linearGradient9234);fill-opacity:1;stroke-width:1.11627;stroke-linecap:butt;stroke-linejoin:miter;stroke-miterlimit:4;stroke-dasharray:none;stroke-dashoffset:0;stroke-opacity:1;-inkscape-stroke:none;stop-color:#000000;stop-opacity:1"
     sodipodi:nodetypes="sssss"
     inkscape:label="Shape"
     sodipodi:insensitive="true"
     inkscape:export-filename="../../../../ícones big/path6.svg"
     inkscape:export-xdpi="96"
     inkscape:export-ydpi="96" /><path
     style="fill:#37c8ab;stroke:none;stroke-width:0.0142448"
     d="M 13.880237,9.9418558 H 6.5299253 4.4644303 3.8946393 c -0.09712,0 -0.20887,-0.0156 -0.29913,0.02735 -0.140473,0.06684 -0.142459,0.2081882 -0.142459,0.3430152 v 0.897422 3.376015 0.797709 c 0,0.122761 -0.0028,0.25303 0.114178,0.327701 0.157305,0.100469 0.460289,0.04266 0.640796,0.04266 h 1.609661 6.0255467 1.737865 c 0.19306,0 0.530077,0.06444 0.697781,-0.04266 0.150553,-0.09615 0.114172,-0.303357 0.114172,-0.455904 v -1.210808 h 4.330417 1.182317 c 0.152135,0 0.375636,0.04115 0.512813,-0.03443 0.133758,-0.07376 0.128203,-0.217618 0.128203,-0.35018 V 12.762325 9.4147986 8.6170903 c 0,-0.1206919 0.0085,-0.2519495 -0.100283,-0.3326312 -0.110967,-0.082211 -0.282759,-0.051978 -0.41253,-0.051978 H 19.093831 15.418675 14.39305 c -0.134542,0 -0.315494,-0.032396 -0.425848,0.062585 -0.123331,0.1061529 -0.08696,0.3055871 -0.08696,0.4502273 v 1.1965624 m 2.179454,1.9230472 v -1.452969 c -0.08753,0 -0.232504,0.02742 -0.310138,-0.01877 -0.07651,-0.04554 -0.07632,-0.371975 -0.01131,-0.4284692 0.05638,-0.049 0.194441,-0.02283 0.264468,-0.02283 h 0.612527 c 0.06897,0 0.192091,-0.0234 0.252431,0.01464 0.07922,0.04994 0.07368,0.3591392 0.01204,0.4207622 -0.07984,0.07984 -0.260067,-0.02372 -0.321049,0.06769 -0.04367,0.06544 -0.01464,0.218244 -0.01464,0.29461 v 0.769219 c 0,0.08242 -0.03229,0.25276 0.01464,0.323101 0.06318,0.09469 0.262859,-0.01152 0.349539,0.05949 0.06266,0.05134 0.06335,0.368798 0.0017,0.420777 -0.05998,0.05054 -0.206478,0.02283 -0.280366,0.02283 h -0.65526 c -0.07097,0 -0.203558,0.02514 -0.264469,-0.01679 -0.06476,-0.04457 -0.06151,-0.379282 -0.0017,-0.426817 0.07671,-0.06094 0.258657,-0.02647 0.35159,-0.02647 M 18.367355,11.30936 V 10.6541 10.198266 c 0,-0.06427 -0.01467,-0.153501 0.0188,-0.2115632 0.04544,-0.07887 0.435178,-0.08111 0.460961,0.01298 0.04003,0.1454112 0.0046,0.3468602 0.0046,0.4977262 v 1.082604 c 0,0.208672 0.05199,0.496048 -0.0046,0.696443 -0.01439,0.05131 -0.06325,0.05687 -0.1094,0.05832 -0.100425,0.0031 -0.358826,0.04404 -0.431617,-0.03446 -0.07649,-0.08243 -0.112391,-0.259212 -0.151707,-0.364182 -0.105981,-0.283172 -0.193302,-0.606244 -0.342587,-0.868933 -0.05442,0.228586 -0.01424,0.506017 -0.01424,0.74073 0,0.113402 0.05199,0.40515 -0.02279,0.494038 -0.05783,0.0686 -0.417259,0.06355 -0.452942,-0.0248 -0.05528,-0.136907 -0.0086,-0.37867 -0.0086,-0.526218 v -1.210808 c 0,-0.138473 -0.05624,-0.433724 0.01464,-0.5534382 0.04746,-0.08016 0.415976,-0.06937 0.496317,-0.03427 0.09316,0.04073 0.132192,0.2704942 0.163388,0.3597962 0.07692,0.219213 0.160966,0.435889 0.237318,0.65526 0.03718,0.106978 0.06709,0.256535 0.142448,0.341875 m -4.48711,-0.854687 v 3.518463 0.911667 l -0.01464,0.333285 -0.142049,0.02284 H 13.324691 11.672295 5.9743783 4.5071653 4.1368003 l -0.148097,-0.01464 -0.02284,-0.256007 v -0.769219 -2.806224 -0.68375 l 0.02284,-0.241763 0.190831,-0.01464 h 0.484323 1.880313 7.3360667 m -8.5875007,1.211206 c -0.07125,0.04219 -0.07654,0.374851 -0.02003,0.4326 0.09789,0.09998 0.429381,-0.07372 0.493654,0.06882 0.05077,0.112619 0.0086,0.329324 0.0086,0.452585 v 0.925912 c 0,0.130054 -0.02964,0.301804 0.0062,0.427073 0.02896,0.101309 0.353128,0.105169 0.432158,0.05685 0.0955,-0.05839 0.04598,-0.356519 0.04598,-0.455435 0,-0.449622 -0.01943,-0.90406 2.71e-4,-1.353198 0.01068,-0.243415 0.484579,0.03326 0.523538,-0.171265 0.01493,-0.0784 0.03548,-0.320765 -0.02977,-0.375749 -0.06798,-0.05726 -0.252702,-0.02284 -0.337345,-0.02284 h -0.797706 c -0.08732,0 -0.248671,-0.03085 -0.325522,0.01464 m 1.880313,-0.0041 c -0.06957,0.03148 -0.04484,0.155724 -0.04484,0.217347 v 0.641016 c 0,0.315393 -0.06808,0.72288 0.02527,1.025625 0.141308,0.458297 0.679263,0.63026 1.100068,0.469152 0.660602,-0.252902 0.484323,-1.134114 0.484323,-1.694205 v -0.455839 c 0,-0.05516 0.01305,-0.134741 -0.02481,-0.180652 -0.05434,-0.06588 -0.29501,-0.04356 -0.373826,-0.03091 -0.144157,0.02315 -0.08568,0.37357 -0.08568,0.482215 v 0.854687 c 0,0.125981 0.02849,0.292888 -0.01217,0.4131 -0.05261,0.155538 -0.236891,0.218814 -0.386689,0.190609 -0.123887,-0.02332 -0.228999,-0.104001 -0.25172,-0.233344 -0.02386,-0.135753 -0.0047,-0.289653 -0.0047,-0.427344 V 12.07856 c 0,-0.100199 0.03726,-0.294839 -0.01464,-0.382501 -0.04414,-0.07456 -0.337758,-0.06722 -0.410592,-0.03427 m 2.433751,1.114769 h 0.02849 c 0.06719,0.290337 0.215609,0.576102 0.32159,0.854687 0.04188,0.110084 0.07516,0.292731 0.1577327,0.378427 0.07204,0.07477 0.508781,0.07279 0.540119,-0.03682 0.04614,-0.161351 0.0062,-0.387487 0.0062,-0.555277 v -1.182317 -0.398855 c 0,-0.04773 0.01253,-0.123003 -0.02482,-0.160367 -0.05896,-0.05896 -0.412201,-0.05359 -0.439081,0.03372 -0.03645,0.118374 -0.0062,0.287944 -0.0062,0.411546 v 0.897422 c -0.07929,-0.0483 -0.09936,-0.187176 -0.130963,-0.270651 -0.094677,-0.250003 -0.1843907,-0.502677 -0.2727937,-0.754967 -0.03014,-0.086 -0.06959,-0.306947 -0.166835,-0.335693 -0.07996,-0.02365 -0.43109,-0.04402 -0.480989,0.02849 -0.02932,0.04258 -0.0168,0.11591 -0.0168,0.164755 v 0.38461 1.253541 c 0,0.137804 -0.04793,0.384325 0.01057,0.509565 0.03657,0.07826 0.415221,0.07917 0.450919,0 0.03754,-0.08326 0.0086,-0.233828 0.0086,-0.324382 0,-0.282517 -0.05121,-0.622526 0.01424,-0.897422 m 1.4847057,-1.114769 c -0.07164,0.03348 -0.04598,0.167803 -0.04598,0.231592 v 0.712239 1.06836 c 0,0.07916 -0.03848,0.303229 0.03467,0.35357 0.05338,0.03674 0.160012,0.01679 0.221734,0.01679 h 0.555547 c 0.1294,0 0.428099,0.05573 0.536772,-0.01679 0.0649,-0.04331 0.06168,-0.412587 -0.01182,-0.444694 -0.15128,-0.06605 -0.445036,-0.0086 -0.610418,-0.0086 -0.06661,0 -0.184413,0.02189 -0.233572,-0.03467 -0.04544,-0.05229 -0.02283,-0.171422 -0.02283,-0.235979 0,-0.05074 -0.01215,-0.121309 0.0086,-0.168829 0.02588,-0.05927 0.110012,-0.04484 0.162348,-0.04484 h 0.498567 c 0.06191,0 0.172889,0.01947 0.194898,-0.05853 0.02007,-0.07109 0.03681,-0.365421 -0.02849,-0.408996 -0.103902,-0.06933 -0.384837,-0.01679 -0.508283,-0.01679 -0.09466,0 -0.315109,0.0462 -0.326789,-0.08554 -0.0074,-0.08278 -0.0346,-0.298984 0.02199,-0.364111 0.03839,-0.04417 0.110113,-0.03466 0.162348,-0.03467 h 0.413099 c 0.06753,0 0.241649,0.0312 0.284497,-0.03302 0.0388,-0.05813 0.04194,-0.380023 -0.01838,-0.420264 -0.07,-0.04671 -0.227476,-0.0168 -0.308856,-0.0168 h -0.68375 c -0.08396,0 -0.218686,-0.02548 -0.295893,0.01057 z"
     id="path8680" /></svg>
