<?xml version="1.0" encoding="UTF-8" standalone="no"?>
<svg
   width="24"
   height="24"
   viewBox="0 0 6.349875 6.349875"
   version="1.1"
   id="svg8045"
   sodipodi:docname="web-twitter.svg"
   inkscape:export-filename="web-twitter.pdf"
   inkscape:export-xdpi="300"
   inkscape:export-ydpi="300"
   inkscape:version="1.2.2 (b0a8486541, 2022-12-01)"
   xml:space="preserve"
   xmlns:inkscape="http://www.inkscape.org/namespaces/inkscape"
   xmlns:sodipodi="http://sodipodi.sourceforge.net/DTD/sodipodi-0.dtd"
   xmlns="http://www.w3.org/2000/svg"
   xmlns:svg="http://www.w3.org/2000/svg"><defs
     id="defs8049"><linearGradient
       id="paint0_linear_18_187"
       x1="12"
       y1="1"
       x2="12"
       y2="23"
       gradientUnits="userSpaceOnUse"
       gradientTransform="matrix(0.26457812,0,0,0.26457812,-4.0758199e-6,-8.4144564e-6)"><stop
         stop-color="#33BEF0"
         id="stop43245"
         offset="0"
         style="stop-color:#26b8ef;stop-opacity:1;" /><stop
         offset="1"
         stop-color="#0A85D9"
         id="stop43247"
         style="stop-color:#0093cb;stop-opacity:1;" /></linearGradient><linearGradient
       x1="12"
       y1="1"
       x2="12"
       y2="23"
       gradientUnits="userSpaceOnUse"
       gradientTransform="matrix(0.75,0,0,0.75,-1.15537e-5,-2.38525e-5)"
       spreadMethod="pad"
       id="linearGradient46566"><stop
         style="stop-opacity:1;stop-color:#26b8ef"
         offset="0"
         id="stop46562" /><stop
         style="stop-opacity:1;stop-color:#0093cb"
         offset="1"
         id="stop46564" /></linearGradient></defs><sodipodi:namedview
     id="namedview8047"
     pagecolor="#ffffff"
     bordercolor="#000000"
     borderopacity="0.25"
     inkscape:showpageshadow="2"
     inkscape:pageopacity="0.0"
     inkscape:pagecheckerboard="0"
     inkscape:deskcolor="#d1d1d1"
     showgrid="false"
     inkscape:zoom="6.828125"
     inkscape:cx="36.24714"
     inkscape:cy="30.389016"
     inkscape:window-width="2560"
     inkscape:window-height="1000"
     inkscape:window-x="1680"
     inkscape:window-y="0"
     inkscape:window-maximized="1"
     inkscape:current-layer="svg8045" /><g
     id="g46695"
     transform="translate(-14.72677,-8.6820373)"><g
       id="g46550"
       transform="matrix(0.35277082,0,0,0.35277082,14.72665,8.6820281)"><g
         id="g46552"><g
           id="g46554"><g
             id="g46560"><path
               d="m 7.195,0.836 c 0.09,0 0.176,-0.012 0.258,-0.035 1.078,-0.071 2.156,-0.067 3.231,0.008 0.976,0.078 1.921,0.289 2.836,0.636 1.519,0.625 2.558,1.711 3.121,3.254 0.316,0.93 0.507,1.887 0.566,2.867 0.078,1.235 0.051,2.465 -0.086,3.696 -0.105,0.863 -0.328,1.691 -0.672,2.488 -0.637,1.383 -1.672,2.336 -3.101,2.859 C 12.191,17 11,17.207 9.773,17.227 8.398,17.301 7.035,17.195 5.684,16.918 3.203,16.367 1.668,14.852 1.09,12.375 0.844,11.262 0.73,10.133 0.754,8.992 0.727,7.777 0.855,6.582 1.141,5.402 1.75,3.09 3.219,1.656 5.547,1.102 6.09,0.969 6.641,0.879 7.195,0.836 Z"
               style="fill:url(#linearGradient46566);fill-rule:evenodd;stroke:none"
               id="path46568" /></g></g></g><g
         id="g46570"><path
           d="M 10.324,4.66 C 9.379,5.016 8.777,5.922 8.844,6.922 L 8.871,7.305 8.488,7.258 C 7.109,7.078 5.906,6.465 4.879,5.438 L 4.379,4.93 4.25,5.309 C 3.977,6.145 4.152,7.031 4.719,7.629 5.023,7.957 4.953,8.004 4.43,7.809 4.25,7.746 4.09,7.699 4.074,7.723 4.02,7.777 4.203,8.492 4.348,8.773 4.543,9.168 4.945,9.551 5.387,9.777 L 5.758,9.957 5.32,9.965 c -0.425,0 -0.441,0.012 -0.398,0.176 0.152,0.507 0.75,1.05 1.418,1.285 l 0.472,0.164 -0.41,0.25 C 5.785,12.207 5.086,12.406 4.371,12.422 4.027,12.43 3.75,12.461 3.75,12.484 c 0,0.078 0.926,0.516 1.461,0.688 1.617,0.512 3.535,0.293 4.98,-0.578 1.024,-0.621 2.047,-1.852 2.524,-3.043 0.258,-0.637 0.519,-1.797 0.519,-2.356 0,-0.363 0.02,-0.41 0.446,-0.84 0.25,-0.25 0.488,-0.523 0.531,-0.605 0.078,-0.148 0.07,-0.148 -0.316,-0.012 -0.645,0.235 -0.739,0.203 -0.418,-0.152 0.234,-0.25 0.515,-0.703 0.515,-0.836 0,-0.023 -0.113,0.012 -0.242,0.086 -0.215,0.105 -0.438,0.195 -0.668,0.266 L 12.672,5.234 12.301,4.977 C 12.098,4.832 11.805,4.68 11.656,4.629 11.219,4.523 10.762,4.535 10.328,4.66"
           style="fill:none;stroke:#000000;stroke-width:0.75;stroke-linecap:round;stroke-linejoin:round;stroke-miterlimit:4;stroke-dasharray:none;stroke-opacity:0.05"
           id="path46572" /></g><path
         d="M 10.324,4.66 C 9.379,5.016 8.777,5.922 8.844,6.922 L 8.871,7.305 8.488,7.258 C 7.109,7.078 5.906,6.465 4.879,5.438 L 4.379,4.93 4.25,5.309 C 3.977,6.145 4.152,7.031 4.719,7.629 5.023,7.957 4.953,8.004 4.43,7.809 4.25,7.746 4.09,7.699 4.074,7.723 4.02,7.777 4.203,8.492 4.348,8.773 4.543,9.168 4.945,9.551 5.387,9.777 L 5.758,9.957 5.32,9.965 c -0.425,0 -0.441,0.012 -0.398,0.176 0.152,0.507 0.75,1.05 1.418,1.285 l 0.472,0.164 -0.41,0.25 C 5.785,12.207 5.086,12.406 4.371,12.422 4.027,12.43 3.75,12.461 3.75,12.484 c 0,0.078 0.926,0.516 1.461,0.688 1.617,0.512 3.535,0.293 4.98,-0.578 1.024,-0.621 2.047,-1.852 2.524,-3.043 0.258,-0.637 0.519,-1.797 0.519,-2.356 0,-0.363 0.02,-0.41 0.446,-0.84 0.25,-0.25 0.488,-0.523 0.531,-0.605 0.078,-0.148 0.07,-0.148 -0.316,-0.012 -0.645,0.235 -0.739,0.203 -0.418,-0.152 0.234,-0.25 0.515,-0.703 0.515,-0.836 0,-0.023 -0.113,0.012 -0.242,0.086 -0.215,0.105 -0.438,0.195 -0.668,0.266 L 12.672,5.234 12.301,4.977 C 12.098,4.832 11.805,4.68 11.656,4.629 11.219,4.523 10.762,4.535 10.328,4.66"
         style="fill:#ffffff;fill-opacity:1;fill-rule:nonzero;stroke:none"
         id="path46574" /></g></g></svg>
