<?xml version="1.0" encoding="UTF-8" standalone="no"?>
<svg
   viewBox="0 0 153.65 153.65"
   version="1.1"
   id="svg237"
   sodipodi:docname="webapp.svg"
   xml:space="preserve"
   inkscape:export-filename="../../../../../../../home/ruscher/Imagens/Big Icons/webapp.pdf"
   inkscape:export-xdpi="96"
   inkscape:export-ydpi="96"
   width="153.64999"
   height="153.64999"
   inkscape:version="1.2.2 (b0a8486541, 2022-12-01)"
   xmlns:inkscape="http://www.inkscape.org/namespaces/inkscape"
   xmlns:sodipodi="http://sodipodi.sourceforge.net/DTD/sodipodi-0.dtd"
   xmlns:xlink="http://www.w3.org/1999/xlink"
   xmlns="http://www.w3.org/2000/svg"
   xmlns:svg="http://www.w3.org/2000/svg"><sodipodi:namedview
     id="namedview239"
     pagecolor="#ffffff"
     bordercolor="#000000"
     borderopacity="0.25"
     inkscape:showpageshadow="2"
     inkscape:pageopacity="0.0"
     inkscape:pagecheckerboard="0"
     inkscape:deskcolor="#d1d1d1"
     showgrid="false"
     inkscape:zoom="2"
     inkscape:cx="47.75"
     inkscape:cy="146.75"
     inkscape:window-width="2560"
     inkscape:window-height="1000"
     inkscape:window-x="1680"
     inkscape:window-y="0"
     inkscape:window-maximized="1"
     inkscape:current-layer="svg237" /><defs
     id="defs214"><linearGradient
       inkscape:collect="always"
       id="linearGradient1433"><stop
         style="stop-color:#6cace9;stop-opacity:1;"
         offset="0.16365853"
         id="stop8122" /><stop
         style="stop-color:#4c92d6;stop-opacity:1;"
         offset="0.5"
         id="stop6336" /><stop
         style="stop-color:#0257a9;stop-opacity:1;"
         offset="1"
         id="stop1431" /></linearGradient><style
       id="style212">.cls-2{fill:#cc5e55}.cls-3{fill:#ffc328}.cls-4{fill:#002a44}.cls-5{fill:#3c3}.cls-6{fill:#fff}</style><radialGradient
       id="paint0_radial_29_23"
       cx="0"
       cy="0"
       r="1"
       gradientUnits="userSpaceOnUse"
       gradientTransform="matrix(0,22,-22,0,12,1)"><stop
         stop-color="#8FC8FF"
         id="stop414" /><stop
         offset="1"
         stop-color="#0056A8"
         id="stop416" /></radialGradient><radialGradient
       fx="0"
       fy="0"
       cx="0"
       cy="0"
       r="1"
       gradientUnits="userSpaceOnUse"
       gradientTransform="matrix(0,115.23765,-115.23765,0,57.618683,-1.05e-6)"
       spreadMethod="pad"
       id="radialGradient1160"><stop
         style="stop-opacity:1;stop-color:#8fc8ff"
         offset="0"
         id="stop1156" /><stop
         style="stop-opacity:1;stop-color:#0056a8"
         offset="1"
         id="stop1158" /></radialGradient><radialGradient
       inkscape:collect="always"
       xlink:href="#linearGradient1433"
       id="radialGradient1435"
       cx="59.749428"
       cy="-20.616371"
       fx="59.749428"
       fy="-20.616371"
       r="57.620134"
       gradientTransform="matrix(5.0804094e-6,2.2854107,-1.998174,0,18.554028,-157.16513)"
       gradientUnits="userSpaceOnUse" /><linearGradient
       id="paint0_linear_14_150"
       x1="12"
       y1="0"
       x2="12"
       y2="12"
       gradientUnits="userSpaceOnUse"
       gradientTransform="matrix(6.4019589,0,0,6.4019589,0.00147,0.00149571)"><stop
         stop-color="#00A4DC"
         id="stop9517" /><stop
         offset="1"
         stop-color="#006699"
         id="stop9519" /></linearGradient></defs><g
     id="g1144"
     transform="matrix(1.3333334,0,0,1.3333334,8.5917215e-4,9.0890887e-4)"
     style="fill:url(#radialGradient1435);fill-opacity:1"><g
       id="g1146"
       style="fill:url(#radialGradient1435);fill-opacity:1"><g
         id="g1148"
         style="fill:url(#radialGradient1435);fill-opacity:1"><g
           id="g1154"
           style="fill:url(#radialGradient1435);fill-opacity:1"><path
             d="m 45.027,0.594 c 0.625,0.008 1.227,-0.071 1.801,-0.239 7.52,-0.492 15.039,-0.472 22.559,0.059 6.82,0.531 13.418,2.012 19.801,4.438 10.609,4.371 17.871,11.945 21.781,22.73 2.234,6.496 3.554,13.172 3.961,20.031 0.558,8.617 0.359,17.211 -0.602,25.789 -0.719,6.028 -2.277,11.828 -4.68,17.391 -4.457,9.652 -11.675,16.309 -21.66,19.973 -8.09,2.734 -16.41,4.172 -24.961,4.316 -9.617,0.5 -19.136,-0.219 -28.562,-2.156 C 17.121,109.062 6.418,98.484 2.367,81.199 0.645,73.418 -0.137,65.539 0.023,57.57 -0.168,49.094 0.734,40.738 2.727,32.5 6.977,16.34 17.234,6.324 33.508,2.453 37.297,1.527 41.137,0.906 45.027,0.594 Z"
             style="fill:url(#radialGradient1435);fill-rule:evenodd;stroke:none;fill-opacity:1"
             id="path1162" /></g></g></g><path
       d="M 95.293,39.801 H 78.516 C 76.902,39.789 75.602,38.48 75.602,36.863 V 19.996 c 0,-1.613 1.3,-2.922 2.914,-2.93 h 16.777 c 1.617,0 2.93,1.313 2.93,2.93 v 16.836 c 0.019,1.633 -1.297,2.965 -2.93,2.969 z m -29.051,0 H 49.5 C 47.883,39.789 46.578,38.48 46.578,36.863 V 19.996 c 0,-1.613 1.309,-2.922 2.922,-2.93 h 16.77 c 1.617,0.004 2.925,1.313 2.925,2.93 v 16.836 c 0.016,1.641 -1.312,2.977 -2.953,2.969 z M 33.316,41.777 17.363,36.66 c -1.535,-0.515 -2.375,-2.156 -1.898,-3.699 l 5.109,-16.016 c 0.504,-1.531 2.141,-2.379 3.68,-1.906 l 15.957,5.133 c 1.527,0.516 2.371,2.152 1.902,3.695 l -5.125,16.02 c -0.492,1.535 -2.136,2.383 -3.672,1.89 z"
       style="fill:url(#radialGradient1435);fill-opacity:1;fill-rule:nonzero;stroke:none"
       id="path1164" /><path
       d="M 95.293,68.773 H 78.516 c -1.614,-0.007 -2.918,-1.32 -2.914,-2.937 V 49.02 c 0,-1.614 1.3,-2.926 2.914,-2.938 h 16.777 c 1.621,0.004 2.93,1.316 2.93,2.938 v 16.855 c -0.012,1.605 -1.321,2.902 -2.93,2.898 z"
       style="fill:url(#radialGradient1435);fill-opacity:1;fill-rule:nonzero;stroke:none"
       id="path1166" /><path
       d="M 66.242,68.773 H 49.5 c -1.617,-0.007 -2.922,-1.32 -2.922,-2.937 V 49.02 c 0.012,-1.61 1.313,-2.907 2.922,-2.918 h 16.77 c 1.597,0.023 2.886,1.32 2.898,2.918 v 16.855 c -0.016,1.605 -1.32,2.898 -2.926,2.898 z"
       style="fill:url(#radialGradient1435);fill-opacity:1;fill-rule:nonzero;stroke:none"
       id="path1168" /><path
       d="M 37.176,68.773 H 20.402 C 18.785,68.77 17.477,67.453 17.48,65.836 V 49.02 c 0,-1.618 1.305,-2.93 2.922,-2.938 h 16.774 c 1.613,0.012 2.918,1.32 2.922,2.938 v 16.855 c -0.02,1.602 -1.321,2.895 -2.922,2.898 z"
       style="fill:url(#radialGradient1435);fill-opacity:1;fill-rule:nonzero;stroke:none"
       id="path1170" /><path
       d="M 95.293,97.789 H 78.516 c -1.614,-0.008 -2.914,-1.316 -2.914,-2.93 V 77.992 c 0,-1.613 1.3,-2.926 2.914,-2.933 h 16.777 c 1.617,0 2.93,1.312 2.93,2.933 v 16.84 c 0.015,1.629 -1.301,2.957 -2.93,2.957 z m -29.051,0 H 49.5 c -1.613,-0.008 -2.922,-1.316 -2.922,-2.93 V 77.992 c 0.016,-1.605 1.317,-2.898 2.922,-2.906 h 16.77 c 1.617,0.004 2.925,1.316 2.925,2.93 v 16.843 c 0,1.625 -1.324,2.942 -2.953,2.93 z"
       style="fill:url(#radialGradient1435);fill-opacity:1;fill-rule:nonzero;stroke:none"
       id="path1172" /><path
       d="M 37.176,97.789 H 20.402 C 18.789,97.785 17.48,96.477 17.48,94.859 V 77.992 c 0,-1.617 1.309,-2.93 2.922,-2.933 h 16.774 c 1.613,0.007 2.918,1.316 2.922,2.933 v 16.84 c 0.011,1.625 -1.301,2.949 -2.922,2.957 z"
       style="fill:url(#radialGradient1435);fill-opacity:1;fill-rule:nonzero;stroke:none"
       id="path1174" /><path
       d="M 70.035,73.566 H 46.094 C 43.789,73.555 41.926,71.684 41.926,69.379 V 45.391 c 0,-2.305 1.863,-4.176 4.168,-4.188 h 23.941 c 2.305,0.012 4.168,1.883 4.168,4.188 V 69.43 c -0.023,2.285 -1.879,4.129 -4.168,4.136 z"
       style="fill:url(#radialGradient1435);fill-opacity:1;fill-rule:nonzero;stroke:none"
       id="path1176" /><path
       d="m 62.785,49.406 c 0.852,-0.91 1.957,-1.535 3.176,-1.797 0.414,0 0.809,-0.047 1.203,-0.066 0.457,0.039 0.902,0.156 1.316,0.352 0.68,0.39 1.266,0.921 1.719,1.558 0.668,0.91 1.121,1.961 1.321,3.07 0.019,0.383 0.019,0.766 0,1.153 -0.231,-0.321 -0.426,-0.664 -0.582,-1.024 -0.262,-0.445 -0.598,-0.843 -0.989,-1.183 -0.539,-0.528 -1.258,-0.84 -2.011,-0.875 -0.301,-0.012 -0.602,0.027 -0.891,0.117 -0.817,0.227 -1.547,0.684 -2.106,1.316 -0.187,0.211 -0.398,0.43 -0.562,0.661 -0.164,0.23 -0.367,0.566 -0.5,0.863 -0.457,0.871 -0.715,1.832 -0.758,2.816 0,0.395 0,0.758 0.067,1.153 0.121,0.261 0.054,0.605 0.332,0.757 0.195,0.012 0.39,-0.043 0.558,-0.152 0.445,-0.34 0.856,-0.727 1.223,-1.152 0.441,-0.364 0.758,-0.856 1.187,-1.258 0.242,-0.176 0.395,-0.426 0.625,-0.606 0.43,-0.433 0.907,-0.816 1.414,-1.152 0.395,-0.246 0.856,-0.367 1.317,-0.348 0.554,0.075 1.054,0.371 1.383,0.821 0.468,0.672 0.804,1.429 0.988,2.226 0.097,0.414 0.055,0.824 0.121,1.25 -0.051,1.41 -0.301,2.805 -0.746,4.145 -0.16,0.465 -0.383,0.906 -0.656,1.316 -0.102,0.117 -0.153,0.262 -0.286,0.297 0.032,-0.273 0.082,-0.539 0.153,-0.805 0.039,-0.3 0.039,-0.605 0,-0.91 0.031,-0.465 0.031,-0.933 0,-1.402 C 70.688,60.086 70.668,59.594 70.523,59.133 70.441,58.801 70.32,58.48 70.16,58.18 70.043,57.992 69.977,57.781 69.793,57.664 69.609,57.5 69.379,57.402 69.133,57.387 c -0.184,0.039 -0.363,0.097 -0.539,0.164 -0.41,0.269 -0.77,0.605 -1.074,0.988 -0.274,0.293 -0.579,0.551 -0.907,0.777 -0.48,0.368 -1.082,0.536 -1.679,0.477 -0.813,-0.098 -1.594,-0.375 -2.293,-0.805 -0.329,-0.207 -0.629,-0.453 -0.903,-0.73 -0.676,-0.696 -1.105,-1.594 -1.222,-2.555 -0.082,-0.289 -0.098,-0.594 -0.047,-0.891 0.023,-1.179 0.324,-2.335 0.875,-3.374 0.273,-0.485 0.578,-0.95 0.922,-1.383 0.097,-0.27 0.281,-0.496 0.519,-0.649 z"
       style="fill:url(#radialGradient1435);fill-opacity:1;fill-rule:nonzero;stroke:none"
       id="path1178" /><path
       d="m 53.363,65.297 c -0.855,0.914 -1.976,1.539 -3.207,1.789 -0.414,0 -0.808,0.055 -1.203,0.066 -0.457,-0.035 -0.902,-0.152 -1.316,-0.343 -0.676,-0.395 -1.262,-0.93 -1.719,-1.567 -0.66,-0.91 -1.109,-1.957 -1.316,-3.062 -0.024,-0.383 -0.024,-0.77 0,-1.157 0.234,0.317 0.429,0.661 0.578,1.028 0.265,0.437 0.59,0.836 0.968,1.183 0.547,0.532 1.274,0.84 2.036,0.871 0.3,0.012 0.601,-0.027 0.886,-0.113 0.813,-0.219 1.547,-0.664 2.114,-1.285 0.179,-0.215 0.398,-0.426 0.562,-0.656 0.164,-0.231 0.359,-0.563 0.492,-0.856 0.461,-0.871 0.719,-1.836 0.758,-2.82 -0.031,-0.395 -0.031,-0.758 -0.066,-1.152 -0.114,-0.262 -0.047,-0.614 -0.328,-0.758 -0.2,-0.012 -0.395,0.039 -0.559,0.144 -0.434,0.332 -0.828,0.7 -1.188,1.11 -0.445,0.359 -0.757,0.855 -1.183,1.25 -0.25,0.183 -0.402,0.426 -0.66,0.613 -0.43,0.434 -0.903,0.816 -1.414,1.152 -0.395,0.239 -0.856,0.36 -1.317,0.34 -0.554,-0.07 -1.054,-0.363 -1.39,-0.808 -0.469,-0.672 -0.801,-1.43 -0.989,-2.227 -0.097,-0.406 -0.047,-0.836 -0.109,-1.25 0.043,-1.406 0.293,-2.801 0.734,-4.137 0.168,-0.461 0.387,-0.906 0.661,-1.316 0.097,-0.109 0.144,-0.262 0.277,-0.297 -0.031,0.273 -0.078,0.547 -0.145,0.813 -0.043,0.296 -0.043,0.601 0,0.902 -0.035,0.465 -0.035,0.934 0,1.402 0.118,0.461 0.129,0.953 0.282,1.414 0.078,0.336 0.199,0.66 0.363,0.961 0.109,0.18 0.176,0.395 0.359,0.508 0.196,0.149 0.422,0.246 0.66,0.281 0.188,-0.039 0.371,-0.093 0.547,-0.164 0.399,-0.277 0.758,-0.609 1.067,-0.988 0.269,-0.297 0.574,-0.563 0.902,-0.793 0.477,-0.367 1.078,-0.539 1.68,-0.484 0.808,0.097 1.582,0.375 2.269,0.812 0.332,0.203 0.637,0.449 0.91,0.723 0.672,0.699 1.106,1.594 1.239,2.554 0.078,0.29 0.093,0.594 0.047,0.891 -0.024,1.18 -0.325,2.336 -0.879,3.379 -0.266,0.484 -0.575,0.945 -0.922,1.379 -0.09,0.266 -0.258,0.496 -0.481,0.668 z"
       style="fill:url(#radialGradient1435);fill-opacity:1;fill-rule:nonzero;stroke:none"
       id="path1180" /><path
       d="m 55.867,50.449 c 0.828,-0.297 1.742,-0.234 2.52,0.176 0.289,0.191 0.519,0.461 0.66,0.777 0.16,0.391 0.137,0.828 -0.067,1.2 -0.242,0.492 -0.64,0.89 -1.136,1.125 -0.356,0.195 -0.75,0.3 -1.153,0.308 -0.449,0.059 -0.902,0.004 -1.32,-0.164 -0.512,-0.187 -0.914,-0.601 -1.09,-1.117 -0.105,-0.395 -0.039,-0.813 0.184,-1.152 0.32,-0.536 0.816,-0.942 1.402,-1.153 z"
       style="fill:url(#radialGradient1435);fill-opacity:1;fill-rule:nonzero;stroke:none"
       id="path1182" /><path
       d="m 55.953,55.352 c 0.344,-0.575 0.973,-0.918 1.645,-0.899 0.343,0.012 0.683,0.102 0.988,0.262 0.449,0.176 0.785,0.555 0.91,1.019 -0.004,0.551 0.051,1.098 0.164,1.633 0.356,1.082 1,2.043 1.863,2.785 0.407,0.477 0.954,0.805 1.364,1.317 -0.625,-0.012 -1.25,-0.078 -1.864,-0.196 -0.757,-0.117 -1.48,-0.371 -2.14,-0.757 -0.379,-0.196 -0.735,-0.438 -1.055,-0.723 -0.516,-0.418 -0.961,-0.914 -1.316,-1.469 -0.426,-0.633 -0.688,-1.363 -0.758,-2.121 0.008,-0.293 0.074,-0.582 0.199,-0.851 z"
       style="fill:url(#radialGradient1435);fill-opacity:1;fill-rule:nonzero;stroke:none"
       id="path1184" /></g><path
     fill-rule="evenodd"
     clip-rule="evenodd"
     d="m 60.03584,0.79479445 c 0.83699,0.00891 1.63698,-0.097714 2.40003,-0.31984828 10.02745,-0.65687683 20.0542,-0.6302338 30.08032,0.079963 9.09077,0.70832303 17.8909,2.68074743 26.40039,5.91723843 14.14704,5.8241814 23.82681,15.9261534 29.03992,30.3058494 2.9814,8.657561 4.74193,17.560125 5.28034,26.7075 0.74519,11.486778 0.47887,22.948206 -0.80025,34.384024 -0.95709,8.037669 -3.03709,15.767389 -6.23999,23.189179 -5.94038,12.86794 -15.56699,21.74361 -28.87987,26.62766 -10.78794,3.64529 -21.8819,5.56395 -33.28058,5.75729 C 71.2143,154.11009 58.52094,153.15044 45.95569,150.56469 22.82778,145.41303 8.56089,131.31272 3.15527,108.26438 0.86129,97.889367 -0.17872,87.387594 0.03524,76.759062 -0.22078,65.457684 0.97923,54.316355 3.63527,43.334947 9.30211,21.784993 22.9822,8.4312111 44.67569,3.2736394 49.73061,2.0378181 54.85064,1.21153 60.03584,0.79479445 Z"
     fill="url(#paint0_linear_14_150)"
     id="path9499"
     style="fill:url(#paint0_linear_14_150);stroke-width:6.40195" /><g
     id="g9743"
     transform="translate(-1.4648793)"><path
       class="cls-2"
       d="m 128.179,54.761419 h -22.36917 a 3.9154828,3.9154828 0 0 1 -3.88915,-3.915483 V 28.353858 a 3.9067037,3.9067037 0 0 1 3.88915,-3.906704 H 128.179 a 3.9067037,3.9067037 0 0 1 3.9067,3.906704 v 22.448183 a 3.9154828,3.9154828 0 0 1 -3.9067,3.959378 z m -38.73344,0 H 67.12029 A 3.9242619,3.9242619 0 0 1 63.22236,50.845936 V 28.353858 a 3.9154828,3.9154828 0 0 1 3.89793,-3.906704 h 22.36039 a 3.9067037,3.9067037 0 0 1 3.89792,3.906704 v 22.448183 a 3.9154828,3.9154828 0 0 1 -3.93304,3.959378 z M 45.54124,57.395152 24.26945,50.573784 a 3.9681575,3.9681575 0 0 1 -2.52838,-4.93386 L 28.55366,24.28913 a 3.9505992,3.9505992 0 0 1 4.90752,-2.545941 l 21.27178,6.847705 a 3.9769366,3.9769366 0 0 1 2.53717,4.92508 l -6.83015,21.359574 a 3.8979246,3.8979246 0 0 1 -4.89874,2.519604 z"
       id="path218"
       style="fill:#cc5e55;stroke-width:0.877911" /><path
       class="cls-3"
       d="m 128.179,93.389501 h -22.36917 a 3.9067037,3.9067037 0 0 1 -3.88915,-3.915483 V 67.052172 a 3.9154828,3.9154828 0 0 1 3.88915,-3.915482 H 128.179 a 3.9154828,3.9154828 0 0 1 3.9067,3.915482 v 22.47452 a 3.8979246,3.8979246 0 0 1 -3.9067,3.862809 z"
       id="path220"
       style="fill:#ffc328;stroke-width:0.877911" /><path
       class="cls-5"
       d="M 50.68579,93.389501 H 28.3254 A 3.9067037,3.9067037 0 0 1 24.42748,89.474018 V 67.052172 A 3.9154828,3.9154828 0 0 1 28.3254,63.13669 h 22.36039 a 3.9242619,3.9242619 0 0 1 3.89793,3.915482 v 22.47452 a 3.9067037,3.9067037 0 0 1 -3.89793,3.862809 z"
       id="path224"
       style="fill:#33cc33;stroke-width:0.877911" /><path
       class="cls-3"
       d="m 128.179,132.07903 h -22.36917 a 3.9067037,3.9067037 0 0 1 -3.88915,-3.9067 v -22.49207 a 3.9067037,3.9067037 0 0 1 3.88915,-3.90671 H 128.179 a 3.9067037,3.9067037 0 0 1 3.9067,3.90671 v 22.45696 a 3.9067037,3.9067037 0 0 1 -3.9067,3.94181 z m -38.73344,0 H 67.12029 a 3.9154828,3.9154828 0 0 1 -3.89793,-3.9067 v -22.49207 a 3.9154828,3.9154828 0 0 1 3.89793,-3.87159 h 22.36039 a 3.9067037,3.9067037 0 0 1 3.89792,3.9067 v 22.45696 a 3.9067037,3.9067037 0 0 1 -3.93304,3.9067 z"
       id="path226"
       style="fill:#ffc328;stroke-width:0.877911" /><path
       class="cls-5"
       d="M 50.68579,132.07903 H 28.3254 a 3.9067037,3.9067037 0 0 1 -3.89792,-3.9067 v -22.49207 a 3.9067037,3.9067037 0 0 1 3.89792,-3.90671 h 22.36039 a 3.9154828,3.9154828 0 0 1 3.89793,3.90671 v 22.45696 a 3.9154828,3.9154828 0 0 1 -3.89793,3.94181 z"
       id="path228"
       style="fill:#33cc33;stroke-width:0.877911" /></g><g
     id="g9555"
     style="fill:#ffffff;fill-opacity:1"
     transform="matrix(1.1318037,0,0,1.1318037,-12.064059,-11.634229)"><path
       id="path6"
       class="cls-6"
       d="m 84.83653,67.57014 a 8.0855598,8.0855598 0 0 1 4.23153,-2.396697 c 0.55308,0 1.07983,-0.06145 1.60658,-0.08779 a 5.1972328,5.1972328 0 0 1 1.75582,0.465293 7.2252071,7.2252071 0 0 1 2.29135,2.080649 9.8501608,9.8501608 0 0 1 1.75582,4.091065 12.677034,12.677034 0 0 1 0,1.536344 7.3744519,7.3744519 0 0 1 -0.77256,-1.360762 6.3824125,6.3824125 0 0 0 -1.31687,-1.58024 4.1261814,4.1261814 0 0 0 -2.68641,-1.167621 3.608214,3.608214 0 0 0 -1.18518,0.158023 5.7854331,5.7854331 0 0 0 -2.80931,1.755822 c -0.24582,0.280932 -0.52675,0.570642 -0.74623,0.877911 -0.21947,0.307269 -0.49163,0.755004 -0.66721,1.150064 a 8.902017,8.902017 0 0 0 -1.0096,3.757458 c 0,0.526747 0,1.009598 0.0878,1.536345 0.15803,0.351164 0.0702,0.807678 0.43896,1.009597 a 1.2378544,1.2378544 0 0 0 0.74622,-0.201919 10.929991,10.929991 0 0 0 1.63292,-1.536344 c 0.5882,-0.482851 1.0096,-1.141285 1.58024,-1.67681 0.32483,-0.237036 0.52675,-0.570642 0.83401,-0.807678 a 11.737669,11.737669 0 0 1 1.88751,-1.536345 3.1078047,3.1078047 0 0 1 1.75582,-0.465292 2.7566404,2.7566404 0 0 1 1.84362,1.097388 8.5157361,8.5157361 0 0 1 1.31686,2.967339 c 0.13169,0.553084 0.0702,1.097389 0.15803,1.668031 a 19.577414,19.577414 0 0 1 -0.99204,5.52206 7.4973594,7.4973594 0 0 1 -0.87791,1.755822 c -0.13169,0.158024 -0.20192,0.351164 -0.3775,0.39506 a 7.7256163,7.7256163 0 0 1 0.20192,-1.071052 4.6704862,4.6704862 0 0 0 0,-1.211517 13.300351,13.300351 0 0 0 0,-1.86995 c -0.14925,-0.614538 -0.17559,-1.272971 -0.36873,-1.887509 a 5.4342687,5.4342687 0 0 0 -0.48285,-1.27297 C 94.51112,79.0181 94.42333,78.737168 94.17751,78.579144 a 1.4573322,1.4573322 0 0 0 -0.87791,-0.368723 4.5036831,4.5036831 0 0 0 -0.71989,0.219478 6.0312482,6.0312482 0 0 0 -1.43099,1.316867 7.5588132,7.5588132 0 0 1 -1.21152,1.035934 3.1604794,3.1604794 0 0 1 -2.23867,0.632096 7.4973594,7.4973594 0 0 1 -3.05513,-1.071051 6.3560752,6.3560752 0 0 1 -1.20274,-0.974481 5.8995615,5.8995615 0 0 1 -1.63291,-3.406295 2.7127448,2.7127448 0 0 1 -0.0615,-1.185179 10.078418,10.078418 0 0 1 1.16762,-4.503683 14.046575,14.046575 0 0 1 1.22907,-1.843613 1.7031472,1.7031472 0 0 1 0.69355,-0.860353 z"
       style="fill:#ffffff;fill-opacity:1;stroke-width:0.877911" /><path
       id="path3742"
       class="cls-6"
       d="m 72.27362,88.754131 a 8.0680016,8.0680016 0 0 1 -4.27542,2.387918 c -0.55309,0 -1.07983,0.07023 -1.60658,0.08779 a 5.1796746,5.1796746 0 0 1 -1.75582,-0.456514 7.462243,7.462243 0 0 1 -2.29135,-2.089428 10.218883,10.218883 0 0 1 -1.75582,-4.082286 12.870174,12.870174 0 0 1 0,-1.545123 6.1453766,6.1453766 0 0 1 0.77256,1.369541 7.1022995,7.1022995 0 0 0 1.29053,1.58024 4.1349605,4.1349605 0 0 0 2.71275,1.158842 3.5730975,3.5730975 0 0 0 1.18518,-0.149245 5.9171197,5.9171197 0 0 0 2.81809,-1.711926 c 0.23704,-0.289711 0.52675,-0.570642 0.74622,-0.877911 0.21948,-0.307269 0.48285,-0.746224 0.65844,-1.141284 a 8.7791094,8.7791094 0 0 0 1.00959,-3.757459 c -0.0439,-0.526747 -0.0439,-1.009598 -0.0878,-1.536344 -0.14924,-0.351165 -0.0614,-0.816457 -0.43895,-1.009598 a 1.2378544,1.2378544 0 0 0 -0.74623,0.193141 10.894875,10.894875 0 0 0 -1.58024,1.47489 c -0.59697,0.482851 -1.00959,1.141284 -1.58023,1.668031 -0.33361,0.245815 -0.53553,0.570642 -0.87792,0.816457 a 11.412842,11.412842 0 0 1 -1.8875,1.536344 3.1341421,3.1341421 0 0 1 -1.75583,0.456514 2.7478612,2.7478612 0 0 1 -1.85239,-1.079831 8.6035272,8.6035272 0 0 1 -1.31686,-2.967339 c -0.13169,-0.544305 -0.0615,-1.114947 -0.14925,-1.668031 a 19.568635,19.568635 0 0 1 0.98326,-5.51328 8.1294553,8.1294553 0 0 1 0.87791,-1.755822 c 0.13169,-0.149245 0.19314,-0.351165 0.36872,-0.39506 a 7.9011985,7.9011985 0 0 1 -0.19314,1.07983 4.2578681,4.2578681 0 0 0 0,1.202738 13.282793,13.282793 0 0 0 0,1.869951 c 0.15803,0.614537 0.17559,1.272971 0.37751,1.887508 a 5.135779,5.135779 0 0 0 0.48285,1.28175 c 0.14924,0.237036 0.23703,0.526747 0.48285,0.675992 a 1.9050667,1.9050667 0 0 0 0.87791,0.377501 4.6002533,4.6002533 0 0 0 0.72866,-0.219477 7.0232875,7.0232875 0 0 0 1.42222,-1.316867 7.137416,7.137416 0 0 1 1.20274,-1.062272 3.1780376,3.1780376 0 0 1 2.23867,-0.640875 7.2164279,7.2164279 0 0 1 3.02879,1.07983 6.6545649,6.6545649 0 0 1 1.21152,0.965702 6.1453766,6.1453766 0 0 1 1.65047,3.406295 2.7127448,2.7127448 0 0 1 0.0614,1.18518 10.043301,10.043301 0 0 1 -1.16762,4.503683 12.949186,12.949186 0 0 1 -1.22907,1.843613 1.8962876,1.8962876 0 0 1 -0.64088,0.88669 z"
       style="fill:#ffffff;fill-opacity:1;stroke-width:0.877911" /><path
       id="path10"
       class="cls-6"
       d="m 75.60969,68.957239 a 4.1964143,4.1964143 0 0 1 3.36239,0.237036 2.4581506,2.4581506 0 0 1 0.87792,1.035935 1.8523921,1.8523921 0 0 1 -0.0878,1.597798 3.2307123,3.2307123 0 0 1 -1.51879,1.501228 3.3799571,3.3799571 0 0 1 -1.53634,0.412618 3.5116438,3.5116438 0 0 1 -1.75583,-0.219478 2.4318133,2.4318133 0 0 1 -1.45733,-1.492449 1.9138459,1.9138459 0 0 1 0.24582,-1.536344 3.5994349,3.5994349 0 0 1 1.86995,-1.536344 z"
       style="fill:#ffffff;fill-opacity:1;stroke-width:0.877911" /><path
       id="path12"
       class="cls-6"
       d="m 75.72381,75.497676 a 2.484488,2.484488 0 0 1 2.19478,-1.202738 3.0375719,3.0375719 0 0 1 1.31687,0.351164 2.0279743,2.0279743 0 0 1 1.21152,1.360762 10.183767,10.183767 0 0 0 0.21947,2.177219 8.3840495,8.3840495 0 0 0 2.48449,3.713563 c 0.54431,0.632096 1.27297,1.071052 1.81728,1.755822 a 14.731346,14.731346 0 0 1 -2.48449,-0.263373 8.0416642,8.0416642 0 0 1 -2.85321,-1.009598 6.7599143,6.7599143 0 0 1 -1.40466,-0.965702 8.1382344,8.1382344 0 0 1 -1.75582,-1.957741 6.0049108,6.0049108 0 0 1 -1.0096,-2.826873 2.8444315,2.8444315 0 0 1 0.26337,-1.132505 z"
       style="fill:#ffffff;fill-opacity:1;stroke-width:0.877911" /></g></svg>
