<svg xmlns="http://www.w3.org/2000/svg" width="16" height="16">
    <style type="text/css" id="current-color-scheme">
        .ColorScheme-Text {
            color:#232629;
        }
    </style>
    <path d="M2.315 1.002a.5.5 0 0 0-.43.343l-.863 2.704a.503.503 0 0 0 .32.625l2.695.864a.494.494 0 0 0 .621-.319l.865-2.706a.504.504 0 0 0-.321-.624L2.506 1.02a.5.5 0 0 0-.191-.019m4.455.361a.496.496 0 0 0-.494.496v2.85a.497.497 0 0 0 .494.495h2.828a.496.496 0 0 0 .499-.502V1.86a.495.495 0 0 0-.494-.496Zm4.901 0a.495.495 0 0 0-.492.496v2.85a.496.496 0 0 0 .492.495h2.834A.496.496 0 0 0 15 4.702V1.86a.495.495 0 0 0-.495-.496ZM9.926 6.126c-.076.004-.151.012-.23.012a1.16 1.16 0 0 0-.608.344.24.24 0 0 0-.1.122 2 2 0 0 0-.175.266 1.45 1.45 0 0 0-.168.644.4.4 0 0 0 .01.172.85.85 0 0 0 .233.488 1 1 0 0 0 .173.14 1.1 1.1 0 0 0 .438.152.45.45 0 0 0 .32-.09 1 1 0 0 0 .174-.148.9.9 0 0 1 .206-.19 1 1 0 0 1 .103-.03.2.2 0 0 1 .125.052c.036.023.048.064.071.099a.8.8 0 0 1 .069.181c.027.088.032.182.054.27a2 2 0 0 1 0 .27.7.7 0 0 1 0 .174 1 1 0 0 0-.029.152c.025-.006.035-.034.054-.057a1 1 0 0 0 .126-.251 2.8 2.8 0 0 0 .142-.791c-.012-.082-.004-.16-.023-.24a1.22 1.221 0 0 0-.188-.425.4.4 0 0 0-.265-.158.45.45 0 0 0-.252.067 1.7 1.7 0 0 0-.27.22c-.045.034-.073.082-.12.116-.081.077-.142.171-.226.24a1.6 1.6 0 0 1-.235.222.177.178 0 0 1-.106.028c-.053-.029-.041-.094-.064-.144a1.3 1.3 0 0 1-.013-.222 1.3 1.3 0 0 1 .146-.538 1 1 0 0 1 .095-.165q.05-.066.106-.126a.83.83 0 0 1 .403-.252.5.5 0 0 1 .171-.022.6.6 0 0 1 .385.168.9.9 0 0 1 .19.227 1 1 0 0 0 .11.195 2 2 0 0 0 0-.22 1.4 1.4 0 0 0-.252-.588 1 1 0 0 0-.329-.299.8.8 0 0 0-.251-.065m-8.07.14a.496.496 0 0 0-.493.496v2.84a.495.495 0 0 0 .494.496h2.831a.495.495 0 0 0 .494-.489V6.762a.497.497 0 0 0-.494-.497Zm9.815 0a.496.496 0 0 0-.492.496v2.84a.495.495 0 0 0 .492.496h2.834A.494.494 0 0 0 15 9.609V6.762a.496.496 0 0 0-.495-.497Zm-3.743.38a.6.6 0 0 0-.163.034.52.52 0 0 0-.268.222.27.27 0 0 0-.036.22.35.35 0 0 0 .21.213.5.5 0 0 0 .252.032.5.5 0 0 0 .22-.06.46.46 0 0 0 .218-.216.27.27 0 0 0 .012-.228.35.35 0 0 0-.126-.148.6.6 0 0 0-.319-.069m-2.152.148c-.025.007-.033.034-.052.056a1.2 1.2 0 0 0-.126.251 2.8 2.8 0 0 0-.14.791c.012.08.002.162.02.24a1.2 1.2 0 0 0 .189.425.4.4 0 0 0 .265.156.45.45 0 0 0 .252-.067 1.6 1.6 0 0 0 .272-.22c.049-.035.078-.08.126-.116.081-.075.14-.17.226-.24a1.6 1.6 0 0 1 .227-.212.177.178 0 0 1 .106-.026c.054.027.042.094.064.144.006.075.005.144.011.22a1.26 1.26 0 0 1-.144.539 1 1 0 0 1-.094.163c-.032.044-.074.084-.108.126a.85.85 0 0 1-.404.246.5.5 0 0 1-.17.022.6.6 0 0 1-.389-.168 1 1 0 0 1-.185-.226 1 1 0 0 0-.11-.197 2 2 0 0 0 0 .223 1.5 1.5 0 0 0 .251.585 1.1 1.1 0 0 0 .33.3.7.7 0 0 0 .251.066c.076-.003.15-.014.23-.014a1.16 1.16 0 0 0 .613-.342.27.27 0 0 0 .092-.128 2 2 0 0 0 .176-.263 1.44 1.44 0 0 0 .168-.647.4.4 0 0 0-.01-.17.9.9 0 0 0-.237-.488 1 1 0 0 0-.172-.137 1 1 0 0 0-.435-.157.46.46 0 0 0-.32.093 1 1 0 0 0-.174.152 1 1 0 0 1-.203.189 1 1 0 0 1-.104.031.3.3 0 0 1-.126-.053c-.035-.022-.049-.064-.07-.098a.7.7 0 0 1-.07-.183c-.028-.088-.03-.184-.053-.272a1.904 1.905 0 0 1 0-.267.6.6 0 0 1 0-.172 1 1 0 0 0 .027-.155m2.32.651a.36.36 0 0 0-.314.173.4.4 0 0 0-.039.163.86.861 0 0 0 .146.405 1.2 1.2 0 0 0 .252.28 1 1 0 0 0 .202.14 1.2 1.2 0 0 0 .408.144 2 2 0 0 0 .357.037c-.078-.098-.184-.16-.262-.25a1.2 1.2 0 0 1-.356-.534 1.5 1.5 0 0 1-.032-.312.29.29 0 0 0-.172-.195.44.44 0 0 0-.19-.05m-6.24 3.716a.495.495 0 0 0-.493.495v2.849a.495.495 0 0 0 .494.495h2.831a.496.496 0 0 0 .494-.5v-2.844a.496.496 0 0 0-.494-.495zm9.815 0a.495.495 0 0 0-.492.495v2.849a.495.495 0 0 0 .492.495h2.834a.495.495 0 0 0 .495-.5v-2.844a.495.495 0 0 0-.495-.495zm-4.901.005a.496.496 0 0 0-.494.49v2.849A.496.496 0 0 0 6.77 15h2.828a.495.495 0 0 0 .499-.495v-2.846a.495.495 0 0 0-.494-.493Z" class="ColorScheme-Text" fill="currentColor"/></svg>

