<svg xmlns="http://www.w3.org/2000/svg" xmlns:xlink="http://www.w3.org/1999/xlink" xml:space="preserve" id="svg154" width="24" height="24" fill="none" version="1.1"><defs id="defs152"><linearGradient id="linearGradient5358"><stop id="stop5354" offset="0" style="stop-color:#e6e6e6;stop-opacity:1"/><stop id="stop5356" offset="1" style="stop-color:#fff;stop-opacity:1"/></linearGradient><linearGradient xlink:href="#linearGradient5358" id="linearGradient5360" x1="13.523" x2="13.744" y1="34.648" y2="-9.855" gradientUnits="userSpaceOnUse"/><linearGradient xlink:href="#linearGradient5358" id="linearGradient9216" x1="13.523" x2="13.744" y1="34.648" y2="-9.855" gradientUnits="userSpaceOnUse"/><style id="current-color-scheme" type="text/css">.ColorScheme-Text{color:#31363b}.ColorScheme-Background{color:#eff0f1}.ColorScheme-Highlight{color:#3daee9}.ColorScheme-ViewText{color:#31363b}.ColorScheme-ViewBackground{color:#fcfcfc}.ColorScheme-ViewHover{color:#93cee9}.ColorScheme-ViewFocus{color:#3daee9}.ColorScheme-ButtonText{color:#31363b}.ColorScheme-ButtonBackground{color:#eff0f1}.ColorScheme-ButtonHover{color:#93cee9}.ColorScheme-ButtonFocus{color:#3daee9}</style></defs><g id="g2267" style="fill:url(#linearGradient5360);fill-opacity:1"><path id="path6" d="M50 5C9.09 5 5 25.455 5 50c0 32.727 12.273 45 45 45 32.727 0 45-12.273 45-45 0-24.545-4.09-45-45-45Z" style="font-variation-settings:normal;display:inline;opacity:1;vector-effect:none;fill:url(#linearGradient9216);fill-opacity:1;stroke-width:4.56656;stroke-linecap:butt;stroke-linejoin:miter;stroke-miterlimit:4;stroke-dasharray:none;stroke-dashoffset:0;stroke-opacity:1;-inkscape-stroke:none;stop-color:#000;stop-opacity:1" transform="translate(-.222 -.222) scale(.24444)"/></g><g id="g9082" transform="translate(14.601 2.674) scale(.72144)"><path id="path9061" d="M-13.499 17.747a11.106 11.106 0 0 1-.37-8.78c.166-.433.453-1.063.48-1.052.012.004 3.584 2.772 3.696 2.863l.027.022-.045.146a6.528 6.528 0 0 0 0 3.962c.044.145.044.147.024.167a844.04 844.04 0 0 1-3.64 2.83l-.069.054z" style="fill:#f9ba04;stroke-width:.0109562"/><path id="path9059" d="M2.243 20.038a468.298 468.298 0 0 1-1.815-1.412c-.019-.018-.017-.02.05-.067a5.483 5.483 0 0 0 1.24-1.189c.327-.435.581-.92.756-1.443.06-.182.154-.528.177-.657l.007-.041h-6.04V10.89h10.56l.012.058a13.204 13.204 0 0 1 .176 2.944c-.138 2.709-1.066 5.088-2.692 6.9-.13.144-.515.536-.585.595l-.05.043z" style="fill:#4184f2;stroke-width:.0109562"/><path id="path9053" d="M-9.83 10.662a881.055 881.055 0 0 0-1.429-1.108l-.685-.532c-1.163-.902-1.435-1.114-1.438-1.123-.008-.02.21-.425.406-.75a11.286 11.286 0 0 1 3.12-3.37 11.098 11.098 0 0 1 4.749-1.932 11.62 11.62 0 0 1 4.23.137 10.57 10.57 0 0 1 3.976 1.81c.292.214.697.546.952.782l.065.06L2.512 6.24.908 7.844l-.055-.053A6.254 6.254 0 0 0-.4 6.897c-1.479-.799-3.36-.947-5.014-.395-1.927.643-3.5 2.195-4.201 4.144a.868.868 0 0 1-.055.135c-.004 0-.076-.054-.16-.119z" style="fill:#e94234;stroke-width:.0109562"/><path id="path9051" d="M-3.721 24.135a11.13 11.13 0 0 1-4.158-.936 16.214 16.214 0 0 1-.865-.427 11.392 11.392 0 0 1-3.3-2.744 11.494 11.494 0 0 1-1.066-1.55c-.142-.25-.282-.517-.274-.524l.597-.463 1.818-1.412a360.74 360.74 0 0 1 1.263-.98c.027-.019.037-.021.041-.01a147 147 0 0 1 .043.118c.617 1.715 1.907 3.137 3.525 3.885 1.084.501 2.213.687 3.46.568 1.086-.103 2.067-.428 2.915-.965.107-.068.128-.078.142-.065.01.008.823.64 1.808 1.403l1.8 1.396c.008.008-.214.207-.426.38A10.078 10.078 0 0 1 .59 23.492c-1.345.47-2.77.683-4.311.643z" style="fill:#33a752;stroke-width:.0109562"/></g></svg>