<?xml version="1.0" encoding="UTF-8" standalone="no"?>
<svg
   width="24"
   height="24"
   viewBox="0 0 24 24"
   fill="none"
   version="1.1"
   id="svg154"
   sodipodi:docname="app.svg"
   inkscape:version="1.2.2 (b0a8486541, 2022-12-01)"
   xml:space="preserve"
   inkscape:export-filename="../../../../ícones big/app.svg"
   inkscape:export-xdpi="96"
   inkscape:export-ydpi="96"
   xmlns:inkscape="http://www.inkscape.org/namespaces/inkscape"
   xmlns:sodipodi="http://sodipodi.sourceforge.net/DTD/sodipodi-0.dtd"
   xmlns:xlink="http://www.w3.org/1999/xlink"
   xmlns="http://www.w3.org/2000/svg"
   xmlns:svg="http://www.w3.org/2000/svg"
   xmlns:sketch="http://www.bohemiancoding.com/sketch/ns"><sodipodi:namedview
     id="namedview156"
     pagecolor="#ffffff"
     bordercolor="#000000"
     borderopacity="1"
     inkscape:showpageshadow="0"
     inkscape:pageopacity="1"
     inkscape:pagecheckerboard="false"
     inkscape:deskcolor="#ffffff"
     showgrid="true"
     inkscape:zoom="32"
     inkscape:cx="9.609375"
     inkscape:cy="15.453125"
     inkscape:window-width="1920"
     inkscape:window-height="1052"
     inkscape:window-x="0"
     inkscape:window-y="0"
     inkscape:window-maximized="1"
     inkscape:current-layer="svg154"
     showguides="true"
     guidecolor="#ff0000"
     guideopacity="1"
     inkscape:lockguides="true"
     showborder="true"
     borderlayer="true"><inkscape:grid
       type="xygrid"
       id="grid356"
       color="#000000"
       opacity="0.10196078"
       empcolor="#000000"
       empopacity="0.10196078"
       snapvisiblegridlinesonly="true"
       enabled="true"
       visible="true"
       dotted="false" /><sodipodi:guide
       position="4,12"
       orientation="-1,0"
       id="guide764"
       inkscape:locked="true"
       inkscape:label="left-circle"
       inkscape:color="rgb(255,0,0)" /><sodipodi:guide
       position="5,12"
       orientation="-1,0"
       id="guide2218"
       inkscape:locked="true"
       inkscape:label="left-square"
       inkscape:color="rgb(255,0,0)" /><sodipodi:guide
       position="12,20"
       orientation="0,1"
       id="guide2220"
       inkscape:locked="true"
       inkscape:label="top-circle"
       inkscape:color="rgb(255,0,0)" /><sodipodi:guide
       position="12,5"
       orientation="0,1"
       id="guide2222"
       inkscape:locked="true"
       inkscape:label="bottom-square"
       inkscape:color="rgb(255,0,0)" /><sodipodi:guide
       position="12,4"
       orientation="0,1"
       id="guide2224"
       inkscape:locked="true"
       inkscape:label="bottom-circle"
       inkscape:color="rgb(255,0,0)" /><sodipodi:guide
       position="19,12"
       orientation="-1,0"
       id="guide2226"
       inkscape:locked="true"
       inkscape:label="right-square"
       inkscape:color="rgb(255,0,0)" /><sodipodi:guide
       position="20,12"
       orientation="-1,0"
       id="guide2228"
       inkscape:locked="true"
       inkscape:label="right-circle"
       inkscape:color="rgb(255,0,0)" /><sodipodi:guide
       position="12,19"
       orientation="0,1"
       id="guide2230"
       inkscape:locked="true"
       inkscape:label="top-square"
       inkscape:color="rgb(255,0,0)" /><sodipodi:guide
       position="12,12"
       orientation="1,0"
       id="guide765"
       inkscape:locked="true" /><sodipodi:guide
       position="12,12"
       orientation="0,-1"
       id="guide767"
       inkscape:locked="true" /><sodipodi:guide
       position="12,12"
       orientation="0.70710678,0.70710678"
       id="guide2266"
       inkscape:locked="true"
       inkscape:label=""
       inkscape:color="rgb(255,0,0)" /><sodipodi:guide
       position="12,12"
       orientation="-0.70710678,0.70710678"
       id="guide2994"
       inkscape:locked="true"
       inkscape:label=""
       inkscape:color="rgb(255,0,0)" /><sodipodi:guide
       position="3,12"
       orientation="-1,0"
       id="guide131543"
       inkscape:locked="true"
       inkscape:label="left-horizontal"
       inkscape:color="rgb(255,0,0)" /><sodipodi:guide
       position="12,21"
       orientation="0,1"
       id="guide131545"
       inkscape:locked="true"
       inkscape:label="top-vertical"
       inkscape:color="rgb(255,0,0)" /><sodipodi:guide
       position="21,12"
       orientation="-1,0"
       id="guide131547"
       inkscape:locked="true"
       inkscape:label="right-horizontal"
       inkscape:color="rgb(255,0,0)" /><sodipodi:guide
       position="12,3"
       orientation="0,1"
       id="guide131549"
       inkscape:locked="true"
       inkscape:label="bottom-vertical"
       inkscape:color="rgb(255,0,0)" /></sodipodi:namedview><defs
     id="defs152"><linearGradient
       inkscape:collect="always"
       id="linearGradient1692"><stop
         style="stop-color:#0055d4;stop-opacity:1"
         offset="0"
         id="stop1688" /><stop
         style="stop-color:#5599ff;stop-opacity:1"
         offset="1"
         id="stop1690" /></linearGradient><clipPath
       id="4d1fdaadd6-1"><path
         d="m 107,119 h 54 v 25 h -54 z m 0,0"
         clip-rule="nonzero"
         id="path262-8" /></clipPath><clipPath
       id="2625918612-7"><path
         d="m -4.78125,119.28906 c 0,-57.957029 46.984375,-104.941404 104.94141,-104.941404 57.96093,0 104.94531,46.984375 104.94531,104.941404 0,57.96094 -46.98438,104.94531 -104.94531,104.94531 -57.957035,0 -104.94141,-46.98437 -104.94141,-104.94531 z m 0,0"
         clip-rule="nonzero"
         id="path265-9" /></clipPath><linearGradient
       inkscape:collect="always"
       xlink:href="#linearGradient1692"
       id="linearGradient1694"
       x1="48.819595"
       y1="109.56651"
       x2="49.000389"
       y2="-8.8538036"
       gradientUnits="userSpaceOnUse"
       gradientTransform="matrix(0.24444444,0,0,0.24444444,-0.22222222,-0.22222222)" /></defs><path
     d="M 12,0.99999998 C 2,0.99999998 0.99999998,6 0.99999998,12 0.99999998,20 4.0000001,23 12,23 20,23 23,20 23,12 23,6 22,0.99999998 12,0.99999998 Z"
     sketch:type="MSShapeGroup"
     id="path6"
     style="font-variation-settings:normal;display:inline;opacity:1;vector-effect:none;fill:url(#linearGradient1694);fill-opacity:1;stroke-width:1.11627;stroke-linecap:butt;stroke-linejoin:miter;stroke-miterlimit:4;stroke-dasharray:none;stroke-dashoffset:0;stroke-opacity:1;-inkscape-stroke:none;stop-color:#000000;stop-opacity:1"
     sodipodi:nodetypes="sssss"
     inkscape:label="Shape"
     sodipodi:insensitive="true" /><g
     clip-path="url(#4d1fdaadd6-1)"
     id="g292"
     transform="matrix(0.11071613,0,0,0.11071613,2.4061328,-2.5788126)"
     style="fill:none"
     inkscape:export-filename="../../../../ícones big/g292.svg"
     inkscape:export-xdpi="96"
     inkscape:export-ydpi="96"><g
       clip-path="url(#2625918612-7)"
       id="g290"><path
         fill="#ffffff"
         d="M 107.85156,119.89844 V 143.375 h 3.875 v -8.85938 h 2.55078 c 2.34766,0 4,-0.23046 4.96094,-0.6914 0.96094,-0.46875 1.76172,-1.27344 2.40235,-2.41797 0.64062,-1.14844 0.96093,-2.57031 0.96093,-4.26953 0,-1.86719 -0.37109,-3.39453 -1.11328,-4.58203 -0.74219,-1.1836 -1.68359,-1.95703 -2.82422,-2.32031 -0.71484,-0.22266 -2.23828,-0.33594 -4.5664,-0.33594 z m 18.98438,0 h 7.08984 c 1.78906,0 3.14063,0.19922 4.05469,0.60156 0.91015,0.39844 1.75,1.07422 2.51953,2.02344 0.76562,0.95312 1.37109,2.18359 1.80859,3.70312 0.4375,1.51563 0.65625,3.39844 0.65625,5.65235 0,2.02734 -0.23047,3.78906 -0.6914,5.28906 -0.45703,1.5 -1.03907,2.6875 -1.74219,3.5625 -0.70313,0.8789 -1.55469,1.53515 -2.55078,1.98047 -0.9961,0.4414 -2.28125,0.66406 -3.84766,0.66406 h -7.29687 z m 20.52343,23.47656 v -23.47656 h 13.19532 v 3.97265 h -9.32032 v 5.55469 h 8.07032 v 3.97266 h -8.07032 v 9.97656 z m -16.64453,-19.50391 v 15.53125 h 2.91407 c 1.25,0 2.15234,-0.11718 2.71093,-0.35156 0.5586,-0.22656 1.01563,-0.58203 1.37891,-1.0625 0.35547,-0.47656 0.65625,-1.22656 0.89062,-2.24609 0.23438,-1.02735 0.35157,-2.375 0.35157,-4.05078 0,-1.73829 -0.1211,-3.10547 -0.35938,-4.10938 -0.24219,-1.0039 -0.61328,-1.79297 -1.12109,-2.36719 -0.50781,-0.57812 -1.125,-0.95312 -1.85156,-1.13671 -0.54297,-0.14063 -1.59375,-0.20704 -3.15235,-0.20704 h -1.76562 z m -18.98828,6.67578 v -6.67578 h 1.89844 c 1.625,0 2.6875,0.0898 3.19141,0.27344 0.5039,0.17969 0.92578,0.53906 1.26953,1.07422 0.33984,0.53516 0.51172,1.19141 0.51172,1.97266 0,0.76953 -0.16797,1.42187 -0.4961,1.95312 -0.33203,0.52734 -0.75781,0.89453 -1.27734,1.09766 -0.51953,0.20312 -1.5,0.30468 -2.94531,0.30468 z m 0,0"
         fill-opacity="1"
         fill-rule="evenodd"
         id="path288" /></g></g><path
     style="fill:#ffffff;stroke:none;stroke-width:0.0575825"
     d="m 3.6793327,9.2347295 v 5.5279175 h 4.4338504 c 0.542346,0 1.3910775,-0.161692 1.8979189,0.03472 0.342442,0.132728 0.561716,0.67026 0.786346,0.944179 0.40705,0.496419 0.910436,0.912798 1.461674,1.240731 2.767758,1.64657 6.541252,0.63617 8.061545,-2.219632 h -3.512531 c -0.421043,0 -1.115084,0.131863 -1.497144,-0.0592 -2.090992,-1.045526 -2.086904,-4.357381 0,-5.4008325 0.390352,-0.1951645 1.068385,-0.067886 1.497144,-0.067886 h 3.454948 C 20.049165,8.5633812 19.418925,7.936308 18.881104,7.5074799 17.050558,6.0478224 14.349421,5.7759235 12.316703,7.0007427 11.703105,7.3704739 11.171388,7.8144348 10.719423,8.3709924 10.525312,8.6099829 10.320952,9.130966 10.008049,9.216418 9.4199018,9.3770155 8.607949,9.2347286 7.9980179,9.2347286 Z"
     id="path1961" /></svg>
