<?xml version="1.0" encoding="UTF-8" standalone="no"?>
<svg
   width="24"
   height="24"
   viewBox="0 0 24 24"
   fill="none"
   version="1.1"
   id="svg154"
   sodipodi:docname="app.svg"
   inkscape:version="1.2.2 (b0a8486541, 2022-12-01)"
   xml:space="preserve"
   inkscape:export-filename="../../../../ícones big/disney-plus.svg"
   inkscape:export-xdpi="96"
   inkscape:export-ydpi="96"
   xmlns:inkscape="http://www.inkscape.org/namespaces/inkscape"
   xmlns:sodipodi="http://sodipodi.sourceforge.net/DTD/sodipodi-0.dtd"
   xmlns:xlink="http://www.w3.org/1999/xlink"
   xmlns="http://www.w3.org/2000/svg"
   xmlns:svg="http://www.w3.org/2000/svg"
   xmlns:sketch="http://www.bohemiancoding.com/sketch/ns"><sodipodi:namedview
     id="namedview156"
     pagecolor="#ffffff"
     bordercolor="#000000"
     borderopacity="1"
     inkscape:showpageshadow="0"
     inkscape:pageopacity="1"
     inkscape:pagecheckerboard="false"
     inkscape:deskcolor="#ffffff"
     showgrid="true"
     inkscape:zoom="32"
     inkscape:cx="9.609375"
     inkscape:cy="15.453125"
     inkscape:window-width="1920"
     inkscape:window-height="1052"
     inkscape:window-x="0"
     inkscape:window-y="0"
     inkscape:window-maximized="1"
     inkscape:current-layer="svg154"
     showguides="true"
     guidecolor="#ff0000"
     guideopacity="1"
     inkscape:lockguides="true"
     showborder="true"
     borderlayer="true"><inkscape:grid
       type="xygrid"
       id="grid356"
       color="#000000"
       opacity="0.10196078"
       empcolor="#000000"
       empopacity="0.10196078"
       snapvisiblegridlinesonly="true"
       enabled="true"
       visible="true"
       dotted="false" /><sodipodi:guide
       position="4,12"
       orientation="-1,0"
       id="guide764"
       inkscape:locked="true"
       inkscape:label="left-circle"
       inkscape:color="rgb(255,0,0)" /><sodipodi:guide
       position="5,12"
       orientation="-1,0"
       id="guide2218"
       inkscape:locked="true"
       inkscape:label="left-square"
       inkscape:color="rgb(255,0,0)" /><sodipodi:guide
       position="12,20"
       orientation="0,1"
       id="guide2220"
       inkscape:locked="true"
       inkscape:label="top-circle"
       inkscape:color="rgb(255,0,0)" /><sodipodi:guide
       position="12,5"
       orientation="0,1"
       id="guide2222"
       inkscape:locked="true"
       inkscape:label="bottom-square"
       inkscape:color="rgb(255,0,0)" /><sodipodi:guide
       position="12,4"
       orientation="0,1"
       id="guide2224"
       inkscape:locked="true"
       inkscape:label="bottom-circle"
       inkscape:color="rgb(255,0,0)" /><sodipodi:guide
       position="19,12"
       orientation="-1,0"
       id="guide2226"
       inkscape:locked="true"
       inkscape:label="right-square"
       inkscape:color="rgb(255,0,0)" /><sodipodi:guide
       position="20,12"
       orientation="-1,0"
       id="guide2228"
       inkscape:locked="true"
       inkscape:label="right-circle"
       inkscape:color="rgb(255,0,0)" /><sodipodi:guide
       position="12,19"
       orientation="0,1"
       id="guide2230"
       inkscape:locked="true"
       inkscape:label="top-square"
       inkscape:color="rgb(255,0,0)" /><sodipodi:guide
       position="12,12"
       orientation="1,0"
       id="guide765"
       inkscape:locked="true" /><sodipodi:guide
       position="12,12"
       orientation="0,-1"
       id="guide767"
       inkscape:locked="true" /><sodipodi:guide
       position="12,12"
       orientation="0.70710678,0.70710678"
       id="guide2266"
       inkscape:locked="true"
       inkscape:label=""
       inkscape:color="rgb(255,0,0)" /><sodipodi:guide
       position="12,12"
       orientation="-0.70710678,0.70710678"
       id="guide2994"
       inkscape:locked="true"
       inkscape:label=""
       inkscape:color="rgb(255,0,0)" /><sodipodi:guide
       position="3,12"
       orientation="-1,0"
       id="guide131543"
       inkscape:locked="true"
       inkscape:label="left-horizontal"
       inkscape:color="rgb(255,0,0)" /><sodipodi:guide
       position="12,21"
       orientation="0,1"
       id="guide131545"
       inkscape:locked="true"
       inkscape:label="top-vertical"
       inkscape:color="rgb(255,0,0)" /><sodipodi:guide
       position="21,12"
       orientation="-1,0"
       id="guide131547"
       inkscape:locked="true"
       inkscape:label="right-horizontal"
       inkscape:color="rgb(255,0,0)" /><sodipodi:guide
       position="12,3"
       orientation="0,1"
       id="guide131549"
       inkscape:locked="true"
       inkscape:label="bottom-vertical"
       inkscape:color="rgb(255,0,0)" /></sodipodi:namedview><defs
     id="defs152"><linearGradient
       inkscape:collect="always"
       id="linearGradient19097"><stop
         style="stop-color:#0044aa;stop-opacity:1"
         offset="0"
         id="stop19093" /><stop
         style="stop-color:#00ccff;stop-opacity:1"
         offset="0.55260885"
         id="stop19101" /><stop
         style="stop-color:#000bad;stop-opacity:1"
         offset="1"
         id="stop19095" /></linearGradient><linearGradient
       id="linearGradient17063"
       inkscape:swatch="solid"><stop
         style="stop-color:#ffffff;stop-opacity:1;"
         offset="0"
         id="stop17061" /></linearGradient><linearGradient
       id="linearGradient1249"
       inkscape:swatch="solid"><stop
         style="stop-color:#000000;stop-opacity:1;"
         offset="0"
         id="stop1247" /></linearGradient><linearGradient
       inkscape:collect="always"
       id="linearGradient442"><stop
         style="stop-color:#1a1a1a;stop-opacity:1"
         offset="0"
         id="stop438" /><stop
         style="stop-color:#e6e6e6;stop-opacity:1"
         offset="1"
         id="stop440" /></linearGradient><linearGradient
       inkscape:collect="always"
       xlink:href="#linearGradient442"
       id="linearGradient444"
       x1="50.989124"
       y1="93.4758"
       x2="50.265949"
       y2="-13.192868"
       gradientUnits="userSpaceOnUse"
       gradientTransform="matrix(0.24444444,0,0,0.24444444,-0.22222222,-0.22222222)" /><linearGradient
       inkscape:collect="always"
       xlink:href="#linearGradient19097"
       id="linearGradient19099"
       x1="1.9445437"
       y1="13.656"
       x2="17.500893"
       y2="10.562407"
       gradientUnits="userSpaceOnUse" /></defs><path
     d="M 12,0.99999998 C 2,0.99999998 0.99999998,6 0.99999998,12 0.99999998,20 4.0000001,23 12,23 20,23 23,20 23,12 23,6 22,0.99999998 12,0.99999998 Z"
     sketch:type="MSShapeGroup"
     id="path6"
     style="font-variation-settings:normal;display:inline;opacity:1;vector-effect:none;fill:url(#linearGradient444);fill-opacity:1;stroke-width:1.11627;stroke-linecap:butt;stroke-linejoin:miter;stroke-miterlimit:4;stroke-dasharray:none;stroke-dashoffset:0;stroke-opacity:1;-inkscape-stroke:none;stop-color:#000000;stop-opacity:1"
     sodipodi:nodetypes="sssss"
     inkscape:label="Shape"
     sodipodi:insensitive="true" /><path
     style="fill:#eff0f7;stroke-width:0.0163519"
     d="m 11.032045,14.916061 c 0.01124,-0.0046 0.02963,-0.0046 0.04088,0 0.01124,0.0046 0.002,0.0082 -0.02044,0.0082 -0.02248,0 -0.03168,-0.0037 -0.02044,-0.0082 z M 6.8459602,14.81795 c 0.011242,-0.0046 0.029638,-0.0046 0.04088,0 0.011242,0.0046 0.00204,0.0082 -0.02044,0.0082 -0.022484,0 -0.031682,-0.0037 -0.02044,-0.0082 z m 0.082781,-3.4e-4 c 0.011804,-0.0047 0.025907,-0.0042 0.031341,0.0013 0.00543,0.0054 -0.00422,0.0093 -0.021462,0.0086 -0.019049,-7.74e-4 -0.022924,-0.0046 -0.00988,-0.0099 z"
     id="path18197" /><path
     style="fill:#dde0ee;stroke-width:0.0163519"
     d="m 6.9614455,15.275462 c 0.011804,-0.0047 0.025907,-0.0042 0.031341,0.0013 0.00543,0.0054 -0.00422,0.0093 -0.021462,0.0086 -0.01905,-7.74e-4 -0.022924,-0.0046 -0.00988,-0.0099 z m 0.1798708,0 c 0.011804,-0.0047 0.025907,-0.0042 0.031341,0.0013 0.00543,0.0054 -0.00422,0.0093 -0.021462,0.0086 -0.01905,-7.74e-4 -0.022924,-0.0046 -0.00988,-0.0099 z"
     id="path18171" /><path
     style="fill:#cdd1e4;stroke-width:0.0163519"
     d="m 7.034007,15.275361 c 0.015739,-0.0041 0.041493,-0.0041 0.057231,0 0.015739,0.0041 0.00286,0.0075 -0.028616,0.0075 -0.031477,0 -0.044355,-0.0033 -0.028616,-0.0075 z m 3.65567,-1.30805 c 0.01181,-0.0047 0.0259,-0.0042 0.03134,0.0013 0.0054,0.0054 -0.0043,0.0093 -0.02146,0.0086 -0.01905,-7.74e-4 -0.02293,-0.0046 -0.0099,-0.0099 z"
     id="path18149" /><path
     style="fill:#b0b5d5;stroke-width:0.0163519"
     d="m 10.232804,14.587589 c -0.02034,-0.02593 -0.01976,-0.02652 0.0062,-0.0062 0.01574,0.01234 0.02862,0.02522 0.02862,0.02861 0,0.01346 -0.01343,0.0048 -0.03479,-0.02244 z M 6.1658504,13.553332 c 0,-0.02248 0.00371,-0.03168 0.00825,-0.02044 0.00453,0.01124 0.00453,0.02963 0,0.04088 -0.00453,0.01124 -0.00825,0.002 -0.00825,-0.02044 z"
     id="path18121" /><path
     style="fill:#abb1d3;stroke-width:0.0163519"
     d="m 5.9312762,15.471685 c 0.011804,-0.0047 0.025907,-0.0042 0.031341,0.0013 0.00543,0.0054 -0.00422,0.0093 -0.021462,0.0086 -0.01905,-7.73e-4 -0.022924,-0.0046 -0.00988,-0.0099 z m 0.2357861,-1.836594 c 0,-0.03147 0.00337,-0.04436 0.00747,-0.02861 0.00412,0.01574 0.00412,0.0415 0,0.05723 -0.00412,0.01574 -0.00747,0.0029 -0.00747,-0.02861 z m 8.9212747,-0.69795 c 0.0118,-0.0047 0.02591,-0.0042 0.03134,0.0013 0.0054,0.0054 -0.0043,0.0093 -0.02146,0.0086 -0.01905,-7.73e-4 -0.02293,-0.0046 -0.0099,-0.0099 z m 0.113441,3.41e-4 c 0.01124,-0.0046 0.02964,-0.0046 0.04088,0 0.01124,0.0046 0.002,0.0082 -0.02044,0.0082 -0.02249,0 -0.03168,-0.0037 -0.02044,-0.0082 z"
     id="path18117" /><path
     style="fill:#6670ae;stroke-width:0.0163519"
     d="m 18.236075,13.492038 c 0.14221,-0.0027 0.370318,-0.0027 0.506909,1.3e-5 0.13659,0.0027 0.02023,0.005 -0.258563,0.005 -0.2788,-6e-6 -0.390555,-0.0022 -0.248346,-0.005 z m 1.397067,3e-6 c 0.146145,-0.0027 0.385291,-0.0027 0.531436,0 0.146145,0.0027 0.02657,0.005 -0.265718,0.005 -0.29229,0 -0.411864,-0.0022 -0.265718,-0.005 z"
     id="path18043" /><path
     style="fill:#44529e;stroke-width:0.0163519"
     d="m 16.264652,14.932414 c 0.01124,-0.0046 0.02963,-0.0046 0.04088,0 0.01124,0.0046 0.002,0.0082 -0.02044,0.0082 -0.02248,0 -0.03168,-0.0037 -0.02044,-0.0082 z M 6.2000604,13.476652 c 0.015739,-0.0041 0.041493,-0.0041 0.057231,0 0.015739,0.0041 0.00286,0.0075 -0.028616,0.0075 -0.031477,0 -0.044355,-0.0033 -0.028616,-0.0075 z M 11.14753,12.937141 c 0.01181,-0.0047 0.0259,-0.0042 0.03134,0.0013 0.0054,0.0054 -0.0043,0.0093 -0.02146,0.0086 -0.01905,-7.73e-4 -0.02293,-0.0046 -0.0099,-0.0099 z m 0.196223,0 c 0.01181,-0.0047 0.0259,-0.0042 0.03134,0.0013 0.0054,0.0054 -0.0043,0.0093 -0.02146,0.0086 -0.01905,-7.73e-4 -0.02293,-0.0046 -0.0099,-0.0099 z"
     id="path18021" /><path
     style="fill:#334295;stroke-width:0.0163519"
     d="m 15.222218,14.642735 c 0,-0.0034 0.01288,-0.01627 0.02861,-0.02861 0.02594,-0.02034 0.02652,-0.01976 0.0062,0.0062 -0.02136,0.02723 -0.03479,0.0359 -0.03479,0.02244 z m 4.154672,-0.47757 c 7.74e-4,-0.01905 0.0046,-0.02293 0.0099,-0.0099 0.0047,0.01181 0.0042,0.0259 -0.0013,0.03134 -0.0054,0.0054 -0.0093,-0.0043 -0.0086,-0.02146 z m -4.542718,-0.475998 c 0.01591,-0.0042 0.03798,-0.0039 0.04905,6.07e-4 0.01107,0.0045 -0.0019,0.0079 -0.02893,0.0075 -0.02698,-3.33e-4 -0.03604,-0.004 -0.02013,-0.0081 z m -3.605714,-0.75242 c 0.02034,-0.0039 0.04978,-0.0038 0.06541,3.3e-4 0.01564,0.0041 -10e-4,0.0073 -0.03698,0.0071 -0.03597,-1.82e-4 -0.04876,-0.0036 -0.02843,-0.0074 z M 4.5079322,11.20316 c 0.02939,-0.0036 0.07354,-0.0036 0.098111,1.67e-4 0.024571,0.0037 5.247e-4,0.0067 -0.053437,0.0067 -0.053962,-9.8e-5 -0.074065,-0.0032 -0.044675,-0.0068 z"
     id="path18011" /><path
     style="fill:#23348d;stroke-width:0.0163519"
     d="m 19.093961,14.963952 c 0.03846,-0.0035 0.09733,-0.0034 0.130815,1.15e-4 0.03349,0.0035 0.002,0.0063 -0.06993,0.0063 -0.07195,-6.5e-5 -0.09935,-0.0029 -0.06089,-0.0064 z m -8.044542,-0.604196 c 0.0118,-0.0047 0.0259,-0.0042 0.03134,0.0013 0.0054,0.0054 -0.0043,0.0093 -0.02146,0.0086 -0.01905,-7.73e-4 -0.02293,-0.0046 -0.0099,-0.0099 z m 3.859047,-0.670428 c 0.0118,-0.0047 0.0259,-0.0042 0.03134,0.0013 0.0054,0.0054 -0.0043,0.0093 -0.02146,0.0086 -0.01905,-7.73e-4 -0.02293,-0.0046 -0.0099,-0.0099 z"
     id="path17999" /><path
     style="fill:#1b2c88;stroke-width:0.0163519"
     d="m 20.492893,13.692323 c 0,-0.06295 0.003,-0.08671 0.0066,-0.05278 0.0036,0.03393 0.0035,0.08544 -1.64e-4,0.114463 -0.0036,0.02903 -0.0065,0.0012 -0.0064,-0.06168 z"
     id="path17987" /><path
     style="fill:#05187e;stroke-width:0.0163519"
     d="m 10.249156,14.587589 c -0.02034,-0.02593 -0.01976,-0.02652 0.0062,-0.0062 0.01574,0.01234 0.02862,0.02522 0.02862,0.02861 0,0.01346 -0.01343,0.0048 -0.03479,-0.02244 z"
     id="path17965" /><path
     style="fill:url(#linearGradient19099);fill-opacity:1;stroke-width:0.0163519"
     d="m 15.496387,14.831935 c -0.12073,-0.08746 -0.212817,-0.231743 -0.250767,-0.392919 -0.05798,-0.246252 0.06412,-0.782475 0.30792,-1.352251 l 0.09727,-0.227328 -0.02939,-0.05772 c -0.09743,-0.191308 -0.107982,-0.493323 -0.02585,-0.739661 0.09091,-0.272686 0.247747,-0.526379 0.464247,-0.750963 0.129043,-0.133863 0.188533,-0.176975 0.211925,-0.153583 0.02186,0.02186 0.0032,0.194895 -0.02893,0.267634 -0.0187,0.0424 -0.09553,0.187465 -0.170725,0.322367 -0.07519,0.134904 -0.152493,0.296788 -0.171771,0.359742 -0.04192,0.136891 -0.06149,0.309622 -0.03681,0.324873 0.0096,0.006 0.06525,-0.05927 0.126994,-0.148961 0.44804,-0.650818 0.869399,-0.996222 1.123314,-0.920823 0.107736,0.03199 0.199387,0.138042 0.24429,0.282672 0.04583,0.147602 0.04889,0.402597 0.0069,0.576251 -0.100427,0.415508 -0.530414,0.869298 -0.906833,0.957031 -0.04998,0.01165 -0.142713,0.01718 -0.21652,0.01291 l -0.129094,-0.0075 -0.05135,0.132191 c -0.162968,0.41952 -0.269345,0.801023 -0.340446,1.220946 -0.02525,0.149138 -0.05445,0.287107 -0.06488,0.306598 -0.02611,0.04879 -0.08179,0.04477 -0.159496,-0.01152 z m 1.018873,-2.161991 c 0.255631,-0.07788 0.456211,-0.247572 0.573759,-0.485416 0.05216,-0.105537 0.06074,-0.139794 0.06681,-0.266791 0.0077,-0.159804 -0.0056,-0.194757 -0.07355,-0.194757 -0.04528,0 -0.144069,0.09615 -0.310822,0.30251 -0.124313,0.153845 -0.348341,0.48358 -0.406413,0.598179 l -0.04075,0.08042 h 0.03943 c 0.02169,0 0.08988,-0.01537 0.15153,-0.03415 z M 5.859635,13.705622 C 5.7841571,13.667917 5.7199369,13.538665 5.6912549,13.366735 l -0.021758,-0.130426 -0.1542974,-0.0796 C 5.1192948,12.952469 4.737635,12.644509 4.4780348,12.319825 4.3851958,12.20371 4.3551324,12.138582 4.3556198,12.054632 c 0.00117,-0.200697 0.2260264,-0.384179 0.6759013,-0.551522 0.1702086,-0.06332 0.5744222,-0.172575 0.6384432,-0.172575 0.036647,0 0.03821,-0.0058 0.049223,-0.183959 0.020526,-0.331979 0.079308,-0.678384 0.1326063,-0.78145 0.014389,-0.02782 0.038218,-0.0484 0.056043,-0.0484 0.038498,0 0.1418937,0.116577 0.182103,0.205318 0.041689,0.09201 0.079374,0.321778 0.091446,0.557558 l 0.010175,0.198736 0.2223949,7.73e-4 c 0.2282826,7.74e-4 0.3350892,0.01193 0.6475441,0.06749 0.4179734,0.07431 0.7042383,0.232697 0.8080059,0.447052 0.067398,0.139225 0.02897,0.325837 -0.09201,0.446817 -0.1224037,0.122394 -0.2664652,0.155254 -0.4233332,0.09655 -0.1516723,-0.05676 -0.1491706,-0.07639 0.020018,-0.157142 0.1109316,-0.05294 0.1420695,-0.0896 0.133916,-0.15767 -0.00672,-0.05614 -0.062274,-0.09517 -0.2034284,-0.142928 -0.2025576,-0.06853 -0.741137,-0.139056 -1.0675025,-0.139788 l -0.072146,-1.64e-4 0.011033,0.640656 c 0.00607,0.352361 0.014709,0.644332 0.019202,0.648825 0.024013,0.02401 0.2992906,0.05349 0.5800867,0.06211 0.2552756,0.0078 0.3547311,0.0043 0.4987327,-0.01783 0.9036958,-0.138801 1.3893273,-0.528697 1.3862869,-1.113 C 8.6584907,11.600361 8.4941029,11.280204 8.117847,10.903492 7.4613724,10.246222 6.3795929,9.7206172 5.3105725,9.5395202 c -0.5604468,-0.09494 -1.130211,-0.08743 -1.4663084,0.01933 -0.096846,0.03076 -0.099974,0.0642 -0.00818,0.08739 0.1884394,0.0476 0.2278817,0.08485 0.1363143,0.128739 -0.058831,0.0282 -0.277016,0.03021 -0.344801,0.0032 -0.073233,-0.02921 -0.1226392,-0.08272 -0.1226392,-0.132836 0,-0.04755 0.1033867,-0.214348 0.1809341,-0.291895 0.072893,-0.07289 0.459601,-0.177592 0.7872712,-0.213148 0.8680673,-0.0942 2.0846096,0.196194 2.997129,0.715424 0.7779275,0.4426468 1.3188982,0.9635568 1.5858025,1.5269968 0.1492071,0.31498 0.1832828,0.598736 0.1086123,0.90444 -0.1263577,0.517313 -0.5017274,0.879207 -1.1282914,1.087782 -0.5416749,0.180318 -1.152942,0.206029 -1.7265326,0.07262 -0.1096703,-0.02551 -0.122539,-0.01843 -0.1229641,0.06764 -5.003e-4,0.101208 -0.029708,0.148272 -0.1147129,0.18484 -0.096941,0.0417 -0.1381669,0.04279 -0.2125753,0.0056 z M 5.6695833,12.781766 c 0.0059,-0.05621 0.015397,-0.31063 0.021122,-0.565377 l 0.010408,-0.463178 -0.1210498,0.01079 c -0.2289969,0.02041 -0.5693297,0.07401 -0.7211503,0.113571 -0.2782842,0.07251 -0.3564853,0.120554 -0.3564853,0.218993 0,0.05003 0.016208,0.07283 0.129269,0.181861 0.2236824,0.215713 0.5210833,0.407905 0.8518446,0.550495 0.1726199,0.07442 0.1733165,0.07424 0.1860419,-0.04716 z m 8.5703977,0.508739 c -0.147927,-0.03417 -0.299483,-0.199612 -0.337186,-0.368089 -0.02411,-0.107744 -0.0048,-0.257837 0.05919,-0.460456 0.04071,-0.128887 0.04133,-0.136763 0.01704,-0.21856 -0.04808,-0.161916 -0.02368,-0.215292 0.108123,-0.2365 0.05728,-0.0092 0.06273,-0.0161 0.132283,-0.167205 l 0.07255,-0.157594 -0.07526,-0.01722 c -0.102011,-0.02334 -0.174205,-0.06868 -0.219327,-0.137711 -0.05626,-0.08607 -0.06099,-0.108821 -0.02874,-0.138012 0.06326,-0.05725 0.642282,-0.147834 1.068877,-0.167218 0.216357,-0.0098 0.237654,-0.0081 0.300485,0.02392 0.114025,0.05817 0.266763,0.269876 0.241745,0.335074 -0.0055,0.01431 -0.03325,0.03363 -0.06167,0.04294 -0.06804,0.02228 -0.418682,0.06267 -0.66509,0.07658 l -0.196207,0.01109 -0.0392,0.12427 -0.0392,0.124268 0.27963,0.0045 c 0.33268,0.0053 0.338552,0.0079 0.338552,0.14975 0,0.171217 -0.0083,0.174629 -0.473185,0.193765 l -0.285138,0.01174 -0.05394,0.179871 c -0.02966,0.09893 -0.05404,0.18613 -0.05416,0.193781 -3.05e-4,0.01896 0.0884,0.0082 0.429453,-0.05231 0.159876,-0.02834 0.317387,-0.05154 0.350022,-0.05154 0.127833,0 0.240397,0.158822 0.178988,0.252543 -0.09899,0.151073 -0.540674,0.38954 -0.820763,0.443129 -0.138167,0.02644 -0.136126,0.02639 -0.227859,0.0052 z M 9.5878668,13.208195 C 9.4594024,13.171815 9.4334259,13.105687 9.415451,12.769307 9.402089,12.519263 9.432507,11.720306 9.463112,11.517406 c 0.024991,-0.165682 0.04215,-0.207553 0.1008026,-0.245984 0.03697,-0.02423 0.043607,-0.02424 0.080226,-2.5e-4 0.049215,0.03225 0.1281318,0.14621 0.1542222,0.222711 0.046051,0.135027 0.088228,1.481255 0.050767,1.620375 -0.026674,0.09906 -0.1220718,0.133361 -0.2612624,0.09394 z m 9.4036652,-0.01106 c -0.01056,-0.01974 -0.01077,-0.08074 -5.88e-4,-0.175784 0.0086,-0.08005 0.02044,-0.309279 0.02639,-0.509385 l 0.01079,-0.36383 h -0.518432 -0.518431 l -0.04188,-0.04187 c -0.0387,-0.03869 -0.04142,-0.05093 -0.03585,-0.16125 0.0034,-0.06812 0.01558,-0.130882 0.02827,-0.146173 0.01975,-0.02381 0.0806,-0.02679 0.544893,-0.02679 h 0.522653 l -0.01073,-0.126728 c -0.01892,-0.223447 -0.05723,-0.529677 -0.09314,-0.744683 -0.02731,-0.163537 -0.03063,-0.21347 -0.01516,-0.228926 0.01253,-0.01253 0.07378,-0.01977 0.167435,-0.01977 0.119414,0 0.151511,0.0053 0.167754,0.02747 0.03486,0.04767 0.140244,0.802122 0.140633,1.00679 l 1.64e-4,0.08585 h 0.544517 c 0.401712,0 0.549664,0.0052 0.564139,0.01962 0.01227,0.01227 0.01962,0.0732 0.01962,0.162592 0,0.206578 0.03864,0.193879 -0.589898,0.193879 h -0.517216 l -0.01112,0.421062 c -0.01273,0.482072 -0.02566,0.620992 -0.0598,0.642591 -0.01311,0.0083 -0.08795,0.01518 -0.16633,0.01532 -0.12203,2.14e-4 -0.144829,-0.0041 -0.158681,-0.02998 z m -8.100041,-0.03673 c -0.228309,-0.0304 -0.420761,-0.119625 -0.583995,-0.270751 -0.173913,-0.161013 -0.210942,-0.326156 -0.103165,-0.460095 0.111005,-0.13795 0.213299,-0.174175 0.487289,-0.172557 0.240199,0.0014 0.477542,0.04824 0.629549,0.124184 0.08762,0.04378 0.106287,0.06017 0.106287,0.09333 0,0.08252 -0.152244,0.147843 -0.34339,0.147328 -0.144892,-3.91e-4 -0.225986,-0.01924 -0.364079,-0.08465 -0.13944,-0.06604 -0.28247,-0.08124 -0.333336,-0.03542 -0.08845,0.07967 -0.06938,0.169735 0.04736,0.223649 0.07081,0.0327 0.103249,0.03586 0.363897,0.03549 0.313632,-4.5e-4 0.477743,-0.0289 0.673509,-0.116753 0.09665,-0.04338 0.209493,-0.148079 0.209493,-0.194382 0,-0.155746 -0.265411,-0.23408 -0.936723,-0.276467 -0.349385,-0.02206 -0.520901,-0.04807 -0.601524,-0.09122 -0.08002,-0.04283 -0.104824,-0.221744 -0.05447,-0.39294 0.06299,-0.214148 0.348938,-0.366819 0.840524,-0.448776 0.139445,-0.02324 0.230054,-0.02687 0.482381,-0.01931 0.390531,0.01172 0.61083,0.058 0.640186,0.134505 0.0142,0.03701 -0.05868,0.169813 -0.106872,0.194732 -0.02604,0.01346 -0.173062,0.03334 -0.362155,0.04896 -0.585322,0.04836 -1.009649,0.104745 -1.095041,0.145507 -0.02741,0.01308 -0.04088,0.03291 -0.04088,0.06017 0,0.0376 0.0086,0.04212 0.114464,0.05999 0.06295,0.01063 0.21748,0.02745 0.343389,0.03736 0.592615,0.04666 0.74218,0.07832 0.894958,0.189431 0.122063,0.08877 0.164694,0.187857 0.172905,0.401874 0.0087,0.227786 -0.02088,0.337303 -0.11689,0.432161 -0.160995,0.159067 -0.645409,0.27701 -0.963677,0.23463 z m 1.327361,-0.03563 c -0.09029,-0.06041 -0.11693,-0.16539 -0.117118,-0.461556 -1.76e-4,-0.27892 0.02156,-0.486426 0.08037,-0.767263 0.06837,-0.326507 0.144353,-0.488538 0.249523,-0.532102 0.04283,-0.01774 0.05686,-0.0163 0.103195,0.01055 0.0991,0.05744 0.323539,0.361778 0.601412,0.815516 0.135291,0.220915 0.182212,0.277776 0.217914,0.264076 0.01917,-0.0074 0.02737,-0.02977 0.02737,-0.0748 0,-0.1473 -0.123741,-0.735963 -0.236364,-1.124441 -0.06571,-0.226643 -0.04958,-0.34434 0.04394,-0.320753 0.06288,0.01586 0.295882,0.263636 0.365201,0.388359 0.07494,0.13485 0.158041,0.375555 0.189104,0.547788 0.01298,0.07201 0.02148,0.227286 0.02057,0.376094 -0.0023,0.381218 -0.06,0.593834 -0.194796,0.718092 -0.077,0.07097 -0.15117,0.09348 -0.248983,0.07555 -0.130724,-0.02396 -0.3052,-0.253152 -0.566828,-0.744587 -0.06943,-0.130406 -0.137039,-0.24814 -0.150252,-0.26163 -0.05025,-0.0513 -0.06107,0.02123 -0.08051,0.539612 -0.01518,0.404936 -0.04102,0.522154 -0.124578,0.565367 -0.06376,0.03298 -0.115093,0.029 -0.179169,-0.01387 z M 9.1683908,10.963116 c -0.056601,-0.03965 -0.107167,-0.166653 -0.1010071,-0.2537 0.00452,-0.06386 -0.00239,-0.08651 -0.042394,-0.138995 -0.066068,-0.08669 -0.089641,-0.161795 -0.090481,-0.288298 -0.00107,-0.161277 0.07567,-0.3062238 0.2595017,-0.4901458 0.1524721,-0.152548 0.2833327,-0.23563 0.4724401,-0.29995 0.3406345,-0.115857 0.7176425,-0.08977 0.8009695,0.05542 0.01982,0.03455 0.04441,0.04698 0.12197,0.06172 0.45006,0.08553 0.350282,0.6188888 -0.192103,1.0268848 -0.119813,0.09012 -0.352224,0.198203 -0.4940924,0.229765 -0.1423729,0.03168 -0.3129887,0.02479 -0.429791,-0.01735 -0.068667,-0.02477 -0.074676,-0.02468 -0.089935,0.0014 -0.040661,0.06938 -0.1125108,0.137317 -0.1452226,0.137317 -0.019551,0 -0.050986,-0.01082 -0.069855,-0.02403 z m 0.8734102,-0.442091 c 0.26842,-0.06328 0.515225,-0.273895 0.552251,-0.471256 0.0251,-0.1338028 -0.02088,-0.1910688 -0.152966,-0.1905158 -0.175049,7.3e-4 -0.379522,0.117003 -0.6294413,0.3579238 -0.126267,0.121722 -0.2564817,0.274459 -0.2564817,0.300843 0,0.03285 0.3508596,0.03502 0.486638,0.003 z M 9.3149051,10.247222 C 9.3854601,10.148852 9.6087966,9.9216652 9.710506,9.8448082 l 0.049056,-0.03707 -0.078293,0.0073 c -0.1086799,0.0101 -0.2756602,0.09617 -0.3481289,0.179443 -0.1014645,0.1165988 -0.1557204,0.2563228 -0.1277925,0.3291018 0.016254,0.04235 0.0326,0.03096 0.1095584,-0.07634 z"
     id="path17961" /></svg>
