<svg xmlns="http://www.w3.org/2000/svg" width="24" height="24" fill="none"><path fill="url(#a)" fill-rule="evenodd" d="M9.596 1.114c.12 0 .234-.014.344-.046a31.626 31.626 0 0 1 4.307.011c1.302.102 2.561.384 3.78.848 2.025.833 3.412 2.28 4.158 4.339.427 1.24.679 2.514.756 3.824a27.94 27.94 0 0 1-.114 4.923 11.88 11.88 0 0 1-.894 3.32c-.85 1.843-2.229 3.114-4.135 3.813a15.625 15.625 0 0 1-4.765.825 21.423 21.423 0 0 1-5.453-.413c-3.312-.737-5.354-2.756-6.128-6.056a19.047 19.047 0 0 1-.447-4.511 18.49 18.49 0 0 1 .515-4.786c.812-3.086 2.77-4.998 5.877-5.736a13.954 13.954 0 0 1 2.2-.355Z" clip-rule="evenodd"/><path fill="#000" d="M4.654 11.853c4.502-2.04 9.79-4.253 10.604-4.574 1.796-.706 2.579.016 2.456 1.167-.15 1.41-.865 5.515-1.304 8.456-.258 1.721-1.19 2.248-2.241 1.58-.798-.505-3.54-2.301-4.262-2.915-.492-.419-.835-.888-.486-1.366.102-.14.363-.421.508-.562.728-.705.63-.857-.25-.227-.105.075-.714.516-.964.683-.613.408-1.176.43-2.132.106-.782-.266-1.533-.47-2.006-.675-.655-.284-.905-1.228.077-1.673Z" opacity=".05"/><path fill="#000" d="M5.05 11.922c4.18-1.869 9.321-4.01 10.073-4.314 1.802-.727 2.465-.295 2.271 1.11-.18 1.303-.818 5.33-1.266 8.03-.264 1.59-1.035 1.94-2.038 1.291-.63-.405-3.16-2.073-3.774-2.558-.475-.375-.967-.807-.392-1.434.192-.21 1.253-1.234 2.047-1.995.46-.443.296-.66-.26-.28-1.017.696-2.681 1.8-2.978 2-.566.381-1.098.473-2.023.182-.73-.23-1.434-.452-1.8-.595-.821-.318-.832-1.003.14-1.437Z" opacity=".07"/><path fill="#fff" d="M5.446 11.991c3.859-1.697 8.852-3.767 9.542-4.054 1.808-.75 2.363-.606 2.086 1.055-.199 1.194-.772 5.145-1.229 7.604-.27 1.459-.88 1.632-1.835 1-.46-.303-2.782-1.838-3.286-2.199-.46-.328-1.094-.723-.299-1.502.284-.277 2.14-2.05 3.585-3.428.19-.181-.048-.48-.267-.334-1.949 1.293-4.65 3.086-4.995 3.32-.52.353-1.018.514-1.914.257-.677-.194-1.338-.426-1.595-.515-.99-.34-.756-.78.207-1.204Z"/><defs><linearGradient id="a" x1="12" x2="12" y1="1" y2="23" gradientUnits="userSpaceOnUse"><stop stop-color="#33BEF0"/><stop offset="1" stop-color="#0A85D9"/></linearGradient></defs></svg>