<svg xmlns="http://www.w3.org/2000/svg" xmlns:xlink="http://www.w3.org/1999/xlink" xml:space="preserve" id="svg154" width="24" height="24" fill="none" version="1.1"><defs id="defs152"><linearGradient id="linearGradient3062"><stop id="stop3058" offset="0" style="stop-color:#f60;stop-opacity:1"/><stop id="stop3066" offset=".614" style="stop-color:#ff2a7f;stop-opacity:1"/><stop id="stop3060" offset="1" style="stop-color:#f06;stop-opacity:1"/></linearGradient><linearGradient id="a" x1="16.942" x2="85.671" y1="83.36" y2="89.583" gradientUnits="userSpaceOnUse"><stop id="stop800" offset="0" stop-color="#f32b44"/><stop id="stop802" offset=".6" stop-color="#a4070a"/></linearGradient><linearGradient id="b"><stop id="stop805" offset="0" stop-opacity=".4"/><stop id="stop807" offset="1" stop-opacity="0"/></linearGradient><linearGradient id="d" x1="44.738" x2="-5.901" y1="-3.312" y2="71.527" gradientUnits="userSpaceOnUse"><stop id="stop811" offset="0" stop-color="#800600"/><stop id="stop813" offset=".6" stop-color="#c72127"/><stop id="stop815" offset=".728" stop-color="#c13959"/><stop id="stop817" offset=".847" stop-color="#bc4b81"/><stop id="stop819" offset=".942" stop-color="#b95799"/><stop id="stop821" offset="1" stop-color="#b85ba2"/></linearGradient><linearGradient id="f" x1="61.486" x2="61.486" y1="-4.887" y2="88.781" gradientUnits="userSpaceOnUse"><stop id="stop825" offset="0" stop-color="#ffb900"/><stop id="stop827" offset=".166" stop-color="#ef8400"/><stop id="stop829" offset=".313" stop-color="#e25c01"/><stop id="stop831" offset=".429" stop-color="#db4401"/><stop id="stop833" offset=".5" stop-color="#d83b01"/></linearGradient><linearGradient xlink:href="#a" id="linearGradient1210" x1="16.942" x2="85.671" y1="83.36" y2="89.583" gradientUnits="userSpaceOnUse"/><linearGradient xlink:href="#b" id="linearGradient1212" x1="63.515" x2="33.003" y1="87.298" y2="84.535" gradientUnits="userSpaceOnUse"/><linearGradient xlink:href="#d" id="linearGradient1214" x1="44.738" x2="-5.901" y1="-3.312" y2="71.527" gradientUnits="userSpaceOnUse"/><linearGradient xlink:href="#b" id="linearGradient1216" x1="45.823" x2="35.099" y1="-4.81" y2="11.039" gradientUnits="userSpaceOnUse"/><linearGradient xlink:href="#f" id="linearGradient1218" x1="61.486" x2="61.486" y1="-4.887" y2="88.781" gradientUnits="userSpaceOnUse"/><linearGradient xlink:href="#linearGradient3062" id="linearGradient3064" x1="-9.055" x2="23.389" y1="39.44" y2="1.592" gradientUnits="userSpaceOnUse"/><linearGradient xlink:href="#linearGradient3062" id="linearGradient3250" x1="-9.055" x2="23.389" y1="39.44" y2="1.592" gradientUnits="userSpaceOnUse"/><style id="current-color-scheme" type="text/css">.ColorScheme-Text{color:#31363b}.ColorScheme-Background{color:#eff0f1}.ColorScheme-Highlight{color:#3daee9}.ColorScheme-ViewText{color:#31363b}.ColorScheme-ViewBackground{color:#fcfcfc}.ColorScheme-ViewHover{color:#93cee9}.ColorScheme-ViewFocus{color:#3daee9}.ColorScheme-ButtonText{color:#31363b}.ColorScheme-ButtonBackground{color:#eff0f1}.ColorScheme-ButtonHover{color:#93cee9}.ColorScheme-ButtonFocus{color:#3daee9}</style></defs><g id="g2267" style="fill:url(#linearGradient3064);fill-opacity:1"><path id="path6" d="M50 5C9.09 5 5 25.455 5 50c0 32.727 12.273 45 45 45 32.727 0 45-12.273 45-45 0-24.545-4.09-45-45-45Z" style="font-variation-settings:normal;display:inline;opacity:1;vector-effect:none;fill:url(#linearGradient3250);fill-opacity:1;stroke-width:4.56656;stroke-linecap:butt;stroke-linejoin:miter;stroke-miterlimit:4;stroke-dasharray:none;stroke-dashoffset:0;stroke-opacity:1;-inkscape-stroke:none;stop-color:#000;stop-opacity:1" transform="matrix(.24444 0 0 .24444 -.222 -.222)"/></g><g id="g1003" transform="translate(-1008.781 -1239.49) scale(26.04094)"><path id="path836" fill="url(#a)" d="M19.143 75.558c-2.724 0-4.945 2.121-4.945 4.753 0 1.789 1.031 3.322 2.565 4.14l19.118 10.246A10.11 10.11 0 0 0 40.85 96c1.164 0 2.275-.204 3.306-.562l6.531-1.814V75.533c.027.025-31.519.025-31.545.025z" style="fill:url(#linearGradient1210)"/><path id="path838" fill="url(#c)" d="M19.143 75.558c-2.724 0-4.945 2.121-4.945 4.753 0 1.789 1.031 3.322 2.565 4.14l19.118 10.246A10.11 10.11 0 0 0 40.85 96c1.164 0 2.275-.204 3.306-.562l6.531-1.814V75.533c.027.025-31.519.025-31.545.025z" style="fill:url(#linearGradient1212)"/><path id="path840" fill="url(#d)" d="M43.736.383A9.968 9.968 0 0 0 40.959 0c-1.56 0-3.12.307-4.522 1.022-.29.128-31.096 16.864-31.096 16.864-.423.205-.82.46-1.19.716-.052.025-.079.051-.132.077-.238.178-.45.357-.687.536-.106.077-.212.18-.291.256a4.7 4.7 0 0 0-.37.383c-.37.383-1.005 1.2-1.005 1.2A9.15 9.15 0 0 0 0 26.345v44.46c0 2.633 2.221 4.754 4.945 4.754.687 0 1.322-.128 1.904-.384l8.805-4.778c1.586-.766 2.856-2.07 3.517-3.68.158-.332.29-.74.37-1.15.026-.102.053-.23.053-.332 0-.05.026-.127.026-.178.027-.18.053-.384.053-.562 0-.154.027-.282.027-.435V33.013c0-2.07.925-3.935 2.38-5.238 0 0-.688.613 0 0 .687-.613 1.586-1.15 2.644-1.507 1.057-.384 26.072-9.122 26.072-9.122V2.402Z" style="fill:url(#linearGradient1214)"/><path id="path842" fill="url(#e)" d="M43.736.383A9.968 9.968 0 0 0 40.959 0c-1.56 0-3.12.307-4.522 1.022-.29.128-31.096 16.864-31.096 16.864-.423.205-.82.46-1.19.716-.052.025-.079.051-.132.077-.238.178-.45.357-.687.536-.106.077-.212.18-.291.256a4.7 4.7 0 0 0-.37.383c-.37.383-1.005 1.2-1.005 1.2A9.15 9.15 0 0 0 0 26.345v44.46c0 2.633 2.221 4.754 4.945 4.754.687 0 1.322-.128 1.904-.384l8.805-4.778c1.586-.766 2.856-2.07 3.517-3.68.158-.332.29-.74.37-1.15.026-.102.053-.23.053-.332 0-.05.026-.127.026-.178.027-.18.053-.384.053-.562 0-.154.027-.282.027-.435V33.013c0-2.07.925-3.935 2.38-5.238 0 0-.688.613 0 0 .687-.613 1.586-1.15 2.644-1.507 1.057-.384 26.072-9.122 26.072-9.122V2.402Z" style="fill:url(#linearGradient1216)"/><path id="path844" fill="url(#f)" d="M71.898 8.35 44.16.507c4.019 1.508 6.53 4.906 6.53 9.046 0 0-.025 75.2 0 77.014.027 4.088-2.67 7.589-6.53 8.892.846-.23 27.738-7.717 27.738-7.717 3.992-1.226 6.875-4.804 6.875-9.07V17.42c.026-4.24-2.883-7.844-6.875-9.07Z" style="fill:url(#linearGradient1218)"/></g><path id="path9273" d="M13.062 3.13v.36a4.69 4.69 0 0 0 4.7 4.7H28.6a4.69 4.69 0 0 0 4.699-4.7v-.36a4.688 4.688 0 0 1-4.7 4.697H17.763a4.689 4.689 0 0 1-4.7-4.698Z" opacity=".1" style="stroke-width:.361355"/><path id="path3080" d="M9.617 4.936c-1.446.19-2.723.18-3.763 1.396-.685.8-.906 1.903-.911 2.928-.009 1.757-.125 3.53-.005 5.287.078 1.137.153 2.263.957 3.163 1.575 1.764 4.33 1.37 6.46 1.37 1.08 0 2.186.043 3.257-.109.419-.06.844-.174 1.228-.354 2.838-1.33 2.219-5.132 2.219-7.705 0-1.424.088-3.06-.744-4.296-1.353-2.013-4.086-1.7-6.196-1.7-.818 0-1.692-.086-2.502.02m-.048 1.268c1.642-.193 3.452-.04 5.099.032.96.042 1.947.191 2.547 1.04.678.96.569 2.33.569 3.447 0 1.323.012 2.646-.046 3.966-.048 1.107-.281 2.202-1.37 2.747-.364.181-.78.26-1.18.308-1.88.225-3.969.147-5.855.018-.9-.062-1.8-.127-2.446-.855-.576-.647-.618-1.45-.674-2.266-.116-1.701-.165-3.54-.004-5.24.078-.816.077-1.597.637-2.266.713-.851 1.726-.813 2.723-.93m5.996 1.191c-1.07.246-.681 1.893.378 1.65 1.068-.246.688-1.895-.378-1.65m-4.013.987c-.606.086-1.201.285-1.7.648-2.443 1.782-1.741 5.893 1.322 6.517.4.081.821.123 1.228.065.608-.087 1.199-.283 1.7-.649 2.469-1.801 1.713-5.781-1.275-6.5-.412-.1-.854-.142-1.275-.081m.142 1.268c2.447-.318 3.608 3.023 1.558 4.344a2.404 2.404 0 0 1-.992.35c-2.447.318-3.608-3.024-1.558-4.344.297-.192.642-.305.992-.35z" style="fill:#fff;stroke:none;stroke-width:.04721"/></svg>