<svg xmlns="http://www.w3.org/2000/svg" xmlns:xlink="http://www.w3.org/1999/xlink" xml:space="preserve" id="svg154" width="24" height="24" fill="none" version="1.1"><defs id="defs152"><linearGradient id="linearGradient5358"><stop id="stop5354" offset="0" style="stop-color:#e6e6e6;stop-opacity:1"/><stop id="stop5356" offset="1" style="stop-color:#fff;stop-opacity:1"/></linearGradient><linearGradient xlink:href="#linearGradient5358" id="linearGradient5360" x1="13.523" x2="13.744" y1="34.648" y2="-9.855" gradientUnits="userSpaceOnUse"/><linearGradient xlink:href="#linearGradient5358" id="linearGradient9751" x1="13.523" x2="13.744" y1="34.648" y2="-9.855" gradientUnits="userSpaceOnUse"/><style id="current-color-scheme" type="text/css">.ColorScheme-Text{color:#31363b}.ColorScheme-Background{color:#eff0f1}.ColorScheme-Highlight{color:#3daee9}.ColorScheme-ViewText{color:#31363b}.ColorScheme-ViewBackground{color:#fcfcfc}.ColorScheme-ViewHover{color:#93cee9}.ColorScheme-ViewFocus{color:#3daee9}.ColorScheme-ButtonText{color:#31363b}.ColorScheme-ButtonBackground{color:#eff0f1}.ColorScheme-ButtonHover{color:#93cee9}.ColorScheme-ButtonFocus{color:#3daee9}</style></defs><g id="g2267" style="fill:url(#linearGradient5360);fill-opacity:1"><path id="path6" d="M50 5C9.09 5 5 25.455 5 50c0 32.727 12.273 45 45 45 32.727 0 45-12.273 45-45 0-24.545-4.09-45-45-45Z" style="font-variation-settings:normal;display:inline;opacity:1;vector-effect:none;fill:url(#linearGradient9751);fill-opacity:1;stroke-width:4.56656;stroke-linecap:butt;stroke-linejoin:miter;stroke-miterlimit:4;stroke-dasharray:none;stroke-dashoffset:0;stroke-opacity:1;-inkscape-stroke:none;stop-color:#000;stop-opacity:1" transform="matrix(.24444 0 0 .24444 -.222 -.222)"/></g><path id="path9273" d="M13.062 3.13v.36a4.69 4.69 0 0 0 4.7 4.7H28.6a4.69 4.69 0 0 0 4.699-4.7v-.36a4.688 4.688 0 0 1-4.7 4.697H17.763a4.689 4.689 0 0 1-4.7-4.698Z" opacity=".1" style="stroke-width:.361355"/><g id="g9611"><rect id="rect9500" width="13.982" height="13.982" x="5.009" y="5.009" fill="#2a88f8" rx="3.246" ry="3.246" style="stroke-width:.249674"/><circle id="circle9502" cx="12.005" cy="11.761" r="7.49" style="fill:none;stroke-width:.249674"/><path id="path9504" fill="#fff" d="M5.009 8.256v-.25A3.24 3.24 0 0 1 8.255 4.76h7.49a3.24 3.24 0 0 1 3.246 3.246v.25a3.24 3.24 0 0 0-3.246-3.246h-7.49A3.24 3.24 0 0 0 5.01 8.256Z" opacity=".15" style="stroke-width:.249674"/><path id="path9506" fill="#188038" d="M5.097 16.304A3.233 3.233 0 0 0 7.8 19.001v-2.697z" style="stroke-width:.249674"/><path id="path9508" fill="#ea4335" d="M18.992 16.304a3.233 3.233 0 0 1-2.703 2.697v-2.697z" style="stroke-width:.249674"/><path id="path9510" fill="#32b666" d="M7.8 16.304v2.705c.163.025.33.042.5.042h7.489c.17 0 .336-.017.5-.042v-2.705z" style="stroke-width:.249674"/><path id="path9512" fill="#fbaa04" d="M16.244 16.326h2.705c.025-.163.042-.33.042-.5V8.338c0-.17-.017-.336-.042-.5h-2.705z" style="stroke-width:.249674"/><rect id="rect9514" width="8.489" height="8.489" x="7.756" y="7.837" fill="#fff" rx="0" ry="0" style="stroke-width:.249674"/><path id="path9516" fill="#2f8af1" d="M9.634 14.269c-.304-.207-.515-.51-.63-.91l.706-.293c.064.246.176.437.336.572a.86.86 0 0 0 .578.202c.23 0 .43-.07.595-.212a.682.682 0 0 0 .25-.54.672.672 0 0 0-.263-.549 1.011 1.011 0 0 0-.657-.212h-.408v-.705h.366a.887.887 0 0 0 .57-.185.61.61 0 0 0 .233-.505.56.56 0 0 0-.208-.456.8.8 0 0 0-.526-.172c-.208 0-.372.056-.494.168a.981.981 0 0 0-.267.41l-.7-.293c.094-.264.263-.498.513-.7.25-.202.568-.304.954-.304.286 0 .543.056.772.167.227.112.407.267.536.464.129.198.193.42.193.666 0 .25-.06.463-.18.638-.12.174-.268.307-.443.4v.043a1.346 1.346 0 0 1 .568.446c.148.2.222.44.222.718 0 .279-.07.528-.21.747-.141.219-.336.39-.582.516a1.82 1.82 0 0 1-.833.189 1.716 1.716 0 0 1-.991-.31zm4.318-3.455-.8.532-.403-.558 1.444-.953h.553v4.494h-.794z" style="stroke-width:.249674"/></g></svg>