<?xml version="1.0" encoding="UTF-8" standalone="no"?>
<svg
   width="24"
   height="24"
   viewBox="0 0 24 24"
   fill="none"
   version="1.1"
   id="svg154"
   sodipodi:docname="app.svg"
   inkscape:version="1.2.2 (b0a8486541, 2022-12-01)"
   xml:space="preserve"
   inkscape:export-filename="../../../../ícones big/starplus.svg"
   inkscape:export-xdpi="96"
   inkscape:export-ydpi="96"
   xmlns:inkscape="http://www.inkscape.org/namespaces/inkscape"
   xmlns:sodipodi="http://sodipodi.sourceforge.net/DTD/sodipodi-0.dtd"
   xmlns:xlink="http://www.w3.org/1999/xlink"
   xmlns="http://www.w3.org/2000/svg"
   xmlns:svg="http://www.w3.org/2000/svg"
   xmlns:sketch="http://www.bohemiancoding.com/sketch/ns"><sodipodi:namedview
     id="namedview156"
     pagecolor="#ffffff"
     bordercolor="#000000"
     borderopacity="1"
     inkscape:showpageshadow="0"
     inkscape:pageopacity="1"
     inkscape:pagecheckerboard="false"
     inkscape:deskcolor="#ffffff"
     showgrid="true"
     inkscape:zoom="32"
     inkscape:cx="9.609375"
     inkscape:cy="15.453125"
     inkscape:window-width="1920"
     inkscape:window-height="1052"
     inkscape:window-x="0"
     inkscape:window-y="0"
     inkscape:window-maximized="1"
     inkscape:current-layer="svg154"
     showguides="true"
     guidecolor="#ff0000"
     guideopacity="1"
     inkscape:lockguides="true"
     showborder="true"
     borderlayer="true"><inkscape:grid
       type="xygrid"
       id="grid356"
       color="#000000"
       opacity="0.10196078"
       empcolor="#000000"
       empopacity="0.10196078"
       snapvisiblegridlinesonly="true"
       enabled="true"
       visible="true"
       dotted="false" /><sodipodi:guide
       position="4,12"
       orientation="-1,0"
       id="guide764"
       inkscape:locked="true"
       inkscape:label="left-circle"
       inkscape:color="rgb(255,0,0)" /><sodipodi:guide
       position="5,12"
       orientation="-1,0"
       id="guide2218"
       inkscape:locked="true"
       inkscape:label="left-square"
       inkscape:color="rgb(255,0,0)" /><sodipodi:guide
       position="12,20"
       orientation="0,1"
       id="guide2220"
       inkscape:locked="true"
       inkscape:label="top-circle"
       inkscape:color="rgb(255,0,0)" /><sodipodi:guide
       position="12,5"
       orientation="0,1"
       id="guide2222"
       inkscape:locked="true"
       inkscape:label="bottom-square"
       inkscape:color="rgb(255,0,0)" /><sodipodi:guide
       position="12,4"
       orientation="0,1"
       id="guide2224"
       inkscape:locked="true"
       inkscape:label="bottom-circle"
       inkscape:color="rgb(255,0,0)" /><sodipodi:guide
       position="19,12"
       orientation="-1,0"
       id="guide2226"
       inkscape:locked="true"
       inkscape:label="right-square"
       inkscape:color="rgb(255,0,0)" /><sodipodi:guide
       position="20,12"
       orientation="-1,0"
       id="guide2228"
       inkscape:locked="true"
       inkscape:label="right-circle"
       inkscape:color="rgb(255,0,0)" /><sodipodi:guide
       position="12,19"
       orientation="0,1"
       id="guide2230"
       inkscape:locked="true"
       inkscape:label="top-square"
       inkscape:color="rgb(255,0,0)" /><sodipodi:guide
       position="12,12"
       orientation="1,0"
       id="guide765"
       inkscape:locked="true" /><sodipodi:guide
       position="12,12"
       orientation="0,-1"
       id="guide767"
       inkscape:locked="true" /><sodipodi:guide
       position="12,12"
       orientation="0.70710678,0.70710678"
       id="guide2266"
       inkscape:locked="true"
       inkscape:label=""
       inkscape:color="rgb(255,0,0)" /><sodipodi:guide
       position="12,12"
       orientation="-0.70710678,0.70710678"
       id="guide2994"
       inkscape:locked="true"
       inkscape:label=""
       inkscape:color="rgb(255,0,0)" /><sodipodi:guide
       position="3,12"
       orientation="-1,0"
       id="guide131543"
       inkscape:locked="true"
       inkscape:label="left-horizontal"
       inkscape:color="rgb(255,0,0)" /><sodipodi:guide
       position="12,21"
       orientation="0,1"
       id="guide131545"
       inkscape:locked="true"
       inkscape:label="top-vertical"
       inkscape:color="rgb(255,0,0)" /><sodipodi:guide
       position="21,12"
       orientation="-1,0"
       id="guide131547"
       inkscape:locked="true"
       inkscape:label="right-horizontal"
       inkscape:color="rgb(255,0,0)" /><sodipodi:guide
       position="12,3"
       orientation="0,1"
       id="guide131549"
       inkscape:locked="true"
       inkscape:label="bottom-vertical"
       inkscape:color="rgb(255,0,0)" /></sodipodi:namedview><defs
     id="defs152"><linearGradient
       id="linearGradient1249"
       inkscape:swatch="solid"><stop
         style="stop-color:#000000;stop-opacity:1;"
         offset="0"
         id="stop1247" /></linearGradient><linearGradient
       inkscape:collect="always"
       id="linearGradient442"><stop
         style="stop-color:#0044aa;stop-opacity:1"
         offset="0"
         id="stop438" /><stop
         style="stop-color:#80b3ff;stop-opacity:1"
         offset="1"
         id="stop440" /></linearGradient><linearGradient
       inkscape:collect="always"
       xlink:href="#linearGradient442"
       id="linearGradient444"
       x1="50.989124"
       y1="93.4758"
       x2="50.265949"
       y2="-13.192868"
       gradientUnits="userSpaceOnUse"
       gradientTransform="matrix(0.24444444,0,0,0.24444444,-0.22222222,-0.22222222)" /></defs><path
     d="M 12,0.99999998 C 2,0.99999998 0.99999998,6 0.99999998,12 0.99999998,20 4.0000001,23 12,23 20,23 23,20 23,12 23,6 22,0.99999998 12,0.99999998 Z"
     sketch:type="MSShapeGroup"
     id="path6"
     style="font-variation-settings:normal;display:inline;opacity:1;vector-effect:none;fill:url(#linearGradient444);fill-opacity:1;stroke-width:1.11627;stroke-linecap:butt;stroke-linejoin:miter;stroke-miterlimit:4;stroke-dasharray:none;stroke-dashoffset:0;stroke-opacity:1;-inkscape-stroke:none;stop-color:#000000;stop-opacity:1"
     sodipodi:nodetypes="sssss"
     inkscape:label="Shape"
     sodipodi:insensitive="true" /><path
     style="fill:#ffffff;stroke-width:0.0524148"
     d="m 4.5686854,16.833102 c -0.249135,-0.07213 -0.445848,-0.333074 -0.426395,-0.565625 0.01361,-0.162743 0.03421,-0.189289 0.146872,-0.189289 0.118845,0 0.131987,0.02194 0.141258,0.235866 0.01342,0.309764 0.187349,0.472239 0.503745,0.470582 0.497334,-0.0026 0.841873,-0.299099 1.186368,-1.020937 0.110066,-0.230624 0.2961052,-0.621799 0.4134217,-0.869276 0.1927999,-0.406708 0.6321328,-0.991447 0.7449054,-0.991447 0.024617,0 -0.024826,0.13228 -0.1098725,0.293956 -0.1636656,0.311134 -0.3399728,0.84817 -0.2936566,0.894486 0.066037,0.06604 0.4099107,-0.110575 0.5783854,-0.297057 0.3495703,-0.386932 0.3705028,-0.853821 0.052536,-1.171789 -0.3650793,-0.365079 -1.3335294,-0.322963 -1.9393134,0.08434 -0.644484,0.43332 -0.804465,1.430153 -0.258445,1.610356 0.294938,0.09734 0.534666,-0.05383 0.601192,-0.379105 0.03838,-0.18768 0.193211,-0.259277 0.248592,-0.114956 0.05807,0.151319 -0.132802,0.428521 -0.356763,0.518133 -0.755162,0.302155 -1.338667,-0.342221 -0.994984,-1.098783 0.136908,-0.30138 0.568108,-0.668057 0.960884,-0.817103 0.282443,-0.107178 0.420789,-0.125046 0.959033,-0.123867 0.5530567,0.0012 0.6593554,0.0163 0.8806523,0.124977 0.4742334,0.232898 0.6540424,0.643512 0.4669793,1.066399 -0.056885,0.128598 -0.1851314,0.296134 -0.284992,0.372301 -0.1819589,0.138787 -0.7116908,0.348084 -0.8810029,0.348084 -0.061748,0 -0.1260615,0.09514 -0.2037251,0.301384 -0.3743629,0.994145 -1.2942256,1.561985 -2.1356746,1.318373 z M 16.556059,16.369915 c -0.02984,-0.05576 -0.05426,-0.149397 -0.05426,-0.208079 0,-0.103149 -0.0063,-0.102392 -0.190766,0.02276 -0.210519,0.142862 -0.332451,0.161837 -0.427728,0.06656 -0.09856,-0.09856 -0.07657,-0.215783 0.122369,-0.652326 0.217347,-0.476936 0.222838,-0.605881 0.01895,-0.445128 -0.0754,0.05945 -0.239149,0.331438 -0.365906,0.60777 -0.220967,0.481713 -0.235693,0.500167 -0.399132,0.500167 -0.139129,0 -0.163452,-0.01628 -0.135015,-0.09039 0.02814,-0.07333 0.0067,-0.06838 -0.113543,0.02621 -0.191946,0.150985 -0.331731,0.147908 -0.403166,-0.0089 l -0.05717,-0.125469 -0.184889,0.125469 c -0.424587,0.288132 -0.583366,7.13e-4 -0.304077,-0.550439 l 0.135582,-0.267557 h -0.123624 c -0.09726,0 -0.136397,0.04191 -0.183525,0.196555 -0.137922,0.452558 -0.445662,0.746328 -0.782224,0.746714 -0.186417,2.1e-4 -0.378907,-0.151654 -0.38175,-0.301188 -0.0015,-0.08107 -0.01231,-0.07909 -0.09273,0.01707 -0.267504,0.319908 -0.639324,0.369506 -0.639324,0.08531 0,-0.07954 0.08255,-0.316881 0.183452,-0.52742 0.185218,-0.386487 0.222452,-0.531502 0.136466,-0.531502 -0.105714,0 -0.357055,0.369799 -0.52648,0.774613 -0.174306,0.416474 -0.186172,0.430927 -0.3538,0.430927 -0.09539,0 -0.173445,-0.0097 -0.173445,-0.02156 0,-0.01186 0.08479,-0.218243 0.188424,-0.458629 0.273574,-0.63458 0.284166,-0.666217 0.233542,-0.697505 -0.08838,-0.05462 -0.345277,0.289243 -0.53655,0.718198 -0.175922,0.394533 -0.20757,0.43476 -0.353799,0.449716 -0.09093,0.0093 -0.160594,-0.0083 -0.160594,-0.04066 0,-0.03574 -0.05896,-0.02659 -0.157717,0.02448 -0.1786,0.09236 -0.36643,0.03339 -0.36643,-0.115042 0,-0.07757 -0.0079,-0.07773 -0.09182,-0.0018 -0.1529932,0.138457 -0.3737537,0.202207 -0.488172,0.140972 -0.1360556,-0.07282 -0.1344265,-0.382947 0.00343,-0.653348 0.057656,-0.113089 0.1048295,-0.207456 0.1048295,-0.209704 0,-0.0022 -0.064863,-0.0032 -0.1441406,-0.002 -0.1212082,0.0017 -0.1419589,-0.0178 -0.1304282,-0.12279 0.025323,-0.230573 -0.1210168,-0.02886 -0.3577385,0.493103 -0.2180785,0.480852 -0.2306842,0.496598 -0.3975814,0.496598 -0.1419542,0 -0.166461,-0.01618 -0.1389121,-0.09173 0.030937,-0.08483 0.02589,-0.08543 -0.067163,-0.008 -0.2000794,0.166562 -0.4413095,0.175014 -0.4413095,0.01546 0,-0.09383 -0.074909,-0.0936 -0.1529763,4.71e-4 -0.087587,0.105536 -0.3037746,0.147886 -0.4246615,0.08319 -0.1257338,-0.06729 -0.1393585,-0.336895 -0.030225,-0.598089 0.1012083,-0.242226 0.4419256,-0.608289 0.6454904,-0.693509 0.2328448,-0.09748 0.696179,-0.09478 0.696179,0.0041 0,0.04107 -0.09837,0.300433 -0.218601,0.576357 -0.1202304,0.275923 -0.2029283,0.517351 -0.1837729,0.536506 0.092241,0.09224 0.3911917,-0.339533 0.6135521,-0.886155 0.1071756,-0.263467 0.1406209,-0.301385 0.2658318,-0.301385 0.078777,0 0.1540418,0.02948 0.1672548,0.06552 0.019219,0.05241 0.037913,0.05241 0.093473,0 0.084729,-0.07993 0.3105575,-0.08696 0.3105575,-0.0097 0,0.03072 -0.025498,0.103504 -0.056661,0.161734 -0.095479,0.178404 -0.00726,0.175346 0.2489129,-0.0086 0.183198,-0.131563 0.314105,-0.181354 0.522169,-0.198608 0.448117,-0.03716 0.461514,-0.01797 0.274848,0.393733 -0.267135,0.589179 -0.316134,0.749032 -0.229597,0.749032 0.109022,0 0.308668,-0.288297 0.517238,-0.746911 0.160354,-0.352594 0.20243,-0.406214 0.318759,-0.406214 0.08635,0 0.134018,0.02902 0.134018,0.08159 0,0.07385 0.01106,0.07385 0.116493,0 0.152404,-0.106748 0.389756,-0.104269 0.450743,0.0047 0.04484,0.08013 0.05712,0.08013 0.171512,0 0.06777,-0.04747 0.198929,-0.0863 0.291471,-0.0863 0.263626,0 0.26848,0.139482 0.02328,0.669049 -0.118648,0.256251 -0.188215,0.466007 -0.157985,0.476351 0.09371,0.03207 0.268336,-0.165852 0.393256,-0.445712 0.313478,-0.702293 0.907049,-0.95697 1.147349,-0.49228 0.04536,0.08772 0.113141,0.159497 0.150618,0.159497 0.08329,0 0.296072,-0.219025 0.296072,-0.304763 0,-0.03607 0.07695,-0.06214 0.183452,-0.06214 0.100898,0 0.183451,0.01137 0.183451,0.02526 0,0.01389 -0.09261,0.225717 -0.205807,0.470725 -0.273533,0.592061 -0.292465,0.657143 -0.191164,0.657143 0.116521,0 0.357725,-0.354166 0.53411,-0.784249 0.143435,-0.349743 0.159829,-0.368544 0.32149,-0.368705 0.09369,-1.05e-4 0.170348,0.01866 0.170348,0.04168 0,0.02302 -0.09398,0.252991 -0.208847,0.511044 -0.215249,0.48357 -0.246486,0.600226 -0.160723,0.600226 0.08599,0 0.308202,-0.332761 0.501287,-0.750668 0.172877,-0.37417 0.197281,-0.402457 0.347211,-0.402457 0.112406,0 0.153185,0.02106 0.134595,0.0695 -0.01874,0.04883 0.0331,0.03993 0.174316,-0.02994 0.162505,-0.0804 0.22274,-0.0878 0.314608,-0.03863 0.143975,0.07705 0.123878,0.208837 -0.109618,0.718829 -0.18915,0.413132 -0.177451,0.522141 0.03481,0.324375 0.194221,-0.180957 0.571064,-0.939305 0.466767,-0.939305 -0.04356,0 -0.07921,-0.02359 -0.07921,-0.05241 0,-0.02883 0.04403,-0.05241 0.09784,-0.05241 0.06794,0 0.131121,-0.08008 0.206755,-0.262074 0.08952,-0.215416 0.132207,-0.262074 0.23976,-0.262074 0.178442,0 0.202419,0.06099 0.11048,0.28103 -0.09686,0.23182 -0.09684,0.243118 3.48e-4,0.243118 0.12362,0 0.09178,0.09565 -0.03805,0.114288 -0.09165,0.01316 -0.164089,0.123505 -0.337853,0.514689 -0.259801,0.584876 -0.286855,0.786221 -0.10564,0.786221 0.06668,0 0.189023,-0.07076 0.27188,-0.157244 0.196769,-0.205383 0.272068,-0.202164 0.119503,0.0051 -0.220898,0.300105 -0.660264,0.418352 -0.772843,0.207995 z M 13.26772,16.063663 c 0.118059,-0.130454 0.337133,-0.628605 0.37971,-0.863422 0.03192,-0.176016 0.02414,-0.196556 -0.07437,-0.196556 -0.07232,0 -0.157909,0.07588 -0.249825,0.221488 -0.170864,0.270666 -0.349033,0.762434 -0.311587,0.860017 0.03813,0.09935 0.155608,0.08948 0.256067,-0.02153 z m -5.3987481,-0.13633 c 0.1511829,-0.163255 0.4863694,-0.858461 0.437473,-0.907358 -0.1236324,-0.123632 -0.6221465,0.494769 -0.6946112,0.861658 -0.027198,0.137705 -0.016845,0.170348 0.054031,0.170348 0.048222,0 0.1396204,-0.05609 0.2031072,-0.124648 z m 2.2014571,-0.0457 c 0.0692,-0.09369 0.198883,-0.329558 0.288195,-0.524148 0.147749,-0.321909 0.153587,-0.3538 0.06477,-0.3538 -0.214624,0 -0.7573426,0.833336 -0.6528396,1.002425 0.056788,0.09189 0.1769139,0.04202 0.2998806,-0.124477 z m 8.161058,0.04132 c 0,-0.01679 0.06928,-0.183318 0.153957,-0.370068 l 0.153957,-0.339544 h -0.389824 c -0.214402,0 -0.389823,-0.01026 -0.389823,-0.0228 0,-0.01254 0.023,-0.0833 0.05112,-0.157244 0.04869,-0.12806 0.07006,-0.134449 0.449846,-0.134449 h 0.398729 l 0.163022,-0.366903 c 0.154375,-0.347443 0.172217,-0.366904 0.336375,-0.366904 0.09534,0 0.173353,0.0125 0.173353,0.02779 0,0.01528 -0.05897,0.167886 -0.131037,0.339117 -0.07207,0.171231 -0.131037,0.323833 -0.131037,0.339116 0,0.01528 0.177506,0.02779 0.394457,0.02779 h 0.394456 l -0.08018,0.155043 c -0.07696,0.148828 -0.09627,0.155657 -0.481528,0.170348 l -0.401353,0.0153 -0.144093,0.340696 c -0.135934,0.321406 -0.154746,0.341617 -0.332246,0.356964 -0.103485,0.0089 -0.188154,0.0025 -0.188154,-0.01425 z M 8.6737961,12.972473 C 8.174394,12.149795 8.0024398,11.143492 8.1988122,10.192792 8.4920389,8.773191 9.4990315,7.690062 10.945836,7.2380739 c 0.504491,-0.1576053 1.461573,-0.1712331 1.991761,-0.028361 1.381721,0.3723401 2.468336,1.4719321 2.807249,2.8407781 0.132218,0.534018 0.12282,1.356161 -0.02144,1.875597 -0.191417,0.689233 -0.548845,1.340465 -0.703202,1.281232 -0.0439,-0.01684 -0.273427,-0.26229 -0.510067,-0.545433 -0.569223,-0.681083 -0.928934,-1.054904 -1.100419,-1.143582 -0.09495,-0.0491 -0.27905,-0.314995 -0.569545,-0.822599 -0.485134,-0.847711 -0.692949,-1.057507 -0.924676,-0.93349 -0.07018,0.03756 -0.191411,0.164962 -0.269394,0.283114 -0.07798,0.118151 -0.203756,0.273787 -0.279494,0.345857 -0.07574,0.07207 -0.358414,0.414077 -0.628171,0.760014 -0.269756,0.345937 -0.598957,0.735117 -0.731558,0.864843 -0.1326007,0.129727 -0.39933,0.440986 -0.5927315,0.691687 -0.4855376,0.629391 -0.5130271,0.63922 -0.7403524,0.264742 z m 0.5208745,-0.956429 c 0.070819,0 0.074861,-0.0143 0.022032,-0.07795 -0.035583,-0.04287 -0.052626,-0.10941 -0.037874,-0.147855 0.019259,-0.05019 -0.02339,-0.06885 -0.1512261,-0.06618 -0.1242072,0.0026 -0.1780957,0.02828 -0.1782033,0.08496 -8.49e-5,0.04468 -0.028458,0.109547 -0.063052,0.144141 -0.04892,0.04892 -0.043506,0.0629 0.024363,0.0629 0.047994,0 0.1151954,0.0522 0.1493376,0.115992 l 0.062077,0.115991 0.042908,-0.115991 c 0.023599,-0.0638 0.081936,-0.115992 0.129637,-0.115992 z m 5.9284904,-0.09106 c -0.02656,-0.03567 -0.03459,-0.100531 -0.01786,-0.144141 0.0354,-0.09224 -0.02469,-0.10475 -0.107129,-0.02231 -0.04103,0.04103 -0.06684,0.04103 -0.0922,0 -0.05965,-0.09652 -0.142816,-0.06294 -0.108887,0.04396 0.02105,0.06631 -2.09e-4,0.119708 -0.06199,0.155651 -0.08765,0.051 -0.08784,0.05482 -0.0027,0.0563 0.05021,8.77e-4 0.118221,0.04473 0.151147,0.09745 0.05741,0.09192 0.06455,0.09139 0.173904,-0.0131 0.07663,-0.07322 0.0982,-0.130238 0.06575,-0.173814 z m -6.1338559,-0.79999 c 0.1155709,0 0.1252579,-0.01156 0.067756,-0.08084 -0.05082,-0.06123 -0.052377,-0.09556 -0.00642,-0.14152 0.09246,-0.09246 0.072652,-0.137857 -0.04655,-0.106685 -0.068259,0.01785 -0.134322,-0.0077 -0.1817847,-0.07043 -0.071481,-0.0944 -0.074627,-0.09353 -0.076225,0.02111 -9.168e-4,0.06577 -0.037047,0.133154 -0.080289,0.149748 -0.043242,0.01659 -0.078622,0.05123 -0.078622,0.07698 0,0.02574 0.03538,0.04681 0.078622,0.04681 0.05044,0 0.079193,0.05167 0.080216,0.144141 0.00136,0.123228 0.00934,0.130833 0.055019,0.05241 0.029384,-0.05045 0.114108,-0.09173 0.1882757,-0.09173 z m 6.3418809,-0.128996 c 0.08831,-0.03561 0.08654,-0.04244 -0.02182,-0.08422 -0.06486,-0.02501 -0.117933,-0.0845 -0.117933,-0.132205 0,-0.06988 -0.01479,-0.07446 -0.07611,-0.02357 -0.04535,0.03764 -0.124618,0.04777 -0.196144,0.02506 -0.106732,-0.03388 -0.112135,-0.02858 -0.04874,0.04781 0.03921,0.04725 0.05893,0.133202 0.04381,0.191012 -0.02018,0.07719 -0.0018,0.105109 0.06934,0.105109 0.05326,0 0.113898,0.02762 0.134761,0.06138 0.02544,0.04117 0.05091,0.02631 0.07733,-0.04512 0.02167,-0.05857 0.08265,-0.123937 0.135509,-0.145248 z M 9.0850246,10.181386 c 0.051737,0.08371 0.1309974,0.0608 0.096915,-0.02802 -0.017006,-0.04432 0.010977,-0.126869 0.062183,-0.183452 0.089713,-0.09913 0.089085,-0.102877 -0.017246,-0.102877 -0.060692,0 -0.1335211,-0.04128 -0.161843,-0.09173 -0.049042,-0.08736 -0.053177,-0.08736 -0.086834,0 -0.019437,0.05045 -0.07999,0.09173 -0.1345618,0.09173 -0.1162219,0 -0.1325357,0.08083 -0.024668,0.122223 0.047211,0.01812 0.063622,0.07041 0.044746,0.142593 -0.026623,0.101808 -0.01813,0.107735 0.07951,0.05548 0.07194,-0.0385 0.1204234,-0.04053 0.141799,-0.0059 z m 5.8209474,-0.0044 c 0.02536,-0.04103 0.05117,-0.04103 0.0922,0 0.08579,0.08579 0.156458,0.06844 0.118982,-0.02922 -0.0186,-0.04847 0.0054,-0.128768 0.05493,-0.183452 0.08307,-0.0918 0.08182,-0.09725 -0.02234,-0.09725 -0.06069,0 -0.133522,-0.04128 -0.161844,-0.09173 -0.04904,-0.08736 -0.05318,-0.08736 -0.08683,0 -0.01944,0.05045 -0.07999,0.09173 -0.134562,0.09173 -0.120086,0 -0.131127,0.08137 -0.01699,0.125171 0.05466,0.02097 0.07105,0.0668 0.04888,0.136645 -0.03492,0.110032 0.04673,0.146547 0.10757,0.04811 z M 9.6651559,9.185647 c 0.041327,0 0.075141,-0.02359 0.075141,-0.05241 0,-0.02883 -0.03538,-0.05241 -0.078622,-0.05241 -0.050422,0 -0.07922,-0.0517 -0.080289,-0.14414 -0.00157,-0.135916 -0.00592,-0.138523 -0.076225,-0.04567 -0.047463,0.06268 -0.1135262,0.08828 -0.1817849,0.07043 -0.120213,-0.03144 -0.13886,0.01438 -0.044329,0.108907 0.04892,0.04892 0.04892,0.07687 0,0.125795 -0.095579,0.09558 -0.075463,0.140233 0.048561,0.1078 0.075434,-0.01973 0.1304923,0.003 0.170348,0.07043 0.054157,0.09157 0.060222,0.08799 0.075475,-0.04457 0.00949,-0.0825 0.048718,-0.14414 0.091726,-0.14414 z m 4.9658041,0.10483 c 0.06936,0 0.09027,-0.02523 0.06833,-0.08242 C 14.6819,9.162727 14.69079,9.082488 14.71898,9.02975 14.76267,8.94811 14.75369,8.9382 14.65854,8.96309 14.58532,8.98224 14.522372,8.95889 14.475998,8.89551 c -0.06754,-0.09236 -0.07078,-0.09165 -0.07078,0.01544 0,0.06173 -0.04128,0.137002 -0.09173,0.167262 -0.08736,0.0524 -0.08736,0.05764 0,0.110039 0.05045,0.03026 0.09173,0.09394 0.09173,0.14152 0,0.06728 0.01398,0.07252 0.0629,0.0236 0.03459,-0.03459 0.107877,-0.0629 0.162853,-0.0629 z M 14.000319,8.55667 c 0.09009,0 0.09408,-0.01104 0.0313,-0.08667 -0.03956,-0.04767 -0.06374,-0.135016 -0.05373,-0.194101 0.01545,-0.09118 0.006,-0.09734 -0.06217,-0.04073 -0.06284,0.05216 -0.105694,0.05315 -0.196498,0.0046 -0.102021,-0.0546 -0.111825,-0.05094 -0.08071,0.03015 0.02132,0.05555 3.67e-4,0.131016 -0.05259,0.189549 -0.08324,0.09198 -0.08163,0.09725 0.02985,0.09725 0.0774,0 0.128226,0.03964 0.148058,0.115477 l 0.0302,0.115476 0.05153,-0.115476 c 0.02834,-0.06351 0.09798,-0.115477 0.154764,-0.115477 z m -3.65816,0 c 0.07997,0 0.08271,-0.01163 0.02043,-0.08667 -0.03956,-0.04767 -0.06374,-0.135016 -0.05373,-0.194101 0.01545,-0.09118 0.006,-0.09734 -0.06217,-0.04073 -0.06199,0.05145 -0.106248,0.05285 -0.193511,0.0061 C 9.9506181,8.186379 9.9433974,8.191299 9.97596,8.293899 10.00098,8.372729 9.9826,8.42926 9.915402,8.480182 9.823825,8.549572 9.824998,8.553372 9.9385,8.554952 c 0.065769,9.17e-4 0.134424,0.04036 0.15257,0.08764 0.03058,0.07969 0.03759,0.07969 0.09586,0 0.03458,-0.04729 0.104432,-0.08598 0.155233,-0.08598 z m 0.831963,-0.388766 c 0.09269,0.03557 0.120721,-0.05545 0.03365,-0.109262 -0.03476,-0.02148 -0.03341,-0.06825 0.004,-0.138097 0.04826,-0.09018 0.0418,-0.10312 -0.04422,-0.08855 -0.05541,0.0094 -0.139748,-0.0153 -0.187419,-0.05487 -0.07575,-0.06286 -0.08667,-0.05862 -0.08667,0.03371 0,0.0581 -0.04128,0.121543 -0.09173,0.14098 -0.08736,0.03366 -0.08736,0.03779 0,0.08683 0.05045,0.02832 0.09173,0.101151 0.09173,0.161843 0,0.104162 0.0055,0.105414 0.09725,0.02234 0.05468,-0.04949 0.13498,-0.07353 0.183452,-0.05493 z m 1.989558,-0.11444 0.114612,-0.03643 -0.117933,-0.05268 c -0.06692,-0.02989 -0.118654,-0.100226 -0.1196,-0.162604 -0.0015,-0.100997 -0.0072,-0.102679 -0.06946,-0.02071 -0.04483,0.05899 -0.108136,0.07866 -0.186879,0.05807 -0.109096,-0.02853 -0.113426,-0.02208 -0.05163,0.07688 0.05543,0.08875 0.0547,0.123389 -0.0041,0.194193 -0.06408,0.07721 -0.05698,0.08253 0.06818,0.05111 0.107598,-0.027 0.148738,-0.01271 0.179027,0.06222 0.0359,0.08882 0.0408,0.08724 0.05622,-0.01817 0.0093,-0.0635 0.06847,-0.131848 0.131511,-0.151884 z m -1.234668,-0.0292 c 0.04596,-0.04596 0.08152,-0.04337 0.146619,0.01065 0.07553,0.06269 0.08374,0.05764 0.06774,-0.04166 -0.01091,-0.06775 0.02377,-0.144795 0.08663,-0.192434 0.101831,-0.07718 0.100706,-0.0795 -0.03931,-0.08112 -0.09244,-0.0011 -0.14414,-0.02987 -0.14414,-0.08029 0,-0.04324 -0.02359,-0.07862 -0.05241,-0.07862 -0.02883,0 -0.05241,0.03538 -0.05241,0.07862 0,0.05042 -0.0517,0.07922 -0.14414,0.08029 -0.135917,0.0016 -0.138523,0.0059 -0.04567,0.07622 0.06268,0.04746 0.08827,0.113526 0.07042,0.181785 -0.03117,0.119202 0.01423,0.13901 0.106686,0.04655 z m -0.0048,5.214794 c -0.06582,-0.06582 -0.03607,-0.253634 0.104467,-0.659302 0.07735,-0.223282 0.124301,-0.422299 0.104339,-0.442261 -0.01996,-0.01996 -0.183216,-0.04528 -0.362786,-0.05626 -0.179568,-0.01098 -0.354735,-0.02892 -0.389258,-0.03988 -0.04238,-0.01345 0.0052,-0.176645 0.146519,-0.502452 0.128078,-0.295298 0.190492,-0.501334 0.160848,-0.530978 -0.02964,-0.02964 0.03347,-0.23915 0.162666,-0.53992 0.175719,-0.40909 0.225469,-0.483793 0.296777,-0.44563 0.04712,0.02522 0.307937,0.433451 0.579597,0.907187 0.368676,0.642915 0.515546,0.855685 0.579175,0.839046 0.05208,-0.01362 0.178918,0.07607 0.325983,0.230503 0.327318,0.343711 1.030595,1.186509 1.03287,1.237777 10e-4,0.02283 -0.179455,0.03463 -0.40104,0.02621 l -0.402883,-0.01531 -0.190126,-0.274513 c -0.208215,-0.30063 -0.426301,-0.548393 -0.456301,-0.518394 -0.01051,0.01051 0.031,0.15303 0.09224,0.316712 0.150945,0.403437 0.126728,0.44637 -0.221211,0.392166 -0.153759,-0.02395 -0.332631,-0.05657 -0.397494,-0.07249 -0.09291,-0.0228 -0.117933,-0.0065 -0.117933,0.0769 0,0.09407 -0.03398,0.105828 -0.305753,0.105828 -0.168164,0 -0.321477,-0.01572 -0.340696,-0.03494 z m -1.554974,-0.285155 c 0,-0.193625 0.656282,-1.334865 0.883088,-1.535645 0.146434,-0.12963 0.142204,-0.08574 -0.02319,0.24065 -0.08668,0.171056 -0.126165,0.317705 -0.108901,0.404472 0.03383,0.170022 -0.06454,0.359869 -0.228925,0.441825 -0.06905,0.03443 -0.197075,0.16108 -0.284498,0.281455 -0.15982,0.220061 -0.237572,0.274795 -0.237572,0.167243 z"
     id="path8024" /></svg>
