<svg xmlns="http://www.w3.org/2000/svg" xmlns:xlink="http://www.w3.org/1999/xlink" xml:space="preserve" width="24" height="24" fill="none"><defs><linearGradient id="a"><stop offset="0" style="stop-color:#ccc;stop-opacity:1"/><stop offset="1" style="stop-color:#f9f9f9;stop-opacity:1"/></linearGradient><linearGradient xlink:href="#a" id="b" x1="50.808" x2="48.82" y1="132.166" y2="-21.509" gradientTransform="matrix(.24444 0 0 .24444 -.222 -.222)" gradientUnits="userSpaceOnUse"/></defs><path d="M12 1C2 1 1 6 1 12c0 8 3 11 11 11s11-3 11-11c0-6-1-11-11-11Z" style="font-variation-settings:normal;display:inline;opacity:1;vector-effect:none;fill:url(#b);fill-opacity:1;stroke-width:1.11627;stroke-linecap:butt;stroke-linejoin:miter;stroke-miterlimit:4;stroke-dasharray:none;stroke-dashoffset:0;stroke-opacity:1;-inkscape-stroke:none;stop-color:#000;stop-opacity:1"/><path d="M15.184 18.003c.092.348.38.662.553.98.051.095.115.295.241.319.14.026.359-.182.467-.257.409-.284.821-.589 1.167-.95 1.2-1.253 2.025-2.934 2.194-4.667a8.11 8.11 0 0 0-2.661-6.862c-3.157-2.85-8.53-2.367-11.188.933a8.395 8.395 0 0 0-1.54 3.035c-.688 2.477.012 5.323 1.711 7.235.422.474.873.902 1.4 1.26.116.08.367.3.514.273.223-.042.535-.825.654-1.02.055-.09.162-.213.085-.318-.263-.364-.914-.65-1.252-.988a6.477 6.477 0 0 1-1.82-3.875c-.439-4.504 4.306-8.102 8.495-6.473 3.42 1.33 5.064 5.295 3.493 8.62-.552 1.17-1.467 2.012-2.513 2.755m-5.508-1.4c.134-.34.725-.95.685-1.308-.018-.155-.248-.255-.358-.342a3.43 3.43 0 0 1-.591-.638c-.47-.627-.604-1.43-.53-2.194.15-1.544 1.763-2.905 3.315-2.754a3.35 3.35 0 0 1 2.7 1.913c.436.926.33 2.21-.288 3.035-.221.294-.816.624-.942.933-.05.126.102.319.164.42.18.295.387.616.513.934 1.232-.324 2.015-2.008 2.249-3.128.544-2.614-1.29-5.336-4.023-5.601-2.492-.242-4.656 1.335-5.166 3.78-.297 1.43.154 3.111 1.198 4.156.29.288.67.687 1.074.793m2.147-5.586c-.336.065-.73.183-.964.451-.944 1.076-.041 2.906 1.431 2.599 1.899-.396 1.46-3.425-.467-3.05z" style="fill:#3b87f9;stroke:none;stroke-width:.0466807"/></svg>