<svg xmlns="http://www.w3.org/2000/svg" xmlns:xlink="http://www.w3.org/1999/xlink" xml:space="preserve" id="svg154" width="24" height="24" fill="none" version="1.1"><defs id="defs152"><linearGradient id="linearGradient5358"><stop id="stop5354" offset="0" style="stop-color:#e6e6e6;stop-opacity:1"/><stop id="stop5356" offset="1" style="stop-color:#fff;stop-opacity:1"/></linearGradient><linearGradient xlink:href="#linearGradient5358" id="linearGradient5360" x1="13.523" x2="13.744" y1="34.648" y2="-9.855" gradientUnits="userSpaceOnUse"/><linearGradient xlink:href="#linearGradient5358" id="linearGradient9751" x1="13.523" x2="13.744" y1="34.648" y2="-9.855" gradientUnits="userSpaceOnUse"/><linearGradient id="a" x1="16.942" x2="85.671" y1="83.36" y2="89.583" gradientUnits="userSpaceOnUse"><stop id="stop800" offset="0" stop-color="#f32b44"/><stop id="stop802" offset=".6" stop-color="#a4070a"/></linearGradient><linearGradient id="b"><stop id="stop805" offset="0" stop-opacity=".4"/><stop id="stop807" offset="1" stop-opacity="0"/></linearGradient><linearGradient id="d" x1="44.738" x2="-5.901" y1="-3.312" y2="71.527" gradientUnits="userSpaceOnUse"><stop id="stop811" offset="0" stop-color="#800600"/><stop id="stop813" offset=".6" stop-color="#c72127"/><stop id="stop815" offset=".728" stop-color="#c13959"/><stop id="stop817" offset=".847" stop-color="#bc4b81"/><stop id="stop819" offset=".942" stop-color="#b95799"/><stop id="stop821" offset="1" stop-color="#b85ba2"/></linearGradient><linearGradient id="f" x1="61.486" x2="61.486" y1="-4.887" y2="88.781" gradientUnits="userSpaceOnUse"><stop id="stop825" offset="0" stop-color="#ffb900"/><stop id="stop827" offset=".166" stop-color="#ef8400"/><stop id="stop829" offset=".313" stop-color="#e25c01"/><stop id="stop831" offset=".429" stop-color="#db4401"/><stop id="stop833" offset=".5" stop-color="#d83b01"/></linearGradient><linearGradient xlink:href="#a" id="linearGradient1210" x1="16.942" x2="85.671" y1="83.36" y2="89.583" gradientUnits="userSpaceOnUse"/><linearGradient xlink:href="#b" id="linearGradient1212" x1="63.515" x2="33.003" y1="87.298" y2="84.535" gradientUnits="userSpaceOnUse"/><linearGradient xlink:href="#d" id="linearGradient1214" x1="44.738" x2="-5.901" y1="-3.312" y2="71.527" gradientUnits="userSpaceOnUse"/><linearGradient xlink:href="#b" id="linearGradient1216" x1="45.823" x2="35.099" y1="-4.81" y2="11.039" gradientUnits="userSpaceOnUse"/><linearGradient xlink:href="#f" id="linearGradient1218" x1="61.486" x2="61.486" y1="-4.887" y2="88.781" gradientUnits="userSpaceOnUse"/><style id="current-color-scheme" type="text/css">.ColorScheme-Text{color:#31363b}.ColorScheme-Background{color:#eff0f1}.ColorScheme-Highlight{color:#3daee9}.ColorScheme-ViewText{color:#31363b}.ColorScheme-ViewBackground{color:#fcfcfc}.ColorScheme-ViewHover{color:#93cee9}.ColorScheme-ViewFocus{color:#3daee9}.ColorScheme-ButtonText{color:#31363b}.ColorScheme-ButtonBackground{color:#eff0f1}.ColorScheme-ButtonHover{color:#93cee9}.ColorScheme-ButtonFocus{color:#3daee9}</style></defs><g id="g2267" style="fill:url(#linearGradient5360);fill-opacity:1"><path id="path6" d="M50 5C9.09 5 5 25.455 5 50c0 32.727 12.273 45 45 45 32.727 0 45-12.273 45-45 0-24.545-4.09-45-45-45Z" style="font-variation-settings:normal;display:inline;opacity:1;vector-effect:none;fill:url(#linearGradient9751);fill-opacity:1;stroke-width:4.56656;stroke-linecap:butt;stroke-linejoin:miter;stroke-miterlimit:4;stroke-dasharray:none;stroke-dashoffset:0;stroke-opacity:1;-inkscape-stroke:none;stop-color:#000;stop-opacity:1" transform="matrix(.24444 0 0 .24444 -.222 -.222)"/></g><g id="g1003" transform="translate(-1008.781 -1239.49) scale(26.04094)"><path id="path836" fill="url(#a)" d="M19.143 75.558c-2.724 0-4.945 2.121-4.945 4.753 0 1.789 1.031 3.322 2.565 4.14l19.118 10.246A10.11 10.11 0 0 0 40.85 96c1.164 0 2.275-.204 3.306-.562l6.531-1.814V75.533c.027.025-31.519.025-31.545.025z" style="fill:url(#linearGradient1210)"/><path id="path838" fill="url(#c)" d="M19.143 75.558c-2.724 0-4.945 2.121-4.945 4.753 0 1.789 1.031 3.322 2.565 4.14l19.118 10.246A10.11 10.11 0 0 0 40.85 96c1.164 0 2.275-.204 3.306-.562l6.531-1.814V75.533c.027.025-31.519.025-31.545.025z" style="fill:url(#linearGradient1212)"/><path id="path840" fill="url(#d)" d="M43.736.383A9.968 9.968 0 0 0 40.959 0c-1.56 0-3.12.307-4.522 1.022-.29.128-31.096 16.864-31.096 16.864-.423.205-.82.46-1.19.716-.052.025-.079.051-.132.077-.238.178-.45.357-.687.536-.106.077-.212.18-.291.256a4.7 4.7 0 0 0-.37.383c-.37.383-1.005 1.2-1.005 1.2A9.15 9.15 0 0 0 0 26.345v44.46c0 2.633 2.221 4.754 4.945 4.754.687 0 1.322-.128 1.904-.384l8.805-4.778c1.586-.766 2.856-2.07 3.517-3.68.158-.332.29-.74.37-1.15.026-.102.053-.23.053-.332 0-.05.026-.127.026-.178.027-.18.053-.384.053-.562 0-.154.027-.282.027-.435V33.013c0-2.07.925-3.935 2.38-5.238 0 0-.688.613 0 0 .687-.613 1.586-1.15 2.644-1.507 1.057-.384 26.072-9.122 26.072-9.122V2.402Z" style="fill:url(#linearGradient1214)"/><path id="path842" fill="url(#e)" d="M43.736.383A9.968 9.968 0 0 0 40.959 0c-1.56 0-3.12.307-4.522 1.022-.29.128-31.096 16.864-31.096 16.864-.423.205-.82.46-1.19.716-.052.025-.079.051-.132.077-.238.178-.45.357-.687.536-.106.077-.212.18-.291.256a4.7 4.7 0 0 0-.37.383c-.37.383-1.005 1.2-1.005 1.2A9.15 9.15 0 0 0 0 26.345v44.46c0 2.633 2.221 4.754 4.945 4.754.687 0 1.322-.128 1.904-.384l8.805-4.778c1.586-.766 2.856-2.07 3.517-3.68.158-.332.29-.74.37-1.15.026-.102.053-.23.053-.332 0-.05.026-.127.026-.178.027-.18.053-.384.053-.562 0-.154.027-.282.027-.435V33.013c0-2.07.925-3.935 2.38-5.238 0 0-.688.613 0 0 .687-.613 1.586-1.15 2.644-1.507 1.057-.384 26.072-9.122 26.072-9.122V2.402Z" style="fill:url(#linearGradient1216)"/><path id="path844" fill="url(#f)" d="M71.898 8.35 44.16.507c4.019 1.508 6.53 4.906 6.53 9.046 0 0-.025 75.2 0 77.014.027 4.088-2.67 7.589-6.53 8.892.846-.23 27.738-7.717 27.738-7.717 3.992-1.226 6.875-4.804 6.875-9.07V17.42c.026-4.24-2.883-7.844-6.875-9.07Z" style="fill:url(#linearGradient1218)"/></g><path id="path9273" d="M13.062 3.13v.36a4.69 4.69 0 0 0 4.7 4.7H28.6a4.69 4.69 0 0 0 4.699-4.7v-.36a4.688 4.688 0 0 1-4.7 4.697H17.763a4.689 4.689 0 0 1-4.7-4.698Z" opacity=".1" style="stroke-width:.361355"/><path id="path2356" d="M6.004 16.492h2.782l.196.022.021.17v2.29c.232-.163.427-.414.628-.614l1.213-1.213.436-.437c.065-.065.135-.162.218-.204.117-.058.348-.014.478-.014h1.036c.134 0 .337.039.463-.008.117-.043.227-.205.314-.292l.682-.681 2.413-2.413.763-.764c.094-.093.273-.215.32-.34.061-.169.007-.449.007-.628v-6.34H8.772l-.273.009-.218.196-.436.436-1.268 1.268-.382.382-.177.19-.014.219v8.766M16.98 6.022V11.066c0 .123.042.339-.014.45-.088.176-.324.338-.463.477l-1.023 1.023-.34.34c-.05.05-.106.128-.178.146-.138.035-.32.004-.463.004h-.995c-.14 0-.393-.048-.519.014-.17.086-.328.315-.463.45l-.832.832c-.144.144-.283.319-.45.436v-1.731H9.003V6.022h7.976m-5.235 1.745v3h.709l.264-.015.022-.19V7.766h-.995m2.74 0v3h.995v-3Z" style="fill:#9145ff;stroke:none;stroke-width:.0136336"/></svg>