<svg xmlns="http://www.w3.org/2000/svg" xml:space="preserve" id="svg154" width="24" height="24" fill="none" version="1.1"><defs id="defs152"><radialGradient id="radialGradient2" cx=".179" cy="-1.748" r="1" fx=".179" fy="-1.748" gradientTransform="matrix(0 16.5109 -16.50125 0 -19.851 -2.218)" gradientUnits="userSpaceOnUse" spreadMethod="pad"><stop id="stop1" offset="0" style="stop-opacity:1;stop-color:#4d4d4d"/><stop id="stop2" offset="1" style="stop-opacity:1;stop-color:#000"/></radialGradient><style id="current-color-scheme" type="text/css">.ColorScheme-Text{color:#31363b}.ColorScheme-Background{color:#eff0f1}.ColorScheme-Highlight{color:#3daee9}.ColorScheme-ViewText{color:#31363b}.ColorScheme-ViewBackground{color:#fcfcfc}.ColorScheme-ViewHover{color:#93cee9}.ColorScheme-ViewFocus{color:#3daee9}.ColorScheme-ButtonText{color:#31363b}.ColorScheme-ButtonBackground{color:#eff0f1}.ColorScheme-ButtonHover{color:#93cee9}.ColorScheme-ButtonFocus{color:#3daee9}</style></defs><g id="g1"><path id="path2" d="M9 .75C1.5.75.75 4.5.75 9 .75 15 3 17.25 9 17.25S17.25 15 17.25 9C17.25 4.5 16.5.75 9 .75Z" style="fill:url(#radialGradient2);stroke:none" transform="scale(1.33333)"/><path id="path3" d="M11.211 5.82c.543-.617 1.078-1.218 1.598-1.828.132-.152.265-.242.468-.219.18.02.36.004.594.004-1.32 1.508-2.601 2.969-3.898 4.446l4.211 5.984c-.114.008-.172.016-.235.016-.82 0-1.637-.008-2.457.007-.23.004-.371-.07-.512-.269-.824-1.195-1.664-2.383-2.5-3.574-.05-.078-.113-.149-.175-.231-.2.207-.395.399-.578.606a561.914 561.914 0 0 0-2.875 3.281c-.118.133-.235.199-.407.184-.187-.016-.375-.004-.629-.004 1.391-1.578 2.735-3.11 4.086-4.645L3.844 3.801c.07-.012.117-.024.164-.024.883 0 1.769.008 2.652-.004.172-.003.25.09.336.211a1516.09 1516.09 0 0 0 2.481 3.528c.027.039.062.078.113.148l1.621-1.84m-5.262-.179c1.703 2.421 3.418 4.828 5.098 7.265.324.469.648.719 1.195.625.211-.039.43-.008.699-.008-.39-.55-.738-1.043-1.082-1.531a6542.206 6542.206 0 0 0-5.16-7.32c-.051-.074-.121-.192-.183-.192-.45-.019-.899-.011-1.395-.011.293.418.551.781.828 1.172Z" style="fill:#f4f4f4;fill-opacity:1;fill-rule:nonzero;stroke:none" transform="scale(1.33333)"/></g></svg>