<svg xmlns="http://www.w3.org/2000/svg" xml:space="preserve" width="24" height="24" viewBox="0 0 6.35 6.35"><defs><linearGradient id="a" x1="12" x2="12" y1="1" y2="23" gradientTransform="matrix(.26458 0 0 .26458 0 0)" gradientUnits="userSpaceOnUse"><stop stop-color="#33BEF0"/><stop offset="1" stop-color="#0A85D9"/></linearGradient></defs><path fill="url(#a)" fill-rule="evenodd" d="M2.539.295a.312.312 0 0 0 .09-.012c.38-.025.76-.024 1.14.003.345.026.678.101 1 .224.536.22.903.603 1.1 1.148.114.328.18.665.2 1.012.029.435.019.869-.03 1.302a3.143 3.143 0 0 1-.236.879 1.87 1.87 0 0 1-1.094 1.008c-.409.139-.83.211-1.26.219a5.668 5.668 0 0 1-1.444-.11C1.13 5.773.59 5.24.385 4.366a5.04 5.04 0 0 1-.12-1.194c-.009-.428.037-.85.137-1.266C.617 1.09 1.135.584 1.957.39c.192-.047.385-.079.582-.094Z" clip-rule="evenodd" style="fill:url(#a);stroke-width:.264578"/><path fill="#fff" d="M2.267 1.19a1.076 1.076 0 0 0-1.076 1.077c0 .184.046.361.128.513A1.898 1.898 0 0 0 3.57 5.03c.153.083.328.13.513.13a1.076 1.076 0 0 0 1.076-1.077c0-.185-.047-.361-.128-.514a1.898 1.898 0 0 0-2.252-2.25 1.094 1.094 0 0 0-.513-.128"/><path fill="#2d9cf2" d="M3.21 2.041c.56 0 .85.296.85.47 0 .173-.084.2-.221.2-.267 0-.158-.322-.658-.322-.165 0-.372.075-.372.269 0 .155.183.212.506.292.487.13.852.26.852.707 0 .434-.353.652-.913.652s-.916-.335-.916-.508c0-.174.065-.217.203-.217.267 0 .231.365.73.365.167 0 .412-.076.412-.27 0-.155-.013-.208-.368-.304-.379-.051-.99-.175-.99-.647 0-.434.328-.687.887-.687"/></svg>