<svg width="24" height="24" fill="none" version="1.1" xmlns="http://www.w3.org/2000/svg"><rect x=".69445" y=".69445" width="22.611" height="22.611" rx="6.7833" fill="url(#a)" opacity=".9" stroke="#808080" stroke-opacity=".2" stroke-width="1.0278" vector-effect="non-scaling-stroke" style="-inkscape-stroke:hairline"/><g transform="translate(.065002 -10.174)" alignment-baseline="middle" fill="#fafafa" font-family="Lato" font-weight="bold" text-anchor="middle"><text x="12" y="18.620001"><tspan font-size="5px">webapp</tspan></text></g><defs><linearGradient id="a" x1=".05" x2="1" y2="1" gradientTransform="matrix(22.611 0 0 22.611 -.33332 -.33332)" gradientUnits="userSpaceOnUse"><stop stop-color="#4f950e" offset=".2"/><stop stop-color="#85b254" offset=".205"/><stop stop-color="#337f11" offset="1"/></linearGradient></defs><path d="m12 9.98c-3.2145 0-5.8024 2.5879-5.8024 5.8024s2.5879 5.8024 5.8024 5.8024 5.8024-2.5879 5.8024-5.8024-2.5879-5.8024-5.8024-5.8024m0 0.52729a5.2657 5.2657 0 0 1 2.4254 0.5904v0.05948c0.03046 0.0145 0.04859 0.07108 0.10009 0.09937 0.01886 0.01084 0.03118 0.01524 0.04932 0.02466 0.03046 0.01668 0.05585 0.04496 0.04932 0.0747-8e-3 0.04352-0.06963 0.04134-0.09864 0.07254 0.0036 0.06165-0.03409 0.05948-0.05005 0.10009 0.0094 0.02684 0.0457 0.01813 0.05005 0.05005-0.0058 0.03336-0.06238 0.03843-0.05005 0.07254 0.0573 0.04496 0.11968 0.0072 0.17335 0 0.11822-0.0145 0.22267 0.0072 0.29592-0.04932-0.0094-0.05585 0.07979-0.07254 0.07398-0.1233-0.0051-0.03771-0.07035-0.04714-0.09865-0.07254-0.0072-0.0066-0.0145-0.02177-0.02175-0.03264q0.12911 0.08631 0.25313 0.18133c-0.02103 0.01668-0.03771 0.03771-0.05875 0.04714-0.02103 0.0094-0.0544 0.01231-0.07398 0.02539-0.02974 0.01958-0.04062 0.05077-0.0747 0.07253-0.02466 0.01741-0.09791 0.0747-0.1233 0.0747-0.03046 0-0.07688-0.03118-0.09937-0.02393-0.03191 0.01017-0.01378 0.06092-0.04932 0.07398-0.06963 0.02465-0.19873-0.05512-0.22267 0.04932 0.02902 0.0602 0.11968 0.04134 0.17262 0.07398 0.03264 0.02175 0.09066 0.11243 0.09937 0.14869a0.50771 0.50771 0 0 1 0 0.17262c-0.03264 0.08486-0.12547 0.07688-0.22267 0.0747-0.02611 0-0.05005 0.0021-0.0747 0-0.16319-0.01084-0.32058-0.06745-0.39384 0.04933 0.0051 0.08994 0.01958 0.14506 0 0.22267-0.0145 0.0573-0.07761 0.09864-0.0747 0.14869 0.0015 0.02466 0.04352 0.06383 0.04932 0.09863 0.0044 0.01886-8e-3 0.05802 0 0.0747 0.02756 0.05149 0.10009-0.0087 0.14869 0 0.04642 0.0072 0.09937 0.0718 0.09937 0.1233a0.36265 0.36265 0 0 1-0.05077 0.14796c-0.04642 0.06963-0.13056 0.06165-0.19728 0.09937-0.05512 0.03191-0.06673 0.09429-0.09937 0.14941-0.03481 0.05876-0.0631 0.08848-0.05005 0.17262a0.38441 0.38441 0 0 1-0.19873 0.19801c-0.02828 0.01311-0.07254 0.03046-0.09863 0.05005a0.50771 0.50771 0 0 0-0.0747 0.07398c-0.03627 0.04134-0.07906 0.06745-0.09937 0.09937-0.0145 0.02393-0.0087 0.06601-0.02466 0.09937-0.02321 0.04352-0.06963 0.07905-0.09865 0.1233-0.0145 0.02103-0.03481 0.04642-0.05005 0.07398-0.03336 0.06165-0.08051 0.11968-0.0747 0.17335 0.0058 0.05149 0.0718 0.05367 0.0747 0.09863 0.0036 0.02611-0.02611 0.04642-0.02466 0.07398 7.27e-4 0.03989 0.02177 0.06817 0.02466 0.09937 0.0072 0.07833-0.03481 0.09429-0.04932 0.14796-0.0072 0.02539 0.0058 0.05439 0 0.0747-0.01311 0.03917-0.07326 0.07616-0.0747 0.12258-7.25e-4 0.03264 0.04642 0.05295 0.05005 0.09937 0.0015 0.03192-0.03046 0.06963-0.02393 0.09937 0.01164 0.0573 0.12837 0.12838 0.17262 0.17335 0.0602 0.05948 0.12185 0.10879 0.14869 0.17262 0.02177 0.05367 0.03336 0.13274 0.07398 0.17262 0.03046 0.02974 0.08486 0.04352 0.1233 0.07398 0.03699 0.02828 0.08341 0.04352 0.1233 0.07398 0.06383 0.05077 0.14506 0.15594 0.2466 0.14869 0.0544-0.0044 0.11315-0.03917 0.17335-0.05005 0.06238-0.01017 0.13418-0.02974 0.19801-0.02393 0.04787 0.0058 0.09791 0.02684 0.14869 0.02393a0.50771 0.50771 0 0 0 0.17335-0.04932c0.10444-0.0457 0.26764-0.12112 0.41922-0.09937 0.11605 0.01668 0.1175 0.14579 0.19873 0.19801 0.09284 8e-3 0.17262-0.01813 0.2466 0 0.05585 0.01378 0.11822 0.10516 0.1233 0.14941 0.0051 0.04496-0.04352 0.09429-0.04932 0.12185-0.0145 0.06165-0.0145 0.13418-0.02539 0.17335-8e-3 0.03046-0.02465 0.06891-0.02321 0.09937 0 0.02684 0.0457 0.08704 0.07398 0.1233 0.03481 0.04352 0.07979 0.0747 0.1233 0.1233 0.07616 0.08849 0.11896 0.20454 0.17262 0.32131 0.01311 0.02902-0.01311 0.03771 0 0.0747-0.02321 0.17698-0.08197 0.2981-0.19801 0.49466-0.05512 0.0631-0.12475 0.14288-0.1233 0.22194-0.0044 0.19003 0.10662 0.28577 0.09864 0.46927-0.01886 0.2466-0.0044 0.28867-0.02321 0.42068 0.08341 0.04207 0.04787 0.15884 0.02321 0.2466-0.03554 0.10372-0.07906 0.12837-0.09864 0.19801 0.06528 0.02902 0.13708 0.02176 0.21034 0.0036a5.2512 5.2512 0 0 1-3.8477 1.666 5.2947 5.2947 0 0 1-1.8365-0.33364c-0.02175-0.0072-0.04424-0.01231-0.06527-0.02466a0.10154 0.10154 0 0 1-0.04932-0.09864c0.05512-0.02321 0.15884 0.05223 0.19873-0.02466 0.02031-0.03699-0.02611-0.11169 0-0.14869 0.01886-0.02539 0.13418-0.04352 0.17335-0.04932 0.05585-0.0094 0.11605-0.0051 0.14796-0.02466a0.17407 0.17407 0 0 0 0.0747-0.14869c-0.0036-0.03046-0.02539-0.04642-0.05005-0.07398-0.01959-0.02321-0.01084-0.05223-0.02466-0.07326-0.02539-0.03699-0.06383-0.0457-0.07398-0.09937 0.07542-0.0145 0.18713 0.07979 0.29665 0.04932 0.05149-0.0145 0.1233-0.12403 0.14796-0.17262 0.0072-0.0145-8e-3 -0.05657 0-0.0747 0.01017-0.01958 0.04787-0.03843 0.05077-0.04932 0.0072-0.02902-0.0058-0.03192 0-0.05005 0.01886-0.05367 0.06745-0.08413 0.09937-0.1233a2.1759 2.1759 0 0 0 0.12403-0.17335c0.01596-0.09575-0.04787-0.16174-0.02466-0.2466 0.02539-0.09429 0.15522-0.15522 0.2466-0.19873 0.03191-0.0145 0.07326-0.03989 0.10009-0.04932 0.0631-0.02175 0.13781-0.02902 0.19728-0.05005 0.09937-0.03554 0.12475-0.13128 0.17335-0.22194a0.43518 0.43518 0 0 0 0.05077-0.1233c0.0036-0.02756-0.0058-0.04207 0-0.07398q0.0087-0.04787 0.02321-0.09937c0.01164-0.0457 0.02466-0.12112 0.02466-0.1719 0-0.04207-0.02321-0.06164-0.02466-0.10009-0.0072-0.13708 0.04859-0.14724 0.09937-0.22194 0.02539-0.03771 0.03192-0.09647 0.04932-0.1233 0.08559-0.12621 0.23355-0.17915 0.22267-0.37136-0.0036-0.0631-0.02684-0.20308-0.07254-0.22267-0.02684-0.01164-0.08486-0.0087-0.12403-0.02393-0.12475-0.04642-0.21614-0.18858-0.34597-0.19873-0.02756-7.26e-4 -0.04352 0.0015-0.0747 0-0.05077-7.26e-4 -0.1146-0.04352-0.1719-0.04932-0.03627-0.0044-0.10154 0.01017-0.1233 0-0.03264-0.01596-0.02321-0.08123-0.04932-0.09937-0.02177-0.0145-0.06745-0.01311-0.10009-0.02466-0.05149-0.02031-0.08776-0.0457-0.14796-0.05005-0.01886 0-0.05295 0.0036-0.0747 0-0.03264-0.0051-0.06817-0.03046-0.09863-0.04932-0.03843-0.02321-0.05876-0.04061-0.0747-0.07254 0.03481-0.1146-0.07544-0.13346-0.09937-0.19946-0.01017-0.03046 0.01084-0.0718 0-0.09937-0.01378-0.03917-0.05585-0.06601-0.09864-0.09863-0.07616-0.05948-0.13926-0.11025-0.24733-0.1233-0.04859-0.0058-0.11532 0.0036-0.17335 0a0.27562 0.27562 0 0 1-0.17335-0.10009c-0.04352-0.05077-0.05948-0.09863-0.09864-0.1233-0.03699-0.02321-0.09864-0.02538-0.1233-0.04932-0.01164-0.01017-0.01378-0.02539-0.02393-0.04932-0.01886-0.03843-0.04787-0.05367-0.02466-0.10009-0.0428-0.02103-0.02828 0.03336-0.07326 0.02465-0.04134-0.05802-0.08051-0.09212-0.17335-0.07398-0.042074 8e-3 -0.07398 0.07253-0.1233 0.07398-0.041338 0.0015-0.069632-0.06673-0.1233-0.07398-0.041338-0.0058-0.09501 0.03118-0.1233 0.02466-0.045699-0.0087-0.05802-0.04714-0.099371-0.0747-0.030461-0.01959-0.081953-0.07398-0.099371-0.07254-0.05295 0-0.10009 0.11169-0.17335 0.07254-0.03554-0.04498 0.066003-0.05658 0.023936-0.09865-0.031188-0.03191-0.04787 0.0072-0.072531 0.02465a0.43518 0.43518 0 0 1-0.10009 0.04932c-0.072531 0.02756-0.11605 0.02031-0.17262 0.05005-0.052947 0.02756-0.068904 0.06963-0.10009 0.1233-0.023934 0.04352-0.061651 0.1204-0.098641 0.12258-0.044243 0.0029-0.08341-0.05658-0.1233-0.07326-0.12185-0.05295-0.19583 0.02175-0.29665 0.02321-0.092839 0.0015-0.22629-0.13491-0.22194-0.22267 0.0029-0.05367 0.043518-0.13056 0.04932-0.19801 0.00508-0.05223 0.048595-0.10009 0.04932-0.14869 0.00144-0.06455-0.10662-0.11532-0.14941-0.12258-0.098641-0.01813-0.2321 0.04424-0.34452 0-0.021759-0.03627 0.036265-0.06529 0.04932-0.09937 0.00725-0.02031-0.00725-0.02756 0-0.05005 0.013057-0.03336 0.058024-0.0631 0.073256-0.09863 0.011599-0.02756 0.013057-0.06527 0.024661-0.09937 0.014506-0.03843 0.04642-0.07253 0.050045-0.09937 0.00435-0.03627-0.021759-0.07688-0.050045-0.10009-0.087037 0.0058-0.14796 0.0021-0.19873 0.02539-0.11387 0.05149-0.082685 0.21106-0.19728 0.2466-0.039167 0.01311-0.10444 0.01668-0.14869 0.02466l-0.062376 0.01164a5.2222 5.2222 0 0 1 0.33872-1.0988c0.025386 0 0.052222-0.0036 0.069629 0 0.039892 0.0072 0.064552 0.04642 0.099367 0.04932 0.097191 0.0072 0.1175-0.08123 0.19801-0.1233 0.08196 0.01164 0.1233-0.0087 0.19873 0 0.050772 0.0051 0.10807 0.07108 0.14796 0.07398 0.03409 0.0015 0.043518-0.02974 0.074706-0.02466 0.031188 0.0051 0.093564 0.06165 0.099367 0.09937 0.00508 0.04714-0.039167 0.09647-0.025386 0.14941 0.050045 0.05077 0.15231 0.06963 0.22267 0.09864 0.046419-0.03771 0.00725-0.1175 0-0.17262-7.253e-4 -0.02466 0.00363-0.05223 0-0.0747-0.00508-0.03771-0.023209-0.06601-0.023209-0.09864 0-0.15086 0.12113-0.21324 0.22194-0.27271 0.043518-0.02539 0.085586-0.07978 0.1233-0.09865 0.054397-0.02684 0.079783-0.02466 0.1233-0.05005 0.080508-0.04496 0.16102-0.09719 0.22339-0.14941 0.028281-0.06817-0.00361-0.15449 0-0.22194 0.028281-0.01813 0.042796 0.0029 0.072535 0 0.049324-0.01084 0.072535-0.07254 0.10009-0.09937 0.01596-0.01596 0.054395-0.03409 0.073257-0.05005 0.048588-0.03771 0.057298-0.08197 0.099371-0.09865a0.7253 0.7253 0 0 1 0.074702-0.02466c0.031184-0.0087 0.072535-0.03191 0.1233-0.05005 0.032642-0.01164 0.11097-0.01084 0.1233-0.02393 0.01596-0.01524-0.00441-0.07544 0-0.09937 0.025391-0.11896 0.21469-0.132 0.32131-0.1719 0.07398-0.02902 0.13998-0.08994 0.22267-0.0747-0.01596 0.0573-0.08848 0.05513-0.0747 0.1233 0.01814 0.09647 0.13926-0.03555 0.17335-0.04932 0.06455-0.02756 0.18785-0.04352 0.27199-0.07398 0.07398-0.02684 0.19293-0.0631 0.1233-0.14869-0.05802-0.0044-0.07254 0.05223-0.1233 0.07326-0.03481 0.0058-0.04352-0.02177-0.07326-0.02321-0.02902-0.0015-0.0457 0.02902-0.0747 0.02321-0.02828-0.0051-0.06963-0.06529-0.07398-0.09864-0.01164-0.08922 0.08704-0.10807 0.1233-0.17335-0.02393-0.07979-0.13056-0.01813-0.19801-0.04932a0.11605 0.11605 0 0 1 0.09937-0.09937c0.0457-0.0072 0.14506 0.0015 0.17335 0.02393 0.01524 0.01378-7.25e-4 0.05223 0.02321 0.07398 0.02756 0.02465 0.06383 0.0058 0.10009 0 0.01231-0.0602-0.08486-0.03481-0.0747-0.07398 0.07253-0.04642 0.20961-0.01231 0.29737-0.02393 0.05077-0.0072 0.103-0.05077 0.14796-0.0747 0.04207-0.02393 0.07979-0.06383 0.1233-0.02321 0.01311 0.04352-0.02539 0.07688-0.04932 0.09863-0.08123 0.07254-0.15957 0.13926-0.22267 0.22267 0.03917 0.03845 0.10734 0.01668 0.17335 0.02393 0.02538 0.0029 0.04642 0.02031 0.07253 0.02466 0.03191 0.0058 0.0747-0.0051 0.10009 0 0.04424 0.01084 0.05512 0.0747 0.09937 0.0747 0.07181 0 0.06528-0.0747 0.02393-0.1233 0.01231-0.05005 0.04207-0.08922 0.02466-0.1233-0.03264-0.06528-0.16682 0.0087-0.17335-0.0747-0.0044-0.05295 0.05512-0.05948 0.0747-0.09937-0.0087-0.10154 0.08341-0.1059 0.07254-0.19801-0.0044-0.03771-0.04642-0.03843-0.07254-0.07398-0.0145-0.01886-0.0094-0.06092-0.02466-0.0747-0.05512-0.04642-0.16682-0.03337-0.17335-0.12185-0.0029-0.05295 0.0072-0.09284 0-0.14941-0.0072-0.05367-0.05223-0.21251-0.09937-0.22267-0.05876-0.01311-0.10154 0.09066-0.17262 0.1233a0.29012 0.29012 0 0 1-0.14869 0.02466c-0.02539-0.0051-0.07108-0.02538-0.07398-0.07398-0.0051-0.05585 0.03917-0.06455 0.04932-0.1233a5.2947 5.2947 0 0 1 1.4281-0.20018m-2.1259 0.44679c-0.01524 0.21686-0.20889 0.32929-0.43663 0.32348-0.048588 0.04642-0.023211 0.13346-0.050047 0.19728-0.021766 0.05439-0.094288 0.10444-0.14796 0.10009-0.03917-0.0029-0.099371-0.0631-0.099371-0.10009 0-0.04496 0.063104-0.07035 0.023933-0.12185 0.00147-0.01084 0.01596-0.02175 0.026836-0.03336q0.3264-0.20814 0.68325-0.36553m4.4033 0.25168c-0.01958 0.0036-0.02974 0.01378-0.04714 0.02393-0.04062 0.02393-0.04352 0.06238-0.0747 0.07398-0.04352 0.01596-0.09211 0.01084-0.09863 0.04932-0.0058 0.03336 0.02539 0.04352 0.02466 0.07398-0.01596 0.03845-0.04134 0.05077-0.05005 0.09864 0.05439 0.08776 0.17987-0.0044 0.2466-0.02321 0.02902-0.0087 0.05802-0.0021 0.0747-0.02539 0.01741-0.02828 0.0094-0.08195 0.02321-0.12185 0.0145-0.04424 0.05512-0.03627 0.05005-0.0747-0.0044-0.03917-0.08269-0.08123-0.14869-0.0747m-5.7741 0.62956c0.050772 0.02684 0.13781 0.14506 0.039167 0.18713-0.010876 0.0058-0.14796 0.02902-0.17335 0.02393-0.020309-0.0029-0.037716-0.02175-0.055124-0.03989 0.060926-0.05948 0.1262-0.11532 0.18858-0.17117zm0.1864 0.23572c0.024661 0.0015 0.044243 0.04787 0.073981 0.05005 0.029738 0.0021 0.058024-0.03046 0.074706-0.02539 0.043517 0.01164 0.065276 0.09138 0.023209 0.1233-0.034815 0.0044-0.04787-0.02902-0.072531-0.02321-0.07253 0.01231-0.09574 0.15231-0.15014 0.14796-0.050772-0.0051-0.075431-0.11097-0.023209-0.14796 7.254e-4 -0.03191-0.026836-0.0428-0.024661-0.0747 0.015232-0.01958 0.056574-0.05223 0.098641-0.04932zm-0.2466 0.02466c0.014506 0 0.018132-0.0058 0.023934 0-0.00725 0.05658-0.030463 0.07398-0.073256 0.10009a0.29737 0.29737 0 0 0-0.14941 0.19801c-0.00725 0.02828-0.087037 0.1059-0.12258 0.09864-0.08341-0.01741 0.030463-0.17335 0.04932-0.19728 0.021759-0.02684 0.04932-0.04496 0.073256-0.0747 0.024661-0.02902 0.026836-0.08195 0.050045-0.09937a0.36265 0.36265 0 0 1 0.14941-0.02466h-0.00144zm7.4634 0.14143q0.05149 0.0544 0.10009 0.11025c-0.03264-0.03843-0.08704-0.05367-0.09937-0.11025zm-0.32203 0.01084c0.08341-0.0051 0.13563 0.09719 0.17335 0.14796a0.7253 0.7253 0 0 0 0.17335 0.1233c0.02902 0.01596 0.06601 0.03481 0.09863 0.05005 0.06891 0.03046 0.19511 0.13056 0.19801 0.19801 0.0015 0.03336-0.02902 0.06745-0.02393 0.09937 0.05223 0.0087 0.09791-0.0718 0.09937-0.1233a0.043518 0.043518 0 0 0-0.0094-0.02828q0.22484 0.31261 0.40182 0.65857c-0.04642 0.01378-0.08704 0.03627-0.09429 0.08123-0.01017 0.05876 0.03989 0.13781-0.04932 0.14796-0.05585 0.0072-0.12185-0.0573-0.19873-0.07398-0.03191-0.0072-0.07398 8e-3 -0.09937 0-0.05802-0.02031-0.0486-0.08776-0.09864-0.12258a0.43518 0.43518 0 0 0-0.14941-0.04932c-0.02902-0.0036-0.04352 0.0036-0.07326 0-0.03627-0.0044-0.09429-0.0072-0.1233-0.02538-0.02902-0.0174-0.09138-0.05005-0.09937-0.07398-0.01164-0.03917 0.07108-0.08994 0.07254-0.12258 0.0029-0.02539-0.0174-0.03627-0.02321-0.07398-0.0044-0.02321 0.0058-0.0602 0-0.0747-0.0072-0.02756-0.05658-0.04859-0.09937-0.04933-0.03843 0-0.06673 0.02466-0.09937 0.02466-0.04642 7.25e-4 -0.13998-0.03046-0.19801-0.02466-0.03481 0.0029-0.06673 0.02249-0.09937 0.02466-0.09211 0.0072-0.15086-0.0051-0.22267 0a0.7253 0.7253 0 0 0-0.19801 0.04932c-0.02393 0.01164-0.0428 0.03409-0.07398 0.05005l-0.05005 0.02321c-0.02902 0.0145-0.07035 0.04352-0.09865 0.05077-0.04134 0.01084-0.09863-0.0029-0.17335 0-0.05367 0.0036-0.14724-0.01017-0.14796-0.07398-0.0015-0.09864 0.17915-0.05802 0.27199-0.0747 0.03481-0.0072 0.0573-0.04933 0.09937-0.07326 0.01959-0.01164 0.03046-0.01231 0.04933-0.02465 0.03191-0.02177 0.09429-0.07398 0.09937-0.09937 0.0036-0.02321-0.02684-0.05802-0.02393-0.07398 0.0044-0.02249 0.04496-0.04496 0.07326-0.07398 0.04424-0.04352 0.06891-0.09429 0.1233-0.1233 0.03699-0.01959 0.10662-0.01959 0.1233-0.04932 0.0044-0.03409-7.26e-4 -0.04352 0-0.0747 0.02321-0.02103 0.03118-0.04496 0.05005-0.04932 0.05658-0.01231 0.10662 0.02684 0.17262 0.02393a0.21759 0.21759 0 0 0 0.09937-0.02393c0.02538-0.01668 0.04932-0.03627 0.0747-0.04932 0.02756-0.0145 0.04061-0.04787 0.07398-0.05005m-6.6003 0.05077h0.074702c0.026114 0 0.063104-0.01017 0.073258 0-0.016682 0.06963-0.16754 0.04932-0.22267 0.02393 0.00361-0.02684 0.041338-0.02103 0.075438-0.02393m7.0224 0.05077 0.09066 0.10516q-0.0087-0.0029-0.01668-0.0072c-0.02902-0.02393-0.04496-0.06238-0.07398-0.09863m-7.2704 0.07398c0.017407 0 0.031188-0.0072 0.050772 0a0.58024 0.58024 0 0 1-0.19946 0.09937c-0.039892 0.01231-0.091388 0.01959-0.098641-0.02466-0.00871-0.05512 0.038441-0.04424 0.073981-0.05005 0.046419-0.0051 0.11822-0.02177 0.1719-0.02321zm6.873 0.0015c-0.03481 0.01164-0.05149 0.08922 0 0.09863 0.02466-0.0145 0.03118-0.05439 0.02466-0.09863-0.01378-0.0145-0.0145-0.0044-0.02466 0m-0.02393 0.14796c-0.01668 0.0051-0.03118 0.0051-0.04932 0.02393 0.0015 0.05876 0.01164 0.09719 0 0.14941 0.03409 0.06528 0.10516 0.01959 0.12258-0.02539 0.01958-0.10879-0.02177-0.16174-0.07254-0.14796zm0.46854 0.29737c-0.04642-0.0021-0.09429 0.0015-0.12185 0.02321 0.03843 0.06383 0.11025 0.08341 0.19728 0.09937 0.03192-0.02321 0.03481-0.08197 0.05005-0.12258-0.03843 0-0.07761 0.0021-0.1233 0zm-9.2694 2.1716c0.060201 0.05367 0.10154 0.14434 0.17262 0.17915 0.026111 0.0145 0.065277 0.01741 0.098641 0.02539 0.027561 0.0051 0.048595 0.0145 0.074706 0.02321 0.055849 0.01886 0.12838 0.03046 0.17262 0.05077 0.068178 0.02902 0.11532 0.13781 0.17335 0.1719 0.0029 0.03409-0.010876 0.0747 0 0.10009 0.027561 0.03627 0.079783 0.04859 0.1233 0.07254 0.053672 0.02974 0.072531 0.10082 0.12258 0.12403 0.018132 0.0072 0.047145-0.0087 0.073981 0 0.069629 0.02177 0.089212 0.11605 0.14941 0.09937 0.039167-0.01164 0.043518-0.06165 0.050045-0.09937 0.026111-0.02902 0.058024-0.07398 0.098641-0.07398 0.065277-0.0015 0.075431 0.08486 0.099366 0.14869 0.013781 0.03627 0.039892 0.06165 0.04932 0.09937 0.015957 0.06528 0.014506 0.25821 0 0.29738-0.016682 0.04787-0.082685 0.06891-0.1233 0.12185-0.018857 0.02539-0.034815 0.05802-0.04932 0.0747-0.025386 0.03118-0.054397 0.0457-0.073256 0.07398-0.010876 0.01596-0.015231 0.05077-0.024661 0.07326-0.031913 0.06745-0.076156 0.1175-0.050045 0.19873 0.010876 0.03336 0.050045 0.06092 0.050045 0.09937 0 0.04642-0.092113 0.07253-0.099367 0.1233-0.00508 0.03699 0.037716 0.09863 0.04932 0.14869 0.00871 0.03627 0.076882 0.0747 0.099367 0.09863 0.036265 0.04134 0.065277 0.09719 0.099367 0.14941 0.066728 0.10226 0.10662 0.22122 0.17262 0.32131 0.034815 0.05223 0.10009 0.09356 0.1233 0.14869 0.011599 0.02684-0.010876 0.07326 0 0.09864 0.037716 0.08558 0.21106 0.18133 0.29737 0.22267 0.039167 0.02031 0.085585 0.02974 0.1233 0.05077 0.055122 0.03192 0.16899 0.09864 0.19728 0.14796 0.025378 0.04424 0.03699 0.15231 0.049324 0.22267 0.01596 0.09284-0.00361 0.17262 0 0.27271 0.00361 0.05439 0.025391 0.09284 0.025391 0.14796v0.07398c-0.00147 0.06527 0.00508 0.132 0 0.19801a0.7253 0.7253 0 0 0 0 0.10009c0.00294 0.03264 0.021752 0.04424 0.023211 0.07253 0.00214 0.03118-0.026836 0.07616-0.023211 0.10009 0.00722 0.06673 0.061645 0.11097 0.07398 0.1719 0.010836 0.0486 0.030461 0.16464 0.023933 0.22267-0.00441 0.03118-0.019585 0.06601-0.023933 0.10009-0.00294 0.02611 0.00441 0.04859 0 0.07254a0.7253 0.7253 0 0 1-0.014502 0.06455 5.2584 5.2584 0 0 1-2.4414-4.4483c0-0.25241 0.023934-0.49901 0.058024-0.74126m2.0526 0.57807c0.050045-0.02321 0.040617 0.06817 0 0.07398-0.039891 0.0058-0.038441-0.05585 0-0.07398" fill="#fff" opacity=".40021" stroke-width=".7253"/></svg>
