<svg xmlns="http://www.w3.org/2000/svg" xmlns:xlink="http://www.w3.org/1999/xlink" xml:space="preserve" id="svg154" width="24" height="24" fill="none" version="1.1"><defs id="defs152"><linearGradient id="linearGradient6999"><stop id="stop6997" offset="0" style="stop-color:#000;stop-opacity:1"/></linearGradient><linearGradient id="linearGradient6993"><stop id="stop6991" offset="0" style="stop-color:#fff;stop-opacity:1"/></linearGradient><linearGradient id="linearGradient5512"><stop id="stop5508" offset="0" style="stop-color:#f60;stop-opacity:1"/><stop id="stop13563" offset=".25" style="stop-color:#ff2a2a;stop-opacity:1"/><stop id="stop5510" offset="1" style="stop-color:#f59;stop-opacity:1"/></linearGradient><linearGradient id="a" x1="16.942" x2="85.671" y1="83.36" y2="89.583" gradientUnits="userSpaceOnUse"><stop id="stop800" offset="0" stop-color="#f32b44"/><stop id="stop802" offset=".6" stop-color="#a4070a"/></linearGradient><linearGradient id="b"><stop id="stop805" offset="0" stop-opacity=".4"/><stop id="stop807" offset="1" stop-opacity="0"/></linearGradient><linearGradient id="d" x1="44.738" x2="-5.901" y1="-3.312" y2="71.527" gradientUnits="userSpaceOnUse"><stop id="stop811" offset="0" stop-color="#800600"/><stop id="stop813" offset=".6" stop-color="#c72127"/><stop id="stop815" offset=".728" stop-color="#c13959"/><stop id="stop817" offset=".847" stop-color="#bc4b81"/><stop id="stop819" offset=".942" stop-color="#b95799"/><stop id="stop821" offset="1" stop-color="#b85ba2"/></linearGradient><linearGradient id="f" x1="61.486" x2="61.486" y1="-4.887" y2="88.781" gradientUnits="userSpaceOnUse"><stop id="stop825" offset="0" stop-color="#ffb900"/><stop id="stop827" offset=".166" stop-color="#ef8400"/><stop id="stop829" offset=".313" stop-color="#e25c01"/><stop id="stop831" offset=".429" stop-color="#db4401"/><stop id="stop833" offset=".5" stop-color="#d83b01"/></linearGradient><linearGradient xlink:href="#linearGradient5512" id="linearGradient5514" x1="8.688" x2="12.813" y1="61.938" y2="-8.375" gradientUnits="userSpaceOnUse"/><linearGradient xlink:href="#linearGradient5512" id="linearGradient13749" x1="8.688" x2="12.813" y1="61.938" y2="-8.375" gradientUnits="userSpaceOnUse"/><style id="current-color-scheme" type="text/css">.ColorScheme-Text{color:#31363b}.ColorScheme-Background{color:#eff0f1}.ColorScheme-Highlight{color:#3daee9}.ColorScheme-ViewText{color:#31363b}.ColorScheme-ViewBackground{color:#fcfcfc}.ColorScheme-ViewHover{color:#93cee9}.ColorScheme-ViewFocus{color:#3daee9}.ColorScheme-ButtonText{color:#31363b}.ColorScheme-ButtonBackground{color:#eff0f1}.ColorScheme-ButtonHover{color:#93cee9}.ColorScheme-ButtonFocus{color:#3daee9}</style></defs><g id="g2267" style="fill:url(#linearGradient5514);fill-opacity:1"><path id="path6" d="M50 5C9.09 5 5 25.455 5 50c0 32.727 12.273 45 45 45 32.727 0 45-12.273 45-45 0-24.545-4.09-45-45-45Z" style="font-variation-settings:normal;display:inline;opacity:1;vector-effect:none;fill:url(#linearGradient13749);fill-opacity:1;stroke-width:4.56656;stroke-linecap:butt;stroke-linejoin:miter;stroke-miterlimit:4;stroke-dasharray:none;stroke-dashoffset:0;stroke-opacity:1;-inkscape-stroke:none;stop-color:#000;stop-opacity:1" transform="translate(-.222 -.222) scale(.24444)"/></g><path id="path13526" d="M11.587 4.723a3.383 3.383 0 0 0-.534.042c-.855.127-1.586.486-2.095 1.03-.424.454-.593.899-.617 1.635-.019.548.035.934.233 1.702.23.894.222.848.152.943-.089.12-.384.257-.88.408-.635.193-1.452.626-2.105 1.115-.33.246-.784.673-.933.876-.058.079-.115.137-.127.13-.012-.008-.023.005-.023.028s.012.035.026.026c.013-.008.022.022.021.067-.002.072-.004.076-.025.025-.032-.077-.019.713.013.807.018.053.015.065-.012.048-.024-.015-.033-.004-.027.033a.15.15 0 0 0 .028.07c.01.007.045.068.078.133.097.192.312.409.513.516.163.087.219.1.453.111.237.01.29.003.471-.068.258-.102.578-.316.926-.62.524-.456.77-.63 1.165-.822.415-.2 1.13-.505 1.146-.486.008.011.425.73.843 1.456.393.682.472.838.504.985.083.385-.124.827-.478 1.02-.14.075-.192.085-.598.109-.73.043-1.088.15-1.31.391-.144.155-.192.247-.251.477-.122.47.036 1.04.384 1.388.236.236.678.427 1.1.477.502.058 1.061-.05 1.971-.38.676-.245.928-.423 1.24-.882.213-.315.377-.718.503-1.242.118-.489.12-.522.083-1.02-.042-.555-.018-.7.118-.752.197-.076.568.091.817.367.335.37.555 1.016.604 1.773.037.571.139.9.353 1.144.17.194.328.266.616.279.59.027 1.27-.227 1.669-.626.224-.223.426-.57.426-.73 0-.129-.12-.407-.488-1.127-.362-.71-.4-.81-.47-1.223a3.91 3.91 0 0 0-.541-1.415c-.147-.223-.544-.609-.94-.913-.467-.361-.565-.497-.528-.732.014-.09.058-.144.248-.312.778-.69 1.769-1.86 1.994-2.353.29-.637.404-1.134.405-1.76 0-.499-.049-.702-.236-.992-.222-.343-.522-.52-.888-.523a.69.69 0 0 0-.393.081c-.355.174-.55.543-.8 1.507-.182.705-.256.9-.417 1.097-.26.317-.455.43-.736.429-.281-.002-.281-.002-.375-.485a12.227 12.227 0 0 0-.379-1.498c-.2-.608-.383-.926-.73-1.267-.345-.338-.685-.49-1.167-.497Zm.17 1.004c.448.016.653.191.907.714.217.444.276.66.276 1.004 0 .327-.042.43-.272.64-.281.257-.71.43-1.224.495-.487.06-.822.021-1.034-.12-.133-.09-.324-.37-.387-.569-.064-.201-.087-.71-.042-.941.07-.357.305-.69.647-.918.312-.207.55-.284.92-.303.076-.003.144-.005.208-.002zm.366.289c-.235 0-.279.267-.087.524.092.123.24.132.35.022.086-.086.088-.139.014-.3-.078-.174-.16-.246-.277-.246Zm.411.895c-.107-.007-.22.04-.242.127a.49.49 0 0 0 .005.18c.013.06.025.202.026.316.002.224.02.27.116.309.118.047.226.032.3-.043.065-.064.073-.097.073-.301 0-.25-.04-.438-.109-.516a.245.245 0 0 0-.169-.072zm-7.856 5.573c-.016.01-.03.03-.03.046 0 .042.021.033.041-.018.01-.026.006-.038-.01-.028zm.004 1.43c-.012 0-.022.04-.022.088 0 .048.007.081.014.074.025-.025.032-.162.008-.162zm14.67 5.308-.083.055h.051a.689.689 0 0 0 .031-.055z" style="fill:#fff;stroke-width:.0294686"/></svg>