<svg xmlns="http://www.w3.org/2000/svg" xmlns:xlink="http://www.w3.org/1999/xlink" xml:space="preserve" id="svg154" width="24" height="24" fill="none" version="1.1"><defs id="defs152"><linearGradient id="linearGradient12456"><stop id="stop12454" offset="0" style="stop-color:#000;stop-opacity:1"/></linearGradient><linearGradient id="linearGradient10488"><stop id="stop10486" offset="0" style="stop-color:#000;stop-opacity:1"/></linearGradient><linearGradient id="linearGradient10413"><stop id="stop10411" offset="0" style="stop-color:#000;stop-opacity:1"/></linearGradient><linearGradient id="linearGradient5358"><stop id="stop5354" offset="0" style="stop-color:#e6e6e6;stop-opacity:1"/><stop id="stop5356" offset="1" style="stop-color:#fff;stop-opacity:1"/></linearGradient><linearGradient xlink:href="#linearGradient5358" id="linearGradient5360" x1="13.523" x2="13.744" y1="34.648" y2="-9.855" gradientUnits="userSpaceOnUse"/><linearGradient xlink:href="#linearGradient5358" id="linearGradient13399" x1="13.523" x2="13.744" y1="34.648" y2="-9.855" gradientUnits="userSpaceOnUse"/><style id="current-color-scheme" type="text/css">.ColorScheme-Text{color:#31363b}.ColorScheme-Background{color:#eff0f1}.ColorScheme-Highlight{color:#3daee9}.ColorScheme-ViewText{color:#31363b}.ColorScheme-ViewBackground{color:#fcfcfc}.ColorScheme-ViewHover{color:#93cee9}.ColorScheme-ViewFocus{color:#3daee9}.ColorScheme-ButtonText{color:#31363b}.ColorScheme-ButtonBackground{color:#eff0f1}.ColorScheme-ButtonHover{color:#93cee9}.ColorScheme-ButtonFocus{color:#3daee9}</style></defs><g id="g2267" style="fill:url(#linearGradient5360);fill-opacity:1"><path id="path6" d="M50 5C9.09 5 5 25.455 5 50c0 32.727 12.273 45 45 45 32.727 0 45-12.273 45-45 0-24.545-4.09-45-45-45Z" style="font-variation-settings:normal;display:inline;opacity:1;vector-effect:none;fill:url(#linearGradient13399);fill-opacity:1;stroke-width:4.56656;stroke-linecap:butt;stroke-linejoin:miter;stroke-miterlimit:4;stroke-dasharray:none;stroke-dashoffset:0;stroke-opacity:1;-inkscape-stroke:none;stop-color:#000;stop-opacity:1" transform="translate(-.222 -.222) scale(.24444)"/></g><g id="g1350" transform="translate(3.826 8.758) scale(.45872)"><path id="path1339" d="M28.88.107h-5.124c-.909 0-1.803.092-2.506-.6-.703-.693-.614-1.601-.614-2.505v-5.184H9.585c-.73 0-1.429.003-2.006.522-.711.64-.698 1.48-.698 2.36v24.659c0 .903-.013 1.762.743 2.4.593.5 1.29.481 2.02.481h16.281c.932 0 1.835.038 2.486-.757a1.94 1.94 0 0 0 .285-.46c.292-.682.185-1.49.185-2.214V.107m-5.496 6.922v1.382H12.377V7.029h11.008m0 2.763v1.382H12.377V9.792h11.008m0 2.763v1.055c0 .068.036.298-.035.332-.053.027-.145.01-.203.01H12.585c-.05 0-.143.017-.184-.016-.06-.048-.024-.27-.024-.341v-1.04h11.008m-11.008 4.16v-1.04c0-.072-.036-.294.024-.342.084-.066.375-.015.481-.015h7.294c.098 0 .359-.046.437.015.052.042.023.206.023.267v.802c0 .065.034.27-.034.303-.056.028-.156.01-.218.01H15.72z" style="fill:#4a89f3;stroke:none;stroke-width:.0148548"/><path id="path1325" d="M8.75 22.309a.058.058 0 0 1 .036 0c.01.004.002.007-.018.007-.02 0-.03-.003-.019-.007zm18.167 0a.058.058 0 0 1 .037 0c.01.004.002.007-.019.007-.02 0-.029-.003-.018-.007zm-18.3-.015c.01-.005.023-.004.028 0 .005.006-.004.01-.02.009-.017-.001-.02-.005-.009-.01zm18.449 0c.01-.005.024-.004.029 0 .004.006-.004.01-.02.009-.017-.001-.02-.005-.009-.01zm-19.614-.588-.073-.078.078.074c.043.04.078.075.078.078 0 .01-.014-.002-.083-.074zm20.775.015c.061-.066.075-.078.075-.067a.834.834 0 0 1-.07.071l-.071.066zm.596-1.194c0-.017.004-.02.009-.009.004.011.004.024-.001.029-.005.005-.009-.004-.008-.02zm-21.97-.14c0-.02.004-.028.008-.018a.058.058 0 0 1 0 .037c-.004.01-.007.002-.007-.019zm21.986 0c0-.02.003-.028.007-.018a.058.058 0 0 1 0 .037c-.004.01-.007.002-.007-.019zm-16.491-4.293v-.698l4.126.004 4.126.004.003.694.004.695h-8.26zm8.244 0v-.683h-8.229v1.367h8.229zm-8.244-2.763v-.698h11.007v1.397H12.348zm10.992 0v-.683H12.363v1.367H23.34zm-10.985-2.77c0-.384.001-.543.004-.354.002.19.002.504 0 .698-.002.195-.004.04-.004-.344zm10.992 0c0-.384.002-.543.004-.354.003.19.003.504 0 .698-.002.195-.004.04-.004-.344zM12.355 7.798c0-.384.001-.543.004-.354.002.19.002.504 0 .698-.002.195-.004.04-.004-.344zm10.992 0c0-.384.002-.543.004-.354.003.19.003.504 0 .698-.002.195-.004.04-.004-.344zM25.598.185c-2.979-.008-3.254-.01-3.35-.033-.412-.1-.745-.28-1.024-.554a2.06 2.06 0 0 1-.601-1.205c-.012-.095-.018-1.03-.02-3.314L20.6-8.104l.372.375 3.096 3.116a3984.166 3984.166 0 0 0 4.783 4.81c-.004-.003-1.468-.008-3.253-.012zM6.855-6.128c0-.037.003-.052.007-.034a.214.214 0 0 1 0 .067c-.004.018-.007.003-.007-.033zm.014-.179c0-.02.003-.028.007-.018a.058.058 0 0 1 0 .037c-.004.01-.007.002-.007-.019zm.465-1.054a.117.117 0 0 1 .034-.03c.005 0-.004.013-.019.03a.117.117 0 0 1-.034.03c-.004 0 .004-.014.02-.03zm.126-.141a.324.324 0 0 1 .058-.052c.004 0-.015.023-.043.052a.324.324 0 0 1-.058.051c-.004 0 .016-.023.043-.051zm.127-.112a.117.117 0 0 1 .034-.03c.004 0-.005.014-.02.03a.117.117 0 0 1-.034.03c-.004 0 .005-.014.02-.03zm.067-.05c0-.003.011-.015.026-.026.023-.019.024-.018.005.006-.02.024-.031.032-.031.02zm.888-.406c.01-.004.024-.003.029.002.004.004-.004.008-.02.007-.017 0-.02-.004-.009-.009zm.09-.015c.01-.004.023-.003.028.002.005.005-.004.008-.02.007-.017 0-.02-.004-.009-.009zm.154-.015a.328.328 0 0 1 .082 0c.022.003.004.006-.04.006-.046 0-.064-.003-.042-.006z" style="fill:#a5c4f8;stroke-width:.0148548"/></g></svg>