<?xml version="1.0" encoding="UTF-8" standalone="no"?>
<svg
   width="24"
   height="24"
   viewBox="0 0 24 24"
   fill="none"
   version="1.1"
   id="svg154"
   sodipodi:docname="g-maps.svg"
   inkscape:version="1.2.2 (b0a8486541, 2022-12-01)"
   xml:space="preserve"
   inkscape:export-filename="g-drive.svg"
   inkscape:export-xdpi="96"
   inkscape:export-ydpi="96"
   xmlns:inkscape="http://www.inkscape.org/namespaces/inkscape"
   xmlns:sodipodi="http://sodipodi.sourceforge.net/DTD/sodipodi-0.dtd"
   xmlns:xlink="http://www.w3.org/1999/xlink"
   xmlns="http://www.w3.org/2000/svg"
   xmlns:svg="http://www.w3.org/2000/svg"
   xmlns:sketch="http://www.bohemiancoding.com/sketch/ns"><sodipodi:namedview
     id="namedview156"
     pagecolor="#ffffff"
     bordercolor="#eeeeee"
     borderopacity="0"
     inkscape:showpageshadow="0"
     inkscape:pageopacity="0"
     inkscape:pagecheckerboard="false"
     inkscape:deskcolor="#888888"
     showgrid="true"
     inkscape:zoom="32.000001"
     inkscape:cx="1.3125"
     inkscape:cy="10.296875"
     inkscape:window-width="952"
     inkscape:window-height="1044"
     inkscape:window-x="960"
     inkscape:window-y="0"
     inkscape:window-maximized="1"
     inkscape:current-layer="svg154"><inkscape:grid
       type="xygrid"
       id="grid356" /></sodipodi:namedview><defs
     id="defs152"><linearGradient
       id="linearGradient12456"
       inkscape:swatch="solid"><stop
         style="stop-color:#000000;stop-opacity:1;"
         offset="0"
         id="stop12454" /></linearGradient><linearGradient
       id="linearGradient10488"
       inkscape:swatch="solid"><stop
         style="stop-color:#000000;stop-opacity:1;"
         offset="0"
         id="stop10486" /></linearGradient><linearGradient
       id="linearGradient10413"
       inkscape:swatch="solid"><stop
         style="stop-color:#000000;stop-opacity:1;"
         offset="0"
         id="stop10411" /></linearGradient><linearGradient
       inkscape:collect="always"
       id="linearGradient5358"><stop
         style="stop-color:#e6e6e6;stop-opacity:1"
         offset="0"
         id="stop5354" /><stop
         style="stop-color:#ffffff;stop-opacity:1"
         offset="1"
         id="stop5356" /></linearGradient><style
       type="text/css"
       id="current-color-scheme">
      .ColorScheme-Text {
        color:#31363b;
      }
      .ColorScheme-Background {
        color:#eff0f1;
      }
      .ColorScheme-Highlight {
        color:#3daee9;
      }
      .ColorScheme-ViewText {
        color:#31363b;
      }
      .ColorScheme-ViewBackground {
        color:#fcfcfc;
      }
      .ColorScheme-ViewHover {
        color:#93cee9;
      }
      .ColorScheme-ViewFocus{
        color:#3daee9;
      }
      .ColorScheme-ButtonText {
        color:#31363b;
      }
      .ColorScheme-ButtonBackground {
        color:#eff0f1;
      }
      .ColorScheme-ButtonHover {
        color:#93cee9;
      }
      .ColorScheme-ButtonFocus{
        color:#3daee9;
      }
      </style><style
       type="text/css"
       id="current-color-scheme-9">
      .ColorScheme-Text {
        color:#31363b;
      }
      .ColorScheme-Background {
        color:#eff0f1;
      }
      .ColorScheme-Highlight {
        color:#3daee9;
      }
      .ColorScheme-ViewText {
        color:#31363b;
      }
      .ColorScheme-ViewBackground {
        color:#fcfcfc;
      }
      .ColorScheme-ViewHover {
        color:#93cee9;
      }
      .ColorScheme-ViewFocus{
        color:#3daee9;
      }
      .ColorScheme-ButtonText {
        color:#31363b;
      }
      .ColorScheme-ButtonBackground {
        color:#eff0f1;
      }
      .ColorScheme-ButtonHover {
        color:#93cee9;
      }
      .ColorScheme-ButtonFocus{
        color:#3daee9;
      }
      </style><style
       type="text/css"
       id="current-color-scheme-2">
      .ColorScheme-Text {
        color:#31363b;
      }
      .ColorScheme-Background {
        color:#eff0f1;
      }
      .ColorScheme-Highlight {
        color:#3daee9;
      }
      .ColorScheme-ViewText {
        color:#31363b;
      }
      .ColorScheme-ViewBackground {
        color:#fcfcfc;
      }
      .ColorScheme-ViewHover {
        color:#93cee9;
      }
      .ColorScheme-ViewFocus{
        color:#3daee9;
      }
      .ColorScheme-ButtonText {
        color:#31363b;
      }
      .ColorScheme-ButtonBackground {
        color:#eff0f1;
      }
      .ColorScheme-ButtonHover {
        color:#93cee9;
      }
      .ColorScheme-ButtonFocus{
        color:#3daee9;
      }
      </style><style
       type="text/css"
       id="current-color-scheme-3">
      .ColorScheme-Text {
        color:#31363b;
      }
      .ColorScheme-Background {
        color:#eff0f1;
      }
      .ColorScheme-Highlight {
        color:#3daee9;
      }
      .ColorScheme-ViewText {
        color:#31363b;
      }
      .ColorScheme-ViewBackground {
        color:#fcfcfc;
      }
      .ColorScheme-ViewHover {
        color:#93cee9;
      }
      .ColorScheme-ViewFocus{
        color:#3daee9;
      }
      .ColorScheme-ButtonText {
        color:#31363b;
      }
      .ColorScheme-ButtonBackground {
        color:#eff0f1;
      }
      .ColorScheme-ButtonHover {
        color:#93cee9;
      }
      .ColorScheme-ButtonFocus{
        color:#3daee9;
      }
      </style><style
       type="text/css"
       id="current-color-scheme-97">
      .ColorScheme-Text {
        color:#31363b;
      }
      .ColorScheme-Background {
        color:#eff0f1;
      }
      .ColorScheme-Highlight {
        color:#3daee9;
      }
      .ColorScheme-ViewText {
        color:#31363b;
      }
      .ColorScheme-ViewBackground {
        color:#fcfcfc;
      }
      .ColorScheme-ViewHover {
        color:#93cee9;
      }
      .ColorScheme-ViewFocus{
        color:#3daee9;
      }
      .ColorScheme-ButtonText {
        color:#31363b;
      }
      .ColorScheme-ButtonBackground {
        color:#eff0f1;
      }
      .ColorScheme-ButtonHover {
        color:#93cee9;
      }
      .ColorScheme-ButtonFocus{
        color:#3daee9;
      }
      </style><style
       type="text/css"
       id="current-color-scheme-7">
      .ColorScheme-Text {
        color:#31363b;
      }
      .ColorScheme-Background {
        color:#eff0f1;
      }
      .ColorScheme-Highlight {
        color:#3daee9;
      }
      .ColorScheme-ViewText {
        color:#31363b;
      }
      .ColorScheme-ViewBackground {
        color:#fcfcfc;
      }
      .ColorScheme-ViewHover {
        color:#93cee9;
      }
      .ColorScheme-ViewFocus{
        color:#3daee9;
      }
      .ColorScheme-ButtonText {
        color:#31363b;
      }
      .ColorScheme-ButtonBackground {
        color:#eff0f1;
      }
      .ColorScheme-ButtonHover {
        color:#93cee9;
      }
      .ColorScheme-ButtonFocus{
        color:#3daee9;
      }
      </style><style
       type="text/css"
       id="current-color-scheme-9-0">
      .ColorScheme-Text {
        color:#31363b;
      }
      .ColorScheme-Background {
        color:#eff0f1;
      }
      .ColorScheme-Highlight {
        color:#3daee9;
      }
      .ColorScheme-ViewText {
        color:#31363b;
      }
      .ColorScheme-ViewBackground {
        color:#fcfcfc;
      }
      .ColorScheme-ViewHover {
        color:#93cee9;
      }
      .ColorScheme-ViewFocus{
        color:#3daee9;
      }
      .ColorScheme-ButtonText {
        color:#31363b;
      }
      .ColorScheme-ButtonBackground {
        color:#eff0f1;
      }
      .ColorScheme-ButtonHover {
        color:#93cee9;
      }
      .ColorScheme-ButtonFocus{
        color:#3daee9;
      }
      </style><style
       type="text/css"
       id="current-color-scheme-2-9">
      .ColorScheme-Text {
        color:#31363b;
      }
      .ColorScheme-Background {
        color:#eff0f1;
      }
      .ColorScheme-Highlight {
        color:#3daee9;
      }
      .ColorScheme-ViewText {
        color:#31363b;
      }
      .ColorScheme-ViewBackground {
        color:#fcfcfc;
      }
      .ColorScheme-ViewHover {
        color:#93cee9;
      }
      .ColorScheme-ViewFocus{
        color:#3daee9;
      }
      .ColorScheme-ButtonText {
        color:#31363b;
      }
      .ColorScheme-ButtonBackground {
        color:#eff0f1;
      }
      .ColorScheme-ButtonHover {
        color:#93cee9;
      }
      .ColorScheme-ButtonFocus{
        color:#3daee9;
      }
      </style><style
       type="text/css"
       id="current-color-scheme-3-3">
      .ColorScheme-Text {
        color:#31363b;
      }
      .ColorScheme-Background {
        color:#eff0f1;
      }
      .ColorScheme-Highlight {
        color:#3daee9;
      }
      .ColorScheme-ViewText {
        color:#31363b;
      }
      .ColorScheme-ViewBackground {
        color:#fcfcfc;
      }
      .ColorScheme-ViewHover {
        color:#93cee9;
      }
      .ColorScheme-ViewFocus{
        color:#3daee9;
      }
      .ColorScheme-ButtonText {
        color:#31363b;
      }
      .ColorScheme-ButtonBackground {
        color:#eff0f1;
      }
      .ColorScheme-ButtonHover {
        color:#93cee9;
      }
      .ColorScheme-ButtonFocus{
        color:#3daee9;
      }
      </style><style
       type="text/css"
       id="current-color-scheme-97-6">
      .ColorScheme-Text {
        color:#31363b;
      }
      .ColorScheme-Background {
        color:#eff0f1;
      }
      .ColorScheme-Highlight {
        color:#3daee9;
      }
      .ColorScheme-ViewText {
        color:#31363b;
      }
      .ColorScheme-ViewBackground {
        color:#fcfcfc;
      }
      .ColorScheme-ViewHover {
        color:#93cee9;
      }
      .ColorScheme-ViewFocus{
        color:#3daee9;
      }
      .ColorScheme-ButtonText {
        color:#31363b;
      }
      .ColorScheme-ButtonBackground {
        color:#eff0f1;
      }
      .ColorScheme-ButtonHover {
        color:#93cee9;
      }
      .ColorScheme-ButtonFocus{
        color:#3daee9;
      }
      </style><linearGradient
       inkscape:collect="always"
       xlink:href="#linearGradient5358"
       id="linearGradient5360"
       x1="13.523417"
       y1="34.648232"
       x2="13.744388"
       y2="-9.8553009"
       gradientUnits="userSpaceOnUse" /><style
       type="text/css"
       id="current-color-scheme-36">
      .ColorScheme-Text {
        color:#31363b;
      }
      .ColorScheme-Background {
        color:#eff0f1;
      }
      .ColorScheme-Highlight {
        color:#3daee9;
      }
      .ColorScheme-ViewText {
        color:#31363b;
      }
      .ColorScheme-ViewBackground {
        color:#fcfcfc;
      }
      .ColorScheme-ViewHover {
        color:#93cee9;
      }
      .ColorScheme-ViewFocus{
        color:#3daee9;
      }
      .ColorScheme-ButtonText {
        color:#31363b;
      }
      .ColorScheme-ButtonBackground {
        color:#eff0f1;
      }
      .ColorScheme-ButtonHover {
        color:#93cee9;
      }
      .ColorScheme-ButtonFocus{
        color:#3daee9;
      }
      </style><style
       type="text/css"
       id="current-color-scheme-9-75">
      .ColorScheme-Text {
        color:#31363b;
      }
      .ColorScheme-Background {
        color:#eff0f1;
      }
      .ColorScheme-Highlight {
        color:#3daee9;
      }
      .ColorScheme-ViewText {
        color:#31363b;
      }
      .ColorScheme-ViewBackground {
        color:#fcfcfc;
      }
      .ColorScheme-ViewHover {
        color:#93cee9;
      }
      .ColorScheme-ViewFocus{
        color:#3daee9;
      }
      .ColorScheme-ButtonText {
        color:#31363b;
      }
      .ColorScheme-ButtonBackground {
        color:#eff0f1;
      }
      .ColorScheme-ButtonHover {
        color:#93cee9;
      }
      .ColorScheme-ButtonFocus{
        color:#3daee9;
      }
      </style><style
       type="text/css"
       id="current-color-scheme-2-3">
      .ColorScheme-Text {
        color:#31363b;
      }
      .ColorScheme-Background {
        color:#eff0f1;
      }
      .ColorScheme-Highlight {
        color:#3daee9;
      }
      .ColorScheme-ViewText {
        color:#31363b;
      }
      .ColorScheme-ViewBackground {
        color:#fcfcfc;
      }
      .ColorScheme-ViewHover {
        color:#93cee9;
      }
      .ColorScheme-ViewFocus{
        color:#3daee9;
      }
      .ColorScheme-ButtonText {
        color:#31363b;
      }
      .ColorScheme-ButtonBackground {
        color:#eff0f1;
      }
      .ColorScheme-ButtonHover {
        color:#93cee9;
      }
      .ColorScheme-ButtonFocus{
        color:#3daee9;
      }
      </style><style
       type="text/css"
       id="current-color-scheme-3-5">
      .ColorScheme-Text {
        color:#31363b;
      }
      .ColorScheme-Background {
        color:#eff0f1;
      }
      .ColorScheme-Highlight {
        color:#3daee9;
      }
      .ColorScheme-ViewText {
        color:#31363b;
      }
      .ColorScheme-ViewBackground {
        color:#fcfcfc;
      }
      .ColorScheme-ViewHover {
        color:#93cee9;
      }
      .ColorScheme-ViewFocus{
        color:#3daee9;
      }
      .ColorScheme-ButtonText {
        color:#31363b;
      }
      .ColorScheme-ButtonBackground {
        color:#eff0f1;
      }
      .ColorScheme-ButtonHover {
        color:#93cee9;
      }
      .ColorScheme-ButtonFocus{
        color:#3daee9;
      }
      </style><style
       type="text/css"
       id="current-color-scheme-97-62">
      .ColorScheme-Text {
        color:#31363b;
      }
      .ColorScheme-Background {
        color:#eff0f1;
      }
      .ColorScheme-Highlight {
        color:#3daee9;
      }
      .ColorScheme-ViewText {
        color:#31363b;
      }
      .ColorScheme-ViewBackground {
        color:#fcfcfc;
      }
      .ColorScheme-ViewHover {
        color:#93cee9;
      }
      .ColorScheme-ViewFocus{
        color:#3daee9;
      }
      .ColorScheme-ButtonText {
        color:#31363b;
      }
      .ColorScheme-ButtonBackground {
        color:#eff0f1;
      }
      .ColorScheme-ButtonHover {
        color:#93cee9;
      }
      .ColorScheme-ButtonFocus{
        color:#3daee9;
      }
      </style><style
       type="text/css"
       id="current-color-scheme-7-9">
      .ColorScheme-Text {
        color:#31363b;
      }
      .ColorScheme-Background {
        color:#eff0f1;
      }
      .ColorScheme-Highlight {
        color:#3daee9;
      }
      .ColorScheme-ViewText {
        color:#31363b;
      }
      .ColorScheme-ViewBackground {
        color:#fcfcfc;
      }
      .ColorScheme-ViewHover {
        color:#93cee9;
      }
      .ColorScheme-ViewFocus{
        color:#3daee9;
      }
      .ColorScheme-ButtonText {
        color:#31363b;
      }
      .ColorScheme-ButtonBackground {
        color:#eff0f1;
      }
      .ColorScheme-ButtonHover {
        color:#93cee9;
      }
      .ColorScheme-ButtonFocus{
        color:#3daee9;
      }
      </style><style
       type="text/css"
       id="current-color-scheme-9-0-1">
      .ColorScheme-Text {
        color:#31363b;
      }
      .ColorScheme-Background {
        color:#eff0f1;
      }
      .ColorScheme-Highlight {
        color:#3daee9;
      }
      .ColorScheme-ViewText {
        color:#31363b;
      }
      .ColorScheme-ViewBackground {
        color:#fcfcfc;
      }
      .ColorScheme-ViewHover {
        color:#93cee9;
      }
      .ColorScheme-ViewFocus{
        color:#3daee9;
      }
      .ColorScheme-ButtonText {
        color:#31363b;
      }
      .ColorScheme-ButtonBackground {
        color:#eff0f1;
      }
      .ColorScheme-ButtonHover {
        color:#93cee9;
      }
      .ColorScheme-ButtonFocus{
        color:#3daee9;
      }
      </style><style
       type="text/css"
       id="current-color-scheme-2-9-2">
      .ColorScheme-Text {
        color:#31363b;
      }
      .ColorScheme-Background {
        color:#eff0f1;
      }
      .ColorScheme-Highlight {
        color:#3daee9;
      }
      .ColorScheme-ViewText {
        color:#31363b;
      }
      .ColorScheme-ViewBackground {
        color:#fcfcfc;
      }
      .ColorScheme-ViewHover {
        color:#93cee9;
      }
      .ColorScheme-ViewFocus{
        color:#3daee9;
      }
      .ColorScheme-ButtonText {
        color:#31363b;
      }
      .ColorScheme-ButtonBackground {
        color:#eff0f1;
      }
      .ColorScheme-ButtonHover {
        color:#93cee9;
      }
      .ColorScheme-ButtonFocus{
        color:#3daee9;
      }
      </style><style
       type="text/css"
       id="current-color-scheme-3-3-7">
      .ColorScheme-Text {
        color:#31363b;
      }
      .ColorScheme-Background {
        color:#eff0f1;
      }
      .ColorScheme-Highlight {
        color:#3daee9;
      }
      .ColorScheme-ViewText {
        color:#31363b;
      }
      .ColorScheme-ViewBackground {
        color:#fcfcfc;
      }
      .ColorScheme-ViewHover {
        color:#93cee9;
      }
      .ColorScheme-ViewFocus{
        color:#3daee9;
      }
      .ColorScheme-ButtonText {
        color:#31363b;
      }
      .ColorScheme-ButtonBackground {
        color:#eff0f1;
      }
      .ColorScheme-ButtonHover {
        color:#93cee9;
      }
      .ColorScheme-ButtonFocus{
        color:#3daee9;
      }
      </style><style
       type="text/css"
       id="current-color-scheme-97-6-0">
      .ColorScheme-Text {
        color:#31363b;
      }
      .ColorScheme-Background {
        color:#eff0f1;
      }
      .ColorScheme-Highlight {
        color:#3daee9;
      }
      .ColorScheme-ViewText {
        color:#31363b;
      }
      .ColorScheme-ViewBackground {
        color:#fcfcfc;
      }
      .ColorScheme-ViewHover {
        color:#93cee9;
      }
      .ColorScheme-ViewFocus{
        color:#3daee9;
      }
      .ColorScheme-ButtonText {
        color:#31363b;
      }
      .ColorScheme-ButtonBackground {
        color:#eff0f1;
      }
      .ColorScheme-ButtonHover {
        color:#93cee9;
      }
      .ColorScheme-ButtonFocus{
        color:#3daee9;
      }
      </style><style
       type="text/css"
       id="current-color-scheme-6">
      .ColorScheme-Text {
        color:#31363b;
      }
      .ColorScheme-Background {
        color:#eff0f1;
      }
      .ColorScheme-Highlight {
        color:#3daee9;
      }
      .ColorScheme-ViewText {
        color:#31363b;
      }
      .ColorScheme-ViewBackground {
        color:#fcfcfc;
      }
      .ColorScheme-ViewHover {
        color:#93cee9;
      }
      .ColorScheme-ViewFocus{
        color:#3daee9;
      }
      .ColorScheme-ButtonText {
        color:#31363b;
      }
      .ColorScheme-ButtonBackground {
        color:#eff0f1;
      }
      .ColorScheme-ButtonHover {
        color:#93cee9;
      }
      .ColorScheme-ButtonFocus{
        color:#3daee9;
      }
      </style><style
       type="text/css"
       id="current-color-scheme-8">
      .ColorScheme-Text {
        color:#31363b;
      }
      .ColorScheme-Background {
        color:#eff0f1;
      }
      .ColorScheme-Highlight {
        color:#3daee9;
      }
      .ColorScheme-ViewText {
        color:#31363b;
      }
      .ColorScheme-ViewBackground {
        color:#fcfcfc;
      }
      .ColorScheme-ViewHover {
        color:#93cee9;
      }
      .ColorScheme-ViewFocus{
        color:#3daee9;
      }
      .ColorScheme-ButtonText {
        color:#31363b;
      }
      .ColorScheme-ButtonBackground {
        color:#eff0f1;
      }
      .ColorScheme-ButtonHover {
        color:#93cee9;
      }
      .ColorScheme-ButtonFocus{
        color:#3daee9;
      }
      </style><style
       type="text/css"
       id="current-color-scheme-9-7">
      .ColorScheme-Text {
        color:#31363b;
      }
      .ColorScheme-Background {
        color:#eff0f1;
      }
      .ColorScheme-Highlight {
        color:#3daee9;
      }
      .ColorScheme-ViewText {
        color:#31363b;
      }
      .ColorScheme-ViewBackground {
        color:#fcfcfc;
      }
      .ColorScheme-ViewHover {
        color:#93cee9;
      }
      .ColorScheme-ViewFocus{
        color:#3daee9;
      }
      .ColorScheme-ButtonText {
        color:#31363b;
      }
      .ColorScheme-ButtonBackground {
        color:#eff0f1;
      }
      .ColorScheme-ButtonHover {
        color:#93cee9;
      }
      .ColorScheme-ButtonFocus{
        color:#3daee9;
      }
      </style><style
       type="text/css"
       id="current-color-scheme-2-92">
      .ColorScheme-Text {
        color:#31363b;
      }
      .ColorScheme-Background {
        color:#eff0f1;
      }
      .ColorScheme-Highlight {
        color:#3daee9;
      }
      .ColorScheme-ViewText {
        color:#31363b;
      }
      .ColorScheme-ViewBackground {
        color:#fcfcfc;
      }
      .ColorScheme-ViewHover {
        color:#93cee9;
      }
      .ColorScheme-ViewFocus{
        color:#3daee9;
      }
      .ColorScheme-ButtonText {
        color:#31363b;
      }
      .ColorScheme-ButtonBackground {
        color:#eff0f1;
      }
      .ColorScheme-ButtonHover {
        color:#93cee9;
      }
      .ColorScheme-ButtonFocus{
        color:#3daee9;
      }
      </style><style
       type="text/css"
       id="current-color-scheme-3-0">
      .ColorScheme-Text {
        color:#31363b;
      }
      .ColorScheme-Background {
        color:#eff0f1;
      }
      .ColorScheme-Highlight {
        color:#3daee9;
      }
      .ColorScheme-ViewText {
        color:#31363b;
      }
      .ColorScheme-ViewBackground {
        color:#fcfcfc;
      }
      .ColorScheme-ViewHover {
        color:#93cee9;
      }
      .ColorScheme-ViewFocus{
        color:#3daee9;
      }
      .ColorScheme-ButtonText {
        color:#31363b;
      }
      .ColorScheme-ButtonBackground {
        color:#eff0f1;
      }
      .ColorScheme-ButtonHover {
        color:#93cee9;
      }
      .ColorScheme-ButtonFocus{
        color:#3daee9;
      }
      </style><style
       type="text/css"
       id="current-color-scheme-97-2">
      .ColorScheme-Text {
        color:#31363b;
      }
      .ColorScheme-Background {
        color:#eff0f1;
      }
      .ColorScheme-Highlight {
        color:#3daee9;
      }
      .ColorScheme-ViewText {
        color:#31363b;
      }
      .ColorScheme-ViewBackground {
        color:#fcfcfc;
      }
      .ColorScheme-ViewHover {
        color:#93cee9;
      }
      .ColorScheme-ViewFocus{
        color:#3daee9;
      }
      .ColorScheme-ButtonText {
        color:#31363b;
      }
      .ColorScheme-ButtonBackground {
        color:#eff0f1;
      }
      .ColorScheme-ButtonHover {
        color:#93cee9;
      }
      .ColorScheme-ButtonFocus{
        color:#3daee9;
      }
      </style><style
       type="text/css"
       id="current-color-scheme-4">
      .ColorScheme-Text {
        color:#31363b;
      }
      .ColorScheme-Background {
        color:#eff0f1;
      }
      .ColorScheme-Highlight {
        color:#3daee9;
      }
      .ColorScheme-ViewText {
        color:#31363b;
      }
      .ColorScheme-ViewBackground {
        color:#fcfcfc;
      }
      .ColorScheme-ViewHover {
        color:#93cee9;
      }
      .ColorScheme-ViewFocus{
        color:#3daee9;
      }
      .ColorScheme-ButtonText {
        color:#31363b;
      }
      .ColorScheme-ButtonBackground {
        color:#eff0f1;
      }
      .ColorScheme-ButtonHover {
        color:#93cee9;
      }
      .ColorScheme-ButtonFocus{
        color:#3daee9;
      }
      </style><linearGradient
       inkscape:collect="always"
       xlink:href="#linearGradient5358"
       id="linearGradient13399"
       gradientUnits="userSpaceOnUse"
       x1="13.523417"
       y1="34.648232"
       x2="13.744388"
       y2="-9.8553009" /></defs><g
     id="g2267"
     inkscape:label="Shape"
     inkscape:highlight-color="#00dcff"
     style="fill:url(#linearGradient5360);fill-opacity:1"><path
       d="M 50,5 C 9.0909092,5 5,25.454546 5,50 5,82.727274 17.272728,95 50,95 82.727274,95 95,82.727274 95,50 95,25.454546 90.909093,5 50,5 Z"
       sketch:type="MSShapeGroup"
       id="path6"
       style="font-variation-settings:normal;display:inline;opacity:1;vector-effect:none;fill:url(#linearGradient13399);fill-opacity:1;stroke-width:4.56656;stroke-linecap:butt;stroke-linejoin:miter;stroke-miterlimit:4;stroke-dasharray:none;stroke-dashoffset:0;stroke-opacity:1;-inkscape-stroke:none;stop-color:#000000;stop-opacity:1"
       transform="matrix(0.24444444,0,0,0.24444444,-0.22222222,-0.22222222)"
       sodipodi:nodetypes="sssss"
       inkscape:label="Squircle" /></g><g
     inkscape:groupmode="layer"
     id="layer3"
     inkscape:label="Guides"
     sodipodi:insensitive="true"
     style="display:none"><circle
       style="font-variation-settings:normal;display:inline;opacity:1;vector-effect:none;fill:none;fill-opacity:0.592829;stroke:#ff0000;stroke-width:0.0444444;stroke-linecap:butt;stroke-linejoin:miter;stroke-miterlimit:4;stroke-dasharray:none;stroke-dashoffset:0;stroke-opacity:1;-inkscape-stroke:none;paint-order:markers stroke fill;stop-color:#000000;stop-opacity:1"
       id="path1480"
       cx="12"
       cy="12"
       r="8"
       inkscape:label="Circle Guide" /><rect
       style="font-variation-settings:normal;display:inline;opacity:1;fill:none;fill-opacity:0.592829;stroke:#ff0000;stroke-width:0.05;stroke-linecap:butt;stroke-linejoin:miter;stroke-miterlimit:4;stroke-dasharray:none;stroke-dashoffset:0;stroke-opacity:1;paint-order:markers stroke fill;stop-color:#000000;stop-opacity:1"
       id="rect1482"
       width="14"
       height="14"
       x="5"
       y="5"
       inkscape:label="Square Guide" /></g><g
     id="g3836"
     transform="matrix(0.63533064,0,0,0.63533064,19.861131,5.9671514)"><path
       style="fill:#fdb900;stroke-width:0.0183333"
       d="m -10.945,7.5566665 v -1.925 h -3.620833 -3.620834 V 3.0649997 0.49833295 l 5.43125,1.3849e-4 c 3.6798461,9.384e-5 5.4696777,0.006302 5.550417,0.0192536 0.6225349,0.0998586 1.1196082,0.58331436 1.2389923,1.20504966 0.020848,0.1085732 0.025756,0.4617117 0.026192,1.8846306 l 5.371e-4,1.7510221 -0.050777,0.042421 c -0.9442319,0.7888542 -4.9291754,4.0808179 -4.9398574,4.0808179 -0.0083,0 -0.01509,-0.86625 -0.01509,-1.9250001 z"
       id="path3848" /><path
       style="fill:#2684f9;stroke-width:0.0183333"
       d="m -21.958401,18.488962 c 0.01784,-0.0046 0.04259,-0.0043 0.055,6.8e-4 0.01241,0.005 -0.0022,0.0088 -0.03243,0.0085 -0.03025,-3.74e-4 -0.04041,-0.0045 -0.02257,-0.0091 z m -0.237168,-0.03357 c -0.280382,-0.07556 -0.501391,-0.210778 -0.717278,-0.438848 -0.117366,-0.123989 -0.164731,-0.192163 -0.238676,-0.343531 -0.05074,-0.103864 -0.107298,-0.242469 -0.125687,-0.308011 -0.03199,-0.114007 -0.03365,-0.369889 -0.03831,-5.910383 -0.003,-3.5317423 0.0017,-5.7991953 0.01209,-5.8116669 0.01237,-0.014907 0.708136,-0.019173 2.566822,-0.015739 l 2.549851,0.00471 0.0046,3.8636227 0.0046,3.8636232 3.593333,0.01065 c 2.921985,0.0087 2.445875,0.01038 -2.548333,0.0092 l -6.141667,-0.0015 v 1.934167 1.934167 l 0.04144,0.142985 c 0.152551,0.526349 0.580863,0.939233 1.080424,1.041507 0.06244,0.01278 0.109394,0.02994 0.104335,0.03813 -0.01205,0.0195 -0.03397,0.01756 -0.147603,-0.01306 z m 15.1189023,4.44e-4 c 0,-0.005 0.00412,-0.0092 0.00917,-0.0092 0.00504,0 0.00917,0.0041 0.00917,0.0092 0,0.005 -0.00413,0.0092 -0.00917,0.0092 -0.00504,0 -0.00917,-0.0041 -0.00917,-0.0092 z m 0.055,-0.01833 c 0,-0.005 0.00413,-0.0092 0.00917,-0.0092 0.00504,0 0.00917,0.0041 0.00917,0.0092 0,0.005 -0.00412,0.0092 -0.00917,0.0092 -0.00504,0 -0.00917,-0.0041 -0.00917,-0.0092 z m 0.11,-0.03667 c 0,-0.005 0.00412,-0.0092 0.00917,-0.0092 0.00504,0 0.00917,0.0041 0.00917,0.0092 0,0.005 -0.00413,0.0092 -0.00917,0.0092 -0.00504,0 -0.00917,-0.0041 -0.00917,-0.0092 z m 0.055,-0.01833 c 0,-0.005 0.00413,-0.0092 0.00917,-0.0092 0.00504,0 0.00917,0.0041 0.00917,0.0092 0,0.005 -0.00412,0.0092 -0.00917,0.0092 -0.00504,0 -0.00917,-0.0041 -0.00917,-0.0092 z M -6.82,18.364167 c 0,-0.005 0.00413,-0.0092 0.00917,-0.0092 0.00504,0 0.00917,0.0041 0.00917,0.0092 0,0.005 -0.00413,0.0092 -0.00917,0.0092 -0.00504,0 -0.00917,-0.0041 -0.00917,-0.0092 z m 0.036667,-0.01833 c 0,-0.005 0.00413,-0.0092 0.00917,-0.0092 0.00504,0 0.00917,0.0041 0.00917,0.0092 0,0.005 -0.00413,0.0092 -0.00917,0.0092 -0.00504,0 -0.00917,-0.0041 -0.00917,-0.0092 z m 0.036667,-0.01833 c 0,-0.005 0.00412,-0.0092 0.00917,-0.0092 0.00504,0 0.00917,0.0041 0.00917,0.0092 0,0.005 -0.00413,0.0092 -0.00917,0.0092 -0.00504,0 -0.00917,-0.0041 -0.00917,-0.0092 z M -6.71,18.309167 c 0,-0.005 0.00413,-0.0092 0.00917,-0.0092 0.00504,0 0.00917,0.0041 0.00917,0.0092 0,0.005 -0.00413,0.0092 -0.00917,0.0092 -0.00504,0 -0.00917,-0.0041 -0.00917,-0.0092 z m 0.055,-0.03667 c 0,-0.005 0.00413,-0.0092 0.00917,-0.0092 0.00504,0 0.00917,0.0041 0.00917,0.0092 0,0.005 -0.00413,0.0092 -0.00917,0.0092 -0.00504,0 -0.00917,-0.0041 -0.00917,-0.0092 z m 0.055,-0.03667 c 0,-0.005 0.00412,-0.0092 0.00917,-0.0092 0.00504,0 0.00917,0.0041 0.00917,0.0092 0,0.005 -0.00412,0.0092 -0.00917,0.0092 -0.00504,0 -0.00917,-0.0041 -0.00917,-0.0092 z m 0.055,-0.03667 c 0,-0.005 0.00413,-0.0092 0.00917,-0.0092 0.00504,0 0.00917,0.0041 0.00917,0.0092 0,0.005 -0.00413,0.0092 -0.00917,0.0092 -0.00504,0 -0.00917,-0.0041 -0.00917,-0.0092 z m 0.1558333,-0.1375 c 0.039384,-0.04033 0.075733,-0.07333 0.080775,-0.07333 0.00504,0 -0.023057,0.033 -0.062442,0.07333 -0.039384,0.04033 -0.075733,0.07333 -0.080775,0.07333 -0.00504,0 0.023057,-0.033 0.062442,-0.07333 z m 0.1375,-0.155833 c 0,-0.005 0.00413,-0.0092 0.00917,-0.0092 0.00504,0 0.00917,0.0041 0.00917,0.0092 0,0.005 -0.00413,0.0092 -0.00917,0.0092 -0.00504,0 -0.00917,-0.0041 -0.00917,-0.0092 z m 0.055,-0.07333 c 0,-0.005 0.00413,-0.0092 0.00917,-0.0092 0.00504,0 0.00917,0.0041 0.00917,0.0092 0,0.005 -0.00413,0.0092 -0.00917,0.0092 -0.00504,0 -0.00917,-0.0041 -0.00917,-0.0092 z m 0.018333,-0.03667 c 0,-0.005 0.00413,-0.0092 0.00917,-0.0092 0.00504,0 0.00917,0.0041 0.00917,0.0092 0,0.005 -0.00413,0.0092 -0.00917,0.0092 -0.00504,0 -0.00917,-0.0041 -0.00917,-0.0092 z m 0.036667,-0.055 c 0,-0.005 0.00413,-0.0092 0.00917,-0.0092 0.00504,0 0.00917,0.0041 0.00917,0.0092 0,0.005 -0.00413,0.0092 -0.00917,0.0092 -0.00504,0 -0.00917,-0.0041 -0.00917,-0.0092 z m 0.018333,-0.03667 c 0,-0.005 0.00412,-0.0092 0.00917,-0.0092 0.00504,0 0.00917,0.0041 0.00917,0.0092 0,0.005 -0.00412,0.0092 -0.00917,0.0092 -0.00504,0 -0.00917,-0.0041 -0.00917,-0.0092 z M -6.105,17.6675 c 0,-0.005 0.00413,-0.0092 0.00917,-0.0092 0.00504,0 0.00917,0.0041 0.00917,0.0092 0,0.005 -0.00412,0.0092 -0.00917,0.0092 -0.00504,0 -0.00917,-0.0041 -0.00917,-0.0092 z m 0.018333,-0.03667 c 0,-0.005 0.00413,-0.0092 0.00917,-0.0092 0.00504,0 0.00917,0.0041 0.00917,0.0092 0,0.005 -0.00413,0.0092 -0.00917,0.0092 -0.00504,0 -0.00917,-0.0041 -0.00917,-0.0092 z m 0.018333,-0.03667 c 0,-0.005 0.00413,-0.0092 0.00917,-0.0092 0.00504,0 0.00917,0.0041 0.00917,0.0092 0,0.005 -0.00413,0.0092 -0.00917,0.0092 -0.00504,0 -0.00917,-0.0041 -0.00917,-0.0092 z m 0.018333,-0.055 c 0,-0.005 0.00413,-0.0092 0.00917,-0.0092 0.00504,0 0.00917,0.0041 0.00917,0.0092 0,0.005 -0.00413,0.0092 -0.00917,0.0092 -0.00504,0 -0.00917,-0.0041 -0.00917,-0.0092 z m 0.018333,-0.03667 c 0,-0.005 0.00413,-0.0092 0.00917,-0.0092 0.00504,0 0.00917,0.0041 0.00917,0.0092 0,0.005 -0.00413,0.0092 -0.00917,0.0092 -0.00504,0 -0.00917,-0.0041 -0.00917,-0.0092 z m 0.018333,-0.055 c 0,-0.005 0.00413,-0.0092 0.00917,-0.0092 0.00504,0 0.00917,0.0041 0.00917,0.0092 0,0.005 -0.00413,0.0092 -0.00917,0.0092 -0.00504,0 -0.00917,-0.0041 -0.00917,-0.0092 z M -5.995,17.374167 c 0,-0.005 0.00413,-0.0092 0.00917,-0.0092 0.00504,0 0.00917,0.0041 0.00917,0.0092 0,0.005 -0.00413,0.0092 -0.00917,0.0092 -0.00504,0 -0.00917,-0.0041 -0.00917,-0.0092 z m 0.018333,-0.0825 c 0,-0.01344 0.0055,-0.01894 0.012222,-0.01222 0.00672,0.0067 0.00672,0.01772 0,0.02444 -0.00672,0.0067 -0.012222,0.0012 -0.012222,-0.01222 z m 0.018333,-0.11 c 0,-0.01344 0.0055,-0.01894 0.012222,-0.01222 0.00672,0.0067 0.00672,0.01772 0,0.02444 -0.00672,0.0067 -0.012222,0.0012 -0.012222,-0.01222 z m 3.6727771,-0.562222 c 0.00672,-0.0067 0.017723,-0.0067 0.024446,0 0.00672,0.0067 0.00122,0.01222 -0.012223,0.01222 -0.013444,0 -0.018944,-0.0055 -0.012223,-0.01222 z m 0.165,0 c 0.00672,-0.0067 0.017723,-0.0067 0.024446,0 0.00672,0.0067 0.00122,0.01222 -0.012223,0.01222 -0.013444,0 -0.018944,-0.0055 -0.012223,-0.01222 z m -0.2627771,-0.01528 c 0,-0.005 0.00412,-0.0092 0.00917,-0.0092 0.00504,0 0.00917,0.0041 0.00917,0.0092 0,0.005 -0.00412,0.0092 -0.00917,0.0092 -0.00504,0 -0.00917,-0.0041 -0.00917,-0.0092 z m 0.3666666,0 c 0,-0.005 0.00413,-0.0092 0.00917,-0.0092 0.00504,0 0.00917,0.0041 0.00917,0.0092 0,0.005 -0.00412,0.0092 -0.00917,0.0092 -0.00504,0 -0.00917,-0.0041 -0.00917,-0.0092 z m -0.4216666,-0.01833 c 0,-0.005 0.00413,-0.0092 0.00917,-0.0092 0.00504,0 0.00917,0.0041 0.00917,0.0092 0,0.005 -0.00413,0.0092 -0.00917,0.0092 -0.00504,0 -0.00917,-0.0041 -0.00917,-0.0092 z m -0.055,-0.01833 c 0,-0.005 0.00413,-0.0092 0.00917,-0.0092 0.00504,0 0.00917,0.0041 0.00917,0.0092 0,0.005 -0.00412,0.0092 -0.00917,0.0092 -0.00504,0 -0.00917,-0.0041 -0.00917,-0.0092 z m 0.5866666,0 c 0,-0.005 0.00412,-0.0092 0.00917,-0.0092 0.00504,0 0.00917,0.0041 0.00917,0.0092 0,0.005 -0.00412,0.0092 -0.00917,0.0092 -0.00504,0 -0.00917,-0.0041 -0.00917,-0.0092 z M -2.53,16.549167 c 0,-0.005 0.00412,-0.0092 0.00917,-0.0092 0.00504,0 0.00917,0.0041 0.00917,0.0092 0,0.005 -0.00412,0.0092 -0.00917,0.0092 -0.00504,0 -0.00917,-0.0041 -0.00917,-0.0092 z m -0.036667,-0.01833 c 0,-0.005 0.00412,-0.0092 0.00917,-0.0092 0.00504,0 0.00917,0.0041 0.00917,0.0092 0,0.005 -0.00413,0.0092 -0.00917,0.0092 -0.00504,0 -0.00917,-0.0041 -0.00917,-0.0092 z m 0.7333334,0 c 0,-0.005 0.00413,-0.0092 0.00917,-0.0092 0.00504,0 0.00917,0.0041 0.00917,0.0092 0,0.005 -0.00413,0.0092 -0.00917,0.0092 -0.00504,0 -0.00917,-0.0041 -0.00917,-0.0092 z m 0.036667,-0.01833 c 0,-0.005 0.00413,-0.0092 0.00917,-0.0092 0.00504,0 0.00917,0.0041 0.00917,0.0092 0,0.005 -0.00413,0.0092 -0.00917,0.0092 -0.00504,0 -0.00917,-0.0041 -0.00917,-0.0092 z m -0.825,-0.01833 c 0,-0.005 0.00413,-0.0092 0.00917,-0.0092 0.00504,0 0.00917,0.0041 0.00917,0.0092 0,0.005 -0.00412,0.0092 -0.00917,0.0092 -0.00504,0 -0.00917,-0.0041 -0.00917,-0.0092 z m 0.8891667,-0.0275 c 0.00623,-0.01008 0.015455,-0.01833 0.020497,-0.01833 0.00504,0 0.00407,0.0083 -0.00216,0.01833 -0.00623,0.01008 -0.015455,0.01833 -0.020497,0.01833 -0.00504,0 -0.00407,-0.0083 0.00216,-0.01833 z m -0.9734175,-0.0395 c -0.00811,-0.01311 -0.00503,-0.01619 0.00808,-0.0081 0.021133,0.01306 0.028374,0.02925 0.013081,0.02925 -0.00445,0 -0.013972,-0.0095 -0.021166,-0.02117 z m -0.11,-0.09167 c -0.00811,-0.01311 -0.00503,-0.01619 0.00808,-0.0081 0.011642,0.0072 0.021166,0.01672 0.021166,0.02117 0,0.01529 -0.01619,0.0081 -0.029251,-0.01308 z m 1.2117508,0.0028 c 0.00623,-0.01008 0.015455,-0.01833 0.020497,-0.01833 0.00504,0 0.00407,0.0083 -0.00216,0.01833 -0.00623,0.01008 -0.015455,0.01833 -0.020497,0.01833 -0.00504,0 -0.00407,-0.0083 0.00216,-0.01833 z m 0.045833,-0.06417 c 0,-0.005 0.00412,-0.0092 0.00917,-0.0092 0.00504,0 0.00917,0.0041 0.00917,0.0092 0,0.005 -0.00412,0.0092 -0.00917,0.0092 -0.00504,0 -0.00917,-0.0041 -0.00917,-0.0092 z M -2.915,16.255834 c 0,-0.005 0.00413,-0.0092 0.00917,-0.0092 0.00504,0 0.00917,0.0041 0.00917,0.0092 0,0.005 -0.00413,0.0092 -0.00917,0.0092 -0.00504,0 -0.00917,-0.0041 -0.00917,-0.0092 z m -0.1025842,-0.08533 c -0.00811,-0.01311 -0.00503,-0.01619 0.00808,-0.0081 0.011642,0.0072 0.021166,0.01672 0.021166,0.02117 0,0.01529 -0.01619,0.0081 -0.029251,-0.01308 z m 1.5142509,-0.0063 c 0,-0.005 0.00412,-0.0092 0.00917,-0.0092 0.00504,0 0.00917,0.0041 0.00917,0.0092 0,0.005 -0.00412,0.0092 -0.00917,0.0092 -0.00504,0 -0.00917,-0.0041 -0.00917,-0.0092 z M -1.485,16.1275 c 0,-0.005 0.00413,-0.0092 0.00917,-0.0092 0.00504,0 0.00917,0.0041 0.00917,0.0092 0,0.005 -0.00412,0.0092 -0.00917,0.0092 -0.00504,0 -0.00917,-0.0041 -0.00917,-0.0092 z m -1.6425842,-0.04867 c -0.00811,-0.01311 -0.00503,-0.01619 0.00808,-0.0081 0.011642,0.0072 0.021166,0.01672 0.021166,0.02117 0,0.01529 -0.01619,0.0081 -0.029251,-0.01308 z m 1.6609175,-0.02467 c 0,-0.005 0.00412,-0.0092 0.00917,-0.0092 0.00504,0 0.00917,0.0041 0.00917,0.0092 0,0.005 -0.00412,0.0092 -0.00917,0.0092 -0.00504,0 -0.00917,-0.0041 -0.00917,-0.0092 z m -1.7525841,-0.04867 c -0.00811,-0.01311 -0.00503,-0.01619 0.00809,-0.0081 0.011642,0.0072 0.021166,0.01672 0.021166,0.02117 0,0.01529 -0.01619,0.0081 -0.029251,-0.01308 z m 1.7738123,-0.0705 c 0,-0.02521 0.00416,-0.03552 0.00925,-0.02292 0.00509,0.0126 0.00509,0.03323 0,0.04583 -0.00509,0.0126 -0.00925,0.0023 -0.00925,-0.02292 z m -1.8838123,-0.02117 c -0.00811,-0.01311 -0.00503,-0.01619 0.00808,-0.0081 0.011642,0.0072 0.021166,0.01672 0.021166,0.02117 0,0.01529 -0.01619,0.0081 -0.029251,-0.01308 z m -0.091667,-0.07333 c -0.00811,-0.01311 -0.00503,-0.01619 0.00808,-0.0081 0.011642,0.0072 0.021166,0.01672 0.021166,0.02117 0,0.01529 -0.01619,0.0081 -0.029251,-0.01308 z m -0.11,-0.09167 c -0.00811,-0.01311 -0.00503,-0.01619 0.00809,-0.0081 0.021133,0.01306 0.028374,0.02925 0.013081,0.02925 -0.00445,0 -0.013972,-0.0095 -0.021166,-0.02117 z m -0.091667,-0.07333 c -0.00811,-0.01311 -0.00503,-0.01619 0.00808,-0.0081 0.021133,0.01306 0.028374,0.02925 0.013081,0.02925 -0.00445,0 -0.013972,-0.0095 -0.021166,-0.02117 z m -0.11,-0.09167 c -0.00811,-0.01311 -0.00503,-0.01619 0.00808,-0.0081 0.021133,0.01306 0.028374,0.02925 0.013081,0.02925 -0.00445,0 -0.013972,-0.0095 -0.021166,-0.02117 z m -0.11,-0.09167 c -0.00811,-0.01311 -0.00503,-0.01619 0.00808,-0.0081 0.011642,0.0072 0.021166,0.01672 0.021166,0.02117 0,0.01529 -0.01619,0.0081 -0.029251,-0.01308 z m -0.091667,-0.07333 c -0.00811,-0.01311 -0.00503,-0.01619 0.00808,-0.0081 0.021133,0.01306 0.028374,0.02925 0.013081,0.02925 -0.00445,0 -0.013972,-0.0095 -0.021166,-0.02117 z m -0.11,-0.09167 c -0.00811,-0.01311 -0.00503,-0.01619 0.00809,-0.0081 0.021133,0.01306 0.028374,0.02925 0.013081,0.02925 -0.00445,0 -0.013972,-0.0095 -0.021166,-0.02117 z m -0.091667,-0.07333 c -0.00811,-0.01311 -0.00503,-0.01619 0.00808,-0.0081 0.021133,0.01306 0.028374,0.02925 0.013081,0.02925 -0.00445,0 -0.013972,-0.0095 -0.021166,-0.02117 z m -0.11,-0.09167 c -0.00811,-0.01311 -0.00503,-0.01619 0.00809,-0.0081 0.011642,0.0072 0.021166,0.01672 0.021166,0.02117 0,0.01529 -0.01619,0.0081 -0.029251,-0.01308 z m -0.091667,-0.07333 c -0.00811,-0.01311 -0.00503,-0.01619 0.00809,-0.0081 0.021133,0.01306 0.028374,0.02925 0.013081,0.02925 -0.00445,0 -0.013972,-0.0095 -0.021166,-0.02117 z m -0.11,-0.09167 c -0.00811,-0.01311 -0.00503,-0.01619 0.00808,-0.0081 0.011642,0.0072 0.021166,0.01672 0.021166,0.02117 0,0.01529 -0.01619,0.0081 -0.029251,-0.01308 z m -0.091667,-0.07333 c -0.00811,-0.01311 -0.00503,-0.01619 0.00808,-0.0081 0.011642,0.0072 0.021166,0.01672 0.021166,0.02117 0,0.01529 -0.01619,0.0081 -0.029251,-0.01308 z m -0.11,-0.09167 c -0.00811,-0.01311 -0.00503,-0.01619 0.00809,-0.0081 0.021133,0.01306 0.028374,0.02925 0.013081,0.02925 -0.00445,0 -0.013972,-0.0095 -0.021166,-0.02117 z m -0.11,-0.09167 c -0.00811,-0.01311 -0.00503,-0.01619 0.00809,-0.0081 0.011642,0.0072 0.021166,0.01672 0.021166,0.02117 0,0.01529 -0.01619,0.0081 -0.029251,-0.01308 z m -0.091667,-0.07333 c -0.00811,-0.01311 -0.00503,-0.01619 0.00809,-0.0081 0.021133,0.01306 0.028374,0.02925 0.013081,0.02925 -0.00445,0 -0.013972,-0.0095 -0.021166,-0.02117 z m -0.11,-0.09167 c -0.00811,-0.01311 -0.00503,-0.01619 0.00808,-0.0081 0.011642,0.0072 0.021166,0.01672 0.021166,0.02117 0,0.01529 -0.01619,0.0081 -0.029251,-0.01308 z m -0.091667,-0.07333 c -0.0081,-0.01311 -0.00503,-0.01619 0.00808,-0.0081 0.021133,0.01306 0.028375,0.02925 0.013081,0.02925 -0.00445,0 -0.013971,-0.0095 -0.021166,-0.02117 z m -0.11,-0.09167 c -0.0081,-0.01311 -0.00503,-0.01619 0.00808,-0.0081 0.011641,0.0072 0.021166,0.01672 0.021166,0.02117 0,0.01529 -0.016189,0.0081 -0.029251,-0.01308 z m -0.091667,-0.07333 c -0.0081,-0.01311 -0.00503,-0.01619 0.00808,-0.0081 0.011641,0.0072 0.021166,0.01672 0.021166,0.02117 0,0.01529 -0.016189,0.0081 -0.029251,-0.01308 z m -0.11,-0.09167 c -0.0081,-0.01311 -0.00503,-0.01619 0.00808,-0.0081 0.021134,0.01306 0.028374,0.02925 0.013081,0.02925 -0.00445,0 -0.013971,-0.0095 -0.021166,-0.02117 z m -0.099083,-0.07967 c 0,-0.005 0.00413,-0.0092 0.00917,-0.0092 0.00504,0 0.00917,0.0041 0.00917,0.0092 0,0.005 -0.00413,0.0092 -0.00917,0.0092 -0.00504,0 -0.00917,-0.0041 -0.00917,-0.0092 z m -0.102584,-0.08533 c -0.0081,-0.01311 -0.00503,-0.01619 0.00808,-0.0081 0.011641,0.0072 0.021166,0.01672 0.021166,0.02117 0,0.01529 -0.016189,0.0081 -0.029251,-0.01308 z m -0.11,-0.09167 c -0.0081,-0.01311 -0.00503,-0.01619 0.00808,-0.0081 0.021134,0.01306 0.028374,0.02925 0.013081,0.02925 -0.00445,0 -0.013971,-0.0095 -0.021166,-0.02117 z m -0.091667,-0.07333 c -0.0081,-0.01311 -0.00503,-0.01619 0.00808,-0.0081 0.021134,0.01306 0.028374,0.02925 0.013081,0.02925 -0.00445,0 -0.013971,-0.0095 -0.021166,-0.02117 z m -0.11,-0.09167 c -0.0081,-0.01311 -0.00503,-0.01619 0.00808,-0.0081 0.021134,0.01306 0.028374,0.02925 0.013081,0.02925 -0.00445,0 -0.013971,-0.0095 -0.021166,-0.02117 z m -0.044083,-0.02467 c 0,-0.005 0.00413,-0.0092 0.00917,-0.0092 0.00504,0 0.00917,0.0041 0.00917,0.0092 0,0.005 -0.00413,0.0092 -0.00917,0.0092 -0.00504,0 -0.00917,-0.0041 -0.00917,-0.0092 z M -10.936168,11.425 c 0,-1.053708 0.0022,-1.4847709 0.0049,-0.957917 0.0027,0.526855 0.0027,1.38898 0,1.915834 -0.0027,0.526854 -0.0049,0.09579 -0.0049,-0.957917 z M -5.8575,5.2833331 c 0.00623,-0.010083 0.015456,-0.018333 0.020497,-0.018333 0.00504,0 0.00407,0.00825 -0.00216,0.018333 -0.00623,0.010083 -0.015455,0.018333 -0.020497,0.018333 -0.00504,0 -0.00407,-0.00825 0.00216,-0.018333 z m 0.11,-0.091667 c 0.00623,-0.010083 0.015456,-0.018333 0.020497,-0.018333 0.00504,0 0.00407,0.00825 -0.00216,0.018333 -0.00623,0.010083 -0.015455,0.018333 -0.020497,0.018333 -0.00504,0 -0.00407,-0.00825 0.00216,-0.018333 z m 0.091667,-0.073333 c 0.00623,-0.010083 0.015455,-0.018333 0.020497,-0.018333 0.00504,0 0.00407,0.00825 -0.00216,0.018333 -0.00623,0.010083 -0.015456,0.018333 -0.020497,0.018333 -0.00504,0 -0.00407,-0.00825 0.00216,-0.018333 z m 0.11,-0.091667 c 0.00623,-0.010083 0.015455,-0.018333 0.020497,-0.018333 0.00504,0 0.00407,0.00825 -0.00216,0.018333 -0.00623,0.010083 -0.015455,0.018333 -0.020497,0.018333 -0.00504,0 -0.00407,-0.00825 0.00216,-0.018333 z m 0.100833,-0.0825 c 0,-0.00504 0.00413,-0.00917 0.00917,-0.00917 0.00504,0 0.00917,0.00413 0.00917,0.00917 0,0.00504 -0.00413,0.00917 -0.00917,0.00917 -0.00504,0 -0.00917,-0.00413 -0.00917,-0.00917 z m 0.1008333,-0.0825 c 0.00623,-0.010083 0.015456,-0.018333 0.020497,-0.018333 0.00504,0 0.00407,0.00825 -0.00216,0.018333 -0.00623,0.010083 -0.015456,0.018333 -0.020497,0.018333 -0.00504,0 -0.00407,-0.00825 0.00216,-0.018333 z m 0.11,-0.091667 c 0.00623,-0.010083 0.015456,-0.018333 0.020497,-0.018333 0.00504,0 0.00407,0.00825 -0.00216,0.018333 -0.00623,0.010083 -0.015456,0.018333 -0.020497,0.018333 -0.00504,0 -0.00407,-0.00825 0.00216,-0.018333 z M -5.1425,4.6966664 c 0.00623,-0.010083 0.015456,-0.018333 0.020497,-0.018333 0.00504,0 0.00407,0.00825 -0.00216,0.018333 -0.00623,0.010083 -0.015455,0.018333 -0.020497,0.018333 -0.00504,0 -0.00407,-0.00825 0.00216,-0.018333 z m 0.11,-0.091667 c 0.00623,-0.010083 0.015455,-0.018333 0.020497,-0.018333 0.00504,0 0.00407,0.00825 -0.00216,0.018333 -0.00623,0.010083 -0.015455,0.018333 -0.020497,0.018333 -0.00504,0 -0.00407,-0.00825 0.00216,-0.018333 z m 0.091667,-0.073333 c 0.00623,-0.010083 0.015455,-0.018333 0.020497,-0.018333 0.00504,0 0.00407,0.00825 -0.00216,0.018333 -0.00623,0.010083 -0.015455,0.018333 -0.020497,0.018333 -0.00504,0 -0.00407,-0.00825 0.00216,-0.018333 z m 0.11,-0.091667 c 0.00623,-0.010083 0.015455,-0.018333 0.020497,-0.018333 0.00504,0 0.00407,0.00825 -0.00216,0.018333 -0.00623,0.010083 -0.015455,0.018333 -0.020497,0.018333 -0.00504,0 -0.00407,-0.00825 0.00216,-0.018333 z m 0.091667,-0.073333 c 0.00623,-0.010083 0.015455,-0.018333 0.020497,-0.018333 0.00504,0 0.00407,0.00825 -0.00216,0.018333 -0.00623,0.010083 -0.015455,0.018333 -0.020497,0.018333 -0.00504,0 -0.00407,-0.00825 0.00216,-0.018333 z m 0.11,-0.091667 c 0.00623,-0.010083 0.015455,-0.018333 0.020497,-0.018333 0.00504,0 0.00407,0.00825 -0.00216,0.018333 -0.00623,0.010083 -0.015455,0.018333 -0.020497,0.018333 -0.00504,0 -0.00407,-0.00825 0.00216,-0.018333 z m 0.1008334,-0.0825 c 0,-0.00504 0.00413,-0.00917 0.00917,-0.00917 0.00504,0 0.00917,0.00413 0.00917,0.00917 0,0.00504 -0.00413,0.00917 -0.00917,0.00917 -0.00504,0 -0.00917,-0.00412 -0.00917,-0.00917 z m 0.1008333,-0.0825 c 0.00623,-0.010083 0.015455,-0.018333 0.020497,-0.018333 0.00504,0 0.00407,0.00825 -0.00216,0.018333 -0.00623,0.010083 -0.015455,0.018333 -0.020497,0.018333 -0.00504,0 -0.00407,-0.00825 0.00216,-0.018333 z m 0.11,-0.091667 c 0.00623,-0.010083 0.015455,-0.018333 0.020497,-0.018333 0.00504,0 0.00407,0.00825 -0.00216,0.018333 -0.00623,0.010083 -0.015455,0.018333 -0.020497,0.018333 -0.00504,0 -0.00407,-0.00825 0.00216,-0.018333 z m 0.091667,-0.073333 c 0.00623,-0.010083 0.015455,-0.018333 0.020497,-0.018333 0.00504,0 0.00407,0.00825 -0.00216,0.018333 -0.00623,0.010083 -0.015455,0.018333 -0.020497,0.018333 -0.00504,0 -0.00407,-0.00825 0.00216,-0.018333 z m 0.11,-0.091667 c 0.00623,-0.010083 0.015455,-0.018333 0.020497,-0.018333 0.00504,0 0.00407,0.00825 -0.00216,0.018333 -0.00623,0.010083 -0.015455,0.018333 -0.020497,0.018333 -0.00504,0 -0.00407,-0.00825 0.00216,-0.018333 z m 0.091667,-0.073333 c 0.00623,-0.010083 0.015455,-0.018333 0.020497,-0.018333 0.00504,0 0.00407,0.00825 -0.00216,0.018333 -0.00623,0.010083 -0.015455,0.018333 -0.020497,0.018333 -0.00504,0 -0.00407,-0.00825 0.00216,-0.018333 z m 0.11,-0.091667 c 0.00623,-0.010083 0.015455,-0.018333 0.020497,-0.018333 0.00504,0 0.00407,0.00825 -0.00216,0.018333 -0.00623,0.010083 -0.015455,0.018333 -0.020497,0.018333 -0.00504,0 -0.00407,-0.00825 0.00216,-0.018333 z M -3.8225,3.6149997 c 0.00623,-0.010083 0.015455,-0.018333 0.020497,-0.018333 0.00504,0 0.00407,0.00825 -0.00216,0.018333 -0.00623,0.010083 -0.015455,0.018333 -0.020497,0.018333 -0.00504,0 -0.00407,-0.00825 0.00216,-0.018333 z m 0.11,-0.091667 c 0.00623,-0.010083 0.015455,-0.018333 0.020497,-0.018333 0.00504,0 0.00407,0.00825 -0.00216,0.018333 -0.00623,0.010083 -0.015455,0.018333 -0.020497,0.018333 -0.00504,0 -0.00407,-0.00825 0.00216,-0.018333 z m 0.1008333,-0.0825 c 0,-0.00504 0.00412,-0.00917 0.00917,-0.00917 0.00504,0 0.00917,0.00412 0.00917,0.00917 0,0.00504 -0.00413,0.00917 -0.00917,0.00917 -0.00504,0 -0.00917,-0.00412 -0.00917,-0.00917 z m 0.1008334,-0.0825 c 0.00623,-0.010083 0.015455,-0.018333 0.020497,-0.018333 0.00504,0 0.00407,0.00825 -0.00216,0.018333 -0.00623,0.010083 -0.015455,0.018333 -0.020497,0.018333 -0.00504,0 -0.00407,-0.00825 0.00216,-0.018333 z m 0.11,-0.091667 c 0.00623,-0.010083 0.015455,-0.018333 0.020497,-0.018333 0.00504,0 0.00407,0.00825 -0.00216,0.018333 -0.00623,0.010083 -0.015455,0.018333 -0.020497,0.018333 -0.00504,0 -0.00407,-0.00825 0.00216,-0.018333 z m 1.9553948,-0.073333 c 0,-0.025208 0.00416,-0.035521 0.00925,-0.022917 0.00509,0.012604 0.00509,0.033229 0,0.045833 -0.00509,0.012604 -0.00925,0.00229 -0.00925,-0.022917 z m -1.8637282,0 c 0.00623,-0.010083 0.015455,-0.018333 0.020497,-0.018333 0.00504,0 0.00407,0.00825 -0.00216,0.018333 -0.00623,0.010083 -0.015455,0.018333 -0.020497,0.018333 -0.00504,0 -0.00407,-0.00825 0.00216,-0.018333 z m 0.11,-0.091667 c 0.00623,-0.010083 0.015455,-0.018333 0.020497,-0.018333 0.00504,0 0.00407,0.00825 -0.00216,0.018333 -0.00623,0.010083 -0.015455,0.018333 -0.020497,0.018333 -0.00504,0 -0.00407,-0.00825 0.00216,-0.018333 z m 1.7325,-0.0275 c 0,-0.00504 0.00412,-0.00917 0.00917,-0.00917 0.00504,0 0.00917,0.00413 0.00917,0.00917 0,0.00504 -0.00412,0.00917 -0.00917,0.00917 -0.00504,0 -0.00917,-0.00413 -0.00917,-0.00917 z M -3.1075,3.028333 C -3.10127,3.01825 -3.092045,3.01 -3.087003,3.01 c 0.00504,0 0.00407,0.00825 -0.00216,0.018333 -0.00623,0.010083 -0.015455,0.018333 -0.020497,0.018333 -0.00504,0 -0.00407,-0.00825 0.00216,-0.018333 z m 1.6225,-0.0275 c 0,-0.00504 0.00413,-0.00917 0.00917,-0.00917 0.00504,0 0.00917,0.00412 0.00917,0.00917 0,0.00504 -0.00412,0.00917 -0.00917,0.00917 -0.00504,0 -0.00917,-0.00412 -0.00917,-0.00917 z M -2.9975,2.936666 c 0.00623,-0.010083 0.015455,-0.018333 0.020497,-0.018333 0.00504,0 0.00407,0.00825 -0.00216,0.018333 -0.00623,0.010083 -0.015455,0.018333 -0.020497,0.018333 -0.00504,0 -0.00407,-0.00825 0.00216,-0.018333 z M -2.905833,2.863333 C -2.899603,2.85325 -2.890378,2.845 -2.885336,2.845 c 0.00504,0 0.00407,0.00825 -0.00216,0.018333 -0.00623,0.010083 -0.015455,0.018333 -0.020497,0.018333 -0.00504,0 -0.00407,-0.00825 0.00216,-0.018333 z m 1.3475,-0.00917 c 0,-0.00504 0.00412,-0.00917 0.00917,-0.00917 0.00504,0 0.00917,0.00413 0.00917,0.00917 0,0.00504 -0.00412,0.00917 -0.00917,0.00917 -0.00504,0 -0.00917,-0.00412 -0.00917,-0.00917 z M -1.595,2.799163 c 0,-0.00504 0.00412,-0.00917 0.00917,-0.00917 0.00504,0 0.00917,0.00412 0.00917,0.00917 0,0.00504 -0.00412,0.00917 -0.00917,0.00917 -0.00504,0 -0.00917,-0.00413 -0.00917,-0.00917 z m -1.2008333,-0.0275 c 0.00623,-0.010083 0.015455,-0.018333 0.020497,-0.018333 0.00504,0 0.00407,0.00825 -0.00216,0.018333 -0.00623,0.010083 -0.015455,0.018333 -0.020497,0.018333 -0.00504,0 -0.00407,-0.00825 0.00216,-0.018333 z M -2.695,2.6891664 c 0,-0.00504 0.00412,-0.00917 0.00917,-0.00917 0.00504,0 0.00917,0.00412 0.00917,0.00917 0,0.00504 -0.00412,0.00917 -0.00917,0.00917 -0.00504,0 -0.00917,-0.00412 -0.00917,-0.00917 z m 0.9533333,-0.036667 c 0,-0.00504 0.00412,-0.00917 0.00917,-0.00917 0.00504,0 0.00917,0.00412 0.00917,0.00917 0,0.00504 -0.00412,0.00917 -0.00917,0.00917 -0.00504,0 -0.00917,-0.00413 -0.00917,-0.00917 z m -0.88,-0.018333 c 0,-0.00504 0.00413,-0.00917 0.00917,-0.00917 0.00504,0 0.00917,0.00413 0.00917,0.00917 0,0.00504 -0.00412,0.00917 -0.00917,0.00917 -0.00504,0 -0.00917,-0.00413 -0.00917,-0.00917 z m 0.825,-0.018333 c 0,-0.00504 0.00413,-0.00917 0.00917,-0.00917 0.00504,0 0.00917,0.00413 0.00917,0.00917 0,0.00504 -0.00413,0.00917 -0.00917,0.00917 -0.00504,0 -0.00917,-0.00413 -0.00917,-0.00917 z m -0.77,-0.018333 c 0,-0.00504 0.00412,-0.00917 0.00917,-0.00917 0.00504,0 0.00917,0.00413 0.00917,0.00917 0,0.00504 -0.00413,0.00917 -0.00917,0.00917 -0.00504,0 -0.00917,-0.00413 -0.00917,-0.00917 z M -2.53,2.5791664 c 0,-0.00504 0.00412,-0.00917 0.00917,-0.00917 0.00504,0 0.00917,0.00413 0.00917,0.00917 0,0.00504 -0.00412,0.00917 -0.00917,0.00917 -0.00504,0 -0.00917,-0.00413 -0.00917,-0.00917 z m 0.036667,-0.018333 c 0,-0.00504 0.00413,-0.00917 0.00917,-0.00917 0.00504,0 0.00917,0.00413 0.00917,0.00917 0,0.00504 -0.00412,0.00917 -0.00917,0.00917 -0.00504,0 -0.00917,-0.00412 -0.00917,-0.00917 z m 0.55,-0.018333 c 0,-0.00504 0.00412,-0.00917 0.00917,-0.00917 0.00504,0 0.00917,0.00413 0.00917,0.00917 0,0.00504 -0.00412,0.00917 -0.00917,0.00917 -0.00504,0 -0.00917,-0.00412 -0.00917,-0.00917 z m -0.44,-0.018333 c 0,-0.00504 0.00412,-0.00917 0.00917,-0.00917 0.00504,0 0.00917,0.00412 0.00917,0.00917 0,0.00504 -0.00412,0.00917 -0.00917,0.00917 -0.00504,0 -0.00917,-0.00412 -0.00917,-0.00917 z m 0.385,0 c 0,-0.00504 0.00413,-0.00917 0.00917,-0.00917 0.00504,0 0.00917,0.00412 0.00917,0.00917 0,0.00504 -0.00412,0.00917 -0.00917,0.00917 -0.00504,0 -0.00917,-0.00412 -0.00917,-0.00917 z m -0.3055562,-0.021389 c 0.00672,-0.00672 0.017723,-0.00672 0.024446,0 0.00672,0.00672 0.00122,0.012222 -0.012223,0.012222 -0.013444,0 -0.018944,-0.0055 -0.012223,-0.012222 z m 0.2016667,0 c 0.00672,-0.00672 0.017723,-0.00672 0.024446,0 0.00672,0.00672 0.00122,0.012222 -0.012223,0.012222 -0.013444,0 -0.018944,-0.0055 -0.012223,-0.012222 z"
       id="path3846" /><path
       style="fill:#e74234;stroke-width:0.0183333"
       d="m -23.272778,5.6155797 c -0.0055,-0.00885 1.136252,-1.1659102 2.537157,-2.5712501 l 2.5471,-2.55516332 9.27e-4,2.57125012 9.27e-4,2.5712501 h -2.538084 c -1.435975,0 -2.542402,-0.00699 -2.548027,-0.016087 z"
       id="path3844" /><path
       style="fill:#0065d8;stroke-width:0.0183333"
       d="m -21.9725,18.483334 c -0.05042,-0.0069 -0.08342,-0.01447 -0.07333,-0.01678 0.01008,-0.0023 -0.0442,-0.01959 -0.120636,-0.0384 -0.515896,-0.126935 -0.914398,-0.515374 -1.066256,-1.039333 l -0.04144,-0.142985 V 15.311667 13.3775 l 2.5025,-0.005 c 1.376375,-0.0028 2.521063,-5.43e-4 2.54375,0.0049 l 0.04125,0.01 v 2.557151 2.557151 l -1.847083,-0.0029 c -1.015896,-0.0016 -1.888333,-0.0085 -1.93875,-0.01545 z"
       id="path3842" /><path
       style="fill:#00ab46;stroke-width:0.0183333"
       d="m -18.186667,15.944374 v -2.557707 h 3.601191 c 3.249365,0 3.604005,-0.0028 3.63,-0.02881 0.02581,-0.02581 0.02894,-0.229621 0.03005,-1.957083 8.47e-4,-1.317275 0.0071,-1.9166557 0.01985,-1.8916074 0.02251,0.044351 4.906331,4.2166664 4.9357351,4.2166664 0.015269,0 0.021841,-1.094846 0.025139,-4.1880119 0.00356,-3.3384136 0.00914,-4.1908211 0.0275,-4.2018576 0.012669,-0.00761 0.7554071,-0.6145095 1.6505299,-1.3486546 0.8951231,-0.734145 1.6743375,-1.3611678 1.7315888,-1.3933838 0.4454047,-0.2506358 1.012462,0.038406 1.08603,0.5535746 0.025023,0.1752394 0.025251,12.6571013 2.383e-4,12.8301463 -0.047696,0.329896 -0.291621,0.577756 -0.6258688,0.635963 -0.142142,0.02475 -0.2827422,0.0045 -0.4258723,-0.06145 -0.060185,-0.02772 -0.6851552,-0.52843 -1.7503769,-1.402364 -0.9112231,-0.747591 -1.6640356,-1.354765 -1.6729163,-1.349277 -0.00911,0.0056 -0.016251,0.73439 -0.016387,1.672648 -2.787e-4,1.922999 0.00487,1.854727 -0.1657537,2.198061 -0.1867994,0.375885 -0.5054045,0.638961 -0.9453706,0.780606 l -0.1261348,0.04061 -5.5045837,0.0048 -5.504583,0.0048 v -2.557708 z"
       id="path3840" /><path
       style="fill:#00822c;stroke-width:0.0183333"
       d="m -8.3812016,11.685246 c -1.3174526,-1.126261 -2.4254964,-2.0751971 -2.4623214,-2.1087486 -0.03682,-0.033551 -0.06441,-0.071668 -0.0613,-0.084705 0.0083,-0.03493 4.9349069,-4.1144281 4.9511108,-4.0998155 0.021693,0.019563 0.00795,8.3298541 -0.01379,8.3359081 -0.010083,0.0028 -1.096249,-0.916379 -2.4137016,-2.042639 z"
       id="path3838" /></g></svg>
