<svg xmlns="http://www.w3.org/2000/svg" xmlns:xlink="http://www.w3.org/1999/xlink" xml:space="preserve" width="24" height="24" fill="none"><defs><linearGradient id="a"><stop offset="0" style="stop-color:#1a1a1a;stop-opacity:1"/><stop offset="1" style="stop-color:gray;stop-opacity:1"/></linearGradient><linearGradient xlink:href="#a" id="b" x1="53.196" x2="51.79" y1="93.338" y2="-24.148" gradientTransform="translate(-.222 -.222) scale(.24444)" gradientUnits="userSpaceOnUse"/></defs><path d="M12 1C2 1 1 6 1 12c0 8 3 11 11 11s11-3 11-11c0-6-1-11-11-11Z" style="font-variation-settings:normal;display:inline;opacity:1;vector-effect:none;fill:url(#b);fill-opacity:1;stroke-width:1.11627;stroke-linecap:butt;stroke-linejoin:miter;stroke-miterlimit:4;stroke-dasharray:none;stroke-dashoffset:0;stroke-opacity:1;-inkscape-stroke:none;stop-color:#000;stop-opacity:1"/><path d="M7.812 19.131c0-.293-.007-2.74-.017-5.438-.01-2.698-.017-5.907-.018-7.131V4.336h3.018l.008.023 1.199 3.376 1.19 3.353.005-2.181.005-3.376.001-1.195h3.02v7.661c0 7.293-.001 7.66-.013 7.657-.05-.014-.396-.057-1.04-.127a21.931 21.931 0 0 0-1.882-.143l-.193-.005-1.14-3.243-1.141-3.244-.002 3.263-.002 3.262-.022.004c-.022.004-.189.017-.407.032l-.535.032c-.858.049-1.231.084-1.715.162-.08.013-.136.017-.213.017h-.105Z" style="fill:#e30813"/><path d="M7.812 19.131c0-.293-.007-2.74-.017-5.438-.02-5.709-.023-9.357-.008-9.357.006 0 .012.005.015.012.03.077.986 2.788 2.843 8.064l.166.472v6.533l-.023.004c-.022.004-.188.017-.407.032l-.535.032c-.858.049-1.231.084-1.715.162-.08.013-.135.017-.213.017h-.105zm8.375.519-.024-.005.026-.001c.014 0 .028.002.03.006.005.008.005.008-.032 0zm-.054-.012a.04.04 0 0 1 .021 0c.005.002 0 .004-.012.004s-.016-.002-.009-.004zm-.28-1.06a16437.416 16437.416 0 0 0-2.418-6.81l-.239-.673v-1.22l.005-3.38.005-2.16h3.017v7.637c0 4.2-.001 7.636-.002 7.636l-.367-1.03z" style="fill:#d10611"/><path d="M7.812 19.131c0-.293-.007-2.74-.017-5.438-.02-5.659-.023-9.357-.008-9.357.006 0 .036.076.085.213a3766.788 3766.788 0 0 1 2.837 8.053l.102.288v6.527l-.023.004c-.022.004-.188.017-.407.032a81.23 81.23 0 0 1-.535.032c-.858.049-1.231.084-1.715.162-.08.013-.135.017-.213.017h-.105Zm8.363.514a.04.04 0 0 1 .021 0c.005.002 0 .004-.012.004s-.016-.002-.009-.004zm-.334-1.109-1.511-4.255-1.134-3.191V9.872l.005-3.377.005-2.16h3.017v7.633c0 4.198-.001 7.633-.002 7.633l-.38-1.065z" style="fill:#b0040e"/><path d="M16.172 19.645c.005-.002.011-.002.014 0 .002.003-.002.005-.01.004-.008 0-.01-.002-.004-.004zm-1.464-4.304-1.512-4.256.002-1.185.002-1.185 1.511 3.58 1.512 3.58-.002 1.861-.002 1.86zm-5.416-3.833L7.777 7.805V6.07c0-1.828 0-1.791.03-1.7l.121.342c.132.37.591 1.67 1.018 2.882l1.844 5.242.02.059-.001 1.158-.002 1.159z" style="fill:#ad040e"/><path d="M16.172 19.645c.005-.002.011-.002.014 0 .002.003-.002.005-.01.004-.008 0-.01-.002-.004-.004zm-.554-1.74-1.511-4.257-.91-2.563.001-1.076.002-1.076 1.511 3.58 1.512 3.58-.002 1.752-.002 1.751zm-6.326-6.587L7.777 7.615v-1.64c0-1.307.002-1.64.01-1.639.004 0 .028.058.056.135.237.666 1.483 4.203 2.704 7.676l.264.749-.002 1.062-.002 1.063z" style="fill:#a9040e"/><path d="M16.172 19.645c.005-.002.011-.002.014 0 .002.003-.002.005-.01.004-.008 0-.01-.002-.004-.004zm-.786-2.396-1.511-4.256-.679-1.91.002-.911.002-.912 1.511 3.58 1.512 3.58-.002 1.588-.002 1.587zm-6.094-6.217L7.777 7.33V5.832c0-1.195.002-1.497.01-1.494a.927.927 0 0 1 .06.146c.079.22.661 1.87 1.086 3.075.351 1 1.53 4.352 1.773 5.039l.105.298-.002.92-.002.92z" style="fill:#a5040d"/><path d="m15.845 18.54-1.512-4.256-1.137-3.201.002-.784.002-.785 1.511 3.58 1.512 3.58-.002 1.46-.002 1.461zm-6.553-7.73L7.777 7.107V5.721c0-1.106.002-1.386.01-1.383.013.004.54 1.494 2.896 8.197l.128.362-.002.808-.002.808z" style="fill:#a1040d"/><path d="M15.651 17.995a163370.4 163370.4 0 0 1-2.1-5.914l-.355-.999.002-.639.002-.638 1.511 3.58 1.512 3.58-.002 1.315-.002 1.314zm-6.359-7.439L7.777 6.852V5.593c0-.989.002-1.258.009-1.255.012.004.244.658 1.578 4.45l1.416 4.022.03.09-.001.68-.002.68z" style="fill:#9d020d"/><path d="m15.319 17.058-1.511-4.256-.612-1.72.002-.494.002-.493 1.511 3.58 1.512 3.58-.002 1.17-.002 1.168zm-6.027-6.756L7.777 6.6V5.467c0-.887.002-1.132.009-1.13a.24.24 0 0 1 .032.07c.171.476.73 2.062 1.957 5.55l1.036 2.942-.002.553-.002.554z" style="fill:#99020d"/></svg>