<svg xmlns="http://www.w3.org/2000/svg" xml:space="preserve" width="24" height="24" fill="none"><defs><radialGradient id="a" cx="0" cy="0" r="1" gradientTransform="matrix(0 22 -22 0 12 1)" gradientUnits="userSpaceOnUse"><stop offset="0" stop-color="#8FC8FF" style="stop-color:#f6f6f6;stop-opacity:1"/><stop offset="1" stop-color="#0056A8" style="stop-color:#cfcfcf;stop-opacity:1"/></radialGradient></defs><path d="M50 5C9.09 5 5 25.455 5 50c0 32.727 12.273 45 45 45 32.727 0 45-12.273 45-45 0-24.545-4.09-45-45-45Z" style="font-variation-settings:normal;display:inline;opacity:1;vector-effect:none;fill:#5864f2;fill-opacity:1;stroke-width:4.56656;stroke-linecap:butt;stroke-linejoin:miter;stroke-miterlimit:4;stroke-dasharray:none;stroke-dashoffset:0;stroke-opacity:1;-inkscape-stroke:none;stop-color:#000;stop-opacity:1" transform="matrix(.24444 0 0 .24444 -.222 -.222)"/><g style="display:inline"><rect width="2" height="2" x="12" y="-3" rx="0" ry="0" style="display:inline;fill:#3947be;fill-opacity:1;stroke-width:22.6872;paint-order:markers stroke fill"/><rect width="2" height="2" x="9" y="-3" rx="0" ry="0" style="display:inline;fill:#6c7ad8;fill-opacity:1;stroke-width:22.6873;paint-order:markers stroke fill"/><rect width="2" height="2" x="6" y="-3" rx="0" ry="0" style="display:inline;fill:#3c3;fill-opacity:1;stroke-width:22.6873;paint-order:markers stroke fill"/><rect width="2" height="2" x="3" y="-3" rx="0" ry="0" style="display:inline;fill:#ffc328;fill-opacity:1;stroke-width:22.6872;paint-order:markers stroke fill"/><rect width="2" height="2" y="-3" rx="0" ry="0" style="display:inline;fill:#cc5e55;fill-opacity:1;stroke-width:22.6873;paint-order:markers stroke fill"/><rect width="2" height="2" x="-3" y="12" rx="0" ry="0" style="display:inline;fill:#0bb1cb;fill-opacity:1;stroke-width:22.6872;paint-order:markers stroke fill"/><rect width="2" height="2" x="-3" y="9" rx="0" ry="0" style="display:inline;fill:#2a92c9;fill-opacity:1;stroke-width:22.6873;paint-order:markers stroke fill"/><rect width="2" height="2" x="-3" y="6" rx="0" ry="0" style="display:inline;fill:#069;fill-opacity:1;stroke-width:22.6873;paint-order:markers stroke fill"/><rect width="2" height="2" x="-3" y="3" rx="0" ry="0" style="display:inline;fill:#002a44;fill-opacity:1;stroke-width:22.6873;paint-order:markers stroke fill"/><rect width="2" height="2" x="-3" rx="0" ry="0" style="display:inline;fill:#2c2d3d;fill-opacity:1;stroke-width:22.6873;paint-order:markers stroke fill"/><rect width="2" height="2" x="-3" y="-3" rx="0" ry="0" style="display:inline;fill:#16171c;fill-opacity:1;stroke-width:22.6872;paint-order:markers stroke fill"/></g><path fill="#fff" d="M16.858 7.525h-.001c-.795-.372-1.63-.65-2.488-.83a.53.53 0 0 0-.587.287.619.619 0 0 1-.622.346 10.604 10.604 0 0 0-2.319 0 .626.626 0 0 1-.628-.347.534.534 0 0 0-.59-.285c-.738.155-1.451.381-2.13.671a1.26 1.26 0 0 0-.573.493c-1.517 2.43-2.018 4.811-1.904 7.158.019.396.223.76.552.98.844.568 1.672.973 2.487 1.271a.73.73 0 0 0 .87-.292c.058-.091.114-.183.169-.277.152-.26.022-.588-.251-.717a7.49 7.49 0 0 1-.45-.23c-.109-.06-.116-.212-.02-.29a.181.181 0 0 1 .189-.026c2.24 1.016 4.662 1.016 6.877 0a.18.18 0 0 1 .189.025c.096.079.088.23-.02.29-.148.083-.298.16-.45.232-.275.13-.404.458-.252.72.054.093.11.185.168.277.184.29.544.408.866.29.882-.321 1.72-.75 2.499-1.274.325-.22.526-.581.545-.974.137-2.82-.646-5.29-2.124-7.497l-.002-.001Zm-7.185 6.48v.002c-.692-.001-1.258-.647-1.258-1.432 0-.787.554-1.434 1.256-1.434.705 0 1.273.645 1.26 1.434 0 .785-.555 1.43-1.257 1.43h-.001zm4.651 0v.002c-.693-.001-1.258-.647-1.258-1.432 0-.787.554-1.434 1.256-1.434.705 0 1.274.645 1.26 1.434 0 .785-.555 1.43-1.257 1.43z"/></svg>