<svg xmlns="http://www.w3.org/2000/svg" xmlns:xlink="http://www.w3.org/1999/xlink" width="22" height="22" fill="none"><defs><linearGradient id="b"><stop offset="0" stop-color="#ccc"/><stop offset="1" stop-color="#fff"/></linearGradient><linearGradient xlink:href="#b" id="a" x1="11.515" x2="11.688" y1="69.259" y2="-7" gradientUnits="userSpaceOnUse"/><style>.ColorScheme-Text{color:#31363b}.ColorScheme-Background{color:#eff0f1}.ColorScheme-Highlight{color:#3daee9}.ColorScheme-ViewText{color:#31363b}.ColorScheme-ViewBackground{color:#fcfcfc}.ColorScheme-ViewHover{color:#93cee9}.ColorScheme-ViewFocus{color:#3daee9}.ColorScheme-ButtonText{color:#31363b}.ColorScheme-ButtonBackground{color:#eff0f1}.ColorScheme-ButtonHover{color:#93cee9}.ColorScheme-ButtonFocus{color:#3daee9}</style></defs><path fill="url(#a)" stroke-width="4.567" d="M50 5C9.091 5 5 25.455 5 50c0 32.727 12.273 45 45 45 32.727 0 45-12.273 45-45 0-24.545-4.09-45-45-45z" style="-inkscape-stroke:none;font-variation-settings:normal" transform="translate(-1.222 -1.222) scale(.24444)"/><path fill="#000" stroke-width=".011" d="M7.388 18.061c-.051-.001-.072-.004-.065-.009.007-.005.002-.006-.019-.006a1.21 1.21 0 0 1-.262-.052.876.876 0 0 1-.25-.13c-.13-.098-.158-.132-1.15-1.423-1.05-1.365-.994-1.291-1.082-1.426a2.096 2.096 0 0 1-.227-.435 1.47 1.47 0 0 1-.081-.344c0-.015-.002-.02-.006-.015-.003.005-.008-.028-.01-.08-.006-.114-.006-8.607 0-8.708a.263.263 0 0 1 .01-.074c.002.001.006-.016.008-.038a.956.956 0 0 1 .155-.428c.14-.197.365-.31.675-.338l3.96-.294a5573.778 5573.778 0 0 0 4.179-.307c.03 0 .04-.003.027-.006a.478.478 0 0 1 .117-.01c.146-.005.35.001.328.01-.01.004-.005.005.017.006.05 0 .18.021.26.042.15.038.307.108.473.212.047.03.519.36 1.048.733l1.36.958c.219.154.438.31.49.349.313.23.38.32.4.53.011.122.005 9.865-.006 9.94a1.07 1.07 0 0 1-.102.347c-.124.242-.373.38-.761.425-.048.006-.705.048-1.46.093a70941.801 70941.801 0 0 0-7.383.447 3.853 3.853 0 0 0-.363.029 5.7 5.7 0 0 0-.138.003h-.142zm1.796-1.144 1.665-.096 4.53-.263c.494-.028.927-.055.963-.059.156-.018.256-.06.34-.144.08-.081.123-.18.142-.335.01-.087.011-8.425 0-8.503a.486.486 0 0 0-.131-.288.337.337 0 0 0-.248-.087c-.037 0-.438.022-.89.049l-1.411.082a56888.107 56888.107 0 0 0-6.683.393c-.249.023-.375.125-.423.342l-.015.07v4.226c0 4.59-.003 4.269.037 4.383a.41.41 0 0 0 .112.175c.097.092.246.139.449.14.04.001.744-.037 1.563-.085zm-.646-1.23a.412.412 0 0 1 .037-.25.31.31 0 0 1 .114-.12 3.66 3.66 0 0 1 .273-.083l.257-.073.015-.007V9.73l-.015-.003c-.009-.002-.162-.016-.342-.03s-.328-.029-.33-.032a.448.448 0 0 1-.006-.092.499.499 0 0 1 .211-.426.454.454 0 0 1 .186-.077c.028-.005.51-.04 1.07-.078 1.001-.068 1.017-.069 1.028-.055.006.007.635.968 1.397 2.135 1.013 1.552 1.389 2.122 1.398 2.122.012 0 .013-.06.013-1.893 0-1.507-.002-1.895-.009-1.9a5.76 5.76 0 0 0-.353-.047 10.19 10.19 0 0 1-.35-.042.583.583 0 0 1 .005-.186.46.46 0 0 1 .37-.33c.036-.008.384-.03.954-.063l.937-.055c.036-.003.04-.002.048.012a.805.805 0 0 1 .003.255.29.29 0 0 1-.146.202 1.85 1.85 0 0 1-.265.062 4.169 4.169 0 0 0-.243.053c-.012.006-.013.127-.014 3.027l-.002 3.02-.114.057a2.29 2.29 0 0 1-.67.226 1.64 1.64 0 0 1-.328.004.673.673 0 0 1-.332-.129 2.026 2.026 0 0 1-.287-.304c-.084-.106-.206-.295-1.422-2.21-.732-1.152-1.336-2.1-1.343-2.107-.007-.008-.016-.011-.02-.009-.009.006-.01 4.08-.002 4.094.003.005.193.051.423.103.23.052.418.096.42.097a.491.491 0 0 1-.048.172c-.081.165-.257.27-.49.293-.04.004-.293.02-.562.035a560.95 560.95 0 0 0-1.442.082c-.014 0-.018-.005-.024-.026zm-.925-8.966.272-.017a26123.476 26123.476 0 0 0 4.061-.245l2.067-.124c1.686-.102 1.779-.108 1.799-.117a.063.063 0 0 0 .027-.029c.015-.038-.026-.111-.093-.162l-.667-.484a160.46 160.46 0 0 1-.695-.504 1.66 1.66 0 0 0-.281-.174 1.387 1.387 0 0 0-.453-.135c-.17-.023-.267-.018-1.4.065a1092.548 1092.548 0 0 0-2.077.153 5784.331 5784.331 0 0 0-4.43.324c-.13.011-.213.037-.265.083-.065.057-.06.145.01.211.043.04 1.136.908 1.21.96a.992.992 0 0 0 .487.195c.076.008.297.008.428 0z"/></svg>