<?xml version="1.0" encoding="UTF-8" standalone="no"?>
<svg
   width="24"
   height="24"
   viewBox="0 0 24 24"
   fill="none"
   version="1.1"
   id="svg154"
   sodipodi:docname="g-maps.svg"
   inkscape:version="1.2.2 (b0a8486541, 2022-12-01)"
   xml:space="preserve"
   inkscape:export-filename="g-contacts.svg"
   inkscape:export-xdpi="96"
   inkscape:export-ydpi="96"
   xmlns:inkscape="http://www.inkscape.org/namespaces/inkscape"
   xmlns:sodipodi="http://sodipodi.sourceforge.net/DTD/sodipodi-0.dtd"
   xmlns:xlink="http://www.w3.org/1999/xlink"
   xmlns="http://www.w3.org/2000/svg"
   xmlns:svg="http://www.w3.org/2000/svg"
   xmlns:sketch="http://www.bohemiancoding.com/sketch/ns"><sodipodi:namedview
     id="namedview156"
     pagecolor="#ffffff"
     bordercolor="#eeeeee"
     borderopacity="0"
     inkscape:showpageshadow="0"
     inkscape:pageopacity="0"
     inkscape:pagecheckerboard="false"
     inkscape:deskcolor="#888888"
     showgrid="true"
     inkscape:zoom="32.000001"
     inkscape:cx="1.3125"
     inkscape:cy="10.296875"
     inkscape:window-width="952"
     inkscape:window-height="1044"
     inkscape:window-x="960"
     inkscape:window-y="0"
     inkscape:window-maximized="1"
     inkscape:current-layer="svg154"><inkscape:grid
       type="xygrid"
       id="grid356" /></sodipodi:namedview><defs
     id="defs152"><linearGradient
       id="linearGradient12456"
       inkscape:swatch="solid"><stop
         style="stop-color:#000000;stop-opacity:1;"
         offset="0"
         id="stop12454" /></linearGradient><linearGradient
       id="linearGradient10488"
       inkscape:swatch="solid"><stop
         style="stop-color:#000000;stop-opacity:1;"
         offset="0"
         id="stop10486" /></linearGradient><linearGradient
       id="linearGradient10413"
       inkscape:swatch="solid"><stop
         style="stop-color:#000000;stop-opacity:1;"
         offset="0"
         id="stop10411" /></linearGradient><linearGradient
       inkscape:collect="always"
       id="linearGradient5358"><stop
         style="stop-color:#e6e6e6;stop-opacity:1"
         offset="0"
         id="stop5354" /><stop
         style="stop-color:#ffffff;stop-opacity:1"
         offset="1"
         id="stop5356" /></linearGradient><style
       type="text/css"
       id="current-color-scheme">
      .ColorScheme-Text {
        color:#31363b;
      }
      .ColorScheme-Background {
        color:#eff0f1;
      }
      .ColorScheme-Highlight {
        color:#3daee9;
      }
      .ColorScheme-ViewText {
        color:#31363b;
      }
      .ColorScheme-ViewBackground {
        color:#fcfcfc;
      }
      .ColorScheme-ViewHover {
        color:#93cee9;
      }
      .ColorScheme-ViewFocus{
        color:#3daee9;
      }
      .ColorScheme-ButtonText {
        color:#31363b;
      }
      .ColorScheme-ButtonBackground {
        color:#eff0f1;
      }
      .ColorScheme-ButtonHover {
        color:#93cee9;
      }
      .ColorScheme-ButtonFocus{
        color:#3daee9;
      }
      </style><style
       type="text/css"
       id="current-color-scheme-9">
      .ColorScheme-Text {
        color:#31363b;
      }
      .ColorScheme-Background {
        color:#eff0f1;
      }
      .ColorScheme-Highlight {
        color:#3daee9;
      }
      .ColorScheme-ViewText {
        color:#31363b;
      }
      .ColorScheme-ViewBackground {
        color:#fcfcfc;
      }
      .ColorScheme-ViewHover {
        color:#93cee9;
      }
      .ColorScheme-ViewFocus{
        color:#3daee9;
      }
      .ColorScheme-ButtonText {
        color:#31363b;
      }
      .ColorScheme-ButtonBackground {
        color:#eff0f1;
      }
      .ColorScheme-ButtonHover {
        color:#93cee9;
      }
      .ColorScheme-ButtonFocus{
        color:#3daee9;
      }
      </style><style
       type="text/css"
       id="current-color-scheme-2">
      .ColorScheme-Text {
        color:#31363b;
      }
      .ColorScheme-Background {
        color:#eff0f1;
      }
      .ColorScheme-Highlight {
        color:#3daee9;
      }
      .ColorScheme-ViewText {
        color:#31363b;
      }
      .ColorScheme-ViewBackground {
        color:#fcfcfc;
      }
      .ColorScheme-ViewHover {
        color:#93cee9;
      }
      .ColorScheme-ViewFocus{
        color:#3daee9;
      }
      .ColorScheme-ButtonText {
        color:#31363b;
      }
      .ColorScheme-ButtonBackground {
        color:#eff0f1;
      }
      .ColorScheme-ButtonHover {
        color:#93cee9;
      }
      .ColorScheme-ButtonFocus{
        color:#3daee9;
      }
      </style><style
       type="text/css"
       id="current-color-scheme-3">
      .ColorScheme-Text {
        color:#31363b;
      }
      .ColorScheme-Background {
        color:#eff0f1;
      }
      .ColorScheme-Highlight {
        color:#3daee9;
      }
      .ColorScheme-ViewText {
        color:#31363b;
      }
      .ColorScheme-ViewBackground {
        color:#fcfcfc;
      }
      .ColorScheme-ViewHover {
        color:#93cee9;
      }
      .ColorScheme-ViewFocus{
        color:#3daee9;
      }
      .ColorScheme-ButtonText {
        color:#31363b;
      }
      .ColorScheme-ButtonBackground {
        color:#eff0f1;
      }
      .ColorScheme-ButtonHover {
        color:#93cee9;
      }
      .ColorScheme-ButtonFocus{
        color:#3daee9;
      }
      </style><style
       type="text/css"
       id="current-color-scheme-97">
      .ColorScheme-Text {
        color:#31363b;
      }
      .ColorScheme-Background {
        color:#eff0f1;
      }
      .ColorScheme-Highlight {
        color:#3daee9;
      }
      .ColorScheme-ViewText {
        color:#31363b;
      }
      .ColorScheme-ViewBackground {
        color:#fcfcfc;
      }
      .ColorScheme-ViewHover {
        color:#93cee9;
      }
      .ColorScheme-ViewFocus{
        color:#3daee9;
      }
      .ColorScheme-ButtonText {
        color:#31363b;
      }
      .ColorScheme-ButtonBackground {
        color:#eff0f1;
      }
      .ColorScheme-ButtonHover {
        color:#93cee9;
      }
      .ColorScheme-ButtonFocus{
        color:#3daee9;
      }
      </style><style
       type="text/css"
       id="current-color-scheme-7">
      .ColorScheme-Text {
        color:#31363b;
      }
      .ColorScheme-Background {
        color:#eff0f1;
      }
      .ColorScheme-Highlight {
        color:#3daee9;
      }
      .ColorScheme-ViewText {
        color:#31363b;
      }
      .ColorScheme-ViewBackground {
        color:#fcfcfc;
      }
      .ColorScheme-ViewHover {
        color:#93cee9;
      }
      .ColorScheme-ViewFocus{
        color:#3daee9;
      }
      .ColorScheme-ButtonText {
        color:#31363b;
      }
      .ColorScheme-ButtonBackground {
        color:#eff0f1;
      }
      .ColorScheme-ButtonHover {
        color:#93cee9;
      }
      .ColorScheme-ButtonFocus{
        color:#3daee9;
      }
      </style><style
       type="text/css"
       id="current-color-scheme-9-0">
      .ColorScheme-Text {
        color:#31363b;
      }
      .ColorScheme-Background {
        color:#eff0f1;
      }
      .ColorScheme-Highlight {
        color:#3daee9;
      }
      .ColorScheme-ViewText {
        color:#31363b;
      }
      .ColorScheme-ViewBackground {
        color:#fcfcfc;
      }
      .ColorScheme-ViewHover {
        color:#93cee9;
      }
      .ColorScheme-ViewFocus{
        color:#3daee9;
      }
      .ColorScheme-ButtonText {
        color:#31363b;
      }
      .ColorScheme-ButtonBackground {
        color:#eff0f1;
      }
      .ColorScheme-ButtonHover {
        color:#93cee9;
      }
      .ColorScheme-ButtonFocus{
        color:#3daee9;
      }
      </style><style
       type="text/css"
       id="current-color-scheme-2-9">
      .ColorScheme-Text {
        color:#31363b;
      }
      .ColorScheme-Background {
        color:#eff0f1;
      }
      .ColorScheme-Highlight {
        color:#3daee9;
      }
      .ColorScheme-ViewText {
        color:#31363b;
      }
      .ColorScheme-ViewBackground {
        color:#fcfcfc;
      }
      .ColorScheme-ViewHover {
        color:#93cee9;
      }
      .ColorScheme-ViewFocus{
        color:#3daee9;
      }
      .ColorScheme-ButtonText {
        color:#31363b;
      }
      .ColorScheme-ButtonBackground {
        color:#eff0f1;
      }
      .ColorScheme-ButtonHover {
        color:#93cee9;
      }
      .ColorScheme-ButtonFocus{
        color:#3daee9;
      }
      </style><style
       type="text/css"
       id="current-color-scheme-3-3">
      .ColorScheme-Text {
        color:#31363b;
      }
      .ColorScheme-Background {
        color:#eff0f1;
      }
      .ColorScheme-Highlight {
        color:#3daee9;
      }
      .ColorScheme-ViewText {
        color:#31363b;
      }
      .ColorScheme-ViewBackground {
        color:#fcfcfc;
      }
      .ColorScheme-ViewHover {
        color:#93cee9;
      }
      .ColorScheme-ViewFocus{
        color:#3daee9;
      }
      .ColorScheme-ButtonText {
        color:#31363b;
      }
      .ColorScheme-ButtonBackground {
        color:#eff0f1;
      }
      .ColorScheme-ButtonHover {
        color:#93cee9;
      }
      .ColorScheme-ButtonFocus{
        color:#3daee9;
      }
      </style><style
       type="text/css"
       id="current-color-scheme-97-6">
      .ColorScheme-Text {
        color:#31363b;
      }
      .ColorScheme-Background {
        color:#eff0f1;
      }
      .ColorScheme-Highlight {
        color:#3daee9;
      }
      .ColorScheme-ViewText {
        color:#31363b;
      }
      .ColorScheme-ViewBackground {
        color:#fcfcfc;
      }
      .ColorScheme-ViewHover {
        color:#93cee9;
      }
      .ColorScheme-ViewFocus{
        color:#3daee9;
      }
      .ColorScheme-ButtonText {
        color:#31363b;
      }
      .ColorScheme-ButtonBackground {
        color:#eff0f1;
      }
      .ColorScheme-ButtonHover {
        color:#93cee9;
      }
      .ColorScheme-ButtonFocus{
        color:#3daee9;
      }
      </style><linearGradient
       inkscape:collect="always"
       xlink:href="#linearGradient5358"
       id="linearGradient5360"
       x1="13.523417"
       y1="34.648232"
       x2="13.744388"
       y2="-9.8553009"
       gradientUnits="userSpaceOnUse" /><style
       type="text/css"
       id="current-color-scheme-36">
      .ColorScheme-Text {
        color:#31363b;
      }
      .ColorScheme-Background {
        color:#eff0f1;
      }
      .ColorScheme-Highlight {
        color:#3daee9;
      }
      .ColorScheme-ViewText {
        color:#31363b;
      }
      .ColorScheme-ViewBackground {
        color:#fcfcfc;
      }
      .ColorScheme-ViewHover {
        color:#93cee9;
      }
      .ColorScheme-ViewFocus{
        color:#3daee9;
      }
      .ColorScheme-ButtonText {
        color:#31363b;
      }
      .ColorScheme-ButtonBackground {
        color:#eff0f1;
      }
      .ColorScheme-ButtonHover {
        color:#93cee9;
      }
      .ColorScheme-ButtonFocus{
        color:#3daee9;
      }
      </style><style
       type="text/css"
       id="current-color-scheme-9-75">
      .ColorScheme-Text {
        color:#31363b;
      }
      .ColorScheme-Background {
        color:#eff0f1;
      }
      .ColorScheme-Highlight {
        color:#3daee9;
      }
      .ColorScheme-ViewText {
        color:#31363b;
      }
      .ColorScheme-ViewBackground {
        color:#fcfcfc;
      }
      .ColorScheme-ViewHover {
        color:#93cee9;
      }
      .ColorScheme-ViewFocus{
        color:#3daee9;
      }
      .ColorScheme-ButtonText {
        color:#31363b;
      }
      .ColorScheme-ButtonBackground {
        color:#eff0f1;
      }
      .ColorScheme-ButtonHover {
        color:#93cee9;
      }
      .ColorScheme-ButtonFocus{
        color:#3daee9;
      }
      </style><style
       type="text/css"
       id="current-color-scheme-2-3">
      .ColorScheme-Text {
        color:#31363b;
      }
      .ColorScheme-Background {
        color:#eff0f1;
      }
      .ColorScheme-Highlight {
        color:#3daee9;
      }
      .ColorScheme-ViewText {
        color:#31363b;
      }
      .ColorScheme-ViewBackground {
        color:#fcfcfc;
      }
      .ColorScheme-ViewHover {
        color:#93cee9;
      }
      .ColorScheme-ViewFocus{
        color:#3daee9;
      }
      .ColorScheme-ButtonText {
        color:#31363b;
      }
      .ColorScheme-ButtonBackground {
        color:#eff0f1;
      }
      .ColorScheme-ButtonHover {
        color:#93cee9;
      }
      .ColorScheme-ButtonFocus{
        color:#3daee9;
      }
      </style><style
       type="text/css"
       id="current-color-scheme-3-5">
      .ColorScheme-Text {
        color:#31363b;
      }
      .ColorScheme-Background {
        color:#eff0f1;
      }
      .ColorScheme-Highlight {
        color:#3daee9;
      }
      .ColorScheme-ViewText {
        color:#31363b;
      }
      .ColorScheme-ViewBackground {
        color:#fcfcfc;
      }
      .ColorScheme-ViewHover {
        color:#93cee9;
      }
      .ColorScheme-ViewFocus{
        color:#3daee9;
      }
      .ColorScheme-ButtonText {
        color:#31363b;
      }
      .ColorScheme-ButtonBackground {
        color:#eff0f1;
      }
      .ColorScheme-ButtonHover {
        color:#93cee9;
      }
      .ColorScheme-ButtonFocus{
        color:#3daee9;
      }
      </style><style
       type="text/css"
       id="current-color-scheme-97-62">
      .ColorScheme-Text {
        color:#31363b;
      }
      .ColorScheme-Background {
        color:#eff0f1;
      }
      .ColorScheme-Highlight {
        color:#3daee9;
      }
      .ColorScheme-ViewText {
        color:#31363b;
      }
      .ColorScheme-ViewBackground {
        color:#fcfcfc;
      }
      .ColorScheme-ViewHover {
        color:#93cee9;
      }
      .ColorScheme-ViewFocus{
        color:#3daee9;
      }
      .ColorScheme-ButtonText {
        color:#31363b;
      }
      .ColorScheme-ButtonBackground {
        color:#eff0f1;
      }
      .ColorScheme-ButtonHover {
        color:#93cee9;
      }
      .ColorScheme-ButtonFocus{
        color:#3daee9;
      }
      </style><style
       type="text/css"
       id="current-color-scheme-7-9">
      .ColorScheme-Text {
        color:#31363b;
      }
      .ColorScheme-Background {
        color:#eff0f1;
      }
      .ColorScheme-Highlight {
        color:#3daee9;
      }
      .ColorScheme-ViewText {
        color:#31363b;
      }
      .ColorScheme-ViewBackground {
        color:#fcfcfc;
      }
      .ColorScheme-ViewHover {
        color:#93cee9;
      }
      .ColorScheme-ViewFocus{
        color:#3daee9;
      }
      .ColorScheme-ButtonText {
        color:#31363b;
      }
      .ColorScheme-ButtonBackground {
        color:#eff0f1;
      }
      .ColorScheme-ButtonHover {
        color:#93cee9;
      }
      .ColorScheme-ButtonFocus{
        color:#3daee9;
      }
      </style><style
       type="text/css"
       id="current-color-scheme-9-0-1">
      .ColorScheme-Text {
        color:#31363b;
      }
      .ColorScheme-Background {
        color:#eff0f1;
      }
      .ColorScheme-Highlight {
        color:#3daee9;
      }
      .ColorScheme-ViewText {
        color:#31363b;
      }
      .ColorScheme-ViewBackground {
        color:#fcfcfc;
      }
      .ColorScheme-ViewHover {
        color:#93cee9;
      }
      .ColorScheme-ViewFocus{
        color:#3daee9;
      }
      .ColorScheme-ButtonText {
        color:#31363b;
      }
      .ColorScheme-ButtonBackground {
        color:#eff0f1;
      }
      .ColorScheme-ButtonHover {
        color:#93cee9;
      }
      .ColorScheme-ButtonFocus{
        color:#3daee9;
      }
      </style><style
       type="text/css"
       id="current-color-scheme-2-9-2">
      .ColorScheme-Text {
        color:#31363b;
      }
      .ColorScheme-Background {
        color:#eff0f1;
      }
      .ColorScheme-Highlight {
        color:#3daee9;
      }
      .ColorScheme-ViewText {
        color:#31363b;
      }
      .ColorScheme-ViewBackground {
        color:#fcfcfc;
      }
      .ColorScheme-ViewHover {
        color:#93cee9;
      }
      .ColorScheme-ViewFocus{
        color:#3daee9;
      }
      .ColorScheme-ButtonText {
        color:#31363b;
      }
      .ColorScheme-ButtonBackground {
        color:#eff0f1;
      }
      .ColorScheme-ButtonHover {
        color:#93cee9;
      }
      .ColorScheme-ButtonFocus{
        color:#3daee9;
      }
      </style><style
       type="text/css"
       id="current-color-scheme-3-3-7">
      .ColorScheme-Text {
        color:#31363b;
      }
      .ColorScheme-Background {
        color:#eff0f1;
      }
      .ColorScheme-Highlight {
        color:#3daee9;
      }
      .ColorScheme-ViewText {
        color:#31363b;
      }
      .ColorScheme-ViewBackground {
        color:#fcfcfc;
      }
      .ColorScheme-ViewHover {
        color:#93cee9;
      }
      .ColorScheme-ViewFocus{
        color:#3daee9;
      }
      .ColorScheme-ButtonText {
        color:#31363b;
      }
      .ColorScheme-ButtonBackground {
        color:#eff0f1;
      }
      .ColorScheme-ButtonHover {
        color:#93cee9;
      }
      .ColorScheme-ButtonFocus{
        color:#3daee9;
      }
      </style><style
       type="text/css"
       id="current-color-scheme-97-6-0">
      .ColorScheme-Text {
        color:#31363b;
      }
      .ColorScheme-Background {
        color:#eff0f1;
      }
      .ColorScheme-Highlight {
        color:#3daee9;
      }
      .ColorScheme-ViewText {
        color:#31363b;
      }
      .ColorScheme-ViewBackground {
        color:#fcfcfc;
      }
      .ColorScheme-ViewHover {
        color:#93cee9;
      }
      .ColorScheme-ViewFocus{
        color:#3daee9;
      }
      .ColorScheme-ButtonText {
        color:#31363b;
      }
      .ColorScheme-ButtonBackground {
        color:#eff0f1;
      }
      .ColorScheme-ButtonHover {
        color:#93cee9;
      }
      .ColorScheme-ButtonFocus{
        color:#3daee9;
      }
      </style><style
       type="text/css"
       id="current-color-scheme-6">
      .ColorScheme-Text {
        color:#31363b;
      }
      .ColorScheme-Background {
        color:#eff0f1;
      }
      .ColorScheme-Highlight {
        color:#3daee9;
      }
      .ColorScheme-ViewText {
        color:#31363b;
      }
      .ColorScheme-ViewBackground {
        color:#fcfcfc;
      }
      .ColorScheme-ViewHover {
        color:#93cee9;
      }
      .ColorScheme-ViewFocus{
        color:#3daee9;
      }
      .ColorScheme-ButtonText {
        color:#31363b;
      }
      .ColorScheme-ButtonBackground {
        color:#eff0f1;
      }
      .ColorScheme-ButtonHover {
        color:#93cee9;
      }
      .ColorScheme-ButtonFocus{
        color:#3daee9;
      }
      </style><style
       type="text/css"
       id="current-color-scheme-8">
      .ColorScheme-Text {
        color:#31363b;
      }
      .ColorScheme-Background {
        color:#eff0f1;
      }
      .ColorScheme-Highlight {
        color:#3daee9;
      }
      .ColorScheme-ViewText {
        color:#31363b;
      }
      .ColorScheme-ViewBackground {
        color:#fcfcfc;
      }
      .ColorScheme-ViewHover {
        color:#93cee9;
      }
      .ColorScheme-ViewFocus{
        color:#3daee9;
      }
      .ColorScheme-ButtonText {
        color:#31363b;
      }
      .ColorScheme-ButtonBackground {
        color:#eff0f1;
      }
      .ColorScheme-ButtonHover {
        color:#93cee9;
      }
      .ColorScheme-ButtonFocus{
        color:#3daee9;
      }
      </style><style
       type="text/css"
       id="current-color-scheme-9-7">
      .ColorScheme-Text {
        color:#31363b;
      }
      .ColorScheme-Background {
        color:#eff0f1;
      }
      .ColorScheme-Highlight {
        color:#3daee9;
      }
      .ColorScheme-ViewText {
        color:#31363b;
      }
      .ColorScheme-ViewBackground {
        color:#fcfcfc;
      }
      .ColorScheme-ViewHover {
        color:#93cee9;
      }
      .ColorScheme-ViewFocus{
        color:#3daee9;
      }
      .ColorScheme-ButtonText {
        color:#31363b;
      }
      .ColorScheme-ButtonBackground {
        color:#eff0f1;
      }
      .ColorScheme-ButtonHover {
        color:#93cee9;
      }
      .ColorScheme-ButtonFocus{
        color:#3daee9;
      }
      </style><style
       type="text/css"
       id="current-color-scheme-2-92">
      .ColorScheme-Text {
        color:#31363b;
      }
      .ColorScheme-Background {
        color:#eff0f1;
      }
      .ColorScheme-Highlight {
        color:#3daee9;
      }
      .ColorScheme-ViewText {
        color:#31363b;
      }
      .ColorScheme-ViewBackground {
        color:#fcfcfc;
      }
      .ColorScheme-ViewHover {
        color:#93cee9;
      }
      .ColorScheme-ViewFocus{
        color:#3daee9;
      }
      .ColorScheme-ButtonText {
        color:#31363b;
      }
      .ColorScheme-ButtonBackground {
        color:#eff0f1;
      }
      .ColorScheme-ButtonHover {
        color:#93cee9;
      }
      .ColorScheme-ButtonFocus{
        color:#3daee9;
      }
      </style><style
       type="text/css"
       id="current-color-scheme-3-0">
      .ColorScheme-Text {
        color:#31363b;
      }
      .ColorScheme-Background {
        color:#eff0f1;
      }
      .ColorScheme-Highlight {
        color:#3daee9;
      }
      .ColorScheme-ViewText {
        color:#31363b;
      }
      .ColorScheme-ViewBackground {
        color:#fcfcfc;
      }
      .ColorScheme-ViewHover {
        color:#93cee9;
      }
      .ColorScheme-ViewFocus{
        color:#3daee9;
      }
      .ColorScheme-ButtonText {
        color:#31363b;
      }
      .ColorScheme-ButtonBackground {
        color:#eff0f1;
      }
      .ColorScheme-ButtonHover {
        color:#93cee9;
      }
      .ColorScheme-ButtonFocus{
        color:#3daee9;
      }
      </style><style
       type="text/css"
       id="current-color-scheme-97-2">
      .ColorScheme-Text {
        color:#31363b;
      }
      .ColorScheme-Background {
        color:#eff0f1;
      }
      .ColorScheme-Highlight {
        color:#3daee9;
      }
      .ColorScheme-ViewText {
        color:#31363b;
      }
      .ColorScheme-ViewBackground {
        color:#fcfcfc;
      }
      .ColorScheme-ViewHover {
        color:#93cee9;
      }
      .ColorScheme-ViewFocus{
        color:#3daee9;
      }
      .ColorScheme-ButtonText {
        color:#31363b;
      }
      .ColorScheme-ButtonBackground {
        color:#eff0f1;
      }
      .ColorScheme-ButtonHover {
        color:#93cee9;
      }
      .ColorScheme-ButtonFocus{
        color:#3daee9;
      }
      </style><style
       type="text/css"
       id="current-color-scheme-4">
      .ColorScheme-Text {
        color:#31363b;
      }
      .ColorScheme-Background {
        color:#eff0f1;
      }
      .ColorScheme-Highlight {
        color:#3daee9;
      }
      .ColorScheme-ViewText {
        color:#31363b;
      }
      .ColorScheme-ViewBackground {
        color:#fcfcfc;
      }
      .ColorScheme-ViewHover {
        color:#93cee9;
      }
      .ColorScheme-ViewFocus{
        color:#3daee9;
      }
      .ColorScheme-ButtonText {
        color:#31363b;
      }
      .ColorScheme-ButtonBackground {
        color:#eff0f1;
      }
      .ColorScheme-ButtonHover {
        color:#93cee9;
      }
      .ColorScheme-ButtonFocus{
        color:#3daee9;
      }
      </style><linearGradient
       inkscape:collect="always"
       xlink:href="#linearGradient5358"
       id="linearGradient13399"
       gradientUnits="userSpaceOnUse"
       x1="13.523417"
       y1="34.648232"
       x2="13.744388"
       y2="-9.8553009" /></defs><g
     id="g2267"
     inkscape:label="Shape"
     inkscape:highlight-color="#00dcff"
     style="fill:url(#linearGradient5360);fill-opacity:1"><path
       d="M 50,5 C 9.0909092,5 5,25.454546 5,50 5,82.727274 17.272728,95 50,95 82.727274,95 95,82.727274 95,50 95,25.454546 90.909093,5 50,5 Z"
       sketch:type="MSShapeGroup"
       id="path6"
       style="font-variation-settings:normal;display:inline;opacity:1;vector-effect:none;fill:url(#linearGradient13399);fill-opacity:1;stroke-width:4.56656;stroke-linecap:butt;stroke-linejoin:miter;stroke-miterlimit:4;stroke-dasharray:none;stroke-dashoffset:0;stroke-opacity:1;-inkscape-stroke:none;stop-color:#000000;stop-opacity:1"
       transform="matrix(0.24444444,0,0,0.24444444,-0.22222222,-0.22222222)"
       sodipodi:nodetypes="sssss"
       inkscape:label="Squircle" /></g><g
     inkscape:groupmode="layer"
     id="layer3"
     inkscape:label="Guides"
     sodipodi:insensitive="true"
     style="display:none"><circle
       style="font-variation-settings:normal;display:inline;opacity:1;vector-effect:none;fill:none;fill-opacity:0.592829;stroke:#ff0000;stroke-width:0.0444444;stroke-linecap:butt;stroke-linejoin:miter;stroke-miterlimit:4;stroke-dasharray:none;stroke-dashoffset:0;stroke-opacity:1;-inkscape-stroke:none;paint-order:markers stroke fill;stop-color:#000000;stop-opacity:1"
       id="path1480"
       cx="12"
       cy="12"
       r="8"
       inkscape:label="Circle Guide" /><rect
       style="font-variation-settings:normal;display:inline;opacity:1;fill:none;fill-opacity:0.592829;stroke:#ff0000;stroke-width:0.05;stroke-linecap:butt;stroke-linejoin:miter;stroke-miterlimit:4;stroke-dasharray:none;stroke-dashoffset:0;stroke-opacity:1;paint-order:markers stroke fill;stop-color:#000000;stop-opacity:1"
       id="rect1482"
       width="14"
       height="14"
       x="5"
       y="5"
       inkscape:label="Square Guide" /></g><g
     id="g1350"
     transform="matrix(0.45872176,0,0,0.45872176,3.8264013,8.7582306)"><path
       style="fill:#4a89f3;stroke:none;stroke-width:0.0148548"
       d="m 28.880927,0.10667967 h -5.124916 c -0.908669,0 -1.80293,0.09211 -2.506217,-0.600492 C 20.547413,-1.1855423 20.636498,-2.0942413 20.636498,-2.9979793 v -5.184335 H 11.292811 9.5845061 c -0.729476,0 -1.428299,0.0031 -2.005402,0.522451 -0.711398,0.640269 -0.698177,1.479326 -0.698177,2.359385 v 3.683998 16.8750843 4.099932 c 0,0.903025 -0.0134,1.762823 0.742741,2.399946 0.593727,0.500311 1.289563,0.481891 2.020257,0.481891 h 2.5698849 11.854153 1.856853 c 0.931695,0 1.83472,0.03714 2.486401,-0.757596 0.113491,-0.138299 0.214653,-0.29576 0.285065,-0.4605 0.2916,-0.681242 0.184645,-1.488751 0.184645,-2.213369 V 14.69412 0.10667967 M 23.384641,7.0290292 v 1.381499 H 12.377213 v -1.381499 h 11.007428 m 0,2.762998 V 11.173526 H 12.377213 V 9.7920272 h 11.007428 m 0,2.7629978 v 1.054693 c 0,0.06803 0.03625,0.297988 -0.03446,0.332748 -0.05318,0.02614 -0.14528,0.0089 -0.203214,0.0089 h -0.475355 -1.69345 -6.03106 -1.871709 -0.490209 c -0.04944,0 -0.142829,0.01753 -0.184155,-0.0153 -0.06028,-0.04768 -0.02381,-0.269764 -0.02381,-0.341216 v -1.039838 h 11.007428 m -11.007428,4.159352 v -1.039838 c 0,-0.07145 -0.03647,-0.293531 0.02381,-0.341215 0.08412,-0.0667 0.374876,-0.0153 0.481251,-0.0153 h 1.336935 4.73869 1.218096 c 0.09803,0 0.358759,-0.0465 0.436687,0.0153 0.05262,0.04159 0.02381,0.206185 0.02381,0.266941 v 0.802161 c 0,0.06447 0.0336,0.269466 -0.03443,0.303038 -0.05651,0.02778 -0.156376,0.0089 -0.218098,0.0089 h -0.534774 -1.901418 -2.228224 z"
       id="path1339" /><path
       style="fill:#a5c4f8;stroke-width:0.0148548"
       d="m 8.7491019,22.308739 c 0.01021,-0.0041 0.02692,-0.0041 0.03714,0 0.01021,0.0041 0.0019,0.0075 -0.01857,0.0075 -0.02043,0 -0.02878,-0.0034 -0.01857,-0.0075 z m 18.1674551,0 c 0.01021,-0.0041 0.02692,-0.0041 0.03714,0 0.01021,0.0041 0.0019,0.0075 -0.01857,0.0075 -0.02042,0 -0.02878,-0.0034 -0.01857,-0.0075 z M 8.6163369,22.293579 c 0.01072,-0.0043 0.02354,-0.0038 0.02847,0.0012 0.0049,0.0049 -0.0038,0.0084 -0.0195,0.0078 -0.01731,-7.13e-4 -0.02082,-0.0042 -0.009,-0.009 z m 18.4496961,0 c 0.01072,-0.0043 0.02354,-0.0038 0.02847,0.0012 0.0049,0.0049 -0.0038,0.0084 -0.0195,0.0078 -0.01731,-7.13e-4 -0.02083,-0.0042 -0.009,-0.009 z m -19.6135731,-0.58776 -0.07372,-0.07799 0.07799,0.07371 c 0.04289,0.04054 0.07799,0.07564 0.07799,0.07799 0,0.01109 -0.01376,-0.0012 -0.08226,-0.07372 z m 20.7744141,0.01485 c 0.06156,-0.06559 0.0749,-0.07738 0.0749,-0.06623 0,0.0024 -0.03175,0.03414 -0.07056,0.07056 l -0.07056,0.06623 z m 0.595986,-1.193337 c 7.13e-4,-0.01731 0.0042,-0.02082 0.009,-0.009 0.0043,0.01072 0.0038,0.02354 -0.0012,0.02847 -0.0049,0.0049 -0.0084,-0.0038 -0.0078,-0.0195 z M 6.8537429,20.387449 c 0,-0.02042 0.0034,-0.02878 0.0075,-0.01857 0.0041,0.01021 0.0041,0.02692 0,0.03714 -0.0041,0.01021 -0.0075,0.0019 -0.0075,-0.01857 z m 21.9851461,0 c 0,-0.02042 0.0034,-0.02878 0.0075,-0.01857 0.0041,0.01021 0.0041,0.02692 0,0.03714 -0.0041,0.01021 -0.0075,0.0019 -0.0075,-0.01857 z M 12.347684,16.094377 v -0.698203 l 4.125929,0.0037 4.125928,0.0037 0.0039,0.694463 0.0039,0.694463 h -4.129789 -4.129789 z m 8.24443,0 v -0.683322 h -4.114788 -4.114787 v 0.683322 0.683322 h 4.114787 4.114788 z m -8.24443,-2.762998 v -0.698177 h 5.503714 5.503714 v 0.698177 0.698177 h -5.503714 -5.503714 z m 10.992573,0 v -0.683322 h -5.488859 -5.488859 v 0.683322 0.683322 h 5.488859 5.488859 z M 12.354542,10.560981 c -3e-6,-0.383998 0.0019,-0.543219 0.0043,-0.353826 0.0023,0.189395 0.0024,0.503574 6e-6,0.698177 -0.0023,0.194604 -0.0043,0.03965 -0.0043,-0.344351 z m 10.992573,0 c -3e-6,-0.383998 0.0019,-0.543219 0.0043,-0.353826 0.0023,0.189395 0.0023,0.503574 6e-6,0.698177 -0.0023,0.194604 -0.0043,0.03965 -0.0043,-0.344351 z M 12.354542,7.7979831 c -3e-6,-0.383998 0.0019,-0.543219 0.0043,-0.353826 0.0023,0.189395 0.0024,0.503574 6e-6,0.698177 -0.0023,0.194604 -0.0043,0.03965 -0.0043,-0.344351 z m 10.992573,0 c -3e-6,-0.383998 0.0019,-0.543219 0.0043,-0.353826 0.0023,0.189395 0.0023,0.503574 6e-6,0.698177 -0.0023,0.194604 -0.0043,0.03965 -0.0043,-0.344351 z M 25.598191,0.184599 c -2.978785,-0.00735 -3.254334,-0.01007 -3.349764,-0.033098 -0.412149,-0.099454 -0.745239,-0.2793615 -1.024565,-0.5533833 -0.330118,-0.3238495 -0.542312,-0.7493092 -0.601067,-1.205167 -0.01219,-0.094568 -0.01787,-1.0302611 -0.02012,-3.3143808 l -0.0031,-3.1826128 0.37284,0.37505 c 0.205063,0.206278 1.598284,1.6083731 3.096047,3.1157668 1.497764,1.5073937 3.188305,3.2069717 3.756761,3.7768401 0.568456,0.5698683 1.030231,1.0345193 1.026168,1.0325579 -0.0041,-0.00196 -1.467988,-0.00717 -3.253167,-0.011573 z M 6.8554439,-6.1284188 c 0,-0.036766 0.0029,-0.051806 0.0064,-0.033423 0.0035,0.018383 0.0035,0.048464 0,0.066847 -0.0035,0.018383 -0.0064,0.00334 -0.0064,-0.033424 z m 0.01315,-0.1782579 c 0,-0.020425 0.0034,-0.028781 0.0075,-0.018568 0.0041,0.010213 0.0041,0.026924 0,0.037137 -0.0041,0.010213 -0.0075,0.00186 -0.0075,-0.018569 z m 0.465582,-1.0546924 c 0.01479,-0.01634 0.03023,-0.02971 0.03431,-0.02971 0.0041,0 -0.0047,0.01337 -0.01946,0.02971 -0.01479,0.01634 -0.03023,0.02971 -0.03431,0.02971 -0.0041,0 0.0047,-0.01337 0.01946,-0.02971 z m 0.126266,-0.141121 c 0.02772,-0.02859 0.05373,-0.05199 0.05782,-0.05199 0.0041,0 -0.01525,0.0234 -0.04297,0.05199 -0.02772,0.0286 -0.05373,0.05199 -0.05782,0.05199 -0.0041,0 0.01525,-0.0234 0.04296,-0.05199 z m 0.126266,-0.111412 c 0.01479,-0.01634 0.03023,-0.02971 0.03431,-0.02971 0.0041,0 -0.0047,0.01337 -0.01946,0.02971 -0.01479,0.01634 -0.03023,0.02971 -0.03431,0.02971 -0.0041,0 0.0047,-0.01337 0.01946,-0.02971 z m 0.06685,-0.05017 c 0,-0.0031 0.0117,-0.01478 0.026,-0.026 0.02356,-0.01848 0.02409,-0.01795 0.0056,0.0056 -0.01941,0.02474 -0.0316,0.03261 -0.0316,0.02039 z m 0.888504,-0.405619 c 0.01072,-0.0043 0.02354,-0.0038 0.02847,0.0012 0.0049,0.0049 -0.0038,0.0084 -0.0195,0.0078 -0.01731,-7.13e-4 -0.02082,-0.0042 -0.009,-0.009 z m 0.08913,-0.01486 c 0.01072,-0.0043 0.02354,-0.0038 0.02847,0.0012 0.0049,0.0049 -0.0038,0.0085 -0.0195,0.0078 -0.01731,-7.13e-4 -0.02082,-0.0042 -0.009,-0.009 z m 0.155047,-0.01535 c 0.02247,-0.0034 0.05923,-0.0034 0.0817,0 0.02247,0.0034 0.0041,0.0062 -0.04085,0.0062 -0.04494,0 -0.06332,-0.0028 -0.04085,-0.0062 z"
       id="path1325" /><g
       id="g1343"
       transform="translate(-28.304916,2.9450824)"><path
         style="fill:#437be3;stroke-width:0.0148548"
         d="m 37.056368,19.18343 c 0.01072,-0.0043 0.02354,-0.0038 0.02847,0.0012 0.0049,0.0049 -0.0038,0.0084 -0.0195,0.0078 -0.01731,-7.13e-4 -0.02083,-0.0042 -0.009,-0.009 z m 4.462948,-0.164397 c 2.473514,-0.0021 6.521083,-0.0021 8.994598,0 2.473514,0.0021 0.44973,0.0038 -4.497299,0.0038 -4.947029,0 -6.970814,-0.0017 -4.497299,-0.0038 z m -4.65606,-0.01386 c 0.01072,-0.0043 0.02354,-0.0038 0.02847,0.0012 0.0049,0.0049 -0.0038,0.0084 -0.0195,0.0078 -0.01731,-7.13e-4 -0.02083,-0.0042 -0.009,-0.009 z m 18.330857,0 c 0.01072,-0.0043 0.02354,-0.0038 0.02847,0.0012 0.0049,0.0049 -0.0038,0.0084 -0.0195,0.0078 -0.01731,-7.13e-4 -0.02082,-0.0042 -0.009,-0.009 z m 0.103984,-0.01485 c 0.01072,-0.0043 0.02354,-0.0038 0.02847,0.0012 0.0049,0.0049 -0.0038,0.0084 -0.0195,0.0078 -0.01731,-7.13e-4 -0.02082,-0.0042 -0.009,-0.009 z m -19.458934,-0.40208 c -0.01848,-0.02356 -0.01795,-0.02409 0.0056,-0.0056 0.02474,0.01941 0.03261,0.0316 0.02039,0.0316 -0.0031,0 -0.01478,-0.0117 -0.026,-0.026 z m -0.08122,-0.06685 -0.0283,-0.03342 0.03342,0.0283 c 0.03141,0.02659 0.04019,0.03855 0.0283,0.03855 -0.0028,0 -0.01786,-0.01504 -0.03342,-0.03342 z m 20.538211,0.01296 c 0,-0.0031 0.0117,-0.01478 0.026,-0.02599 0.02356,-0.01848 0.02409,-0.01795 0.0056,0.0056 -0.01941,0.02474 -0.0316,0.03261 -0.0316,0.02039 z m 0.207967,-0.207967 c 0,-0.0031 0.0117,-0.01478 0.026,-0.026 0.02356,-0.01848 0.02409,-0.01795 0.0056,0.0056 -0.01941,0.02474 -0.0316,0.03261 -0.0316,0.02039 z M 35.52721,18.291146 c -0.01848,-0.02356 -0.01795,-0.02409 0.0056,-0.0056 0.02474,0.01941 0.03261,0.03161 0.02039,0.03161 -0.0031,0 -0.01478,-0.0117 -0.02599,-0.026 z m -0.457431,-0.948232 c 7.13e-4,-0.01731 0.0042,-0.02083 0.009,-0.009 0.0043,0.01072 0.0038,0.02354 -0.0012,0.02847 -0.0049,0.0049 -0.0084,-0.0038 -0.0078,-0.0195 z m -0.01485,-0.08913 c 7.12e-4,-0.01731 0.0042,-0.02083 0.009,-0.009 0.0043,0.01072 0.0038,0.02354 -0.0012,0.02847 -0.0049,0.0049 -0.0084,-0.0038 -0.0078,-0.0195 z M 35.041249,17.1139 c 0,-0.02042 0.0034,-0.02878 0.0075,-0.01857 0.0041,0.01021 0.0041,0.02692 0,0.03714 -0.0041,0.01021 -0.0075,0.0019 -0.0075,-0.01857 z m 21.985146,0 c 0,-0.02042 0.0034,-0.02878 0.0075,-0.01857 0.0041,0.01021 0.0041,0.02692 0,0.03714 -0.0041,0.01021 -0.0075,0.0019 -0.0075,-0.01857 z M 54.64727,1.7317267 54.596878,1.6797348 h 1.221009 1.22101 v 0.051992 0.051992 H 55.86828 54.697662 Z m -1.99849,-2.0016881 -1.900903,-1.9051317 1.32819,-0.00379 c 0.730504,-0.00209 1.330869,-0.00111 1.334148,0.00216 0.0033,0.00328 -0.02454,0.066684 -0.06182,0.1409043 -0.03728,0.07422 -0.06777,0.1417638 -0.06777,0.1500972 0,0.010103 0.255315,0.015152 0.766261,0.015152 0.606406,0 0.764971,0.00387 0.760074,0.018569 -0.0048,0.014472 -0.177074,0.019417 -0.780803,0.022415 l -0.774617,0.00385 -0.02259,0.043694 c -0.01243,0.024032 -0.0226,0.047369 -0.0226,0.051859 0,0.00449 0.347716,0.00817 0.772701,0.00817 h 0.772702 l -0.03764,0.074274 -0.03764,0.074274 h 1.18121 1.181208 v 1.6043135 1.6043215 h -1.244607 -1.244606 z m -2.257883,-2.2727887 -0.08866,-0.092843 0.09284,0.088664 c 0.05106,0.048765 0.09284,0.090544 0.09284,0.092843 0,0.010976 -0.01466,-0.00242 -0.09702,-0.088664 z m -0.208437,-0.2079675 -0.04363,-0.048278 0.04828,0.04363 c 0.045,0.040669 0.05511,0.052926 0.04363,0.052926 -0.0026,0 -0.02428,-0.021725 -0.04828,-0.048278 z m -0.358743,-0.2907532 c -0.527742,-0.3252007 -0.86559,-0.7978915 -0.984972,-1.3780981 -0.04073,-0.1979658 -0.03561,-0.235304 0.0091,-0.066245 0.10733,0.4059223 0.306104,0.7355693 0.615263,1.0203542 0.08936,0.082312 0.513874,0.5107754 0.504712,0.509404 -0.004,-5.957e-4 -0.06883,-0.039033 -0.144096,-0.085415 z M 48.79564,-4.7016517 c 7.13e-4,-0.017305 0.0042,-0.020825 0.009,-0.00897 0.0043,0.010723 0.0038,0.023536 -0.0012,0.028472 -0.0049,0.00494 -0.0084,-0.00384 -0.0078,-0.019497 z"
         id="path1317" /><path
         style="fill:#4277dd;stroke-width:0.0148548"
         d="m 36.996949,19.020027 c 0.01072,-0.0043 0.02354,-0.0038 0.02847,0.0012 0.0049,0.0049 -0.0038,0.0084 -0.0195,0.0078 -0.01731,-7.13e-4 -0.02082,-0.0042 -0.009,-0.009 z m 18.018906,0 c 0.01072,-0.0043 0.02354,-0.0038 0.02847,0.0012 0.0049,0.0049 -0.0038,0.0084 -0.0195,0.0078 -0.01731,-7.13e-4 -0.02082,-0.0042 -0.009,-0.009 z M 35.63309,18.413699 c -0.03608,-0.03677 -0.06226,-0.06685 -0.05818,-0.06685 0.0041,0 0.03695,0.03008 0.07303,0.06685 0.03608,0.03676 0.06226,0.06685 0.05818,0.06685 -0.0041,0 -0.03695,-0.03008 -0.07303,-0.06685 z m 19.081026,-20.0614457 0.03764,-0.074274 h -0.772702 c -0.424985,0 -0.772701,-0.00367 -0.772701,-0.00817 0,-0.00449 0.01017,-0.027828 0.0226,-0.051859 l 0.02259,-0.043694 0.774617,-0.00385 c 0.603729,-0.003 0.775981,-0.00794 0.780803,-0.022415 0.0049,-0.014695 -0.153668,-0.018569 -0.760074,-0.018569 -0.510946,0 -0.766261,-0.00505 -0.766261,-0.015152 0,-0.00833 0.03008,-0.075047 0.06685,-0.1482515 0.03677,-0.073205 0.06685,-0.1365757 0.06685,-0.1408241 0,-0.00425 -0.599265,-0.00772 -1.331698,-0.00772 h -1.3317 l -0.38788,-0.3899343 c -0.364459,-0.3664004 -0.382933,-0.3875426 -0.306046,-0.3502373 0.04501,0.021836 0.141989,0.056884 0.215521,0.077884 0.302046,0.086264 0.150366,0.082771 3.598582,0.082866 l 3.167792,8.82e-5 v 0.5941932 0.5941931 h -1.181208 -1.18121 z"
         id="path1315" /></g></g></svg>
