<svg xmlns="http://www.w3.org/2000/svg" xmlns:xlink="http://www.w3.org/1999/xlink" xml:space="preserve" id="svg154" width="24" height="24" fill="none" version="1.1"><defs id="defs152"><linearGradient id="linearGradient5358"><stop id="stop5354" offset="0" style="stop-color:#e6e6e6;stop-opacity:1"/><stop id="stop5356" offset="1" style="stop-color:#fff;stop-opacity:1"/></linearGradient><linearGradient xlink:href="#linearGradient5358" id="linearGradient5360" x1="13.523" x2="13.744" y1="34.648" y2="-9.855" gradientUnits="userSpaceOnUse"/><linearGradient xlink:href="#linearGradient5358" id="linearGradient9448" x1="13.523" x2="13.744" y1="34.648" y2="-9.855" gradientUnits="userSpaceOnUse"/><style id="current-color-scheme" type="text/css">.ColorScheme-Text{color:#31363b}.ColorScheme-Background{color:#eff0f1}.ColorScheme-Highlight{color:#3daee9}.ColorScheme-ViewText{color:#31363b}.ColorScheme-ViewBackground{color:#fcfcfc}.ColorScheme-ViewHover{color:#93cee9}.ColorScheme-ViewFocus{color:#3daee9}.ColorScheme-ButtonText{color:#31363b}.ColorScheme-ButtonBackground{color:#eff0f1}.ColorScheme-ButtonHover{color:#93cee9}.ColorScheme-ButtonFocus{color:#3daee9}</style></defs><g id="g2267" style="fill:url(#linearGradient5360);fill-opacity:1"><path id="path6" d="M50 5C9.09 5 5 25.455 5 50c0 32.727 12.273 45 45 45 32.727 0 45-12.273 45-45 0-24.545-4.09-45-45-45Z" style="font-variation-settings:normal;display:inline;opacity:1;vector-effect:none;fill:url(#linearGradient9448);fill-opacity:1;stroke-width:4.56656;stroke-linecap:butt;stroke-linejoin:miter;stroke-miterlimit:4;stroke-dasharray:none;stroke-dashoffset:0;stroke-opacity:1;-inkscape-stroke:none;stop-color:#000;stop-opacity:1" transform="matrix(.24444 0 0 .24444 -.222 -.222)"/></g><path id="path9273" d="M13.062 3.13v.36a4.69 4.69 0 0 0 4.7 4.7H28.6a4.69 4.69 0 0 0 4.699-4.7v-.36a4.688 4.688 0 0 1-4.7 4.697H17.763a4.689 4.689 0 0 1-4.7-4.698Z" opacity=".1" style="stroke-width:.361355"/><g id="g9316" transform="translate(-12.599 14.047) scale(1.06115)"><path id="path9275" fill="#e6e6e6" d="M28.82 4.575c.476 0 .866-.376.866-.837v-8.546c0-.461-.39-.838-.866-.838h-8.447L24.16.144l-.397 4.431z" style="stroke-width:.361355"/><path id="path9277" fill="#1e57b9" d="M25.99 1.788h-3.027l.8 2.788z" style="stroke-width:.361355"/><path id="path9279" fill="#5a717f" d="M25.505-3.555v.697h-1.659v.698h.283v-.001h3.061c-.18.621-.575 1.22-.96 1.675-.484-.564-.624-.854-.666-.978h-.71c.052.159.247.584.968 1.417-.312.314-.547.5-.547.5l.217.671s.33-.279.741-.71c.414.442.947.973 1.637 1.606l.426-.441A26.626 26.626 0 0 1 26.64-.027c.533-.622 1.075-1.418 1.19-2.135h1.157v.001h.001v-.697h-2.788v-.697z" style="stroke-width:.361355"/><path id="path9281" fill="#4285f4" d="M17.542-8.434c-.475 0-.865.378-.865.84V.95c0 .46.39.838.865.838h8.448L22.6-8.434z" style="stroke-width:.361355"/><path id="path9283" fill="#fff" d="M20.436-5.413c-1.178 0-2.133.936-2.133 2.09s.955 2.09 2.132 2.09c1.234 0 2.05-.848 2.05-2.044 0-.117-.01-.198-.026-.278h-1.833v.696l.411.001h.703s-.258.956-1.346.929a1.394 1.394 0 1 1 .93-2.431l.54-.51a2.09 2.09 0 0 0-1.428-.543z" style="stroke-width:.361355"/></g></svg>