<svg xmlns="http://www.w3.org/2000/svg" xmlns:xlink="http://www.w3.org/1999/xlink" xml:space="preserve" id="svg154" width="24" height="24" fill="none" version="1.1"><defs id="defs152"><linearGradient id="linearGradient6501"><stop id="stop6497" offset="0" style="stop-color:#f2f2f2;stop-opacity:1"/><stop id="stop6499" offset="1" style="stop-color:#fff;stop-opacity:1"/></linearGradient><linearGradient id="linearGradient4924"><stop id="stop4922" offset="0" style="stop-color:#000;stop-opacity:1"/></linearGradient><linearGradient id="linearGradient2219"><stop id="stop2217" offset="0" style="stop-color:#000;stop-opacity:1"/></linearGradient><linearGradient id="linearGradient2199"><stop id="stop2197" offset="0" style="stop-color:#000;stop-opacity:1"/></linearGradient><linearGradient id="linearGradient2193"><stop id="stop2191" offset="0" style="stop-color:#000;stop-opacity:1"/></linearGradient><linearGradient xlink:href="#linearGradient6501" id="linearGradient6503" x1="10.125" x2="9.938" y1="36.875" y2="-4.938" gradientUnits="userSpaceOnUse"/><linearGradient xlink:href="#linearGradient6501" id="linearGradient6873" x1="10.125" x2="9.938" y1="36.875" y2="-4.938" gradientUnits="userSpaceOnUse"/><style id="current-color-scheme" type="text/css">.ColorScheme-Text{color:#31363b}.ColorScheme-Background{color:#eff0f1}.ColorScheme-Highlight{color:#3daee9}.ColorScheme-ViewText{color:#31363b}.ColorScheme-ViewBackground{color:#fcfcfc}.ColorScheme-ViewHover{color:#93cee9}.ColorScheme-ViewFocus{color:#3daee9}.ColorScheme-ButtonText{color:#31363b}.ColorScheme-ButtonBackground{color:#eff0f1}.ColorScheme-ButtonHover{color:#93cee9}.ColorScheme-ButtonFocus{color:#3daee9}</style></defs><g id="g2267" style="fill:url(#linearGradient6503);fill-opacity:1"><path id="path6" d="M50 5C9.09 5 5 25.455 5 50c0 32.727 12.273 45 45 45 32.727 0 45-12.273 45-45 0-24.545-4.09-45-45-45Z" style="font-variation-settings:normal;display:inline;opacity:1;vector-effect:none;fill:url(#linearGradient6873);fill-opacity:1;stroke-width:4.56656;stroke-linecap:butt;stroke-linejoin:miter;stroke-miterlimit:4;stroke-dasharray:none;stroke-dashoffset:0;stroke-opacity:1;-inkscape-stroke:none;stop-color:#000;stop-opacity:1" transform="matrix(.24444 0 0 .24444 -.222 -.222)"/></g><g id="g6495" transform="matrix(.09434 0 0 .09434 3.887 2.981)"><path id="path6477" fill="#f6bc04" d="M43.6 49.4C67 49.4 86 68.4 86 91.8v3.9H5.1c-2.1 0-3.8-1.7-3.9-3.9 0-23.4 19-42.4 42.4-42.4Z"/><path id="path6479" fill="#ea4335" d="M132.2 53.2c0 23.4-19 42.4-42.4 42.4H86V14.7c0-2.1 1.7-3.9 3.8-3.9 23.5 0 42.4 19 42.4 42.4z"/><path id="path6481" fill="#4285f4" d="M128.4 141.9c-23.4 0-42.4-19-42.4-42.4v-3.9h80.9c2.1 0 3.9 1.7 3.9 3.8 0 23.5-19 42.5-42.4 42.5z"/><path id="path6483" fill="#34a853" d="M39.8 138c0-23.4 19-42.4 42.4-42.4H86v80.9c0 2.1-1.7 3.8-3.9 3.9-23.4 0-42.3-19-42.3-42.4z"/></g></svg>