<?xml version="1.0" encoding="UTF-8" standalone="no"?>
<svg
   width="24"
   height="24"
   viewBox="0 0 24 24"
   fill="none"
   version="1.1"
   id="svg154"
   sodipodi:docname="app.svg"
   inkscape:version="1.2.2 (b0a8486541, 2022-12-01)"
   xml:space="preserve"
   inkscape:export-filename="../../../../ícones big/doctranslator.svg"
   inkscape:export-xdpi="96"
   inkscape:export-ydpi="96"
   xmlns:inkscape="http://www.inkscape.org/namespaces/inkscape"
   xmlns:sodipodi="http://sodipodi.sourceforge.net/DTD/sodipodi-0.dtd"
   xmlns:xlink="http://www.w3.org/1999/xlink"
   xmlns="http://www.w3.org/2000/svg"
   xmlns:svg="http://www.w3.org/2000/svg"
   xmlns:sketch="http://www.bohemiancoding.com/sketch/ns"><sodipodi:namedview
     id="namedview156"
     pagecolor="#ffffff"
     bordercolor="#000000"
     borderopacity="1"
     inkscape:showpageshadow="0"
     inkscape:pageopacity="1"
     inkscape:pagecheckerboard="false"
     inkscape:deskcolor="#ffffff"
     showgrid="true"
     inkscape:zoom="32"
     inkscape:cx="9.609375"
     inkscape:cy="15.453125"
     inkscape:window-width="1920"
     inkscape:window-height="1052"
     inkscape:window-x="0"
     inkscape:window-y="0"
     inkscape:window-maximized="1"
     inkscape:current-layer="svg154"
     showguides="true"
     guidecolor="#ff0000"
     guideopacity="1"
     inkscape:lockguides="true"
     showborder="true"
     borderlayer="true"><inkscape:grid
       type="xygrid"
       id="grid356"
       color="#000000"
       opacity="0.10196078"
       empcolor="#000000"
       empopacity="0.10196078"
       snapvisiblegridlinesonly="true"
       enabled="true"
       visible="true"
       dotted="false" /><sodipodi:guide
       position="4,12"
       orientation="-1,0"
       id="guide764"
       inkscape:locked="true"
       inkscape:label="left-circle"
       inkscape:color="rgb(255,0,0)" /><sodipodi:guide
       position="5,12"
       orientation="-1,0"
       id="guide2218"
       inkscape:locked="true"
       inkscape:label="left-square"
       inkscape:color="rgb(255,0,0)" /><sodipodi:guide
       position="12,20"
       orientation="0,1"
       id="guide2220"
       inkscape:locked="true"
       inkscape:label="top-circle"
       inkscape:color="rgb(255,0,0)" /><sodipodi:guide
       position="12,5"
       orientation="0,1"
       id="guide2222"
       inkscape:locked="true"
       inkscape:label="bottom-square"
       inkscape:color="rgb(255,0,0)" /><sodipodi:guide
       position="12,4"
       orientation="0,1"
       id="guide2224"
       inkscape:locked="true"
       inkscape:label="bottom-circle"
       inkscape:color="rgb(255,0,0)" /><sodipodi:guide
       position="19,12"
       orientation="-1,0"
       id="guide2226"
       inkscape:locked="true"
       inkscape:label="right-square"
       inkscape:color="rgb(255,0,0)" /><sodipodi:guide
       position="20,12"
       orientation="-1,0"
       id="guide2228"
       inkscape:locked="true"
       inkscape:label="right-circle"
       inkscape:color="rgb(255,0,0)" /><sodipodi:guide
       position="12,19"
       orientation="0,1"
       id="guide2230"
       inkscape:locked="true"
       inkscape:label="top-square"
       inkscape:color="rgb(255,0,0)" /><sodipodi:guide
       position="12,12"
       orientation="1,0"
       id="guide765"
       inkscape:locked="true" /><sodipodi:guide
       position="12,12"
       orientation="0,-1"
       id="guide767"
       inkscape:locked="true" /><sodipodi:guide
       position="12,12"
       orientation="0.70710678,0.70710678"
       id="guide2266"
       inkscape:locked="true"
       inkscape:label=""
       inkscape:color="rgb(255,0,0)" /><sodipodi:guide
       position="12,12"
       orientation="-0.70710678,0.70710678"
       id="guide2994"
       inkscape:locked="true"
       inkscape:label=""
       inkscape:color="rgb(255,0,0)" /><sodipodi:guide
       position="3,12"
       orientation="-1,0"
       id="guide131543"
       inkscape:locked="true"
       inkscape:label="left-horizontal"
       inkscape:color="rgb(255,0,0)" /><sodipodi:guide
       position="12,21"
       orientation="0,1"
       id="guide131545"
       inkscape:locked="true"
       inkscape:label="top-vertical"
       inkscape:color="rgb(255,0,0)" /><sodipodi:guide
       position="21,12"
       orientation="-1,0"
       id="guide131547"
       inkscape:locked="true"
       inkscape:label="right-horizontal"
       inkscape:color="rgb(255,0,0)" /><sodipodi:guide
       position="12,3"
       orientation="0,1"
       id="guide131549"
       inkscape:locked="true"
       inkscape:label="bottom-vertical"
       inkscape:color="rgb(255,0,0)" /></sodipodi:namedview><defs
     id="defs152"><linearGradient
       inkscape:collect="always"
       id="linearGradient7843"><stop
         style="stop-color:#ececec;stop-opacity:1"
         offset="0"
         id="stop7839" /><stop
         style="stop-color:#e6e6e6;stop-opacity:1"
         offset="1"
         id="stop7841" /></linearGradient><linearGradient
       id="linearGradient1257"
       inkscape:swatch="solid"><stop
         style="stop-color:#000000;stop-opacity:1;"
         offset="0"
         id="stop1255" /></linearGradient><radialGradient
       inkscape:collect="always"
       xlink:href="#linearGradient7843"
       id="radialGradient7845"
       cx="1627.0533"
       cy="98.893562"
       fx="1627.0533"
       fy="98.893562"
       r="45"
       gradientUnits="userSpaceOnUse"
       gradientTransform="matrix(-0.00625002,-0.83611148,0.24443767,-0.00181989,-1.7229487,1393.6717)" /><clipPath
       id="26d1e30ad9"><path
         d="m 78,11.460938 h 77 V 150 H 78 Z m 0,0"
         clip-rule="nonzero"
         id="path8410" /></clipPath><clipPath
       id="f59d18af8e"><path
         d="M 44.90625,88 H 188.82812 V 213.85156 H 44.90625 Z m 0,0"
         clip-rule="nonzero"
         id="path8413" /></clipPath></defs><path
     d="M 12,0.99999998 C 2,0.99999998 0.99999998,6 0.99999998,12 0.99999998,20 4.0000001,23 12,23 20,23 23,20 23,12 23,6 22,0.99999998 12,0.99999998 Z"
     sketch:type="MSShapeGroup"
     id="path6"
     style="font-variation-settings:normal;display:inline;opacity:1;vector-effect:none;fill:url(#radialGradient7845);fill-opacity:1;stroke-width:1.11627;stroke-linecap:butt;stroke-linejoin:miter;stroke-miterlimit:4;stroke-dasharray:none;stroke-dashoffset:0;stroke-opacity:1;-inkscape-stroke:none;stop-color:#000000;stop-opacity:1"
     sodipodi:nodetypes="sssss"
     inkscape:label="Shape"
     sodipodi:insensitive="true"
     inkscape:export-filename="../../../../ícones big/path6.svg"
     inkscape:export-xdpi="96"
     inkscape:export-ydpi="96" /><g
     id="g8491"
     transform="matrix(0.86317497,0,0,0.86317497,1.8519283,1.0656851)"><g
       clip-path="url(#26d1e30ad9)"
       id="g8428"
       transform="matrix(0.09204192,0,0,0.09204192,0.99999964,2.3020556)"><path
         fill="#2196f3"
         d="M 154.96484,111.38281 V 49.585938 c 0,-1.25 -0.0625,-2.496094 -0.18359,-3.742188 -0.12109,-1.242188 -0.30469,-2.476562 -0.55078,-3.703125 -0.24219,-1.226563 -0.54297,-2.4375 -0.90625,-3.632813 -0.36328,-1.199218 -0.78125,-2.375 -1.26172,-3.527343 -0.47656,-1.15625 -1.00781,-2.285157 -1.59766,-3.386719 -0.58593,-1.101562 -1.22656,-2.175781 -1.92187,-3.214844 -0.69141,-1.039062 -1.4336,-2.039062 -2.22656,-3.007812 -0.79297,-0.964844 -1.62891,-1.890625 -2.51172,-2.773438 C 142.92187,21.710938 142,20.875 141.03516,20.082031 c -0.96485,-0.792969 -1.96485,-1.539062 -3.00391,-2.234375 -1.03516,-0.691406 -2.10547,-1.335937 -3.20703,-1.925781 -1.09766,-0.585937 -2.22656,-1.121094 -3.37891,-1.601563 -1.15234,-0.476562 -2.32422,-0.898437 -3.51953,-1.261718 -1.19531,-0.359375 -2.40234,-0.664063 -3.625,-0.910156 -1.22656,-0.242188 -2.45703,-0.425782 -3.69922,-0.546876 -1.24218,-0.125 -2.48828,-0.183593 -3.73437,-0.183593 -1.2461,0 -2.49219,0.05859 -3.73438,0.183593 -1.24218,0.121094 -2.47265,0.304688 -3.69922,0.546876 -1.22265,0.246093 -2.43359,0.550781 -3.625,0.910156 -1.19531,0.363281 -2.36718,0.785156 -3.51953,1.261718 -1.15234,0.480469 -2.28125,1.015626 -3.38281,1.601563 -1.097656,0.589844 -2.167969,1.234375 -3.203125,1.925781 -1.039063,0.695313 -2.039063,1.441406 -3.003906,2.234375 -0.964844,0.792969 -1.890625,1.628907 -2.769531,2.515625 -0.882813,0.882813 -1.722657,1.808594 -2.511719,2.773438 -0.792969,0.96875 -1.535157,1.96875 -2.226563,3.007812 -0.695312,1.039063 -1.335937,2.113282 -1.921875,3.214844 -0.589843,1.101562 -1.121093,2.230469 -1.601562,3.386719 -0.476563,1.152343 -0.894531,2.328125 -1.257813,3.527343 -0.363281,1.195313 -0.664062,2.40625 -0.910156,3.632813 -0.242188,1.226563 -0.425781,2.460937 -0.546875,3.703125 -0.121094,1.246094 -0.183594,2.492188 -0.183594,3.742188 v 61.796872 c 0,1.25 0.0625,2.5 0.183594,3.74219 0.121094,1.24609 0.304687,2.48047 0.546875,3.70703 0.246094,1.22656 0.546875,2.4375 0.910156,3.63281 0.363282,1.19532 0.78125,2.3711 1.257813,3.52735 0.480469,1.15234 1.011719,2.28125 1.601562,3.38672 0.585938,1.10156 1.226563,2.17187 1.921875,3.21093 0.691406,1.03907 1.433594,2.04297 2.226563,3.00782 0.789062,0.96875 1.628906,1.89062 2.511719,2.77734 0.878906,0.88281 1.804687,1.72266 2.769531,2.51562 0.964843,0.79297 1.964843,1.53516 3.003906,2.23047 1.035156,0.69532 2.105469,1.33594 3.203125,1.92578 1.10156,0.58985 2.23047,1.1211 3.38281,1.60157 1.15235,0.47656 2.32422,0.89843 3.51953,1.26172 1.19141,0.36328 2.40235,0.66796 3.625,0.91015 1.22657,0.24219 2.45704,0.42578 3.69922,0.55078 1.24219,0.1211 2.48828,0.1836 3.73438,0.1836 1.24609,0 2.49219,-0.0625 3.73437,-0.1836 1.24219,-0.125 2.47266,-0.30859 3.69922,-0.55078 1.22266,-0.24219 2.42969,-0.54687 3.625,-0.91015 1.19531,-0.36329 2.36719,-0.78516 3.51953,-1.26172 1.15235,-0.48047 2.28125,-1.01172 3.37891,-1.60157 1.10156,-0.58984 2.17187,-1.23046 3.20703,-1.92578 1.03906,-0.69531 2.03906,-1.4375 3.00391,-2.23047 0.96484,-0.79296 1.88671,-1.63281 2.76953,-2.51562 0.88281,-0.88672 1.71875,-1.80859 2.51172,-2.77734 0.79296,-0.96485 1.53515,-1.96875 2.22656,-3.00782 0.69531,-1.03906 1.33594,-2.10937 1.92187,-3.21093 0.58985,-1.10547 1.1211,-2.23438 1.59766,-3.38672 0.48047,-1.15625 0.89844,-2.33203 1.26172,-3.52735 0.36328,-1.19531 0.66406,-2.40625 0.90625,-3.63281 0.24609,-1.22656 0.42969,-2.46094 0.55078,-3.70703 0.12109,-1.24219 0.18359,-2.49219 0.18359,-3.74219 z m -66.519528,0 v -3.42968 h 10.484376 c 0.320312,0 0.632812,-0.0273 0.945312,-0.0898 0.3125,-0.0625 0.61328,-0.15625 0.90625,-0.27734 0.29297,-0.1211 0.57422,-0.26953 0.83594,-0.44922 0.26562,-0.17578 0.51172,-0.375 0.73437,-0.60156 0.22657,-0.22657 0.42578,-0.46875 0.60157,-0.73438 0.17578,-0.26562 0.32421,-0.54297 0.44921,-0.83984 0.1211,-0.29297 0.21094,-0.59375 0.27344,-0.90625 0.0625,-0.3125 0.0937,-0.62891 0.0937,-0.94531 0,-0.32032 -0.0312,-0.63672 -0.0937,-0.94532 -0.0625,-0.3125 -0.15234,-0.61718 -0.27344,-0.91015 -0.125,-0.29297 -0.27343,-0.57422 -0.44921,-0.83985 -0.17579,-0.26172 -0.375,-0.50781 -0.60157,-0.734372 -0.22265,-0.222657 -0.46875,-0.425782 -0.73437,-0.601563 -0.26172,-0.175781 -0.54297,-0.328125 -0.83594,-0.449219 -0.29297,-0.121094 -0.59375,-0.210937 -0.90625,-0.273437 -0.3125,-0.0625 -0.625,-0.09375 -0.945312,-0.09375 H 88.445312 V 85.332031 h 10.484376 c 0.320312,0 0.632812,-0.03125 0.945312,-0.09375 0.3125,-0.0625 0.61328,-0.152343 0.90625,-0.273437 0.29297,-0.125 0.57422,-0.273438 0.83594,-0.449219 0.26562,-0.175781 0.51172,-0.378906 0.73437,-0.601563 0.22657,-0.226562 0.42578,-0.472656 0.60157,-0.734374 0.17578,-0.265626 0.32421,-0.546876 0.44921,-0.839844 0.1211,-0.292969 0.21094,-0.597656 0.27344,-0.910156 0.0625,-0.3125 0.0937,-0.625 0.0937,-0.945313 0,-0.316406 -0.0312,-0.632813 -0.0937,-0.945313 -0.0625,-0.3125 -0.15234,-0.613281 -0.27344,-0.910156 -0.125,-0.292968 -0.27343,-0.570312 -0.44921,-0.835937 -0.17579,-0.265625 -0.375,-0.511719 -0.60157,-0.734375 -0.22265,-0.226563 -0.46875,-0.425782 -0.73437,-0.605469 -0.26172,-0.175781 -0.54297,-0.324219 -0.83594,-0.445313 -0.29297,-0.121093 -0.59375,-0.214843 -0.90625,-0.277343 -0.3125,-0.0625 -0.625,-0.09375 -0.945312,-0.09375 H 88.445312 V 62.710938 h 10.484376 c 0.320312,0 0.632812,-0.03125 0.945312,-0.09375 0.3125,-0.0625 0.61328,-0.15625 0.90625,-0.277344 0.29297,-0.121094 0.57422,-0.269532 0.83594,-0.449219 0.26562,-0.175781 0.51172,-0.375 0.73437,-0.601563 0.22657,-0.226562 0.42578,-0.46875 0.60157,-0.734374 0.17578,-0.265626 0.32421,-0.542969 0.44921,-0.835938 0.1211,-0.296875 0.21094,-0.597656 0.27344,-0.910156 0.0625,-0.3125 0.0937,-0.628906 0.0937,-0.945313 0,-0.320312 -0.0312,-0.632812 -0.0937,-0.945312 -0.0625,-0.3125 -0.15234,-0.617188 -0.27344,-0.910157 -0.125,-0.292968 -0.27343,-0.574218 -0.44921,-0.839843 -0.17579,-0.261719 -0.375,-0.507813 -0.60157,-0.734375 -0.22265,-0.222656 -0.46875,-0.425782 -0.73437,-0.601563 -0.26172,-0.175781 -0.54297,-0.324219 -0.83594,-0.449219 -0.29297,-0.121093 -0.59375,-0.210937 -0.90625,-0.273437 -0.3125,-0.0625 -0.625,-0.09375 -0.945312,-0.09375 H 88.445312 v -3.429687 c 0,-0.933594 0.04688,-1.863282 0.136719,-2.789063 0.09375,-0.929687 0.230469,-1.851563 0.410157,-2.765625 0.183593,-0.914062 0.410156,-1.816406 0.679687,-2.707031 0.269531,-0.894531 0.582031,-1.769531 0.941406,-2.632813 0.355469,-0.859375 0.753907,-1.703125 1.191407,-2.523437 0.4375,-0.824219 0.917968,-1.621094 1.433593,-2.398438 0.515625,-0.773437 1.070313,-1.523437 1.660157,-2.242187 0.59375,-0.722656 1.214843,-1.410156 1.875,-2.070313 0.65625,-0.660156 1.347656,-1.285156 2.066406,-1.875 0.71875,-0.59375 1.464846,-1.148437 2.238286,-1.664062 0.77734,-0.519531 1.57421,-0.996094 2.39453,-1.4375 0.82031,-0.4375 1.66015,-0.835938 2.51953,-1.195313 0.85937,-0.355468 1.73437,-0.667968 2.625,-0.9375 0.89062,-0.273437 1.79297,-0.5 2.70703,-0.679687 0.91016,-0.183594 1.83203,-0.320313 2.75781,-0.410157 0.92578,-0.08984 1.85547,-0.136718 2.78516,-0.136718 0.92969,0 1.85937,0.04687 2.78515,0.136718 0.92579,0.08984 1.84375,0.226563 2.75782,0.410157 0.91406,0.179687 1.8164,0.40625 2.70703,0.679687 0.89062,0.269532 1.76562,0.582032 2.625,0.9375 0.85937,0.359375 1.69922,0.757813 2.51953,1.195313 0.82031,0.441406 1.61719,0.917969 2.39062,1.4375 0.77735,0.515625 1.52344,1.070312 2.24219,1.664062 0.71875,0.589844 1.40625,1.214844 2.06641,1.875 0.65625,0.660157 1.28125,1.347657 1.87109,2.070313 0.59375,0.71875 1.14453,1.46875 1.66406,2.242187 0.51563,0.777344 0.9961,1.574219 1.4336,2.398438 0.4375,0.820312 0.83593,1.664062 1.1914,2.523437 0.35938,0.863282 0.67188,1.738282 0.94141,2.632813 0.26953,0.890625 0.49609,1.792969 0.67969,2.707031 0.17968,0.914062 0.3164,1.835938 0.41015,2.765625 0.0898,0.925781 0.13672,1.855469 0.13672,2.789063 v 3.429687 h -10.48437 c -0.32032,0 -0.63282,0.03125 -0.94532,0.09375 -0.3125,0.0625 -0.61328,0.152344 -0.90625,0.273437 -0.29687,0.125 -0.57421,0.273438 -0.83984,0.449219 -0.26172,0.175781 -0.50781,0.378907 -0.73047,0.601563 -0.22656,0.226562 -0.42578,0.472656 -0.60156,0.734375 -0.17578,0.265625 -0.32813,0.546875 -0.44922,0.839843 -0.12109,0.292969 -0.21094,0.597657 -0.27344,0.910157 -0.0625,0.3125 -0.0937,0.625 -0.0937,0.945312 0,0.316407 0.0312,0.632813 0.0937,0.945313 0.0625,0.3125 0.15235,0.613281 0.27344,0.910156 0.12109,0.292969 0.27344,0.570312 0.44922,0.835938 0.17578,0.265624 0.375,0.507812 0.60156,0.734374 0.22266,0.226563 0.46875,0.425782 0.73047,0.601563 0.26563,0.179687 0.54297,0.328125 0.83984,0.449219 0.29297,0.121094 0.59375,0.214844 0.90625,0.277344 0.3125,0.0625 0.625,0.09375 0.94532,0.09375 h 10.48437 v 12.925781 h -10.48437 c -0.32032,0 -0.63282,0.03125 -0.94532,0.09375 -0.3125,0.0625 -0.61328,0.15625 -0.90625,0.277343 -0.29687,0.121094 -0.57421,0.269532 -0.83984,0.445313 -0.26172,0.179687 -0.50781,0.378906 -0.73047,0.605469 -0.22656,0.222656 -0.42578,0.46875 -0.60156,0.734375 -0.17578,0.265625 -0.32813,0.542969 -0.44922,0.835937 -0.12109,0.296875 -0.21094,0.597656 -0.27344,0.910156 -0.0625,0.3125 -0.0937,0.628907 -0.0937,0.945313 0,0.320313 0.0312,0.632813 0.0937,0.945313 0.0625,0.3125 0.15235,0.617187 0.27344,0.910156 0.12109,0.292968 0.27344,0.574218 0.44922,0.839844 0.17578,0.261718 0.375,0.507812 0.60156,0.734374 0.22266,0.222657 0.46875,0.425782 0.73047,0.601563 0.26563,0.175781 0.54297,0.324219 0.83984,0.449219 0.29297,0.121094 0.59375,0.210937 0.90625,0.273437 0.3125,0.0625 0.625,0.09375 0.94532,0.09375 h 10.48437 v 12.929688 h -10.48437 c -0.32032,0 -0.63282,0.03125 -0.94532,0.09375 -0.3125,0.0625 -0.61328,0.152343 -0.90625,0.273437 -0.29687,0.121094 -0.57421,0.273438 -0.83984,0.449219 -0.26172,0.175781 -0.50781,0.378906 -0.73047,0.601563 -0.22656,0.226562 -0.42578,0.472652 -0.60156,0.734372 -0.17578,0.26563 -0.32813,0.54688 -0.44922,0.83985 -0.12109,0.29297 -0.21094,0.59765 -0.27344,0.91015 -0.0625,0.3086 -0.0937,0.625 -0.0937,0.94532 0,0.3164 0.0312,0.63281 0.0937,0.94531 0.0625,0.3125 0.15235,0.61328 0.27344,0.90625 0.12109,0.29687 0.27344,0.57422 0.44922,0.83984 0.17578,0.26563 0.375,0.50781 0.60156,0.73438 0.22266,0.22656 0.46875,0.42578 0.73047,0.60156 0.26563,0.17969 0.54297,0.32812 0.83984,0.44922 0.29297,0.12109 0.59375,0.21484 0.90625,0.27734 0.3125,0.0625 0.625,0.0898 0.94532,0.0898 h 10.48437 v 3.42968 c 0,0.9336 -0.0469,1.86328 -0.13672,2.79297 -0.0937,0.92578 -0.23047,1.84766 -0.41015,2.76172 -0.1836,0.91406 -0.41016,1.81641 -0.67969,2.71094 -0.26953,0.89062 -0.58203,1.76953 -0.94141,2.6289 -0.35547,0.86329 -0.7539,1.70313 -1.1914,2.52735 -0.4375,0.82031 -0.91797,1.62109 -1.4336,2.39453 -0.51953,0.77734 -1.07031,1.52344 -1.66406,2.24219 -0.58984,0.72265 -1.21484,1.41406 -1.87109,2.07031 -0.66016,0.66015 -1.34766,1.28515 -2.06641,1.8789 -0.71875,0.58985 -1.46484,1.14454 -2.24219,1.66407 -0.77343,0.51562 -1.57031,0.99609 -2.39062,1.43359 -0.82031,0.44141 -1.66016,0.83984 -2.51953,1.19531 -0.85938,0.35547 -1.73438,0.67188 -2.625,0.94141 -0.89063,0.26953 -1.79297,0.49609 -2.70703,0.67969 -0.91407,0.17968 -1.83203,0.3164 -2.75782,0.40625 -0.92578,0.0937 -1.85546,0.14062 -2.78515,0.14062 -0.92969,0 -1.85938,-0.0469 -2.78516,-0.14062 -0.92578,-0.0898 -1.84765,-0.22657 -2.75781,-0.40625 -0.91406,-0.1836 -1.81641,-0.41016 -2.70703,-0.67969 -0.89063,-0.26953 -1.76563,-0.58594 -2.625,-0.94141 -0.85938,-0.35547 -1.69922,-0.7539 -2.51953,-1.19531 -0.82032,-0.4375 -1.61719,-0.91797 -2.39453,-1.43359 -0.77344,-0.51953 -1.519536,-1.07422 -2.238286,-1.66407 -0.71875,-0.59375 -1.410156,-1.21875 -2.066406,-1.8789 -0.660157,-0.65625 -1.28125,-1.34766 -1.875,-2.07031 -0.589844,-0.71875 -1.144532,-1.46485 -1.660157,-2.24219 -0.515625,-0.77344 -0.996093,-1.57422 -1.433593,-2.39453 -0.4375,-0.82422 -0.835938,-1.66406 -1.191407,-2.52735 -0.359375,-0.85937 -0.671875,-1.73828 -0.941406,-2.6289 -0.269531,-0.89453 -0.496094,-1.79688 -0.679687,-2.71094 -0.179688,-0.91406 -0.316407,-1.83594 -0.410157,-2.76172 -0.08984,-0.92969 -0.136719,-1.85937 -0.136719,-2.79297 z m 0,0"
         fill-opacity="1"
         fill-rule="nonzero"
         id="path8426" /></g><g
       clip-path="url(#f59d18af8e)"
       id="g8432"
       transform="matrix(0.09204192,0,0,0.09204192,0.99999964,2.3020556)"><path
         fill="#2196f3"
         d="m 49.742188,88.96875 c -0.316407,0 -0.632813,0.03125 -0.941407,0.08984 -0.3125,0.0625 -0.617187,0.15625 -0.910156,0.277344 -0.292969,0.121093 -0.570313,0.269531 -0.835937,0.449218 -0.261719,0.175782 -0.507813,0.375 -0.730469,0.601563 -0.226563,0.226562 -0.425781,0.46875 -0.605469,0.734375 -0.175781,0.265625 -0.324219,0.542968 -0.445312,0.839844 -0.121094,0.292968 -0.214844,0.59375 -0.273438,0.90625 -0.0625,0.3125 -0.09375,0.628906 -0.09375,0.945312 v 9.089844 c 0.0039,2.25782 0.109375,4.51172 0.324219,6.76172 0.214843,2.25 0.535156,4.48047 0.957031,6.69922 0.425781,2.21875 0.949219,4.41406 1.578125,6.58203 0.628906,2.17188 1.359375,4.30469 2.1875,6.40625 0.832031,2.10156 1.757813,4.15625 2.777344,6.17188 1.023437,2.01172 2.136719,3.97265 3.34375,5.88281 1.203125,1.91016 2.496093,3.75781 3.875,5.54297 1.378906,1.78906 2.839843,3.50781 4.378906,5.15625 1.539063,1.65234 3.15625,3.22656 4.84375,4.72265 1.6875,1.5 3.441406,2.91407 5.261719,4.2461 1.816406,1.33594 3.695312,2.57812 5.632812,3.73437 1.9375,1.15625 3.925782,2.22266 5.960938,3.19141 2.035156,0.96875 4.113281,1.83984 6.230468,2.61328 2.121094,0.77734 4.269532,1.44922 6.449219,2.01953 2.183599,0.57422 4.386719,1.04297 6.609379,1.40625 2.22656,0.36328 4.46484,0.625 6.71093,0.77735 v 29.26562 H 76.351562 c -0.320312,0 -0.632812,0.0312 -0.945312,0.0937 -0.3125,0.0625 -0.613281,0.15234 -0.90625,0.27344 -0.292969,0.12109 -0.574219,0.27344 -0.835938,0.44922 -0.265624,0.17578 -0.507812,0.3789 -0.734374,0.60156 -0.222657,0.22656 -0.425782,0.46875 -0.601563,0.73437 -0.175781,0.26563 -0.324219,0.54297 -0.445313,0.83985 -0.125,0.29297 -0.214843,0.59765 -0.277343,0.91015 -0.0625,0.3086 -0.09375,0.625 -0.09375,0.94532 0,0.3164 0.03125,0.63281 0.09375,0.94531 0.0625,0.3125 0.152343,0.61328 0.277343,0.90625 0.121094,0.29687 0.269532,0.57422 0.445313,0.83984 0.175781,0.26563 0.378906,0.50782 0.601563,0.73438 0.226562,0.22656 0.46875,0.42578 0.734374,0.60156 0.261719,0.17969 0.542969,0.32813 0.835938,0.44922 0.292969,0.12109 0.59375,0.21484 0.90625,0.27734 0.3125,0.0586 0.625,0.0898 0.945312,0.0898 h 82.675778 c 0.31641,0 0.63282,-0.0312 0.94532,-0.0898 0.3125,-0.0625 0.61328,-0.15625 0.90625,-0.27734 0.29296,-0.12109 0.57421,-0.26953 0.83593,-0.44922 0.26563,-0.17578 0.50782,-0.375 0.73438,-0.60156 0.22265,-0.22656 0.42578,-0.46875 0.60156,-0.73438 0.17578,-0.26562 0.32422,-0.54297 0.44531,-0.83984 0.1211,-0.29297 0.21485,-0.59375 0.27735,-0.90625 0.0625,-0.3125 0.0937,-0.62891 0.0937,-0.94531 0,-0.32032 -0.0312,-0.63672 -0.0937,-0.94532 -0.0625,-0.3125 -0.15625,-0.61718 -0.27735,-0.91015 -0.12109,-0.29688 -0.26953,-0.57422 -0.44531,-0.83985 -0.17578,-0.26562 -0.37891,-0.50781 -0.60156,-0.73437 -0.22656,-0.22266 -0.46875,-0.42578 -0.73438,-0.60156 -0.26172,-0.17578 -0.54297,-0.32813 -0.83593,-0.44922 -0.29297,-0.1211 -0.59375,-0.21094 -0.90625,-0.27344 -0.3125,-0.0625 -0.62891,-0.0937 -0.94532,-0.0937 h -37.32421 v -29.26562 c 2.25,-0.15235 4.48828,-0.41407 6.71484,-0.77735 2.22265,-0.36328 4.42578,-0.83203 6.60937,-1.40625 2.17969,-0.57031 4.32813,-1.24219 6.44922,-2.01953 2.11719,-0.77344 4.19531,-1.64453 6.23047,-2.61328 2.03516,-0.96875 4.02344,-2.03516 5.96094,-3.19141 1.9375,-1.15625 3.8125,-2.39843 5.63281,-3.73437 1.82031,-1.33203 3.57422,-2.7461 5.26172,-4.2461 1.6875,-1.49609 3.30078,-3.07031 4.84375,-4.72265 1.53906,-1.64844 3,-3.36719 4.37891,-5.15625 1.3789,-1.78516 2.66796,-3.63281 3.875,-5.54297 1.20703,-1.91016 2.32031,-3.87109 3.34375,-5.88281 1.01953,-2.01563 1.94531,-4.07032 2.77343,-6.17188 0.83203,-2.10156 1.5586,-4.23437 2.1875,-6.40625 0.63282,-2.16797 1.15625,-4.36328 1.58203,-6.58203 0.42188,-2.21875 0.74219,-4.44922 0.95704,-6.69922 0.21484,-2.25 0.32031,-4.5039 0.32421,-6.76172 V 93.8125 c 0,-0.316406 -0.0312,-0.632812 -0.0937,-0.945312 -0.0625,-0.3125 -0.15234,-0.613282 -0.27343,-0.90625 -0.1211,-0.296876 -0.26953,-0.574219 -0.44922,-0.839844 -0.17578,-0.265625 -0.375,-0.507813 -0.60156,-0.734375 -0.22266,-0.226563 -0.46875,-0.425781 -0.73047,-0.601563 -0.26563,-0.179687 -0.54297,-0.328125 -0.83594,-0.449218 -0.29688,-0.121094 -0.59766,-0.214844 -0.91016,-0.277344 -0.3125,-0.05859 -0.625,-0.08984 -0.9414,-0.08984 -0.32032,0 -0.63282,0.03125 -0.94532,0.08984 -0.3125,0.0625 -0.61328,0.15625 -0.90625,0.277344 -0.29296,0.121093 -0.57421,0.269531 -0.83593,0.449218 -0.26563,0.175782 -0.51172,0.375 -0.73438,0.601563 -0.22656,0.226562 -0.42578,0.46875 -0.60156,0.734375 -0.17578,0.265625 -0.32422,0.542968 -0.44922,0.839844 -0.12109,0.292968 -0.21094,0.59375 -0.27344,0.90625 -0.0625,0.3125 -0.0937,0.628906 -0.0937,0.945312 v 9.08984 c 0,2.04297 -0.10156,4.08204 -0.30078,6.11329 -0.19922,2.03515 -0.5,4.05468 -0.89844,6.05859 -0.39843,2.00391 -0.89453,3.98437 -1.48828,5.9375 -0.58984,1.95703 -1.27734,3.87891 -2.05859,5.76562 -0.78125,1.88672 -1.65234,3.73047 -2.61328,5.53125 -0.96485,1.80469 -2.01172,3.55469 -3.14453,5.25391 -1.13282,1.69922 -2.34766,3.33594 -3.64063,4.91406 -1.29297,1.58203 -2.66406,3.09375 -4.10547,4.53906 -1.4414,1.44141 -2.95312,2.8125 -4.52734,4.10938 -1.57813,1.29687 -3.21484,2.51172 -4.91016,3.64844 -1.69531,1.13281 -3.44531,2.18359 -5.24218,3.14453 -1.80079,0.96484 -3.64063,1.83594 -5.52344,2.61719 -1.88672,0.78125 -3.80469,1.46875 -5.75391,2.0625 -1.95312,0.59375 -3.92969,1.08984 -5.92969,1.48828 -1.99999,0.39843 -4.01562,0.69922 -6.04687,0.89843 -2.02734,0.19922 -4.0625,0.30079 -6.10156,0.30079 -2.03906,0 -4.07422,-0.10157 -6.10547,-0.30079 -2.02734,-0.19921 -4.04297,-0.5 -6.04297,-0.89843 -2,-0.39844 -3.97656,-0.89453 -5.929688,-1.48828 -1.949218,-0.59375 -3.867187,-1.28125 -5.753906,-2.0625 -1.882812,-0.78125 -3.726562,-1.65235 -5.523437,-2.61719 -1.800781,-0.96094 -3.546875,-2.01172 -5.242188,-3.14453 -1.695312,-1.13672 -3.332031,-2.35157 -4.910156,-3.64844 -1.574219,-1.29688 -3.085937,-2.66797 -4.527344,-4.10938 -1.441406,-1.44531 -2.8125,-2.95703 -4.105469,-4.53906 -1.292968,-1.57812 -2.507812,-3.21484 -3.640624,-4.91406 -1.132813,-1.69922 -2.179688,-3.44922 -3.144532,-5.25391 -0.960937,-1.80078 -1.832031,-3.64453 -2.613281,-5.53125 -0.78125,-1.88671 -1.46875,-3.80859 -2.058594,-5.76562 -0.59375,-1.95313 -1.089843,-3.93359 -1.488281,-5.9375 -0.398438,-2.00391 -0.699219,-4.02344 -0.898438,-6.05859 -0.199218,-2.03125 -0.300781,-4.07032 -0.300781,-6.11329 V 93.8125 c 0,-0.316406 -0.03125,-0.632812 -0.09375,-0.945312 -0.0625,-0.3125 -0.152343,-0.613282 -0.277343,-0.90625 C 54.089844,91.664062 53.941406,91.386719 53.765625,91.121094 53.589844,90.855469 53.386719,90.613281 53.164062,90.386719 52.9375,90.160156 52.695312,89.960938 52.429688,89.785156 52.167969,89.605469 51.886719,89.457031 51.59375,89.335938 51.300781,89.214844 51,89.121094 50.6875,89.058594 50.375,89 50.0625,88.96875 49.742188,88.96875 Z m 0,0"
         fill-opacity="1"
         fill-rule="nonzero"
         id="path8430" /></g></g></svg>
