<svg xmlns="http://www.w3.org/2000/svg" xmlns:xlink="http://www.w3.org/1999/xlink" xml:space="preserve" id="svg154" width="24" height="24" fill="none" version="1.1"><defs id="defs152"><linearGradient id="linearGradient483"><stop id="stop479" offset="0" style="stop-color:#13ae51;stop-opacity:1"/><stop id="stop481" offset="1" style="stop-color:#90e868;stop-opacity:1"/></linearGradient><linearGradient xlink:href="#linearGradient483" id="linearGradient485" x1="9.458" x2="10.253" y1="53.74" y2="-3.138" gradientUnits="userSpaceOnUse"/><linearGradient xlink:href="#linearGradient483" id="linearGradient440" x1="9.458" x2="10.253" y1="53.74" y2="-3.138" gradientUnits="userSpaceOnUse"/><radialGradient id="radialGradient66380" cx="0" cy="0" r="1" gradientTransform="matrix(0 22 -22 0 12 1)" gradientUnits="userSpaceOnUse"><stop id="stop66376" offset="0" stop-color="#8FC8FF" style="stop-color:#f2f2f2;stop-opacity:1"/><stop id="stop66378" offset="1" stop-color="#0056A8" style="stop-color:#ccc;stop-opacity:1"/></radialGradient><radialGradient xlink:href="#radialGradient66380" id="radialGradient1161" cx=".179" cy="-1.748" r="1" fx=".179" fy="-1.748" gradientTransform="matrix(0 22.01454 -22.00166 0 -26.468 -2.958)" gradientUnits="userSpaceOnUse"/><style id="current-color-scheme" type="text/css">.ColorScheme-Text{color:#31363b}.ColorScheme-Background{color:#eff0f1}.ColorScheme-Highlight{color:#3daee9}.ColorScheme-ViewText{color:#31363b}.ColorScheme-ViewBackground{color:#fcfcfc}.ColorScheme-ViewHover{color:#93cee9}.ColorScheme-ViewFocus{color:#3daee9}.ColorScheme-ButtonText{color:#31363b}.ColorScheme-ButtonBackground{color:#eff0f1}.ColorScheme-ButtonHover{color:#93cee9}.ColorScheme-ButtonFocus{color:#3daee9}</style></defs><path id="path6" d="M12 1C2 1 1 6 1 12c0 8 3 11 11 11s11-3 11-11c0-6-1-11-11-11Z" style="font-variation-settings:normal;display:inline;opacity:1;vector-effect:none;fill:url(#radialGradient1161);fill-opacity:1;stroke-width:1.11627;stroke-linecap:butt;stroke-linejoin:miter;stroke-miterlimit:4;stroke-dasharray:none;stroke-dashoffset:0;stroke-opacity:1;-inkscape-stroke:none;stop-color:#000;stop-opacity:1"/><g id="g480" transform="translate(.465 -8.153)"><g id="g2267" style="fill:url(#linearGradient485);fill-opacity:1" transform="translate(-.465 8.153)"><path id="path6-3" d="M50 5C9.09 5 5 25.455 5 50c0 32.727 12.273 45 45 45 32.727 0 45-12.273 45-45 0-24.545-4.09-45-45-45Z" style="font-variation-settings:normal;display:inline;opacity:1;vector-effect:none;fill:url(#linearGradient440);fill-opacity:1;stroke-width:4.56656;stroke-linecap:butt;stroke-linejoin:miter;stroke-miterlimit:4;stroke-dasharray:none;stroke-dashoffset:0;stroke-opacity:1;-inkscape-stroke:none;stop-color:#000;stop-opacity:1" transform="matrix(.24444 0 0 .24444 -.222 -.222)"/></g><path id="path11811" d="M9.89 27.903c-.478-.094-1.314-.401-1.96-.72-2.003-.992-3.527-2.856-4.126-5.048-.333-1.22-.285-3.14.11-4.347.876-2.685 2.966-4.637 5.733-5.354 1.091-.283 2.93-.243 4.072.088 2.744.794 4.875 2.963 5.577 5.675.252.97.254 2.912.005 3.878-1.06 4.11-5.179 6.66-9.411 5.828zm5.454-4.112c.066-.105.084-.33.04-.503-.095-.383-1.37-1.036-2.639-1.35-1.59-.396-5.343-.216-5.838.28-.228.227-.22.682.014.876.153.127.381.128 1.25.005 2.292-.324 4.55-.076 5.752.633.556.328 1.235.356 1.421.059zm.779-1.965c.417-.293.32-.971-.189-1.313-.614-.413-2.296-1.075-3.318-1.307-1.91-.433-5.295-.18-5.961.446-.341.32-.357.737-.04 1.054.288.287.326.288 1.503.045.708-.147 1.324-.178 2.544-.131 1.793.069 2.696.282 4.104.967.989.482 1.005.485 1.357.239zm1.19-2.62c.22-.155.265-.282.235-.681-.03-.405-.106-.538-.434-.759-.608-.408-2.213-.992-3.472-1.262-2.218-.477-6.511-.28-7.472.34-.539.35-.457 1.25.135 1.475.2.076.631.039 1.4-.12 2.641-.545 6.223-.138 8.264.938.57.3.983.322 1.344.069z" style="fill:#000;fill-opacity:1;stroke-width:.119094"/></g></svg>