<svg xmlns="http://www.w3.org/2000/svg" xmlns:xlink="http://www.w3.org/1999/xlink" xml:space="preserve" id="svg154" width="24" height="24" fill="none" version="1.1"><defs id="defs152"><linearGradient id="linearGradient12456"><stop id="stop12454" offset="0" style="stop-color:#000;stop-opacity:1"/></linearGradient><linearGradient id="linearGradient10488"><stop id="stop10486" offset="0" style="stop-color:#000;stop-opacity:1"/></linearGradient><linearGradient id="linearGradient10413"><stop id="stop10411" offset="0" style="stop-color:#000;stop-opacity:1"/></linearGradient><linearGradient id="linearGradient5358"><stop id="stop5354" offset="0" style="stop-color:#e6e6e6;stop-opacity:1"/><stop id="stop5356" offset="1" style="stop-color:#fff;stop-opacity:1"/></linearGradient><linearGradient xlink:href="#linearGradient5358" id="linearGradient5360" x1="13.523" x2="13.744" y1="34.648" y2="-9.855" gradientUnits="userSpaceOnUse"/><linearGradient xlink:href="#linearGradient5358" id="linearGradient13399" x1="13.523" x2="13.744" y1="34.648" y2="-9.855" gradientUnits="userSpaceOnUse"/><style id="current-color-scheme" type="text/css">.ColorScheme-Text{color:#31363b}.ColorScheme-Background{color:#eff0f1}.ColorScheme-Highlight{color:#3daee9}.ColorScheme-ViewText{color:#31363b}.ColorScheme-ViewBackground{color:#fcfcfc}.ColorScheme-ViewHover{color:#93cee9}.ColorScheme-ViewFocus{color:#3daee9}.ColorScheme-ButtonText{color:#31363b}.ColorScheme-ButtonBackground{color:#eff0f1}.ColorScheme-ButtonHover{color:#93cee9}.ColorScheme-ButtonFocus{color:#3daee9}</style></defs><g id="g2267" style="fill:url(#linearGradient5360);fill-opacity:1"><path id="path6" d="M50 5C9.09 5 5 25.455 5 50c0 32.727 12.273 45 45 45 32.727 0 45-12.273 45-45 0-24.545-4.09-45-45-45Z" style="font-variation-settings:normal;display:inline;opacity:1;vector-effect:none;fill:url(#linearGradient13399);fill-opacity:1;stroke-width:4.56656;stroke-linecap:butt;stroke-linejoin:miter;stroke-miterlimit:4;stroke-dasharray:none;stroke-dashoffset:0;stroke-opacity:1;-inkscape-stroke:none;stop-color:#000;stop-opacity:1" transform="matrix(.24444 0 0 .24444 -.222 -.222)"/></g><path id="path9273" d="M13.062 3.13v.36a4.69 4.69 0 0 0 4.7 4.7H28.6a4.69 4.69 0 0 0 4.699-4.7v-.36a4.688 4.688 0 0 1-4.7 4.697H17.763a4.689 4.689 0 0 1-4.7-4.698Z" opacity=".1" style="stroke-width:.361355"/><g id="g13253" transform="translate(-53.046 52.187) scale(3.6313)"><path id="path13198" fill="#34a853" d="M17.25-10.048a4.272 4.272 0 0 1 .334.491c.085.162.12.27.183.465.038.107.072.14.146.14.08 0 .117-.055.146-.14.058-.183.104-.323.177-.455a5.19 5.19 0 0 1 .494-.7c.047-.062.352-.421.489-.705 0 0 .168-.311.168-.746 0-.407-.166-.69-.166-.69l-.479.129-.29.765-.072.106-.015.02-.019.023-.033.038-.048.048-.26.211-.646.374z" style="stroke-width:.0831422"/><path id="path13200" fill="#fbbc04" d="M16.583-11.004c.158.36.462.678.669.956l1.094-1.296s-.154.201-.434.201a.56.56 0 0 1-.563-.562c0-.216.13-.363.13-.363l-.744.199z" style="stroke-width:.0831422"/><path id="path13202" fill="#4285f4" d="M18.358-13.114c.364.117.675.363.864.726l-.875 1.043s.13-.15.13-.365a.566.566 0 0 0-.563-.56c-.277 0-.435.2-.435.2v-.656z" style="stroke-width:.0831422"/><path id="path13204" fill="#1a73e8" d="M16.783-12.653c.218-.26.6-.528 1.126-.528.256 0 .449.067.449.067l-.88 1.045h-.623z" style="stroke-width:.0831422"/><path id="path13206" fill="#ea4335" d="M16.583-11.004s-.146-.285-.146-.697c0-.39.152-.73.346-.952l.695.585z" style="stroke-width:.0831422"/></g></svg>