<svg xmlns="http://www.w3.org/2000/svg" xmlns:xlink="http://www.w3.org/1999/xlink" xml:space="preserve" id="svg154" width="24" height="24" fill="none" version="1.1"><defs id="defs152"><linearGradient id="linearGradient12456"><stop id="stop12454" offset="0" style="stop-color:#000;stop-opacity:1"/></linearGradient><linearGradient id="linearGradient10488"><stop id="stop10486" offset="0" style="stop-color:#000;stop-opacity:1"/></linearGradient><linearGradient id="linearGradient10413"><stop id="stop10411" offset="0" style="stop-color:#000;stop-opacity:1"/></linearGradient><linearGradient id="linearGradient5358"><stop id="stop5354" offset="0" style="stop-color:#e6e6e6;stop-opacity:1"/><stop id="stop5356" offset="1" style="stop-color:#fff;stop-opacity:1"/></linearGradient><linearGradient xlink:href="#linearGradient5358" id="linearGradient5360" x1="13.523" x2="13.744" y1="34.648" y2="-9.855" gradientUnits="userSpaceOnUse"/><linearGradient xlink:href="#linearGradient5358" id="linearGradient13399" x1="13.523" x2="13.744" y1="34.648" y2="-9.855" gradientUnits="userSpaceOnUse"/><style id="current-color-scheme" type="text/css">.ColorScheme-Text{color:#31363b}.ColorScheme-Background{color:#eff0f1}.ColorScheme-Highlight{color:#3daee9}.ColorScheme-ViewText{color:#31363b}.ColorScheme-ViewBackground{color:#fcfcfc}.ColorScheme-ViewHover{color:#93cee9}.ColorScheme-ViewFocus{color:#3daee9}.ColorScheme-ButtonText{color:#31363b}.ColorScheme-ButtonBackground{color:#eff0f1}.ColorScheme-ButtonHover{color:#93cee9}.ColorScheme-ButtonFocus{color:#3daee9}</style></defs><g id="g2267" style="fill:url(#linearGradient5360);fill-opacity:1"><path id="path6" d="M50 5C9.09 5 5 25.455 5 50c0 32.727 12.273 45 45 45 32.727 0 45-12.273 45-45 0-24.545-4.09-45-45-45Z" style="font-variation-settings:normal;display:inline;opacity:1;vector-effect:none;fill:url(#linearGradient13399);fill-opacity:1;stroke-width:4.56656;stroke-linecap:butt;stroke-linejoin:miter;stroke-miterlimit:4;stroke-dasharray:none;stroke-dashoffset:0;stroke-opacity:1;-inkscape-stroke:none;stop-color:#000;stop-opacity:1" transform="matrix(.24444 0 0 .24444 -.222 -.222)"/></g><g id="g3445" transform="matrix(.64532 0 0 .64532 18.26 3.797)"><path id="path3451" d="M-19.613 22.141a1.513 1.513 0 0 1-.953-.838l-.112-.238V4.35l.121-.23c.176-.334.427-.584.748-.745l.283-.143H.162l.258.136c.305.159.63.49.764.777l.095.205v16.716l-.14.285a1.475 1.475 0 0 1-.736.717l-.241.114-9.797.008c-8.017.006-9.83-.002-9.978-.049zm18.897-9.37c.014-4.143.009-7.466-.012-7.508-.035-.071-.505-.075-8.971-.075-8.79 0-8.936 0-8.98.083-.061.116-.061 14.757 0 14.873.045.082.182.083 8.992.072l8.947-.01z" style="fill:#f2b509;stroke-width:.0429688"/><path id="path3449" d="M-18.678 20.144c-.062-.116-.062-14.757 0-14.873.043-.082.19-.083 8.981-.083H-.76l.044.096c.03.066.032 1.054.006 3.062l-.038 2.965-.007-3.016C-.76 6.167-.775 5.27-.809 5.25c-.026-.016-4.047-.015-8.937.003l-8.89.032V20.14h10.87v-.422c0-.27.02-.448.054-.494.05-.068.226-.073 2.288-.062l2.234.01.022.474.021.472h1.214c.79 0 1.21.015 1.2.043-.01.027-.477.047-1.257.055l-1.243.011v-.968H-7.658l-.012.483-.013.484h-5.475c-5.37 0-5.477-.002-5.52-.083zm5.434-3.913c-.048-.02-.73-.039-1.515-.04l-1.429-.003v-.496c0-.586.045-.706.385-1.024.253-.236.77-.494 1.227-.61.374-.096 1.206-.108 1.636-.024l.304.06.263-.18c.552-.377 1.392-.654 2.226-.733 1.061-.1 2.307.187 3.093.714l.293.197.325-.059c.476-.085 1.238-.065 1.651.045.703.186 1.294.57 1.486.967.079.162.09.251.079.654l-.013.467-1.482.033c-2.268.05-8.432.074-8.53.032zm7.042-.111c.042-.109.03-.844-.017-1.097-.136-.728-1.147-1.417-2.484-1.692-1.234-.255-2.646.001-3.652.662-.659.433-.817.702-.855 1.462-.014.278-.012.556.003.619l.029.114h3.475c3.13 0 3.478-.007 3.501-.068zm-7.838-2.963a1.146 1.146 0 0 1-.772-1.046c0-.357.08-.56.32-.807.22-.225.517-.359.797-.359.394 0 .842.294 1.015.664.283.609-.05 1.36-.688 1.55a.995.995 0 0 1-.672-.002zm8.128.018a1.127 1.127 0 0 1-.908-1.089c0-.822.864-1.358 1.606-.995.432.212.66.62.616 1.106a1.106 1.106 0 0 1-1.314.978zm-4.082-.942a1.578 1.578 0 0 1-1.09-.849c-.128-.26-.14-.323-.14-.674 0-.33.016-.424.114-.632.31-.661.998-1.029 1.68-.896 1.33.26 1.73 1.949.654 2.761-.342.259-.82.373-1.218.29zm.92-.195c.3-.141.535-.37.694-.672.108-.205.12-.27.12-.657 0-.408-.007-.443-.147-.702a1.479 1.479 0 0 0-.716-.661c-.3-.138-.853-.138-1.153 0-.322.148-.552.36-.715.661-.14.259-.148.294-.148.702 0 .37.014.456.103.622.154.289.255.41.466.563a1.479 1.479 0 0 0 1.496.144z" style="fill:#5cbc8d;stroke-width:.0429688"/><path id="path3447" d="M-18.637 12.713V5.285l8.898-.032c5.013-.018 8.915-.016 8.935.005.02.02.043 3.372.05 7.45l.014 7.411h-2.407l-.021-.472-.022-.473-2.234-.011c-2.062-.01-2.238-.006-2.288.062-.034.046-.054.225-.054.494v.422H-18.637zm13.922 3.486 1.482-.033.013-.467c.01-.403 0-.492-.079-.654-.192-.396-.783-.781-1.486-.967-.413-.11-1.175-.13-1.651-.045l-.325.059-.293-.197c-.786-.527-2.032-.814-3.093-.714-.834.08-1.674.356-2.226.732l-.263.18-.304-.06c-.43-.083-1.262-.07-1.636.025-.456.116-.974.374-1.227.61-.34.318-.385.438-.385 1.024v.496l1.43.003c.785.001 1.466.02 1.514.04.097.042 6.26.019 8.529-.032zm-8.653-3.04c.277-.082.54-.31.679-.59a1.128 1.128 0 0 0-.68-1.56c-.27-.08-.384-.08-.673.005-.29.085-.637.418-.718.688-.137.46-.005.94.338 1.235a1.07 1.07 0 0 0 1.054.222zm8.037-.028c.388-.118.694-.507.733-.934a1.075 1.075 0 0 0-.616-1.106c-.89-.435-1.871.425-1.544 1.354.208.589.802.875 1.427.686zm-3.853-.963c.263-.086.594-.344.763-.595.297-.442.347-1.021.128-1.499-.56-1.222-2.243-1.22-2.817.004-.098.208-.115.302-.115.632 0 .351.013.414.141.674.353.717 1.128 1.036 1.9.784z" style="fill:#19a05e;stroke-width:.0429688"/></g></svg>