<svg xmlns="http://www.w3.org/2000/svg" xmlns:xlink="http://www.w3.org/1999/xlink" xml:space="preserve" width="24" height="24" fill="none"><defs><linearGradient id="a"><stop offset="0" style="stop-color:#222e3d;stop-opacity:1"/><stop offset="1" style="stop-color:#00a9e0;stop-opacity:1"/></linearGradient><linearGradient xlink:href="#a" id="b" x1="50.808" x2="48.82" y1="132.166" y2="-21.509" gradientTransform="translate(-.222 -.222) scale(.24444)" gradientUnits="userSpaceOnUse"/></defs><path d="M12 1C2 1 1 6 1 12c0 8 3 11 11 11s11-3 11-11c0-6-1-11-11-11Z" style="font-variation-settings:normal;display:inline;opacity:1;vector-effect:none;fill:url(#b);fill-opacity:1;stroke-width:1.11627;stroke-linecap:butt;stroke-linejoin:miter;stroke-miterlimit:4;stroke-dasharray:none;stroke-dashoffset:0;stroke-opacity:1;-inkscape-stroke:none;stop-color:#000;stop-opacity:1"/><g style="fill:#fff"><path d="m11.72 23.046-.265-.006.138-.004.137-.004-.23-.007a15.261 15.261 0 0 1-7.623-2.337 15.89 15.89 0 0 1-2.512-1.948c-.162-.152-.217-.21-.237-.25-.048-.096-.029-.199.047-.249l.038-.025.065.004.065.004.07.041.27.162c.91.55 1.887 1.037 2.913 1.45 1.796.721 3.74 1.2 5.657 1.39 1.8.18 3.492.125 5.25-.172a20.483 20.483 0 0 0 4.991-1.513l.169-.075h.193l.051.027a.306.306 0 0 1 .117.455c-.043.067-.102.118-.33.29a12.767 12.767 0 0 1-2.72 1.54 15.905 15.905 0 0 1-5.536 1.208l-.117.003.122.006.122.006-.224.002c-.123.001-.254.003-.29.005-.036.002-.185 0-.331-.003zm9.518-.787c-.04-.02-.063-.075-.056-.128.004-.025.046-.151.094-.28.422-1.146.617-1.865.631-2.33l.006-.18-.018-.08c-.034-.155-.097-.231-.243-.3-.367-.17-1.154-.171-2.466-.004a2.049 2.049 0 0 1-.249.022c-.128-.014-.145-.132-.036-.25.03-.032.101-.09.159-.13.429-.294.963-.492 1.577-.583.276-.041.374-.047.754-.047h.371l.153.018c.313.037.612.111.768.19.123.062.17.125.197.27.02.104.016.493-.005.668-.123.994-.503 1.974-1.032 2.658-.111.144-.4.438-.459.467-.056.028-.114.036-.146.02zM1.105 9.042c-.042-.02-.074-.061-.075-.1v-.018l-.009.02c-.005.015-.01.005-.014-.036-.01-.074-.009-5.692 0-5.775.005-.05.009-.06.014-.04l.008.026v-.027c.002-.034.034-.076.076-.098l.032-.017.321-.004c.342-.004.455.004.499.036a.258.258 0 0 1 .085.138l.04.14c.016.059.028.087.04.09.01 0 .048-.026.086-.06a1.96 1.96 0 0 1 1.77-.402c.449.13.79.434 1.014.903.179.374.254.793.242 1.347-.01.422-.065.73-.19 1.045-.247.622-.69 1.027-1.256 1.152a2.466 2.466 0 0 1-.573.02 1.784 1.784 0 0 1-.903-.355c-.035-.027-.065-.043-.074-.04l-.015.006-.003.98-.003.982-.015.03a.177.177 0 0 1-.044.05l-.029.021-.49.003-.491.003zm2.176-2.561a.94.94 0 0 0 .284-.1.997.997 0 0 0 .255-.255c.085-.146.15-.349.18-.572.022-.163.03-.51.016-.697-.034-.44-.134-.718-.32-.895a.645.645 0 0 0-.277-.165c-.297-.1-.729-.052-1.066.116a.943.943 0 0 0-.113.064l-.018.016v1.126c0 .62.004 1.132.008 1.138.01.017.145.088.236.126.097.04.238.078.353.096.117.018.365.019.462.002zm17.865.945a3.377 3.377 0 0 1-.438-.055c-.707-.141-1.199-.568-1.42-1.233-.186-.559-.181-1.344.01-1.925.226-.68.744-1.157 1.417-1.303.33-.071.735-.08 1.064-.025.476.082.857.338 1.051.706.075.142.137.36.141.498l.001.048.007-.046.007-.046.004.097c.005.102-.004.318-.01.234l-.003-.045-.009.078c-.054.471-.345.8-.86.97-.265.088-.586.13-.992.131a3.2 3.2 0 0 1-.747-.066c-.077-.015-.113-.018-.12-.01-.025.023.034.328.092.477a.92.92 0 0 0 .35.44c.215.127.447.177.817.178.33 0 .561-.032.982-.135a2.06 2.06 0 0 1 .191-.042c.04 0 .08.027.099.065l.016.035v.277c0 .315-.005.352-.058.398-.114.1-.644.244-1.047.284a6.49 6.49 0 0 1-.545.015zm.179-2.658c.397-.059.568-.238.552-.58-.01-.216-.093-.358-.26-.442-.17-.086-.46-.104-.685-.041-.281.078-.487.293-.595.622a1.86 1.86 0 0 0-.077.355v.03l.038.01c.053.014.233.04.35.05.17.016.564.013.677-.004zM6.21 7.285c-.048-.021-.076-.058-.087-.117-.014-.075-.014-3.99 0-4.065.011-.059.029-.084.077-.11l.03-.017h.372c.414 0 .424.001.481.065.038.042.043.056.121.383l.045.183.018.004c.012.002.056-.035.132-.113.31-.314.571-.472.886-.539l.104-.022h.184l.183-.002.039.02a.15.15 0 0 1 .056.05l.017.032v.886l-.015.03a.177.177 0 0 1-.044.05l-.03.022h-.716l-.147.028a5.768 5.768 0 0 0-.25.053c-.1.024-.326.1-.34.113-.003.003-.008.674-.011 1.49L7.31 7.193l-.016.03a.177.177 0 0 1-.044.05l-.028.021-.491.003-.49.002zM9.6 7.28a.137.137 0 0 1-.062-.054l-.018-.033V3.078l.02-.033a.16.16 0 0 1 .056-.051l.036-.018h.968l.037.017c.022.01.045.031.056.05l.019.035v4.115l-.018.033a.167.167 0 0 1-.046.05l-.027.018-.49.003-.489.002zm2.298.002c-.054-.028-.079-.073-.086-.158-.004-.04-.005-.965-.004-2.055l.004-1.981.02-.035a.187.187 0 0 1 .056-.056l.036-.021h.371c.41 0 .421.001.478.06l.034.035.047.156c.035.114.052.157.065.16a.203.203 0 0 0 .076-.037c.1-.067.282-.172.41-.237.239-.119.454-.192.698-.235l.133-.024h.458l.09.018c.323.066.536.198.706.437.031.044.062.08.069.08a.76.76 0 0 0 .115-.066 2.91 2.91 0 0 1 1.128-.45c.086-.015.168-.019.352-.019h.239l.104.023c.47.102.766.399.863.863.035.168.037.314.034 1.894l-.003 1.559-.018.033a.167.167 0 0 1-.045.05l-.028.018-.487.003-.487.003-.045-.02a.131.131 0 0 1-.063-.053l-.019-.034-.005-1.498-.005-1.497-.018-.061c-.044-.152-.127-.263-.233-.314a.626.626 0 0 0-.312-.058c-.261 0-.527.058-.807.176a1.418 1.418 0 0 0-.102.045c-.002.003-.007.725-.01 1.606l-.005 1.6-.018.034a.167.167 0 0 1-.045.05l-.028.018-.484.003-.484.003-.043-.016a.13.13 0 0 1-.066-.054l-.023-.037-.006-1.503-.005-1.502-.019-.06c-.044-.147-.124-.253-.23-.304a.625.625 0 0 0-.314-.059c-.214 0-.424.038-.65.116a2.092 2.092 0 0 0-.269.115c-.002.003-.007.726-.01 1.606l-.005 1.602-.018.027a.189.189 0 0 1-.045.045l-.028.018-.489.003-.49.003zm-1.92-5.035c-.367-.058-.572-.31-.552-.682a.563.563 0 0 1 .17-.407c.1-.1.275-.18.402-.185l.041-.001L10 .965 9.958.958l.08-.004c.043-.003.111-.003.152 0l.073.004-.035.007-.036.007.037.001c.064.003.191.04.265.08a.649.649 0 0 1 .23.217.82.82 0 0 1 .055.132l.024.077v.137l-.002.138-.027.082a.594.594 0 0 1-.432.392c-.09.023-.276.033-.363.02zm10.527 13.969a3.25 3.25 0 0 0-.138-.015c-.321-.035-.694-.162-.923-.316a2.001 2.001 0 0 1-.722-.855c-.232-.518-.296-1.274-.161-1.93.134-.654.506-1.172 1.037-1.445.223-.114.43-.18.705-.222l.146-.022h.254a3.54 3.54 0 0 1 .362.012c.537.066.964.27 1.284.61.313.335.497.75.576 1.306l.019.128v.692l-.024.158c-.074.485-.228.862-.476 1.168-.325.4-.774.638-1.354.716a6.16 6.16 0 0 1-.585.015zm.473-.981c.34-.09.55-.346.647-.792a3.56 3.56 0 0 0 .02-1.153c-.089-.52-.296-.799-.667-.9l-.081-.021-.163-.001-.163-.001-.082.019c-.4.093-.623.407-.704.994a5.25 5.25 0 0 0-.005.815c.081.657.319.981.776 1.059.094.016.33.005.422-.02zm-10.827.945c-.72-.046-1.29-.516-1.559-1.285-.208-.598-.218-1.447-.023-2.08.172-.56.527-1.012.967-1.233a1.83 1.83 0 0 1 1.03-.163c.318.037.59.137.846.309.06.04.119.073.13.073h.02l.002-1.097.003-1.098.022-.04a.18.18 0 0 1 .056-.061l.034-.02.504-.004.505-.002.045.023a.14.14 0 0 1 .064.059l.018.035v3.18c0 2.222-.003 3.188-.011 3.208a.152.152 0 0 1-.115.096 4.2 4.2 0 0 1-.455.008l-.402-.004-.043-.023c-.059-.031-.087-.083-.127-.238l-.034-.13h-.023a.393.393 0 0 0-.117.075 1.857 1.857 0 0 1-1.006.408 1.928 1.928 0 0 1-.33.004zm.794-.951c.185-.028.353-.087.523-.182l.094-.053V12.57l-.12-.057a1.668 1.668 0 0 0-.635-.162c-.244-.02-.408.006-.575.088-.28.137-.445.437-.51.927a4.94 4.94 0 0 0 0 .86c.074.528.268.835.609.959.045.016.12.036.165.044a1.8 1.8 0 0 0 .45 0zm4.854.935a2.61 2.61 0 0 1-.662-.125 1.978 1.978 0 0 1-.485-.236 2.093 2.093 0 0 1-.444-.437 2.351 2.351 0 0 1-.237-.453c-.206-.549-.222-1.377-.04-1.978.15-.496.424-.88.814-1.14.265-.176.575-.284.947-.331a4.11 4.11 0 0 1 .647 0c.67.087 1.122.407 1.307.926.094.26.102.632.02.892-.145.463-.567.76-1.23.866a3.33 3.33 0 0 1-.632.041c-.331 0-.497-.014-.718-.06-.129-.028-.159-.03-.168-.016-.01.015.023.231.05.34.084.329.238.532.5.659.23.111.546.156.937.132.28-.017.473-.049.83-.137.179-.044.222-.046.258-.01a.172.172 0 0 1 .037.064c.006.02.01.156.01.303v.265l-.015.053-.016.053-.046.034c-.121.088-.564.216-.915.266a4.2 4.2 0 0 1-.749.03zm.143-2.723c.358-.033.55-.141.629-.355l.025-.067.005-.118c.013-.322-.122-.515-.413-.588a1.105 1.105 0 0 0-.257-.017h-.188l-.089.022a.795.795 0 0 0-.4.228c-.105.11-.18.24-.237.411-.054.162-.097.404-.074.418.028.017.344.058.545.07.129.007.347.005.454-.004zM2.84 16.079c-.085-.021-.145-.074-.187-.167a870.63 870.63 0 0 1-1.564-4.103c-.047-.132-.05-.19-.015-.226.045-.045.078-.048.61-.044l.502.003.043.019a.27.27 0 0 1 .12.122c.01.017.226.758.482 1.646l.465 1.615.025.002.026.003.468-1.596c.258-.878.479-1.622.491-1.652a.238.238 0 0 1 .125-.138l.046-.021.49-.003.488-.003.045.013c.086.025.104.088.061.212-.043.128-1.569 4.127-1.588 4.166a.33.33 0 0 1-.126.135l-.042.022-.463.002a7.704 7.704 0 0 1-.502-.007zm3.542-.005a.163.163 0 0 1-.106-.127 223.57 223.57 0 0 1-.002-4.266.165.165 0 0 1 .083-.119l.035-.02H7.4l.04.02a.115.115 0 0 1 .059.062l.019.043-.003 2.16-.003 2.159-.021.029a.226.226 0 0 1-.056.049l-.035.02-.489.003-.488.002zm.407-5.302a.685.685 0 0 1-.443-.21.622.622 0 0 1-.173-.46c0-.183.056-.339.164-.454a.675.675 0 0 1 .375-.205 1.12 1.12 0 0 1 .434.016c.313.099.49.356.47.682a.622.622 0 0 1-.157.408c-.156.172-.394.251-.67.223z" style="fill:#fff;stroke-width:.0101852" transform="translate(4.32 4.318) scale(.63995)"/></g></svg>