<svg xmlns="http://www.w3.org/2000/svg" xmlns:xlink="http://www.w3.org/1999/xlink" xml:space="preserve" width="24" height="24" fill="none"><defs><radialGradient xlink:href="#a" id="d" cx="-8.25" cy="18.729" r="4.853" fx="-8.25" fy="18.729" gradientTransform="matrix(4.31583 -3.50238 1.70743 2.10405 6.622 -48.19)" gradientUnits="userSpaceOnUse"/><radialGradient xlink:href="#b" id="c" cx="1627.053" cy="98.894" r="45" fx="1627.053" fy="98.894" gradientTransform="matrix(-.00625 -.83611 .24444 -.00182 -1.723 1393.672)" gradientUnits="userSpaceOnUse"/><linearGradient id="b"><stop offset="0" style="stop-color:#ececec;stop-opacity:1"/><stop offset="1" style="stop-color:#e6e6e6;stop-opacity:1"/></linearGradient><linearGradient id="a"><stop offset="0" style="stop-color:red;stop-opacity:1"/><stop offset="1" style="stop-color:#fc0;stop-opacity:1"/></linearGradient></defs><path d="M12 1C2 1 1 6 1 12c0 8 3 11 11 11s11-3 11-11c0-6-1-11-11-11Z" style="font-variation-settings:normal;display:inline;opacity:1;vector-effect:none;fill:url(#c);fill-opacity:1;stroke-width:1.11627;stroke-linecap:butt;stroke-linejoin:miter;stroke-miterlimit:4;stroke-dasharray:none;stroke-dashoffset:0;stroke-opacity:1;-inkscape-stroke:none;stop-color:#000;stop-opacity:1"/><path d="M6.381 13.234v2.477l2.16-1.564.787-.678.038-1.124-1.969 1.397v-1.46H5.81V7.836h7.175v4.446h-1.333v.952c.528 0 1.644.21 2.082-.11.306-.225.268-.635.268-.97V9.869c0-.755.398-2.94-.699-2.983-2.025-.078-4.07-.001-6.096-.001-.521 0-1.735-.223-2.134.154-.335.316-.216.956-.216 1.37v3.302c0 .389-.113 1 .16 1.32.29.337.966.204 1.364.204m11.177-4.953-1.969 1.484-.887.744-.065 1.201 1.968-1.46v1.46h1.588v4.445h-7.176V11.71h1.333v-.953c-.527 0-1.644-.21-2.082.111-.305.225-.267.635-.267.969v2.286c0 .76-.401 2.95.698 2.984 1.986.062 3.983 0 5.97 0 .551 0 1.752.225 2.209-.11.387-.284.267-.935.267-1.35v-3.365c0-.4.108-.99-.168-1.32-.285-.338-.96-.205-1.356-.205 0-.709.21-1.824-.063-2.476z" style="fill:url(#d);fill-opacity:1;stroke:none;stroke-width:.0635019"/></svg>