<svg xmlns="http://www.w3.org/2000/svg" xml:space="preserve" width="24" height="24" viewBox="0 0 6.35 6.35"><defs><radialGradient id="a" cx="0" cy="0" r="1" fx="0" fy="0" gradientTransform="matrix(0 16.5 -16.5 0 9 .75)" gradientUnits="userSpaceOnUse" spreadMethod="pad"><stop offset="0" style="stop-opacity:1;stop-color:#fafafa"/><stop offset="1" style="stop-opacity:1;stop-color:silver"/></radialGradient></defs><path d="M7.195.836c.09 0 .176-.012.258-.035a23.86 23.86 0 0 1 3.231.008 10.26 10.26 0 0 1 2.836.636c1.519.625 2.558 1.711 3.121 3.254.316.93.507 1.887.566 2.867a21.227 21.227 0 0 1-.086 3.696 8.976 8.976 0 0 1-.672 2.488c-.637 1.383-1.672 2.336-3.101 2.859a11.693 11.693 0 0 1-3.575.618 15.998 15.998 0 0 1-4.089-.309c-2.481-.551-4.016-2.066-4.594-4.543a14.244 14.244 0 0 1-.336-3.383c-.027-1.211.101-2.41.387-3.59.609-2.312 2.078-3.746 4.406-4.3A10.27 10.27 0 0 1 7.195.836Z" style="fill:url(#a);fill-rule:evenodd;stroke:none" transform="scale(.35277)"/><path fill="#4285f4" d="M1.461 4.664h.632V3.13l-.902-.676v1.939c0 .15.12.27.27.27"/><path fill="#34a853" d="M4.257 4.664h.632a.27.27 0 0 0 .27-.271v-1.94l-.902.677"/><path fill="#fbbc04" d="M4.257 1.958V3.13l.902-.676v-.361a.406.406 0 0 0-.65-.325"/><path fill="#ea4335" d="M2.093 3.13V1.958l1.082.811 1.082-.811V3.13l-1.082.812"/><path fill="#c5221f" d="M1.19 2.093v.36l.903.677V1.958l-.253-.19a.406.406 0 0 0-.65.325"/></svg>