<svg width="153.65" height="153.65" version="1.1" xmlns="http://www.w3.org/2000/svg"><defs><linearGradient id="a" x1="12" x2="12" y2="12" gradientTransform="matrix(5.8945 0 0 5.8945 6.0909 6.091)" gradientUnits="userSpaceOnUse"><stop stop-color="#00A4DC" offset="0"/><stop stop-color="#069" offset="1"/></linearGradient><style>.cls-3{fill:#ffc328}.cls-5{fill:#3c3}.cls-6{fill:#fff}</style></defs><path d="m61.367 6.8221a7.5748 7.5748 0 0 0 2.2097-0.29463 203.37 203.37 0 0 1 27.696 0.073659 87.016 87.016 0 0 1 24.307 5.448c13.026 5.3623 21.938 14.664 26.738 27.904a91.726 91.726 0 0 1 4.8614 24.59 179.64 179.64 0 0 1-0.73659 31.659 76.405 76.405 0 0 1-5.7453 21.351c-5.4691 11.848-14.332 20.019-26.591 24.516a100.48 100.48 0 0 1-30.642 5.3016 137.77 137.77 0 0 1-35.061-2.6517c-21.295-4.7427-34.431-17.725-39.407-38.947a122.47 122.47 0 0 1-2.8736-29.007 118.9 118.9 0 0 1 3.3146-30.774c5.2168-19.843 17.812-32.139 37.787-36.886a89.724 89.724 0 0 1 14.142-2.2834z" clip-rule="evenodd" fill="url(#a)" fill-rule="evenodd" stroke-width="5.8945"/><g transform="matrix(.92073 0 0 .92073 4.7411 6.0901)" stroke-width=".87791"><path d="m128.18 54.761h-22.37a3.915 3.915 0 0 1-3.888-3.915v-22.492a3.907 3.907 0 0 1 3.889-3.907h22.369a3.907 3.907 0 0 1 3.907 3.907v22.448a3.915 3.915 0 0 1-3.907 3.96zm-38.733 0h-22.326a3.924 3.924 0 0 1-3.898-3.915v-22.492a3.915 3.915 0 0 1 3.898-3.907h22.36a3.907 3.907 0 0 1 3.899 3.907v22.448a3.915 3.915 0 0 1-3.933 3.96zm-43.906 2.634-21.27-6.821a3.968 3.968 0 0 1-2.528-4.934l6.813-21.35a3.95 3.95 0 0 1 4.907-2.547l21.272 6.848a3.977 3.977 0 0 1 2.537 4.925l-6.83 21.36a3.898 3.898 0 0 1-4.899 2.52z" fill="#cc5e55"/><path class="cls-3" d="m128.18 93.39h-22.37a3.907 3.907 0 0 1-3.888-3.916v-22.422a3.915 3.915 0 0 1 3.889-3.915h22.369a3.915 3.915 0 0 1 3.907 3.915v22.475a3.898 3.898 0 0 1-3.907 3.863z" fill="#ffc328"/><path class="cls-5" d="m50.686 93.39h-22.36a3.907 3.907 0 0 1-3.899-3.916v-22.422a3.915 3.915 0 0 1 3.898-3.915h22.36a3.924 3.924 0 0 1 3.899 3.915v22.475a3.907 3.907 0 0 1-3.898 3.863z" fill="#3c3"/><path class="cls-3" d="m128.18 132.08h-22.37a3.907 3.907 0 0 1-3.888-3.907v-22.492a3.907 3.907 0 0 1 3.889-3.906h22.369a3.907 3.907 0 0 1 3.907 3.906v22.457a3.907 3.907 0 0 1-3.907 3.942zm-38.733 0h-22.326a3.915 3.915 0 0 1-3.898-3.907v-22.492a3.915 3.915 0 0 1 3.898-3.871h22.36a3.907 3.907 0 0 1 3.899 3.906v22.457a3.907 3.907 0 0 1-3.933 3.907z" fill="#ffc328"/><path class="cls-5" d="m50.686 132.08h-22.36a3.907 3.907 0 0 1-3.899-3.907v-22.492a3.907 3.907 0 0 1 3.898-3.906h22.36a3.915 3.915 0 0 1 3.899 3.906v22.457a3.915 3.915 0 0 1-3.898 3.942z" fill="#3c3"/></g><g transform="matrix(1.0421 0 0 1.0421 -5.0177 -4.6217)" fill="#fff" stroke-width=".87791"><path class="cls-6" d="m84.837 67.57a8.086 8.086 0 0 1 4.231-2.397c0.553 0 1.08-0.061 1.607-0.087a5.197 5.197 0 0 1 1.755 0.465 7.225 7.225 0 0 1 2.292 2.08 9.85 9.85 0 0 1 1.756 4.092 12.677 12.677 0 0 1 0 1.536 7.374 7.374 0 0 1-0.773-1.36 6.382 6.382 0 0 0-1.317-1.581 4.126 4.126 0 0 0-2.686-1.168 3.608 3.608 0 0 0-1.185 0.158 5.785 5.785 0 0 0-2.81 1.756c-0.246 0.281-0.526 0.57-0.746 0.878a7.1 7.1 0 0 0-0.667 1.15 8.902 8.902 0 0 0-1.01 3.758c0 0.526 0 1.01 0.088 1.536 0.158 0.351 0.07 0.808 0.439 1.01a1.238 1.238 0 0 0 0.746-0.202 10.93 10.93 0 0 0 1.633-1.537c0.588-0.483 1.01-1.14 1.58-1.676 0.325-0.238 0.527-0.571 0.834-0.808a11.738 11.738 0 0 1 1.888-1.536 3.108 3.108 0 0 1 1.756-0.466 2.757 2.757 0 0 1 1.843 1.098 8.516 8.516 0 0 1 1.317 2.967c0.132 0.553 0.07 1.097 0.158 1.668a19.577 19.577 0 0 1-0.992 5.522 7.497 7.497 0 0 1-0.878 1.756c-0.131 0.158-0.202 0.351-0.377 0.395a7.726 7.726 0 0 1 0.202-1.071 4.67 4.67 0 0 0 0-1.212 13.3 13.3 0 0 0 0-1.87c-0.15-0.614-0.176-1.273-0.369-1.887a5.434 5.434 0 0 0-0.483-1.273c-0.158-0.246-0.246-0.527-0.491-0.685a1.457 1.457 0 0 0-0.878-0.369 4.504 4.504 0 0 0-0.72 0.22 6.031 6.031 0 0 0-1.431 1.317 7.559 7.559 0 0 1-1.212 1.036 3.16 3.16 0 0 1-2.238 0.632 7.497 7.497 0 0 1-3.056-1.071 6.356 6.356 0 0 1-1.202-0.975 5.9 5.9 0 0 1-1.633-3.406 2.713 2.713 0 0 1-0.062-1.185 10.078 10.078 0 0 1 1.168-4.504 14.047 14.047 0 0 1 1.229-1.844 1.703 1.703 0 0 1 0.693-0.86z"/><path class="cls-6" d="m72.274 88.754a8.068 8.068 0 0 1-4.276 2.388c-0.553 0-1.08 0.07-1.606 0.088a5.18 5.18 0 0 1-1.756-0.457 7.462 7.462 0 0 1-2.292-2.09 10.219 10.219 0 0 1-1.755-4.081 12.87 12.87 0 0 1 0-1.546 6.145 6.145 0 0 1 0.772 1.37 7.102 7.102 0 0 0 1.29 1.58 4.135 4.135 0 0 0 2.713 1.16 3.573 3.573 0 0 0 1.186-0.15 5.917 5.917 0 0 0 2.818-1.712c0.237-0.29 0.526-0.57 0.746-0.878 0.22-0.307 0.483-0.746 0.658-1.141a8.78 8.78 0 0 0 1.01-3.758c-0.044-0.526-0.044-1.01-0.088-1.536-0.15-0.351-0.061-0.817-0.439-1.01a1.238 1.238 0 0 0-0.746 0.193 10.895 10.895 0 0 0-1.58 1.475c-0.597 0.483-1.01 1.142-1.58 1.668-0.334 0.246-0.536 0.571-0.878 0.817a11.413 11.413 0 0 1-1.888 1.536 3.134 3.134 0 0 1-1.756 0.457 2.748 2.748 0 0 1-1.852-1.08 8.604 8.604 0 0 1-1.317-2.967c-0.132-0.545-0.061-1.115-0.15-1.668a19.569 19.569 0 0 1 0.984-5.514 8.13 8.13 0 0 1 0.878-1.756c0.132-0.149 0.193-0.35 0.369-0.395a7.901 7.901 0 0 1-0.193 1.08 4.258 4.258 0 0 0 0 1.203 13.283 13.283 0 0 0 0 1.87c0.158 0.614 0.175 1.273 0.377 1.887a5.136 5.136 0 0 0 0.483 1.282c0.15 0.237 0.237 0.527 0.483 0.676a1.905 1.905 0 0 0 0.878 0.378 4.6 4.6 0 0 0 0.728-0.22 7.023 7.023 0 0 0 1.423-1.317 7.137 7.137 0 0 1 1.202-1.062 3.178 3.178 0 0 1 2.239-0.64 7.216 7.216 0 0 1 3.029 1.079 6.655 6.655 0 0 1 1.211 0.966 6.145 6.145 0 0 1 1.65 3.406 2.713 2.713 0 0 1 0.062 1.185 10.043 10.043 0 0 1-1.167 4.504 12.95 12.95 0 0 1-1.23 1.843 1.896 1.896 0 0 1-0.64 0.887z"/><path class="cls-6" d="m75.61 68.957a4.196 4.196 0 0 1 3.362 0.237 2.458 2.458 0 0 1 0.878 1.036 1.852 1.852 0 0 1-0.088 1.598 3.23 3.23 0 0 1-1.519 1.501 3.38 3.38 0 0 1-1.536 0.413 3.512 3.512 0 0 1-1.756-0.22 2.432 2.432 0 0 1-1.457-1.492 1.914 1.914 0 0 1 0.246-1.536 3.6 3.6 0 0 1 1.87-1.537z"/><path class="cls-6" d="m75.724 75.498a2.484 2.484 0 0 1 2.195-1.203 3.038 3.038 0 0 1 1.316 0.351 2.028 2.028 0 0 1 1.212 1.36 10.184 10.184 0 0 0 0.22 2.178 8.384 8.384 0 0 0 2.484 3.714c0.544 0.632 1.273 1.07 1.817 1.755a14.731 14.731 0 0 1-2.484-0.263 8.042 8.042 0 0 1-2.853-1.01 6.76 6.76 0 0 1-1.405-0.965 8.138 8.138 0 0 1-1.756-1.958 6.005 6.005 0 0 1-1.01-2.827 2.844 2.844 0 0 1 0.264-1.132z"/></g></svg>
