<svg xmlns="http://www.w3.org/2000/svg" xmlns:xlink="http://www.w3.org/1999/xlink" xml:space="preserve" id="svg154" width="24" height="24" fill="none" version="1.1"><defs id="defs152"><linearGradient id="linearGradient12456"><stop id="stop12454" offset="0" style="stop-color:#000;stop-opacity:1"/></linearGradient><linearGradient id="linearGradient10488"><stop id="stop10486" offset="0" style="stop-color:#000;stop-opacity:1"/></linearGradient><linearGradient id="linearGradient10413"><stop id="stop10411" offset="0" style="stop-color:#000;stop-opacity:1"/></linearGradient><linearGradient id="linearGradient5358"><stop id="stop5354" offset="0" style="stop-color:#e6e6e6;stop-opacity:1"/><stop id="stop5356" offset="1" style="stop-color:#fff;stop-opacity:1"/></linearGradient><linearGradient xlink:href="#linearGradient5358" id="linearGradient5360" x1="13.523" x2="13.744" y1="34.648" y2="-9.855" gradientUnits="userSpaceOnUse"/><linearGradient xlink:href="#linearGradient5358" id="linearGradient13399" x1="13.523" x2="13.744" y1="34.648" y2="-9.855" gradientUnits="userSpaceOnUse"/><style id="current-color-scheme" type="text/css">.ColorScheme-Text{color:#31363b}.ColorScheme-Background{color:#eff0f1}.ColorScheme-Highlight{color:#3daee9}.ColorScheme-ViewText{color:#31363b}.ColorScheme-ViewBackground{color:#fcfcfc}.ColorScheme-ViewHover{color:#93cee9}.ColorScheme-ViewFocus{color:#3daee9}.ColorScheme-ButtonText{color:#31363b}.ColorScheme-ButtonBackground{color:#eff0f1}.ColorScheme-ButtonHover{color:#93cee9}.ColorScheme-ButtonFocus{color:#3daee9}</style></defs><g id="g2267" style="fill:url(#linearGradient5360);fill-opacity:1"><path id="path6" d="M50 5C9.09 5 5 25.455 5 50c0 32.727 12.273 45 45 45 32.727 0 45-12.273 45-45 0-24.545-4.09-45-45-45Z" style="font-variation-settings:normal;display:inline;opacity:1;vector-effect:none;fill:url(#linearGradient13399);fill-opacity:1;stroke-width:4.56656;stroke-linecap:butt;stroke-linejoin:miter;stroke-miterlimit:4;stroke-dasharray:none;stroke-dashoffset:0;stroke-opacity:1;-inkscape-stroke:none;stop-color:#000;stop-opacity:1" transform="translate(-.222 -.222) scale(.24444)"/></g><g id="g3076" transform="translate(6.325 5.37) scale(.4854)"><path id="path3082" d="M16.24 6.747a2.11 2.11 0 0 1-1.8-1.827c-.034-.269-.038-6.393-.004-6.427.015-.014.064.029.121.108.117.16 7.856 7.943 7.987 8.032.113.078.115.105.01.126-.126.025-6.094.014-6.314-.012zm-1.772-8.234a.014.014 0 1 0-.027 0 .014.014 0 0 0 .027 0z" style="fill:#eba59f;stroke-width:.0275"/></g><path id="path3072" d="m17.233 8.61.04.053h-2.462c-.495 0-.942.03-1.283-.399-.267-.337-.208-.77-.208-1.171 0-.804.043-1.622-.014-2.423l.054.04c-.084-.094-.283-.053-.4-.053H8.288c-.539 0-1.118-.063-1.458.452-.207.315-.166.694-.166 1.052v11.807c0 .414-.014.82.321 1.124.3.272.645.26 1.024.26h7.92c.456 0 .885.007 1.186-.4.33-.444.198-1.154.198-1.677V8.943c0-.12.029-.255-.08-.333m-6.509 2.374c.212-.02.435.013.64.07.214.06.419.16.598.294 1.021.76.994 2.37-.08 3.074-.274.18-.58.275-.905.307-.22.02-.454-.01-.665-.073a1.867 1.867 0 0 1-.626-.32c-.987-.779-.932-2.328.106-3.036.28-.19.599-.284.932-.316m.027.694a1.253 1.253 0 0 0-.573.199c-.82.55-.606 1.857.347 2.12.133.037.274.053.412.04.195-.02.38-.078.546-.184.842-.54.645-1.865-.32-2.135a1.108 1.108 0 0 0-.412-.04m4.246 1.99v2.955h-2.968v-1.091c0-.124-.04-.335.013-.448.031-.066.128-.104.186-.143.12-.079.228-.17.333-.266.29-.264.526-.631.639-1.007z" style="fill:#da4c41;stroke:none;stroke-width:.0133106"/></svg>