<?xml version="1.0" encoding="UTF-8" standalone="no"?>
<svg
   width="24"
   height="24"
   viewBox="0 0 24 24"
   fill="none"
   version="1.1"
   id="svg154"
   sodipodi:docname="app.svg"
   inkscape:version="1.2.2 (b0a8486541, 2022-12-01)"
   xml:space="preserve"
   xmlns:inkscape="http://www.inkscape.org/namespaces/inkscape"
   xmlns:sodipodi="http://sodipodi.sourceforge.net/DTD/sodipodi-0.dtd"
   xmlns:xlink="http://www.w3.org/1999/xlink"
   xmlns="http://www.w3.org/2000/svg"
   xmlns:svg="http://www.w3.org/2000/svg"
   xmlns:sketch="http://www.bohemiancoding.com/sketch/ns"><sodipodi:namedview
     id="namedview156"
     pagecolor="#ffffff"
     bordercolor="#000000"
     borderopacity="1"
     inkscape:showpageshadow="0"
     inkscape:pageopacity="1"
     inkscape:pagecheckerboard="false"
     inkscape:deskcolor="#ffffff"
     showgrid="true"
     inkscape:zoom="32"
     inkscape:cx="9.609375"
     inkscape:cy="15.453125"
     inkscape:window-width="1920"
     inkscape:window-height="1052"
     inkscape:window-x="0"
     inkscape:window-y="0"
     inkscape:window-maximized="1"
     inkscape:current-layer="svg154"
     showguides="true"
     guidecolor="#ff0000"
     guideopacity="1"
     inkscape:lockguides="true"
     showborder="true"
     borderlayer="true"><inkscape:grid
       type="xygrid"
       id="grid356"
       color="#000000"
       opacity="0.10196078"
       empcolor="#000000"
       empopacity="0.10196078"
       snapvisiblegridlinesonly="true"
       enabled="true"
       visible="true"
       dotted="false" /><sodipodi:guide
       position="4,12"
       orientation="-1,0"
       id="guide764"
       inkscape:locked="true"
       inkscape:label="left-circle"
       inkscape:color="rgb(255,0,0)" /><sodipodi:guide
       position="5,12"
       orientation="-1,0"
       id="guide2218"
       inkscape:locked="true"
       inkscape:label="left-square"
       inkscape:color="rgb(255,0,0)" /><sodipodi:guide
       position="12,20"
       orientation="0,1"
       id="guide2220"
       inkscape:locked="true"
       inkscape:label="top-circle"
       inkscape:color="rgb(255,0,0)" /><sodipodi:guide
       position="12,5"
       orientation="0,1"
       id="guide2222"
       inkscape:locked="true"
       inkscape:label="bottom-square"
       inkscape:color="rgb(255,0,0)" /><sodipodi:guide
       position="12,4"
       orientation="0,1"
       id="guide2224"
       inkscape:locked="true"
       inkscape:label="bottom-circle"
       inkscape:color="rgb(255,0,0)" /><sodipodi:guide
       position="19,12"
       orientation="-1,0"
       id="guide2226"
       inkscape:locked="true"
       inkscape:label="right-square"
       inkscape:color="rgb(255,0,0)" /><sodipodi:guide
       position="20,12"
       orientation="-1,0"
       id="guide2228"
       inkscape:locked="true"
       inkscape:label="right-circle"
       inkscape:color="rgb(255,0,0)" /><sodipodi:guide
       position="12,19"
       orientation="0,1"
       id="guide2230"
       inkscape:locked="true"
       inkscape:label="top-square"
       inkscape:color="rgb(255,0,0)" /><sodipodi:guide
       position="12,12"
       orientation="1,0"
       id="guide765"
       inkscape:locked="true" /><sodipodi:guide
       position="12,12"
       orientation="0,-1"
       id="guide767"
       inkscape:locked="true" /><sodipodi:guide
       position="12,12"
       orientation="0.70710678,0.70710678"
       id="guide2266"
       inkscape:locked="true"
       inkscape:label=""
       inkscape:color="rgb(255,0,0)" /><sodipodi:guide
       position="12,12"
       orientation="-0.70710678,0.70710678"
       id="guide2994"
       inkscape:locked="true"
       inkscape:label=""
       inkscape:color="rgb(255,0,0)" /><sodipodi:guide
       position="3,12"
       orientation="-1,0"
       id="guide131543"
       inkscape:locked="true"
       inkscape:label="left-horizontal"
       inkscape:color="rgb(255,0,0)" /><sodipodi:guide
       position="12,21"
       orientation="0,1"
       id="guide131545"
       inkscape:locked="true"
       inkscape:label="top-vertical"
       inkscape:color="rgb(255,0,0)" /><sodipodi:guide
       position="21,12"
       orientation="-1,0"
       id="guide131547"
       inkscape:locked="true"
       inkscape:label="right-horizontal"
       inkscape:color="rgb(255,0,0)" /><sodipodi:guide
       position="12,3"
       orientation="0,1"
       id="guide131549"
       inkscape:locked="true"
       inkscape:label="bottom-vertical"
       inkscape:color="rgb(255,0,0)" /></sodipodi:namedview><defs
     id="defs152"><linearGradient
       inkscape:collect="always"
       id="linearGradient442"><stop
         style="stop-color:#5500d4;stop-opacity:1;"
         offset="0"
         id="stop438" /><stop
         style="stop-color:#aa87de;stop-opacity:1"
         offset="1"
         id="stop440" /></linearGradient><linearGradient
       inkscape:collect="always"
       xlink:href="#linearGradient442"
       id="linearGradient444"
       x1="50.265945"
       y1="100.88837"
       x2="50.265949"
       y2="-13.192868"
       gradientUnits="userSpaceOnUse"
       gradientTransform="matrix(0.24444444,0,0,0.24444444,-0.22222222,-0.22222222)" /></defs><path
     d="M 12,0.99999998 C 2,0.99999998 0.99999998,6 0.99999998,12 0.99999998,20 4.0000001,23 12,23 20,23 23,20 23,12 23,6 22,0.99999998 12,0.99999998 Z"
     sketch:type="MSShapeGroup"
     id="path6"
     style="font-variation-settings:normal;display:inline;opacity:1;vector-effect:none;fill:url(#linearGradient444);fill-opacity:1;stroke-width:1.11627;stroke-linecap:butt;stroke-linejoin:miter;stroke-miterlimit:4;stroke-dasharray:none;stroke-dashoffset:0;stroke-opacity:1;-inkscape-stroke:none;stop-color:#000000;stop-opacity:1"
     sodipodi:nodetypes="sssss"
     inkscape:label="Shape"
     sodipodi:insensitive="true" /><path
     style="fill:#ffffff;stroke:none;stroke-width:0.0146234"
     d="M 4.403127,10.289709 V 9.7193957 H 3.2332534 v 4.5625073 h 1.2576142 v -2.018032 -0.55569 c 0,-0.07305 -0.019752,-0.181535 0.01503,-0.248029 0.045746,-0.08745 0.1707826,-0.153208 0.2481917,-0.210709 0.2342671,-0.174032 0.6659797,-0.530944 0.9650871,-0.295925 0.2510695,0.197276 0.1755396,0.62118 0.1755396,0.900897 v 2.427488 H 7.15233 v -1.988785 -0.570315 c 0,-0.07762 -0.020122,-0.188919 0.00882,-0.261905 0.037715,-0.09512 0.1892417,-0.169265 0.2690272,-0.226867 0.2350568,-0.169729 0.6543249,-0.513208 0.9504638,-0.280513 0.2488615,0.195537 0.1755396,0.623593 0.1755396,0.900897 v 2.427488 h 1.2429913 v -2.485981 c 0,-0.447316 0.058522,-0.939506 -0.060717,-1.374602 C 9.5003246,9.5523871 8.5494225,9.4528966 7.8396308,9.7962931 7.5590073,9.9320584 7.2943527,10.09576 7.049966,10.289709 7.0028055,10.126004 6.8881433,9.9672694 6.7574977,9.8600114 5.9832169,9.2243039 5.0810541,9.8675084 4.403127,10.289709 m 9.505223,3.407258 v 0.584936 h 1.199122 v -3.129412 -0.950522 c 0,-0.130741 0.03257,-0.3111916 -0.0046,-0.4365375 -0.02305,-0.077698 -0.195867,-0.046032 -0.258572,-0.046032 h -0.658053 c -0.06318,0 -0.202565,-0.02602 -0.254404,0.015027 -0.03914,0.030997 -0.02344,0.1168679 -0.02344,0.1604509 v 0.4240766 c -0.781471,-0.9595737 -2.333644,-0.9278427 -3.156213,-0.02919 -1.0894294,1.190188 -0.8152556,3.177658 0.670192,3.907966 0.378045,0.18585 0.827086,0.24639 1.242991,0.188438 0.509231,-0.07095 0.893813,-0.324363 1.24299,-0.689201 m 1.433096,-3.9775714 c 0.05504,0.2341878 0.305586,0.4957074 0.447916,0.6872994 0.39628,0.533459 0.816921,1.128227 1.321517,1.564707 v 0.01463 c -0.176329,0.129783 -0.319535,0.343797 -0.459379,0.51182 -0.288316,0.346399 -0.56698,0.701106 -0.829529,1.06751 -0.157947,0.220418 -0.384054,0.462026 -0.480525,0.716547 h 1.052887 c 0.11918,0 0.324712,0.0399 0.43389,-0.0089 0.11886,-0.05306 0.228243,-0.32347 0.303481,-0.429884 0.184385,-0.260736 0.374768,-0.517889 0.582917,-0.760418 0.104456,-0.121726 0.264743,-0.250295 0.332158,-0.394833 0.316595,0.316876 0.593856,0.684508 0.847718,1.052887 0.09842,0.142635 0.213356,0.433671 0.359005,0.526032 0.08993,0.05712 0.311334,0.01504 0.416476,0.01504 h 1.096756 c -0.06756,-0.178215 -0.215696,-0.339688 -0.321716,-0.497196 -0.286911,-0.426185 -0.609504,-0.829747 -0.932973,-1.228367 -0.117427,-0.144709 -0.24158,-0.284027 -0.364416,-0.424075 -0.03363,-0.0384 -0.118157,-0.104689 -0.112016,-0.160858 0.0074,-0.0688 0.106752,-0.143354 0.151206,-0.190105 0.120059,-0.126214 0.232952,-0.261759 0.345406,-0.394832 0.311332,-0.368573 0.609066,-0.748076 0.889689,-1.140626 0.114208,-0.159643 0.284864,-0.3381956 0.34482,-0.5264436 h -1.052886 c -0.111285,0 -0.323323,-0.040727 -0.421448,0.015027 -0.143162,0.081494 -0.263952,0.3636486 -0.362807,0.4967906 -0.270094,0.363584 -0.562416,0.717891 -0.882815,1.038264 -0.06405,-0.137278 -0.216308,-0.250732 -0.315499,-0.365594 -0.21261,-0.246224 -0.414882,-0.498271 -0.607473,-0.760418 -0.07672,-0.104438 -0.185804,-0.3667377 -0.306754,-0.415255 -0.11943,-0.047899 -0.32369,-0.00883 -0.451967,-0.00883 h -1.023639 m -2.895437,0.940102 c 0.144538,-0.01711 0.298317,0.0074 0.438703,0.04159 1.140304,0.278404 1.342897,1.850673 0.365584,2.453889 -0.158766,0.09799 -0.341091,0.164102 -0.526443,0.186871 -1.119642,0.137508 -1.945646,-1.133854 -1.305154,-2.086964 0.09169,-0.136422 0.204991,-0.256404 0.340008,-0.350386 0.207755,-0.144612 0.438206,-0.215515 0.687302,-0.244999 m 0,0.309134 c -0.180015,0.0245 -0.346868,0.0753 -0.497196,0.180538 -0.881764,0.617269 -0.305367,2.022142 0.745794,1.885544 0.139961,-0.0182 0.275212,-0.0686 0.394833,-0.142974 0.882582,-0.548655 0.432136,-2.069516 -0.643431,-1.923108 z"
     id="path376" /></svg>
