<svg xmlns="http://www.w3.org/2000/svg" xmlns:xlink="http://www.w3.org/1999/xlink" xml:space="preserve" id="svg154" width="24" height="24" fill="none" version="1.1"><defs id="defs152"><linearGradient id="linearGradient12456"><stop id="stop12454" offset="0" style="stop-color:#000;stop-opacity:1"/></linearGradient><linearGradient id="linearGradient10488"><stop id="stop10486" offset="0" style="stop-color:#000;stop-opacity:1"/></linearGradient><linearGradient id="linearGradient10413"><stop id="stop10411" offset="0" style="stop-color:#000;stop-opacity:1"/></linearGradient><linearGradient id="linearGradient5358"><stop id="stop5354" offset="0" style="stop-color:#e6e6e6;stop-opacity:1"/><stop id="stop5356" offset="1" style="stop-color:#fff;stop-opacity:1"/></linearGradient><linearGradient xlink:href="#linearGradient5358" id="linearGradient5360" x1="13.523" x2="13.744" y1="34.648" y2="-9.855" gradientUnits="userSpaceOnUse"/><linearGradient xlink:href="#linearGradient5358" id="linearGradient13399" x1="13.523" x2="13.744" y1="34.648" y2="-9.855" gradientUnits="userSpaceOnUse"/><style id="current-color-scheme" type="text/css">.ColorScheme-Text{color:#31363b}.ColorScheme-Background{color:#eff0f1}.ColorScheme-Highlight{color:#3daee9}.ColorScheme-ViewText{color:#31363b}.ColorScheme-ViewBackground{color:#fcfcfc}.ColorScheme-ViewHover{color:#93cee9}.ColorScheme-ViewFocus{color:#3daee9}.ColorScheme-ButtonText{color:#31363b}.ColorScheme-ButtonBackground{color:#eff0f1}.ColorScheme-ButtonHover{color:#93cee9}.ColorScheme-ButtonFocus{color:#3daee9}</style></defs><g id="g2267" style="fill:url(#linearGradient5360);fill-opacity:1"><path id="path6" d="M50 5C9.09 5 5 25.455 5 50c0 32.727 12.273 45 45 45 32.727 0 45-12.273 45-45 0-24.545-4.09-45-45-45Z" style="font-variation-settings:normal;display:inline;opacity:1;vector-effect:none;fill:url(#linearGradient13399);fill-opacity:1;stroke-width:4.56656;stroke-linecap:butt;stroke-linejoin:miter;stroke-miterlimit:4;stroke-dasharray:none;stroke-dashoffset:0;stroke-opacity:1;-inkscape-stroke:none;stop-color:#000;stop-opacity:1" transform="translate(-.222 -.222) scale(.24444)"/></g><g id="g3836" transform="translate(19.861 5.967) scale(.63533)"><path id="path3848" d="M-10.945 7.557V5.632h-7.242V.498h5.432c3.68 0 5.47.007 5.55.02.623.1 1.12.583 1.239 1.205.02.108.026.461.026 1.884v1.751l-.05.043c-.944.789-4.93 4.08-4.94 4.08-.008 0-.015-.866-.015-1.924z" style="fill:#fdb900;stroke-width:.0183333"/><path id="path3846" d="M-21.958 18.489a.106.106 0 0 1 .055 0c.012.006-.003.01-.033.01-.03-.001-.04-.005-.022-.01zm-.238-.034a1.47 1.47 0 0 1-.717-.438 1.147 1.147 0 0 1-.239-.344 2.36 2.36 0 0 1-.125-.308c-.032-.114-.034-.37-.039-5.91-.003-3.532.002-5.8.013-5.812.012-.015.708-.02 2.566-.016l2.55.005.005 3.864.004 3.863c10.301.025-.508.02-5.096.019v3.868l.041.143c.153.526.581.94 1.08 1.041.063.013.11.03.105.038-.012.02-.034.018-.148-.013z" style="fill:#2684f9;stroke-width:.0183333"/><path id="path3844" d="M-23.273 5.616c-.005-.01 1.136-1.166 2.537-2.572L-18.189.49l.001 2.571.001 2.572h-2.538c-1.436 0-2.542-.007-2.548-.016z" style="fill:#e74234;stroke-width:.0183333"/><path id="path3842" d="M-21.973 18.483c-.05-.007-.083-.014-.073-.016.01-.003-.044-.02-.12-.039a1.474 1.474 0 0 1-1.067-1.04l-.041-.142v-3.868l2.502-.006c1.377-.002 2.521 0 2.544.005l.041.01v5.115l-1.847-.003a82.668 82.668 0 0 1-1.938-.016z" style="fill:#0065d8;stroke-width:.0183333"/><path id="path3840" d="M-18.187 15.944v-2.557h3.602c3.249 0 3.604-.003 3.63-.03.025-.025.028-.229.03-1.956 0-1.318.007-1.917.02-1.892.022.045 4.906 4.217 4.935 4.217.015 0 .022-1.095.025-4.188.004-3.339.01-4.191.028-4.202.012-.008.755-.615 1.65-1.349.895-.734 1.675-1.36 1.732-1.393.445-.25 1.012.038 1.086.553.025.176.025 12.658 0 12.83a.746.746 0 0 1-1.052.575c-.06-.028-.685-.528-1.75-1.402-.911-.748-1.664-1.355-1.673-1.35-.009.006-.016.735-.016 1.673 0 1.923.005 1.855-.166 2.198-.187.376-.505.64-.945.78l-.126.041-5.505.005-5.505.005v-2.558z" style="fill:#00ab46;stroke-width:.0183333"/><path id="path3838" d="M-8.381 11.685a971.261 971.261 0 0 1-2.463-2.109c-.036-.033-.064-.071-.06-.084.007-.035 4.934-4.115 4.95-4.1.022.02.008 8.33-.014 8.336-.01.003-1.096-.916-2.413-2.043z" style="fill:#00822c;stroke-width:.0183333"/></g></svg>