<svg xmlns="http://www.w3.org/2000/svg" xmlns:xlink="http://www.w3.org/1999/xlink" xml:space="preserve" width="24" height="24" fill="none"><defs><linearGradient id="b"><stop offset="0" style="stop-color:#04a;stop-opacity:1"/><stop offset=".553" style="stop-color:#0cf;stop-opacity:1"/><stop offset="1" style="stop-color:#000bad;stop-opacity:1"/></linearGradient><linearGradient id="a"><stop offset="0" style="stop-color:#1a1a1a;stop-opacity:1"/><stop offset="1" style="stop-color:#e6e6e6;stop-opacity:1"/></linearGradient><linearGradient xlink:href="#a" id="c" x1="50.989" x2="50.266" y1="93.476" y2="-13.193" gradientTransform="translate(-.222 -.222) scale(.24444)" gradientUnits="userSpaceOnUse"/><linearGradient xlink:href="#b" id="d" x1="1.945" x2="17.501" y1="13.656" y2="10.562" gradientUnits="userSpaceOnUse"/></defs><path d="M12 1C2 1 1 6 1 12c0 8 3 11 11 11s11-3 11-11c0-6-1-11-11-11Z" style="font-variation-settings:normal;display:inline;opacity:1;vector-effect:none;fill:url(#c);fill-opacity:1;stroke-width:1.11627;stroke-linecap:butt;stroke-linejoin:miter;stroke-miterlimit:4;stroke-dasharray:none;stroke-dashoffset:0;stroke-opacity:1;-inkscape-stroke:none;stop-color:#000;stop-opacity:1"/><path d="M15.496 14.832a.682.682 0 0 1-.25-.393c-.058-.246.064-.782.308-1.352l.097-.228-.03-.057c-.097-.192-.108-.494-.025-.74a1.99 1.99 0 0 1 .464-.75c.129-.135.188-.178.212-.154.022.021.003.194-.03.267a6.357 6.357 0 0 1-.17.323 2.65 2.65 0 0 0-.172.36c-.042.136-.061.309-.036.324.01.006.065-.06.127-.149.448-.65.869-.996 1.123-.92.108.031.2.137.244.282.046.148.049.403.007.576-.1.416-.53.87-.907.957a.904.904 0 0 1-.216.013l-.13-.007-.05.132a6.06 6.06 0 0 0-.341 1.22c-.025.15-.055.288-.065.307-.026.05-.082.045-.16-.011zm1.02-2.162a.93.93 0 0 0 .573-.485.514.514 0 0 0 .067-.267c.008-.16-.006-.195-.074-.195-.045 0-.144.096-.31.302a5.304 5.304 0 0 0-.407.599l-.04.08h.039c.021 0 .09-.015.151-.034zM5.86 13.706c-.076-.038-.14-.167-.169-.34l-.022-.13-.154-.08a3.334 3.334 0 0 1-1.037-.836c-.093-.116-.123-.181-.122-.265 0-.201.226-.385.676-.552.17-.063.574-.172.638-.172.037 0 .038-.006.05-.184.02-.332.078-.679.132-.782.014-.028.038-.048.056-.048.038 0 .142.116.182.205.042.092.08.322.091.558l.01.198.223.001c.228 0 .335.012.647.068.418.074.705.232.809.447.067.139.028.325-.093.446a.376.376 0 0 1-.423.097c-.152-.057-.149-.076.02-.157.111-.053.142-.09.134-.158-.007-.056-.062-.095-.203-.143-.203-.068-.741-.139-1.068-.14h-.072l.011.641c.006.352.015.644.02.649.023.024.299.053.58.062.255.008.354.004.498-.018.904-.139 1.39-.529 1.386-1.113-.002-.36-.166-.68-.542-1.057C7.46 10.246 6.38 9.721 5.31 9.54c-.56-.095-1.13-.088-1.467.019-.097.03-.1.064-.008.087.189.048.228.085.136.129a.727.727 0 0 1-.344.003c-.074-.029-.123-.083-.123-.133 0-.047.103-.214.18-.292.074-.072.46-.177.788-.213.868-.094 2.085.196 2.997.716.778.442 1.32.963 1.586 1.527.15.315.183.598.109.904-.127.517-.502.88-1.129 1.088a3.22 3.22 0 0 1-1.726.073c-.11-.026-.123-.019-.123.067 0 .101-.03.148-.115.185-.097.042-.138.043-.212.006zm-.19-.924c.005-.056.015-.31.02-.566l.011-.463-.12.011c-.23.02-.57.074-.722.114-.278.072-.357.12-.357.219 0 .05.017.072.13.181.223.216.52.408.852.55.172.075.173.075.186-.046zm8.57.509c-.148-.035-.3-.2-.337-.369-.024-.107-.005-.257.059-.46.04-.129.041-.137.017-.219-.048-.162-.024-.215.108-.236.057-.01.063-.016.132-.167l.073-.158-.075-.017a.336.336 0 0 1-.22-.138c-.056-.086-.06-.109-.028-.138.063-.057.642-.148 1.069-.167.216-.01.237-.008.3.024.114.058.267.27.242.335-.006.014-.033.034-.062.043a5.005 5.005 0 0 1-.665.076l-.196.012-.04.124-.039.124.28.005c.333.005.339.007.339.15 0 .17-.009.174-.474.193l-.285.012-.054.18c-.03.099-.054.186-.054.193 0 .02.089.009.43-.052a4.06 4.06 0 0 1 .35-.051c.127 0 .24.158.179.252-.1.151-.541.39-.821.443-.138.027-.136.027-.228.006zm-4.652-.083c-.129-.036-.155-.102-.173-.439-.013-.25.018-1.049.048-1.252.025-.165.042-.207.1-.246.038-.024.045-.024.081 0a.56.56 0 0 1 .154.223c.046.135.089 1.481.051 1.62-.027.1-.122.134-.261.094zm9.404-.01c-.011-.02-.011-.082-.001-.177.009-.08.02-.309.026-.509l.011-.364h-1.037l-.042-.042c-.038-.038-.041-.05-.035-.161a.365.365 0 0 1 .028-.146c.02-.024.08-.027.545-.027h.522l-.01-.127c-.02-.223-.058-.53-.094-.744-.027-.164-.03-.214-.015-.23.013-.012.074-.02.168-.02.12 0 .151.006.168.028.034.048.14.803.14 1.007v.086h.545c.402 0 .55.005.564.02.012.012.02.073.02.162 0 .207.038.194-.59.194h-.518l-.01.421c-.013.482-.026.621-.06.643a.607.607 0 0 1-.167.015c-.122 0-.145-.004-.158-.03zm-8.1-.038a1.041 1.041 0 0 1-.585-.27c-.173-.161-.21-.327-.103-.46.111-.138.214-.175.488-.173.24.001.477.048.63.124.087.044.105.06.105.094 0 .082-.152.147-.343.147a.73.73 0 0 1-.364-.085c-.14-.066-.282-.081-.333-.035-.089.08-.07.17.047.223.07.033.103.036.364.036.314 0 .478-.029.673-.117.097-.043.21-.148.21-.194 0-.156-.266-.234-.937-.277-.35-.022-.52-.048-.601-.09-.08-.044-.105-.223-.055-.394.063-.214.35-.367.84-.449.14-.023.23-.026.483-.019.39.012.61.058.64.135.014.037-.058.17-.107.194a2.015 2.015 0 0 1-.362.05c-.585.048-1.01.104-1.095.145-.027.013-.04.033-.04.06 0 .038.008.042.114.06.063.01.217.027.343.037.593.047.742.079.895.19.122.088.165.188.173.402.009.227-.02.337-.117.432-.16.159-.645.277-.964.234zm1.327-.035c-.09-.06-.117-.166-.117-.462a3.4 3.4 0 0 1 .08-.767c.068-.327.144-.489.25-.532.042-.018.056-.016.103.01.099.058.323.362.601.816.136.22.182.278.218.264.02-.007.028-.03.028-.075 0-.147-.124-.736-.237-1.124-.066-.227-.05-.345.044-.321.063.016.296.264.365.388.075.135.158.376.19.548.012.072.02.227.02.376-.002.381-.06.594-.195.718a.265.265 0 0 1-.249.076c-.13-.024-.305-.253-.567-.745a2.873 2.873 0 0 0-.15-.261c-.05-.052-.061.02-.08.54-.016.404-.041.521-.125.565-.064.033-.115.029-.18-.014zm-3.05-2.162c-.057-.04-.108-.167-.102-.254.005-.063-.002-.086-.042-.139a.424.424 0 0 1-.09-.288c-.002-.161.075-.306.259-.49.152-.153.283-.236.472-.3.341-.116.718-.09.801.055.02.035.045.047.122.062.45.086.35.62-.192 1.027-.12.09-.352.198-.494.23a.837.837 0 0 1-.43-.018c-.068-.024-.074-.024-.09.002-.04.07-.112.137-.145.137a.145.145 0 0 1-.07-.024zm.873-.442c.268-.063.515-.274.552-.471.025-.134-.02-.191-.153-.19-.175 0-.38.116-.63.357-.126.122-.256.275-.256.301 0 .033.351.035.487.003zm-.727-.274c.07-.098.294-.325.396-.402l.049-.037-.079.007a.642.642 0 0 0-.348.18c-.101.116-.156.256-.128.329.017.042.033.03.11-.077z" style="fill:url(#d);fill-opacity:1;stroke-width:.0163519"/></svg>