<svg xmlns="http://www.w3.org/2000/svg" xmlns:xlink="http://www.w3.org/1999/xlink" xml:space="preserve" width="24" height="24" fill="none"><defs><linearGradient id="a"><stop offset="0" style="stop-color:#050;stop-opacity:1"/><stop offset="1" style="stop-color:#80ff80;stop-opacity:1"/></linearGradient><linearGradient xlink:href="#a" id="b" x1="48.82" x2="49" y1="109.567" y2="-8.854" gradientTransform="matrix(.24444 0 0 .24444 -.222 -.222)" gradientUnits="userSpaceOnUse"/></defs><path d="M12 1C2 1 1 6 1 12c0 8 3 11 11 11s11-3 11-11c0-6-1-11-11-11Z" style="font-variation-settings:normal;display:inline;opacity:1;vector-effect:none;fill:url(#b);fill-opacity:1;stroke-width:1.11627;stroke-linecap:butt;stroke-linejoin:miter;stroke-miterlimit:4;stroke-dasharray:none;stroke-dashoffset:0;stroke-opacity:1;-inkscape-stroke:none;stop-color:#000;stop-opacity:1"/><path d="m18.182 4.959-1.885.602-1.385-.416-1.94-.075-.609.24-1.83.424-1.33-.478-1.717-.131c.184.874.995 1.755.914 2.717-.066.793-.734 1.617-.666 2.437.068.817.57 1.601.639 2.44.039.463-.293 1.336-.463 1.773-.124.32-.518.592-.756.83-.601.602-1.282 1.175-1.756 1.885-.215.324-.587.938-.332 1.33.923 1.414 2.557-.525 3.25-1.219l.61-.609c.197-.197.552-.715.832-.758.37-.056.783.235 1.164.203.677-.056 1.457-.646 2.105-.601.822.057 1.61.713 2.44.713.703 0 1.988-.323 2.603-.666.182-.102.149-.43.176-.61.08-.525.255-1.04.397-1.55.056-.204.19-.397.203-.612.016-.297-.166-.592-.166-.887 0-.544.28-1.16.334-1.716.053-.55-.193-1.072-.223-1.608-.015-.277.228-.502.213-.775-.052-.927-.506-2.023-.822-2.883Zm-.112.332c.285.9.684 1.945.61 2.883h-.055c-.31-.62-.668-1.166-1.164-1.662-.263-.263-.697-.476-.887-.778Zm-10.197.057 2.55.646.83-.148v.056c-1.24.849-2.123 2.198-2.27 3.713-.072.738.063 1.466.294 2.16.087.261.468.732.416.998-.034.179-.248.265-.359.39-.315.352-.663.815-1.072 1.052l.332-1.608-.6-2.439.434-1.662.23-.72Zm6 .808c.408-.005.827.065 1.205.17 3.301.917 3.766 5.507.832 7.178a4.045 4.045 0 0 1-1.553.488c-3.957.385-5.846-4.987-2.548-7.185a4.131 4.131 0 0 1 1.662-.62c.132-.02.266-.029.402-.03Zm-2.62 1.907-.165.166Zm4.491 2.992-.168.168zm2.77 1.22c.059.752-.185 1.312-.37 2.05-.066.266-.047.82-.212 1.034-.105.136-.479.19-.637.23-.59.157-1.323.46-1.94.4-.81-.08-1.574-.66-2.382-.694-.249-.01-.59.227-.832.305-.724.23-1.488.418-2.217.11.23-.396.666-.684.988-1.007.115-.115.217-.342.399-.36.303-.029.995.453 1.33.555a4.664 4.664 0 0 0 2.437.075 5.474 5.474 0 0 0 2.772-1.702c.258-.29.392-.746.664-.996z" style="fill:#0d0d0d;stroke:none;stroke-width:.0554187"/></svg>