<svg xmlns="http://www.w3.org/2000/svg" xml:space="preserve" id="svg154" width="24" height="24" fill="none" version="1.1"><defs id="defs152"><clipPath id="clipPath52936" clipPathUnits="userSpaceOnUse"><path id="path52934" d="M8.574 0h2.598v1.355H8.574Z"/></clipPath><clipPath id="clipPath52946" clipPathUnits="userSpaceOnUse"><path id="path52944" d="M0 0h12v7H0Z"/></clipPath><clipPath id="clipPath52958" clipPathUnits="userSpaceOnUse"><path id="path52956" d="M8.574 1.547h2.598v1.355H8.574Z"/></clipPath><clipPath id="clipPath52968" clipPathUnits="userSpaceOnUse"><path id="path52966" d="M0 0h12v7H0Z"/></clipPath><clipPath id="clipPath52980" clipPathUnits="userSpaceOnUse"><path id="path52978" d="M8.574 4.676h2.602v1.352H8.574Z"/></clipPath><clipPath id="clipPath52990" clipPathUnits="userSpaceOnUse"><path id="path52988" d="M0 0h12v7H0Z"/></clipPath><clipPath id="clipPath53018" clipPathUnits="userSpaceOnUse"><path id="path53016" d="M8.574 3.125h2.602V4.48H8.574Z"/></clipPath><clipPath id="clipPath53028" clipPathUnits="userSpaceOnUse"><path id="path53026" d="M0 0h12v7H0Z"/></clipPath><clipPath id="clipPath53056" clipPathUnits="userSpaceOnUse"><path id="path53054" d="M5.703 3.125h2.602V4.48H5.703Z"/></clipPath><clipPath id="clipPath53066" clipPathUnits="userSpaceOnUse"><path id="path53064" d="M0 0h12v7H0Z"/></clipPath><clipPath id="clipPath53094" clipPathUnits="userSpaceOnUse"><path id="path53092" d="M5.719 4.695h2.598V6.05H5.719Z"/></clipPath><clipPath id="clipPath53104" clipPathUnits="userSpaceOnUse"><path id="path53102" d="M0 0h12v7H0Z"/></clipPath><clipPath id="clipPath53132" clipPathUnits="userSpaceOnUse"><path id="path53130" d="M2.836 4.68h2.602v1.355H2.836Z"/></clipPath><clipPath id="clipPath53142" clipPathUnits="userSpaceOnUse"><path id="path53140" d="M0 0h12v7H0Z"/></clipPath><clipPath id="clipPath53170" clipPathUnits="userSpaceOnUse"><path id="path53168" d="M2.836 3.121h2.602v1.352H2.836Z"/></clipPath><clipPath id="clipPath53180" clipPathUnits="userSpaceOnUse"><path id="path53178" d="M0 0h12v7H0Z"/></clipPath><clipPath id="clipPath53208" clipPathUnits="userSpaceOnUse"><path id="path53206" d="M2.836 1.57h2.602v1.355H2.836Z"/></clipPath><clipPath id="clipPath53218" clipPathUnits="userSpaceOnUse"><path id="path53216" d="M0 0h12v7H0Z"/></clipPath><clipPath id="clipPath53246" clipPathUnits="userSpaceOnUse"><path id="path53244" d="M0 4.656h2.602v1.371H0Z"/></clipPath><clipPath id="clipPath53256" clipPathUnits="userSpaceOnUse"><path id="path53254" d="M0 0h12v7H0Z"/></clipPath><linearGradient id="linearGradient4924"><stop id="stop4922" offset="0" style="stop-color:#000;stop-opacity:1"/></linearGradient><linearGradient id="linearGradient2219"><stop id="stop2217" offset="0" style="stop-color:#000;stop-opacity:1"/></linearGradient><linearGradient id="linearGradient2199"><stop id="stop2197" offset="0" style="stop-color:#000;stop-opacity:1"/></linearGradient><linearGradient id="linearGradient2193"><stop id="stop2191" offset="0" style="stop-color:#000;stop-opacity:1"/></linearGradient><linearGradient id="linearGradient52926" x1="12.875" x2="12.188" y1="35.188" y2="-7.75" gradientTransform="translate(-3.58 -6.142) scale(.18333)" gradientUnits="userSpaceOnUse" spreadMethod="pad"><stop id="stop52922" offset="0" style="stop-opacity:1;stop-color:#333"/><stop id="stop52924" offset="1" style="stop-opacity:1;stop-color:#ccc"/></linearGradient><linearGradient id="linearGradient53008" x1="229.985" x2="145.102" y1="161.473" y2="161.022" gradientTransform="translate(-.22 -3.131) scale(.05165)" gradientUnits="userSpaceOnUse" spreadMethod="pad"><stop id="stop53004" offset="0" style="stop-opacity:1;stop-color:#314fa1"/><stop id="stop53006" offset="1" style="stop-opacity:1;stop-color:#242f92"/></linearGradient><linearGradient id="linearGradient53046" x1="229.082" x2="164.065" y1="165.537" y2="165.989" gradientTransform="translate(-.22 -3.131) scale(.05165)" gradientUnits="userSpaceOnUse" spreadMethod="pad"><stop id="stop53042" offset="0" style="stop-opacity:1;stop-color:#347298"/><stop id="stop53044" offset="1" style="stop-opacity:1;stop-color:#243491"/></linearGradient><linearGradient id="linearGradient53084" x1="108.078" x2="176.708" y1="133.48" y2="132.125" gradientTransform="translate(-.22 -3.131) scale(.05165)" gradientUnits="userSpaceOnUse" spreadMethod="pad"><stop id="stop53080" offset="0" style="stop-opacity:1;stop-color:#b5185a"/><stop id="stop53082" offset="1" style="stop-opacity:1;stop-color:#3e137c"/></linearGradient><linearGradient id="linearGradient53122" x1="108.078" x2="176.708" y1="133.48" y2="132.125" gradientTransform="translate(-.206 -1.56) scale(.05165)" gradientUnits="userSpaceOnUse" spreadMethod="pad"><stop id="stop53118" offset="0" style="stop-opacity:1;stop-color:#b5185a"/><stop id="stop53120" offset="1" style="stop-opacity:1;stop-color:#3e137c"/></linearGradient><linearGradient id="linearGradient53160" x1="51.64" x2="112.142" y1="163.28" y2="162.828" gradientTransform="translate(-.22 -3.131) scale(.05165)" gradientUnits="userSpaceOnUse" spreadMethod="pad"><stop id="stop53156" offset="0" style="stop-opacity:1;stop-color:#ff8f00"/><stop id="stop53158" offset="1" style="stop-opacity:1;stop-color:#da363c"/></linearGradient><linearGradient id="linearGradient53198" x1="40.804" x2="113.948" y1="131.674" y2="133.029" gradientTransform="translate(-.22 -3.131) scale(.05165)" gradientUnits="userSpaceOnUse" spreadMethod="pad"><stop id="stop53194" offset="0" style="stop-opacity:1;stop-color:#f7b009"/><stop id="stop53196" offset="1" style="stop-opacity:1;stop-color:#d83e2c"/></linearGradient><linearGradient id="linearGradient53236" x1="46.222" x2="131.557" y1="100.972" y2="102.326" gradientTransform="translate(-.22 -3.131) scale(.05165)" gradientUnits="userSpaceOnUse" spreadMethod="pad"><stop id="stop53232" offset="0" style="stop-opacity:1;stop-color:#fe9a10"/><stop id="stop53234" offset="1" style="stop-opacity:1;stop-color:#fd741b"/></linearGradient><style id="current-color-scheme" type="text/css">.ColorScheme-Text{color:#31363b}.ColorScheme-Background{color:#eff0f1}.ColorScheme-Highlight{color:#3daee9}.ColorScheme-ViewText{color:#31363b}.ColorScheme-ViewBackground{color:#fcfcfc}.ColorScheme-ViewHover{color:#93cee9}.ColorScheme-ViewFocus{color:#3daee9}.ColorScheme-ButtonText{color:#31363b}.ColorScheme-ButtonBackground{color:#eff0f1}.ColorScheme-ButtonHover{color:#93cee9}.ColorScheme-ButtonFocus{color:#3daee9}</style></defs><path id="path52928" d="M5.586-5.227c-7.5 0-8.25 3.75-8.25 8.25 0 6 2.25 8.25 8.25 8.25s8.25-2.25 8.25-8.25c0-4.5-.75-8.25-8.25-8.25z" style="display:inline;fill:url(#linearGradient52926);stroke:none" transform="translate(4.552 7.97) scale(1.33333)"/><path id="path52972" d="M8.574 1.547h2.598v1.355H8.574Zm0-1.547h2.598v1.355H8.574Z" style="fill:#33a064;fill-opacity:1;fill-rule:nonzero;stroke:none" transform="translate(4.552 7.97) scale(1.33333)"/><path id="path53238" d="M2.836 1.57h2.602v1.355H2.836ZM0 4.656h2.602v1.355H0Z" style="fill:url(#linearGradient53236);stroke:none" transform="translate(4.552 7.97) scale(1.33333)"/><path id="path53162" d="M2.836 4.68h2.602v1.355H2.836Zm0-1.559h2.602v1.352H2.836Z" style="fill:url(#linearGradient53160);stroke:none" transform="translate(4.552 7.97) scale(1.33333)"/><path id="path53048" d="M8.574 3.125h2.602V4.48H8.574Zm0 1.551h2.602v1.352H8.574Z" style="fill:url(#linearGradient53046);stroke:none" transform="translate(4.552 7.97) scale(1.33333)"/><path id="path53086" d="M5.703 3.125h2.602V4.48H5.703Zm.016 1.57h2.598V6.05H5.719Z" style="fill:url(#linearGradient53084);stroke:none" transform="translate(4.552 7.97) scale(1.33333)"/></svg>