<svg xmlns="http://www.w3.org/2000/svg" xmlns:xlink="http://www.w3.org/1999/xlink" xml:space="preserve" id="svg154" width="24" height="24" fill="none" version="1.1"><defs id="defs152"><linearGradient id="linearGradient14314"><stop id="stop14310" offset="0" style="stop-color:#32ccfe;stop-opacity:1"/><stop id="stop14312" offset="1" style="stop-color:#87cdde;stop-opacity:1"/></linearGradient><linearGradient id="linearGradient6999"><stop id="stop6997" offset="0" style="stop-color:#000;stop-opacity:1"/></linearGradient><linearGradient id="linearGradient6993"><stop id="stop6991" offset="0" style="stop-color:#fff;stop-opacity:1"/></linearGradient><linearGradient id="a" x1="16.942" x2="85.671" y1="83.36" y2="89.583" gradientUnits="userSpaceOnUse"><stop id="stop800" offset="0" stop-color="#f32b44"/><stop id="stop802" offset=".6" stop-color="#a4070a"/></linearGradient><linearGradient id="b"><stop id="stop805" offset="0" stop-opacity=".4"/><stop id="stop807" offset="1" stop-opacity="0"/></linearGradient><linearGradient id="d" x1="44.738" x2="-5.901" y1="-3.312" y2="71.527" gradientUnits="userSpaceOnUse"><stop id="stop811" offset="0" stop-color="#800600"/><stop id="stop813" offset=".6" stop-color="#c72127"/><stop id="stop815" offset=".728" stop-color="#c13959"/><stop id="stop817" offset=".847" stop-color="#bc4b81"/><stop id="stop819" offset=".942" stop-color="#b95799"/><stop id="stop821" offset="1" stop-color="#b85ba2"/></linearGradient><linearGradient id="f" x1="61.486" x2="61.486" y1="-4.887" y2="88.781" gradientUnits="userSpaceOnUse"><stop id="stop825" offset="0" stop-color="#ffb900"/><stop id="stop827" offset=".166" stop-color="#ef8400"/><stop id="stop829" offset=".313" stop-color="#e25c01"/><stop id="stop831" offset=".429" stop-color="#db4401"/><stop id="stop833" offset=".5" stop-color="#d83b01"/></linearGradient><linearGradient xlink:href="#linearGradient14314" id="linearGradient14316" x1="11.25" x2="11.688" y1="44.688" y2="-7" gradientUnits="userSpaceOnUse"/><linearGradient xlink:href="#linearGradient14314" id="linearGradient14504" x1="11.25" x2="11.688" y1="44.688" y2="-7" gradientUnits="userSpaceOnUse"/><style id="current-color-scheme" type="text/css">.ColorScheme-Text{color:#31363b}.ColorScheme-Background{color:#eff0f1}.ColorScheme-Highlight{color:#3daee9}.ColorScheme-ViewText{color:#31363b}.ColorScheme-ViewBackground{color:#fcfcfc}.ColorScheme-ViewHover{color:#93cee9}.ColorScheme-ViewFocus{color:#3daee9}.ColorScheme-ButtonText{color:#31363b}.ColorScheme-ButtonBackground{color:#eff0f1}.ColorScheme-ButtonHover{color:#93cee9}.ColorScheme-ButtonFocus{color:#3daee9}</style></defs><g id="g2267" style="fill:url(#linearGradient14316);fill-opacity:1"><path id="path6" d="M50 5C9.09 5 5 25.455 5 50c0 32.727 12.273 45 45 45 32.727 0 45-12.273 45-45 0-24.545-4.09-45-45-45Z" style="font-variation-settings:normal;display:inline;opacity:1;vector-effect:none;fill:url(#linearGradient14504);fill-opacity:1;stroke-width:4.56656;stroke-linecap:butt;stroke-linejoin:miter;stroke-miterlimit:4;stroke-dasharray:none;stroke-dashoffset:0;stroke-opacity:1;-inkscape-stroke:none;stop-color:#000;stop-opacity:1" transform="translate(-.222 -.222) scale(.24444)"/></g><path id="path13848" d="M11.979 4.819c-.698.092-1.34.225-1.984.52-1.74.799-3.118 2.523-3.557 4.377a7.758 7.758 0 0 0-.194 1.788c0 .412.07.9-.102 1.286-.13.29-.39.465-.683.565-.243.084-.595.13-.621.46-.025.306.147.637.291.894a5.437 5.437 0 0 0 1.53 1.735c.284.206.683.371.908.642.2.24.116.589.204.872.21.68.83 1.191 1.548 1.24.532.038 1.138-.111 1.49-.543.21-.259.284-.634.581-.818.285-.175.79-.105 1.112-.073.32.032.44.584.62.805.376.458.972.696 1.56.626.773-.093 1.463-.638 1.586-1.433.054-.352-.138-.853.118-1.134.319-.35.74-.603 1.062-.96a6.603 6.603 0 0 0 1.63-3.314c.404-2.411-.623-4.9-2.63-6.308-.777-.546-1.688-.89-2.616-1.075-.583-.117-1.259-.23-1.853-.152m-6.367 9.28c.275-.123.538-.23.763-.439.935-.866.477-2.384.693-3.508.293-1.518 1.201-2.81 2.469-3.685 2.629-1.815 6.445-.881 8.093 1.81 1.014 1.655 1.045 3.827.22 5.56a5.46 5.46 0 0 1-1.423 1.833 6.08 6.08 0 0 1-2.442 1.222c-.634.158-1.271.15-1.919.15-.2 0-.586.043-.761-.056-.175-.098-.275-.375-.392-.533-.296-.394-.694-.77-1.202-.843-.456-.066-.905.114-1.265.383-.136.103-.337.364-.501.399-.184.04-.556-.303-.698-.406A5.458 5.458 0 0 1 5.612 14.1m5.516-4.94c-.921.166-.615 1.545.284 1.375.905-.17.612-1.536-.284-1.375m4.296 0c-.888.166-.612 1.528.283 1.378.89-.148.614-1.546-.283-1.378m.218 2.837c-.28.037-.5.555-.68.75-.35.383-.853.645-1.37.695-.693.066-1.331-.279-1.784-.782-.216-.24-.44-.86-.853-.585-.436.29.234 1.016.457 1.24.717.72 1.748.964 2.725.736a2.76 2.76 0 0 0 1.658-1.173c.165-.25.41-.664.021-.849a.316.316 0 0 0-.174-.032z" style="fill:#020304;stroke:none;stroke-width:.0218048"/><path id="path14292" d="M11.281 16.797c-.08-.095-.267-.324-.416-.51-.503-.625-1.212-.879-1.858-.664a2.993 2.993 0 0 0-.688.382c-.202.152-.401.276-.443.276-.29 0-1.652-1.301-2.018-1.929l-.111-.19.343-.22c.41-.261.755-.711.843-1.098.036-.155.094-.774.13-1.375.074-1.246.164-1.745.425-2.366.56-1.334 1.87-2.618 3.186-3.125.661-.255 1.174-.343 1.982-.34 2.604.01 4.884 1.74 5.502 4.177.123.485.154.76.152 1.365-.004 1.676-.444 2.836-1.49 3.931-1.268 1.328-2.618 1.856-4.748 1.857-.628 0-.65-.004-.79-.171zm3.157-2.773c.868-.3 1.66-1.15 1.612-1.73-.015-.18-.056-.249-.192-.313-.246-.117-.37-.055-.701.35-.62.758-1.176 1.053-1.877.997-.544-.044-.932-.273-1.526-.902-.27-.286-.538-.52-.594-.52-.14 0-.41.28-.41.423 0 .233.33.769.662 1.072a3.013 3.013 0 0 0 3.025.623zm-2.834-3.489c.277-.125.375-.25.397-.504.032-.385-.007-.518-.214-.725-.176-.176-.258-.212-.484-.212-.607 0-.928.467-.71 1.035.089.235.159.312.368.407.318.145.323.145.643 0zm4.409-.044c.269-.135.37-.608.21-.989-.162-.389-.742-.536-1.102-.28-.273.194-.356.542-.216.907.09.236.159.312.368.406.267.12.435.11.74-.044z" style="opacity:1;fill:#fff;fill-opacity:1;stroke:#000;stroke-width:.0298125;stroke-dasharray:none"/></svg>