<svg xmlns="http://www.w3.org/2000/svg" xmlns:xlink="http://www.w3.org/1999/xlink" xml:space="preserve" id="svg154" width="24" height="24" fill="none" version="1.1"><defs id="defs152"><linearGradient id="linearGradient12456"><stop id="stop12454" offset="0" style="stop-color:#000;stop-opacity:1"/></linearGradient><linearGradient id="linearGradient10488"><stop id="stop10486" offset="0" style="stop-color:#000;stop-opacity:1"/></linearGradient><linearGradient id="linearGradient10413"><stop id="stop10411" offset="0" style="stop-color:#000;stop-opacity:1"/></linearGradient><linearGradient id="linearGradient5358"><stop id="stop5354" offset="0" style="stop-color:#e6e6e6;stop-opacity:1"/><stop id="stop5356" offset="1" style="stop-color:#fff;stop-opacity:1"/></linearGradient><linearGradient xlink:href="#linearGradient5358" id="linearGradient5360" x1="13.523" x2="13.744" y1="34.648" y2="-9.855" gradientUnits="userSpaceOnUse"/><linearGradient xlink:href="#linearGradient5358" id="linearGradient13399" x1="13.523" x2="13.744" y1="34.648" y2="-9.855" gradientUnits="userSpaceOnUse"/><style id="current-color-scheme" type="text/css">.ColorScheme-Text{color:#31363b}.ColorScheme-Background{color:#eff0f1}.ColorScheme-Highlight{color:#3daee9}.ColorScheme-ViewText{color:#31363b}.ColorScheme-ViewBackground{color:#fcfcfc}.ColorScheme-ViewHover{color:#93cee9}.ColorScheme-ViewFocus{color:#3daee9}.ColorScheme-ButtonText{color:#31363b}.ColorScheme-ButtonBackground{color:#eff0f1}.ColorScheme-ButtonHover{color:#93cee9}.ColorScheme-ButtonFocus{color:#3daee9}</style></defs><g id="g2267" style="fill:url(#linearGradient5360);fill-opacity:1"><path id="path6" d="M50 5C9.09 5 5 25.455 5 50c0 32.727 12.273 45 45 45 32.727 0 45-12.273 45-45 0-24.545-4.09-45-45-45Z" style="font-variation-settings:normal;display:inline;opacity:1;vector-effect:none;fill:url(#linearGradient13399);fill-opacity:1;stroke-width:4.56656;stroke-linecap:butt;stroke-linejoin:miter;stroke-miterlimit:4;stroke-dasharray:none;stroke-dashoffset:0;stroke-opacity:1;-inkscape-stroke:none;stop-color:#000;stop-opacity:1" transform="matrix(.24444 0 0 .24444 -.222 -.222)"/></g><g id="g1613" transform="translate(.068 .097)"><path id="path1617" d="M7.709 18.787a.956.956 0 0 1-.724-.572.823.823 0 0 1-.057-.209c-.006-.052 0-.04.013.025.04.209.161.412.326.545a.91.91 0 0 0 .54.208c.07.005 1.448.006 4.203.005 3.874-.002 4.104-.003 4.159-.014a.946.946 0 0 0 .748-.736c.012-.055.013-.235.013-4.663V8.77l-1.475-.003c-1.628-.004-1.493 0-1.628-.045a.955.955 0 0 1-.597-.599c-.045-.138-.041 0-.044-1.63 0-.812 0-1.476.002-1.474l1.881 1.88 1.878 1.878-.002 4.602-.002 4.602-.014.062a.968.968 0 0 1-.726.736l-.058.015h-4.193c-3.392.002-4.202 0-4.243-.007zm-.791-.874c0-.011.002-.015.003-.008a.039.039 0 0 1 0 .02c-.002.005-.003 0-.003-.012zM9.78 16.28a.483.483 0 0 1-.346-.337l-.016-.051v-2.11c0-2.026 0-2.111.013-2.154a.496.496 0 0 1 .253-.308c.106-.051-.092-.047 2.244-.047 2.054 0 2.101 0 2.152.013.159.04.284.158.338.318l.019.055v4.247l-.019.054a.484.484 0 0 1-.338.318c-.05.013-.098.013-2.155.013-1.813 0-2.11-.002-2.145-.01zm4.295-.013a.477.477 0 0 0 .303-.244c.052-.107.048.083.048-2.24 0-2.325.004-2.135-.048-2.242a.485.485 0 0 0-.202-.205c-.11-.054.095-.05-2.27-.048l-2.112.002-.05.018a.446.446 0 0 0-.18.116.45.45 0 0 0-.126.235 206.55 206.55 0 0 0 0 4.247c.016.087.061.17.13.239a.424.424 0 0 0 .195.117l.051.015h2.11c1.86 0 2.115 0 2.151-.01zm-4.03-1.39a93.42 93.42 0 0 1 0-1.102l.001-1.092 1.878-.002c1.76-.001 1.878 0 1.886.01.011.015.013 2.16.002 2.18-.007.014-.036.014-1.885.014-1.496 0-1.878-.002-1.881-.009zm3.757-1.095v-1.086l-1.873-.001-1.873-.002v2.178l1.873-.001 1.873-.002zM6.918 5.9c0-.013.001-.018.003-.012a.056.056 0 0 1 0 .024c-.002.007-.003.001-.003-.012zm.008-.083a.892.892 0 0 1 .146-.384.968.968 0 0 1 .44-.358c.095-.037.224-.064.224-.048 0 .003-.009.006-.02.006a.943.943 0 0 0-.78.775c.001.01-.002.018-.006.02-.005.003-.006-.001-.004-.011zm.87-.803a.075.075 0 0 1 .027 0c.007.002 0 .004-.015.004s-.02-.002-.012-.004z" style="fill:#f8db87;stroke-width:.00682807"/><path id="path1615" d="M7.783 18.783a.929.929 0 0 1-.7-.41.972.972 0 0 1-.16-.45c-.01-.09-.005-12.078.005-12.096a.492.492 0 0 0 .021-.079.94.94 0 0 1 .767-.716c.01 0 .02-.004.022-.009.002-.006.554-.008 2.724-.01l2.722-.002.002 1.48c.003 1.633 0 1.494.044 1.632.088.276.32.508.596.599.136.044.001.04 1.629.045l1.475.003v4.606c0 4.428 0 4.608-.013 4.663a.953.953 0 0 1-.749.735c-.054.012-.283.013-4.185.014-2.27 0-4.16-.002-4.2-.005zm6.298-2.505a.484.484 0 0 0 .338-.318l.019-.054v-4.247l-.019-.055a.483.483 0 0 0-.338-.318c-.05-.013-.098-.013-2.152-.013-2.336 0-2.138-.004-2.244.047a.496.496 0 0 0-.253.308c-.013.043-.013.128-.013 2.154v2.11l.016.051c.043.138.13.242.25.3.104.051-.091.047 2.24.048 2.058 0 2.105 0 2.156-.013zm-4.024-2.496v-1.089l1.873.002 1.873.001v2.172l-1.873.001-1.873.002z" style="fill:#f3b60d;stroke-width:.00682807"/></g></svg>