<svg xmlns="http://www.w3.org/2000/svg" xmlns:xlink="http://www.w3.org/1999/xlink" xml:space="preserve" id="svg154" width="24" height="24" fill="none" version="1.1"><defs id="defs152"><linearGradient id="linearGradient5358"><stop id="stop5354" offset="0" style="stop-color:#e6e6e6;stop-opacity:1"/><stop id="stop5356" offset="1" style="stop-color:#fff;stop-opacity:1"/></linearGradient><linearGradient xlink:href="#linearGradient5358" id="linearGradient5360" x1="13.523" x2="13.744" y1="34.648" y2="-9.855" gradientUnits="userSpaceOnUse"/><linearGradient xlink:href="#linearGradient5358" id="linearGradient9751" x1="13.523" x2="13.744" y1="34.648" y2="-9.855" gradientUnits="userSpaceOnUse"/><linearGradient id="a" x1="16.942" x2="85.671" y1="83.36" y2="89.583" gradientUnits="userSpaceOnUse"><stop id="stop800" offset="0" stop-color="#f32b44"/><stop id="stop802" offset=".6" stop-color="#a4070a"/></linearGradient><linearGradient id="b"><stop id="stop805" offset="0" stop-opacity=".4"/><stop id="stop807" offset="1" stop-opacity="0"/></linearGradient><linearGradient id="d" x1="44.738" x2="-5.901" y1="-3.312" y2="71.527" gradientUnits="userSpaceOnUse"><stop id="stop811" offset="0" stop-color="#800600"/><stop id="stop813" offset=".6" stop-color="#c72127"/><stop id="stop815" offset=".728" stop-color="#c13959"/><stop id="stop817" offset=".847" stop-color="#bc4b81"/><stop id="stop819" offset=".942" stop-color="#b95799"/><stop id="stop821" offset="1" stop-color="#b85ba2"/></linearGradient><linearGradient id="f" x1="61.486" x2="61.486" y1="-4.887" y2="88.781" gradientUnits="userSpaceOnUse"><stop id="stop825" offset="0" stop-color="#ffb900"/><stop id="stop827" offset=".166" stop-color="#ef8400"/><stop id="stop829" offset=".313" stop-color="#e25c01"/><stop id="stop831" offset=".429" stop-color="#db4401"/><stop id="stop833" offset=".5" stop-color="#d83b01"/></linearGradient><style id="current-color-scheme" type="text/css">.ColorScheme-Text{color:#31363b}.ColorScheme-Background{color:#eff0f1}.ColorScheme-Highlight{color:#3daee9}.ColorScheme-ViewText{color:#31363b}.ColorScheme-ViewBackground{color:#fcfcfc}.ColorScheme-ViewHover{color:#93cee9}.ColorScheme-ViewFocus{color:#3daee9}.ColorScheme-ButtonText{color:#31363b}.ColorScheme-ButtonBackground{color:#eff0f1}.ColorScheme-ButtonHover{color:#93cee9}.ColorScheme-ButtonFocus{color:#3daee9}</style></defs><g id="g2267" style="fill:url(#linearGradient5360);fill-opacity:1"><path id="path6" d="M50 5C9.09 5 5 25.455 5 50c0 32.727 12.273 45 45 45 32.727 0 45-12.273 45-45 0-24.545-4.09-45-45-45Z" style="font-variation-settings:normal;display:inline;opacity:1;vector-effect:none;fill:url(#linearGradient9751);fill-opacity:1;stroke-width:4.56656;stroke-linecap:butt;stroke-linejoin:miter;stroke-miterlimit:4;stroke-dasharray:none;stroke-dashoffset:0;stroke-opacity:1;-inkscape-stroke:none;stop-color:#000;stop-opacity:1" transform="translate(-.222 -.222) scale(.24444)"/></g><g id="g2658" transform="translate(-6.746 12.168) scale(.69474)"><path id="path2637" d="M25.916-2.851a.596.596 0 0 1-.428-.838c.114-.277.26-.386.543-.41.144-.01.172-.005.285.054.298.158.44.608.285.91-.103.202-.441.342-.685.284z" style="fill:#e82e8c;stroke-width:.0232804"/><path id="path2635" d="M29.945-2.858a.62.62 0 0 1-.404-.896.642.642 0 0 1 .767-.32c.262.08.399.288.398.608 0 .146-.011.207-.051.282a.624.624 0 0 1-.71.326z" style="fill:#fd8408;stroke-width:.0232804"/><path id="path2631" d="M28.03 3.59c-.169-.097-.243-.277-1.072-2.575-.832-2.307-.892-2.496-.847-2.663.042-.155.234-.294.408-.293a.44.44 0 0 1 .283.118c.096.098.289.6.797 2.07.518 1.501.639 1.816.697 1.816.077 0 .246-.438.773-2 .415-1.232.609-1.755.689-1.861.077-.104.18-.143.37-.143.154 0 .157.001.253.1.144.152.248.414.785 1.983.325.952.578 1.663.647 1.822.059.134.106.128.172-.023.115-.26.348-.905.654-1.81.478-1.41.654-1.875.747-1.968.153-.153.433-.15.57.006.072.082.073.088.062.26-.016.234-.09.479-.528 1.744-.71 2.046-.928 2.632-1.137 3.04-.128.25-.191.328-.315.387a.4.4 0 0 1-.522-.152c-.103-.182-.36-.868-.892-2.386-.246-.7-.462-1.264-.498-1.3-.017-.018-.045-.025-.06-.015-.064.04-.22.446-.674 1.746-.435 1.243-.654 1.806-.767 1.964a.48.48 0 0 1-.596.132zm7.857.034a3.708 3.708 0 0 0-.286-.06c-.355-.062-.622-.212-.91-.51a2.421 2.421 0 0 1-.635-1.433c-.024-.32.138-.933.343-1.296.138-.245.48-.588.72-.723a1.98 1.98 0 0 1 1.105-.255c.49.029.786.166 1.184.549.285.274.398.479.486.875.102.464.109.81.017.868-.093.058-.649.091-2.021.12-.574.013-.925.03-.94.044-.034.034.036.299.125.476.093.183.296.395.473.494.217.12.384.16.665.161.302 0 .477-.049.87-.244.365-.183.522-.188.608-.022.159.307-.27.73-.896.885-.11.027-.23.06-.27.071-.086.026-.556.026-.638 0zm1.303-2.48c0-.076-.105-.365-.194-.535-.095-.18-.297-.397-.433-.465a1.141 1.141 0 0 0-1.01.028c-.148.08-.373.359-.502.62-.116.234-.127.274-.09.324.048.066.264.08 1.28.083l.95.003zm-3.236-4.029a.646.646 0 0 1-.358-.318.719.719 0 0 1-.017-.542.752.752 0 0 1 .329-.312c.045-.016.1-.04.122-.051.077-.04.289-.025.383.029.238.135.34.317.342.613.003.221-.045.331-.2.464a.627.627 0 0 1-.601.117z" style="fill:#0883a0;stroke-width:.0232804"/><path id="path2627" d="M24.107 3.647c-.125-.01-.155-.018-.105-.027.068-.013.068-.014-.015-.017-.27-.011-.725-.186-1.01-.387-.52-.37-.815-1.068-.772-1.828.035-.608.28-1.157.685-1.54.275-.259.474-.357.867-.425.625-.108.932-.054 1.422.247.47.29.746.703.815 1.221.03.223.017.617-.025.759l-.025.087h-.39c-1.014.002-2.355.066-2.453.119-.101.054-.063.227.107.483.123.184.362.42.492.486.203.102.341.133.581.133.308-.002.463-.045.862-.245.37-.185.476-.213.55-.147.23.21.088.52-.364.797-.152.092-.503.21-.69.23-.125.013-.137.018-.078.032.052.012.034.016-.074.018a1.562 1.562 0 0 0-.175.01 1.48 1.48 0 0 1-.205-.006zm1.074-2.473c.075-.049.093-.133.062-.297-.09-.49-.636-.868-1.204-.833-.388.024-.665.237-.886.68-.051.103-.1.236-.108.295-.013.097-.01.111.04.137.1.054.303.064 1.174.06.767-.002.87-.007.922-.042zM16.407 3.63a.19.19 0 0 1 .081 0c.023.006.004.01-.04.01-.045 0-.064-.004-.041-.01zm4.528 0a.253.253 0 0 1 .093 0c.022.006-.001.01-.053.01-.05 0-.069-.005-.04-.01zm-4.672-.102c-.146-.106-.19-.223-.208-.566-.014-.265-.016-.272-.027-.12-.006.09-.02-.277-.03-.816-.017-.98.007-3.282.032-2.931l.013.186.005-.221c.005-.251.04-.59.076-.734a.514.514 0 0 1 .078-.163c.048-.06.07-.068.216-.077.201-.011.278.021.447.189.219.217.58.738 1.638 2.362.23.352.258.368.357.21l.586-.914c1.117-1.74 1.181-1.816 1.547-1.844.156-.012.176-.008.236.043.149.128.177.58.176 2.86 0 1.689-.018 2.276-.073 2.392-.05.102-.238.215-.36.215-.09 0-.115-.012-.215-.11a.543.543 0 0 1-.142-.204c-.02-.063-.034-.506-.047-1.397-.02-1.275-.036-1.81-.062-1.914-.009-.035-.03-.053-.065-.053-.055 0-.21.204-.758 1.001-.363.527-.517.728-.706.925-.189.197-.277.238-.393.182-.094-.044-.349-.383-.898-1.193-.571-.842-.63-.919-.687-.91-.03.004-.054.031-.065.071-.03.111-.048.635-.068 1.973-.01.71-.027 1.32-.035 1.355-.032.128-.24.274-.39.274a.323.323 0 0 1-.178-.071zm2.303-6.422a.499.499 0 0 1-.364-.368c-.049-.169-.034-.434.03-.545.054-.095.231-.218.377-.263.06-.018.093-.035.073-.037-.019-.003.006-.012.055-.022a.446.446 0 0 1 .163 0c.04.01.06.019.042.02-.018.002.023.031.09.067.361.188.431.76.126 1.028-.132.116-.416.173-.592.12z" style="fill:#16377e;stroke-width:.0232804"/></g></svg>