<svg xmlns="http://www.w3.org/2000/svg" xmlns:xlink="http://www.w3.org/1999/xlink" xml:space="preserve" width="24" height="24" fill="none"><defs><linearGradient id="a"><stop offset="0" style="stop-color:#1b1f3b;stop-opacity:1"/><stop offset="1" style="stop-color:#5f5fd3;stop-opacity:1"/></linearGradient><linearGradient xlink:href="#a" id="b" x1="53.196" x2="51.79" y1="93.338" y2="-24.148" gradientTransform="matrix(.24444 0 0 .24444 -.222 -.222)" gradientUnits="userSpaceOnUse"/></defs><path d="M12 1C2 1 1 6 1 12c0 8 3 11 11 11s11-3 11-11c0-6-1-11-11-11Z" style="font-variation-settings:normal;display:inline;opacity:1;vector-effect:none;fill:url(#b);fill-opacity:1;stroke-width:1.11627;stroke-linecap:butt;stroke-linejoin:miter;stroke-miterlimit:4;stroke-dasharray:none;stroke-dashoffset:0;stroke-opacity:1;-inkscape-stroke:none;stop-color:#000;stop-opacity:1"/><path d="M13.88 9.942H3.894c-.096 0-.208-.016-.298.027-.141.067-.143.208-.143.343v5.071c0 .123-.003.253.114.328.158.1.46.043.641.043H13.581c.193 0 .53.064.698-.043.15-.096.114-.303.114-.456v-1.21h5.513c.152 0 .375.04.513-.035.133-.074.128-.218.128-.35V8.617c0-.12.008-.252-.1-.333-.111-.082-.283-.052-.413-.052h-5.641c-.134 0-.315-.032-.426.063-.123.106-.087.306-.087.45v1.197m2.18 1.923v-1.453c-.088 0-.233.027-.31-.019-.077-.045-.077-.372-.012-.428.057-.05.195-.023.265-.023h.612c.07 0 .192-.024.253.015.079.05.073.359.012.42-.08.08-.26-.023-.321.068-.044.065-.015.218-.015.295v.769c0 .082-.032.253.015.323.063.095.263-.012.35.06.062.05.063.368 0 .42-.06.05-.206.023-.28.023h-.655c-.07 0-.203.025-.264-.017-.065-.044-.062-.38-.002-.427.077-.06.259-.026.352-.026m2.307-.556v-1.111c0-.064-.014-.153.02-.211.045-.08.434-.081.46.013.04.145.005.347.005.497v1.083c0 .209.052.496-.005.696-.014.052-.063.057-.11.059-.1.003-.358.044-.43-.035-.077-.082-.113-.259-.153-.364-.106-.283-.193-.606-.342-.869-.055.229-.014.506-.014.74 0 .114.052.406-.023.495-.058.069-.417.064-.453-.025-.055-.137-.009-.379-.009-.526v-1.21c0-.14-.056-.435.015-.554.047-.08.416-.07.496-.035.093.041.132.27.164.36.076.22.16.436.237.655.037.107.067.257.142.342m-4.487-.854v4.43l-.014.333-.142.023H4.137l-.148-.015-.023-.256v-4.259l.023-.242.19-.014h9.701m-8.587 1.21c-.072.043-.077.376-.02.433.098.1.43-.073.493.07.051.112.009.329.009.452v.926c0 .13-.03.302.006.427.03.101.353.105.432.057.096-.059.046-.357.046-.456 0-.45-.02-.904 0-1.353.011-.243.485.033.524-.171.015-.079.036-.32-.03-.376-.068-.057-.252-.023-.337-.023h-.798c-.087 0-.248-.03-.325.015m1.88-.004c-.07.031-.045.156-.045.217v.641c0 .316-.068.723.026 1.026.14.458.679.63 1.1.469.66-.253.484-1.134.484-1.694v-.456c0-.055.013-.135-.025-.18-.054-.067-.295-.044-.374-.032-.144.023-.085.374-.085.483v.854c0 .126.028.293-.013.413-.052.156-.236.22-.386.19-.124-.022-.23-.103-.252-.232-.024-.136-.005-.29-.005-.428v-.854c0-.1.038-.295-.014-.383-.044-.075-.338-.067-.41-.034m2.433 1.115h.028c.068.29.216.576.322.854.042.11.075.293.158.379.072.074.508.072.54-.037.046-.161.006-.388.006-.555v-1.582c0-.047.012-.123-.025-.16-.059-.059-.412-.054-.439.034-.036.118-.006.288-.006.411v.898c-.08-.049-.1-.187-.131-.27-.095-.25-.185-.504-.273-.756-.03-.086-.07-.307-.167-.336-.08-.023-.43-.044-.48.029-.03.042-.018.116-.018.165v1.638c0 .138-.047.384.011.51.037.078.415.079.451 0 .038-.084.009-.234.009-.325 0-.283-.052-.623.014-.897m1.485-1.115c-.072.033-.046.168-.046.231V13.674c0 .08-.039.303.034.354.054.036.16.016.222.016h.555c.13 0 .429.056.537-.016.065-.044.062-.413-.012-.445-.15-.066-.445-.009-.61-.009-.067 0-.184.022-.234-.034-.045-.053-.022-.172-.022-.236 0-.051-.013-.122.008-.17.026-.058.11-.044.163-.044h.498c.062 0 .173.02.195-.059.02-.07.037-.365-.028-.409-.104-.069-.385-.016-.509-.016-.094 0-.315.046-.327-.086-.007-.083-.034-.299.022-.364.039-.044.11-.035.163-.035h.413c.067 0 .242.032.284-.033.04-.058.042-.38-.018-.42-.07-.047-.227-.017-.309-.017h-.684c-.084 0-.218-.025-.295.01z" style="fill:#37c8ab;stroke:none;stroke-width:.0142448"/></svg>