<svg xmlns="http://www.w3.org/2000/svg" width="24" height="24" viewBox="0 0 6.35 6.35"><defs><radialGradient id="a" cx="0" cy="0" r="1" gradientTransform="matrix(0 16.5 -16.5 0 9 .75)" gradientUnits="userSpaceOnUse"><stop offset="0" stop-color="#8fc8ff"/><stop offset="1" stop-color="#0056a8"/></radialGradient></defs><path fill="url(#a)" fill-rule="evenodd" d="M7.195.836c.09 0 .176-.012.258-.035a23.86 23.86 0 0 1 3.231.008 10.26 10.26 0 0 1 2.836.636c1.519.625 2.558 1.711 3.121 3.254.316.93.507 1.887.566 2.867a21.227 21.227 0 0 1-.086 3.696 8.976 8.976 0 0 1-.672 2.488c-.637 1.383-1.672 2.336-3.101 2.859a11.693 11.693 0 0 1-3.575.618 15.998 15.998 0 0 1-4.089-.309c-2.481-.551-4.016-2.066-4.594-4.543a14.244 14.244 0 0 1-.336-3.383c-.027-1.211.101-2.41.387-3.59.609-2.312 2.078-3.746 4.406-4.3A10.27 10.27 0 0 1 7.195.836Z" transform="scale(.35278)"/><path fill="#ccc" d="M4.914 4.663a1.47 1.47 0 0 1-.473-.112c-.074-.034-.127-.04-.319-.044-.406-.006-.684-.108-.931-.343-.579-.55-.245-1.392.622-1.57.372-.076.774.006 1.071.218a.9.9 0 0 1 .323.38c.065.133.085.27.085.35a.734.734 0 0 1-.076.33 1.07 1.07 0 0 1-.374.425l-.043.029.038.074a.792.792 0 0 0 .143.17.598.598 0 0 1 .098.1 1.425 1.425 0 0 1-.164-.007z"/><path fill="#002b44" d="M1.323 4.374c0-.01.006-.019.014-.019.035 0 .22-.184.284-.283a.832.832 0 0 0 .07-.122.47.47 0 0 0-.1-.082 1.68 1.68 0 0 1-.383-.4c-.235-.4-.19-.88.115-1.247.648-.78 2.105-.706 2.641.132a.576.576 0 0 1 .066.123c0 .01-.036.019-.08.019-.124 0-.355.066-.525.15a1.112 1.112 0 0 0-.3.213c-.231.222-.325.45-.305.751a.81.81 0 0 0 .14.424c.033.048.056.09.053.093-.022.022-.3.047-.493.044-.225-.003-.233-.002-.387.062-.086.036-.24.082-.34.102-.236.046-.47.066-.47.04z"/><g fill="#002b44" stroke-width="3.396" transform="matrix(.01184 0 0 .01184 3.097 2.6)"><path d="M61.446 74.04c-9.916-5.704-15.621.442-16.606 1.427s-21.09 26.184-17.863-21.735c0 0-7.098 7.743-7.54 26.116-.44 18.373 11.377 19.493 11.377 19.493s5.23 1.325 15.588-9.882 11.071-10.732 11.071-10.732 2.954-2.071 3.396 3.125c.441 5.196 1.46 20.92-14.365 29.443-15.826 8.524-23.5-12.327-23.5-12.327s1.969 31.311 26.726 27.168 23.772-32.874 23.772-32.874a23.093 23.093 0 0 0-12.056-19.221z" class="cls-6"/><ellipse cx="63.969" cy="73.936" class="cls-6" rx="11.207" ry="8.422" transform="rotate(-12.08)"/><path d="M90.822 77.131a8.592 8.592 0 0 0-16.98 1.325 7.777 7.777 0 0 0 .374 1.97s5.026 19.866 31.888 20.376c-.136.136-15.655-10.97-15.282-23.67zM138.26 65.653s-5.23-1.325-15.588 9.882-11.071 10.731-11.071 10.731-2.955 2.072-3.396-3.124c-.442-5.196-1.46-20.92 14.365-29.443 15.826-8.525 23.5 12.327 23.5 12.327s-1.97-31.311-26.726-27.168C94.587 43 95.571 71.8 95.571 71.8a23.127 23.127 0 0 0 11.887 19.221c9.916 5.705 15.621-.475 16.606-1.46s21.09-26.184 17.863 21.7c0 0 7.098-7.709 7.54-26.081.44-18.373-11.207-19.527-11.207-19.527z" class="cls-6"/></g><g fill="#fff" transform="translate(.923 1.402) scale(.13022)"><circle cx="12.451" cy="11.706" r="1.602"/><circle cx="7.648" cy="11.706" r="1.602"/><path d="M17.255 10.104a1.602 1.602 0 0 0-1.602 1.602 1.602 1.602 0 0 0 .167.711 9.34 9.34 0 0 1 1.094-1.233c.38-.363.722-.654 1.066-.906a1.602 1.602 0 0 0-.725-.174z"/></g></svg>