<svg xmlns="http://www.w3.org/2000/svg" xmlns:xlink="http://www.w3.org/1999/xlink" xml:space="preserve" id="svg154" width="24" height="24" fill="none" version="1.1"><defs id="defs152"><linearGradient id="linearGradient6999"><stop id="stop6997" offset="0" style="stop-color:#000;stop-opacity:1"/></linearGradient><linearGradient id="linearGradient6993"><stop id="stop6991" offset="0" style="stop-color:#fff;stop-opacity:1"/></linearGradient><linearGradient id="linearGradient5512"><stop id="stop5508" offset="0" style="stop-color:#19a498;stop-opacity:1"/><stop id="stop5510" offset="1" style="stop-color:#5fd3bc;stop-opacity:1"/></linearGradient><linearGradient id="a" x1="16.942" x2="85.671" y1="83.36" y2="89.583" gradientUnits="userSpaceOnUse"><stop id="stop800" offset="0" stop-color="#f32b44"/><stop id="stop802" offset=".6" stop-color="#a4070a"/></linearGradient><linearGradient id="b"><stop id="stop805" offset="0" stop-opacity=".4"/><stop id="stop807" offset="1" stop-opacity="0"/></linearGradient><linearGradient id="d" x1="44.738" x2="-5.901" y1="-3.312" y2="71.527" gradientUnits="userSpaceOnUse"><stop id="stop811" offset="0" stop-color="#800600"/><stop id="stop813" offset=".6" stop-color="#c72127"/><stop id="stop815" offset=".728" stop-color="#c13959"/><stop id="stop817" offset=".847" stop-color="#bc4b81"/><stop id="stop819" offset=".942" stop-color="#b95799"/><stop id="stop821" offset="1" stop-color="#b85ba2"/></linearGradient><linearGradient id="f" x1="61.486" x2="61.486" y1="-4.887" y2="88.781" gradientUnits="userSpaceOnUse"><stop id="stop825" offset="0" stop-color="#ffb900"/><stop id="stop827" offset=".166" stop-color="#ef8400"/><stop id="stop829" offset=".313" stop-color="#e25c01"/><stop id="stop831" offset=".429" stop-color="#db4401"/><stop id="stop833" offset=".5" stop-color="#d83b01"/></linearGradient><linearGradient xlink:href="#linearGradient5512" id="linearGradient5514" x1="10.625" x2="9.875" y1="41" y2="-2.125" gradientUnits="userSpaceOnUse"/><linearGradient xlink:href="#linearGradient6993" id="linearGradient6995" x1=".951" x2="23.174" y1="31.437" y2="31.437" gradientTransform="translate(.065 -19.848)" gradientUnits="userSpaceOnUse"/><linearGradient xlink:href="#linearGradient6993" id="linearGradient7001" x1=".951" x2="23.174" y1="31.437" y2="31.437" gradientTransform="translate(.065 -19.848)" gradientUnits="userSpaceOnUse"/><linearGradient xlink:href="#linearGradient5512" id="linearGradient8195" x1="10.625" x2="9.875" y1="41" y2="-2.125" gradientUnits="userSpaceOnUse"/><style id="current-color-scheme" type="text/css">.ColorScheme-Text{color:#31363b}.ColorScheme-Background{color:#eff0f1}.ColorScheme-Highlight{color:#3daee9}.ColorScheme-ViewText{color:#31363b}.ColorScheme-ViewBackground{color:#fcfcfc}.ColorScheme-ViewHover{color:#93cee9}.ColorScheme-ViewFocus{color:#3daee9}.ColorScheme-ButtonText{color:#31363b}.ColorScheme-ButtonBackground{color:#eff0f1}.ColorScheme-ButtonHover{color:#93cee9}.ColorScheme-ButtonFocus{color:#3daee9}</style></defs><g id="g2267" style="fill:url(#linearGradient5514);fill-opacity:1"><path id="path6" d="M50 5C9.09 5 5 25.455 5 50c0 32.727 12.273 45 45 45 32.727 0 45-12.273 45-45 0-24.545-4.09-45-45-45Z" style="font-variation-settings:normal;display:inline;opacity:1;vector-effect:none;fill:url(#linearGradient8195);fill-opacity:1;stroke-width:4.56656;stroke-linecap:butt;stroke-linejoin:miter;stroke-miterlimit:4;stroke-dasharray:none;stroke-dashoffset:0;stroke-opacity:1;-inkscape-stroke:none;stop-color:#000;stop-opacity:1" transform="translate(-.222 -.222) scale(.24444)"/></g><path id="path5422" d="M12.862 5.394c-1.722.008-3.548.793-5.017 2.38-1.63 1.759-1.794 2.373-1.868 6.968l-.058 3.853 1.205-.05 1.205-.053.09-3.715c.087-3.659.095-3.726.574-4.541.632-1.075 1.598-1.859 2.686-2.184 1.134-.338 1.622-.322 2.503.079 1.894.86 2.095 3.724.336 4.78-1.206.726-2.28.58-2.175-.294.03-.251.174-.511.32-.578 1.089-.5 1.341-.69 1.49-1.114.136-.384.096-.578-.193-.966-.476-.64-1.257-.712-2.291-.211-1.884.911-2.372 3.325-1.004 4.95.662.788 1.307 1.052 2.572 1.052 1.894 0 3.415-.99 4.418-2.877.58-1.09.572-3.424-.014-4.551-1.012-1.948-2.827-2.936-4.779-2.928zm.137.473c1.18-.011 2.001.27 2.894.951 2.208 1.686 2.439 5.181.471 7.148-2.362 2.362-6 1.589-6-1.275 0-1.354.788-2.466 1.979-2.787 1.626-.438 2.12 1.095.507 1.578-.51.153-.743.333-.818.631-.565 2.25 2.627 2.19 3.77-.07.48-.95.5-1.8.066-2.756-.639-1.407-1.818-1.998-3.562-1.791-1.651.195-3.15 1.354-3.924 3.037-.372.807-.412 1.18-.465 4.289l-.055 3.404H6.296v-2.998c0-1.649.09-3.42.197-3.935.623-2.979 3.078-5.2 5.977-5.405.184-.013.36-.02.529-.021z" style="fill:url(#linearGradient6995);fill-opacity:1;stroke:url(#linearGradient7001);stroke-width:.477;stroke-dasharray:none"/></svg>