<svg xmlns="http://www.w3.org/2000/svg" xmlns:xlink="http://www.w3.org/1999/xlink" xml:space="preserve" id="svg154" width="24" height="24" fill="none" version="1.1"><defs id="defs152"><linearGradient id="linearGradient12456"><stop id="stop12454" offset="0" style="stop-color:#000;stop-opacity:1"/></linearGradient><linearGradient id="linearGradient10488"><stop id="stop10486" offset="0" style="stop-color:#000;stop-opacity:1"/></linearGradient><linearGradient id="linearGradient10413"><stop id="stop10411" offset="0" style="stop-color:#000;stop-opacity:1"/></linearGradient><linearGradient id="linearGradient5358"><stop id="stop5354" offset="0" style="stop-color:#e6e6e6;stop-opacity:1"/><stop id="stop5356" offset="1" style="stop-color:#fff;stop-opacity:1"/></linearGradient><linearGradient xlink:href="#linearGradient5358" id="linearGradient5360" x1="13.523" x2="13.744" y1="34.648" y2="-9.855" gradientUnits="userSpaceOnUse"/><linearGradient xlink:href="#linearGradient5358" id="linearGradient13399" x1="13.523" x2="13.744" y1="34.648" y2="-9.855" gradientUnits="userSpaceOnUse"/><style id="current-color-scheme" type="text/css">.ColorScheme-Text{color:#31363b}.ColorScheme-Background{color:#eff0f1}.ColorScheme-Highlight{color:#3daee9}.ColorScheme-ViewText{color:#31363b}.ColorScheme-ViewBackground{color:#fcfcfc}.ColorScheme-ViewHover{color:#93cee9}.ColorScheme-ViewFocus{color:#3daee9}.ColorScheme-ButtonText{color:#31363b}.ColorScheme-ButtonBackground{color:#eff0f1}.ColorScheme-ButtonHover{color:#93cee9}.ColorScheme-ButtonFocus{color:#3daee9}</style></defs><g id="g2267" style="fill:url(#linearGradient5360);fill-opacity:1"><path id="path6" d="M50 5C9.09 5 5 25.455 5 50c0 32.727 12.273 45 45 45 32.727 0 45-12.273 45-45 0-24.545-4.09-45-45-45Z" style="font-variation-settings:normal;display:inline;opacity:1;vector-effect:none;fill:url(#linearGradient13399);fill-opacity:1;stroke-width:4.56656;stroke-linecap:butt;stroke-linejoin:miter;stroke-miterlimit:4;stroke-dasharray:none;stroke-dashoffset:0;stroke-opacity:1;-inkscape-stroke:none;stop-color:#000;stop-opacity:1" transform="matrix(.24444 0 0 .24444 -.222 -.222)"/></g><path id="path9273" d="M13.062 3.13v.36a4.69 4.69 0 0 0 4.7 4.7H28.6a4.69 4.69 0 0 0 4.699-4.7v-.36a4.688 4.688 0 0 1-4.7 4.697H17.763a4.689 4.689 0 0 1-4.7-4.698Z" opacity=".1" style="stroke-width:.361355"/><path id="path1073" d="M11.747 4.103c-.255.034-.516.03-.772.061-.45.056-.894.158-1.328.29-1.875.564-3.51 1.887-4.49 3.575-1.302 2.245-1.396 5-.317 7.35a7.64 7.64 0 0 0 1.166 1.79 7.954 7.954 0 0 0 1.981 1.652c.663.39 1.388.695 2.139.868a8.139 8.139 0 0 0 2.825.165 7.93 7.93 0 0 0 2.717-.846c2.513-1.325 4.16-3.963 4.23-6.802.053-2.142-.787-4.3-2.323-5.805a8.093 8.093 0 0 0-3.134-1.915 8.057 8.057 0 0 0-1.984-.371c-.229-.016-.482-.042-.71-.012m.154 3.86c.203-.025.433.018.625.082.232.076.445.2.626.364.665.602.725 1.67.155 2.353a1.696 1.696 0 0 1-1.105.6 1.76 1.76 0 0 1-.772-.08c-1.008-.359-1.45-1.579-.9-2.496.115-.192.266-.357.445-.49.277-.208.589-.294.926-.334m-.162 4.408c.319-.038.672 0 .988.042.64.083 1.28.25 1.853.552.324.17.633.378.869.662.15.18.266.4.3.633.021.137.012.279.012.417 0 .187.016.38-.032.564-.119.45-.511.746-.964.8-.15.018-.312.002-.463.002H9.693c-.302 0-.587.005-.857-.154-.25-.149-.443-.4-.501-.687-.031-.15-.023-.303-.023-.456 0-.16-.013-.327.01-.486.042-.278.191-.528.377-.733.58-.643 1.535-.958 2.368-1.087.224-.034.448-.043.672-.069z" style="fill:#1972e6;stroke:none;stroke-width:.00771959"/></svg>