<svg xmlns="http://www.w3.org/2000/svg" xml:space="preserve" width="24" height="24" fill="none"><defs><clipPath id="b" clipPathUnits="userSpaceOnUse"><path d="M11.684 8.551h2.898v3.398h-2.898z"/></clipPath><clipPath id="c" clipPathUnits="userSpaceOnUse"><path d="M0 0h19v19H0Z"/></clipPath><clipPath id="d" clipPathUnits="userSpaceOnUse"><path d="M3.43 4.695h11.152v6.766H3.43Z"/></clipPath><clipPath id="e" clipPathUnits="userSpaceOnUse"><path d="M0 0h19v19H0Z"/></clipPath><clipPath id="f" clipPathUnits="userSpaceOnUse"><path d="M3.43 10.438h11.152v2.867H3.43Z"/></clipPath><clipPath id="g" clipPathUnits="userSpaceOnUse"><path d="M0 0h19v19H0Z"/></clipPath><clipPath id="h" clipPathUnits="userSpaceOnUse"><path d="M3.418 8.551h2.926v3.398H3.418Z"/></clipPath><clipPath id="i" clipPathUnits="userSpaceOnUse"><path d="M0 0h19v19H0Z"/></clipPath><linearGradient id="a" x1="48.82" x2="49" y1="109.567" y2="-8.854" gradientTransform="matrix(.18333 0 0 .18333 -.167 -.167)" gradientUnits="userSpaceOnUse" spreadMethod="pad"><stop offset="0" style="stop-opacity:1;stop-color:#5500d4"/><stop offset="1" style="stop-opacity:1;stop-color:#8d5fd3"/></linearGradient></defs><path d="M9 .75C1.5.75.75 4.5.75 9 .75 15 3 17.25 9 17.25S17.25 15 17.25 9C17.25 4.5 16.5.75 9 .75Z" style="fill:url(#a);stroke:none" transform="scale(1.33333)"/><g clip-path="url(#b)" transform="scale(1.33333)"><g clip-path="url(#c)"><path d="M14.57 11.941v-3.39l-2.875 1.695z" style="fill:#fff;fill-opacity:1;fill-rule:nonzero;stroke:none"/></g></g><g clip-path="url(#d)" transform="scale(1.33333)"><g clip-path="url(#e)"><path d="M13.41 7.148 9 4.695 4.59 7.148c-.098.051-.168.098-.254.133-.434.231-.836.438-.883.86l3.289 1.949L9 11.418l2.258-1.328 3.301-1.949c-.047-.411-.461-.629-.883-.86-.082-.035-.168-.07-.266-.133Zm-2.73 2.313c-.11.109-.242.203-.399.289a2.898 2.898 0 0 1-.508.18 3.026 3.026 0 0 1-.617.062c-.324 0-.629-.047-.894-.133a1.936 1.936 0 0 1-.676-.375 1.693 1.693 0 0 1-.41-.593 1.913 1.913 0 0 1-.145-.75c0-.289.047-.555.145-.809.097-.254.23-.473.41-.656.18-.18.398-.324.664-.434.266-.109.543-.156.859-.156.254 0 .496.035.7.109.218.071.398.18.558.325.156.144.266.304.348.496.086.195.121.398.121.64a1.545 1.545 0 0 1-.375 1.004 1.636 1.636 0 0 1-.422.328c-.168.086-.34.121-.531.121a.457.457 0 0 1-.254-.062c-.063-.035-.098-.094-.121-.18a.743.743 0 0 1-.41.219.8.8 0 0 1-.45-.039.628.628 0 0 1-.324-.289.989.989 0 0 1-.133-.52c0-.218.047-.422.133-.629a1.36 1.36 0 0 1 .387-.507.898.898 0 0 1 .566-.196c.243 0 .426.098.532.278l.05-.227h.532l-.305 1.449c-.023.098-.023.16-.023.184 0 .035.011.058.023.07.016.012.039.028.062.028.075 0 .168-.051.278-.149.121-.094.219-.23.301-.387.086-.168.132-.336.132-.543a1.26 1.26 0 0 0-.093-.461 1.064 1.064 0 0 0-.266-.375 1.043 1.043 0 0 0-.437-.242 1.772 1.772 0 0 0-.579-.082c-.218 0-.421.024-.605.082-.18.063-.352.145-.484.242-.145.11-.254.243-.348.399a1.792 1.792 0 0 0-.254.969c0 .23.047.449.144.64.098.196.231.352.399.485.18.132.387.218.641.277.253.062.531.062.843.039.254-.027.461-.086.641-.172.172-.082.328-.203.449-.351h.434a1.34 1.34 0 0 1-.289.402z" style="fill:#fff;fill-opacity:1;fill-rule:nonzero;stroke:none"/></g><path d="M9.23 7.414a.343.343 0 0 0-.121-.094.309.309 0 0 0-.156-.039.467.467 0 0 0-.328.145.94.94 0 0 0-.219.363c-.047.145-.07.305-.07.461 0 .156.035.289.098.375.07.086.156.133.265.133a.418.418 0 0 0 .336-.156.916.916 0 0 0 .219-.387c.047-.16.074-.305.074-.449 0-.071-.016-.133-.027-.192a.332.332 0 0 0-.071-.16Z" style="fill:#fff;fill-opacity:1;fill-rule:nonzero;stroke:none"/></g><g clip-path="url(#f)" transform="scale(1.33333)"><g clip-path="url(#g)"><path d="M9.098 11.77c-.051.035-.121.035-.184 0l-2.258-1.329-3.215 1.899c.024.254.133.484.313.652.195.192.461.313.75.313h9.004a1.073 1.073 0 0 0 1.062-.965l-3.226-1.899z" style="fill:#fff;fill-opacity:1;fill-rule:nonzero;stroke:none"/></g></g><g clip-path="url(#h)" transform="scale(1.33333)"><g clip-path="url(#i)"><path d="M3.43 8.551v3.39l2.875-1.695z" style="fill:#fff;fill-opacity:1;fill-rule:nonzero;stroke:none"/></g></g></svg>