<svg xmlns="http://www.w3.org/2000/svg" xmlns:xlink="http://www.w3.org/1999/xlink" xml:space="preserve" width="24" height="24" fill="none"><defs><clipPath id="c"><path d="M78 11.46h77V150H78Zm0 0"/></clipPath><clipPath id="d"><path d="M44.906 88h143.922v125.852H44.906Zm0 0"/></clipPath><radialGradient xlink:href="#a" id="b" cx="1627.053" cy="98.894" r="45" fx="1627.053" fy="98.894" gradientTransform="matrix(-.00625 -.83611 .24444 -.00182 -1.723 1393.672)" gradientUnits="userSpaceOnUse"/><linearGradient id="a"><stop offset="0" style="stop-color:#ececec;stop-opacity:1"/><stop offset="1" style="stop-color:#e6e6e6;stop-opacity:1"/></linearGradient></defs><path d="M12 1C2 1 1 6 1 12c0 8 3 11 11 11s11-3 11-11c0-6-1-11-11-11Z" style="font-variation-settings:normal;display:inline;opacity:1;vector-effect:none;fill:url(#b);fill-opacity:1;stroke-width:1.11627;stroke-linecap:butt;stroke-linejoin:miter;stroke-miterlimit:4;stroke-dasharray:none;stroke-dashoffset:0;stroke-opacity:1;-inkscape-stroke:none;stop-color:#000;stop-opacity:1"/><g clip-path="url(#c)" transform="matrix(.07945 0 0 .07945 2.715 3.053)"><path fill="#2196f3" d="M154.965 111.383V49.586c0-1.25-.063-2.496-.184-3.742a37.122 37.122 0 0 0-.55-3.703 37.39 37.39 0 0 0-.907-3.633 37.112 37.112 0 0 0-1.262-3.528 37.18 37.18 0 0 0-1.597-3.386 37.836 37.836 0 0 0-6.66-8.996 38.116 38.116 0 0 0-8.98-6.676 39.277 39.277 0 0 0-3.38-1.602 38.489 38.489 0 0 0-3.52-1.261 39.98 39.98 0 0 0-3.624-.91 38.204 38.204 0 0 0-14.867 0c-1.223.246-2.434.55-3.625.91a38.49 38.49 0 0 0-3.52 1.261 39.914 39.914 0 0 0-3.383 1.602 38.114 38.114 0 0 0-6.207 4.16 36.715 36.715 0 0 0-2.77 2.516 37.833 37.833 0 0 0-6.66 8.996 38.29 38.29 0 0 0-1.601 3.386 38.576 38.576 0 0 0-2.168 7.16 38.283 38.283 0 0 0-.73 7.446v61.797a38.589 38.589 0 0 0 .73 7.449 38.576 38.576 0 0 0 2.168 7.16 39.365 39.365 0 0 0 1.602 3.387 37.086 37.086 0 0 0 1.921 3.21 37.135 37.135 0 0 0 2.227 3.009 37.55 37.55 0 0 0 2.512 2.777 38.066 38.066 0 0 0 5.773 4.746 38 38 0 0 0 3.203 1.926 38.493 38.493 0 0 0 6.902 2.863c1.192.363 2.403.668 3.626.91 1.226.243 2.457.426 3.699.551 1.242.121 2.488.184 3.734.184s2.492-.063 3.735-.184a39.464 39.464 0 0 0 3.699-.55 37.543 37.543 0 0 0 3.625-.91 38.143 38.143 0 0 0 15.879-9.535 38.444 38.444 0 0 0 4.738-5.786 38.192 38.192 0 0 0 3.52-6.598 37.901 37.901 0 0 0 2.167-7.16c.247-1.227.43-2.46.551-3.707a38.59 38.59 0 0 0 .184-3.742zm-66.52 0v-3.43H98.93c.32 0 .633-.027.945-.09a4.86 4.86 0 0 0 3.527-2.902 4.85 4.85 0 0 0 .274-2.797 4.888 4.888 0 0 0-.274-.91 4.891 4.891 0 0 0-1.05-1.574 4.743 4.743 0 0 0-.735-.602 4.78 4.78 0 0 0-2.687-.816H88.445v-12.93H98.93a4.85 4.85 0 0 0 1.852-.367c.292-.125.573-.274.835-.45a4.743 4.743 0 0 0 1.336-1.335c.176-.266.324-.547.45-.84a4.888 4.888 0 0 0 0-3.711 5.216 5.216 0 0 0-.45-.836 4.529 4.529 0 0 0-.601-.734 4.767 4.767 0 0 0-1.57-1.051 4.86 4.86 0 0 0-1.852-.371H88.445V62.71H98.93a4.789 4.789 0 0 0 1.851-.371c.293-.121.574-.27.836-.45a4.703 4.703 0 0 0 1.336-1.336c.176-.265.324-.542.45-.835a4.978 4.978 0 0 0 .366-1.856 4.888 4.888 0 0 0-.367-1.855 4.891 4.891 0 0 0-1.05-1.574 4.743 4.743 0 0 0-.735-.602 5.054 5.054 0 0 0-.836-.45 4.85 4.85 0 0 0-1.851-.366H88.445v-3.43c0-.934.047-1.863.137-2.79.094-.929.23-1.85.41-2.765.184-.914.41-1.816.68-2.707a28.587 28.587 0 0 1 5.227-9.797 28.54 28.54 0 0 1 8.574-7.047 29.7 29.7 0 0 1 2.52-1.195c.859-.355 1.734-.668 2.624-.937.89-.274 1.793-.5 2.707-.68.91-.184 1.832-.32 2.758-.41a28.84 28.84 0 0 1 2.785-.137c.93 0 1.86.047 2.785.137.926.09 1.844.226 2.758.41.914.18 1.817.406 2.707.68.89.27 1.766.582 2.625.937.86.36 1.7.758 2.52 1.195.82.442 1.617.918 2.39 1.438a28.398 28.398 0 0 1 10.469 12.773c.36.864.672 1.739.942 2.633.269.89.496 1.793.68 2.707.179.914.316 1.836.41 2.766.09.926.136 1.855.136 2.789v3.43h-10.484a4.85 4.85 0 0 0-2.691.816 4.903 4.903 0 0 0-1.333 1.336 4.959 4.959 0 0 0-.449.84 4.888 4.888 0 0 0 0 3.71 4.923 4.923 0 0 0 1.05 1.571c.223.227.47.426.731.602.266.18.543.328.84.449a4.86 4.86 0 0 0 1.852.37h10.484v12.927h-10.484a4.789 4.789 0 0 0-1.852.37c-.297.122-.574.27-.84.446a4.93 4.93 0 0 0-1.781 2.176 4.979 4.979 0 0 0-.367 1.855 4.888 4.888 0 0 0 .367 1.855 4.891 4.891 0 0 0 1.781 2.176c.266.176.543.325.84.45a4.85 4.85 0 0 0 1.852.367h10.484v12.93h-10.484a4.85 4.85 0 0 0-2.691.816 4.903 4.903 0 0 0-1.333 1.336 4.959 4.959 0 0 0-.449.84 4.888 4.888 0 0 0 0 3.707c.121.297.273.574.45.84.175.265.374.508.6.734.223.227.47.426.731.602a4.86 4.86 0 0 0 1.746.727c.313.062.625.09.946.09h10.484v3.429c0 .933-.047 1.863-.137 2.793-.093.926-.23 1.847-.41 2.761a29.57 29.57 0 0 1-.68 2.711 28.658 28.658 0 0 1-2.133 5.156c-.437.82-.917 1.622-1.433 2.395-.52.778-1.07 1.524-1.664 2.242a27.693 27.693 0 0 1-1.871 2.07c-.66.66-1.348 1.286-2.066 1.88a28.454 28.454 0 0 1-12.485 5.914c-.914.18-1.832.316-2.758.406a27.66 27.66 0 0 1-5.57 0 28.42 28.42 0 0 1-2.758-.406 28.364 28.364 0 0 1-7.852-2.816 29.155 29.155 0 0 1-2.394-1.434 28.535 28.535 0 0 1-4.305-3.543 27.744 27.744 0 0 1-1.875-2.07 28.515 28.515 0 0 1-3.094-4.637 28.658 28.658 0 0 1-1.19-2.528c-.36-.86-.673-1.738-.942-2.629a29.568 29.568 0 0 1-.68-2.71 29.977 29.977 0 0 1-.41-2.762c-.09-.93-.137-1.86-.137-2.793zm0 0"/></g><g clip-path="url(#d)" transform="matrix(.07945 0 0 .07945 2.715 3.053)"><path fill="#2196f3" d="M49.742 88.969c-.316 0-.633.031-.941.09a4.9 4.9 0 0 0-.91.277c-.293.121-.57.27-.836.45a4.96 4.96 0 0 0-1.336 1.336 4.796 4.796 0 0 0-.446.839 4.574 4.574 0 0 0-.273.906 4.818 4.818 0 0 0-.094.945v9.09c.004 2.258.11 4.512.324 6.762.215 2.25.536 4.48.958 6.7a72.346 72.346 0 0 0 3.766 12.988 74.069 74.069 0 0 0 2.776 6.171 72.789 72.789 0 0 0 7.22 11.426 71.62 71.62 0 0 0 4.378 5.156 70.83 70.83 0 0 0 4.844 4.723 71.206 71.206 0 0 0 5.262 4.246A72.13 72.13 0 0 0 86.028 168a71.868 71.868 0 0 0 6.23 2.613c2.12.778 4.27 1.45 6.449 2.02a71.878 71.878 0 0 0 13.32 2.184v29.265H76.352a4.85 4.85 0 0 0-1.852.367 4.934 4.934 0 0 0-1.57 1.05 4.796 4.796 0 0 0-1.047 1.574 4.62 4.62 0 0 0-.278.911 4.76 4.76 0 0 0 0 1.891c.063.312.153.613.278.906a4.796 4.796 0 0 0 1.781 2.176 4.86 4.86 0 0 0 1.742.727c.313.058.625.09.946.09h82.675c.317 0 .633-.032.946-.09a4.86 4.86 0 0 0 3.078-2.063c.176-.266.324-.543.445-.84a4.818 4.818 0 0 0 0-3.707 4.796 4.796 0 0 0-1.781-2.176 4.78 4.78 0 0 0-2.688-.816h-37.324v-29.266a71.808 71.808 0 0 0 19.774-4.203 71.869 71.869 0 0 0 12.191-5.804 71.01 71.01 0 0 0 5.633-3.735 71.207 71.207 0 0 0 5.262-4.246 71.737 71.737 0 0 0 9.222-9.879 72.79 72.79 0 0 0 7.219-11.426 72.777 72.777 0 0 0 4.96-12.578 71.696 71.696 0 0 0 1.583-6.582 72.95 72.95 0 0 0 .957-6.699c.215-2.25.32-4.504.324-6.762v-9.09a4.85 4.85 0 0 0-.816-2.691 4.703 4.703 0 0 0-.602-.734 4.674 4.674 0 0 0-.73-.602 4.662 4.662 0 0 0-.836-.45 4.99 4.99 0 0 0-.91-.276 5.09 5.09 0 0 0-.942-.09 5.1 5.1 0 0 0-.945.09 4.86 4.86 0 0 0-3.8 3.808 4.818 4.818 0 0 0-.095.945v9.09a62.615 62.615 0 0 1-1.199 12.172 61.927 61.927 0 0 1-1.488 5.938 61.307 61.307 0 0 1-2.059 5.765 62.667 62.667 0 0 1-5.757 10.785 62.135 62.135 0 0 1-3.641 4.915 61.91 61.91 0 0 1-8.633 8.648 62.895 62.895 0 0 1-4.91 3.648 62.434 62.434 0 0 1-16.52 7.825 62.069 62.069 0 0 1-11.976 2.386c-2.027.2-4.063.301-6.102.301a61.913 61.913 0 0 1-12.148-1.2 62.07 62.07 0 0 1-11.684-3.55 61.47 61.47 0 0 1-5.523-2.617 61.812 61.812 0 0 1-10.153-6.793 61.911 61.911 0 0 1-8.633-8.648 62.133 62.133 0 0 1-6.784-10.168 62.668 62.668 0 0 1-2.614-5.532 61.309 61.309 0 0 1-2.058-5.765 62.05 62.05 0 0 1-2.387-11.996c-.2-2.032-.3-4.07-.3-6.114v-9.09a4.818 4.818 0 0 0-.372-1.851 4.804 4.804 0 0 0-2.617-2.625 4.86 4.86 0 0 0-.907-.277 5.1 5.1 0 0 0-.945-.09Zm0 0"/></g></svg>