<svg width="24" height="24" viewBox="0 0 24 24" fill="none" xmlns="http://www.w3.org/2000/svg">
<path fill-rule="evenodd" clip-rule="evenodd" d="M9.59606 1.11359C9.71589 1.11487 9.83044 1.0996 9.9397 1.06779C11.3754 0.973736 12.8111 0.977551 14.2467 1.07924C15.5485 1.18066 16.8085 1.46308 18.0269 1.9265C20.0525 2.76044 21.4386 4.2069 22.1851 6.26586C22.6119 7.50549 22.864 8.78023 22.9411 10.09C23.0478 11.7348 23.0096 13.3758 22.8265 15.0133C22.6895 16.1642 22.3916 17.271 21.933 18.3336C21.0824 20.1761 19.704 21.447 17.7978 22.1463C16.2531 22.6683 14.6646 22.943 13.0325 22.9707C11.1966 23.0662 9.37914 22.9287 7.57998 22.5585C4.26839 21.8208 2.22559 19.8019 1.45158 16.5017C1.12311 15.0161 0.974199 13.5124 1.00483 11.9906C0.968176 10.3724 1.14 8.77708 1.52031 7.20472C2.33171 4.11908 4.2905 2.20701 7.39669 1.46852C8.12049 1.29157 8.85364 1.17326 9.59606 1.11359Z" fill="url(#paint0_linear_18_187)"/>
<path opacity="0.05" d="M4.65399 11.8529C9.15623 9.81292 14.4441 7.59961 15.2584 7.27941C17.0538 6.57329 17.8366 7.29486 17.7141 8.44596C17.5634 9.85653 16.849 13.9613 16.4095 16.9022C16.1522 18.6231 15.2203 19.1503 14.1686 18.4828C13.3708 17.9766 10.6281 16.1806 9.90651 15.5667C9.41461 15.1482 9.07176 14.679 9.42068 14.2009C9.52282 14.0612 9.78395 13.7796 9.92915 13.6394C10.6573 12.9338 10.5591 12.782 9.6785 13.4119C9.57361 13.487 8.96521 13.9281 8.71512 14.0949C8.10231 14.5034 7.53863 14.5255 6.58297 14.2009C5.80122 13.9353 5.05039 13.7305 4.5767 13.5257C3.92248 13.2425 3.67184 12.2978 4.65399 11.8529Z" fill="black"/>
<path opacity="0.07" d="M5.04984 11.9219C9.23021 10.0531 14.3712 7.91154 15.1232 7.60845C16.9252 6.8808 17.5882 7.31253 17.3944 8.71869C17.2144 10.0205 16.5757 14.0485 16.1279 16.7487C15.864 18.3382 15.0933 18.6882 14.0896 18.039C13.4608 17.6337 10.9301 15.9664 10.3162 15.4812C9.84137 15.1063 9.34946 14.6735 9.92418 14.0468C10.1163 13.8376 11.1774 12.8135 11.9708 12.0516C12.4306 11.6094 12.2667 11.3913 11.7118 11.7712C10.6943 12.4684 9.02981 13.5721 8.73279 13.7725C8.1669 14.1534 7.63524 14.245 6.70995 13.9541C5.98065 13.7244 5.27619 13.5019 4.90906 13.3589C4.08866 13.0409 4.07762 12.3564 5.04984 11.9219Z" fill="black"/>
<path d="M5.4457 11.9914C9.30476 10.2938 14.2984 8.22402 14.9879 7.93749C16.796 7.18776 17.3508 7.3313 17.0742 8.99197C16.8755 10.1856 16.3024 14.1368 15.8453 16.5964C15.5742 18.055 14.9658 18.2278 14.0096 17.5967C13.5497 17.2931 11.2282 15.7577 10.7242 15.3972C10.2643 15.0687 9.62994 14.6735 10.4255 13.895C10.7087 13.6179 12.5643 11.8457 14.0102 10.4666C14.1995 10.2855 13.9616 9.98793 13.743 10.1331C11.7941 11.4256 9.09221 13.2193 8.74826 13.4528C8.22875 13.8056 7.72967 13.9673 6.83419 13.7101C6.15733 13.5157 5.49649 13.2839 5.23922 13.1955C4.24823 12.8554 4.48342 12.4149 5.4457 11.9914Z" fill="white"/>
<defs>
<linearGradient id="paint0_linear_18_187" x1="12" y1="1" x2="12" y2="23" gradientUnits="userSpaceOnUse">
<stop stop-color="#33BEF0"/>
<stop offset="1" stop-color="#0A85D9"/>
</linearGradient>
</defs>
</svg>
