<svg xmlns="http://www.w3.org/2000/svg" xmlns:xlink="http://www.w3.org/1999/xlink" xml:space="preserve" id="svg154" width="24" height="24" fill="none" version="1.1"><defs id="defs152"><linearGradient id="linearGradient14314"><stop id="stop14310" offset="0" style="stop-color:#666;stop-opacity:1"/><stop id="stop14312" offset="1" style="stop-color:#ccc;stop-opacity:1"/></linearGradient><linearGradient id="linearGradient6999"><stop id="stop6997" offset="0" style="stop-color:#000;stop-opacity:1"/></linearGradient><linearGradient id="linearGradient6993"><stop id="stop6991" offset="0" style="stop-color:#fff;stop-opacity:1"/></linearGradient><linearGradient xlink:href="#linearGradient14314" id="linearGradient14316" x1="11.515" x2="11.688" y1="69.259" y2="-7" gradientUnits="userSpaceOnUse"/><linearGradient xlink:href="#linearGradient14314" id="linearGradient16003" x1="11.515" x2="11.688" y1="69.259" y2="-7" gradientUnits="userSpaceOnUse"/><style id="current-color-scheme" type="text/css">.ColorScheme-Text{color:#31363b}.ColorScheme-Background{color:#eff0f1}.ColorScheme-Highlight{color:#3daee9}.ColorScheme-ViewText{color:#31363b}.ColorScheme-ViewBackground{color:#fcfcfc}.ColorScheme-ViewHover{color:#93cee9}.ColorScheme-ViewFocus{color:#3daee9}.ColorScheme-ButtonText{color:#31363b}.ColorScheme-ButtonBackground{color:#eff0f1}.ColorScheme-ButtonHover{color:#93cee9}.ColorScheme-ButtonFocus{color:#3daee9}</style></defs><g id="g2267" style="display:inline;fill:url(#linearGradient14316);fill-opacity:1"><path id="path6" d="M50 5C9.09 5 5 25.455 5 50c0 32.727 12.273 45 45 45 32.727 0 45-12.273 45-45 0-24.545-4.09-45-45-45Z" style="font-variation-settings:normal;display:inline;opacity:1;vector-effect:none;fill:url(#linearGradient16003);fill-opacity:1;stroke-width:4.56656;stroke-linecap:butt;stroke-linejoin:miter;stroke-miterlimit:4;stroke-dasharray:none;stroke-dashoffset:0;stroke-opacity:1;-inkscape-stroke:none;stop-color:#000;stop-opacity:1" transform="matrix(.24444 0 0 .24444 -.222 -.222)"/></g><path id="path9273" d="M13.062 3.13v.36a4.69 4.69 0 0 0 4.7 4.7H28.6a4.69 4.69 0 0 0 4.699-4.7v-.36a4.688 4.688 0 0 1-4.7 4.697H17.763a4.689 4.689 0 0 1-4.7-4.698Z" opacity=".1" style="stroke-width:.361355"/><g id="g15837" transform="matrix(.71201 0 0 .71201 2.815 3.904)"><g id="g15832"><path id="path15814" d="M10.865 17.564c.107-.276.639-2.02.639-2.092 0-.045-.338-.252-.75-.459-2.193-1.1-3.725-2.634-4.824-4.831-.171-.343-.337-.64-.367-.66-.071-.047-.449-1.237-.454-1.43a10.61 10.61 0 0 0-.104-.77c-.154-.952-.126-.974.271-.209.202.39.445.791.54.893.094.102.32.378.503.612 1.218 1.565 2.626 2.56 4.423 3.127.666.21 1.642.387 1.798.327.062-.024.255-.509.457-1.149.193-.61.384-1.108.425-1.108.106 0 1.2 1.133 1.557 1.612.255.343 2.753 3.203 3.443 3.942.122.13.203.256.18.28-.024.022-.863.257-1.865.521-1.003.264-1.857.507-1.897.54-.093.076-1.562.46-1.76.46-.08 0-.57.111-1.087.246-1.043.273-1.182.29-1.128.148z" style="fill:#ed5902;stroke-width:.0733333"/></g><path id="path15810" d="M13.307 18.125c-.09-.1-.12-.238-.103-.495l.023-.355.477-.133c.43-.12.812-.132 3.886-.128 2.1.003 3.453-.023 3.52-.067.095-.061.11-.445.11-2.708 0-1.45-.027-2.664-.06-2.698-.034-.033-1.437-.068-3.117-.077l-3.056-.016-.492-.534c-.27-.294-.493-.575-.495-.626-.002-.072.866-.091 4.104-.091 4.009 0 4.11.003 4.253.146.143.143.147.245.147 3.912 0 3.555-.008 3.772-.134 3.887-.122.11-.543.121-4.536.121-4.226 0-4.406-.005-4.527-.138zM3.44 9.34c-.15-.192-.154-.252-.133-2.41.016-1.742.042-2.237.122-2.332.09-.109.385-.121 2.874-.121h2.773l.115.163c.097.138.114.488.114 2.337 0 2.763.101 2.56-1.283 2.56h-.978l-.465-.553c-.255-.304-.464-.593-.464-.642 0-.063.267-.1.916-.125l.917-.037.02-1.127c.014-.768-.006-1.159-.064-1.228-.123-.149-3.089-.149-3.212 0-.058.07-.078.459-.064 1.224l.02 1.122.223.058c.202.052.239.11.385.608.09.302.162.584.162.625 0 .047-.34.075-.911.075-.902 0-.913-.002-1.067-.197z" style="fill:#fff;stroke-width:.0733333"/></g></svg>