<svg xmlns="http://www.w3.org/2000/svg" xmlns:xlink="http://www.w3.org/1999/xlink" xml:space="preserve" width="24" height="24" fill="none"><defs><linearGradient id="a"><stop offset="0" style="stop-color:#0055d4;stop-opacity:1"/><stop offset="1" style="stop-color:#59f;stop-opacity:1"/></linearGradient><linearGradient xlink:href="#a" id="b" x1="48.82" x2="49" y1="109.567" y2="-8.854" gradientTransform="matrix(.24444 0 0 .24444 -.222 -.222)" gradientUnits="userSpaceOnUse"/><clipPath id="c"><path d="M107 119h54v25h-54zm0 0"/></clipPath><clipPath id="d"><path d="M-4.781 119.29c0-57.958 46.984-104.942 104.941-104.942 57.961 0 104.945 46.984 104.945 104.941 0 57.961-46.984 104.945-104.945 104.945C42.203 224.234-4.78 177.25-4.78 119.29zm0 0"/></clipPath></defs><path d="M12 1C2 1 1 6 1 12c0 8 3 11 11 11s11-3 11-11c0-6-1-11-11-11Z" style="font-variation-settings:normal;display:inline;opacity:1;vector-effect:none;fill:url(#b);fill-opacity:1;stroke-width:1.11627;stroke-linecap:butt;stroke-linejoin:miter;stroke-miterlimit:4;stroke-dasharray:none;stroke-dashoffset:0;stroke-opacity:1;-inkscape-stroke:none;stop-color:#000;stop-opacity:1"/><g clip-path="url(#c)" style="fill:none" transform="matrix(.11072 0 0 .11072 2.406 -2.579)"><g clip-path="url(#d)"><path fill="#fff" fill-rule="evenodd" d="M107.852 119.898v23.477h3.875v-8.86h2.55c2.348 0 4-.23 4.961-.69.961-.47 1.762-1.274 2.403-2.419.64-1.148.96-2.57.96-4.27 0-1.866-.37-3.394-1.113-4.581-.742-1.184-1.683-1.957-2.824-2.32-.715-.223-2.238-.337-4.566-.337zm18.984 0h7.09c1.789 0 3.14.2 4.054.602.91.398 1.75 1.074 2.52 2.023.766.954 1.371 2.184 1.809 3.704.437 1.515.656 3.398.656 5.652 0 2.027-.23 3.789-.692 5.289-.457 1.5-1.039 2.687-1.742 3.562a6.755 6.755 0 0 1-2.55 1.98c-.997.442-2.282.665-3.848.665h-7.297zm20.523 23.477v-23.477h13.196v3.973h-9.32v5.555h8.07v3.972h-8.07v9.977zm-16.644-19.504v15.531h2.914c1.25 0 2.152-.117 2.71-.351a3.213 3.213 0 0 0 1.38-1.063c.355-.476.656-1.226.89-2.246.235-1.027.352-2.375.352-4.05 0-1.739-.121-3.106-.36-4.11-.242-1.004-.613-1.793-1.12-2.367a3.576 3.576 0 0 0-1.852-1.137c-.543-.14-1.594-.207-3.152-.207h-1.766zm-18.988 6.676v-6.676h1.898c1.625 0 2.688.09 3.191.274.504.18.926.539 1.27 1.074.34.535.512 1.191.512 1.972 0 .77-.168 1.422-.496 1.954-.332.527-.758.894-1.278 1.097-.52.203-1.5.305-2.945.305zm0 0"/></g></g><path d="M3.68 9.235v5.528h4.433c.543 0 1.391-.162 1.898.034.343.133.562.67.786.945.407.496.91.912 1.462 1.24 2.768 1.647 6.541.636 8.062-2.22h-3.513c-.42 0-1.115.133-1.497-.059-2.091-1.045-2.087-4.357 0-5.4.39-.196 1.068-.068 1.497-.068h3.455c-.214-.672-.844-1.299-1.382-1.728-1.83-1.46-4.532-1.731-6.564-.506a6.022 6.022 0 0 0-1.598 1.37c-.194.239-.398.76-.711.845-.588.161-1.4.019-2.01.019Z" style="fill:#fff;stroke:none;stroke-width:.0575825"/></svg>