<svg xmlns="http://www.w3.org/2000/svg" xml:space="preserve" width="153.65" height="153.65"><defs><linearGradient id="a"><stop offset=".164" style="stop-color:#6cace9;stop-opacity:1"/><stop offset=".5" style="stop-color:#4c92d6;stop-opacity:1"/><stop offset="1" style="stop-color:#0257a9;stop-opacity:1"/></linearGradient><linearGradient id="b" x1="12" x2="12" y1="0" y2="12" gradientTransform="translate(.001 .001) scale(6.40196)" gradientUnits="userSpaceOnUse"><stop stop-color="#00A4DC"/><stop offset="1" stop-color="#069"/></linearGradient></defs><path fill="url(#b)" fill-rule="evenodd" d="M60.036.795a8.227 8.227 0 0 0 2.4-.32 220.882 220.882 0 0 1 30.08.08 94.508 94.508 0 0 1 26.4 5.917c14.148 5.824 23.827 15.926 29.04 30.306a99.623 99.623 0 0 1 5.28 26.707 195.101 195.101 0 0 1-.8 34.385 82.983 82.983 0 0 1-6.24 23.189c-5.94 12.868-15.566 21.743-28.88 26.627a109.128 109.128 0 0 1-33.28 5.758 149.63 149.63 0 0 1-38.08-2.88c-23.128-5.151-37.395-19.251-42.8-42.3A133.017 133.017 0 0 1 .035 76.76a129.138 129.138 0 0 1 3.6-33.424C9.301 21.785 22.981 8.43 44.675 3.274a97.449 97.449 0 0 1 15.36-2.48Z" clip-rule="evenodd" style="fill:url(#b);stroke-width:6.40195"/><path d="M128.179 54.761h-22.37a3.915 3.915 0 0 1-3.888-3.915V28.354a3.907 3.907 0 0 1 3.889-3.907h22.369a3.907 3.907 0 0 1 3.907 3.907v22.448a3.915 3.915 0 0 1-3.907 3.96zm-38.733 0H67.12a3.924 3.924 0 0 1-3.898-3.915V28.354a3.915 3.915 0 0 1 3.898-3.907h22.36a3.907 3.907 0 0 1 3.899 3.907v22.448a3.915 3.915 0 0 1-3.933 3.96zM45.54 57.395l-21.27-6.821a3.968 3.968 0 0 1-2.528-4.934l6.813-21.35a3.95 3.95 0 0 1 4.907-2.547l21.272 6.848a3.977 3.977 0 0 1 2.537 4.925l-6.83 21.36a3.898 3.898 0 0 1-4.899 2.52z" style="fill:#cc5e55;stroke-width:.877911" transform="translate(-1.465)"/><path d="M128.179 132.079h-22.37a3.907 3.907 0 0 1-3.888-3.907V105.68a3.907 3.907 0 0 1 3.889-3.906h22.369a3.907 3.907 0 0 1 3.907 3.906v22.457a3.907 3.907 0 0 1-3.907 3.942zm-38.733 0H67.12a3.915 3.915 0 0 1-3.898-3.907V105.68a3.915 3.915 0 0 1 3.898-3.871h22.36a3.907 3.907 0 0 1 3.899 3.906v22.457a3.907 3.907 0 0 1-3.933 3.907zm38.733-38.689h-22.37a3.907 3.907 0 0 1-3.888-3.916V67.052a3.915 3.915 0 0 1 3.889-3.915h22.369a3.915 3.915 0 0 1 3.907 3.915v22.475a3.898 3.898 0 0 1-3.907 3.863z" style="fill:#ffc328;stroke-width:.877911" transform="translate(-1.465)"/><path d="M50.686 132.079h-22.36a3.907 3.907 0 0 1-3.899-3.907V105.68a3.907 3.907 0 0 1 3.898-3.906h22.36a3.915 3.915 0 0 1 3.899 3.906v22.457a3.915 3.915 0 0 1-3.898 3.942zm0-38.689h-22.36a3.907 3.907 0 0 1-3.899-3.916V67.052a3.915 3.915 0 0 1 3.898-3.915h22.36a3.924 3.924 0 0 1 3.899 3.915v22.475a3.907 3.907 0 0 1-3.898 3.863z" style="fill:#3c3;stroke-width:.877911" transform="translate(-1.465)"/><path d="M75.724 75.498a2.484 2.484 0 0 1 2.195-1.203 3.038 3.038 0 0 1 1.316.351 2.028 2.028 0 0 1 1.212 1.36 10.184 10.184 0 0 0 .22 2.178 8.384 8.384 0 0 0 2.484 3.714c.544.632 1.273 1.07 1.817 1.755a14.731 14.731 0 0 1-2.484-.263 8.042 8.042 0 0 1-2.853-1.01 6.76 6.76 0 0 1-1.405-.965 8.138 8.138 0 0 1-1.756-1.958 6.005 6.005 0 0 1-1.01-2.827 2.844 2.844 0 0 1 .264-1.132Zm-.114-6.541a4.196 4.196 0 0 1 3.362.237 2.458 2.458 0 0 1 .878 1.036 1.852 1.852 0 0 1-.088 1.598 3.23 3.23 0 0 1-1.519 1.501 3.38 3.38 0 0 1-1.536.413 3.512 3.512 0 0 1-1.756-.22 2.432 2.432 0 0 1-1.457-1.492 1.914 1.914 0 0 1 .246-1.536 3.6 3.6 0 0 1 1.87-1.537zm-3.336 19.797a8.068 8.068 0 0 1-4.276 2.388c-.553 0-1.08.07-1.606.088a5.18 5.18 0 0 1-1.756-.457 7.462 7.462 0 0 1-2.292-2.09 10.219 10.219 0 0 1-1.755-4.081 12.87 12.87 0 0 1 0-1.546 6.145 6.145 0 0 1 .772 1.37 7.102 7.102 0 0 0 1.29 1.58 4.135 4.135 0 0 0 2.713 1.16 3.573 3.573 0 0 0 1.186-.15 5.917 5.917 0 0 0 2.818-1.712c.237-.29.526-.57.746-.878.22-.307.483-.746.658-1.141a8.78 8.78 0 0 0 1.01-3.758c-.044-.526-.044-1.01-.088-1.536-.15-.351-.061-.817-.439-1.01a1.238 1.238 0 0 0-.746.193 10.895 10.895 0 0 0-1.58 1.475c-.597.483-1.01 1.142-1.58 1.668-.334.246-.536.571-.878.817a11.413 11.413 0 0 1-1.888 1.536 3.134 3.134 0 0 1-1.756.457 2.748 2.748 0 0 1-1.852-1.08 8.604 8.604 0 0 1-1.317-2.967c-.132-.545-.061-1.115-.15-1.668a19.569 19.569 0 0 1 .984-5.514 8.13 8.13 0 0 1 .878-1.756c.132-.149.193-.35.369-.395a7.901 7.901 0 0 1-.193 1.08 4.258 4.258 0 0 0 0 1.203 13.283 13.283 0 0 0 0 1.87c.158.614.175 1.273.377 1.887a5.136 5.136 0 0 0 .483 1.282c.15.237.237.527.483.676a1.905 1.905 0 0 0 .878.378 4.6 4.6 0 0 0 .728-.22 7.023 7.023 0 0 0 1.423-1.317 7.137 7.137 0 0 1 1.202-1.062 3.178 3.178 0 0 1 2.239-.64 7.216 7.216 0 0 1 3.029 1.079 6.655 6.655 0 0 1 1.211.966 6.145 6.145 0 0 1 1.65 3.406 2.713 2.713 0 0 1 .062 1.185 10.043 10.043 0 0 1-1.167 4.504 12.95 12.95 0 0 1-1.23 1.843 1.896 1.896 0 0 1-.64.887zM84.837 67.57a8.086 8.086 0 0 1 4.231-2.397c.553 0 1.08-.061 1.607-.087a5.197 5.197 0 0 1 1.755.465 7.225 7.225 0 0 1 2.292 2.08 9.85 9.85 0 0 1 1.756 4.092 12.677 12.677 0 0 1 0 1.536 7.374 7.374 0 0 1-.773-1.36 6.382 6.382 0 0 0-1.317-1.581 4.126 4.126 0 0 0-2.686-1.168 3.608 3.608 0 0 0-1.185.158 5.785 5.785 0 0 0-2.81 1.756c-.246.281-.526.57-.746.878a7.1 7.1 0 0 0-.667 1.15 8.902 8.902 0 0 0-1.01 3.758c0 .526 0 1.01.088 1.536.158.351.07.808.439 1.01a1.238 1.238 0 0 0 .746-.202 10.93 10.93 0 0 0 1.633-1.537c.588-.483 1.01-1.14 1.58-1.676.325-.238.527-.571.834-.808a11.738 11.738 0 0 1 1.888-1.536 3.108 3.108 0 0 1 1.756-.466 2.757 2.757 0 0 1 1.843 1.098 8.516 8.516 0 0 1 1.317 2.967c.132.553.07 1.097.158 1.668a19.577 19.577 0 0 1-.992 5.522 7.497 7.497 0 0 1-.878 1.756c-.131.158-.202.351-.377.395a7.726 7.726 0 0 1 .202-1.071 4.67 4.67 0 0 0 0-1.212 13.3 13.3 0 0 0 0-1.87c-.15-.614-.176-1.273-.369-1.887a5.434 5.434 0 0 0-.483-1.273c-.158-.246-.246-.527-.491-.685a1.457 1.457 0 0 0-.878-.369 4.504 4.504 0 0 0-.72.22 6.031 6.031 0 0 0-1.431 1.317 7.559 7.559 0 0 1-1.212 1.036 3.16 3.16 0 0 1-2.238.632 7.497 7.497 0 0 1-3.056-1.071 6.356 6.356 0 0 1-1.202-.975 5.9 5.9 0 0 1-1.633-3.406 2.713 2.713 0 0 1-.062-1.185 10.078 10.078 0 0 1 1.168-4.504 14.047 14.047 0 0 1 1.229-1.844 1.703 1.703 0 0 1 .693-.86z" style="fill:#fff;fill-opacity:1;stroke-width:.877911" transform="translate(-12.064 -11.634) scale(1.1318)"/></svg>