<svg xmlns="http://www.w3.org/2000/svg" xmlns:xlink="http://www.w3.org/1999/xlink" xml:space="preserve" id="svg154" width="24" height="24" fill="none" version="1.1"><defs id="defs152"><linearGradient id="linearGradient12456"><stop id="stop12454" offset="0" style="stop-color:#000;stop-opacity:1"/></linearGradient><linearGradient id="linearGradient10488"><stop id="stop10486" offset="0" style="stop-color:#000;stop-opacity:1"/></linearGradient><linearGradient id="linearGradient10413"><stop id="stop10411" offset="0" style="stop-color:#000;stop-opacity:1"/></linearGradient><linearGradient id="linearGradient5358"><stop id="stop5354" offset="0" style="stop-color:#e6e6e6;stop-opacity:1"/><stop id="stop5356" offset="1" style="stop-color:#fff;stop-opacity:1"/></linearGradient><linearGradient xlink:href="#linearGradient5358" id="linearGradient5360" x1="13.523" x2="13.744" y1="34.648" y2="-9.855" gradientUnits="userSpaceOnUse"/><linearGradient xlink:href="#linearGradient5358" id="linearGradient13399" x1="13.523" x2="13.744" y1="34.648" y2="-9.855" gradientUnits="userSpaceOnUse"/><style id="current-color-scheme" type="text/css">.ColorScheme-Text{color:#31363b}.ColorScheme-Background{color:#eff0f1}.ColorScheme-Highlight{color:#3daee9}.ColorScheme-ViewText{color:#31363b}.ColorScheme-ViewBackground{color:#fcfcfc}.ColorScheme-ViewHover{color:#93cee9}.ColorScheme-ViewFocus{color:#3daee9}.ColorScheme-ButtonText{color:#31363b}.ColorScheme-ButtonBackground{color:#eff0f1}.ColorScheme-ButtonHover{color:#93cee9}.ColorScheme-ButtonFocus{color:#3daee9}</style></defs><g id="g2267" style="fill:url(#linearGradient5360);fill-opacity:1"><path id="path6" d="M50 5C9.09 5 5 25.455 5 50c0 32.727 12.273 45 45 45 32.727 0 45-12.273 45-45 0-24.545-4.09-45-45-45Z" style="font-variation-settings:normal;display:inline;opacity:1;vector-effect:none;fill:url(#linearGradient13399);fill-opacity:1;stroke-width:4.56656;stroke-linecap:butt;stroke-linejoin:miter;stroke-miterlimit:4;stroke-dasharray:none;stroke-dashoffset:0;stroke-opacity:1;-inkscape-stroke:none;stop-color:#000;stop-opacity:1" transform="matrix(.24444 0 0 .24444 -.222 -.222)"/></g><g id="g2894" transform="translate(18.532 4.897) scale(.61223)"><path id="path2898" d="M-10.672 24.326a.01.01 0 0 1 .01-.01.01.01 0 0 1 .009.01.01.01 0 0 1-.01.009.01.01 0 0 1-.009-.01zm.014-.023c-.03-.007-.032-.118-.032-2.002v-1.995l-.057-.011a2.224 2.224 0 0 0-.263-.012c-.38 0-.955-.057-1.486-.147a11.496 11.496 0 0 1-5.289-2.417c-2.074-1.695-3.43-4.01-3.794-6.475a9.94 9.94 0 0 1-.074-.736c0-.01.007-.013.015-.008a.734.734 0 0 1 .028.196c.038.583.203 1.4.419 2.07 1.073 3.341 3.976 6.066 7.54 7.076.834.236 1.619.363 2.549.41l.44.022.004 2.003c.004 1.5.01 2.003.026 2.003.05 0 1.038-.539 1.59-.867 4.104-2.44 7.09-5.67 8.482-9.17.342-.86.614-1.862.742-2.732.042-.282.091-.746.092-.857a.26.26 0 0 1 .018-.106c.027-.04.004.31-.047.724-.48 3.861-3.01 7.693-7.067 10.7a26.085 26.085 0 0 1-3.402 2.14c-.343.182-.386.201-.434.19zm-2.916-10.1a35.037 35.037 0 0 1-.013-1.293v-1.28h-1.27c-.988 0-1.278-.005-1.302-.023-.03-.022-.03-.178-.026-2.333l.004-2.31 2.324-.005 2.323-.004.01.042c.007.023.008 1.069.004 2.324-.008 2.368-.007 2.357-.088 2.755-.211 1.042-.883 1.913-1.622 2.102-.14.036-.32.049-.344.025zm.444-.09c.272-.09.59-.32.803-.579.433-.526.7-1.226.756-1.987.012-.156.02-1.094.02-2.406v-2.15h-4.602l.004 2.297.005 2.296 1.282.005c.998.003 1.286.01 1.297.027.008.013.015.593.015 1.29 0 .696.004 1.27.009 1.275.02.02.269-.022.411-.069zm5.917.09a34.982 34.982 0 0 1-.012-1.293v-1.28h-1.27c-.988 0-1.278-.005-1.302-.023-.03-.022-.031-.178-.027-2.333l.005-2.31h4.657v2.328c0 2.156-.003 2.344-.034 2.538-.19 1.202-.86 2.14-1.677 2.35-.136.034-.316.046-.34.023zm.427-.082c.37-.12.73-.417 1.005-.829.27-.402.435-.83.541-1.396.037-.196.038-.273.045-2.553l.007-2.352h-4.604l.005 2.297.005 2.296 1.292.01 1.293.008.004 1.283c.003.838.011 1.286.023 1.293.03.019.254-.014.384-.057zm7.102-3.894c0-.08.004-.111.008-.068a.91.91 0 0 1 0 .147c-.005.037-.008.002-.008-.079zm-21.981-.009c0-.076.003-.107.007-.069a.79.79 0 0 1 0 .138c-.004.038-.007.007-.007-.069zm0-.678c0-.096.003-.135.007-.087.004.048.004.126 0 .174-.004.048-.007.009-.007-.087zm21.982 0c0-.096.003-.135.007-.087a1.34 1.34 0 0 1 0 .174c-.004.048-.007.009-.007-.087zm-21.96-.486a10.92 10.92 0 0 1 .227-1.577 11.042 11.042 0 0 1 2.447-4.84c.22-.251.744-.779 1.007-1.011a10.978 10.978 0 0 1 5.109-2.544 11.24 11.24 0 0 1 4.317-.008c2.91.58 5.443 2.29 7.072 4.773C-.438 5.411.182 7.24.302 9.054c.018.284-.015.188-.04-.118C-.008 5.788-1.68 2.887-4.307 1.02-5.894-.11-7.693-.773-9.7-.969c-.391-.038-1.671-.032-2.053.01-1.43.155-2.631.504-3.869 1.124-2.819 1.41-4.908 3.992-5.684 7.02-.151.593-.27 1.3-.303 1.805-.007.106-.02.205-.029.22-.01.017-.012-.044-.006-.156z" style="fill:#63b78f;stroke-width:.0183333"/><path id="path2896" d="M-10.665 24.304a.017.017 0 0 1 .024 0c.007.007.001.012-.012.012-.014 0-.02-.005-.012-.012zm.007-2.027-.004-2.003-.44-.022a15.327 15.327 0 0 1-.77-.06c-4.521-.511-8.419-3.8-9.485-8.003a9.203 9.203 0 0 1-.252-1.485 1.01 1.01 0 0 0-.026-.202c-.023-.031-.036-.683-.019-.99.116-2.091.7-3.92 1.774-5.554a11.014 11.014 0 0 1 7.058-4.757c.783-.155 1.206-.193 2.123-.194.79 0 .98.012 1.574.094C-4.937-.317-1.393 2.7-.168 6.726c.387 1.27.57 2.86.45 3.905l-.038.366c-.456 4.627-3.875 9.198-9.287 12.416-.551.328-1.539.867-1.589.867-.016 0-.022-.503-.026-2.003zm-2.572-8.099c.523-.133 1.02-.604 1.338-1.265.165-.345.276-.72.342-1.164.016-.106.024-.78.03-2.428.004-1.255.002-2.3-.003-2.324l-.011-.042-2.323.004-2.324.005-.004 2.31c-.005 2.155-.003 2.311.026 2.333.024.018.314.023 1.302.023h1.27v1.28c0 .704.006 1.286.013 1.293.024.024.204.011.344-.025zm6.357.002c.817-.21 1.487-1.148 1.677-2.35.031-.194.034-.382.034-2.538V6.964H-9.82l-.005 2.31c-.004 2.155-.002 2.311.027 2.333.024.018.314.023 1.301.023h1.271v1.28c0 .704.006 1.286.012 1.293.024.023.204.011.34-.023z" style="fill:#0e9855;stroke-width:.0183333"/></g></svg>