<svg xmlns="http://www.w3.org/2000/svg" xmlns:xlink="http://www.w3.org/1999/xlink" xml:space="preserve" width="24" height="24" fill="none"><defs><linearGradient id="c"><stop offset="0" style="stop-color:#fff;stop-opacity:1"/></linearGradient><linearGradient id="b"><stop offset="0" style="stop-color:#fa1660;stop-opacity:1"/><stop offset=".499" style="stop-color:#fd5633;stop-opacity:1"/><stop offset="1" style="stop-color:#fc0;stop-opacity:1"/></linearGradient><linearGradient id="a"><stop offset="0" style="stop-color:#0b0b28;stop-opacity:1"/><stop offset="1" style="stop-color:#6f6f91;stop-opacity:1"/></linearGradient><linearGradient xlink:href="#a" id="d" x1="50.989" x2="50.266" y1="93.476" y2="-13.193" gradientTransform="matrix(.24444 0 0 .24444 -.222 -.222)" gradientUnits="userSpaceOnUse"/><linearGradient xlink:href="#b" id="e" x1="-18.5" x2="4.797" y1=".25" y2="-5.452" gradientTransform="matrix(.78606 0 0 .78606 16.666 14.542)" gradientUnits="userSpaceOnUse"/></defs><path d="M12 1C2 1 1 6 1 12c0 8 3 11 11 11s11-3 11-11c0-6-1-11-11-11Z" style="font-variation-settings:normal;display:inline;opacity:1;vector-effect:none;fill:url(#d);fill-opacity:1;stroke-width:1.11627;stroke-linecap:butt;stroke-linejoin:miter;stroke-miterlimit:4;stroke-dasharray:none;stroke-dashoffset:0;stroke-opacity:1;-inkscape-stroke:none;stop-color:#000;stop-opacity:1"/><path d="M9.54 14.43c0-.005.037-.125.082-.267l.082-.257.113-.137c.348-.422.83-.909 1.31-1.321.183-.159.534-.441.646-.522.036-.025.059-.048.05-.051-.024-.008-.341.076-.53.14a6.154 6.154 0 0 0-1.01.458c-.11.063-.163.086-.178.079a52.164 52.164 0 0 1-.786-.572l-.763-.56.98-.007.982-.007.205-.628.304-.93c.054-.165.102-.293.107-.283.005.01.142.429.305.932l.296.915.98.004.98.004-.787.573c-.434.316-.788.58-.788.588 0 .007.134.426.298.93.164.505.296.92.293.922-.002.003-.36-.253-.793-.568-.434-.315-.795-.57-.803-.564l-.778.564c-.826.6-.798.58-.798.566zm-4.959-.297a1.98 1.98 0 0 1-.33-.068 1.317 1.317 0 0 1-.896-.944c.006-.005.759-.221.76-.218.11.24.2.348.35.421.276.136.581.064.698-.164.027-.054.033-.084.033-.18 0-.134-.023-.19-.117-.279-.086-.082-.17-.13-.547-.32a11.272 11.272 0 0 1-.445-.232c-.227-.134-.39-.297-.481-.482a.92.92 0 0 1-.101-.403c-.028-.48.256-.891.732-1.061.375-.134.826-.111 1.175.06.167.083.28.174.393.317.087.11.215.345.197.362-.013.013-.72.326-.723.32-.101-.2-.186-.3-.304-.359-.07-.034-.09-.037-.225-.037-.127 0-.156.004-.204.03a.33.33 0 0 0-.19.268c-.011.1.015.183.081.258.08.09.151.131.557.319.49.227.6.293.764.464.212.22.299.445.298.775 0 .2-.028.327-.11.494-.11.22-.29.394-.534.513-.16.078-.296.118-.48.14a1.76 1.76 0 0 1-.35.007zm2.567-1.626V10.94h-.851v-.77h2.567v.77h-.851v3.134h-.865Zm6.81-.385V10.17h.78c.827 0 .915.005 1.137.068.434.122.724.428.804.849.03.161.028.412-.006.552-.099.414-.422.738-.838.843-.063.015-.116.03-.118.032-.002.001.246.352.552.778l.555.776-.484.003c-.375.003-.487 0-.5-.013-.008-.01-.245-.36-.527-.78l-.511-.764-.004.78-.003.78h-.838zm1.624-.3c.176-.088.257-.228.26-.45 0-.11-.005-.138-.035-.202a.398.398 0 0 0-.18-.192c-.11-.056-.174-.065-.511-.065h-.321v.96l.348-.003.348-.005zm2.966 1.378-.004-.605-.625-.003-.625-.004v-.797H18.551v-1.216h.838v1.216h1.256v.797h-1.256v1.216h-.838z" style="fill:url(#e);fill-opacity:1;stroke:url(#linearGradient17065);stroke-width:.114;stroke-dasharray:none"/></svg>