<svg xmlns="http://www.w3.org/2000/svg" xmlns:xlink="http://www.w3.org/1999/xlink" xml:space="preserve" id="svg154" width="24" height="24" fill="none" version="1.1"><defs id="defs152"><linearGradient id="linearGradient12456"><stop id="stop12454" offset="0" style="stop-color:#000;stop-opacity:1"/></linearGradient><linearGradient id="linearGradient10488"><stop id="stop10486" offset="0" style="stop-color:#000;stop-opacity:1"/></linearGradient><linearGradient id="linearGradient10413"><stop id="stop10411" offset="0" style="stop-color:#000;stop-opacity:1"/></linearGradient><linearGradient id="linearGradient5358"><stop id="stop5354" offset="0" style="stop-color:#e6e6e6;stop-opacity:1"/><stop id="stop5356" offset="1" style="stop-color:#fff;stop-opacity:1"/></linearGradient><linearGradient xlink:href="#linearGradient5358" id="linearGradient5360" x1="13.523" x2="13.744" y1="34.648" y2="-9.855" gradientUnits="userSpaceOnUse"/><linearGradient xlink:href="#linearGradient5358" id="linearGradient13399" x1="13.523" x2="13.744" y1="34.648" y2="-9.855" gradientUnits="userSpaceOnUse"/><style id="current-color-scheme" type="text/css">.ColorScheme-Text{color:#31363b}.ColorScheme-Background{color:#eff0f1}.ColorScheme-Highlight{color:#3daee9}.ColorScheme-ViewText{color:#31363b}.ColorScheme-ViewBackground{color:#fcfcfc}.ColorScheme-ViewHover{color:#93cee9}.ColorScheme-ViewFocus{color:#3daee9}.ColorScheme-ButtonText{color:#31363b}.ColorScheme-ButtonBackground{color:#eff0f1}.ColorScheme-ButtonHover{color:#93cee9}.ColorScheme-ButtonFocus{color:#3daee9}</style></defs><g id="g2267" style="fill:url(#linearGradient5360);fill-opacity:1"><path id="path6" d="M50 5C9.09 5 5 25.455 5 50c0 32.727 12.273 45 45 45 32.727 0 45-12.273 45-45 0-24.545-4.09-45-45-45Z" style="font-variation-settings:normal;display:inline;opacity:1;vector-effect:none;fill:url(#linearGradient13399);fill-opacity:1;stroke-width:4.56656;stroke-linecap:butt;stroke-linejoin:miter;stroke-miterlimit:4;stroke-dasharray:none;stroke-dashoffset:0;stroke-opacity:1;-inkscape-stroke:none;stop-color:#000;stop-opacity:1" transform="translate(-.222 -.222) scale(.24444)"/></g><g id="g3640" transform="translate(4.417 4.42) scale(.6319)"><path id="path3652" d="m16.052 15.497-2.02-3.502c-1.1-1.908-2.008-3.481-2.018-3.495l-.018-.025 1.683-2.913 1.733-3.001.05-.089.057.034c.25.148.52.407.693.663.134.201 6.457 11.183 6.554 11.386.13.269.196.533.22.884l.006.089h-6.921z" style="fill:#fdb900;stroke-width:.00958606"/><path id="path3648" d="M19.512 21.488 17.8 18.523l-1.712-2.964-.018-.031h6.933l-.006.11a2.303 2.303 0 0 1-.221.872c-.067.14-2.363 4.119-2.484 4.304-.11.17-.3.38-.47.515-.085.069-.263.19-.279.19-.006 0-.02-.014-.03-.031z" style="fill:#e84234;stroke-width:.00958606"/><path id="path3646" d="M4.407 21.474a2.507 2.507 0 0 1-.541-.47c-.92-1.448-1.751-2.957-2.603-4.448a2.393 2.393 0 0 1-.157-.396 2.466 2.466 0 0 1-.077-.39c0-.018-.004-.03-.008-.028a1.014 1.014 0 0 1-.017-.212h3.46l3.457.002-1.724 2.984c-.947 1.64-1.725 2.985-1.728 2.988a.2.2 0 0 1-.062-.03z" style="fill:#0065d8;stroke-width:.00958606"/><path id="path3644" d="M1.004 15.41a2.38 2.38 0 0 1 .268-.956A9454.32 9454.32 0 0 1 7.76 3.215c.079-.125.158-.224.28-.35a2.232 2.232 0 0 1 1.134-.637c.243-.056.107-.054 2.83-.054 2.648 0 2.58 0 2.795.043.19.04.405.116.573.204.046.024.084.05.084.056 0 .008-.02-.001-.05-.02a2.136 2.136 0 0 0-.54-.21c-.263-.062-.055-.057-2.785-.061-1.762-.002-2.512 0-2.597.007a2.36 2.36 0 0 0-.82.23c-.071.036-.105.058-.104.069.001.019 3.423 5.944 3.438 5.954.009.005.006.017-.01.043-.01.02-.928 1.61-2.038 3.535l-2.018 3.499-3.467.002-3.468.003z" style="fill:#00aa46;stroke-width:.00958606"/><path id="path3642" d="M11.998 8.445c-.015-.01-3.437-5.934-3.438-5.953-.001-.01.033-.033.105-.068.25-.124.54-.206.819-.23.085-.008.835-.01 2.597-.008 2.317.003 2.485.004 2.583.02.141.023.334.073.456.118.12.045.307.137.32.158.007.012-.36.655-1.674 2.929l-1.72 2.977c-.023.04-.041.062-.048.057z" style="fill:#00822c;stroke-width:.00958606"/><path id="path3650" d="M5.295 21.81a2.298 2.298 0 0 1-1.571-.967 39.48 39.48 0 0 1-.452-.767c-.582-1.004-1.965-3.401-2.006-3.475a2.375 2.375 0 0 1-.212-.575c-.032-.144-.047-.27-.035-.282.007-.006.01.002.01.026a2.285 2.285 0 0 0 .234.786c.027.054.395.695.817 1.426 1.752 3.031 1.65 2.858 1.786 3.021.14.168.402.395.555.48l.047.026.68-1.175 1.728-2.992 1.05-1.815h4.07c3.88 0 4.07.001 4.081.017.044.058 3.452 5.978 3.447 5.986a2.204 2.204 0 0 1-.588.232c-.28.07.346.064-6.953.063-5.643-.001-6.602-.003-6.688-.015Zm-4.292-6.172c0-.026.002-.036.004-.022a.172.172 0 0 1 0 .048c-.003.012-.004 0-.004-.026zm6.937-.134c0-.003.002-.005.005-.005s.005.002.005.005a.005.005 0 0 1-.005.005.005.005 0 0 1-.005-.005zm.01-.02c0-.002.002-.004.005-.004.002 0 .004.002.004.005a.005.005 0 0 1-.004.004.005.005 0 0 1-.005-.004z" style="fill:#2583fa;stroke-width:.00958606"/></g></svg>