<svg xmlns="http://www.w3.org/2000/svg" xmlns:xlink="http://www.w3.org/1999/xlink" xml:space="preserve" width="24" height="24" fill="none"><defs><linearGradient id="a"><stop offset="0" style="stop-color:#5500d4;stop-opacity:1"/><stop offset="1" style="stop-color:#aa87de;stop-opacity:1"/></linearGradient><linearGradient xlink:href="#a" id="b" x1="50.266" x2="50.266" y1="100.888" y2="-13.193" gradientTransform="matrix(.24444 0 0 .24444 -.222 -.222)" gradientUnits="userSpaceOnUse"/></defs><path d="M12 1C2 1 1 6 1 12c0 8 3 11 11 11s11-3 11-11c0-6-1-11-11-11Z" style="font-variation-settings:normal;display:inline;opacity:1;vector-effect:none;fill:url(#b);fill-opacity:1;stroke-width:1.11627;stroke-linecap:butt;stroke-linejoin:miter;stroke-miterlimit:4;stroke-dasharray:none;stroke-dashoffset:0;stroke-opacity:1;-inkscape-stroke:none;stop-color:#000;stop-opacity:1"/><path d="M4.403 10.29v-.57h-1.17v4.562h1.258v-2.574c0-.073-.02-.181.015-.248.046-.087.17-.153.248-.21.234-.175.666-.532.965-.296.251.197.176.62.176.9v2.428h1.257v-2.559c0-.078-.02-.19.01-.262.037-.095.188-.17.268-.227.235-.17.655-.513.95-.28.25.195.176.623.176.9v2.428H9.8v-2.486c0-.447.059-.94-.06-1.375-.239-.869-1.19-.968-1.9-.625-.28.136-.545.3-.789.494a.913.913 0 0 0-.293-.43c-.774-.636-1.676.008-2.354.43m9.505 3.407v.585h1.2v-4.08c0-.13.032-.311-.005-.437-.023-.077-.196-.046-.259-.046h-.658c-.063 0-.202-.026-.254.015-.04.031-.024.117-.024.16v.425c-.781-.96-2.333-.928-3.156-.03-1.09 1.191-.815 3.178.67 3.909.378.186.827.246 1.243.188.51-.07.894-.324 1.243-.689m1.433-3.978c.055.235.306.496.448.688.397.533.817 1.128 1.322 1.564v.015c-.176.13-.32.344-.46.512-.288.346-.566.701-.829 1.067-.158.22-.384.462-.48.717h1.052c.12 0 .325.04.434-.009.12-.053.228-.323.304-.43.184-.26.374-.518.583-.76.104-.122.264-.25.332-.395.316.317.594.684.848 1.053.098.142.213.433.359.526.09.057.31.015.416.015h1.097c-.068-.178-.216-.34-.322-.497a17.33 17.33 0 0 0-.933-1.229c-.117-.144-.242-.284-.364-.424-.034-.038-.119-.104-.112-.16.007-.07.106-.144.15-.19.12-.127.234-.263.346-.396.312-.368.61-.748.89-1.14.114-.16.285-.338.345-.527h-1.053c-.111 0-.323-.04-.422.015-.143.082-.264.364-.362.497-.27.364-.563.718-.883 1.038-.064-.137-.217-.25-.316-.365a12.349 12.349 0 0 1-.607-.76c-.077-.105-.186-.367-.307-.416-.12-.048-.324-.009-.452-.009h-1.024m-2.895.94c.145-.017.298.008.439.042 1.14.278 1.343 1.85.365 2.454a1.319 1.319 0 0 1-.526.187c-1.12.137-1.946-1.134-1.305-2.087.091-.137.205-.257.34-.35.207-.145.438-.216.687-.246m0 .31a1.1 1.1 0 0 0-.497.18c-.882.617-.306 2.022.746 1.886a.995.995 0 0 0 .394-.143c.883-.549.433-2.07-.643-1.923z" style="fill:#fff;stroke:none;stroke-width:.0146234"/></svg>