<?xml version="1.0" encoding="UTF-8" standalone="no"?>
<svg
   width="24"
   height="24"
   viewBox="0 0 24 24"
   fill="none"
   version="1.1"
   id="svg154"
   sodipodi:docname="app.svg"
   inkscape:version="1.2.2 (b0a8486541, 2022-12-01)"
   xml:space="preserve"
   inkscape:export-filename="../../../../ícones big/netflix.svg"
   inkscape:export-xdpi="96"
   inkscape:export-ydpi="96"
   xmlns:inkscape="http://www.inkscape.org/namespaces/inkscape"
   xmlns:sodipodi="http://sodipodi.sourceforge.net/DTD/sodipodi-0.dtd"
   xmlns:xlink="http://www.w3.org/1999/xlink"
   xmlns="http://www.w3.org/2000/svg"
   xmlns:svg="http://www.w3.org/2000/svg"
   xmlns:sketch="http://www.bohemiancoding.com/sketch/ns"><sodipodi:namedview
     id="namedview156"
     pagecolor="#ffffff"
     bordercolor="#000000"
     borderopacity="1"
     inkscape:showpageshadow="0"
     inkscape:pageopacity="1"
     inkscape:pagecheckerboard="false"
     inkscape:deskcolor="#ffffff"
     showgrid="true"
     inkscape:zoom="32"
     inkscape:cx="9.609375"
     inkscape:cy="15.453125"
     inkscape:window-width="1920"
     inkscape:window-height="1052"
     inkscape:window-x="0"
     inkscape:window-y="0"
     inkscape:window-maximized="1"
     inkscape:current-layer="svg154"
     showguides="true"
     guidecolor="#ff0000"
     guideopacity="1"
     inkscape:lockguides="true"
     showborder="true"
     borderlayer="true"><inkscape:grid
       type="xygrid"
       id="grid356"
       color="#000000"
       opacity="0.10196078"
       empcolor="#000000"
       empopacity="0.10196078"
       snapvisiblegridlinesonly="true"
       enabled="true"
       visible="true"
       dotted="false" /><sodipodi:guide
       position="4,12"
       orientation="-1,0"
       id="guide764"
       inkscape:locked="true"
       inkscape:label="left-circle"
       inkscape:color="rgb(255,0,0)" /><sodipodi:guide
       position="5,12"
       orientation="-1,0"
       id="guide2218"
       inkscape:locked="true"
       inkscape:label="left-square"
       inkscape:color="rgb(255,0,0)" /><sodipodi:guide
       position="12,20"
       orientation="0,1"
       id="guide2220"
       inkscape:locked="true"
       inkscape:label="top-circle"
       inkscape:color="rgb(255,0,0)" /><sodipodi:guide
       position="12,5"
       orientation="0,1"
       id="guide2222"
       inkscape:locked="true"
       inkscape:label="bottom-square"
       inkscape:color="rgb(255,0,0)" /><sodipodi:guide
       position="12,4"
       orientation="0,1"
       id="guide2224"
       inkscape:locked="true"
       inkscape:label="bottom-circle"
       inkscape:color="rgb(255,0,0)" /><sodipodi:guide
       position="19,12"
       orientation="-1,0"
       id="guide2226"
       inkscape:locked="true"
       inkscape:label="right-square"
       inkscape:color="rgb(255,0,0)" /><sodipodi:guide
       position="20,12"
       orientation="-1,0"
       id="guide2228"
       inkscape:locked="true"
       inkscape:label="right-circle"
       inkscape:color="rgb(255,0,0)" /><sodipodi:guide
       position="12,19"
       orientation="0,1"
       id="guide2230"
       inkscape:locked="true"
       inkscape:label="top-square"
       inkscape:color="rgb(255,0,0)" /><sodipodi:guide
       position="12,12"
       orientation="1,0"
       id="guide765"
       inkscape:locked="true" /><sodipodi:guide
       position="12,12"
       orientation="0,-1"
       id="guide767"
       inkscape:locked="true" /><sodipodi:guide
       position="12,12"
       orientation="0.70710678,0.70710678"
       id="guide2266"
       inkscape:locked="true"
       inkscape:label=""
       inkscape:color="rgb(255,0,0)" /><sodipodi:guide
       position="12,12"
       orientation="-0.70710678,0.70710678"
       id="guide2994"
       inkscape:locked="true"
       inkscape:label=""
       inkscape:color="rgb(255,0,0)" /><sodipodi:guide
       position="3,12"
       orientation="-1,0"
       id="guide131543"
       inkscape:locked="true"
       inkscape:label="left-horizontal"
       inkscape:color="rgb(255,0,0)" /><sodipodi:guide
       position="12,21"
       orientation="0,1"
       id="guide131545"
       inkscape:locked="true"
       inkscape:label="top-vertical"
       inkscape:color="rgb(255,0,0)" /><sodipodi:guide
       position="21,12"
       orientation="-1,0"
       id="guide131547"
       inkscape:locked="true"
       inkscape:label="right-horizontal"
       inkscape:color="rgb(255,0,0)" /><sodipodi:guide
       position="12,3"
       orientation="0,1"
       id="guide131549"
       inkscape:locked="true"
       inkscape:label="bottom-vertical"
       inkscape:color="rgb(255,0,0)" /></sodipodi:namedview><defs
     id="defs152"><linearGradient
       inkscape:collect="always"
       id="linearGradient11988"><stop
         style="stop-color:#005500;stop-opacity:1"
         offset="0"
         id="stop11984" /><stop
         style="stop-color:#2aff2a;stop-opacity:1"
         offset="1"
         id="stop11986" /></linearGradient><linearGradient
       id="linearGradient1257"
       inkscape:swatch="solid"><stop
         style="stop-color:#000000;stop-opacity:1;"
         offset="0"
         id="stop1255" /></linearGradient><linearGradient
       inkscape:collect="always"
       xlink:href="#linearGradient11988"
       id="linearGradient11990"
       x1="87.840912"
       y1="125.17045"
       x2="19.573866"
       y2="-35.142048"
       gradientUnits="userSpaceOnUse"
       gradientTransform="matrix(0.24444444,0,0,0.24444444,-0.22222222,-0.22222222)" /></defs><path
     d="M 12,0.99999998 C 2,0.99999998 0.99999998,6 0.99999998,12 0.99999998,20 4.0000001,23 12,23 20,23 23,20 23,12 23,6 22,0.99999998 12,0.99999998 Z"
     sketch:type="MSShapeGroup"
     id="path6"
     style="font-variation-settings:normal;display:inline;opacity:1;vector-effect:none;fill:url(#linearGradient11990);fill-opacity:1;stroke-width:1.11627;stroke-linecap:butt;stroke-linejoin:miter;stroke-miterlimit:4;stroke-dasharray:none;stroke-dashoffset:0;stroke-opacity:1;-inkscape-stroke:none;stop-color:#000000;stop-opacity:1"
     sodipodi:nodetypes="sssss"
     inkscape:label="Shape"
     sodipodi:insensitive="true"
     inkscape:export-filename="../../../../ícones big/path6.svg"
     inkscape:export-xdpi="96"
     inkscape:export-ydpi="96" /><g
     style="fill:#ffffff"
     id="g11982"
     transform="matrix(0.04931011,0,0,0.04931011,4.4062373,4.4062431)"><g
       id="XMLID_468_"
       style="fill:#ffffff">
	<path
   id="XMLID_469_"
   d="m 227.904,176.981 c -0.6,-0.288 -23.054,-11.345 -27.044,-12.781 -1.629,-0.585 -3.374,-1.156 -5.23,-1.156 -3.032,0 -5.579,1.511 -7.563,4.479 -2.243,3.334 -9.033,11.271 -11.131,13.642 -0.274,0.313 -0.648,0.687 -0.872,0.687 -0.201,0 -3.676,-1.431 -4.728,-1.888 -24.087,-10.463 -42.37,-35.624 -44.877,-39.867 -0.358,-0.61 -0.373,-0.887 -0.376,-0.887 0.088,-0.323 0.898,-1.135 1.316,-1.554 1.223,-1.21 2.548,-2.805 3.83,-4.348 0.607,-0.731 1.215,-1.463 1.812,-2.153 1.86,-2.164 2.688,-3.844 3.648,-5.79 l 0.503,-1.011 c 2.344,-4.657 0.342,-8.587 -0.305,-9.856 -0.531,-1.062 -10.012,-23.944 -11.02,-26.348 -2.424,-5.801 -5.627,-8.502 -10.078,-8.502 -0.413,0 0,0 -1.732,0.073 -2.109,0.089 -13.594,1.601 -18.672,4.802 C 90,87.918 80.89,98.74 80.89,117.772 c 0,17.129 10.87,33.302 15.537,39.453 0.116,0.155 0.329,0.47 0.638,0.922 17.873,26.102 40.154,45.446 62.741,54.469 21.745,8.686 32.042,9.69 37.896,9.69 0.001,0 0.001,0 0.001,0 2.46,0 4.429,-0.193 6.166,-0.364 l 1.102,-0.105 c 7.512,-0.666 24.02,-9.22 27.775,-19.655 2.958,-8.219 3.738,-17.199 1.77,-20.458 -1.348,-2.216 -3.671,-3.331 -6.612,-4.743 z"
   style="fill:#ffffff" />
	<path
   id="XMLID_470_"
   d="M 156.734,0 C 73.318,0 5.454,67.354 5.454,150.143 c 0,26.777 7.166,52.988 20.741,75.928 L 0.212,302.716 c -0.484,1.429 -0.124,3.009 0.933,4.085 C 1.908,307.58 2.943,308 4,308 c 0.405,0 0.813,-0.061 1.211,-0.188 l 79.92,-25.396 c 21.87,11.685 46.588,17.853 71.604,17.853 C 240.143,300.27 308,232.923 308,150.143 308,67.354 240.143,0 156.734,0 Z m 0,268.994 c -23.539,0 -46.338,-6.797 -65.936,-19.657 -0.659,-0.433 -1.424,-0.655 -2.194,-0.655 -0.407,0 -0.815,0.062 -1.212,0.188 L 47.357,261.596 60.281,223.467 C 60.699,222.233 60.49,220.872 59.72,219.82 44.796,199.428 36.907,175.335 36.907,150.143 36.907,84.6 90.661,31.276 156.733,31.276 c 66.064,0 119.812,53.324 119.812,118.867 10e-4,65.535 -53.746,118.851 -119.811,118.851 z"
   style="fill:#ffffff" />
</g></g></svg>
