<svg xmlns="http://www.w3.org/2000/svg" xmlns:xlink="http://www.w3.org/1999/xlink" xml:space="preserve" id="svg154" width="24" height="24" fill="none" version="1.1"><defs id="defs152"><linearGradient id="linearGradient12456"><stop id="stop12454" offset="0" style="stop-color:#000;stop-opacity:1"/></linearGradient><linearGradient id="linearGradient10488"><stop id="stop10486" offset="0" style="stop-color:#000;stop-opacity:1"/></linearGradient><linearGradient id="linearGradient10413"><stop id="stop10411" offset="0" style="stop-color:#000;stop-opacity:1"/></linearGradient><linearGradient id="linearGradient5358"><stop id="stop5354" offset="0" style="stop-color:#e6e6e6;stop-opacity:1"/><stop id="stop5356" offset="1" style="stop-color:#fff;stop-opacity:1"/></linearGradient><linearGradient xlink:href="#linearGradient5358" id="linearGradient5360" x1="13.523" x2="13.744" y1="34.648" y2="-9.855" gradientUnits="userSpaceOnUse"/><linearGradient xlink:href="#linearGradient5358" id="linearGradient13399" x1="13.523" x2="13.744" y1="34.648" y2="-9.855" gradientUnits="userSpaceOnUse"/><style id="current-color-scheme" type="text/css">.ColorScheme-Text{color:#31363b}.ColorScheme-Background{color:#eff0f1}.ColorScheme-Highlight{color:#3daee9}.ColorScheme-ViewText{color:#31363b}.ColorScheme-ViewBackground{color:#fcfcfc}.ColorScheme-ViewHover{color:#93cee9}.ColorScheme-ViewFocus{color:#3daee9}.ColorScheme-ButtonText{color:#31363b}.ColorScheme-ButtonBackground{color:#eff0f1}.ColorScheme-ButtonHover{color:#93cee9}.ColorScheme-ButtonFocus{color:#3daee9}</style></defs><g id="g2267" style="fill:url(#linearGradient5360);fill-opacity:1"><path id="path6" d="M50 5C9.09 5 5 25.455 5 50c0 32.727 12.273 45 45 45 32.727 0 45-12.273 45-45 0-24.545-4.09-45-45-45Z" style="font-variation-settings:normal;display:inline;opacity:1;vector-effect:none;fill:url(#linearGradient13399);fill-opacity:1;stroke-width:4.56656;stroke-linecap:butt;stroke-linejoin:miter;stroke-miterlimit:4;stroke-dasharray:none;stroke-dashoffset:0;stroke-opacity:1;-inkscape-stroke:none;stop-color:#000;stop-opacity:1" transform="matrix(.24444 0 0 .24444 -.222 -.222)"/></g><g id="g3262" transform="matrix(.48545 0 0 .48545 18.38 6.068)"><path id="path3268" d="M-22.309 27.333a.15.15 0 0 1 .065 0c.017.005.003.009-.032.009-.036 0-.05-.004-.033-.009zm18.26 0a.15.15 0 0 1 .065 0c.017.005.003.009-.032.009-.036 0-.05-.004-.033-.009zm-18.386-.018a.017.017 0 0 1 .024 0c.007.007.001.013-.012.013-.014 0-.02-.006-.012-.013zm18.553 0a.017.017 0 0 1 .024 0c.007.007.002.013-.012.013-.013 0-.019-.006-.012-.013zm-18.862-.058a2.195 2.195 0 0 1-.786-.478c-.296-.282-.551-.758-.585-1.092-.009-.084-.008-.086.008-.028.147.519.277.768.55 1.048s.565.45.947.556c.135.037.148.044.086.044a.906.906 0 0 1-.22-.05zm19.034.015a2.06 2.06 0 0 0 1.49-1.49c.028-.11.034-.12.035-.065.002.09-.072.311-.171.508a2.11 2.11 0 0 1-.634.744c-.226.166-.632.342-.782.339-.062-.002-.054-.006.062-.036zm1.527-1.65c0-.013.005-.018.012-.012a.017.017 0 0 1 0 .025c-.007.007-.012.001-.012-.012zm-21.96-.146c0-.035.005-.05.01-.032a.15.15 0 0 1 0 .064c-.005.018-.01.003-.01-.032zm21.982 0c0-.035.004-.05.009-.032a.15.15 0 0 1 0 .064c-.005.018-.009.003-.009-.032zm-13.385-6.387c-.015-.018-.02-.26-.016-.866l.005-.841h4.821l.005.841c.004.606 0 .848-.016.866-.03.038-4.768.038-4.799 0zm4.778-.85-.004-.839H-15.521l-.004.839-.005.839H-10.763zm-4.957-2.702a4.349 4.349 0 0 1-.648-.56 4.455 4.455 0 0 1-1.193-2.362 5.9 5.9 0 0 1-.037-1.205 4.513 4.513 0 0 1 1.293-2.7c.683-.682 1.521-1.105 2.513-1.268a6.04 6.04 0 0 1 1.301 0c.987.161 1.835.59 2.513 1.267.49.49.873 1.11 1.088 1.761.174.528.23.918.217 1.513-.01.45-.04.676-.143 1.06a4.548 4.548 0 0 1-1.794 2.53l-.136.095H-15.544l-.18-.131zm5.157-.037c.327-.235.544-.434.79-.722a4.445 4.445 0 0 0-1.966-7.12 4.174 4.174 0 0 0-1.402-.222c-1.04 0-1.992.335-2.796.984a5.643 5.643 0 0 0-.691.695 4.452 4.452 0 0 0 .975 6.433l.119.082h2.395l2.395.001.18-.13zM-5.941.882c-2.063-2.062-3.737-3.75-3.722-3.75.036 0 7.487 7.451 7.478 7.478-.004.012-1.694-1.666-3.756-3.728zm-18.201-1.916c0-.035.004-.05.008-.032a.15.15 0 0 1 0 .064c-.004.018-.008.003-.008-.032zm.027-.21c.032-.317.252-.745.535-1.043.283-.297.759-.552 1.093-.586.084-.008.086-.008.027.009-.53.15-.782.284-1.072.574-.29.29-.425.542-.575 1.073-.016.058-.017.056-.008-.028zm1.806-1.654a.15.15 0 0 1 .065 0c.017.004.003.008-.032.008-.036 0-.05-.004-.033-.008z" style="fill:#fbe29d;stroke-width:.0183333"/><path id="path3266" d="M-22.295 27.332c-.11-.01-.45-.103-.592-.162a2.104 2.104 0 0 1-.758-.56c-.206-.241-.34-.505-.442-.872l-.05-.18V-1.117l.05-.179c.135-.483.341-.821.676-1.107.238-.202.497-.335.863-.441l.17-.05 6.326-.005 6.325-.005 3.79 3.79 3.79 3.79-.004 10.442-.005 10.44-.051.183c-.136.485-.34.818-.675 1.104-.242.206-.5.336-.87.44l-.182.052-9.14.001c-5.026.001-9.175-.001-9.22-.005zm11.548-8.243c.015-.018.02-.26.016-.866l-.005-.841h-4.821l-.005.841c-.004.606 0 .848.016.866.03.038 4.768.038 4.8 0zm.132-3.516c.253-.177.392-.295.641-.545a4.404 4.404 0 0 0 1.248-2.413c.055-.312.069-.954.026-1.274a4.37 4.37 0 0 0-.431-1.44 4.433 4.433 0 0 0-2.045-2.043 4.508 4.508 0 0 0-1.32-.416 6.039 6.039 0 0 0-1.301 0c-.992.163-1.83.586-2.513 1.267a4.513 4.513 0 0 0-1.293 2.701c-.032.302-.013.925.037 1.205.213 1.205.837 2.196 1.841 2.922l.181.13H-10.75l.136-.094zm8.402-10.918c.016-.017-7.47-7.505-7.49-7.493-.008.005-.015 1.68-.015 3.72 0 3.688 0 3.713.037 3.749.036.036.06.037 3.746.037 2.04 0 3.715-.006 3.722-.013z" style="fill:#f9ba03;stroke-width:.0183333"/><path id="path3264" d="M-9.681 4.631c-.037-.036-.037-.061-.037-3.748 0-2.041.007-3.716.015-3.72.02-.013 7.506 7.475 7.49 7.492-.007.007-1.682.013-3.722.013-3.685 0-3.71 0-3.746-.037zm7.498.01a.01.01 0 0 1 .009-.01.01.01 0 0 1 .01.01.01.01 0 0 1-.01.008.01.01 0 0 1-.01-.009zM-9.7-2.878a.01.01 0 0 1 .01-.009.01.01 0 0 1 .009.01.01.01 0 0 1-.01.009.01.01 0 0 1-.009-.01z" style="fill:#f19800;stroke-width:.0183333"/></g></svg>