<svg xmlns="http://www.w3.org/2000/svg" xmlns:xlink="http://www.w3.org/1999/xlink" xml:space="preserve" id="svg154" width="24" height="24" fill="none" version="1.1"><defs id="defs152"><linearGradient id="linearGradient60317"><stop id="stop60313" offset="0" style="stop-color:#2780ff;stop-opacity:1"/><stop id="stop63771" offset=".4" style="stop-color:#9a37ff;stop-opacity:1"/><stop id="stop65774" offset=".542" style="stop-color:#e249a6;stop-opacity:1"/><stop id="stop60315" offset="1" style="stop-color:#ff636e;stop-opacity:1"/></linearGradient><linearGradient id="linearGradient4924"><stop id="stop4922" offset="0" style="stop-color:#000;stop-opacity:1"/></linearGradient><linearGradient id="linearGradient2219"><stop id="stop2217" offset="0" style="stop-color:#000;stop-opacity:1"/></linearGradient><linearGradient id="linearGradient2199"><stop id="stop2197" offset="0" style="stop-color:#000;stop-opacity:1"/></linearGradient><linearGradient id="linearGradient2193"><stop id="stop2191" offset="0" style="stop-color:#000;stop-opacity:1"/></linearGradient><linearGradient xlink:href="#linearGradient60317" id="linearGradient60319" x1="-55.875" x2="-41.75" y1="21.5" y2="-18.75" gradientUnits="userSpaceOnUse"/><linearGradient xlink:href="#linearGradient60317" id="linearGradient70422" x1="-55.875" x2="-41.75" y1="21.5" y2="-18.75" gradientUnits="userSpaceOnUse"/><style id="current-color-scheme" type="text/css">.ColorScheme-Text{color:#31363b}.ColorScheme-Background{color:#eff0f1}.ColorScheme-Highlight{color:#3daee9}.ColorScheme-ViewText{color:#31363b}.ColorScheme-ViewBackground{color:#fcfcfc}.ColorScheme-ViewHover{color:#93cee9}.ColorScheme-ViewFocus{color:#3daee9}.ColorScheme-ButtonText{color:#31363b}.ColorScheme-ButtonBackground{color:#eff0f1}.ColorScheme-ButtonHover{color:#93cee9}.ColorScheme-ButtonFocus{color:#3daee9}</style></defs><g id="g2267" style="fill:url(#linearGradient60319);fill-opacity:1" transform="translate(62.5 9.625)"><path id="path6" d="M-50.5-8.625c-10 0-11 5-11 11 0 8 3 11 11 11s11-3 11-11c0-6-1-11-11-11z" style="font-variation-settings:normal;display:inline;opacity:1;vector-effect:none;fill:url(#linearGradient70422);fill-opacity:1;stroke-width:1.11627;stroke-linecap:butt;stroke-linejoin:miter;stroke-miterlimit:4;stroke-dasharray:none;stroke-dashoffset:0;stroke-opacity:1;-inkscape-stroke:none;stop-color:#000;stop-opacity:1"/></g><g id="g58292" style="fill:#fff" transform="matrix(.48169 0 0 .48169 4.294 4.291)"><path id="path58283" d="M0 15.521C0 6.599 6.984 0 16 0s16 6.599 16 15.521c0 8.917-6.984 15.521-16 15.521-1.615 0-3.172-.214-4.625-.615a1.266 1.266 0 0 0-.854.068l-3.188 1.401a1.282 1.282 0 0 1-1.802-1.135l-.094-2.854a1.281 1.281 0 0 0-.422-.906A15.192 15.192 0 0 1-.001 15.522Zm11.094-2.922-4.693 7.469c-.469.703.427 1.521 1.094 1l5.052-3.828a.944.944 0 0 1 1.161 0l3.729 2.802a2.41 2.41 0 0 0 3.469-.641l4.693-7.469c.469-.703-.427-1.505-1.094-1l-5.052 3.828a.923.923 0 0 1-1.146 0l-3.734-2.802a2.398 2.398 0 0 0-3.479.641z" style="fill:#fff"/></g></svg>