<?xml version="1.0" standalone="no"?>
<!DOCTYPE svg PUBLIC "-//W3C//DTD SVG 20010904//EN"
 "http://www.w3.org/TR/2001/REC-SVG-20010904/DTD/svg10.dtd">
<svg version="1.0" xmlns="http://www.w3.org/2000/svg"
 width="152.000000pt" height="152.000000pt" viewBox="0 0 152.000000 152.000000"
 preserveAspectRatio="xMidYMid meet">

<g transform="translate(0.000000,152.000000) scale(0.100000,-0.100000)"
fill="#000000" stroke="none">
<path d="M306 1509 c-62 -15 -153 -68 -197 -116 -22 -24 -55 -74 -72 -111
l-32 -67 0 -455 0 -455 32 -67 c44 -93 100 -151 191 -196 l76 -37 456 0 456 0
76 37 c91 45 147 103 191 196 l32 67 0 455 0 455 -32 67 c-44 93 -100 151
-191 196 l-76 37 -435 2 c-243 1 -453 -3 -475 -8z m634 -284 c0 -49 30 -103
84 -153 41 -38 51 -42 96 -42 l50 0 0 -96 0 -96 -47 7 c-27 3 -77 19 -112 36
-35 16 -65 29 -66 29 -2 0 -5 -98 -7 -217 -3 -205 -4 -221 -26 -261 -74 -138
-240 -210 -387 -168 -47 14 -70 29 -117 76 -77 78 -102 133 -102 230 -1 99 27
163 100 229 61 56 123 81 201 81 l53 0 0 -85 0 -85 -42 0 c-83 0 -141 -58
-142 -140 -2 -111 118 -180 214 -124 18 10 41 35 51 54 18 32 19 63 19 397 l0
363 90 0 90 0 0 -35z"/>
</g>
</svg>
