<svg xmlns="http://www.w3.org/2000/svg" xmlns:xlink="http://www.w3.org/1999/xlink" xml:space="preserve" id="svg154" width="24" height="24" fill="none" version="1.1"><defs id="defs152"><linearGradient id="linearGradient5358"><stop id="stop5354" offset="0" style="stop-color:#e6e6e6;stop-opacity:1"/><stop id="stop5356" offset="1" style="stop-color:#fff;stop-opacity:1"/></linearGradient><linearGradient xlink:href="#linearGradient5358" id="linearGradient5360" x1="13.523" x2="13.744" y1="34.648" y2="-9.855" gradientUnits="userSpaceOnUse"/><linearGradient xlink:href="#linearGradient5358" id="linearGradient9751" x1="13.523" x2="13.744" y1="34.648" y2="-9.855" gradientUnits="userSpaceOnUse"/><linearGradient id="a" x1="16.942" x2="85.671" y1="83.36" y2="89.583" gradientUnits="userSpaceOnUse"><stop id="stop800" offset="0" stop-color="#f32b44"/><stop id="stop802" offset=".6" stop-color="#a4070a"/></linearGradient><linearGradient id="b"><stop id="stop805" offset="0" stop-opacity=".4"/><stop id="stop807" offset="1" stop-opacity="0"/></linearGradient><linearGradient id="d" x1="44.738" x2="-5.901" y1="-3.312" y2="71.527" gradientUnits="userSpaceOnUse"><stop id="stop811" offset="0" stop-color="#800600"/><stop id="stop813" offset=".6" stop-color="#c72127"/><stop id="stop815" offset=".728" stop-color="#c13959"/><stop id="stop817" offset=".847" stop-color="#bc4b81"/><stop id="stop819" offset=".942" stop-color="#b95799"/><stop id="stop821" offset="1" stop-color="#b85ba2"/></linearGradient><linearGradient id="f" x1="61.486" x2="61.486" y1="-4.887" y2="88.781" gradientUnits="userSpaceOnUse"><stop id="stop825" offset="0" stop-color="#ffb900"/><stop id="stop827" offset=".166" stop-color="#ef8400"/><stop id="stop829" offset=".313" stop-color="#e25c01"/><stop id="stop831" offset=".429" stop-color="#db4401"/><stop id="stop833" offset=".5" stop-color="#d83b01"/></linearGradient><linearGradient xlink:href="#a" id="linearGradient1226" x1="16.942" x2="85.671" y1="83.36" y2="89.583" gradientUnits="userSpaceOnUse"/><linearGradient xlink:href="#b" id="linearGradient1228" x1="63.515" x2="33.003" y1="87.298" y2="84.535" gradientUnits="userSpaceOnUse"/><linearGradient xlink:href="#d" id="linearGradient1230" x1="44.738" x2="-5.901" y1="-3.312" y2="71.527" gradientUnits="userSpaceOnUse"/><linearGradient xlink:href="#b" id="linearGradient1232" x1="45.823" x2="35.099" y1="-4.81" y2="11.039" gradientUnits="userSpaceOnUse"/><linearGradient xlink:href="#f" id="linearGradient1234" x1="61.486" x2="61.486" y1="-4.887" y2="88.781" gradientUnits="userSpaceOnUse"/><style id="current-color-scheme" type="text/css">.ColorScheme-Text{color:#31363b}.ColorScheme-Background{color:#eff0f1}.ColorScheme-Highlight{color:#3daee9}.ColorScheme-ViewText{color:#31363b}.ColorScheme-ViewBackground{color:#fcfcfc}.ColorScheme-ViewHover{color:#93cee9}.ColorScheme-ViewFocus{color:#3daee9}.ColorScheme-ButtonText{color:#31363b}.ColorScheme-ButtonBackground{color:#eff0f1}.ColorScheme-ButtonHover{color:#93cee9}.ColorScheme-ButtonFocus{color:#3daee9}</style></defs><g id="g2267" style="fill:url(#linearGradient5360);fill-opacity:1"><path id="path6" d="M50 5C9.09 5 5 25.455 5 50c0 32.727 12.273 45 45 45 32.727 0 45-12.273 45-45 0-24.545-4.09-45-45-45Z" style="font-variation-settings:normal;display:inline;opacity:1;vector-effect:none;fill:url(#linearGradient9751);fill-opacity:1;stroke-width:4.56656;stroke-linecap:butt;stroke-linejoin:miter;stroke-miterlimit:4;stroke-dasharray:none;stroke-dashoffset:0;stroke-opacity:1;-inkscape-stroke:none;stop-color:#000;stop-opacity:1" transform="translate(-.222 -.222) scale(.24444)"/></g><g id="g739" transform="translate(6.458 5.246) scale(.1407)"><path id="path718" fill="url(#a)" d="M19.143 75.558c-2.724 0-4.945 2.121-4.945 4.753 0 1.789 1.031 3.322 2.565 4.14l19.118 10.246A10.11 10.11 0 0 0 40.85 96c1.164 0 2.275-.204 3.306-.562l6.531-1.814V75.533c.027.025-31.519.025-31.545.025z" style="fill:url(#linearGradient1226)"/><path id="path720" fill="url(#c)" d="M19.143 75.558c-2.724 0-4.945 2.121-4.945 4.753 0 1.789 1.031 3.322 2.565 4.14l19.118 10.246A10.11 10.11 0 0 0 40.85 96c1.164 0 2.275-.204 3.306-.562l6.531-1.814V75.533c.027.025-31.519.025-31.545.025z" style="fill:url(#linearGradient1228)"/><path id="path722" fill="url(#d)" d="M43.736.383A9.968 9.968 0 0 0 40.959 0c-1.56 0-3.12.307-4.522 1.022-.29.128-31.096 16.864-31.096 16.864-.423.205-.82.46-1.19.716-.052.025-.079.051-.132.077-.238.178-.45.357-.687.536-.106.077-.212.18-.291.256a4.7 4.7 0 0 0-.37.383c-.37.383-1.005 1.2-1.005 1.2A9.15 9.15 0 0 0 0 26.345v44.46c0 2.633 2.221 4.754 4.945 4.754.687 0 1.322-.128 1.904-.384l8.805-4.778c1.586-.766 2.856-2.07 3.517-3.68.158-.332.29-.74.37-1.15.026-.102.053-.23.053-.332 0-.05.026-.127.026-.178.027-.18.053-.384.053-.562 0-.154.027-.282.027-.435V33.013c0-2.07.925-3.935 2.38-5.238 0 0-.688.613 0 0 .687-.613 1.586-1.15 2.644-1.507 1.057-.384 26.072-9.122 26.072-9.122V2.402Z" style="fill:url(#linearGradient1230)"/><path id="path724" fill="url(#e)" d="M43.736.383A9.968 9.968 0 0 0 40.959 0c-1.56 0-3.12.307-4.522 1.022-.29.128-31.096 16.864-31.096 16.864-.423.205-.82.46-1.19.716-.052.025-.079.051-.132.077-.238.178-.45.357-.687.536-.106.077-.212.18-.291.256a4.7 4.7 0 0 0-.37.383c-.37.383-1.005 1.2-1.005 1.2A9.15 9.15 0 0 0 0 26.345v44.46c0 2.633 2.221 4.754 4.945 4.754.687 0 1.322-.128 1.904-.384l8.805-4.778c1.586-.766 2.856-2.07 3.517-3.68.158-.332.29-.74.37-1.15.026-.102.053-.23.053-.332 0-.05.026-.127.026-.178.027-.18.053-.384.053-.562 0-.154.027-.282.027-.435V33.013c0-2.07.925-3.935 2.38-5.238 0 0-.688.613 0 0 .687-.613 1.586-1.15 2.644-1.507 1.057-.384 26.072-9.122 26.072-9.122V2.402Z" style="fill:url(#linearGradient1232)"/><path id="path726" fill="url(#f)" d="M71.898 8.35 44.16.507c4.019 1.508 6.53 4.906 6.53 9.046 0 0-.025 75.2 0 77.014.027 4.088-2.67 7.589-6.53 8.892.846-.23 27.738-7.717 27.738-7.717 3.992-1.226 6.875-4.804 6.875-9.07V17.42c.026-4.24-2.883-7.844-6.875-9.07Z" style="fill:url(#linearGradient1234)"/></g></svg>