<svg xmlns="http://www.w3.org/2000/svg" xml:space="preserve" width="24" height="24" viewBox="0 0 6.35 6.35"><defs><linearGradient id="a" x1="12" x2="12" y1="1" y2="23" gradientTransform="matrix(.75 0 0 .75 0 0)" gradientUnits="userSpaceOnUse" spreadMethod="pad"><stop offset="0" style="stop-opacity:1;stop-color:#4a74d2"/><stop offset="1" style="stop-opacity:1;stop-color:#375295"/></linearGradient></defs><path d="M7.195.836c.09 0 .176-.012.258-.035a23.86 23.86 0 0 1 3.231.008 10.26 10.26 0 0 1 2.836.636c1.519.625 2.558 1.711 3.121 3.254.316.93.507 1.887.566 2.867a21.227 21.227 0 0 1-.086 3.696 8.976 8.976 0 0 1-.672 2.488c-.637 1.383-1.672 2.336-3.101 2.859a11.693 11.693 0 0 1-3.575.618 15.998 15.998 0 0 1-4.089-.309c-2.481-.551-4.016-2.066-4.594-4.543a14.244 14.244 0 0 1-.336-3.383c-.027-1.215.101-2.41.387-3.59.609-2.312 2.078-3.746 4.406-4.3A10.27 10.27 0 0 1 7.195.836Z" style="fill:url(#a);fill-rule:evenodd;stroke:none" transform="scale(.35277)"/><path d="M6.211 7.75h1.195v-.797c0-.621.09-1.047.235-1.355.148-.305.421-.551.816-.743.398-.191.902-.293 1.508-.293.617 0 1.269.161 1.824.399l-.398 1.195a3.934 3.934 0 0 0-.899-.094c-.316 0-.543.071-.683.204-.137.129-.411.312-.411.691v.797h1.993v1.195H9.398v5.973H7.422l-.016-5.973H6.211" style="fill:none;stroke:#000;stroke-width:.375;stroke-linecap:round;stroke-linejoin:round;stroke-miterlimit:4;stroke-dasharray:none;stroke-opacity:.0782866" transform="scale(.35277)"/><path d="M6.211 7.75h1.195v-.797c0-.621.09-1.047.235-1.355.148-.305.421-.551.816-.743.398-.191.902-.293 1.508-.293.617 0 1.269.161 1.824.399l-.398 1.195a3.934 3.934 0 0 0-.899-.094c-.316 0-.543.071-.683.204-.137.129-.411.312-.411.691v.797h1.993v1.195H9.398v5.973H7.422l-.016-5.973H6.211" style="fill:#f9f9f9;fill-opacity:1;fill-rule:nonzero;stroke:none" transform="scale(.35277)"/></svg>