<svg xmlns="http://www.w3.org/2000/svg" xmlns:xlink="http://www.w3.org/1999/xlink" xml:space="preserve" width="24" height="24" fill="none"><defs><linearGradient id="a"><stop offset="0" style="stop-color:#04a;stop-opacity:1"/><stop offset="1" style="stop-color:#80b3ff;stop-opacity:1"/></linearGradient><linearGradient xlink:href="#a" id="b" x1="50.989" x2="50.266" y1="93.476" y2="-13.193" gradientTransform="matrix(.24444 0 0 .24444 -.222 -.222)" gradientUnits="userSpaceOnUse"/></defs><path d="M12 1C2 1 1 6 1 12c0 8 3 11 11 11s11-3 11-11c0-6-1-11-11-11Z" style="font-variation-settings:normal;display:inline;opacity:1;vector-effect:none;fill:url(#b);fill-opacity:1;stroke-width:1.11627;stroke-linecap:butt;stroke-linejoin:miter;stroke-miterlimit:4;stroke-dasharray:none;stroke-dashoffset:0;stroke-opacity:1;-inkscape-stroke:none;stop-color:#000;stop-opacity:1"/><path d="M4.569 16.833c-.25-.072-.446-.333-.427-.566.014-.162.035-.189.147-.189.119 0 .132.022.141.236.014.31.188.472.504.47.497-.002.842-.298 1.187-1.02l.413-.87c.193-.406.632-.991.745-.991.024 0-.025.132-.11.294-.164.311-.34.848-.294.894.066.066.41-.11.579-.297.35-.387.37-.853.052-1.171-.365-.366-1.333-.323-1.94.084-.644.433-.804 1.43-.258 1.61.295.098.535-.054.602-.379.038-.188.193-.26.248-.115.058.152-.133.429-.356.518-.756.302-1.34-.342-.995-1.098.136-.302.568-.668.96-.818.283-.107.421-.125.96-.123.553 0 .659.016.88.125.474.232.654.643.467 1.066a1.122 1.122 0 0 1-.285.372c-.182.14-.712.348-.88.348-.063 0-.127.095-.205.302-.374.994-1.294 1.562-2.135 1.318zm11.987-.463a.526.526 0 0 1-.054-.208c0-.103-.007-.103-.191.023-.21.142-.332.161-.428.066-.098-.098-.076-.216.123-.652.217-.477.223-.606.019-.445-.076.06-.24.331-.366.607-.221.482-.236.5-.4.5-.139 0-.163-.016-.134-.09.028-.073.006-.068-.114.026-.192.151-.332.148-.403-.008l-.057-.126-.185.126c-.425.288-.584 0-.304-.55l.135-.268h-.123c-.098 0-.137.041-.184.196-.138.453-.446.746-.782.747-.186 0-.379-.152-.382-.301-.001-.081-.012-.08-.093.017-.267.32-.639.37-.639.085 0-.08.083-.317.184-.527.185-.387.222-.532.136-.532-.106 0-.357.37-.526.775-.175.416-.187.43-.354.43-.096 0-.174-.01-.174-.02 0-.013.085-.22.189-.46.273-.634.284-.666.233-.697-.088-.055-.345.29-.536.718-.176.395-.208.435-.354.45-.091.01-.16-.008-.16-.04 0-.037-.06-.027-.158.024-.179.092-.367.033-.367-.115 0-.078-.008-.078-.092-.002-.153.138-.373.202-.488.14-.136-.072-.134-.382.004-.653a7.66 7.66 0 0 0 .104-.21 1.28 1.28 0 0 0-.144-.001c-.12.001-.142-.018-.13-.123.025-.23-.121-.029-.358.493-.218.48-.23.497-.397.497-.142 0-.167-.017-.14-.092.032-.085.027-.085-.066-.008-.2.167-.442.175-.442.015 0-.093-.075-.093-.153 0-.087.106-.304.149-.424.084-.126-.067-.14-.337-.03-.598.1-.242.441-.608.645-.694.233-.097.696-.094.696.005 0 .04-.098.3-.219.576-.12.276-.203.517-.183.536.092.093.39-.34.613-.886.107-.263.14-.301.266-.301.079 0 .154.03.167.065.02.053.038.053.094 0 .084-.08.31-.087.31-.01 0 .031-.025.104-.056.162-.096.179-.008.176.249-.008a.92.92 0 0 1 .522-.199c.448-.037.461-.018.275.394-.268.59-.317.749-.23.749.109 0 .309-.288.517-.747.16-.353.203-.406.319-.406.086 0 .134.029.134.081 0 .074.011.074.116 0 .153-.106.39-.104.451.005.045.08.057.08.172 0a.596.596 0 0 1 .291-.086c.264 0 .269.14.023.669-.118.256-.188.466-.158.476.094.032.269-.166.394-.445.313-.703.907-.957 1.147-.493.045.088.113.16.15.16.084 0 .297-.22.297-.305 0-.036.077-.062.183-.062.101 0 .184.011.184.025 0 .014-.093.226-.206.47-.274.593-.293.658-.191.658.116 0 .357-.354.534-.784.143-.35.16-.369.321-.369.094 0 .17.019.17.042 0 .023-.093.253-.208.51-.215.484-.247.601-.16.601.085 0 .307-.333.5-.75.173-.375.198-.403.348-.403.112 0 .153.02.134.07-.019.048.033.04.175-.03.162-.081.222-.088.314-.04.144.078.124.21-.11.72-.189.413-.177.522.035.324.195-.181.571-.94.467-.94-.043 0-.08-.023-.08-.052 0-.029.045-.052.099-.052.068 0 .13-.08.206-.262.09-.216.133-.262.24-.262.179 0 .203.06.11.28-.096.233-.096.244.001.244.124 0 .092.096-.038.114-.092.013-.164.124-.338.515-.26.585-.287.786-.105.786.066 0 .189-.07.271-.157.197-.206.272-.202.12.005-.221.3-.66.418-.773.208zm-3.288-.306c.118-.13.337-.629.38-.864.031-.176.024-.196-.075-.196-.072 0-.158.076-.25.221-.17.27-.349.763-.311.86.038.1.155.09.256-.021zm-5.399-.137c.151-.163.486-.858.437-.907-.123-.124-.622.495-.694.862-.027.137-.017.17.054.17.048 0 .14-.056.203-.125zm2.201-.045c.07-.094.2-.33.289-.525.147-.321.153-.353.064-.353-.214 0-.757.833-.652 1.002.056.092.176.042.3-.124zm8.161.041c0-.017.07-.183.154-.37l.154-.34h-.39c-.214 0-.39-.01-.39-.022 0-.013.024-.084.052-.158.049-.128.07-.134.45-.134h.398l.163-.367c.155-.347.173-.367.337-.367.095 0 .173.013.173.028 0 .015-.059.168-.13.339a3.502 3.502 0 0 0-.132.34c0 .014.178.027.395.027h.394l-.08.155c-.077.149-.096.156-.482.17l-.401.016-.144.34c-.136.322-.155.342-.332.357-.104.01-.189.003-.189-.014zm-9.557-2.95a3.88 3.88 0 0 1-.475-2.78c.293-1.42 1.3-2.503 2.747-2.955.504-.158 1.461-.171 1.992-.028 1.381.372 2.468 1.472 2.807 2.84.132.535.123 1.357-.022 1.876-.191.69-.548 1.34-.703 1.281-.044-.017-.273-.262-.51-.545-.57-.681-.929-1.055-1.1-1.144-.095-.049-.28-.315-.57-.822-.485-.848-.693-1.058-.925-.934-.07.038-.19.165-.269.283a2.417 2.417 0 0 1-.28.346c-.075.072-.358.414-.628.76-.27.346-.599.735-.731.865-.133.13-.4.441-.593.692-.485.63-.513.639-.74.264zm.52-.957c.071 0 .076-.014.023-.078-.036-.043-.053-.11-.038-.148.02-.05-.024-.069-.151-.066-.125.003-.178.028-.179.085 0 .045-.028.11-.063.144-.049.05-.043.063.025.063.048 0 .115.052.149.116l.062.116.043-.116c.024-.064.082-.116.13-.116zm5.93-.091a.168.168 0 0 1-.019-.144c.036-.092-.024-.105-.107-.022-.04.04-.067.04-.092 0-.06-.097-.143-.063-.109.043.021.067 0 .12-.062.156-.088.051-.088.055-.003.056.05.001.119.045.152.098.057.092.064.091.173-.013.077-.073.099-.13.066-.174zm-6.135-.8c.116 0 .126-.012.068-.08-.05-.062-.052-.096-.006-.142.092-.093.072-.138-.047-.107-.068.018-.134-.008-.182-.07-.071-.095-.074-.094-.076.02 0 .066-.037.134-.08.15-.043.017-.079.052-.079.077 0 .026.036.047.079.047.05 0 .079.052.08.144.001.124.01.131.055.053.03-.05.114-.092.188-.092zm6.342-.129c.088-.036.087-.042-.022-.084-.064-.025-.118-.085-.118-.132 0-.07-.014-.075-.076-.024-.045.038-.124.048-.196.025-.107-.034-.112-.029-.049.048.04.047.06.133.044.19-.02.078-.002.106.07.106.053 0 .113.028.134.061.026.042.051.027.078-.045a.282.282 0 0 1 .135-.145zm-6.246-.815c.052.084.131.061.097-.028-.017-.044.01-.127.062-.183.09-.1.09-.103-.017-.103a.204.204 0 0 1-.162-.092c-.049-.087-.053-.087-.087 0a.155.155 0 0 1-.134.092c-.117 0-.133.08-.025.122.047.018.064.07.045.143-.027.102-.018.108.08.055.071-.038.12-.04.141-.006zm5.821-.004c.025-.041.051-.041.092 0 .086.086.157.068.12-.03-.02-.048.005-.128.054-.183.083-.091.082-.097-.022-.097a.204.204 0 0 1-.162-.092c-.05-.087-.053-.087-.087 0a.155.155 0 0 1-.134.092c-.12 0-.132.081-.017.125.054.021.07.067.048.137-.035.11.047.146.108.048zm-5.24-.991c.04 0 .074-.024.074-.053 0-.029-.035-.052-.078-.052-.05 0-.08-.052-.08-.144-.002-.136-.007-.139-.077-.046-.047.063-.113.088-.182.07-.12-.031-.138.015-.044.11.049.048.049.076 0 .125-.096.096-.075.14.049.108.075-.02.13.003.17.07.054.092.06.088.075-.044.01-.083.05-.144.092-.144zm4.965.104c.07 0 .09-.025.068-.082a.249.249 0 0 1 .02-.178c.044-.082.035-.092-.06-.067-.074.02-.137-.004-.183-.067-.068-.093-.07-.092-.07.015a.215.215 0 0 1-.093.167c-.087.053-.087.058 0 .11.05.03.092.094.092.142 0 .067.014.072.063.023a.264.264 0 0 1 .163-.063zm-.63-.733c.09 0 .093-.011.03-.087a.276.276 0 0 1-.053-.194c.015-.091.006-.097-.062-.04-.063.051-.106.052-.197.004-.102-.055-.112-.051-.08.03.02.055 0 .13-.053.19-.083.091-.082.097.03.097.077 0 .128.04.148.115l.03.116.052-.116c.028-.063.098-.115.154-.115zm-3.659 0c.08 0 .083-.012.02-.087a.276.276 0 0 1-.053-.194c.015-.091.006-.097-.062-.04-.062.05-.107.052-.194.005-.102-.055-.11-.05-.077.053.025.079.007.135-.06.186-.092.07-.091.073.022.075.066 0 .135.04.153.088.03.08.038.08.096 0a.222.222 0 0 1 .155-.086zm.832-.39c.093.036.12-.055.034-.108-.035-.022-.034-.069.004-.138.048-.09.042-.104-.044-.089a.268.268 0 0 1-.188-.055c-.076-.063-.087-.058-.087.034a.16.16 0 0 1-.091.14c-.088.034-.088.039 0 .088.05.028.091.1.091.161 0 .105.006.106.098.023.054-.05.135-.074.183-.055zm1.99-.114.114-.036-.118-.053c-.067-.03-.118-.1-.12-.162 0-.101-.006-.103-.069-.021-.045.059-.108.079-.187.058-.109-.028-.113-.022-.051.077.055.089.054.123-.004.194-.064.077-.057.083.068.051.107-.027.149-.012.179.063.036.088.04.087.056-.019a.208.208 0 0 1 .132-.152zm-1.235-.029c.046-.046.082-.043.147.01.075.064.083.059.067-.04a.21.21 0 0 1 .087-.193c.102-.077.1-.08-.04-.081-.092-.001-.143-.03-.143-.08 0-.044-.024-.08-.053-.08-.029 0-.052.036-.052.08 0 .05-.052.079-.144.08-.136.001-.139.006-.046.076.063.047.088.113.07.182-.03.119.015.139.107.046zm-.005 5.215c-.066-.066-.036-.254.105-.66.077-.223.124-.422.104-.442-.02-.02-.183-.045-.363-.056a3.196 3.196 0 0 1-.389-.04c-.042-.013.005-.176.146-.502.129-.295.191-.501.161-.531-.03-.03.034-.24.163-.54.176-.41.225-.484.297-.446.047.026.308.434.58.908.368.642.515.855.579.839.052-.014.178.076.326.23.327.344 1.03 1.187 1.032 1.238.001.023-.179.035-.4.026l-.404-.015-.19-.275c-.208-.3-.426-.548-.456-.518-.01.01.031.153.092.317.151.403.127.446-.22.392a6.578 6.578 0 0 1-.398-.073c-.093-.023-.118-.006-.118.077 0 .094-.034.106-.306.106-.168 0-.322-.016-.34-.035zm-1.555-.285c0-.194.657-1.335.883-1.536.147-.13.143-.085-.023.24-.087.172-.126.319-.109.405a.422.422 0 0 1-.229.442c-.069.035-.197.161-.284.282-.16.22-.238.274-.238.167z" style="fill:#fff;stroke-width:.0524148"/></svg>