<svg xmlns="http://www.w3.org/2000/svg" xmlns:xlink="http://www.w3.org/1999/xlink" xml:space="preserve" id="svg154" width="24" height="24" fill="none" version="1.1"><defs id="defs152"><linearGradient id="linearGradient5358"><stop id="stop5354" offset="0" style="stop-color:#1a1a1a;stop-opacity:1"/><stop id="stop5356" offset="1" style="stop-color:gray;stop-opacity:1"/></linearGradient><linearGradient id="linearGradient5350"><stop id="stop5346" offset="0" style="stop-color:#2c95d0;stop-opacity:1"/><stop id="stop5348" offset="1" style="stop-color:#afc6e9;stop-opacity:1"/></linearGradient><linearGradient xlink:href="#linearGradient5350" id="linearGradient5352" x1="-10.297" x2="26.605" y1="-.486" y2="-10.916" gradientTransform="matrix(.70475 0 0 .70475 9.021 15.411)" gradientUnits="userSpaceOnUse"/><linearGradient xlink:href="#linearGradient5358" id="linearGradient5360" x1="13.523" x2="13.744" y1="34.648" y2="-9.855" gradientUnits="userSpaceOnUse"/><linearGradient xlink:href="#linearGradient5358" id="linearGradient5454" x1="13.523" x2="13.744" y1="34.648" y2="-9.855" gradientUnits="userSpaceOnUse"/><style id="current-color-scheme" type="text/css">.ColorScheme-Text{color:#31363b}.ColorScheme-Background{color:#eff0f1}.ColorScheme-Highlight{color:#3daee9}.ColorScheme-ViewText{color:#31363b}.ColorScheme-ViewBackground{color:#fcfcfc}.ColorScheme-ViewHover{color:#93cee9}.ColorScheme-ViewFocus{color:#3daee9}.ColorScheme-ButtonText{color:#31363b}.ColorScheme-ButtonBackground{color:#eff0f1}.ColorScheme-ButtonHover{color:#93cee9}.ColorScheme-ButtonFocus{color:#3daee9}</style></defs><g id="g2267" style="fill:url(#linearGradient5360);fill-opacity:1"><path id="path6" d="M50 5C9.09 5 5 25.455 5 50c0 32.727 12.273 45 45 45 32.727 0 45-12.273 45-45 0-24.545-4.09-45-45-45Z" style="font-variation-settings:normal;display:inline;opacity:1;vector-effect:none;fill:url(#linearGradient5454);fill-opacity:1;stroke-width:4.56656;stroke-linecap:butt;stroke-linejoin:miter;stroke-miterlimit:4;stroke-dasharray:none;stroke-dashoffset:0;stroke-opacity:1;-inkscape-stroke:none;stop-color:#000;stop-opacity:1" transform="matrix(.24444 0 0 .24444 -.222 -.222)"/></g><path id="path5344" d="M16.09 7.474c-.071.01-.138.018-.2.06-.156.11-.215.377-.083.531a.42.42 0 0 0 .386.132c.253-.033.395-.347.267-.568-.067-.116-.242-.171-.37-.155M4.953 9.071c-.017-.07-.01-.216-.068-.263-.039-.032-.085-.028-.132-.028h-.23c-.039 0-.084-.004-.114.026-.048.046-.032.137-.032.198v2.664c0 .056-.01.123.006.176.016.055.064.069.115.073.116.007.236.003.352 0 .047-.001.1-.008.124-.054.025-.049.015-.117.015-.17V9.598c0-.041-.015-.123.01-.157.027-.036.09-.054.13-.076.143-.08.305-.135.466-.171.148-.034.324-.055.472-.01.228.069.284.31.312.516.022.175.003.364.003.54v1.44c0 .053-.012.123.015.17.024.044.08.049.124.049h.267c.046 0 .101.006.145-.012.076-.032.055-.14.055-.206V9.574c0-.035-.012-.096.006-.127.032-.055.155-.094.212-.12.227-.108.474-.172.726-.165.348.008.455.347.455.641v1.799c0 .07-.01.15.002.218.01.053.053.071.1.077.107.013.22.002.328.002.044 0 .1.005.138-.022.038-.028.037-.076.037-.117V9.719c0-.198.003-.403-.08-.588-.289-.64-1.156-.494-1.664-.247-.129.063-.24.153-.363.223-.21-.505-.879-.49-1.315-.345-.084.028-.168.06-.248.098-.129.062-.245.141-.37.21m9.122-.39a1.59 1.59 0 0 0-.558.153.847.847 0 0 0-.325.292c-.22.35-.129.831.18 1.095.298.253.72.313 1.066.477.192.091.298.228.265.445-.029.186-.18.29-.35.338-.28.08-.621.03-.902-.033-.094-.021-.185-.051-.279-.074-.035-.009-.086-.024-.12-.004-.043.026-.031.1-.031.142 0 .137-.008.258.14.318.38.155.81.208 1.217.153.189-.025.374-.092.532-.198a.843.843 0 0 0 .315-.357.838.838 0 0 0 .073-.321c0-.116-.002-.228-.036-.34-.135-.433-.626-.55-1-.7-.237-.095-.603-.186-.617-.499a.442.442 0 0 1 .011-.12c.074-.306.465-.315.715-.298a2.073 2.073 0 0 1 .351.05c.084.02.166.045.25.068.038.01.083.026.12 0 .034-.027.036-.084.037-.124 0-.095.013-.251-.085-.306-.08-.045-.185-.064-.273-.087-.219-.055-.47-.1-.696-.07m4.39.018c-.288.038-.557.085-.799.263-.512.377-.617 1.03-.576 1.624.024.338.121.688.353.945.323.358.813.462 1.277.43.205-.014.405-.044.594-.132.116-.053.078-.223.078-.329 0-.048.001-.115-.054-.135-.085-.03-.224.04-.31.058a1.71 1.71 0 0 1-.587.026.861.861 0 0 1-.478-.215.841.841 0 0 1-.214-.412 2.071 2.071 0 0 1 .029-1.036.904.904 0 0 1 .107-.242c.223-.34.656-.365 1.023-.339.101.008.2.034.296.061.044.013.104.032.146.005.049-.03.042-.095.042-.145 0-.118.02-.235-.09-.31-.06-.041-.16-.049-.23-.063-.196-.04-.406-.08-.606-.054m-6.596 2.868c.01.072.01.246.073.29.084.056.248.025.345.025.039 0 .087.001.12-.024.03-.023.036-.068.037-.103.028-.628 0-1.262 0-1.89v-.672c0-.114.016-.24-.006-.352-.01-.05-.047-.072-.096-.077-.117-.012-.24-.001-.358-.001-.05 0-.108 0-.143.042-.04.049-.026.135-.026.194v2.06c0 .037.012.104-.007.138-.032.058-.154.1-.211.13-.234.116-.5.192-.764.166a.591.591 0 0 1-.157-.036c-.28-.11-.29-.428-.29-.684V9.04c0-.064.011-.143-.004-.206-.011-.045-.05-.067-.094-.071-.11-.012-.228-.001-.339-.001-.045 0-.102-.007-.139.026-.03.027-.03.069-.03.107V10.869c0 .254-.003.503.12.733.127.241.407.357.667.376.462.034.936-.13 1.302-.412m4.046-2.802c-.108.018-.091.126-.091.21v2.713c0 .053-.014.13.022.174.03.038.092.038.135.038.122 0 .256.015.376-.008.095-.018.072-.139.072-.21V8.98c0-.054.014-.13-.02-.176-.034-.043-.088-.042-.137-.042-.115 0-.243-.016-.357.002m2.586 4.288c-.128.017-.259.018-.388.036-.32.043-.645.136-.933.284-.1.052-.23.111-.303.2-.04.047-.061.124.007.16.049.025.106.01.157.003.12-.014.239-.027.358-.042a6.384 6.384 0 0 1 1.047-.038c.15.007.353.024.473.123.128.107.099.307.078.453-.055.403-.21.796-.354 1.175-.046.12-.117.244-.144.369-.013.061.009.128.08.13.12.005.215-.102.291-.179a2.74 2.74 0 0 0 .498-.714c.198-.396.354-.857.375-1.302.006-.132.035-.328-.047-.442-.064-.09-.21-.12-.31-.144a3.368 3.368 0 0 0-.534-.069c-.113-.008-.238-.018-.351-.003m-14.166.298c-.122.032-.1.178-.034.25.17.184.388.341.585.496.752.593 1.58 1.095 2.459 1.477 2.654 1.151 5.718 1.275 8.449.303.655-.233 1.299-.512 1.89-.882.145-.091.29-.183.43-.283.063-.046.139-.089.192-.147a.277.277 0 0 0 .055-.085c.077-.199-.136-.32-.308-.28-.08.017-.156.058-.23.09-.11.046-.222.087-.333.13-.315.122-.636.227-.957.327-1.484.46-3.074.71-4.628.672a16.43 16.43 0 0 1-4.215-.657 14.684 14.684 0 0 1-3.07-1.306c-.082-.046-.185-.131-.285-.105Z" style="fill:url(#linearGradient5352);fill-opacity:1;stroke:none;stroke-width:.00605643"/></svg>