<svg xmlns="http://www.w3.org/2000/svg" xmlns:xlink="http://www.w3.org/1999/xlink" xml:space="preserve" id="svg154" width="24" height="24" fill="none" version="1.1"><defs id="defs152"><linearGradient id="linearGradient12456"><stop id="stop12454" offset="0" style="stop-color:#000;stop-opacity:1"/></linearGradient><linearGradient id="linearGradient10488"><stop id="stop10486" offset="0" style="stop-color:#000;stop-opacity:1"/></linearGradient><linearGradient id="linearGradient10413"><stop id="stop10411" offset="0" style="stop-color:#000;stop-opacity:1"/></linearGradient><linearGradient id="linearGradient5358"><stop id="stop5354" offset="0" style="stop-color:#e6e6e6;stop-opacity:1"/><stop id="stop5356" offset="1" style="stop-color:#fff;stop-opacity:1"/></linearGradient><linearGradient xlink:href="#linearGradient5358" id="linearGradient5360" x1="13.523" x2="13.744" y1="34.648" y2="-9.855" gradientUnits="userSpaceOnUse"/><linearGradient xlink:href="#linearGradient5358" id="linearGradient13399" x1="13.523" x2="13.744" y1="34.648" y2="-9.855" gradientUnits="userSpaceOnUse"/><style id="current-color-scheme" type="text/css">.ColorScheme-Text{color:#31363b}.ColorScheme-Background{color:#eff0f1}.ColorScheme-Highlight{color:#3daee9}.ColorScheme-ViewText{color:#31363b}.ColorScheme-ViewBackground{color:#fcfcfc}.ColorScheme-ViewHover{color:#93cee9}.ColorScheme-ViewFocus{color:#3daee9}.ColorScheme-ButtonText{color:#31363b}.ColorScheme-ButtonBackground{color:#eff0f1}.ColorScheme-ButtonHover{color:#93cee9}.ColorScheme-ButtonFocus{color:#3daee9}</style></defs><g id="g2267" style="fill:url(#linearGradient5360);fill-opacity:1"><path id="path6" d="M50 5C9.09 5 5 25.455 5 50c0 32.727 12.273 45 45 45 32.727 0 45-12.273 45-45 0-24.545-4.09-45-45-45Z" style="font-variation-settings:normal;display:inline;opacity:1;vector-effect:none;fill:url(#linearGradient13399);fill-opacity:1;stroke-width:4.56656;stroke-linecap:butt;stroke-linejoin:miter;stroke-miterlimit:4;stroke-dasharray:none;stroke-dashoffset:0;stroke-opacity:1;-inkscape-stroke:none;stop-color:#000;stop-opacity:1" transform="matrix(.24444 0 0 .24444 -.222 -.222)"/></g><g id="g2694" transform="translate(18.046 6.886) scale(.50212)"><path id="path2698" d="M-21.014 24.777a2.211 2.211 0 0 1-.577-.199 2.018 2.018 0 0 1-1.062-1.473c-.019-.116-.021-1.76-.021-12.905 0-8.843.004-12.808.015-12.887a2.027 2.027 0 0 1 1.394-1.65c.307-.095-.167-.088 6.138-.088h5.736L-5.4-.434l3.991 3.991-.003 9.774-.004 9.774-.04.147c-.117.441-.332.795-.64 1.059-.264.225-.515.352-.899.456-.09.025-.55.026-8.995.029-7.603.002-8.918-.001-9.024-.019zm17.993-.032c.078-.018.2-.053.271-.078a1.987 1.987 0 0 0 1.23-1.274c.086-.274.08.467.083-10.099.001-5.339.002-9.716 0-9.725 0-.014-.671-.02-3.104-.023l-3.102-.005-.143-.032a2.004 2.004 0 0 1-1.017-.553 1.996 1.996 0 0 1-.546-1.007c-.025-.104-.026-.292-.03-3.216-.003-1.708-.01-3.11-.017-3.117-.006-.007-2.588-.012-5.738-.011-6.338 0-5.848-.008-6.155.095-.285.095-.525.239-.74.444-.283.27-.461.576-.569.979l-.04.148-.004 12.866c-.003 11.445 0 12.88.019 12.997a1.984 1.984 0 0 0 1.755 1.636c.069.007 4.08.011 8.914.01l8.79-.002zm-14.319-5.258c-.014-.01-.017-.983-.014-4.82l.003-4.81H-6.733l.004 4.81c.003 3.837 0 4.81-.015 4.82-.01.006-2.394.012-5.298.012-2.903 0-5.288-.006-5.298-.012zm10.585-4.812V9.88h-5.286c-3.72 0-5.289.004-5.296.015-.005.009-.004 2.167.002 4.795l.01 4.78h10.57v-4.795zm-9.263 3.493c-.014-.006-.018-.188-.018-.842v-.834l.033-.009c.06-.016 3.256-.01 3.287.006.027.015.028.04.028.836 0 .798 0 .822-.028.837-.03.016-3.264.02-3.302.006zm3.293-.842v-.816l-1.628-.003c-1.191-.003-1.634 0-1.649.013-.016.013-.02.157-.02.799 0 .43.004.793.01.806.007.021.162.023 1.648.02l1.64-.004zm1.355.835c-.024-.013-.025-.07-.025-.836 0-.797 0-.821.028-.836.03-.016 3.226-.022 3.287-.006l.033.009v.834c0 .747-.002.835-.023.843-.042.016-3.272.009-3.3-.007zm3.3-.036c.004-.013.008-.376.008-.806 0-.642-.003-.786-.02-.8-.014-.012-.457-.015-1.648-.012l-1.629.003-.004.8c-.002.441 0 .81.004.82.005.014.348.018 1.643.018 1.479 0 1.637-.002 1.645-.023zm-7.948-2.618c-.015-.01-.018-.187-.015-.84l.004-.83h3.334l.004.821c.002.594-.001.827-.013.841-.014.017-.29.02-1.656.02-.902 0-1.648-.006-1.658-.012zm3.297-.834c.004-.716.001-.811-.018-.819a79.927 79.927 0 0 0-1.645.001l-1.623.01v1.625l1.641-.004 1.641-.004zm1.342.826c-.012-.014-.016-.247-.013-.84l.004-.821h3.334l.003.828c.003.654 0 .832-.014.841-.01.006-.756.012-1.658.012-1.366 0-1.642-.003-1.656-.02zm3.308-.032c.005-.013.01-.375.01-.805 0-.589-.005-.786-.018-.8-.014-.013-.396-.017-1.63-.017-.885 0-1.621.004-1.634.009-.02.008-.023.093-.023.812 0 .443.004.809.01.814.005.005.745.01 1.643.01 1.476 0 1.634-.002 1.642-.023zm-7.959-2.624a25.9 25.9 0 0 1-.003-.841l.004-.823 1.659-.003c1.317-.003 1.66 0 1.67.014.006.01.012.383.012.827 0 .61-.004.813-.017.826-.027.027-3.315.026-3.325 0zm3.31-.83.003-.812h-3.29V12.832l1.641-.004 1.641-.004zm1.342.83c-.013-.013-.017-.215-.017-.826 0-.444.005-.817.012-.827.009-.014.353-.017 1.67-.014l1.659.003V12.854l-1.653.003c-1.274.003-1.657 0-1.67-.014zm3.31-.044c.004-.019.005-.384.003-.812l-.004-.778-1.649-.004-1.648-.004v.806c0 .443.004.81.01.815.005.005.745.01 1.644.01h1.635z" style="fill:#8dcfaf;stroke-width:.0146862"/><path id="path2696" d="M-20.868 24.77a1.954 1.954 0 0 1-1.203-.572 1.967 1.967 0 0 1-.552-1.064c-.02-.118-.022-1.552-.019-12.997l.004-12.866.04-.148A1.994 1.994 0 0 1-21.289-4.3c.307-.103-.183-.095 6.155-.095 3.15 0 5.732.004 5.738.01.007.007.014 1.41.016 3.118.005 2.924.006 3.112.031 3.216.1.419.267.727.546 1.007.282.283.605.458 1.017.553l.143.032 3.102.005c2.433.004 3.103.009 3.105.023l-.001 9.725c-.003 10.566.003 9.825-.083 10.1a1.987 1.987 0 0 1-1.23 1.273c-.07.025-.193.06-.271.078l-.143.033-8.79.002c-4.834.001-8.845-.003-8.914-.01zm14.124-5.283c.015-.01.018-.983.015-4.82l-.004-4.81H-17.35l-.003 4.81c-.003 3.837 0 4.81.014 4.82.01.006 2.395.012 5.298.012 2.904 0 5.288-.006 5.298-.012zm-9.269-1.362a19.334 19.334 0 0 1-.009-.806c0-.642.004-.786.02-.8.015-.012.458-.015 1.649-.012l1.628.003V18.141l-1.64.003c-1.485.004-1.64.002-1.648-.02zm4.654.005c-.004-.01-.006-.379-.004-.82l.004-.8 1.629-.003c1.191-.003 1.634 0 1.648.013.017.013.02.157.02.799 0 .43-.004.793-.009.806-.008.02-.166.023-1.645.023-1.295 0-1.638-.004-1.643-.018zm-4.648-3.453v-.813l1.623-.009a79.809 79.809 0 0 1 1.645 0c.02.007.022.102.018.818l-.004.81-1.64.003-1.642.004zm4.65.803a17.35 17.35 0 0 1-.01-.814c0-.719.003-.804.024-.812.013-.005.748-.01 1.635-.01 1.233 0 1.615.005 1.629.019.013.013.017.21.017.799 0 .43-.004.792-.009.805-.008.02-.166.023-1.642.023a69.99 69.99 0 0 1-1.643-.01zm-4.65-3.463V11.2h3.29l-.004.812-.004.811-1.64.004-1.642.004zm4.65.805c-.005-.006-.01-.372-.01-.815V11.2l1.65.004 1.648.004.004.778c.002.428 0 .793-.004.811l-.008.033h-1.635c-.899 0-1.639-.004-1.644-.01z" style="fill:#1ba060;stroke-width:.0146862"/></g></svg>